<?xml version="1.0" standalone="no"?>
<!DOCTYPE svg PUBLIC "-//W3C//DTD SVG 1.1//EN" "http://www.w3.org/Graphics/SVG/1.1/DTD/svg11.dtd" >
<svg xmlns="http://www.w3.org/2000/svg" xmlns:xlink="http://www.w3.org/1999/xlink" version="1.1">
<metadata>
Created by FontForge 20170924 at Tue Sep 26 19:23:54 2000
 By www-data
Copyright 1990-2000 Bitstream Inc.  All rights reserved.
</metadata>
<defs>
<font id="CenturySchlbkCyrillicBT-Roman" horiz-adv-x="1706" >
  <font-face 
    font-family="CentSchbkCyrill BT"
    font-weight="400"
    font-stretch="normal"
    units-per-em="2048"
    panose-1="2 4 6 3 5 7 5 2 3 3"
    ascent="1556"
    descent="-492"
    x-height="948"
    cap-height="1479"
    bbox="-184 -483 2365 1986"
    underline-thickness="123"
    underline-position="-274"
    unicode-range="U+0020-2219"
  />
<missing-glyph horiz-adv-x="1229" 
d="M102 -362v1806h1024v-1806h-1024zM217 -248h795v1577h-795v-1577z" />
    <glyph glyph-name=".notdef" horiz-adv-x="1229" 
d="M102 -362v1806h1024v-1806h-1024zM217 -248h795v1577h-795v-1577z" />
    <glyph glyph-name=".null" horiz-adv-x="0" 
 />
    <glyph glyph-name="nonmarkingreturn" horiz-adv-x="559" 
 />
    <glyph glyph-name="space" unicode=" " horiz-adv-x="559" 
 />
    <glyph glyph-name="space" unicode="&#xa0;" horiz-adv-x="559" 
 />
    <glyph glyph-name="exclam" unicode="!" horiz-adv-x="606" 
d="M260 395l-4 192q-4 221 -44 467.5t-40 280.5q0 85 33.5 130.5t95.5 45.5q64 0 96.5 -45t32.5 -133q0 -34 -40 -279.5t-44 -466.5l-4 -192h-82zM301 223q52 0 88.5 -37t36.5 -90t-36 -90t-89 -37q-52 0 -89.5 38t-37.5 89q0 52 37.5 89.5t89.5 37.5z" />
    <glyph glyph-name="quotedbl" unicode="&#x22;" horiz-adv-x="686" 
d="M526 860h-34l-70 459q-1 7 -1.5 14.5t-0.5 22.5q0 51 22.5 78.5t65.5 27.5q42 0 66 -27t24 -75q0 -16 -0.5 -24.5t-1.5 -16.5zM195 860h-35l-70 459q-2 17 -3 26t-1 15q0 48 24 75t66 27q44 0 67 -27.5t23 -78.5q0 -16 -0.5 -23.5t-1.5 -14.5z" />
    <glyph glyph-name="numbersign" unicode="#" horiz-adv-x="1575" 
d="M702 864l-98 -276h283l96 276h-281zM760 1458h155l-161 -454h276l162 454h156l-162 -454h301l-49 -140h-301l-97 -276h320l-49 -139h-320l-162 -453h-155l162 453h-279l-162 -453h-153l159 453h-313l51 139h312l98 276h-336l51 140h334z" />
    <glyph glyph-name="dollar" unicode="$" horiz-adv-x="1118" 
d="M508 872v477q-116 -8 -185 -72.5t-69 -164.5q0 -93 63 -152.5t191 -87.5zM508 -20h-14q-172 0 -290 96.5t-118 230.5q0 81 41 129.5t109 48.5q51 0 86.5 -36t35.5 -89q0 -66 -56 -108.5t-56 -54.5q0 -44 78 -86.5t184 -42.5v589q-198 45 -291.5 143t-93.5 261
q0 157 104.5 257.5t280.5 113.5v122h100v-120q165 -12 267 -93.5t102 -195.5q0 -68 -36 -107t-99 -39q-55 0 -88 33.5t-33 87.5q0 55 45 87.5t45 43.5q0 32 -60.5 64t-142.5 34v-509q229 -59 327.5 -158t98.5 -266q0 -181 -114.5 -298t-311.5 -138v-263h-100v263zM608 72
q128 13 201.5 89t73.5 193q0 112 -56 169t-219 102v-553z" />
    <glyph glyph-name="percent" unicode="%" horiz-adv-x="1686" 
d="M369 -35l745 1321q-55 -32 -111.5 -48.5t-109.5 -16.5q-39 0 -67.5 4t-48.5 12q3 -15 5 -32t2 -38q0 -89 -37 -188.5t-102 -181.5q-65 -84 -142 -127t-161 -43q-118 0 -189 74.5t-71 197.5q0 85 36 172t105 168q75 88 154 134t153 46q77 0 128.5 -23t84.5 -73
q28 -23 66.5 -35t85.5 -12q90 0 183 47t143 121h90l-842 -1479h-100zM1536 512q0 81 -40.5 132.5t-102.5 51.5q-49 0 -95 -38t-108 -134q-71 -111 -110.5 -206t-39.5 -154q0 -60 40 -96.5t106 -36.5q62 0 120.5 39t112.5 116q57 80 87 164.5t30 161.5zM1337 756
q124 0 190 -64.5t66 -183.5q0 -91 -37 -189t-106 -186q-65 -83 -141 -125.5t-162 -42.5q-116 0 -187 74.5t-71 196.5q0 84 36 171t105 168q74 88 153.5 134.5t153.5 46.5zM715 1261q-43 11 -76.5 34t-56.5 56q-48 -1 -94 -39t-105 -128q-72 -110 -111 -203.5t-39 -157.5
q0 -59 39 -95t103 -36t124 39t113 115q57 82 88 169t31 165q0 17 -4.5 39t-11.5 42z" />
    <glyph glyph-name="ampersand" unicode="&#x26;" horiz-adv-x="1657" 
d="M647 928q112 51 172 124.5t60 159.5q0 107 -41 157t-127 50q-77 0 -118.5 -46.5t-41.5 -133.5q0 -61 24 -138.5t72 -172.5zM868 186q-101 114 -189.5 252t-180.5 326q-89 -43 -136 -106.5t-47 -141.5q0 -161 103 -287.5t231 -126.5q63 0 118 21.5t101 62.5zM1491 352
l84 -20q-39 -190 -121.5 -276.5t-224.5 -86.5q-80 0 -155 37.5t-138 108.5q-96 -79 -193.5 -117.5t-201.5 -38.5q-191 0 -315 118.5t-124 297.5q0 152 87 265t272 202q-47 84 -70.5 168t-23.5 166q0 149 98.5 244.5t253.5 95.5q145 0 234 -79.5t89 -207.5q0 -122 -81.5 -209
t-276.5 -168l39 -66q188 -325 299 -450q70 88 109.5 171t39.5 138q0 51 -46.5 78t-135.5 27h-26v88h563v-88q-80 0 -126 -22t-81 -75q-4 -6 -77 -145t-161 -246q66 -69 121 -101t107 -32q65 0 110.5 55.5t71.5 167.5z" />
    <glyph glyph-name="quotesingle" unicode="'" horiz-adv-x="352" 
d="M195 860h-35l-70 459q0 2 -1 8q-3 20 -3 29q0 50 23.5 78t66.5 28q42 0 66 -27t24 -75q0 -7 -0.5 -15t-3.5 -27z" />
    <glyph glyph-name="parenleft" unicode="(" horiz-adv-x="729" 
d="M637 -246q-232 128 -359.5 360.5t-127.5 526.5q0 282 123.5 504t363.5 371v-56q-174 -127 -252 -315t-78 -488q0 -325 77.5 -523t252.5 -327v-53z" />
    <glyph glyph-name="parenright" unicode=")" horiz-adv-x="729" 
d="M98 -246v53q175 129 252.5 327t77.5 523q0 300 -78 488t-252 315v56q240 -149 364 -371t124 -504q0 -294 -128 -526.5t-360 -360.5z" />
    <glyph glyph-name="asterisk" unicode="*" horiz-adv-x="1024" 
d="M500 1124v17q0 72 -35 162.5t-35 115.5q0 43 22.5 70t59.5 27q35 0 58.5 -26t23.5 -65q0 -27 -35 -120t-35 -168v-13q78 40 150 138q15 19 23 29q24 28 50 42.5t56 14.5q32 0 54 -23t22 -57q0 -33 -22 -56.5t-62 -35.5q-14 -5 -52 -9q-123 -13 -206 -63q69 -43 162 -57.5
t100 -16.5q35 -12 57.5 -38.5t22.5 -55.5q0 -33 -24 -55.5t-58 -22.5q-26 0 -52 16t-53 48q-5 6 -15 20q-65 91 -153 139v-16q0 -72 35 -162t35 -115q0 -43 -22.5 -69.5t-59.5 -26.5q-35 0 -58.5 25t-23.5 63q0 28 35 121t35 168v12q-78 -39 -150 -137q-15 -20 -22 -28
q-24 -29 -50 -42.5t-57 -13.5q-32 0 -54 22t-22 56q0 33 22 56.5t62 35.5q14 4 52 9q123 15 206 65q-71 44 -164 58.5t-96 15.5q-39 12 -60.5 36t-21.5 56q0 34 23.5 57t58.5 23q26 0 52 -16t52 -47q5 -6 17 -23q65 -91 152 -140z" />
    <glyph glyph-name="plus" unicode="+" 
d="M782 1221h142v-541h528v-139h-528v-541h-142v541h-528v139h528v541z" />
    <glyph glyph-name="comma" unicode="," horiz-adv-x="559" 
d="M162 -385l-47 59q98 73 149 145.5t51 137.5q0 7 -3 25q0 3 -1 6q-23 -8 -34 -10.5t-19 -2.5q-59 0 -92 32.5t-33 88.5q0 52 37.5 89.5t89.5 37.5q74 0 119 -56.5t45 -150.5q0 -115 -67 -217t-195 -184z" />
    <glyph glyph-name="hyphen" unicode="-" horiz-adv-x="674" 
d="M90 399v174h492v-174h-492z" />
    <glyph glyph-name="period" unicode="." horiz-adv-x="559" 
d="M154 96q0 53 36.5 90t88.5 37t89.5 -37.5t37.5 -89.5q0 -53 -37 -90t-90 -37q-52 0 -88.5 38t-36.5 89z" />
    <glyph glyph-name="slash" unicode="/" horiz-adv-x="569" 
d="M496 1516h92l-514 -1706h-94z" />
    <glyph glyph-name="zero" unicode="0" horiz-adv-x="1118" 
d="M307 705q0 -348 58.5 -497t193.5 -149q134 0 193 150.5t59 495.5q0 350 -59 499.5t-193 149.5t-193 -149.5t-59 -499.5zM86 705q0 333 131 536t342 203q215 0 345 -201t130 -538q0 -334 -132 -537t-343 -203q-212 0 -342.5 203t-130.5 537z" />
    <glyph glyph-name="one" unicode="1" horiz-adv-x="1118" 
d="M690 197q0 -59 27.5 -80t113.5 -21h152v-96h-768v96h137q87 0 114.5 21t27.5 80v942q0 39 -19 53t-78 14h-196v88q147 8 256.5 45.5t177.5 104.5h55v-1247z" />
    <glyph glyph-name="two" unicode="2" horiz-adv-x="1118" 
d="M938 449h82l-37 -449h-913v63q110 149 430 504l100 111q103 115 145.5 208.5t42.5 200.5q0 128 -67.5 194.5t-198.5 66.5q-119 0 -205 -61.5t-86 -135.5q0 -37 59 -59q5 -2 7 -2q54 -21 76 -46.5t22 -66.5q0 -55 -36.5 -93t-90.5 -38q-72 0 -117 57.5t-45 153.5
q0 165 127 274t326 109q213 0 331 -104.5t118 -293.5q0 -110 -48.5 -200t-183.5 -211q-9 -9 -160 -131t-270 -244l-63 -63h465q98 0 123.5 26.5t56.5 177.5z" />
    <glyph glyph-name="three" unicode="3" horiz-adv-x="1118" 
d="M700 760q160 -36 241 -132.5t81 -252.5q0 -182 -135.5 -297t-354.5 -115q-201 0 -323.5 94t-122.5 244q0 83 42 133.5t110 50.5q54 0 87 -34.5t33 -92.5q0 -30 -9 -54t-30 -46q-14 -15 -44.5 -34.5t-30.5 -37.5q0 -46 74 -88.5t174 -42.5q156 0 231.5 80.5t75.5 247.5
q0 176 -61.5 253t-200.5 77q-26 0 -67.5 -5.5t-57.5 -5.5q-27 0 -42.5 13.5t-15.5 36.5q0 27 17.5 42t50.5 15q4 0 41 -4t69 -4q125 0 183.5 72t58.5 227q0 124 -62.5 189t-181.5 65q-92 0 -155.5 -36t-63.5 -81q0 -12 43 -52t43 -98q0 -53 -32.5 -83.5t-88.5 -30.5
q-58 0 -92 40.5t-34 110.5q0 142 115 233t300 91q187 0 298.5 -95.5t111.5 -254.5q0 -128 -66 -209.5t-209 -128.5z" />
    <glyph glyph-name="four" unicode="4" horiz-adv-x="1118" 
d="M623 479v621l-451 -621h451zM414 0v94h88q75 0 98 17t23 67v184h-568v121l684 961h76v-965h244v-114h-244v-187q0 -50 23 -67t98 -17h88v-94h-610z" />
    <glyph glyph-name="five" unicode="5" horiz-adv-x="1118" 
d="M244 1450h49q49 -29 144.5 -44t226.5 -15q95 0 169.5 18t120.5 53l21 -14q-31 -125 -132 -190.5t-261 -65.5q-54 0 -115.5 7.5t-132.5 23.5q-14 -100 -23.5 -184t-15.5 -167q71 32 137 47t135 15q200 0 326.5 -127.5t126.5 -331.5q0 -235 -141 -372.5t-381 -137.5
q-177 0 -294.5 96.5t-117.5 239.5q0 83 42 133.5t110 50.5q54 0 87 -34.5t33 -92.5q0 -29 -9.5 -54t-29.5 -46q-14 -15 -44.5 -34.5t-30.5 -37.5q0 -46 74 -88.5t174 -42.5q148 0 229.5 110.5t81.5 311.5q0 169 -79.5 265t-217.5 96q-62 0 -115.5 -18.5t-99.5 -55.5
q-6 -67 -27 -99t-59 -32q-33 0 -50.5 18.5t-17.5 53.5q0 21 13 45t38 49q20 78 34.5 249t21.5 402z" />
    <glyph glyph-name="six" unicode="6" horiz-adv-x="1118" 
d="M305 693q69 96 156 145t190 49q179 0 285 -115.5t106 -310.5q0 -220 -130.5 -358t-336.5 -138q-226 0 -358.5 182t-132.5 496q0 357 164 579t424 222q143 0 232 -69.5t89 -180.5q0 -60 -35 -98.5t-90 -38.5q-49 0 -83.5 34.5t-34.5 82.5q0 35 21.5 74t21.5 44
q0 25 -36 42.5t-91 17.5q-173 0 -266 -170t-95 -489zM319 428q0 -175 67 -273t185 -98q122 0 190 96t68 267q0 164 -62.5 253t-178.5 89q-121 0 -195 -91.5t-74 -242.5z" />
    <glyph glyph-name="seven" unicode="7" horiz-adv-x="1118" 
d="M231 932l-84 10l58 500q81 -14 179.5 -20.5t229.5 -6.5q106 0 212 4t214 13v-68q-187 -397 -264.5 -630.5t-77.5 -389.5q0 -29 2 -92t2 -96q0 -97 -35 -146t-106 -49q-56 0 -88.5 39.5t-32.5 108.5q0 137 109 405.5t354 734.5q-65 -5 -130 -7.5t-134 -2.5q-66 0 -145.5 3
t-92.5 3q-79 0 -96.5 -16.5t-34.5 -98.5z" />
    <glyph glyph-name="eight" unicode="8" horiz-adv-x="1118" 
d="M674 827q78 60 115.5 128t37.5 149q0 119 -70.5 185.5t-197.5 66.5q-122 0 -192 -61t-70 -167q0 -101 85 -170t292 -131zM471 668q-110 -45 -165.5 -126t-55.5 -198q0 -138 80 -213.5t227 -75.5q149 0 236.5 78.5t87.5 210.5q0 111 -68.5 174t-341.5 150zM387 705
q-120 48 -181 134t-61 208q0 175 118.5 286t305.5 111q182 0 292 -91t110 -241q0 -95 -57 -174.5t-166 -136.5q151 -57 225 -152.5t74 -232.5q0 -201 -144 -327t-377 -126q-206 0 -326 104t-120 281q0 125 79.5 217.5t227.5 139.5z" />
    <glyph glyph-name="nine" unicode="9" horiz-adv-x="1118" 
d="M817 714q-69 -96 -155 -145t-189 -49q-180 0 -286.5 115.5t-106.5 310.5q0 220 130.5 358t336.5 138q227 0 360 -183t133 -497q0 -356 -164 -577.5t-425 -221.5q-144 0 -233 69.5t-89 180.5q0 60 35 97.5t90 37.5q49 0 85 -34.5t36 -82.5q0 -35 -22.5 -73t-22.5 -43
q0 -26 36 -44t91 -18q172 0 265.5 171.5t94.5 489.5zM803 977q0 175 -67 273t-185 98q-122 0 -190 -96t-68 -267q0 -164 62.5 -252t179.5 -88q121 0 194.5 90.5t73.5 241.5z" />
    <glyph glyph-name="colon" unicode=":" horiz-adv-x="606" 
d="M303 -31q-52 0 -89.5 37t-37.5 88q0 52 37.5 89.5t89.5 37.5t88.5 -37t36.5 -90t-36 -89t-89 -36zM303 676q-52 0 -89.5 38t-37.5 89q0 52 37.5 88.5t89.5 36.5t88.5 -36.5t36.5 -88.5q0 -53 -36 -90t-89 -37z" />
    <glyph glyph-name="semicolon" unicode=";" horiz-adv-x="606" 
d="M303 676q-53 0 -90 37.5t-37 89.5t37.5 88.5t89.5 36.5t88.5 -36.5t36.5 -88.5q0 -53 -36 -90t-89 -37zM205 -385l-45 59q98 73 149 145.5t51 137.5q0 7 -3 25q0 3 -1 6q-23 -8 -34 -10.5t-19 -2.5q-59 0 -92 32.5t-33 88.5q0 53 36.5 90t88.5 37q74 0 120 -57t46 -150
q0 -114 -67.5 -216.5t-196.5 -184.5z" />
    <glyph glyph-name="less" unicode="&#x3c;" 
d="M1442 1159v-153l-969 -396l969 -393v-154l-1178 484v129z" />
    <glyph glyph-name="equal" unicode="=" 
d="M254 481h1198v-139h-1198v139zM254 879h1198v-140h-1198v140z" />
    <glyph glyph-name="greater" unicode="&#x3e;" 
d="M264 1159l1178 -483v-129l-1178 -484v154l971 393l-971 396v153z" />
    <glyph glyph-name="question" unicode="?" horiz-adv-x="901" 
d="M393 -27q-52 0 -88.5 37.5t-36.5 89.5q0 53 36.5 90t88.5 37t89.5 -37t37.5 -90q0 -52 -37 -89.5t-90 -37.5zM356 408v141q0 138 119 288l2 3l9 11q135 177 135 318q0 130 -59 194t-177 64q-73 0 -128.5 -34t-55.5 -74q0 -11 46 -54.5t46 -99.5q0 -53 -33.5 -85.5
t-87.5 -32.5q-59 0 -94 42.5t-35 114.5q0 132 113.5 223t283.5 91q172 0 280.5 -97t108.5 -250q0 -188 -255 -415l-4 -4q-84 -74 -108 -127.5t-24 -137.5v-79h-82z" />
    <glyph glyph-name="at" unicode="@" horiz-adv-x="2019" 
d="M1186 332q-62 -105 -138 -156t-169 -51q-129 0 -206 92t-77 246q0 109 49.5 216t140.5 195q68 65 146 99.5t155 34.5q90 0 146 -48.5t76 -142.5l51 174h158l-172 -612l-4 -12q-15 -56 -15 -86q0 -51 23.5 -79t66.5 -28q33 0 80.5 20t89.5 52q119 90 179.5 228.5
t60.5 318.5q0 133 -52.5 245t-156.5 201q-90 77 -214 118.5t-267 41.5q-180 0 -335.5 -61.5t-275.5 -180.5q-126 -124 -190 -287t-64 -358q0 -182 57 -313t179 -234q109 -92 254 -141t307 -49q170 0 327 51.5t300 155.5l33 -41q-147 -110 -312.5 -166t-345.5 -56
q-189 0 -345.5 45.5t-274.5 135.5q-151 113 -230.5 276.5t-79.5 360.5q0 203 86.5 380.5t251.5 313.5q134 111 294.5 167t342.5 56q346 0 555 -188.5t209 -499.5q0 -159 -58.5 -298t-166.5 -237q-59 -52 -126 -80t-134 -28q-96 0 -149 53t-60 156zM1104 961
q-54 0 -98.5 -30.5t-90.5 -99.5q-71 -107 -113 -233.5t-42 -228.5q0 -86 39.5 -138.5t101.5 -52.5q65 0 122.5 43.5t111.5 132.5q55 93 88.5 204t33.5 198q0 92 -42 148.5t-111 56.5z" />
    <glyph glyph-name="A" unicode="A" horiz-adv-x="1446" 
d="M909 586l-243 594l-234 -594h477zM684 1503h80l522 -1304q26 -64 54 -83.5t87 -19.5q6 0 20 1t21 1v-98h-612v98h78q77 0 101 11.5t24 42.5q0 12 -5 30.5t-14 41.5l-94 257h-551l-63 -159q-13 -33 -21 -67.5t-8 -55.5q0 -50 38 -75.5t112 -25.5h51v-98h-529v98h17
q82 0 126 34.5t85 137.5z" />
    <glyph glyph-name="B" unicode="B" horiz-adv-x="1432" 
d="M504 721v-528q0 -59 22.5 -78t89.5 -19h146q186 0 268 72.5t82 234.5q0 170 -98 244t-326 74h-184zM70 0v96h106q65 0 87 20.5t22 78.5v1089q0 57 -22 77.5t-87 20.5h-106v97h774q216 0 329 -92t113 -269q0 -133 -86.5 -219t-257.5 -123q211 -27 315.5 -121t104.5 -258
q0 -189 -142 -293t-401 -104h-749zM504 1296v-485h164q214 0 297.5 65t83.5 224q0 153 -73 219.5t-241 66.5h-129q-60 0 -81 -17.5t-21 -72.5z" />
    <glyph glyph-name="C" unicode="C" horiz-adv-x="1421" 
d="M1253 518l97 -12q-34 -256 -187.5 -400.5t-390.5 -144.5q-116 0 -216.5 34.5t-182.5 102.5q-140 116 -210.5 276.5t-70.5 364.5q0 155 44.5 289.5t131.5 245.5q96 120 217.5 178.5t274.5 58.5q105 0 196.5 -33.5t171.5 -101.5l78 127h78l27 -596l-80 -4
q-45 252 -159.5 385t-285.5 133q-214 0 -321 -170t-107 -512q0 -347 107.5 -512.5t333.5 -165.5q176 0 292.5 116.5t161.5 340.5z" />
    <glyph glyph-name="D" unicode="D" horiz-adv-x="1567" 
d="M508 1284v-1089q0 -57 21 -77t85 -20h166q237 0 338 147.5t101 493.5q0 345 -110 494t-359 149h-136q-63 0 -84.5 -20t-21.5 -78zM70 0v98h106q66 0 87.5 20t21.5 77v1089q0 57 -22 77.5t-87 20.5h-106v97h735q324 0 498 -191.5t174 -548.5q0 -342 -167.5 -540.5
t-457.5 -198.5h-782z" />
    <glyph glyph-name="E" unicode="E" horiz-adv-x="1460" 
d="M70 0v96h106q65 0 87 20.5t22 78.5v1089q0 57 -22 77.5t-87 20.5h-106v97h1198l26 -523h-88q-19 128 -56 219.5t-87 135.5q-49 40 -136 57.5t-245 17.5q-118 0 -146 -20t-28 -82v-469h29q159 0 227 62.5t82 220.5h86v-652h-86q-14 159 -81 220t-228 61h-29v-532
q0 -64 30 -84.5t160 -20.5q144 0 232.5 12.5t144.5 40.5q67 34 112.5 132.5t80.5 285.5h78l-31 -561h-1245z" />
    <glyph glyph-name="F" unicode="F" horiz-adv-x="1352" 
d="M70 0v96h106q65 0 87 20.5t22 78.5v1089q0 57 -22 77.5t-87 20.5h-106v97h1198l26 -523h-88q-19 128 -56 219.5t-87 135.5q-49 40 -136 57.5t-245 17.5q-118 0 -146 -20t-28 -82v-469h29q159 0 227 62.5t82 220.5h86v-652h-86q-14 159 -81 220t-228 61h-29v-532
q0 -58 21.5 -78.5t84.5 -20.5h136v-96h-680z" />
    <glyph glyph-name="G" unicode="G" horiz-adv-x="1593" 
d="M915 578v98h650v-98h-109q-64 0 -85 -20.5t-21 -78.5v-516h-76l-78 193q-62 -96 -163.5 -144.5t-239.5 -48.5q-312 0 -506.5 214.5t-194.5 561.5q0 346 189.5 563.5t488.5 217.5q117 0 217 -36.5t176 -107.5l76 129h80l22 -583h-81q-55 255 -168.5 377t-296.5 122
q-222 0 -329.5 -167.5t-107.5 -514.5q0 -349 109 -515.5t338 -166.5q158 0 245 81.5t87 230.5v102q0 64 -22 85.5t-87 21.5h-113z" />
    <glyph glyph-name="H" unicode="H" 
d="M70 0v96h106q63 0 86 21.5t23 77.5v1089q0 56 -23 77t-86 21h-106v97h653v-97h-109q-62 0 -84 -20.5t-22 -77.5v-457h692v457q0 56 -23 77t-85 21h-109v97h655v-97h-108q-63 0 -86 -21t-23 -77v-1089q0 -56 23 -77.5t86 -21.5h108v-96h-655v96h109q62 0 85 21.5t23 77.5
v528h-692v-528q0 -57 22 -78t84 -21h109v-96h-653z" />
    <glyph glyph-name="I" unicode="I" horiz-adv-x="815" 
d="M74 0v96h110q65 0 88 21t23 78v1089q0 57 -23 77.5t-88 20.5h-110v97h667v-97h-110q-64 0 -86.5 -20t-22.5 -78v-1089q0 -58 22.5 -78.5t86.5 -20.5h110v-96h-667z" />
    <glyph glyph-name="J" unicode="J" horiz-adv-x="1085" 
d="M621 1284q0 57 -21 77.5t-86 20.5h-119v97h670v-97h-107q-65 0 -86.5 -20.5t-21.5 -77.5v-833q0 -248 -111.5 -368t-343.5 -120q-186 0 -296.5 100t-110.5 265q0 110 57.5 182t144.5 72q72 0 115 -42.5t43 -113.5q0 -69 -38.5 -109.5t-104.5 -40.5q-23 0 -49 4.5t-29 4.5
q-11 0 -19 -8.5t-8 -20.5q0 -74 73.5 -128t182.5 -54q140 0 202.5 72.5t62.5 236.5v901z" />
    <glyph glyph-name="K" unicode="K" horiz-adv-x="1581" 
d="M72 0v96h106q63 0 85 20.5t22 78.5v1089q0 57 -22 77.5t-85 20.5h-106v97h647v-97h-107q-62 0 -84 -20.5t-22 -77.5v-616l557 581q21 21 30 39t9 39q0 31 -26.5 43t-117.5 12h-43v97h617v-97q-6 0 -18 1t-17 1q-80 0 -151 -33.5t-140 -103.5l-315 -325l500 -734
q27 -39 49 -57.5t48 -25.5q15 -4 43.5 -6.5t61.5 -2.5h25v-96h-682v96h94q73 0 96 9.5t23 35.5q0 18 -17 45l-2 3l-391 573l-233 -242v-325q0 -58 22 -78.5t84 -20.5h107v-96h-647z" />
    <glyph glyph-name="L" unicode="L" horiz-adv-x="1352" 
d="M70 0v96h106q65 0 87 20.5t22 78.5v1089q0 57 -22 77.5t-87 20.5h-106v97h653v-97h-109q-63 0 -84.5 -20t-21.5 -78v-1089q0 -63 28 -83t146 -20q159 0 246.5 18t134.5 58q52 45 90.5 144t65.5 255h79l-30 -567h-1198z" />
    <glyph glyph-name="M" unicode="M" horiz-adv-x="1894" 
d="M371 1348v-998q0 -155 50.5 -207.5t192.5 -54.5v-88h-594l1 88q143 2 194 53.5t51 208.5v934q0 57 -22 77.5t-86 20.5h-121v97h512l397 -1131l385 1131h500v-97h-109q-63 0 -84.5 -20t-21.5 -78v-1089q0 -58 21.5 -78.5t84.5 -20.5h109v-96h-664v96h123q65 0 87 20.5
t22 78.5v1153l-459 -1348h-80z" />
    <glyph glyph-name="N" unicode="N" horiz-adv-x="1673" 
d="M63 0v88q129 10 174.5 60.5t45.5 201.5v967q-21 37 -61 52t-124 15h-35v95h400l815 -1117v766q0 160 -50 210.5t-194 52.5v88h572v-88q-130 -6 -177 -58.5t-47 -204.5v-1165h-82l-911 1243v-856q0 -156 52 -209t192 -53v-88h-570z" />
    <glyph glyph-name="O" unicode="O" horiz-adv-x="1593" 
d="M358 739q0 -345 108 -513.5t331 -168.5q220 0 329 170t109 512q0 348 -107.5 515t-330.5 167q-222 0 -330.5 -168t-108.5 -514zM92 739q0 163 49 302.5t144 246.5q98 112 228 170t284 58q155 0 280.5 -55.5t227.5 -170.5q97 -109 145.5 -247t48.5 -304
q0 -169 -43.5 -298.5t-136.5 -237.5q-103 -120 -232.5 -179t-289.5 -59q-161 0 -290 58.5t-233 179.5q-93 108 -137.5 239t-44.5 297z" />
    <glyph glyph-name="P" unicode="P" horiz-adv-x="1401" 
d="M70 0v96h106q65 0 87 20.5t22 78.5v1089q0 57 -22 77.5t-87 20.5h-106v97h788q220 0 340.5 -107t120.5 -301q0 -209 -152 -313.5t-454 -104.5q-49 0 -99.5 1.5t-105.5 4.5v-464q0 -58 21.5 -78.5t84.5 -20.5h127v-96h-671zM508 1286v-532q26 -3 55.5 -4.5t63.5 -1.5
q259 0 356.5 72t97.5 251q0 167 -77 241t-252 74h-138q-62 0 -84 -19.5t-22 -80.5z" />
    <glyph glyph-name="Q" unicode="Q" horiz-adv-x="1593" 
d="M485 199q-3 20 -4.5 39t-1.5 36q0 127 78.5 203t208.5 76q129 0 221 -88t129 -250q62 66 91.5 203t29.5 356q0 317 -113 482t-329 165q-229 0 -334 -171t-105 -548q0 -179 32 -304t97 -199zM983 -11q-39 -12 -85 -18t-103 -6q-129 0 -239.5 39t-199.5 115
q-133 113 -198.5 267t-65.5 353q0 162 49 303t142 248q100 116 224.5 171t287.5 55q167 0 290 -55.5t228 -176.5q91 -106 137.5 -244t46.5 -301q0 -224 -82.5 -392t-247.5 -277l17 -58q40 -135 74.5 -189t78.5 -54q43 0 63.5 38.5t29.5 139.5h73q1 -8 1.5 -18t0.5 -27
q0 -139 -67.5 -216t-188.5 -77q-131 0 -197.5 95.5t-68.5 284.5zM973 98v19q0 167 -56 250.5t-167 83.5q-85 0 -135 -53.5t-50 -143.5q0 -95 59.5 -148t166.5 -53q53 0 99 11.5t83 33.5z" />
    <glyph glyph-name="R" unicode="R" horiz-adv-x="1462" 
d="M70 0v96h106q65 0 87 20.5t22 78.5v1089q0 57 -22 77.5t-87 20.5h-106v97h819q186 0 300 -100t114 -263q0 -160 -113 -252t-340 -116q124 -17 192.5 -80t96.5 -185l55 -231q16 -71 38 -103t54 -32q41 0 61 51.5t23 162.5l78 1q0 -9 1 -24.5t1 -22.5q0 -155 -64.5 -238.5
t-183.5 -83.5q-114 0 -170 65t-74 224l-22 205q-15 139 -87.5 199.5t-230.5 60.5h-110v-522q0 -58 21.5 -78.5t84.5 -20.5h127v-96h-671zM508 1296v-481l100 -4q13 -1 27.5 -1.5t42.5 -0.5q207 0 300 69t93 224q0 152 -75.5 218t-250.5 66h-133q-62 0 -83 -17.5t-21 -72.5z
" />
    <glyph glyph-name="S" unicode="S" horiz-adv-x="1235" 
d="M256 117l-86 -142h-72l-10 594h84q46 -252 172 -383t324 -131q164 0 255 77.5t91 215.5q0 64 -23.5 113.5t-66.5 81.5q-57 40 -244 88q-59 15 -92 24q-293 79 -389.5 173t-96.5 268q0 190 118.5 303.5t318.5 113.5q112 0 209 -36t174 -107l79 123h76l23 -532h-80
q-58 228 -179 343t-302 115q-135 0 -209 -64.5t-74 -183.5q0 -182 371 -273q35 -8 54 -13q173 -43 244 -75.5t122 -78.5q60 -56 92 -137t32 -178q0 -216 -132.5 -334.5t-374.5 -118.5q-119 0 -226.5 40.5t-181.5 113.5z" />
    <glyph glyph-name="T" unicode="T" horiz-adv-x="1442" 
d="M831 195q0 -58 21.5 -78.5t85.5 -20.5h131v-96h-700v96h131q64 0 86 20.5t22 78.5v1097q0 66 -19.5 87.5t-115.5 21.5q-138 0 -210 -107.5t-109 -382.5h-78l28 568h1229l31 -568h-78q-43 295 -116.5 392.5t-243.5 97.5q-56 0 -75.5 -22t-19.5 -87v-1097z" />
    <glyph glyph-name="U" unicode="U" horiz-adv-x="1657" 
d="M45 1479h664v-97h-107q-63 0 -85.5 -20.5t-22.5 -77.5v-827q0 -195 99.5 -287t309.5 -92q137 0 229 48t136 142q16 36 23 97.5t7 187.5v645q0 106 -33 145t-114 39h-90v97h563v-97h-76q-83 0 -116 -40t-33 -144v-653q0 -313 -132 -446.5t-436 -133.5q-278 0 -418.5 124
t-140.5 370v825q0 58 -22 78t-86 20h-119v97z" />
    <glyph glyph-name="V" unicode="V" horiz-adv-x="1446" 
d="M766 -37h-80l-518 1329q-24 61 -48 75.5t-100 14.5h-45v97h629v-97h-76q-73 0 -97.5 -12t-24.5 -43q0 -14 4 -33t12 -39l362 -925l322 827q13 34 20 64.5t7 52.5q0 56 -36 82t-112 26h-57v97h534v-97h-14q-80 0 -123.5 -34.5t-83.5 -139.5z" />
    <glyph glyph-name="W" unicode="W" horiz-adv-x="1937" 
d="M686 1479h588v-97h-51q-68 0 -91.5 -11t-23.5 -40q0 -14 3.5 -33t10.5 -42l283 -885l229 786q11 34 16 64t5 57q0 53 -32.5 78.5t-100.5 25.5h-52v97h482v-97q-77 0 -120.5 -39t-72.5 -135l-366 -1245h-84l-340 1034l-303 -1034h-84l-435 1335q-16 48 -38.5 66t-65.5 18
h-57v97h569v-97h-53q-70 0 -94.5 -11t-24.5 -40q0 -11 4 -30.5t12 -45.5l279 -882l240 798l-50 144q-13 39 -38.5 53t-92.5 14h-51v97z" />
    <glyph glyph-name="X" unicode="X" horiz-adv-x="1440" 
d="M563 96v-96h-569v96h16q84 0 157 55.5t175 200.5l260 371l-401 580q-35 50 -61 64.5t-70 14.5h-70v97h616v-97h-112q-25 0 -38 -8.5t-13 -23.5q0 -12 5 -24.5t15 -27.5l262 -387l213 306q19 26 28 47.5t9 40.5q0 38 -35 57.5t-102 19.5h-29v97h549v-97q-99 0 -162 -34.5
t-135 -137.5l-272 -389l426 -620q41 -61 82.5 -83t111.5 -22h33v-96h-661v96h96q52 0 75 10t23 31q0 14 -7 30.5t-32 51.5l-284 412l-213 -299q-35 -49 -49.5 -82t-14.5 -64q0 -44 39.5 -67t118.5 -23h20z" />
    <glyph glyph-name="Y" unicode="Y" horiz-adv-x="1370" 
d="M809 195q0 -57 22 -78t84 -21h127v-96h-694v96h129q63 0 86 21.5t23 77.5v417l-414 658q-47 76 -79 94t-89 18h-39v97h631v-97h-84q-56 0 -81 -11t-25 -36q0 -11 5 -24.5t25 -46.5l326 -514l268 467q13 22 19 41t6 38q0 43 -35.5 64.5t-106.5 21.5h-57v97h541v-97h-39
q-60 0 -94 -20.5t-76 -91.5l-379 -647v-428z" />
    <glyph glyph-name="Z" unicode="Z" horiz-adv-x="1235" 
d="M309 96h299q149 0 226 24.5t120 82.5q40 54 71 145t52 219h80l-31 -567h-1077v96l838 1297h-260q-152 0 -215.5 -23t-108.5 -80q-35 -42 -63.5 -121t-53.5 -200h-80l31 510h1008v-86z" />
    <glyph glyph-name="bracketleft" unicode="[" horiz-adv-x="729" 
d="M659 1479v-62h-317v-1583h317v-61h-466v1706h466z" />
    <glyph glyph-name="backslash" unicode="\" horiz-adv-x="569" 
d="M496 -190l-516 1706h94l514 -1706h-92z" />
    <glyph glyph-name="bracketright" unicode="]" horiz-adv-x="729" 
d="M70 1479h467v-1706h-467v61h317v1583h-317v62z" />
    <glyph glyph-name="asciicircum" unicode="^" horiz-adv-x="2048" 
d="M926 1462h194l512 -565h-98l-512 420l-514 -420h-96z" />
    <glyph glyph-name="underscore" unicode="_" horiz-adv-x="1024" 
d="M0 -340h1024v-143h-1024v143z" />
    <glyph glyph-name="grave" unicode="`" horiz-adv-x="1024" 
d="M688 1092h-74l-301 184q-49 31 -66.5 52.5t-17.5 47.5q0 32 22.5 55t53.5 23q24 0 52 -16t55 -45z" />
    <glyph glyph-name="a" unicode="a" horiz-adv-x="1071" 
d="M705 510q-229 -30 -333 -93t-104 -171q0 -83 40.5 -124.5t121.5 -41.5q127 0 201 78t74 217v135zM717 131q-60 -75 -159 -119.5t-208 -44.5q-129 0 -205.5 68t-76.5 182q0 147 149 236.5t488 144.5v98q0 112 -49.5 154.5t-170.5 42.5q-81 0 -132.5 -21.5t-51.5 -52.5
q0 -5 24.5 -40t24.5 -74q0 -48 -28.5 -75.5t-77.5 -27.5q-57 0 -89 31t-32 86q0 113 110.5 187.5t284.5 74.5q198 0 286.5 -71t88.5 -232v-475q0 -47 19 -70.5t57 -23.5q20 0 49 14t39 14q9 0 16.5 -9.5t7.5 -23.5q0 -41 -59 -82.5t-133 -41.5q-69 0 -113.5 39t-58.5 112z
" />
    <glyph glyph-name="b" unicode="b" horiz-adv-x="1147" 
d="M858 465q0 208 -59.5 305.5t-186.5 97.5q-129 0 -187 -95.5t-58 -307.5q0 -214 60.5 -310t195.5 -96q122 0 178.5 97.5t56.5 308.5zM367 834q49 74 119.5 110.5t164.5 36.5q184 0 299 -140t115 -368q0 -226 -114.5 -367t-295.5 -141q-105 0 -187 40.5t-159 131.5
l-94 -162h-70q18 90 25.5 159t7.5 134v1063q0 49 -22 65.5t-90 16.5q-9 0 -29.5 -1t-32.5 -1v80l363 25v-682z" />
    <glyph glyph-name="c" unicode="c" horiz-adv-x="918" 
d="M895 264q-57 -152 -150.5 -224.5t-234.5 -72.5q-197 0 -320.5 135.5t-123.5 354.5q0 235 131 379.5t344 144.5q143 0 236 -67.5t93 -168.5q0 -67 -37.5 -107t-99.5 -40q-53 0 -87 31.5t-34 81.5q0 45 32 78.5t32 41.5q0 30 -39.5 49t-104.5 19q-127 0 -191.5 -102.5
t-64.5 -307.5q0 -200 70.5 -298.5t212.5 -98.5q92 0 156.5 51.5t105.5 157.5z" />
    <glyph glyph-name="d" unicode="d" horiz-adv-x="1145" 
d="M780 152q-56 -91 -131.5 -136t-169.5 -45q-179 0 -295 140.5t-116 361.5q0 220 118.5 364t296.5 144q91 0 159.5 -35.5t125.5 -111.5v497q0 48 -22.5 64t-104.5 16h-72v80l387 25v-1342q0 -52 21 -69t88 -17h47v-88l-332 -23v175zM279 477q0 -207 58 -300t187 -93
q127 0 185.5 94t58.5 299q0 206 -58.5 298.5t-187.5 92.5q-126 0 -184.5 -94t-58.5 -297z" />
    <glyph glyph-name="e" unicode="e" horiz-adv-x="999" 
d="M279 547h380q43 0 57.5 14t14.5 51q0 139 -56 213t-161 74q-116 0 -174 -87t-61 -265zM276 459q0 -8 -1 -21.5t-1 -19.5q0 -158 74 -250t199 -92q106 0 187.5 55t137.5 166l72 -41q-67 -144 -175.5 -216.5t-256.5 -72.5q-197 0 -320.5 140t-123.5 366q0 227 123.5 367.5
t320.5 140.5q200 0 316 -130t116 -355v-37h-668z" />
    <glyph glyph-name="f" unicode="f" horiz-adv-x="702" 
d="M63 0v88l88 2q44 4 56 17.5t12 58.5v698h-168v84h168v43q0 260 96 391t285 131q127 0 204 -56.5t77 -147.5q0 -54 -31 -86.5t-80 -32.5q-45 0 -76.5 31.5t-31.5 76.5q0 25 16 56t16 39q0 18 -20.5 28.5t-57.5 10.5q-111 0 -160.5 -103.5t-49.5 -341.5v-39h219v-84h-219
v-698q0 -46 14 -61t53 -15h125v-90h-535z" />
    <glyph glyph-name="g" unicode="g" horiz-adv-x="1071" 
d="M381 -20q-74 -14 -118 -60t-44 -110q0 -73 67 -109.5t199 -36.5q188 0 278.5 44.5t90.5 135.5q0 72 -50.5 104t-166.5 32h-256zM307 643q0 -129 50.5 -191.5t156.5 -62.5q109 0 160 61.5t51 192.5t-51.5 193.5t-157.5 62.5t-157.5 -62.5t-51.5 -193.5zM299 371
q-88 40 -131 109.5t-43 170.5q0 146 109 238t282 92q82 0 145.5 -19t116.5 -59l29 25q56 46 98.5 66t85.5 20q60 0 91.5 -33t31.5 -94q0 -39 -26 -63.5t-66 -24.5q-62 0 -85 55t-26 55q-5 0 -11.5 -4t-22.5 -18l-43 -33q38 -41 55.5 -90t17.5 -113q0 -155 -119.5 -245.5
t-328.5 -90.5q-136 0 -181 -20.5t-45 -71.5q0 -41 33 -58.5t115 -17.5h18l166 5h49h58q172 0 248.5 -60t76.5 -192q0 -158 -135 -241t-391 -83q-201 0 -311.5 56t-110.5 157q0 69 55 120.5t152 72.5q-83 20 -121.5 63.5t-38.5 118.5q0 81 54 136t149 71z" />
    <glyph glyph-name="h" unicode="h" horiz-adv-x="1237" 
d="M217 1331q0 49 -22.5 65.5t-92.5 16.5q-8 0 -28.5 -1t-32.5 -1v80l362 25v-728q61 93 141.5 139t182.5 46q147 0 228 -85.5t81 -242.5v-479q0 -45 13 -59.5t55 -16.5l88 -4v-86h-494v86l88 4q41 2 54.5 17t13.5 59v487q0 93 -49 143t-139 50q-131 0 -198 -86.5
t-67 -255.5v-338q0 -47 13.5 -60.5t54.5 -15.5l88 -4v-86h-496v86l86 4q43 2 56.5 16.5t13.5 59.5v1165z" />
    <glyph glyph-name="i" unicode="i" horiz-adv-x="616" 
d="M57 0v86l98 4q42 2 56 16.5t14 59.5v622q0 49 -22 65.5t-90 16.5q-8 0 -28 -1t-32 -1v80l359 25v-807q0 -45 13.5 -59.5t56.5 -16.5l89 -4v-86h-514zM313 1481q50 0 86.5 -35.5t36.5 -85.5q0 -51 -36 -86t-87 -35q-49 0 -84.5 36t-35.5 85t35.5 85t84.5 36z" />
    <glyph glyph-name="j" unicode="j" horiz-adv-x="563" 
d="M305 1479q49 0 85 -36t36 -85q0 -50 -35 -84.5t-86 -34.5q-48 0 -83.5 35.5t-35.5 83.5q0 49 36 85t83 36zM406 68q0 -240 -95 -364t-278 -124q-96 0 -156.5 48.5t-60.5 123.5q0 54 33 87.5t85 33.5q47 0 76 -27t29 -71q0 -38 -24 -75q-5 -8 -5 -9q0 -12 14 -19.5
t37 -7.5q87 0 124.5 79.5t37.5 272.5v772q0 48 -21.5 64t-99.5 16h-77v78l381 27v-905z" />
    <glyph glyph-name="k" unicode="k" horiz-adv-x="1190" 
d="M55 0v86l92 4q42 2 56 16.5t14 59.5v1165q0 49 -22 65.5t-91 16.5q-7 0 -27 -1t-32 -1v80l358 25v-1014l316 289q10 10 17 23t7 22q0 18 -23.5 26t-80.5 8h-66v78h525v-78h-13q-78 0 -145 -31t-172 -128l-104 -97l321 -428q38 -51 84.5 -74t117.5 -26l1 -86h-529v86l61 4
q45 2 58.5 8.5t14.5 22.5q0 15 -17 38q-1 2 -2 3l-246 332l-125 -111v-217q0 -45 13.5 -59.5t57.5 -16.5l89 -4v-86h-508z" />
    <glyph glyph-name="l" unicode="l" horiz-adv-x="616" 
d="M57 0v86l98 4q42 2 56 16.5t14 59.5v1165q0 49 -22 65.5t-90 16.5q-8 0 -28 -1t-32 -1v80l359 25v-1350q0 -45 13.5 -59.5t56.5 -16.5l89 -4v-86h-514z" />
    <glyph glyph-name="m" unicode="m" horiz-adv-x="1806" 
d="M72 0v86l87 4q43 2 55.5 16t12.5 60v622q0 49 -22 65.5t-92 16.5q-9 0 -29.5 -1t-32.5 -1v80l350 25v-197q64 101 140 149t172 48q106 0 174.5 -49t99.5 -146q66 102 142 148.5t176 46.5q142 0 219.5 -85.5t77.5 -242.5v-479q0 -45 13 -59.5t55 -16.5l87 -4v-86h-489v86
l81 4q42 2 56 17.5t14 58.5v487q0 93 -45.5 143t-130.5 50q-123 0 -183.5 -85t-60.5 -257v-338q0 -45 13.5 -59.5t55.5 -16.5l87 -4v-86h-489v86l83 4q41 2 54.5 17t13.5 59v457q0 119 -39.5 171t-128.5 52q-117 0 -177 -86.5t-60 -255.5v-338q0 -47 13 -60.5t55 -15.5
l77 -4v-86h-485z" />
    <glyph glyph-name="n" unicode="n" horiz-adv-x="1251" 
d="M74 0v86l87 4q43 2 55.5 16t12.5 60v622q0 49 -22 65.5t-90 16.5q-9 0 -29.5 -1t-32.5 -1v80l351 25v-197q69 102 149.5 149.5t185.5 47.5q148 0 229 -85.5t81 -242.5v-479q0 -45 13 -59.5t55 -16.5l87 -4v-86h-495v86l87 4q42 2 55 17t13 59v487q0 93 -49 143t-139 50
q-130 0 -196 -86.5t-66 -255.5v-338q0 -47 13 -60.5t55 -15.5l85 -4v-86h-495z" />
    <glyph glyph-name="o" unicode="o" horiz-adv-x="1055" 
d="M68 473q0 227 128 367.5t332 140.5q205 0 332 -140.5t127 -367.5q0 -226 -127.5 -366t-331.5 -140t-332 140t-128 366zM279 473q0 -219 59.5 -320.5t187.5 -101.5q133 0 192.5 100t59.5 322t-59.5 323t-190.5 101q-130 0 -189.5 -101t-59.5 -323z" />
    <glyph glyph-name="p" unicode="p" horiz-adv-x="1147" 
d="M367 795q57 94 131.5 140t169.5 46q177 0 295 -141.5t118 -358.5q0 -226 -119 -371t-298 -145q-93 0 -160 35t-125 113v-375q0 -44 13 -58t57 -16l86 -4v-86h-500v86l87 4q44 2 56 15.5t12 58.5v1036q0 52 -20 69t-84 17q-8 0 -25 -1t-26 -1v88l332 25v-176zM870 469
q0 204 -56.5 298.5t-178.5 94.5q-135 0 -195.5 -92.5t-60.5 -300.5q0 -206 58.5 -298.5t187.5 -92.5q126 0 185.5 94.5t59.5 296.5z" />
    <glyph glyph-name="q" unicode="q" horiz-adv-x="1145" 
d="M289 500q0 -224 57.5 -323t185.5 -99q126 0 186 93t60 290q0 231 -59 328.5t-195 97.5q-120 0 -177.5 -94.5t-57.5 -292.5zM930 971h69q-16 -72 -24 -145t-8 -148v-940q0 -44 13 -58t55 -16l87 -4v-86h-501v86l87 4q43 2 55.5 15.5t12.5 58.5v375q-56 -76 -122.5 -112
t-151.5 -36q-184 0 -304 143t-120 365q0 229 119 368.5t313 139.5q92 0 172 -42t154 -130z" />
    <glyph glyph-name="r" unicode="r" horiz-adv-x="909" 
d="M408 166q0 -46 13 -60t55 -16l124 -4v-86h-539v86l96 4q42 2 55 16t13 60v622q0 49 -21.5 64.5t-101.5 15.5h-61v80l356 25v-289q48 145 124 220t175 75q82 0 134.5 -49.5t52.5 -124.5q0 -56 -33.5 -91.5t-85.5 -35.5q-56 0 -88.5 31.5t-32.5 85.5q0 28 11 51t30 37h-12
q-107 0 -185.5 -144t-78.5 -354v-219z" />
    <glyph glyph-name="s" unicode="s" horiz-adv-x="901" 
d="M94 375h74q38 -156 124.5 -239t211.5 -83q98 0 156.5 46.5t58.5 123.5q0 64 -40 97.5t-175 60.5q-251 52 -324.5 120.5t-73.5 200.5q0 126 78 201.5t207 75.5q81 0 140.5 -18.5t117.5 -61.5l60 72h63v-340h-63q-43 133 -120 200.5t-186 67.5q-82 0 -134 -40t-52 -101
q0 -118 245 -166l11 -2q218 -43 292.5 -110t74.5 -197q0 -149 -91.5 -234.5t-250.5 -85.5q-74 0 -139.5 24.5t-129.5 75.5l-67 -94h-68v406z" />
    <glyph glyph-name="t" unicode="t" horiz-adv-x="797" 
d="M197 858h-164v82q127 10 197 118t77 306h86v-416h295v-90h-305v-592q0 -99 27.5 -136.5t93.5 -37.5q83 0 124 67.5t46 210.5l76 1v-27q0 -185 -82 -282t-238 -97q-127 0 -180 62.5t-53 220.5v610z" />
    <glyph glyph-name="u" unicode="u" horiz-adv-x="1233" 
d="M1184 0l-350 -25v189q-71 -103 -151.5 -151t-184.5 -48q-148 0 -229 85.5t-81 242.5v495q0 49 -22 65.5t-90 16.5q-9 0 -29.5 -1t-32.5 -1v80l359 25v-688q0 -93 49 -143t139 -50q128 0 195 83.5t67 242.5v370q0 49 -22 65.5t-92 16.5q-9 0 -29.5 -1t-32.5 -1v80l363 25
v-813q0 -49 22 -65.5t90 -16.5q9 0 29.5 1t32.5 1v-80z" />
    <glyph glyph-name="v" unicode="v" horiz-adv-x="1069" 
d="M578 -33h-64l-354 813q-20 48 -48 65t-85 17h-15v86h459v-85q-76 -3 -99.5 -13t-23.5 -35q0 -7 5 -21.5t18 -44.5l221 -509l182 471q11 29 16 48.5t5 33.5q0 33 -29.5 51t-83.5 18h-23v86h398l-1 -86q-64 -2 -103 -33.5t-70 -109.5z" />
    <glyph glyph-name="w" unicode="w" horiz-adv-x="1561" 
d="M455 948v-86l-42 -4q-36 -3 -51.5 -13.5t-15.5 -29.5q0 -10 9 -32q2 -5 3 -8l197 -503l180 478l-8 30q-13 45 -43 63.5t-92 18.5h-14v86h450v-86l-64 -4q-31 -2 -45 -12t-14 -31q0 -9 4.5 -24t14.5 -41l184 -474l151 434q2 4 4 10q17 47 17 73q0 32 -26.5 50.5
t-73.5 18.5h-13v86h371v-85q-62 -3 -102.5 -37t-67.5 -107l-270 -752h-68l-244 656l-241 -656h-64l-319 813q-18 45 -46.5 63t-84.5 19v86h424z" />
    <glyph glyph-name="x" unicode="x" horiz-adv-x="1077" 
d="M16 0l1 86q57 4 94.5 21.5t78.5 64.5l259 291l-285 342q-25 32 -53.5 44.5t-71.5 12.5h-10v86h473v-78q-72 -1 -94.5 -8.5t-22.5 -23.5q0 -10 6 -21.5t25 -34.5l147 -180l141 155q13 15 20 31t7 29q0 28 -28.5 40.5t-92.5 12.5v78h410v-85q-55 -2 -91 -17.5t-81 -65.5
l-230 -254l263 -340l2 -3q77 -99 176 -99v-84h-498l1 86q68 2 95 11t27 28q0 9 -5.5 19.5t-25.5 37.5l-149 203l-168 -180q-14 -16 -21.5 -30.5t-7.5 -27.5q0 -35 26.5 -48t104.5 -13v-86h-422z" />
    <glyph glyph-name="y" unicode="y" horiz-adv-x="1065" 
d="M485 25l-325 749q-12 25 -24 42t-24 24q-17 11 -43.5 16.5t-66.5 5.5v86h477v-86h-51q-50 0 -66 -9t-16 -34q0 -6 3.5 -17.5t17.5 -46.5l217 -499l204 492q1 1 3 6q8 22 8 39q0 38 -28 52.5t-115 16.5l-1 86h396v-86q-56 0 -92.5 -26t-61.5 -84l-346 -805
q-86 -200 -179 -286.5t-218 -86.5q-89 0 -139 42t-50 116q0 51 35 86t88 35q49 0 78 -27.5t29 -73.5q0 -21 -8.5 -39.5t-8.5 -19.5q0 -11 10 -17t27 -6q54 0 124.5 87.5t131.5 234.5z" />
    <glyph glyph-name="z" unicode="z" horiz-adv-x="993" 
d="M805 373h69l-22 -373h-772v82l565 782h-227q-101 0 -155 -62t-66 -192h-76l20 338h723v-76l-559 -782h205q157 0 214.5 57t80.5 226z" />
    <glyph glyph-name="braceleft" unicode="{" horiz-adv-x="1024" 
d="M848 1516v-53q-136 -2 -186 -55t-50 -210v-141q0 -227 -59 -308.5t-217 -113.5q159 -32 217.5 -113.5t58.5 -308.5v-141q0 -157 49.5 -209t186.5 -54v-53h-10q-219 0 -301 74t-82 272v207q0 161 -59 221.5t-218 73.5v64q161 13 219 73.5t58 221.5v206q0 199 82 273
t301 74h10z" />
    <glyph glyph-name="bar" unicode="|" horiz-adv-x="1024" 
d="M438 1565h150v-2048h-150v2048z" />
    <glyph glyph-name="braceright" unicode="}" horiz-adv-x="1024" 
d="M176 1516h10q220 0 302.5 -74t82.5 -273v-206q0 -161 58 -221.5t219 -73.5v-64q-161 -13 -219 -73.5t-58 -221.5v-207q0 -198 -82.5 -272t-302.5 -74h-10v53q137 2 186.5 54.5t49.5 208.5v141q0 227 58.5 308.5t217.5 113.5q-158 32 -217 113.5t-59 308.5v141
q0 157 -50 210t-186 55v53z" />
    <glyph glyph-name="asciitilde" unicode="~" 
d="M1530 770v-156q-104 -72 -199 -106.5t-190 -34.5q-93 0 -256 58q-22 8 -34 12l-15 5q-176 60 -273 60q-84 0 -175 -37t-210 -120v155q106 72 202 108t185 36q62 0 127.5 -13.5t163.5 -48.5q16 -5 47 -17q159 -57 240 -57q88 0 179.5 37t207.5 119z" />
    <glyph glyph-name="afii10051" unicode="&#x402;" horiz-adv-x="1720" 
d="M360 0v96h84q64 0 86.5 21t22.5 78v1097q0 64 -20 86.5t-76 22.5h-33q-118 0 -189 -86t-102 -268h-78l31 432h1157l31 -432h-78q-33 185 -104 269.5t-193 84.5q-85 0 -104 -22.5t-19 -86.5v-557q76 97 169.5 147t199.5 50q211 0 342 -141t131 -367q0 -205 -110 -333
t-283 -128q-116 0 -187 65t-71 169q0 73 41.5 120.5t105.5 47.5q47 0 79 -31t32 -76q0 -59 -44 -101.5t-44 -54.5q0 -18 21 -32.5t52 -14.5q82 0 130.5 104t48.5 283q0 185 -69.5 279t-205.5 94q-158 0 -248 -96t-90 -268v-256q0 -57 22.5 -78t86.5 -21h26v-96h-551z" />
    <glyph glyph-name="afii10052" unicode="&#x403;" horiz-adv-x="1313" 
d="M70 0v96h106q64 0 86.5 21t22.5 78v1089q0 53 -20.5 75.5t-67.5 22.5h-21h-106v97h1198l26 -523h-88q-43 262 -136.5 346t-387.5 84q-116 0 -145 -19.5t-29 -82.5v-1089q0 -58 22 -78.5t101 -20.5h92v-96h-653zM856 1808l-301 -184h-74l276 301q27 30 54.5 45.5
t52.5 15.5q31 0 53.5 -24t22.5 -56q0 -26 -17 -46.5t-67 -51.5z" />
    <glyph glyph-name="quotesinglbase" unicode="&#x201a;" horiz-adv-x="606" 
d="M201 -385l-47 59q98 73 149 145.5t51 137.5q0 11 -0.5 18t-1.5 13q-20 -7 -33 -10t-22 -3q-59 0 -92 32.5t-33 88.5q0 52 37.5 89.5t89.5 37.5q74 0 120 -57t46 -150q0 -114 -67.5 -216.5t-196.5 -184.5z" />
    <glyph glyph-name="afii10100" unicode="&#x453;" horiz-adv-x="897" 
d="M66 0v86l93 4q43 2 56.5 16.5t13.5 59.5v616q0 45 -13.5 59.5t-55.5 16.5l-94 4v86h784l18 -336h-77q-24 136 -85.5 192t-185.5 56q-65 0 -84.5 -13.5t-19.5 -64.5v-616q0 -45 13.5 -59.5t56.5 -16.5l94 -4v-86h-514zM648 1276l-301 -184h-74l276 301q27 30 54.5 45.5
t52.5 15.5q31 0 53.5 -24t22.5 -56q0 -26 -17 -46.5t-67 -51.5z" />
    <glyph glyph-name="quotedblbase" unicode="&#x201e;" horiz-adv-x="1036" 
d="M631 -385l-47 59q98 73 149 145.5t51 137.5q0 7 -3 25q0 3 -1 6q-23 -8 -34 -10.5t-19 -2.5q-59 0 -92 32.5t-33 88.5q0 52 37.5 89.5t89.5 37.5q74 0 119 -56.5t45 -150.5q0 -115 -67 -217t-195 -184zM201 -385l-47 59q98 73 149 145.5t51 137.5q0 11 -0.5 18t-1.5 13
q-20 -7 -33 -10t-22 -3q-59 0 -92 32.5t-33 88.5q0 52 37.5 89.5t89.5 37.5q74 0 120 -57t46 -150q0 -114 -67.5 -216.5t-196.5 -184.5z" />
    <glyph glyph-name="ellipsis" unicode="&#x2026;" horiz-adv-x="2048" 
d="M215 96q0 53 36.5 90t88.5 37t89.5 -37.5t37.5 -89.5q0 -53 -37 -90t-90 -37q-52 0 -88.5 38t-36.5 89zM897 96q0 53 36.5 90t88.5 37t89.5 -37.5t37.5 -89.5q0 -53 -37 -90t-90 -37q-52 0 -88.5 38t-36.5 89zM1581 96q0 53 36.5 90t88.5 37t89.5 -37.5t37.5 -89.5
q0 -53 -37 -90t-90 -37q-52 0 -88.5 38t-36.5 89z" />
    <glyph glyph-name="dagger" unicode="&#x2020;" horiz-adv-x="1024" 
d="M487 -223q0 239 -23.5 451t-72.5 415q48 75 73 161t25 175v31q-75 -3 -165 -43.5t-127 -40.5q-48 0 -77.5 26.5t-29.5 71.5q0 50 30 78t83 28q32 0 121.5 -38.5t160.5 -38.5h4v28q0 99 -43 206t-43 122q0 48 30.5 77.5t80.5 29.5q48 0 77.5 -30t29.5 -77
q0 -15 -44.5 -120.5t-44.5 -203.5q0 -4 1.5 -16t1.5 -16h4q71 0 160.5 38.5t121.5 38.5q53 0 83 -27.5t30 -74.5q0 -49 -29 -75.5t-82 -26.5q-34 0 -123 40t-165 44q0 -113 24 -201t74 -166q-47 -167 -70.5 -383.5t-23.5 -482.5h-52z" />
    <glyph glyph-name="doubledagger" unicode="&#x2021;" horiz-adv-x="1024" 
d="M391 639q46 74 70 159.5t24 174.5v3q-2 16 -2 28h-14q-56 0 -143.5 -39t-128.5 -39q-48 0 -77.5 26.5t-29.5 71.5q0 50 30 78t83 28q28 0 117.5 -37t164.5 -38v20q0 113 -41 219t-41 115q0 48 30.5 77.5t80.5 29.5q48 0 77.5 -30t29.5 -77q0 -12 -41 -114t-41 -201
q0 -6 1 -19t1 -20q70 2 161 38.5t119 36.5q53 0 83 -27.5t30 -74.5q0 -48 -28.5 -75t-78.5 -27q-35 0 -126.5 38.5t-163.5 40.5q3 -118 26.5 -207.5t69.5 -158.5q-45 -69 -69.5 -153.5t-24.5 -168.5v-14v-3q2 -12 2 -21h14q54 0 142 38.5t130 38.5q50 0 78.5 -27t28.5 -75
q0 -47 -30 -74.5t-83 -27.5q-29 0 -118 37t-164 38v-26q0 -110 41 -214.5t41 -113.5q0 -48 -30.5 -77t-80.5 -29q-48 0 -77.5 29.5t-29.5 76.5q0 13 41 114.5t41 200.5q0 6 -1 19t-1 20q-68 -2 -160 -39.5t-124 -37.5q-49 0 -79 29.5t-30 78.5q0 45 29.5 71.5t77.5 26.5
q35 0 126.5 -38.5t163.5 -40.5q-3 116 -26.5 204.5t-69.5 157.5z" />
    <glyph glyph-name="perthousand" unicode="&#x2030;" horiz-adv-x="2456" 
d="M2308 512q0 81 -40.5 132.5t-102.5 51.5q-49 0 -95 -38t-108 -134q-71 -111 -110.5 -206t-39.5 -154q0 -60 40 -96.5t106 -36.5q62 0 119 38.5t112 116.5q57 83 88 167.5t31 158.5zM2109 756q124 0 190 -64.5t66 -183.5q0 -90 -38 -188t-107 -187q-65 -83 -141 -125.5
t-162 -42.5q-116 0 -186 74t-70 197q0 84 36 171t105 168q75 88 154 134.5t153 46.5zM1536 512q0 81 -40.5 132.5t-102.5 51.5q-49 0 -95 -38t-108 -134q-71 -111 -110.5 -206t-39.5 -154q0 -60 40 -96.5t106 -36.5q62 0 120.5 39t112.5 116q57 80 87 164.5t30 161.5z
M1337 756q124 0 190 -64.5t66 -183.5q0 -91 -37 -189t-106 -186q-65 -83 -141 -125.5t-162 -42.5q-116 0 -187 74.5t-71 196.5q0 84 36 171t105 168q74 88 153.5 134.5t153.5 46.5zM715 1261q-43 11 -76.5 34t-56.5 56q-48 -1 -94 -39t-105 -128q-72 -110 -111 -203.5
t-39 -157.5q0 -59 39 -95t103 -36t124 39t113 115q57 82 88 169t31 165q0 17 -4.5 39t-11.5 42zM369 -35l745 1321q-55 -32 -111.5 -48.5t-109.5 -16.5q-39 0 -67.5 4t-48.5 12q3 -15 5 -32t2 -38q0 -89 -37 -188.5t-102 -181.5q-65 -84 -142 -127t-161 -43
q-118 0 -189 74.5t-71 197.5q0 85 36 172t105 168q75 88 154 134t153 46q77 0 128.5 -23t84.5 -73q28 -23 66.5 -35t85.5 -12q90 0 183 47t143 121h90l-842 -1479h-100z" />
    <glyph glyph-name="afii10058" unicode="&#x409;" horiz-adv-x="2054" 
d="M1343 96h60q189 0 269.5 71.5t80.5 238.5q0 171 -98.5 246t-325.5 75h-98v-534q0 -59 23 -78t89 -19zM1446 1479v-97h-133q-43 0 -62.5 -23t-19.5 -75v-463h186q292 0 439 -105.5t147 -314.5q0 -191 -141.5 -296t-401.5 -105h-667v96h106q64 0 86.5 21t22.5 78v1187h-158
q-84 0 -121.5 -23t-50.5 -83q-8 -36 -20 -257.5t-25 -393.5q-29 -365 -109.5 -511.5t-240.5 -146.5q-111 0 -174.5 68t-63.5 186q0 104 50 170t128 66q58 0 92.5 -36.5t34.5 -98.5q0 -50 -21.5 -83.5t-63.5 -49.5q-9 -4 -25 -9q-41 -12 -41 -43q0 -34 24 -54t66 -20
q80 0 132 76.5t77 229.5q10 70 20 177t19 239q9 145 14.5 263t5.5 156q0 108 -30 143t-115 35h-72v97h1106z" />
    <glyph glyph-name="guilsinglleft" unicode="&#x2039;" horiz-adv-x="647" 
d="M154 494q101 82 212.5 194.5t135.5 112.5q6 0 10 -6t4 -15q0 -22 -56 -104t-147 -191q91 -108 147 -190t56 -105q0 -9 -4 -14.5t-10 -5.5q-25 0 -136 112t-212 193v19z" />
    <glyph glyph-name="afii10059" unicode="&#x40a;" horiz-adv-x="2093" 
d="M1247 723v-528q0 -57 22.5 -78t86.5 -21h86q185 0 267.5 69t82.5 222q0 183 -96.5 259.5t-327.5 76.5h-121zM1024 723h-516v-528q0 -57 21.5 -78t84.5 -21h52v-96h-560v96h70q64 0 86.5 21t22.5 78v1089q0 53 -20.5 75.5t-67.5 22.5h-21h-70v97h560v-97h-76
q-43 0 -62.5 -23t-19.5 -75v-457h516v457q0 53 -20.5 75.5t-67.5 22.5h-21h-51v97h561v-97h-96q-43 0 -62.5 -23t-19.5 -75v-457h101q35 0 71 -1t37 -1q294 0 440 -105t146 -317q0 -193 -141 -298t-402 -105h-635v96h51q64 0 86.5 21t22.5 78v528z" />
    <glyph glyph-name="afii10061" unicode="&#x40c;" horiz-adv-x="1473" 
d="M805 795q133 -19 206.5 -77.5t110.5 -178.5q23 -74 44 -211q33 -211 110 -211q46 0 67.5 49t24.5 165l78 1v-49q0 -157 -62.5 -239.5t-181.5 -82.5q-218 0 -271 404q-9 63 -13 95q-23 153 -81 208t-188 55h-28h-113v-528q0 -57 21.5 -78t84.5 -21h109v-96h-653v96h106
q64 0 86.5 21t22.5 78v1089q0 53 -20.5 75.5t-67.5 22.5h-21h-106v97h653v-97h-133q-43 0 -62.5 -23t-19.5 -75v-463h80q137 0 205 53t96 187q10 48 24 135q23 144 45 193q30 62 87 95.5t135 33.5q104 0 170.5 -59.5t66.5 -151.5q0 -61 -38 -100.5t-99 -39.5
q-63 0 -101 30.5t-38 80.5q0 40 25.5 78t25.5 43q0 11 -11 17.5t-30 6.5q-96 0 -133 -220q-7 -40 -10 -60q-35 -185 -78 -252.5t-125 -95.5zM936 1808l-301 -184h-74l276 301q27 30 54.5 45.5t52.5 15.5q31 0 53.5 -24t22.5 -56q0 -26 -17 -46.5t-67 -51.5z" />
    <glyph glyph-name="afii10060" unicode="&#x40b;" horiz-adv-x="1761" 
d="M774 735q83 103 177 150t216 47q173 0 267 -84.5t94 -241.5v-411q0 -57 21.5 -78t84.5 -21h90v-96h-612v96h84q64 0 86.5 21t22.5 78v407q0 92 -57 141.5t-165 49.5q-152 0 -230.5 -87t-78.5 -255v-256q0 -57 22.5 -78t86.5 -21h84v-96h-609v96h84q64 0 86.5 21t22.5 78
v1097q0 64 -20 86.5t-76 22.5h-33q-118 0 -189 -86t-102 -268h-78l31 432h1157l31 -432h-78q-33 185 -104 269.5t-193 84.5q-85 0 -104 -22.5t-19 -86.5v-557z" />
    <glyph glyph-name="afii10145" unicode="&#x40f;" 
d="M70 1479h653v-97h-133q-43 0 -62.5 -23t-19.5 -75v-1089q0 -57 21.5 -78t84.5 -21h478q63 0 85.5 21t22.5 78v1089q0 53 -20.5 75.5t-67.5 22.5h-20h-109v97h655v-97h-133q-43 0 -63.5 -23.5t-20.5 -74.5v-1089q0 -57 22.5 -78t86.5 -21h108v-96h-720l34 -410h-198
l34 410h-718v96h106q64 0 86.5 21t22.5 78v1089q0 53 -20.5 75.5t-67.5 22.5h-21h-106v97z" />
    <glyph glyph-name="afii10099" unicode="&#x452;" horiz-adv-x="1167" 
d="M61 0v86l86 4q43 2 56.5 17t13.5 59v954h-188v82h188v129q0 49 -20 64.5t-91 15.5h-32h-33v80l362 25v-314h275v-82h-275v-332q58 90 138 137.5t174 47.5q146 0 219.5 -91t73.5 -272v-542q0 -240 -93 -364t-272 -124q-101 0 -163 48t-62 124q0 53 33 87t86 34
q47 0 76.5 -27.5t29.5 -70.5q0 -38 -26 -75q-5 -8 -5 -9q0 -12 14.5 -19.5t37.5 -7.5q86 0 123.5 79.5t37.5 272.5v637q0 91 -47 142t-131 51q-117 0 -181.5 -89t-64.5 -253v-338q0 -47 13.5 -60.5t54.5 -15.5l88 -4v-86h-496z" />
    <glyph glyph-name="quoteleft" unicode="&#x2018;" horiz-adv-x="606" 
d="M416 1516l47 -60q-95 -69 -148 -143t-53 -135q0 -9 1 -17t3 -18q13 5 26.5 7.5t26.5 2.5q60 0 92.5 -31.5t32.5 -87.5q0 -53 -37 -90t-92 -37q-71 0 -116 57.5t-45 149.5q0 116 66.5 218t195.5 184z" />
    <glyph glyph-name="quoteright" unicode="&#x2019;" horiz-adv-x="606" 
d="M201 907l-47 60q97 72 148.5 145t51.5 137q0 13 -0.5 19.5t-1.5 11.5q-20 -7 -32.5 -9.5t-22.5 -2.5q-59 0 -92 32t-33 89q0 51 38 89t89 38q72 0 118 -56t46 -145q0 -120 -65 -221t-197 -187z" />
    <glyph glyph-name="quotedblleft" unicode="&#x201c;" horiz-adv-x="1036" 
d="M846 1516l47 -60q-98 -73 -149.5 -145t-51.5 -137q0 -11 0.5 -17.5t2.5 -13.5q14 5 28.5 7.5t26.5 2.5q59 0 91.5 -31.5t32.5 -87.5q0 -52 -37 -89.5t-89 -37.5q-74 0 -120 57t-46 150q0 115 67 217t197 185zM416 1516l47 -60q-98 -73 -149.5 -145t-51.5 -137q0 -7 3 -25
q1 -4 2 -6q15 5 28.5 7.5t23.5 2.5q60 0 92.5 -31.5t32.5 -87.5q0 -52 -36.5 -89.5t-88.5 -37.5q-73 0 -119 57t-46 150q0 116 66.5 218t195.5 184z" />
    <glyph glyph-name="quotedblright" unicode="&#x201d;" horiz-adv-x="1036" 
d="M631 907l-47 60q98 73 149 145t51 137q0 8 -3 25q0 3 -1 6q-23 -8 -33.5 -10t-19.5 -2q-59 0 -92 32t-33 89q0 52 37.5 89.5t89.5 37.5q74 0 119 -57t45 -150q0 -116 -67 -218t-195 -184zM201 907l-47 60q98 73 149 145t51 137q0 11 -0.5 18t-1.5 13q-20 -7 -32.5 -9.5
t-22.5 -2.5q-59 0 -92 32t-33 89q0 52 37.5 89.5t89.5 37.5q74 0 120 -57t46 -150q0 -115 -67.5 -217t-196.5 -185z" />
    <glyph glyph-name="bullet" unicode="&#x2022;" horiz-adv-x="1208" 
d="M307 762q0 123 87 209t210 86q122 0 208.5 -86.5t86.5 -208.5t-87.5 -209.5t-209.5 -87.5q-123 0 -209 87t-86 210z" />
    <glyph glyph-name="endash" unicode="&#x2013;" horiz-adv-x="1024" 
d="M0 424v125h1024v-125h-1024z" />
    <glyph glyph-name="emdash" unicode="&#x2014;" horiz-adv-x="2048" 
d="M342 424v125h1364v-125h-1364z" />
    <glyph glyph-name="trademark" unicode="&#x2122;" horiz-adv-x="1683" 
d="M780 1442h191l137 -391l143 391h181v-25l-30 -2q-21 -2 -31.5 -15t-10.5 -38v-375q0 -25 10.5 -38t31.5 -15l30 -2v-29h-240v29l31 2q21 2 32 15.5t11 37.5v387l-172 -473h-21l-172 475v-389q0 -24 11 -37.5t32 -15.5l33 -2v-29h-197v29l34 2q20 2 31 15.5t11 37.5v371
q0 24 -11 37.5t-31 15.5l-34 4v27zM250 1442h444l11 -182h-27q-8 78 -40.5 114.5t-94.5 36.5h-17v-424q0 -24 10.5 -37.5t30.5 -15.5l33 -2v-29h-254v29l31 2q21 2 32 15.5t11 37.5v424h-17q-64 0 -96.5 -36t-40.5 -115h-26z" />
    <glyph glyph-name="afii10106" unicode="&#x459;" horiz-adv-x="1567" 
d="M934 463v-297q0 -46 15.5 -63t54.5 -17h79q126 0 181 43t55 139q0 106 -63.5 150.5t-221.5 44.5h-100zM934 551h129q17 0 42 -1t32 -1q193 0 293 -71.5t100 -209.5q0 -126 -96 -197t-269 -71h-581v86l93 4q44 2 57.5 16.5t13.5 59.5v694h-134q-157 0 -173 -277
q-7 -128 -15 -212q-21 -225 -74.5 -308t-165.5 -83q-71 0 -117 42.5t-46 102.5q0 64 31.5 99.5t88.5 35.5q42 0 69.5 -26t27.5 -64t-27 -66t-27 -34t6.5 -10.5t16.5 -4.5q41 0 69 36t41 106q21 100 35.5 255.5t14.5 297.5q0 64 -19 85.5t-77 22.5l-80 2v88h905v-88l-95 -2
q-42 -1 -55.5 -16t-13.5 -60v-231z" />
    <glyph glyph-name="guillsinglright" unicode="&#x203a;" horiz-adv-x="647" 
d="M516 475q-101 -81 -212.5 -193t-135.5 -112q-6 0 -10 5.5t-4 14.5q0 23 56 105t146 190q-90 109 -146 191t-56 104q0 9 4 15t10 6q25 0 135.5 -113t212.5 -194v-19z" />
    <glyph glyph-name="afii10107" unicode="&#x45a;" horiz-adv-x="1649" 
d="M1016 463v-297q0 -46 15.5 -63t53.5 -17h80q126 0 181 43t55 139q0 106 -63.5 150.5t-221.5 44.5h-100zM53 0v86l94 4q42 2 55 16t13 60v616q0 46 -13 60t-54 16l-95 4v86h512v-86l-94 -4q-42 -2 -55 -16t-13 -60v-231h426v231q0 45 -13.5 59.5t-55.5 16.5l-94 4v86h512
v-86l-93 -4q-43 -2 -56 -16.5t-13 -59.5v-231h129q17 0 42 -1t32 -1q192 0 291.5 -71t99.5 -210q0 -126 -95.5 -197t-267.5 -71h-581v86l93 4q44 2 57 16.5t13 59.5v295h-426v-295q0 -46 13 -60t56 -16l93 -4v-86h-512z" />
    <glyph glyph-name="afii10109" unicode="&#x45c;" horiz-adv-x="1106" 
d="M66 0v86l93 4q43 2 56.5 16.5t13.5 59.5v616q0 45 -13.5 59.5t-55.5 16.5l-94 4v86h514v-86l-95 -4q-43 -2 -56 -16.5t-13 -59.5v-247h61q92 0 137.5 34t63.5 119q5 24 14 69q44 230 195 230q77 0 125.5 -42t48.5 -109q0 -52 -29 -82.5t-78 -30.5q-46 0 -71 22t-25 62
q0 27 19.5 54.5t19.5 31.5q0 8 -8 13t-21 5q-67 0 -98 -157v-2l-1 -5q-35 -193 -128 -237q92 -14 140 -52t73 -116q15 -47 28 -134q21 -132 72 -132q31 0 45.5 26.5t14.5 81.5v23h61q0 -11 1 -21l1 -10q0 -105 -44 -158t-132 -53q-157 0 -193 254q-6 43 -10 66
q-16 103 -54.5 138.5t-125.5 35.5h-18h-84v-293q0 -45 13.5 -59.5t56.5 -16.5l94 -4v-86h-514zM752 1276l-301 -184h-74l276 301q27 30 54.5 45.5t52.5 15.5q31 0 53.5 -24t22.5 -56q0 -26 -17 -46.5t-67 -51.5z" />
    <glyph glyph-name="afii10108" unicode="&#x45b;" horiz-adv-x="1237" 
d="M217 1120h-188v82h188v129q0 49 -20 64.5t-91 15.5h-32h-33v80l362 25v-314h283v-82h-283v-332q60 93 140 139t184 46q147 0 228 -85.5t81 -242.5v-479q0 -45 13 -59.5t55 -16.5l88 -4v-86h-494v86l88 4q42 2 55 17t13 59v487q0 93 -49 143t-139 50q-131 0 -198 -86.5
t-67 -255.5v-338q0 -47 13.5 -60.5t54.5 -15.5l88 -4v-86h-496v86l86 4q43 2 56.5 17t13.5 59v954z" />
    <glyph glyph-name="afii10193" unicode="&#x45f;" horiz-adv-x="1231" 
d="M1178 0h-512l20 -281h-141l20 281h-512v86l94 4q42 2 55 16t13 60v616q0 46 -13 60t-54 16l-95 4v86h512v-86l-94 -4q-42 -2 -55 -15.5t-13 -54.5v-622q0 -47 14.5 -61.5t53.5 -14.5h289q40 0 54.5 15t14.5 61v616q0 45 -13.5 59.5t-55.5 16.5l-94 4v86h512v-86l-93 -4
q-43 -2 -56 -16.5t-13 -59.5v-616q0 -45 13.5 -59.5t56.5 -16.5l92 -4v-86z" />
    <glyph glyph-name="afii10062" unicode="&#x40e;" horiz-adv-x="1434" 
d="M270 1272q-27 63 -58 85.5t-87 22.5q-1 0 -4 1q-9 1 -19 1h-47v97h611v-97h-76q-4 0 -12.5 -1t-12.5 -1q-51 0 -73.5 -11t-22.5 -36q0 -18 21 -61q9 -18 14 -29l309 -696l264 610q11 25 18 59t7 64q0 51 -36.5 76.5t-109.5 25.5h-59v97h537v-97q-7 0 -17.5 -1t-15.5 -1
q-114 0 -182 -157q-4 -9 -7 -15l-319 -747q-133 -312 -229 -405t-238 -93q-140 0 -231 90t-91 228q0 96 49.5 155.5t131.5 59.5q66 0 108.5 -41.5t42.5 -106.5q0 -70 -65.5 -120t-65.5 -85q0 -37 36.5 -58.5t100.5 -21.5q78 0 143 60.5t113 177.5zM549 1763q32 -22 71 -31.5
t97 -9.5q56 0 98.5 10t75.5 31q-30 11 -44.5 31.5t-14.5 50.5q0 36 28 65t64 29q39 0 65.5 -29t26.5 -71q0 -78 -83 -129.5t-216 -51.5t-217 51t-84 128q0 42 27 72t65 30q37 0 64.5 -28.5t27.5 -65.5q0 -29 -12 -48.5t-39 -33.5z" />
    <glyph glyph-name="afii10110" unicode="&#x45e;" horiz-adv-x="1065" 
d="M485 25l-325 749q-21 49 -53 68.5t-93 19.5h-12v86h477v-86h-55h-27q-25 0 -38 -11t-13 -32q0 -8 5.5 -25.5t15.5 -37.5l217 -500l204 491q5 10 8 22t3 24q0 39 -26.5 53t-116.5 16l-1 86h396v-86q-57 0 -92.5 -25.5t-61.5 -84.5l-346 -805q-88 -203 -180 -288t-217 -85
q-88 0 -138.5 42.5t-50.5 115.5q0 50 35.5 85.5t87.5 35.5q50 0 78.5 -28.5t28.5 -78.5q0 -17 -8.5 -33.5t-8.5 -19.5q0 -11 10 -17t27 -6q55 0 126 88.5t130 233.5zM364 1231q32 -22 71 -31.5t97 -9.5q56 0 98.5 10t75.5 31q-30 11 -44.5 31.5t-14.5 50.5q0 36 28 65t64 29
q39 0 65.5 -29t26.5 -71q0 -78 -83 -129.5t-216 -51.5t-217 51t-84 128q0 42 27 72t65 30q37 0 64.5 -28.5t27.5 -65.5q0 -29 -12 -48.5t-39 -33.5z" />
    <glyph glyph-name="afii10057" unicode="&#x408;" horiz-adv-x="1085" 
d="M621 1284q0 55 -21.5 76.5t-85.5 21.5h-119v97h670v-97h-107q-65 0 -86.5 -21t-21.5 -77v-895q0 -200 -121 -313t-334 -113q-186 0 -296.5 100t-110.5 265q0 109 58 181.5t144 72.5q72 0 115 -42.5t43 -113.5q0 -69 -39 -109.5t-104 -40.5q-25 0 -51 4.5t-27 4.5
q-12 0 -19.5 -9t-7.5 -24q0 -70 73.5 -124t182.5 -54q139 0 202 73t63 236v901z" />
    <glyph glyph-name="currency" unicode="&#xa4;" horiz-adv-x="1241" 
d="M623 1190q-126 0 -215 -89t-89 -214q0 -126 89 -215.5t215 -89.5q125 0 214 89.5t89 215.5q0 125 -89 214t-214 89zM162 1423l205 -204q57 43 120 64.5t134 21.5t134.5 -21.5t121.5 -64.5l204 204l82 -80l-205 -206q41 -55 61.5 -118t20.5 -134q0 -73 -20 -135.5
t-62 -116.5l205 -205l-82 -82l-204 205q-59 -44 -122 -65t-132 -21q-72 0 -135.5 21.5t-120.5 64.5l-205 -205l-82 82l207 205q-41 51 -62.5 116t-21.5 136q0 70 21 133t63 119l-207 206z" />
    <glyph glyph-name="afii10050" unicode="&#x490;" horiz-adv-x="1260" 
d="M1151 1815h88l-29 -429h-553q-95 0 -122 -20.5t-27 -81.5v-1089q0 -57 21.5 -78t84.5 -21h109v-96h-653v96h106q64 0 86.5 21t22.5 78v1089q0 53 -20.5 75.5t-67.5 22.5h-21h-106v97h622q236 0 327.5 70t131.5 266z" />
    <glyph glyph-name="brokenbar" unicode="&#xa6;" horiz-adv-x="1024" 
d="M438 408h150v-758h-150v758zM438 1432h150v-758h-150v758z" />
    <glyph glyph-name="section" unicode="&#xa7;" horiz-adv-x="1024" 
d="M619 360q98 -81 145 -153t47 -144q0 -112 -95 -182.5t-251 -70.5q-119 0 -202 61t-83 145q0 56 32 90.5t83 34.5q45 0 73.5 -27.5t28.5 -70.5q0 -38 -31.5 -72.5t-31.5 -46.5q0 -28 40.5 -46.5t104.5 -18.5q80 0 130 42.5t50 108.5q0 50 -39 104.5t-147 147.5l-180 156
q-92 79 -134 148t-42 141q0 107 80.5 178.5t205.5 73.5q-109 96 -148.5 159.5t-39.5 132.5q0 115 87.5 190t225.5 75q124 0 202.5 -60.5t78.5 -152.5q0 -52 -33.5 -86.5t-83.5 -34.5q-43 0 -72.5 26t-29.5 64q0 31 32.5 69.5t32.5 53.5q0 25 -37.5 46t-91.5 21
q-75 0 -118 -38.5t-43 -104.5q0 -57 38 -112.5t154 -153.5l176 -150q88 -74 131 -146t43 -145q0 -110 -79 -179t-209 -73zM254 778q0 -53 28.5 -102t112.5 -127q80 -74 132.5 -104.5t97.5 -30.5q61 0 102 38t41 97q0 50 -35 105t-112 124q-92 81 -136 105t-86 24
q-59 0 -102 -39t-43 -90z" />
    <glyph glyph-name="afii10023" unicode="&#x401;" horiz-adv-x="1460" 
d="M805 1753q0 45 34 79t79 34t78.5 -33.5t33.5 -79.5q0 -48 -32 -80.5t-80 -32.5q-49 0 -81 32.5t-32 80.5zM442 1753q0 45 33.5 79t79.5 34t79.5 -33.5t33.5 -79.5q0 -48 -32.5 -80.5t-80.5 -32.5q-49 0 -81 32t-32 81zM70 0v96h106q64 0 86.5 21t22.5 78v1089
q0 53 -20.5 75.5t-67.5 22.5h-21h-106v97h1198l26 -523h-88q-43 262 -136.5 346t-387.5 84q-116 0 -145 -19.5t-29 -82.5v-469h12q175 0 243 60.5t83 222.5h86v-652h-86q-15 161 -82.5 221t-243.5 60h-12v-532q0 -64 29.5 -84.5t160.5 -20.5q171 0 268 18.5t146 59.5
q50 41 87.5 135.5t68.5 257.5h78l-31 -561h-1245z" />
    <glyph glyph-name="copyright" unicode="&#xa9;" horiz-adv-x="1683" 
d="M1122 1098h37l2 -316h-43q-32 135 -103 204t-177 69q-119 0 -179.5 -93.5t-60.5 -277.5q0 -187 66.5 -284t193.5 -97q84 0 153.5 44t127.5 132l39 -26q-61 -105 -148 -158t-199 -53q-173 0 -292 124t-119 304q0 183 118.5 307.5t290.5 124.5q75 0 149.5 -33t80.5 -33
q27 0 42 14.5t21 47.5zM844 1305q-123 0 -238 -49t-203 -138q-88 -90 -134 -202.5t-46 -237.5q0 -127 46.5 -239t136.5 -201q91 -90 201.5 -136.5t234.5 -46.5q126 0 237 46.5t199 136.5q89 90 136.5 204t47.5 236q0 123 -48 241t-134 203q-86 86 -201 134.5t-235 48.5z
M844 1391q138 0 269 -54.5t230 -152.5q100 -99 154.5 -232t54.5 -274q0 -140 -53.5 -269.5t-155.5 -232.5q-99 -101 -228 -155t-273 -54q-142 0 -270 53.5t-232 155.5q-103 102 -156 229t-53 273q0 141 53.5 270t155.5 232q100 101 230.5 156t273.5 55z" />
    <glyph glyph-name="afii10053" unicode="&#x404;" horiz-adv-x="1380" 
d="M1083 1382l80 125h78l14 -577h-94q-28 225 -143 360t-275 135q-174 0 -274 -153t-111 -436h566v-103h-570v-45q0 -304 117.5 -463t341.5 -159q146 0 249 55t103 127q0 36 -68 54l-12 3q-51 13 -75.5 41.5t-24.5 75.5q0 61 36.5 95t102.5 34q78 0 128.5 -61t50.5 -156
q0 -168 -135 -268.5t-363 -100.5q-321 0 -518 215.5t-197 567.5q0 323 188 544t457 221q96 0 182.5 -32.5t165.5 -98.5z" />
    <glyph glyph-name="guillemotleft" unicode="&#xab;" horiz-adv-x="1008" 
d="M514 494q102 82 212.5 194.5t133.5 112.5q7 0 12 -6t5 -15q0 -21 -56.5 -103t-148.5 -192q92 -109 148.5 -191t56.5 -104q0 -8 -5 -14t-12 -6q-24 0 -134 112t-212 193v19zM154 494q101 82 212.5 194.5t135.5 112.5q6 0 10 -6t4 -15q0 -22 -56 -104t-147 -191
q91 -108 147 -190t56 -105q0 -9 -4 -14.5t-10 -5.5q-25 0 -136 112t-212 193v19z" />
    <glyph glyph-name="logicalnot" unicode="&#xac;" 
d="M254 860h1198v-502h-137v363h-1061v139z" />
    <glyph glyph-name="sfthyphen" unicode="&#xad;" horiz-adv-x="674" 
d="M90 399v174h492v-174h-492z" />
    <glyph glyph-name="registered" unicode="&#xae;" horiz-adv-x="1124" 
d="M487 1006q7 0 18 -1t17 -1q77 0 120.5 30t43.5 82q0 47 -34 76t-91 29q-37 0 -55.5 -11.5t-18.5 -33.5v-170zM311 1249h264q101 0 159.5 -36.5t58.5 -98.5q0 -55 -50 -89t-149 -46q62 -10 95.5 -43t49.5 -100q4 -15 8 -38q14 -69 44 -69q22 0 33.5 17.5t11.5 52.5v16h28
v-20q0 -57 -25.5 -82t-82.5 -25q-77 0 -104 125q-5 25 -9 39q-14 53 -52 81t-97 28h-7v-170q0 -29 18.5 -43.5t57.5 -16.5v-31h-252v31q42 0 61 16t19 50v358q0 32 -19.5 47t-60.5 15v32zM561 1391q-171 0 -294.5 -125t-123.5 -299q0 -173 122.5 -296.5t295.5 -123.5
q174 0 296 124t122 298t-122.5 298t-295.5 124zM563 1466q206 0 351 -145.5t145 -351.5q0 -205 -146 -351.5t-352 -146.5t-352 145.5t-146 352.5q0 205 147.5 351t352.5 146z" />
    <glyph glyph-name="afii10056" unicode="&#x407;" horiz-adv-x="815" 
d="M492 1753q0 45 34 79t78 34q45 0 79 -33.5t34 -79.5q0 -48 -32.5 -80.5t-80.5 -32.5t-80 32.5t-32 80.5zM129 1753q0 45 33.5 79t79.5 34t79 -33.5t33 -79.5q0 -48 -32 -80.5t-80 -32.5q-49 0 -81 32t-32 81zM74 0v96h110q66 0 88.5 21t22.5 78v1089q0 53 -21 75.5
t-69 22.5h-21h-110v97h667v-97h-135q-44 0 -64 -23t-20 -75v-1089q0 -58 22 -78.5t87 -20.5h110v-96h-667z" />
    <glyph glyph-name="degree" unicode="&#xb0;" horiz-adv-x="674" 
d="M338 1362q-81 0 -138 -56t-57 -137t57 -138.5t138 -57.5t136.5 57.5t55.5 138.5t-55.5 137t-136.5 56zM338 1456q118 0 202.5 -84.5t84.5 -204.5q0 -119 -84 -202.5t-205 -83.5t-204 83t-83 203t85 204.5t204 84.5z" />
    <glyph glyph-name="plusminus" unicode="&#xb1;" 
d="M254 170h1198v-141h-1198v141zM782 1192h142v-340h528v-139h-528v-340h-142v340h-528v139h528v340z" />
    <glyph glyph-name="afii10055" unicode="&#x406;" horiz-adv-x="815" 
d="M74 96h110q66 0 88.5 21t22.5 78v1089q0 53 -21 75.5t-69 22.5h-21h-110v97h667v-97h-135q-44 0 -64 -23t-20 -75v-1089q0 -58 22 -78.5t87 -20.5h110v-96h-667v96z" />
    <glyph glyph-name="afii10103" unicode="&#x456;" horiz-adv-x="616" 
d="M57 0v86l98 4q43 2 56.5 16.5t13.5 59.5v622q0 49 -20.5 64.5t-93.5 15.5h-29h-29v80l359 25v-807q0 -45 13.5 -59.5t56.5 -16.5l89 -4v-86h-514zM313 1481q50 0 86.5 -35.5t36.5 -85.5t-36 -85.5t-87 -35.5q-50 0 -85 35.5t-35 85.5t35.5 85.5t84.5 35.5z" />
    <glyph glyph-name="afii10098" unicode="&#x491;" horiz-adv-x="879" 
d="M66 0v86l93 4q43 2 56.5 16.5t13.5 59.5v616q0 45 -13.5 59.5t-55.5 16.5l-94 4v86h387q189 0 244.5 47.5t76.5 202.5h74v-336h-352q-44 0 -62 -16.5t-18 -63.5v-616q0 -45 13.5 -59.5t56.5 -16.5l94 -4v-86h-514z" />
    <glyph glyph-name="mu" unicode="&#xb5;" horiz-adv-x="1169" 
d="M166 195q-33 -143 -64 -355q-37 -260 -116 -260q-43 0 -65.5 24.5t-22.5 69.5q0 44 70 277t110 422l108 512h168l-100 -475q-9 -40 -13.5 -74.5t-4.5 -59.5q0 -70 41.5 -108.5t119.5 -38.5q97 0 154 54.5t82 172.5l112 529h173l-115 -532q-9 -43 -14 -75.5t-5 -52.5
q0 -48 26.5 -74t76.5 -26q44 0 81 25t58 69q13 27 27 73q17 56 39 56q9 0 15.5 -8t6.5 -21q0 -34 -13.5 -88t-35.5 -100q-39 -78 -92.5 -117t-122.5 -39q-81 0 -125.5 55t-44.5 154v13q-52 -115 -123 -168.5t-172 -53.5q-95 0 -151 56t-68 164z" />
    <glyph glyph-name="paragraph" unicode="&#xb6;" horiz-adv-x="1024" 
d="M958 1479v-86h-120v-1393h-111v1393h-176v-1393h-113v782q-170 8 -271 102.5t-101 245.5q0 157 107.5 253t285.5 96h499z" />
    <glyph glyph-name="periodcentered" unicode="&#xb7;" horiz-adv-x="559" 
d="M279 582q-51 0 -86 35.5t-35 84.5q0 51 35.5 87t85.5 36q48 0 84 -36.5t36 -86.5q0 -49 -35 -84.5t-85 -35.5z" />
    <glyph glyph-name="afii10071" unicode="&#x451;" horiz-adv-x="999" 
d="M588 1255q0 45 35 79t79 34q45 0 78 -33.5t33 -79.5q0 -48 -31.5 -80t-79.5 -32t-81 32t-33 80zM225 1255q0 45 34.5 79t80.5 34t78.5 -33t32.5 -80q0 -48 -31.5 -80t-79.5 -32q-50 0 -82.5 32t-32.5 80zM659 547q42 0 57 14t15 51q0 139 -56 213t-161 74
q-117 0 -174.5 -86t-60.5 -266h380zM872 297l72 -41q-67 -144 -175.5 -216.5t-256.5 -72.5q-197 0 -320.5 140.5t-123.5 365.5q0 226 123.5 367t320.5 141q199 0 316.5 -130t117.5 -351q0 -6 -1 -20t-1 -21h-668q0 -8 -1 -20.5t-1 -18.5q0 -158 74.5 -251t198.5 -93
q106 0 187.5 55t137.5 166z" />
    <glyph glyph-name="afii61352" unicode="&#x2116;" horiz-adv-x="1989" 
d="M1413 -37v143h504v-143h-504zM1665 866q-52 0 -75 -56t-23 -181q0 -126 23.5 -182t76.5 -56q52 0 75 56t23 182q0 124 -24 180.5t-76 56.5zM1665 940q122 0 199.5 -86.5t77.5 -224.5q0 -137 -78 -223.5t-199 -86.5t-198.5 86.5t-77.5 223.5t77.5 224t198.5 87zM467 1159
v-809q0 -213 -55.5 -298t-184.5 -85q-113 0 -182.5 66.5t-69.5 173.5q0 71 44 120.5t108 49.5q49 0 81 -32t32 -83q0 -62 -42 -102t-42 -49q0 -23 20.5 -35.5t59.5 -12.5q67 0 95.5 57t28.5 206v47v944q-22 38 -60 52.5t-122 14.5h-37v95h391l629 -1049v700q0 214 55.5 300
t184.5 86q112 0 181 -67.5t69 -174.5q0 -72 -43 -120t-107 -48q-50 0 -82.5 32.5t-32.5 82.5q0 61 43.5 100t43.5 51q0 21 -21 33t-59 12q-71 0 -99 -58t-28 -251v-1145h-82z" />
    <glyph glyph-name="afii10101" unicode="&#x454;" horiz-adv-x="958" 
d="M277 463q3 -202 74.5 -307t205.5 -105q80 0 136.5 29t56.5 67q0 6 -49.5 29t-49.5 82q0 50 30.5 78.5t84.5 28.5t90.5 -43t36.5 -111q0 -106 -98.5 -175t-255.5 -69q-220 0 -346.5 132t-126.5 360q0 231 128 375.5t330 144.5q60 0 114.5 -20t111.5 -64l51 82h53l2 -342
h-74q-26 125 -94.5 194.5t-165.5 69.5q-109 0 -176 -97t-67 -261h325v-78h-327z" />
    <glyph glyph-name="guillemotright" unicode="&#xbb;" horiz-adv-x="1008" 
d="M877 475q-101 -81 -213 -193t-136 -112q-6 0 -10 5.5t-4 14.5q0 23 56 105t147 190q-91 109 -147 191t-56 104q0 9 4 15t10 6q26 0 136.5 -113t212.5 -194v-19zM516 475q-101 -81 -212.5 -193t-135.5 -112q-6 0 -10 5.5t-4 14.5q0 22 56 104t148 191q-92 110 -148 192
t-56 103q0 9 4 15t10 6q25 0 135.5 -113t212.5 -194v-19z" />
    <glyph glyph-name="afii10105" unicode="&#x458;" horiz-adv-x="563" 
d="M305 1479q49 0 85 -35.5t36 -85.5q0 -49 -35 -84t-86 -35q-49 0 -84 35.5t-35 83.5q0 49 36 85t83 36zM406 68q0 -237 -94.5 -362.5t-270.5 -125.5q-101 0 -163 48t-62 124q0 53 33 87t85 34q47 0 76 -27.5t29 -70.5q0 -38 -24 -75q-5 -8 -5 -9q0 -12 14 -19.5t37 -7.5
q87 0 124.5 79.5t37.5 272.5v772q0 49 -19.5 64.5t-80.5 15.5h-47h-51v78l381 27v-905z" />
    <glyph glyph-name="afii10054" unicode="&#x405;" horiz-adv-x="1235" 
d="M256 117l-86 -142h-72l-10 594h84q48 -257 174.5 -385.5t333.5 -128.5q155 0 244.5 79t89.5 214q0 198 -353 288q-48 13 -73 19q-294 77 -390 172t-96 269q0 187 118 302t308 115q122 0 218.5 -35t175.5 -108l79 123h76l23 -532h-80q-58 228 -179 343t-302 115
q-135 0 -209 -64.5t-74 -183.5q0 -183 361 -270q43 -11 64 -16q286 -70 388 -175.5t102 -295.5q0 -216 -132 -333.5t-375 -117.5q-118 0 -227.5 41.5t-180.5 112.5z" />
    <glyph glyph-name="afii10102" unicode="&#x455;" horiz-adv-x="901" 
d="M94 375h74q38 -154 125.5 -238t210.5 -84q98 0 156.5 46.5t58.5 123.5q0 113 -218 158q-26 5 -40 8q-213 44 -284 114t-71 199q0 128 80 202.5t215 74.5q72 0 128 -18t120 -62l60 72h63v-340h-63q-43 133 -120 200.5t-186 67.5q-82 0 -134 -40t-52 -101q0 -120 235 -165
l45 -9q205 -44 274 -110t69 -191q0 -149 -91.5 -234.5t-250.5 -85.5q-75 0 -140 24.5t-129 75.5l-67 -94h-68v406z" />
    <glyph glyph-name="afii10104" unicode="&#x457;" horiz-adv-x="616" 
d="M367 1255q0 45 34 79t78 34q45 0 79 -33.5t34 -79.5q0 -48 -32 -80t-81 -32q-48 0 -80 32t-32 80zM4 1255q0 46 33.5 79.5t79.5 33.5t79 -33t33 -80q0 -48 -32 -80t-80 -32q-49 0 -81 31.5t-32 80.5zM57 0v86l98 4q43 2 56.5 16.5t13.5 59.5v622q0 49 -20.5 64.5
t-93.5 15.5h-29h-29v80l359 25v-807q0 -45 13.5 -59.5t56.5 -16.5l89 -4v-86h-514z" />
    <glyph glyph-name="afii10017" unicode="&#x410;" horiz-adv-x="1446" 
d="M909 586l-243 594l-234 -594h477zM684 1503h80l522 -1304q25 -62 50 -81.5t89 -19.5h43v-98h-612v98h92q63 0 87 12t24 42q0 11 -4.5 28t-14.5 43l-94 258h-551l-63 -159q-12 -33 -20.5 -68t-8.5 -51q0 -53 36.5 -79t113.5 -26h51v-98h-529v98h17q82 0 126 34.5t85 137.5
z" />
    <glyph glyph-name="afii10018" unicode="&#x411;" horiz-adv-x="1432" 
d="M504 727v-534q0 -59 23 -78t89 -19h146q189 0 269.5 72t80.5 238q0 171 -98.5 246t-325.5 75h-184zM70 0v96h106q64 0 86.5 21t22.5 78v1089q0 53 -20.5 75.5t-67.5 22.5h-21h-106v97h1108l24 -500h-88q-44 246 -135 326.5t-340 80.5q-92 0 -113.5 -17t-21.5 -73v-475
h272q292 0 439 -105.5t147 -314.5q0 -191 -141.5 -296t-401.5 -105h-749z" />
    <glyph glyph-name="afii10019" unicode="&#x412;" horiz-adv-x="1432" 
d="M504 721v-528q0 -59 23 -78t89 -19h146q188 0 269 72t81 235q0 170 -98 244t-326 74h-184zM606 1386q-57 0 -79.5 -17.5t-22.5 -61.5v-11v-485h164q215 0 298 66t83 223q0 153 -73 219.5t-241 66.5h-129zM70 1479h813q184 0 293.5 -96t109.5 -259q0 -138 -84.5 -223.5
t-259.5 -124.5q214 -29 317 -122.5t103 -256.5q0 -189 -142 -293t-401 -104h-749v96h106q64 0 86.5 21t22.5 78v1089q0 53 -20.5 75.5t-67.5 22.5h-21h-106v97z" />
    <glyph glyph-name="afii10020" unicode="&#x413;" horiz-adv-x="1313" 
d="M70 0v96h106q64 0 86.5 21t22.5 78v1089q0 53 -20.5 75.5t-67.5 22.5h-21h-106v97h1198l26 -523h-88q-43 262 -136.5 346t-387.5 84q-116 0 -145 -19.5t-29 -82.5v-1089q0 -58 22 -78.5t101 -20.5h92v-96h-653z" />
    <glyph glyph-name="afii10021" unicode="&#x414;" horiz-adv-x="1591" 
d="M600 1382q-10 -450 -69 -758.5t-175 -527.5h613v1286h-369zM264 1479h1145v-97h-133q-43 0 -63.5 -23.5t-20.5 -74.5v-1188h217v-504h-78q-16 229 -100 318.5t-285 89.5h-461q-200 0 -284 -89.5t-101 -318.5h-75v504h208q116 188 183 474.5t67 600.5q0 136 -29.5 173.5
t-117.5 37.5h-72v97z" />
    <glyph glyph-name="afii10022" unicode="&#x415;" horiz-adv-x="1460" 
d="M70 0v96h106q64 0 86.5 21t22.5 78v1089q0 53 -20.5 75.5t-67.5 22.5h-21h-106v97h1198l26 -523h-88q-43 262 -136.5 346t-387.5 84q-116 0 -145 -19.5t-29 -82.5v-469h12q175 0 243 60.5t83 222.5h86v-652h-86q-15 161 -82.5 221t-243.5 60h-12v-532q0 -64 29.5 -84.5
t160.5 -20.5q171 0 268 18.5t146 59.5q50 41 87.5 135.5t68.5 257.5h78l-31 -561h-1245z" />
    <glyph glyph-name="afii10024" unicode="&#x416;" horiz-adv-x="2025" 
d="M911 821v463q0 53 -20.5 75.5t-67.5 22.5h-20h-70v97h559v-97h-96q-43 0 -62.5 -23t-19.5 -75v-463q151 0 220.5 46.5t99.5 166.5q13 57 32 181t43 174q30 62 87 95.5t135 33.5q103 0 169 -59.5t66 -151.5q0 -61 -37 -100.5t-98 -39.5q-63 0 -101 30.5t-38 80.5
q0 40 25.5 78t25.5 43q0 11 -11 17.5t-30 6.5q-96 0 -133 -220q-7 -40 -11 -61q-34 -187 -77 -253.5t-125 -93.5q134 -18 207 -77t110 -179q22 -73 43 -207q34 -217 117 -217q39 0 61.5 37t24.5 104h78q1 -11 1.5 -20t0.5 -17q0 -123 -61 -191.5t-171 -68.5q-231 0 -283 393
q-10 72 -16 111q-22 150 -80 205t-190 55h-27h-57v-526q0 -59 22 -80t87 -21h69v-96h-559v96h70q64 0 86 21t22 78v528h-96q-121 0 -177.5 -55t-80.5 -205q-6 -40 -16 -115q-51 -389 -283 -389q-109 0 -169 69.5t-60 196.5q0 8 0.5 15.5t1.5 15.5h77q2 -67 24.5 -104
t62.5 -37q79 0 113 217q22 136 44 207q38 120 111 179t207 77q-53 17 -90 51.5t-60 87.5q-12 28 -33 118q-4 17 -6 25q-15 72 -26 134.5t-11 72.5q0 48 -36 93.5t-84 45.5q-20 0 -30.5 -7t-10.5 -19q0 -3 25.5 -41t25.5 -78q0 -50 -38 -80.5t-101 -30.5t-100.5 40t-37.5 106
q0 86 68 145.5t170 59.5q77 0 134.5 -33.5t86.5 -95.5q24 -52 43 -175.5t33 -179.5q31 -121 100 -167t219 -46z" />
    <glyph glyph-name="afii10025" unicode="&#x417;" horiz-adv-x="1317" 
d="M823 795q177 -34 274 -134.5t97 -250.5q0 -208 -173 -328.5t-472 -120.5q-220 0 -354 107.5t-134 283.5q0 111 58 182.5t145 71.5q72 0 115 -42t43 -113q0 -68 -37.5 -109t-97.5 -41q-4 0 -15.5 1t-19.5 1q-20 0 -30.5 -11.5t-10.5 -33.5q0 -80 98.5 -138.5t247.5 -58.5
q179 0 276 92.5t97 262.5q0 165 -82 241t-260 76h-178v103h174q157 0 236 74.5t79 224.5q0 133 -64.5 206.5t-181.5 73.5q-148 0 -254 -113.5t-139 -308.5h-88l21 514h77l78 -125q82 68 167.5 99.5t182.5 31.5q195 0 318 -102.5t123 -263.5q0 -132 -75.5 -216.5
t-240.5 -135.5z" />
    <glyph glyph-name="afii10026" unicode="&#x418;" 
d="M70 1479h653v-97h-133q-43 0 -62.5 -23t-19.5 -75v-823l692 753v70q0 53 -20.5 75.5t-67.5 22.5h-20h-109v97h655v-97h-133q-43 0 -63.5 -23.5t-20.5 -74.5v-1089q0 -57 22.5 -78t86.5 -21h108v-96h-655v96h109q63 0 85.5 21t22.5 78v835l-692 -751v-84q0 -57 21.5 -78
t84.5 -21h109v-96h-653v96h106q64 0 86.5 21t22.5 78v1089q0 53 -20.5 75.5t-67.5 22.5h-21h-106v97z" />
    <glyph glyph-name="afii10027" unicode="&#x419;" 
d="M687 1768q31 -22 70.5 -32t96.5 -10q56 0 98.5 10.5t75.5 30.5q-29 11 -44 32.5t-15 51.5q0 37 28 65t64 28q39 0 65.5 -29t26.5 -72q0 -78 -84.5 -129t-218.5 -51q-129 0 -213 51.5t-84 126.5q0 42 27.5 72.5t64.5 30.5t64.5 -28t27.5 -65q0 -28 -12.5 -49t-37.5 -34z
M508 195q0 -57 21.5 -78t84.5 -21h109v-96h-653v96h106q64 0 86.5 21t22.5 78v1089q0 53 -20.5 75.5t-67.5 22.5h-21h-106v97h653v-97h-133q-43 0 -62.5 -23t-19.5 -75v-823l692 753v70q0 53 -20.5 75.5t-67.5 22.5h-20h-109v97h655v-97h-133q-43 0 -63.5 -23.5t-20.5 -74.5
v-1089q0 -57 22.5 -78t86.5 -21h108v-96h-655v96h109q63 0 85.5 21t22.5 78v835l-692 -751v-84z" />
    <glyph glyph-name="afii10028" unicode="&#x41a;" horiz-adv-x="1473" 
d="M805 795q133 -19 206.5 -77.5t110.5 -178.5q23 -74 44 -211q33 -211 110 -211q46 0 67.5 49t24.5 165l78 1v-49q0 -157 -62.5 -239.5t-181.5 -82.5q-218 0 -271 404q-9 63 -13 95q-23 153 -81 208t-188 55h-28h-113v-528q0 -57 21.5 -78t84.5 -21h109v-96h-653v96h106
q64 0 86.5 21t22.5 78v1089q0 53 -20.5 75.5t-67.5 22.5h-21h-106v97h653v-97h-133q-43 0 -62.5 -23t-19.5 -75v-463h80q137 0 205 53t96 187q10 48 24 135q23 144 45 193q30 62 87 95.5t135 33.5q104 0 170.5 -59.5t66.5 -151.5q0 -61 -38 -100.5t-99 -39.5
q-63 0 -101 30.5t-38 80.5q0 40 25.5 78t25.5 43q0 11 -11 17.5t-30 6.5q-96 0 -133 -220q-7 -40 -10 -60q-35 -185 -78 -252.5t-125 -95.5z" />
    <glyph glyph-name="afii10029" unicode="&#x41b;" horiz-adv-x="1575" 
d="M1503 1479v-97h-133q-43 0 -62.5 -23t-19.5 -75v-1089q0 -57 22 -78t85 -21h108v-96h-655v96h108q64 0 86.5 21t22.5 78v1187h-225q-86 0 -122.5 -23t-49.5 -83q-6 -28 -18 -246.5t-27 -404.5q-31 -380 -111 -522t-246 -142q-114 0 -180 73t-66 202q0 102 51.5 164.5
t133.5 62.5q60 0 100.5 -40.5t40.5 -100.5q0 -50 -20 -78.5t-63 -42.5q-10 -3 -28 -8q-59 -15 -59 -48q0 -37 29 -61.5t74 -24.5q80 0 129.5 72t76.5 227q11 65 21.5 170t19.5 242q10 146 15.5 267t5.5 167q0 108 -30 143t-116 35h-69v97h1171z" />
    <glyph glyph-name="afii10030" unicode="&#x41c;" horiz-adv-x="1894" 
d="M37 1479h512l397 -1131l385 1131h500v-97h-133q-43 0 -62.5 -23t-19.5 -75v-1089q0 -57 21.5 -78t84.5 -21h109v-96h-664v96h123q64 0 86.5 21t22.5 78v1153l-459 -1348h-80l-489 1348v-1022q0 -134 53.5 -186t189.5 -52v-88h-594l1 88q141 2 193 52t52 200v10v934
q0 58 -21.5 78t-86.5 20h-121v97z" />
    <glyph glyph-name="afii10031" unicode="&#x41d;" 
d="M70 1479h653v-97h-133q-43 0 -62.5 -23t-19.5 -75v-457h692v457q0 53 -20.5 75.5t-67.5 22.5h-20h-109v97h655v-97h-133q-43 0 -63.5 -23.5t-20.5 -74.5v-1089q0 -57 22.5 -78t86.5 -21h108v-96h-655v96h109q63 0 85.5 21t22.5 78v528h-692v-528q0 -57 21.5 -78t84.5 -21
h109v-96h-653v96h106q64 0 86.5 21t22.5 78v1089q0 53 -20.5 75.5t-67.5 22.5h-21h-106v97z" />
    <glyph glyph-name="afii10032" unicode="&#x41e;" horiz-adv-x="1593" 
d="M358 739q0 -345 108 -513.5t331 -168.5q220 0 329 170t109 512q0 348 -108 515t-330 167t-330.5 -168.5t-108.5 -513.5zM92 739q0 340 198.5 558.5t506.5 218.5q307 0 504.5 -218t197.5 -559q0 -342 -196.5 -558t-505.5 -216t-507 217t-198 557z" />
    <glyph glyph-name="afii10033" unicode="&#x41f;" 
d="M70 1479h1568v-97h-133q-43 0 -63.5 -23.5t-20.5 -74.5v-1089q0 -57 22.5 -78t86.5 -21h108v-96h-655v96h109q63 0 85.5 21t22.5 78v1095q0 53 -20 74.5t-68 21.5h-20h-502q-43 0 -62.5 -22.5t-19.5 -73.5v-1095q0 -57 21.5 -78t84.5 -21h109v-96h-653v96h106
q64 0 86.5 21t22.5 78v1089q0 53 -20.5 75.5t-67.5 22.5h-21h-106v97z" />
    <glyph glyph-name="afii10034" unicode="&#x420;" horiz-adv-x="1401" 
d="M508 1286v-532q21 -4 45.5 -5t75.5 -1q260 0 356 72t96 253q0 171 -79.5 242t-280.5 71h-107q-7 0 -15 -1q-2 -1 -3 -1q-48 0 -68 -21t-20 -77zM70 0v96h106q64 0 86.5 21t22.5 78v1089q0 53 -20.5 75.5t-67.5 22.5h-21h-106v97h704q285 0 415 -98t130 -310
q0 -209 -152 -313.5t-454 -104.5q-73 0 -117.5 1.5t-87.5 4.5v-464q0 -57 21.5 -78t84.5 -21h127v-96h-671z" />
    <glyph glyph-name="afii10035" unicode="&#x421;" horiz-adv-x="1421" 
d="M1253 518l97 -12q-34 -256 -188.5 -400.5t-391.5 -144.5q-293 0 -485.5 218.5t-192.5 551.5q0 338 188.5 559t477.5 221q107 0 198.5 -33t171.5 -102l78 127h78l27 -596l-80 -4q-45 252 -159.5 385t-285.5 133q-214 0 -321 -170t-107 -512q0 -348 107.5 -513t333.5 -165
q176 0 292.5 117t161.5 340z" />
    <glyph glyph-name="afii10036" unicode="&#x422;" horiz-adv-x="1442" 
d="M104 1479h1229l31 -568h-78q-40 283 -112.5 386.5t-223.5 103.5q-80 0 -99.5 -21.5t-19.5 -87.5v-1097q0 -57 22 -78t85 -21h131v-96h-700v96h131q64 0 86 21t22 78v1097q0 65 -20 87t-101 22q-149 0 -221 -102.5t-112 -387.5h-78z" />
    <glyph glyph-name="afii10037" unicode="&#x423;" horiz-adv-x="1434" 
d="M270 1272q-27 63 -58 85.5t-87 22.5q-1 0 -4 1q-9 1 -19 1h-47v97h611v-97h-76q-4 0 -12.5 -1t-12.5 -1q-51 0 -73.5 -11t-22.5 -36q0 -18 21 -61q9 -18 14 -29l309 -696l264 610q11 25 18 59t7 64q0 51 -36.5 76.5t-109.5 25.5h-59v97h537v-97q-7 0 -17.5 -1t-15.5 -1
q-114 0 -182 -157q-4 -9 -7 -15l-319 -747q-133 -312 -229 -405t-238 -93q-140 0 -231 90t-91 228q0 96 49.5 155.5t131.5 59.5q66 0 108.5 -41.5t42.5 -106.5q0 -70 -65.5 -120t-65.5 -85q0 -37 36.5 -58.5t100.5 -21.5q78 0 143 60.5t113 177.5z" />
    <glyph glyph-name="afii10038" unicode="&#x424;" horiz-adv-x="1763" 
d="M983 352q220 14 326 112t106 288q0 189 -106 287t-326 112v-799zM778 352v799q-219 -14 -325.5 -112t-106.5 -287q0 -190 106 -288t326 -112zM559 96h111q64 0 86 20.5t22 78.5v73q-333 9 -510.5 134t-177.5 350q0 226 177.5 352t510.5 135v39q0 58 -20.5 81t-69.5 23
h-18h-111v97h643v-97h-135q-44 0 -64 -23t-20 -75l1 -45q332 -9 509.5 -135t177.5 -352t-177.5 -351t-510.5 -133v-73q0 -57 22.5 -78t88.5 -21h108v-96h-643v96z" />
    <glyph glyph-name="afii10039" unicode="&#x425;" horiz-adv-x="1440" 
d="M563 96v-96h-569v96h14q86 0 159 55.5t175 200.5l260 371l-401 580q-37 51 -61.5 65t-69.5 14h-70v97h616v-97h-112q-24 0 -37.5 -8t-13.5 -22q0 -11 3.5 -21.5t16.5 -32.5l262 -387l213 306q19 26 28 47.5t9 40.5q0 38 -34 57.5t-101 19.5h-31v97h549v-96
q-99 -2 -160.5 -35t-136.5 -138l-272 -389l426 -620q45 -64 84 -84.5t114 -20.5h29v-96h-661v96h96q52 0 75 10t23 31q0 14 -7 30.5t-32 51.5l-284 412l-213 -299q-35 -49 -49.5 -82t-14.5 -64q0 -44 39.5 -67t118.5 -23h20z" />
    <glyph glyph-name="afii10040" unicode="&#x426;" 
d="M70 1479h653v-97h-133q-43 0 -62.5 -23t-19.5 -75v-1089q0 -57 21.5 -78t84.5 -21h478q63 0 85.5 21t22.5 78v1089q0 53 -20.5 75.5t-67.5 22.5h-20h-109v97h655v-97h-133q-43 0 -63.5 -23.5t-20.5 -74.5v-1089q0 -57 22.5 -78t86.5 -21h108v-504h-88q-41 242 -133 325
t-424 83h-923v96h106q64 0 86.5 21t22.5 78v1089q0 53 -20.5 75.5t-67.5 22.5h-21h-106v97z" />
    <glyph glyph-name="afii10041" unicode="&#x427;" horiz-adv-x="1505" 
d="M-23 1479h656v-97h-133q-44 0 -64 -23.5t-20 -74.5v-426q0 -97 60 -144.5t181 -47.5q66 0 156.5 16t187.5 45v557q0 53 -20 75.5t-68 22.5h-20h-107v97h654v-97h-133q-43 0 -62.5 -23t-19.5 -75v-1089q0 -57 22 -78t86 -21h107v-96h-654v96h107q64 0 86 21t22 78v430
q-115 -36 -217 -53t-196 -17q-193 0 -294 83.5t-101 242.5v403q0 53 -20.5 75.5t-68.5 22.5h-18h-109v97z" />
    <glyph glyph-name="afii10042" unicode="&#x428;" horiz-adv-x="2222" 
d="M70 1479h614v-97h-94q-43 0 -62.5 -23t-19.5 -75v-1089q0 -57 21.5 -78t84.5 -21h263q63 0 85.5 21t22.5 78v1089q0 53 -20.5 75.5t-67.5 22.5h-20h-70v97h577v-97h-94q-42 0 -62 -23t-20 -75v-1089q0 -57 22 -78t85 -21h254q64 0 86 21t22 78v1089q0 53 -20.5 75.5
t-67.5 22.5h-20h-70v97h617v-97h-134q-42 0 -61.5 -23t-19.5 -75v-1089q0 -57 21.5 -78t84.5 -21h109v-96h-2046v96h106q64 0 86.5 21t22.5 78v1089q0 53 -20.5 75.5t-67.5 22.5h-21h-106v97z" />
    <glyph glyph-name="afii10043" unicode="&#x429;" horiz-adv-x="2222" 
d="M70 1479h614v-97h-94q-43 0 -62.5 -23t-19.5 -75v-1089q0 -57 21.5 -78t84.5 -21h263q63 0 85.5 21t22.5 78v1089q0 53 -20.5 75.5t-67.5 22.5h-20h-70v97h577v-97h-94q-42 0 -62 -23t-20 -75v-1089q0 -57 22 -78t85 -21h254q64 0 86 21t22 78v1089q0 53 -20.5 75.5
t-67.5 22.5h-20h-70v97h617v-97h-134q-42 0 -61.5 -23t-19.5 -75v-1089q0 -57 21.5 -78t84.5 -21h109v-504h-88q-42 242 -134 325t-424 83h-1400v96h106q64 0 86.5 21t22.5 78v1089q0 53 -20.5 75.5t-67.5 22.5h-21h-106v97z" />
    <glyph glyph-name="afii10044" unicode="&#x42a;" horiz-adv-x="1702" 
d="M793 727v-534q0 -59 23 -78t89 -19h146q188 0 269 72t81 238q0 171 -98.5 246t-325.5 75h-184zM47 1479h961v-97h-134q-42 0 -61.5 -23t-19.5 -75v-463h272q292 0 439 -105.5t147 -314.5q0 -192 -141 -296.5t-400 -104.5h-752v96h107q64 0 86 21t22 78v1089
q0 55 -22.5 76.5t-79.5 21.5q-155 0 -231 -82t-115 -292h-78v471z" />
    <glyph glyph-name="afii10045" unicode="&#x42b;" horiz-adv-x="2138" 
d="M504 727v-534q0 -59 23 -78t89 -19h146q189 0 269.5 72t80.5 238q0 171 -98.5 246t-325.5 75h-184zM1397 1479h667v-97h-135q-44 0 -64 -23t-20 -75v-1089q0 -57 22.5 -78t88.5 -21h108v-96h-667v96h110q66 0 88.5 21t22.5 78v1089q0 53 -21 75.5t-69 22.5h-21h-110v97z
M70 1479h649v-97h-133q-43 0 -62.5 -23t-19.5 -75v-463h272q292 0 439 -105.5t147 -314.5q0 -191 -141.5 -296t-401.5 -105h-749v96h106q64 0 86.5 21t22.5 78v1089q0 53 -20.5 75.5t-67.5 22.5h-21h-106v97z" />
    <glyph glyph-name="afii10046" unicode="&#x42c;" horiz-adv-x="1413" 
d="M504 727v-534q0 -59 23 -78t89 -19h146q189 0 269.5 72t80.5 238q0 171 -98.5 246t-325.5 75h-184zM70 1479h649v-97h-133q-43 0 -62.5 -23t-19.5 -75v-463h272q292 0 439 -105.5t147 -314.5q0 -191 -141.5 -296t-401.5 -105h-749v96h106q64 0 86.5 21t22.5 78v1089
q0 53 -20.5 75.5t-67.5 22.5h-21h-106v97z" />
    <glyph glyph-name="afii10047" unicode="&#x42d;" horiz-adv-x="1380" 
d="M1024 733h-569v103h565q-11 283 -110.5 436t-274.5 153q-159 0 -274.5 -135t-143.5 -360h-94l16 577h78l78 -125q80 66 166.5 98.5t181.5 32.5q271 0 459 -220.5t188 -544.5q0 -352 -197 -567.5t-518 -215.5q-227 0 -363 100.5t-136 268.5q0 95 51 156t129 61
q66 0 101.5 -33.5t35.5 -95.5q0 -43 -22 -73t-64 -42q-11 -3 -29 -7q-63 -15 -63 -52q0 -72 102.5 -127t247.5 -55q223 0 341 158t118 458v51z" />
    <glyph glyph-name="afii10048" unicode="&#x42e;" horiz-adv-x="2157" 
d="M991 739q0 -346 99.5 -514t304.5 -168q203 0 304 170t101 512q0 348 -99.5 515t-305.5 167q-205 0 -304.5 -168t-99.5 -514zM70 0v96h106q64 0 86.5 21t22.5 78v1089q0 53 -20.5 75.5t-67.5 22.5h-21h-106v97h653v-97h-133q-43 0 -62.5 -23t-19.5 -75v-457h221
q30 313 212.5 501t453.5 188q293 0 480 -218t187 -559q0 -343 -187 -558.5t-480 -215.5q-295 0 -480.5 209t-187.5 548l-219 1v-528q0 -57 21.5 -78t84.5 -21h109v-96h-653z" />
    <glyph glyph-name="afii10049" unicode="&#x42f;" horiz-adv-x="1462" 
d="M952 815v481q0 54 -21.5 72t-82.5 18h-133q-174 0 -250 -66.5t-76 -217.5q0 -160 94 -225.5t340 -65.5h29zM12 332l78 -1q5 -116 24.5 -165t59.5 -49q32 0 54 32t38 103l53 231q28 121 97 183.5t194 81.5q-225 23 -338.5 114.5t-113.5 251.5q0 174 118 269.5t336 95.5
h779v-97h-134q-42 0 -61.5 -23t-19.5 -75v-1089q0 -57 22 -78t86 -21h107v-96h-672v96h125q64 0 86 21t22 78v522h-139q-133 0 -203.5 -63.5t-85.5 -196.5l-22 -205q-17 -158 -73 -223.5t-171 -65.5q-119 0 -183.5 83.5t-64.5 238.5q0 7 1 22.5t1 24.5z" />
    <glyph glyph-name="afii10065" unicode="&#x430;" horiz-adv-x="1071" 
d="M705 510q-229 -30 -333 -93t-104 -171q0 -84 40 -125t122 -41q127 0 201 78t74 217v135zM717 131q-55 -73 -156 -118.5t-211 -45.5q-128 0 -205 68.5t-77 181.5q0 148 148.5 237t488.5 144v147q0 71 -57 109.5t-163 38.5q-81 0 -132.5 -21.5t-51.5 -52.5q0 -7 24.5 -40
t24.5 -74q0 -48 -28.5 -75.5t-77.5 -27.5q-57 0 -89 31t-32 86q0 113 111 187.5t284 74.5q196 0 285.5 -70.5t89.5 -230.5v-2v-485q0 -40 20 -62t56 -22q22 0 49.5 14t34.5 14q12 0 20 -9t8 -24q0 -41 -58 -82.5t-132 -41.5q-71 0 -116.5 39.5t-57.5 111.5z" />
    <glyph glyph-name="afii10066" unicode="&#x431;" horiz-adv-x="1022" 
d="M510 897q-117 0 -175.5 -105t-58.5 -319t59 -319t179 -105q116 0 173.5 105.5t57.5 318.5q0 216 -57.5 320t-177.5 104zM848 1513h74q-13 -246 -303 -301q-41 -7 -64 -12q-192 -38 -273.5 -131t-123.5 -317q61 113 153.5 171t210.5 58q189 0 311.5 -143.5t122.5 -364.5
q0 -222 -127 -364t-319 -142q-213 0 -328.5 154t-115.5 440q0 332 102 536.5t299 264.5q66 20 182 38q184 29 199 113z" />
    <glyph glyph-name="afii10067" unicode="&#x432;" horiz-adv-x="1083" 
d="M612 948q176 0 259 -55.5t83 -173.5q0 -93 -61.5 -149t-181.5 -72q146 -13 221.5 -74.5t75.5 -169.5q0 -121 -95 -187.5t-268 -66.5h-579v86l93 4q43 2 56.5 16.5t13.5 59.5v616q0 45 -13.5 59.5t-55.5 16.5l-94 4v86h546zM416 455v-289q0 -45 15.5 -62.5t53.5 -17.5h88
q124 0 179 41.5t55 132.5q0 107 -62 151t-221 44h-108zM559 862h-74q-37 0 -53 -17t-16 -63v-250h98q150 0 203 38t53 135q0 83 -49.5 120t-161.5 37z" />
    <glyph glyph-name="afii10068" unicode="&#x433;" horiz-adv-x="897" 
d="M66 0v86l93 4q43 2 56.5 16.5t13.5 59.5v616q0 45 -13.5 59.5t-55.5 16.5l-94 4v86h784l18 -336h-77q-24 136 -85.5 192t-185.5 56q-65 0 -84.5 -13.5t-19.5 -64.5v-616q0 -45 13.5 -59.5t56.5 -16.5l94 -4v-86h-514z" />
    <glyph glyph-name="afii10069" unicode="&#x434;" horiz-adv-x="1110" 
d="M268 86h424v774h-102q-91 0 -124 -32.5t-50 -190.5q-21 -192 -56.5 -324t-91.5 -227zM1042 948v-88l-94 -2q-42 -2 -54.5 -16t-12.5 -60v-616q0 -46 12.5 -60t55.5 -16l93 -4v-367h-75q-17 165 -78 223t-297 58h-146q-206 0 -266.5 -58t-77.5 -223h-77v367h26
q75 0 116 30.5t77 112.5q41 95 70.5 245t29.5 265q0 73 -18 95t-80 24l-80 2v88h876z" />
    <glyph glyph-name="afii10070" unicode="&#x435;" horiz-adv-x="999" 
d="M659 547q42 0 57 14t15 51q0 139 -56 213t-161 74q-117 0 -174.5 -86t-60.5 -266h380zM872 297l72 -41q-67 -144 -175.5 -216.5t-256.5 -72.5q-197 0 -320.5 140.5t-123.5 365.5q0 226 123.5 367t320.5 141q199 0 316.5 -130t117.5 -351q0 -6 -1 -20t-1 -21h-668
q0 -8 -1 -20.5t-1 -18.5q0 -158 74.5 -251t198.5 -93q106 0 187.5 55t137.5 166z" />
    <glyph glyph-name="afii10072" unicode="&#x436;" horiz-adv-x="1530" 
d="M518 0v86l94 4q43 2 56.5 16.5t13.5 59.5v293h-94q-81 0 -119 -37t-53 -137q-4 -24 -10 -66q-36 -254 -193 -254q-88 0 -131 53t-43 160v29h61q0 -74 13.5 -102.5t46.5 -28.5q51 0 72 132q13 86 28 134q25 78 73 116t140 52q-52 26 -79 69t-50 173q-20 104 -40.5 131.5
t-57.5 27.5q-13 0 -21 -5.5t-8 -14.5q0 -3 19.5 -30.5t19.5 -53.5q0 -39 -26.5 -61.5t-71.5 -22.5q-49 0 -77 30.5t-28 82.5q0 67 48.5 109t125.5 42q153 0 196 -232q5 -26 7 -38q22 -109 67 -145.5t140 -36.5h45v247q0 45 -14.5 60t-54.5 16l-95 4v86h492v-86l-95 -4
q-42 -2 -54.5 -16t-12.5 -60v-247h43q91 0 137 34t64 120q5 23 13 68q44 230 195 230q78 0 127.5 -42.5t49.5 -108.5q0 -52 -29 -82.5t-78 -30.5q-46 0 -71 22t-25 62q0 27 18.5 54.5t18.5 31.5q0 8 -8.5 13t-20.5 5q-65 0 -94 -149q-2 -8 -2 -10l-1 -5q-35 -193 -128 -237
q92 -14 140 -52t73 -116q15 -48 28 -136q19 -130 70 -130q31 0 45 26.5t14 81.5v23h64v-31q0 -105 -44 -158t-132 -53q-156 0 -191 250q-6 45 -10 70q-16 102 -55 138t-127 36h-19h-65v-293q0 -46 13 -60t55 -16l94 -4v-86h-492z" />
    <glyph glyph-name="afii10073" unicode="&#x437;" horiz-adv-x="918" 
d="M145 977h54l51 -82q53 43 112 63.5t127 20.5q142 0 224 -66t82 -180q0 -87 -58.5 -144.5t-169.5 -78.5q124 -14 194 -81t70 -169q0 -134 -114.5 -213.5t-308.5 -79.5q-161 0 -256 66.5t-95 177.5q0 68 36.5 111t90.5 43q55 0 85 -28.5t30 -78.5q0 -60 -49 -83t-49 -30
q0 -39 53.5 -66.5t138.5 -27.5q109 0 172.5 56t63.5 151q0 108 -53.5 156.5t-174.5 48.5h-57v78h53q104 0 158.5 47.5t54.5 138.5q0 79 -42 125.5t-113 46.5q-88 0 -156 -72t-92 -192h-74z" />
    <glyph glyph-name="afii10074" unicode="&#x438;" horiz-adv-x="1231" 
d="M829 782q0 45 -13.5 59.5t-55.5 16.5l-94 4v86h512v-86l-93 -4q-43 -2 -56 -16.5t-13 -59.5v-616q0 -45 13.5 -59.5t56.5 -16.5l92 -4v-86h-512v86l93 4q44 2 57 16.5t13 59.5v459l-426 -441v-24q0 -40 13.5 -54t55.5 -16l93 -4v-86h-512v86l94 4q42 2 55 16t13 60v616
q0 46 -13 60t-54 16l-95 4v86h512v-86l-94 -4q-42 -2 -55 -16t-13 -60v-467l426 441v26z" />
    <glyph glyph-name="afii10075" unicode="&#x439;" horiz-adv-x="1231" 
d="M455 1231q32 -22 70.5 -31.5t95.5 -9.5q56 0 99.5 10t75.5 31q-29 11 -44 31.5t-15 50.5q0 37 29 65.5t65 28.5q38 0 64.5 -29t26.5 -71q0 -78 -84.5 -129.5t-216.5 -51.5q-134 0 -218 51t-84 128q0 41 28.5 71.5t66.5 30.5q36 0 64 -28.5t28 -65.5q0 -28 -12.5 -48
t-38.5 -34zM829 782q0 45 -13.5 59.5t-55.5 16.5l-94 4v86h512v-86l-93 -4q-43 -2 -56 -16.5t-13 -59.5v-616q0 -45 13.5 -59.5t56.5 -16.5l92 -4v-86h-512v86l93 4q44 2 57 16.5t13 59.5v459l-426 -441v-24q0 -40 13.5 -54t55.5 -16l93 -4v-86h-512v86l94 4q42 2 55 16
t13 60v616q0 46 -13 60t-54 16l-95 4v86h512v-86l-94 -4q-42 -2 -55 -16t-13 -60v-467l426 441v26z" />
    <glyph glyph-name="afii10076" unicode="&#x43a;" horiz-adv-x="1106" 
d="M66 0v86l93 4q43 2 56.5 16.5t13.5 59.5v616q0 45 -13.5 59.5t-55.5 16.5l-94 4v86h514v-86l-95 -4q-43 -2 -56 -16.5t-13 -59.5v-247h61q92 0 137.5 34t63.5 119q5 24 14 69q44 230 195 230q77 0 125.5 -42t48.5 -109q0 -52 -29 -82.5t-78 -30.5q-46 0 -71 22t-25 62
q0 27 19.5 54.5t19.5 31.5q0 8 -8 13t-21 5q-67 0 -98 -157v-2l-1 -5q-35 -193 -128 -237q92 -14 140 -52t73 -116q15 -47 28 -134q21 -132 72 -132q31 0 45.5 26.5t14.5 81.5v23h61q0 -11 1 -21l1 -10q0 -105 -44 -158t-132 -53q-157 0 -193 254q-6 43 -10 66
q-16 103 -54.5 138.5t-125.5 35.5h-18h-84v-293q0 -45 13.5 -59.5t56.5 -16.5l94 -4v-86h-514z" />
    <glyph glyph-name="afii10077" unicode="&#x43b;" horiz-adv-x="1151" 
d="M1083 948v-88l-94 -2q-43 -2 -56 -16.5t-13 -59.5v-616q0 -45 13 -59.5t57 -16.5l93 -4v-86h-514v86l94 4q43 2 56.5 16.5t13.5 59.5v694h-119q-157 0 -173 -277q-7 -128 -15 -212q-21 -225 -74.5 -308t-165.5 -83q-71 0 -117 42.5t-46 102.5q0 64 31.5 99.5t88.5 35.5
q42 0 69.5 -26t27.5 -64t-27 -66t-27 -34t6.5 -10.5t16.5 -4.5q41 0 69 36t41 106q21 100 35.5 255.5t14.5 297.5q0 64 -19 85.5t-77 22.5l-80 2v88h890z" />
    <glyph glyph-name="afii10078" unicode="&#x43c;" horiz-adv-x="1372" 
d="M27 0v86l93 4q44 2 57 16.5t13 59.5v616q0 45 -13 59.5t-56 16.5l-94 4v86h376l261 -706l251 706h390v-86l-95 -4q-43 -2 -56 -16.5t-13 -59.5v-616q0 -45 13.5 -59.5t56.5 -16.5l94 -4v-86h-504v86l93 4q44 2 57.5 16.5t13.5 59.5v688l-306 -854h-71l-322 854v-688
q0 -45 13.5 -59.5t56.5 -16.5l94 -4v-86h-403z" />
    <glyph glyph-name="afii10079" unicode="&#x43d;" horiz-adv-x="1231" 
d="M829 782q0 45 -13.5 59.5t-55.5 16.5l-94 4v86h512v-86l-93 -4q-43 -2 -56 -16.5t-13 -59.5v-616q0 -45 13.5 -59.5t56.5 -16.5l92 -4v-86h-512v86l93 4q44 2 57 16.5t13 59.5v285h-426v-285q0 -46 13 -60t56 -16l93 -4v-86h-512v86l94 4q42 2 55 16t13 60v616
q0 46 -13 60t-54 16l-95 4v86h512v-86l-94 -4q-42 -2 -55 -16t-13 -60v-241h426v241z" />
    <glyph glyph-name="afii10080" unicode="&#x43e;" horiz-adv-x="1055" 
d="M528 897q-130 0 -189.5 -101t-59.5 -323q0 -220 59.5 -321t187.5 -101q133 0 192.5 100t59.5 322t-60 323t-190 101zM528 981q203 0 331 -141.5t128 -366.5q0 -226 -127.5 -366t-331.5 -140q-203 0 -331.5 140.5t-128.5 365.5q0 226 128 367t332 141z" />
    <glyph glyph-name="afii10081" unicode="&#x43f;" horiz-adv-x="1231" 
d="M53 0v86l94 4q42 2 55 16t13 60v616q0 46 -13 60t-54 16l-95 4v86h1125v-86l-93 -4q-43 -2 -56 -16.5t-13 -59.5v-616q0 -45 13.5 -59.5t56.5 -16.5l92 -4v-86h-512v86l93 4q44 2 57 16.5t13 59.5v616q0 46 -15 61t-54 15h-289q-39 0 -53.5 -14t-14.5 -62v-622
q0 -40 13.5 -54t55.5 -16l93 -4v-86h-512z" />
    <glyph glyph-name="afii10082" unicode="&#x440;" horiz-adv-x="1147" 
d="M625 78q126 0 185.5 94.5t59.5 296.5q0 204 -56.5 298.5t-178.5 94.5q-134 0 -195 -92t-61 -301q0 -206 58.5 -298.5t187.5 -92.5zM35 -340l87 4q43 2 55.5 16t12.5 58v1036q0 53 -20 69.5t-86 16.5h-23h-3q-13 -2 -23 -2v88l332 25v-176q57 94 131.5 140t169.5 46
q179 0 296 -142.5t117 -365.5q0 -219 -120 -363.5t-297 -144.5q-94 0 -160 34.5t-125 113.5v-375q0 -43 13.5 -57.5t56.5 -16.5l86 -4v-86h-500v86z" />
    <glyph glyph-name="afii10083" unicode="&#x441;" horiz-adv-x="918" 
d="M895 264q-59 -155 -151 -226t-234 -71q-197 0 -320.5 135.5t-123.5 354.5q0 235 131 379.5t344 144.5q142 0 235.5 -68t93.5 -168q0 -67 -37.5 -107t-99.5 -40q-53 0 -87 31.5t-34 81.5q0 46 32 79.5t32 40.5q0 30 -39.5 49t-104.5 19q-127 0 -191.5 -102.5t-64.5 -307.5
q0 -200 70.5 -298.5t212.5 -98.5q91 0 155 51t107 158z" />
    <glyph glyph-name="afii10084" unicode="&#x442;" horiz-adv-x="1014" 
d="M250 0v86l94 4q43 2 56.5 16.5t13.5 59.5v643q0 30 -15.5 43.5t-50.5 13.5q-110 0 -159 -61t-80 -240h-66l18 383h891l21 -383h-68q-33 181 -81 241t-156 60q-38 0 -53 -15.5t-15 -55.5v-629q0 -45 13.5 -59.5t56.5 -16.5l94 -4v-86h-514z" />
    <glyph glyph-name="afii10085" unicode="&#x443;" horiz-adv-x="1065" 
d="M485 25l-325 749q-21 49 -53 68.5t-93 19.5h-12v86h477v-86h-55h-27q-25 0 -38 -11t-13 -32q0 -8 5.5 -25.5t15.5 -37.5l217 -500l204 491q5 10 8 22t3 24q0 39 -26.5 53t-116.5 16l-1 86h396v-86q-57 0 -92.5 -25.5t-61.5 -84.5l-346 -805q-88 -203 -180 -288t-217 -85
q-88 0 -138.5 42.5t-50.5 115.5q0 50 35.5 85.5t87.5 35.5q50 0 78.5 -28.5t28.5 -78.5q0 -17 -8.5 -33.5t-8.5 -19.5q0 -11 10 -17t27 -6q55 0 126 88.5t130 233.5z" />
    <glyph glyph-name="afii10086" unicode="&#x444;" horiz-adv-x="1565" 
d="M877 469q0 -202 49.5 -296.5t154.5 -94.5q108 0 157.5 93.5t49.5 297.5q0 211 -48 302t-157 91q-105 0 -155.5 -96.5t-50.5 -296.5zM279 481q0 -215 48 -309t156 -94q106 0 155.5 94.5t49.5 296.5q0 201 -50 297t-155 96q-107 0 -155.5 -90.5t-48.5 -290.5zM694 117
q-59 -82 -118 -117t-136 -35q-150 0 -261 148t-111 368q0 216 102.5 357t253.5 141q84 0 150 -40.5t120 -125.5v516q0 51 -20 66.5t-94 15.5h-31h-27v80l352 25v-703q53 83 119.5 124.5t147.5 41.5q152 0 254 -142t102 -364q0 -214 -112 -361t-261 -147q-77 0 -135.5 35.5
t-114.5 116.5v-379q0 -44 13 -58t56 -16l87 -4v-86h-491v86l87 4q43 2 55.5 16t12.5 58v379z" />
    <glyph glyph-name="afii10087" unicode="&#x445;" horiz-adv-x="1077" 
d="M16 0l1 86q58 5 95 21.5t78 64.5l259 291l-285 342q-27 31 -53.5 44t-63.5 13h-18v86h473v-78q-72 -2 -94.5 -9.5t-22.5 -24.5t24 -46q4 -4 7 -8l147 -180l142 156q11 13 18.5 28.5t7.5 26.5q0 30 -27 43t-94 15v77h410v-85q-55 -3 -91 -18t-81 -65l-230 -254l263 -340
q2 -3 6 -8q72 -94 172 -94v-84h-498l1 86q68 2 95 11t27 28q0 9 -5.5 19.5t-25.5 37.5l-149 203l-168 -180q-14 -16 -21.5 -32t-7.5 -32q0 -30 28 -42.5t103 -12.5v-86h-422z" />
    <glyph glyph-name="afii10088" unicode="&#x446;" horiz-adv-x="1231" 
d="M1178 -281h-76q-17 165 -77.5 223t-295.5 58h-676v86l94 4q42 2 55 16t13 60v616q0 46 -13 60t-54 16l-95 4v86h512v-86l-94 -4q-42 -2 -55 -15.5t-13 -54.5v-622q0 -47 14.5 -61.5t53.5 -14.5h289q40 0 54.5 15t14.5 61v616q0 45 -13.5 59.5t-55.5 16.5l-94 4v86h512
v-86l-93 -4q-43 -2 -56 -16.5t-13 -59.5v-616q0 -45 13.5 -59.5t56.5 -16.5l92 -4v-367z" />
    <glyph glyph-name="afii10089" unicode="&#x447;" horiz-adv-x="1100" 
d="M1024 86v-86h-475v86l75 4q43 2 55.5 16t12.5 60v256q-80 -24 -154 -35.5t-143 -11.5q-139 0 -209.5 53t-70.5 158v196q0 45 -13.5 59.5t-55.5 16.5l-75 4v86h478v-86l-79 -4q-42 -1 -55.5 -15.5t-13.5 -60.5v-168q0 -79 36.5 -111t125.5 -32q48 0 107.5 10.5t121.5 30.5
v270q0 46 -12.5 60t-54.5 16l-76 4v86h475v-86l-76 -4q-43 -2 -55 -15.5t-12 -60.5v-616q0 -47 12 -60.5t56 -15.5z" />
    <glyph glyph-name="afii10090" unicode="&#x448;" horiz-adv-x="1780" 
d="M1708 86v-86h-1636v86l75 4q42 2 55 16t13 60v616q0 46 -12.5 60t-54.5 16l-76 4v86h475v-86l-76 -4q-42 -2 -55 -15.5t-13 -54.5v-622q0 -47 14.5 -61.5t53.5 -14.5h256q40 0 55 15t15 61v616q0 45 -13.5 59.5t-55.5 16.5l-77 4v86h475v-86l-74 -4q-42 -2 -55.5 -16
t-13.5 -54v-622q0 -46 14.5 -61t55.5 -15h254q40 0 54.5 15t14.5 61v616q0 45 -13 59.5t-56 16.5l-74 4v86h475v-86l-76 -4q-44 -2 -56.5 -16t-12.5 -60v-616q0 -46 13 -60t57 -16z" />
    <glyph glyph-name="afii10091" unicode="&#x449;" horiz-adv-x="1780" 
d="M1708 86v-367h-78q-17 165 -77.5 223t-295.5 58h-1185v86l75 4q42 2 55 16t13 60v616q0 46 -12.5 60t-54.5 16l-76 4v86h475v-86l-76 -4q-42 -2 -55 -15.5t-13 -54.5v-622q0 -47 14.5 -61.5t53.5 -14.5h256q40 0 55 15t15 61v616q0 45 -13.5 59.5t-55.5 16.5l-77 4v86
h475v-86l-74 -4q-42 -2 -55.5 -16t-13.5 -54v-622q0 -46 14.5 -61t55.5 -15h254q40 0 54.5 15t14.5 61v616q0 45 -13 59.5t-56 16.5l-74 4v86h475v-86l-76 -4q-44 -2 -56.5 -16t-12.5 -60v-616q0 -46 13 -60t57 -16z" />
    <glyph glyph-name="afii10092" unicode="&#x44a;" horiz-adv-x="1221" 
d="M588 473v-311q0 -47 13.5 -61.5t53.5 -14.5h80q126 0 181 43t55 139q0 113 -62.5 159t-222.5 46h-98zM588 559h200q192 0 293 -70.5t101 -203.5q0 -140 -92.5 -212.5t-270.5 -72.5h-581v86l93 4q43 2 55.5 16t12.5 60v616q0 49 -20.5 64.5t-81.5 15.5q-93 0 -146 -59.5
t-65 -177.5h-68v323h732v-86l-95 -4q-42 -2 -54.5 -16t-12.5 -60v-223z" />
    <glyph glyph-name="afii10093" unicode="&#x44b;" horiz-adv-x="1597" 
d="M1047 0v86l93 4q43 2 56.5 16.5t13.5 59.5v616q0 45 -13.5 59.5t-55.5 16.5l-94 4v86h512v-86l-93 -4q-43 -2 -56 -16.5t-13 -59.5v-616q0 -45 13.5 -59.5t56.5 -16.5l92 -4v-86h-512zM416 473v-311q0 -46 14 -61t55 -15h80q126 0 181 43t55 139q0 113 -62.5 159
t-222.5 46h-100zM416 559h202q192 0 293 -70.5t101 -203.5q0 -140 -93 -212.5t-272 -72.5h-581v86l93 4q43 2 56.5 16.5t13.5 59.5v616q0 45 -13.5 59.5t-55.5 16.5l-94 4v86h514v-86l-95 -4q-43 -2 -56 -16.5t-13 -59.5v-223z" />
    <glyph glyph-name="afii10094" unicode="&#x44c;" horiz-adv-x="1049" 
d="M416 559h202q192 0 293 -70.5t101 -203.5q0 -140 -93 -212.5t-272 -72.5h-581v86l93 4q43 2 56.5 16.5t13.5 59.5v616q0 45 -13.5 59.5t-55.5 16.5l-94 4v86h514v-86l-95 -4q-43 -2 -56 -16.5t-13 -59.5v-223zM416 473v-311q0 -46 14 -61t55 -15h80q126 0 181 43t55 139
q0 113 -62.5 159t-222.5 46h-100z" />
    <glyph glyph-name="afii10095" unicode="&#x44d;" horiz-adv-x="958" 
d="M682 462l-328 1v78h324q0 164 -66.5 261t-175.5 97q-97 0 -166.5 -69.5t-95.5 -194.5h-72l2 342h52l53 -82q56 43 111 63.5t114 20.5q203 0 331 -144.5t128 -375.5q0 -227 -127.5 -359.5t-347.5 -132.5q-157 0 -256 69.5t-99 174.5q0 68 37.5 111t92.5 43q54 0 84 -28.5
t30 -78.5q0 -60 -49 -83t-49 -30q0 -37 56 -65.5t136 -28.5q135 0 206.5 105.5t74.5 305.5z" />
    <glyph glyph-name="afii10096" unicode="&#x44e;" horiz-adv-x="1577" 
d="M1051 897q-130 0 -190 -101t-60 -323q0 -220 59.5 -321t188.5 -101q132 0 191.5 100t59.5 322t-59.5 323t-189.5 101zM53 0v86l94 4q42 2 55 16t13 60v616q0 46 -13 60t-54 16l-95 4v86h512v-86l-94 -4q-42 -2 -55 -16t-13 -60v-241h189q27 206 149.5 323t309.5 117
q203 0 330.5 -141.5t127.5 -366.5q0 -226 -127 -366t-331 -140q-199 0 -324.5 132t-134.5 351l-189 1v-285q0 -46 13 -60t56 -16l93 -4v-86h-512z" />
    <glyph glyph-name="afii10097" unicode="&#x44f;" horiz-adv-x="1102" 
d="M684 535v247q0 46 -16.5 63t-55.5 17h-77q-117 0 -167.5 -36t-50.5 -117q0 -94 60 -134t215 -40h92zM522 0v86l94 4q42 2 55 16t13 60v293h-88q-85 0 -131 -41t-55 -125l-15 -131q-11 -104 -52 -144.5t-130 -40.5q-88 0 -131 51t-43 154v29h63q4 -81 15.5 -108t38.5 -27
q17 0 32 21.5t25 62.5l37 149q20 81 68 120.5t137 47.5q-157 11 -237.5 71t-80.5 167q0 116 86 174.5t256 58.5h555v-86l-94 -4q-42 -2 -55 -16t-13 -60v-616q0 -46 13 -60t56 -16l93 -4v-86h-512z" />
    <glyph glyph-name="periodcentered" unicode="&#x2219;" horiz-adv-x="559" 
d="M279 582q-51 0 -86 35.5t-35 84.5q0 51 35.5 87t85.5 36q48 0 84 -36.5t36 -86.5q0 -49 -35 -84.5t-85 -35.5z" />
    <glyph glyph-name="Euro" unicode="&#x20ac;" horiz-adv-x="1118" 
d="M967 518l92 -12q-27 -256 -146.5 -400.5t-302.5 -144.5q-200 0 -342 171.5t-176 457.5h-110l34 80h70q0 17 -1 40t-1 29q0 14 0.5 30t1.5 34h-125l37 78h96q39 294 174.5 462t331.5 168q82 0 153.5 -33.5t133.5 -101.5l61 127h60l20 -596l-80 -4q-33 253 -116.5 385.5
t-208.5 132.5q-141 0 -220.5 -139t-89.5 -401h490l-35 -78h-459q0 -15 -1 -36t-1 -28q0 -6 1 -29t1 -40h400l-35 -80h-363q11 -260 92.5 -394.5t227.5 -134.5q131 0 216.5 116.5t119.5 340.5z" />
    <glyph glyph-name="c6460" horiz-adv-x="1024" 
d="M711 1276l-301 -184h-74l276 301q27 30 54.5 45.5t52.5 15.5q31 0 53.5 -24t22.5 -56q0 -26 -17 -46.5t-67 -51.5z" />
    <glyph glyph-name="c6462" horiz-adv-x="1024" 
d="M344 1231q32 -22 71 -31.5t97 -9.5q56 0 98.5 10t75.5 31q-30 11 -44.5 31.5t-14.5 50.5q0 36 28 65t64 29q39 0 65.5 -29t26.5 -71q0 -78 -83 -129.5t-216 -51.5t-217 51t-84 128q0 42 27 72t65 30q37 0 64.5 -28.5t27.5 -65.5q0 -29 -12 -48.5t-39 -33.5z" />
  </font>
</defs>
</svg>
