<?xml version="1.0" standalone="no"?>
<!DOCTYPE svg PUBLIC "-//W3C//DTD SVG 1.1//EN" "http://www.w3.org/Graphics/SVG/1.1/DTD/svg11.dtd" >
<svg xmlns="http://www.w3.org/2000/svg" xmlns:xlink="http://www.w3.org/1999/xlink" version="1.1">
<metadata>
Created by FontForge 20170924 at Wed Jan 28 05:40:44 2015
 By www-data
</metadata>
<defs>
<font id="Tsarevich-Regular" horiz-adv-x="354" >
  <font-face 
    font-family="Tsarevich"
    font-weight="400"
    font-stretch="normal"
    units-per-em="1000"
    panose-1="2 0 0 0 0 0 0 0 0 0"
    ascent="750"
    descent="-250"
    x-height="694"
    cap-height="694"
    bbox="-87 -91 1142 821"
    underline-thickness="50"
    underline-position="-100"
    unicode-range="U+0009-2265"
  />
<missing-glyph horiz-adv-x="198" 
 />
    <glyph glyph-name="uni0413_uni0414" unicode="&#x413;&#x414;" horiz-adv-x="526" 
d="M483 33v-33q0 -24 -16 -40.5t-45 -16.5h-70v11q44 0 44 46h-177q0 -46 44 -46v-11h-70q-29 0 -45 16.5t-16 40.5v33h44v402h87q18 0 33.5 6.5t27.5 18t19.5 26.5t8.5 33v142h-89v-143h-87v143h-89v-661h-87v694h439v-661h44zM352 440q-17 -17 -40 -27.5t-49 -10.5v-369
h89v407z" />
    <glyph glyph-name="uni0413_uni0418" unicode="&#x413;&#x418;" horiz-adv-x="530" 
d="M439 694v-694h-87v264q-17 -17 -40 -27.5t-49 -10.5v-226h-87v435h87v-176q18 0 33.5 6.5t27.5 18t19.5 26.5t8.5 33v351h87zM176 518v143h-89v-661h-87v694h263v-176h-87z" />
    <glyph glyph-name="uni0413_uni0419" unicode="&#x413;&#x419;" horiz-adv-x="530" 
d="M439 694v-694h-87v264q-17 -17 -40 -27.5t-49 -10.5v-226h-87v435h87v-176q18 0 33.5 6.5t27.5 18t19.5 26.5t8.5 33v351h87zM176 518v143h-89v-661h-87v694h263v-176h-87zM308 727q-19 0 -31.5 13t-12.5 31t12.5 30.5t31.5 12.5q18 0 30.5 -12.5t12.5 -30.5t-12.5 -31
t-30.5 -13z" />
    <glyph glyph-name="uni0413_uni0418_uni0422" unicode="&#x413;&#x418;&#x422;" horiz-adv-x="881" 
d="M352 435h87v-435h-87v264q-17 -17 -40 -27.5t-49 -10.5v-226h-87v435h87v-176q18 0 33.5 6.5t27.5 18t19.5 26.5t8.5 33v92zM176 518v143h-89v-661h-87v694h263v-176h-87zM790 694v-176h-87v143h-89v-661h-87v661h-88v-143h-87v176h438z" />
    <glyph glyph-name="uni0413_uni041D" unicode="&#x413;&#x41d;" horiz-adv-x="530" 
d="M352 694h87v-694h-87v226h-89v-226h-87v435h87v-176h89v435zM176 518v143h-89v-661h-87v694h263v-176h-87z" />
    <glyph glyph-name="uni0413_uni041A" unicode="&#x413;&#x41a;" horiz-adv-x="530" 
d="M305 259q-17 0 -29.5 -12.5t-12.5 -29.5t12.5 -29t29.5 -12h134v-176h-87v143h-47q-25 0 -42 13v-156h-87v435h87v-156q19 13 42 13h47v402h87v-435h-134zM176 661h-89v-661h-87v694h263v-176h-87v143z" />
    <glyph glyph-name="uni0413_uni0427" unicode="&#x413;&#x427;" horiz-adv-x="530" 
d="M439 694v-694h-87v175q-1 18 -8.5 33t-19.5 26.5t-27.5 18t-33.5 6.5h-87v176h87v-143q26 0 49 -10.5t40 -27.5v440h87zM176 661h-89v-661h-87v694h263v-176h-87v143z" />
    <glyph glyph-name="uni0413_uni0423" unicode="&#x413;&#x423;" horiz-adv-x="530" 
d="M439 694v-694h-263v171h87v-138h89v142q-1 18 -8.5 33t-19.5 26.5t-27.5 18t-33.5 6.5h-87v176h87v-143q26 0 49 -10.5t40 -27.5v440h87zM176 518v143h-89v-661h-87v694h263v-176h-87z" />
    <glyph glyph-name="uni0413_uni041E_uni041D" unicode="&#x413;&#x41e;&#x41d;" horiz-adv-x="706" 
d="M176 0v435h263v-435h-263v0zM263 402v-369h89v369h-89zM528 694h87v-694h-87v573h-89v-55h-87v176h87v-88h89v88zM176 518v143h-89v-661h-87v694h263v-176h-87z" />
    <glyph glyph-name="uni0415_uni041D" unicode="&#x415;&#x41d;" horiz-adv-x="530" 
d="M439 694v-694h-87v314h-89v-55h-87v176h87v-88h89v347h87zM176 171h87v-171h-263v313q0 42 25.5 67t59.5 39q-34 13 -59.5 38t-25.5 67v170h263v-176h-87v143h-89v-137q0 -59 45 -79v-52q-45 -22 -45 -79v-281h89v138z" />
    <glyph glyph-name="uni0415_uni0418" unicode="&#x415;&#x418;" horiz-adv-x="530" 
d="M439 694v-694h-87v352q-17 -17 -40 -27.5t-49 -10.5v-55h-87v176h87v-88q18 0 33.5 6.5t27.5 18t19.5 26.5t8.5 33v263h87zM176 171h87v-171h-263v313q0 42 25.5 67t59.5 39q-34 13 -59.5 38t-25.5 67v170h263v-176h-87v143h-89v-137q0 -59 45 -79v-52q-45 -22 -45 -79
v-281h89v138z" />
    <glyph glyph-name="uni0415_uni0419" unicode="&#x415;&#x419;" horiz-adv-x="530" 
d="M439 694v-694h-87v352q-17 -17 -40 -27.5t-49 -10.5v-55h-87v176h87v-88q18 0 33.5 6.5t27.5 18t19.5 26.5t8.5 33v263h87zM308 727q-19 0 -31.5 13t-12.5 31t12.5 30.5t31.5 12.5q18 0 30.5 -12.5t12.5 -30.5t-12.5 -31t-30.5 -13zM176 171h87v-171h-263v313
q0 42 25.5 67t59.5 39q-34 13 -59.5 38t-25.5 67v170h263v-176h-87v143h-89v-137q0 -59 45 -79v-52q-45 -22 -45 -79v-281h89v138z" />
    <glyph glyph-name="uni0415_uni0427" unicode="&#x415;&#x427;" horiz-adv-x="530" 
d="M439 694v-694h-87v175q-1 18 -8.5 33t-19.5 26.5t-27.5 18t-33.5 6.5h-87v176h87v-143q26 0 49 -10.5t40 -27.5v440h87zM176 171h87v-171h-263v313q0 42 25.5 67t59.5 39q-34 13 -59.5 38t-25.5 67v170h263v-176h-87v143h-89v-137q0 -59 45 -79v-52q-45 -22 -45 -79v-281
h89v138z" />
    <glyph glyph-name="uni0415_uni041D_uni0418" unicode="&#x415;&#x41d;&#x418;" horiz-adv-x="706" 
d="M263 435h89v259h87v-347h-87v55h-89v-143h-87v259h87v-83zM615 694v-694h-87v176q-17 -17 -40 -27.5t-49 -10.5v-138h-87v259h87v-88q18 0 33.5 6.5t27.5 18t19.5 26.5t8.5 33v439h87zM176 171h87v-171h-263v313q0 42 25.5 67t59.5 39q-34 13 -59.5 38t-25.5 67v170h263
v-88h-87v55h-89v-137q0 -59 45 -79v-52q-45 -22 -45 -79v-281h89v138z" />
    <glyph glyph-name="uni0416_uni0418" unicode="&#x416;&#x418;" horiz-adv-x="706" 
d="M615 694v-694h-87v176q-17 -17 -40 -27.5t-49 -10.5v-138h-87v259h87v-88q18 0 33.5 6.5t27.5 18t19.5 26.5t8.5 33v439h87zM352 402h-47q-23 0 -42 13v-415h-87v415q-20 -13 -42 -13h-47v-402h-87v435h134q17 0 29.5 12.5t12.5 29.5t-12.5 29t-29.5 12h-134v176h87v-143
h47q22 0 42 -13v156h87v-156q19 13 42 13h47v143h87v-176h-134q-17 0 -29.5 -12t-12.5 -29t12.5 -29.5t29.5 -12.5h134v-88h-87v55z" />
    <glyph glyph-name="uni0416_uni041D" unicode="&#x416;&#x41d;" horiz-adv-x="706" 
d="M615 694v-694h-87v138h-89v-138h-87v259h87v-88h89v523h87zM352 402h-47q-23 0 -42 13v-415h-87v415q-20 -13 -42 -13h-47v-402h-87v435h134q17 0 29.5 12.5t12.5 29.5t-12.5 29t-29.5 12h-134v176h87v-143h47q22 0 42 -13v156h87v-156q19 13 42 13h47v143h87v-176h-134
q-17 0 -29.5 -12t-12.5 -29t12.5 -29.5t29.5 -12.5h134v-88h-87v55z" />
    <glyph glyph-name="uni0416_uni0415_uni041D" unicode="&#x416;&#x415;&#x41d;" horiz-adv-x="882" 
d="M791 694v-694h-88v485h-88v-138h-87v347h87v-176h88v176h88zM352 402h-47q-23 0 -42 13v-415h-87v415q-20 -13 -42 -13h-47v-402h-87v435h134q17 0 29.5 12.5t12.5 29.5t-12.5 29t-29.5 12h-134v176h87v-143h47q22 0 42 -13v156h87v-156q19 13 42 13h47v143h87v-176h-134
q-17 0 -29.5 -12t-12.5 -29t12.5 -29.5t29.5 -12.5h134v-88h-87v55zM352 259h263v-88h-87v55h-89q0 -41 23.5 -59t64.5 -18v-34q-39 0 -62.5 -22t-25.5 -60h89v55h87v-88h-263v27q0 42 25.5 67t59.5 38q-17 6 -32.5 14t-27 19t-18.5 25.5t-7 35.5v33z" />
    <glyph glyph-name="uni0416_uni0418_uni0422" unicode="&#x416;&#x418;&#x422;" horiz-adv-x="1057" 
d="M966 694v-176h-88v143h-88v-661h-87v661h-88v-143h-87v176h438zM528 435h87v-435h-87v176q-17 -17 -40 -27.5t-49 -10.5v-138h-87v259h87v-88q18 0 33.5 6.5t27.5 18t19.5 26.5t8.5 33v180zM352 402h-47q-23 0 -42 13v-415h-87v415q-20 -13 -42 -13h-47v-402h-87v435h134
q17 0 29.5 12.5t12.5 29.5t-12.5 29t-29.5 12h-134v176h87v-143h47q22 0 42 -13v156h87v-156q19 13 42 13h47v143h87v-176h-134q-17 0 -29.5 -12t-12.5 -29t12.5 -29.5t29.5 -12.5h134v-88h-87v55z" />
    <glyph glyph-name="uni0416_uni0418_uni0422_uni041A" unicode="&#x416;&#x418;&#x422;&#x41a;" horiz-adv-x="1233" 
d="M1008 259q-17 0 -29.5 -12.5t-12.5 -29.5t12.5 -29t29.5 -12h134v-176h-88v143h-46q-25 0 -42 13v-156h-88v435h88v-156q19 13 42 13h46v402h88v-435h-134zM878 518v143h-88v-661h-87v661h-88v-143h-87v176h438v-176h-88zM528 435h87v-435h-87v176q-17 -17 -40 -27.5
t-49 -10.5v-138h-87v259h87v-88q18 0 33.5 6.5t27.5 18t19.5 26.5t8.5 33v180zM352 402h-47q-23 0 -42 13v-415h-87v415q-20 -13 -42 -13h-47v-402h-87v435h134q17 0 29.5 12.5t12.5 29.5t-12.5 29t-29.5 12h-134v176h87v-143h47q22 0 42 -13v156h87v-156q19 13 42 13h47
v143h87v-176h-134q-17 0 -29.5 -12t-12.5 -29t12.5 -29.5t29.5 -12.5h134v-88h-87v55z" />
    <glyph glyph-name="uni0416_uni0418_uni0422_uni042C" unicode="&#x416;&#x418;&#x422;&#x42c;" horiz-adv-x="1233" 
d="M878 518v143h-88v-661h-87v661h-88v-143h-87v176h438v-176h-88zM528 435h87v-435h-87v176q-17 -17 -40 -27.5t-49 -10.5v-138h-87v259h87v-88q18 0 33.5 6.5t27.5 18t19.5 26.5t8.5 33v180zM1142 259v-259h-264v435h88v-92q1 -18 8 -33t19 -26.5t27.5 -18t33.5 -6.5h88z
M1054 226q-26 0 -48.5 10.5t-39.5 27.5v-231h88v193zM352 402h-47q-23 0 -42 13v-415h-87v415q-20 -13 -42 -13h-47v-402h-87v435h134q17 0 29.5 12.5t12.5 29.5t-12.5 29t-29.5 12h-134v176h87v-143h47q22 0 42 -13v156h87v-156q19 13 42 13h47v143h87v-176h-134
q-17 0 -29.5 -12t-12.5 -29t12.5 -29.5t29.5 -12.5h134v-88h-87v55z" />
    <glyph glyph-name="uni0422_uni0422" unicode="&#x422;&#x422;" horiz-adv-x="880" 
d="M0 694h789v-176h-87v143h-89v-661h-87v661h-88v-143h-87v143h-89v-661h-87v661h-88v-143h-87v176v0z" />
    <glyph glyph-name="uni0422_uni041A" unicode="&#x422;&#x41a;" horiz-adv-x="705" 
d="M480 259q-17 0 -29.5 -12.5t-12.5 -29.5t12.5 -29t29.5 -12h134v-176h-87v143h-47q-25 0 -42 13v-156h-87v435h87v-156q19 13 42 13h47v402h87v-435h-134zM351 518v143h-89v-661h-87v661h-88v-143h-87v176h438v-176h-87z" />
    <glyph glyph-name="uni0422_uni0418" unicode="&#x422;&#x418;" horiz-adv-x="705" 
d="M614 694v-694h-87v264q-17 -17 -40 -27.5t-49 -10.5v-226h-87v435h87v-176q18 0 33.5 6.5t27.5 18t19.5 26.5t8.5 33v351h87zM351 518v143h-89v-661h-87v661h-88v-143h-87v176h438v-176h-87z" />
    <glyph glyph-name="uni0422_uni041D" unicode="&#x422;&#x41d;" horiz-adv-x="705" 
d="M527 694h87v-694h-87v226h-89v-226h-87v435h87v-176h89v435zM438 518h-87v143h-89v-661h-87v661h-88v-143h-87v176h438v-176z" />
    <glyph glyph-name="uni0422_uni042E" unicode="&#x422;&#x42e;" horiz-adv-x="881" 
d="M351 518v143h-89v-661h-87v661h-88v-143h-87v176h438v-176h-87zM526 694h264v-694h-264v226h-88v-226h-87v435h87v-176h88v435zM702 33v628h-88v-628h88z" />
    <glyph glyph-name="uni0422_uni0423" unicode="&#x422;&#x423;" horiz-adv-x="705" 
d="M614 694v-694h-263v171h87v-138h89v142q-1 18 -8.5 33t-19.5 26.5t-27.5 18t-33.5 6.5h-87v176h87v-143q26 0 49 -10.5t40 -27.5v440h87zM351 518v143h-89v-661h-87v661h-88v-143h-87v176h438v-176h-87z" />
    <glyph glyph-name="uni0422_uni042B" unicode="&#x422;&#x42b;" horiz-adv-x="705" 
d="M614 259v-259h-263v435h87v-92q1 -18 8.5 -33t19.5 -26.5t27.5 -18t33.5 -6.5h87zM527 226q-26 0 -49 10.5t-40 27.5v-231h89v193zM614 694v-347h-87v347h87zM351 661h-89v-661h-87v661h-88v-143h-87v176h438v-176h-87v143z" />
    <glyph glyph-name="uni0422_uni041E_uni0422" unicode="&#x422;&#x41e;&#x422;" horiz-adv-x="1056" 
d="M438 518h-87v143h-89v-661h-87v661h-88v-143h-87v176h438v-176zM527 694h438v-176h-87v143h-89v-661h-87v661h-88v-143h-87v176zM351 0v435h263v-435h-263v0zM438 402v-369h89v369h-89z" />
    <glyph glyph-name="uni0422_uni041E_uni041A" unicode="&#x422;&#x41e;&#x41a;" horiz-adv-x="881" 
d="M351 259h263v-259h-263v259zM438 33h89v193h-89v-193zM656 518q-17 0 -29.5 -12t-12.5 -29t12.5 -29.5t29.5 -12.5h134v-435h-88v402h-46q-23 0 -42 13v-68h-87v347h87v-156q19 13 42 13h46v143h88v-176h-134zM351 661h-89v-661h-87v661h-88v-143h-87v176h438v-347h-87
v314z" />
    <glyph glyph-name="uni0422_uni041E_uni0427" unicode="&#x422;&#x41e;&#x427;" horiz-adv-x="881" 
d="M351 518v143h-89v-661h-87v661h-88v-143h-87v176h438v-176h-87zM351 435h263v-435h-263v435zM438 33h89v369h-89v-369zM790 694v-694h-87v434q-1 18 -8.5 33t-19.5 26.5t-27.5 18t-33.5 6.5h-87v176h87v-143q26 0 49 -10.5t40 -27.5v181h87z" />
    <glyph glyph-name="uni0422_uni0418_uni0422" unicode="&#x422;&#x418;&#x422;" horiz-adv-x="1056" 
d="M351 518v143h-89v-661h-87v661h-88v-143h-87v176h438v-176h-87zM965 694v-176h-87v143h-89v-661h-87v661h-88v-143h-87v176h438zM527 435h87v-435h-87v264q-17 -17 -40 -27.5t-49 -10.5v-226h-87v435h87v-176q18 0 33.5 6.5t27.5 18t19.5 26.5t8.5 33v92z" />
    <glyph glyph-name="uni0422_uni0421_uni042F" unicode="&#x422;&#x421;&#x42f;" horiz-adv-x="881" 
d="M790 694v-694h-88v415q-20 -13 -41 -13h-47v-55h-88v88h135q17 0 29 12.5t12 29.5t-12 29t-29 12h-135v176h264zM702 661h-88v-110h47q21 0 41 -13v123zM351 259h263v-88h-87v55h-89v-193h89v55h87v-88h-263v259zM351 661h-89v-661h-87v661h-88v-143h-87v176h438v-347
h-87v314z" />
    <glyph glyph-name="uni041F_uni041E_uni041D" unicode="&#x41f;&#x41e;&#x41d;" horiz-adv-x="706" 
d="M176 347v314h-89v-661h-87v694h263v-347h-87zM176 0v259h263v-259h-263zM263 226v-193h88v193h-88zM527 694h88v-694h-88v485h-88v-138h-88v347h88v-176h88v176z" />
    <glyph glyph-name="uni0420_uni0418" unicode="&#x420;&#x418;" horiz-adv-x="530" 
d="M439 694v-694h-87v264q-17 -17 -40 -27.5t-49 -10.5v-226h-87v435h87v-176q18 0 33.5 6.5t27.5 18t19.5 26.5t8.5 33v351h87zM263 518h-87q-18 0 -33.5 -6.5t-27.5 -18t-19.5 -26.5t-8.5 -33v-434h-87v694h263v-176zM176 661h-89v-148q17 17 40 27.5t49 10.5v110z" />
    <glyph glyph-name="uni0420_uni042B" unicode="&#x420;&#x42b;" horiz-adv-x="530" 
d="M439 259v-259h-263v435h87v-92q1 -18 8.5 -33t19.5 -26.5t27.5 -18t33.5 -6.5h87zM352 226q-26 0 -49 10.5t-40 27.5v-231h89v193zM439 694v-347h-87v347h87zM263 518h-87q-18 0 -33.5 -6.5t-27.5 -18t-19.5 -26.5t-8.5 -33v-434h-87v694h263v-176zM176 661h-89v-148
q17 17 40 27.5t49 10.5v110z" />
    <glyph glyph-name="uni0420_uni0423" unicode="&#x420;&#x423;" horiz-adv-x="530" 
d="M439 694v-694h-263v171h87v-138h89v142q-1 18 -8.5 33t-19.5 26.5t-27.5 18t-33.5 6.5h-87v176h87v-143q26 0 49 -10.5t40 -27.5v440h87zM263 518h-87q-18 0 -33.5 -6.5t-27.5 -18t-19.5 -26.5t-8.5 -33v-434h-87v694h263v-176zM176 661h-89v-148q17 17 40 27.5t49 10.5
v110z" />
    <glyph glyph-name="uni0420_uni041D" unicode="&#x420;&#x41d;" horiz-adv-x="530" 
d="M439 694v-694h-87v226h-89v-226h-87v435h87v-176h89v435h87zM176 518q-18 0 -33.5 -6.5t-27.5 -18t-19.5 -26.5t-8.5 -33v-434h-87v694h263v-176h-87zM87 513q17 17 40 27.5t49 10.5v110h-89v-148z" />
    <glyph glyph-name="uni0420_uni0415_uni0427" unicode="&#x420;&#x415;&#x427;" horiz-adv-x="706" 
d="M615 694v-694h-87v434q-1 18 -8.5 33t-19.5 26.5t-27.5 18t-33.5 6.5h-87v176h87v-143q26 0 49 -10.5t40 -27.5v181h87zM176 518q-18 0 -33.5 -6.5t-27.5 -18t-19.5 -26.5t-8.5 -33v-434h-87v694h263v-176h-87zM87 513q17 17 40 27.5t49 10.5v110h-89v-148zM176 435h263
v-88h-87v55h-89v-55q0 -41 23.5 -64.5t65.5 -23.5v-34q-42 0 -65.5 -23.5t-23.5 -64.5v-104h89v138h87v-171h-263v137q0 42 25.5 67t59.5 38q-34 13 -59.5 38t-25.5 67v88z" />
    <glyph glyph-name="uni0420_uni0418_uni0422" unicode="&#x420;&#x418;&#x422;" horiz-adv-x="881" 
d="M352 435h87v-435h-87v264q-17 -17 -40 -27.5t-49 -10.5v-226h-87v435h87v-176q18 0 33.5 6.5t27.5 18t19.5 26.5t8.5 33v92zM790 694v-176h-87v143h-89v-661h-87v661h-88v-143h-87v176h438zM263 518h-87q-18 0 -33.5 -6.5t-27.5 -18t-19.5 -26.5t-8.5 -33v-434h-87v694
h263v-176zM176 661h-89v-148q17 17 40 27.5t49 10.5v110z" />
    <glyph glyph-name="uni0420_uni0423_uni0422" unicode="&#x420;&#x423;&#x422;" horiz-adv-x="881" 
d="M790 694v-176h-87v143h-89v-661h-87v661h-88v-143h-87v176h438zM352 435h87v-435h-263v171h87v-138h89v142q-1 18 -8.5 33t-19.5 26.5t-27.5 18t-33.5 6.5h-87v176h87v-143q26 0 49 -10.5t40 -27.5v181zM176 518q-18 0 -33.5 -6.5t-27.5 -18t-19.5 -26.5t-8.5 -33v-434
h-87v694h263v-176h-87zM87 513q17 17 40 27.5t49 10.5v110h-89v-148z" />
    <glyph glyph-name="uni0420_uni041E_uni0422" unicode="&#x420;&#x41e;&#x422;" horiz-adv-x="881" 
d="M176 435h263v-435h-263v435zM263 33h89v369h-89v-369zM790 694v-176h-87v143h-89v-661h-87v661h-88v-143h-87v176h438zM176 518q-18 0 -33.5 -6.5t-27.5 -18t-19.5 -26.5t-8.5 -33v-434h-87v694h263v-176h-87zM87 513q17 17 40 27.5t49 10.5v110h-89v-148z" />
    <glyph glyph-name="uni0418_uni0416" unicode="&#x418;&#x416;" horiz-adv-x="706" 
d="M481 518q-17 0 -29.5 -12t-12.5 -29t12.5 -29.5t29.5 -12.5h134v-435h-87v402h-47q-23 0 -42 13v-415h-87v415q-20 -13 -42 -13h-47v-55h-87v88h134q17 0 29.5 12.5t12.5 29.5t-12.5 29t-29.5 12h-134v176h87v-143h47q22 0 42 -13v156h87v-156q19 13 42 13h47v143h87
v-176h-134zM87 175q18 0 33.5 6.5t27.5 18t19.5 26.5t8.5 33h87v-259h-87v180q-17 -17 -40 -27.5t-49 -10.5v-142h-87v694h87v-519z" />
    <glyph glyph-name="uni0418_uni041D" unicode="&#x418;&#x41d;" horiz-adv-x="530" 
d="M439 694v-694h-87v138h-89v-138h-87v259h87v-88h89v523h87zM176 347v93q-17 -17 -40 -27.5t-49 -10.5v-402h-87v694h87v-259q18 0 33.5 6.5t27.5 18t19.5 26.5t8.5 33v175h87v-347h-87z" />
    <glyph glyph-name="uni0418_uni0422" unicode="&#x418;&#x422;" horiz-adv-x="705" 
d="M614 694v-176h-87v143h-89v-661h-87v661h-88v-143h-87v176h438zM176 435h87v-435h-87v264q-17 -17 -40 -27.5t-49 -10.5v-226h-87v694h87v-435q18 0 33.5 6.5t27.5 18t19.5 26.5t8.5 33v92z" />
    <glyph glyph-name="uni0418_uni042E" unicode="&#x418;&#x42e;" horiz-adv-x="706" 
d="M615 694v-694h-263v138h-89v-138h-87v259h87v-88h89v523h263zM528 661h-89v-628h89v628zM176 440q-17 -17 -40 -27.5t-49 -10.5v-402h-87v694h87v-259q18 0 33.5 6.5t27.5 18t19.5 26.5t8.5 33v175h87v-347h-87v93z" />
    <glyph glyph-name="uni0418_uni0422_uni0418" unicode="&#x418;&#x422;&#x418;" horiz-adv-x="881" 
d="M527 518v143h-89v-661h-87v661h-88v-143h-87v176h438v-176h-87zM176 435h87v-435h-87v264q-17 -17 -40 -27.5t-49 -10.5v-226h-87v694h87v-435q18 0 33.5 6.5t27.5 18t19.5 26.5t8.5 33v92zM790 694v-694h-87v264q-17 -17 -40 -27.5t-49 -10.5v-226h-87v435h87v-176
q18 0 33.5 6.5t27.5 18t19.5 26.5t8.5 33v351h87z" />
    <glyph glyph-name="uni0418_uni0422_uni042B" unicode="&#x418;&#x422;&#x42b;" horiz-adv-x="881" 
d="M176 435h87v-435h-87v264q-17 -17 -40 -27.5t-49 -10.5v-226h-87v694h87v-435q18 0 33.5 6.5t27.5 18t19.5 26.5t8.5 33v92zM790 259v-259h-263v435h87v-92q1 -18 8.5 -33t19.5 -26.5t27.5 -18t33.5 -6.5h87zM703 226q-26 0 -49 10.5t-40 27.5v-231h89v193zM790 694v-347
h-87v347h87zM527 661h-89v-661h-87v661h-88v-143h-87v176h438v-176h-87v143z" />
    <glyph glyph-name="uni0418_uni0422_uni041E_uni041A" unicode="&#x418;&#x422;&#x41e;&#x41a;" horiz-adv-x="1056" 
d="M527 259h263v-259h-263v259zM614 33h89v193h-89v-193zM832 518q-17 0 -29.5 -12t-12.5 -29t12.5 -29.5t29.5 -12.5h134v-435h-88v402h-46q-23 0 -42 13v-68h-87v347h87v-156q19 13 42 13h46v143h88v-176h-134zM527 661h-89v-661h-87v661h-88v-143h-87v176h438v-347h-87
v314zM176 435h87v-435h-87v264q-17 -17 -40 -27.5t-49 -10.5v-226h-87v694h87v-435q18 0 33.5 6.5t27.5 18t19.5 26.5t8.5 33v92z" />
    <glyph glyph-name="uni041A_uni0418" unicode="&#x41a;&#x418;" horiz-adv-x="530" 
d="M439 694v-694h-87v176q-17 -17 -40 -27.5t-49 -10.5v-138h-87v259h87v-88q18 0 33.5 6.5t27.5 18t19.5 26.5t8.5 33v439h87zM176 347v55h-47q-23 0 -42 13v-415h-87v694h87v-156q19 13 42 13h47v143h87v-176h-134q-17 0 -29.5 -12t-12.5 -29t12.5 -29.5t29.5 -12.5h134
v-88h-87z" />
    <glyph glyph-name="uni041A_uni041E_uni0422" unicode="&#x41a;&#x41e;&#x422;" horiz-adv-x="881" 
d="M176 347v55h-47q-23 0 -42 13v-415h-87v694h87v-156q19 13 42 13h47v143h87v-176h-134q-17 0 -29.5 -12t-12.5 -29t12.5 -29.5t29.5 -12.5h134v-88h-87zM790 694v-176h-87v143h-89v-661h-87v661h-88v-314h-87v347h438zM176 259h263v-259h-263v259zM263 33h89v193h-89
v-193z" />
    <glyph glyph-name="uni041A_uni0418_uni0422" unicode="&#x41a;&#x418;&#x422;" horiz-adv-x="881" 
d="M176 347v55h-47q-23 0 -42 13v-415h-87v694h87v-156q19 13 42 13h47v143h87v-176h-134q-17 0 -29.5 -12t-12.5 -29t12.5 -29.5t29.5 -12.5h134v-88h-87zM790 694v-176h-87v143h-89v-661h-87v661h-88v-143h-87v176h438zM352 435h87v-435h-87v176q-17 -17 -40 -27.5
t-49 -10.5v-138h-87v259h87v-88q18 0 33.5 6.5t27.5 18t19.5 26.5t8.5 33v180z" />
    <glyph glyph-name="uni041B_uni042E" unicode="&#x41b;&#x42e;" horiz-adv-x="706" 
d="M615 694v-694h-263v138h-89v-138h-87v259h87v-88h89v523h263zM528 661h-89v-628h89v628zM176 440q-17 -17 -40 -27.5t-49 -10.5v-402h-87v435h87q18 0 33.5 6.5t27.5 18t19.5 26.5t8.5 33v142h-89v-143h-87v176h263v-347h-87v93z" />
    <glyph glyph-name="uni041B_uni0418" unicode="&#x41b;&#x418;" horiz-adv-x="527" 
d="M439 694v-694h-87v176q-17 -17 -40 -27.5t-49 -10.5v-138h-87v259h87v-88q18 0 33.5 6.5t27.5 18t19.5 26.5t8.5 33v439h87zM176 347v93q-17 -17 -40 -27.5t-49 -10.5v-402h-87v435h87q18 0 33.5 6.5t27.5 18t19.5 26.5t8.5 33v142h-89v-143h-87v176h263v-347h-87z" />
    <glyph glyph-name="uni041C_uni0423" unicode="&#x41c;&#x423;" horiz-adv-x="705" 
d="M614 694v-694h-263v171h87v-138h89v142q-1 18 -8.5 33t-19.5 26.5t-27.5 18t-33.5 6.5h-87v176h87v-143q26 0 49 -10.5t40 -27.5v440h87zM351 573q-18 0 -33.5 -6.5t-27.5 -18t-19.5 -26.5t-8.5 -33v-489h-87v498q-5 32 -30 53.5t-58 21.5v-573h-87v694h87v-88
q30 0 66.5 -13t65.5 -36q28 23 65 36t67 13v88h87v-176h-87v55z" />
    <glyph glyph-name="uni041C_uni042B" unicode="&#x41c;&#x42b;" horiz-adv-x="705" 
d="M614 259v-259h-263v435h87v-92q1 -18 8.5 -33t19.5 -26.5t27.5 -18t33.5 -6.5h87zM527 226q-26 0 -49 10.5t-40 27.5v-231h89v193zM614 694v-347h-87v347h87zM351 518v55q-18 0 -33.5 -6.5t-27.5 -18t-19.5 -26.5t-8.5 -33v-489h-87v498q-5 32 -30 53.5t-58 21.5v-573
h-87v694h87v-88q30 0 66.5 -13t65.5 -36q28 23 65 36t67 13v88h87v-176h-87z" />
    <glyph glyph-name="uni041C_uni041D" unicode="&#x41c;&#x41d;" horiz-adv-x="705" 
d="M614 694v-694h-87v226h-89v-226h-87v435h87v-176h89v435h87zM351 518v55q-18 0 -33.5 -6.5t-27.5 -18t-19.5 -26.5t-8.5 -33v-489h-87v498q-5 32 -30 53.5t-58 21.5v-573h-87v694h87v-88q30 0 66.5 -13t65.5 -36q28 23 65 36t67 13v88h87v-176h-87z" />
    <glyph glyph-name="uni041C_uni0418" unicode="&#x41c;&#x418;" horiz-adv-x="705" 
d="M351 518v55q-18 0 -33.5 -6.5t-27.5 -18t-19.5 -26.5t-8.5 -33v-489h-87v498q-5 32 -30 53.5t-58 21.5v-573h-87v694h87v-88q30 0 66.5 -13t65.5 -36q28 23 65 36t67 13v88h87v-176h-87zM614 694v-694h-87v264q-17 -17 -40 -27.5t-49 -10.5v-226h-87v435h87v-176
q18 0 33.5 6.5t27.5 18t19.5 26.5t8.5 33v351h87z" />
    <glyph glyph-name="uni041C_uni041E_uni041B" unicode="&#x41c;&#x41e;&#x41b;" horiz-adv-x="881" 
d="M351 259h263v-259h-263v259zM438 33h89v193h-89v-193zM351 573q-18 0 -33.5 -6.5t-27.5 -18t-19.5 -26.5t-8.5 -33v-489h-87v498q-5 32 -30 53.5t-58 21.5v-573h-87v694h87v-88q30 0 66.5 -13t65.5 -36q28 23 65 36t67 13v88h87v-347h-87v226zM790 694v-694h-87v440
q-17 -17 -40 -27.5t-49 -10.5v-55h-87v88h87q18 0 33.5 6.5t27.5 18t19.5 26.5t8.5 33v142h-89v-143h-87v176h263z" />
    <glyph glyph-name="uni041C_uni0415_uni0422" unicode="&#x41c;&#x415;&#x422;" horiz-adv-x="1056" 
d="M351 573q-18 0 -33.5 -6.5t-27.5 -18t-19.5 -26.5t-8.5 -33v-489h-87v498q-5 32 -30 53.5t-58 21.5v-573h-87v694h87v-88q30 0 66.5 -13t65.5 -36q28 23 65 36t67 13v88h87v-176h-87v55zM965 694v-176h-88v143h-88v-661h-87v661h-88v-143h-87v176h438zM351 435h263v-88
h-87v55h-89v-55q0 -41 23.5 -64.5t65.5 -23.5v-34q-42 0 -65.5 -23.5t-23.5 -64.5v-104h89v138h87v-171h-263v137q0 42 25.5 67t59.5 38q-34 13 -59.5 38t-25.5 67v88z" />
    <glyph glyph-name="uni041D_uni0410" unicode="&#x41d;&#x410;" horiz-adv-x="530" 
d="M176 171h87v-171h-87v71h-89v-71h-87v694h87v-590h89v67zM439 694v-694h-87v350q-17 -17 -40 -27.5t-49 -10.5v-54h-87v177h87q18 0 33.5 6.5t27.5 18t19.5 26.5t8.5 33v142h-89v-143h-87v176h263zM352 440q-17 -17 -40 -27.5t-49 -10.5v-57q18 0 33.5 6.5t27.5 18
t19.5 26.5t8.5 33v11z" />
    <glyph glyph-name="uni041D_uni042E" unicode="&#x41d;&#x42e;" horiz-adv-x="706" 
d="M176 347v138h-89v-485h-87v694h87v-176h89v176h87v-347h-87zM352 694h263v-694h-263v138h-89v-138h-87v259h87v-88h89v523zM528 33v628h-89v-628h89z" />
    <glyph glyph-name="uni041D_uni0418" unicode="&#x41d;&#x418;" horiz-adv-x="530" 
d="M439 694v-694h-87v176q-17 -17 -40 -27.5t-49 -10.5v-138h-87v259h87v-88q18 0 33.5 6.5t27.5 18t19.5 26.5t8.5 33v439h87zM176 347v138h-89v-485h-87v694h87v-176h89v176h87v-347h-87z" />
    <glyph glyph-name="uni041D_uni041A_uni0418" unicode="&#x41d;&#x41a;&#x418;" horiz-adv-x="706" 
d="M615 694v-694h-87v176q-17 -17 -40 -27.5t-49 -10.5v-138h-87v259h87v-88q18 0 33.5 6.5t27.5 18t19.5 26.5t8.5 33v439h87zM352 347v55h-47q-23 0 -42 13v-68h-87v347h87v-156q19 13 42 13h47v143h87v-176h-134q-17 0 -29.5 -12t-12.5 -29t12.5 -29.5t29.5 -12.5h134
v-88h-87zM176 259h87v-259h-87v138h-89v-138h-87v694h87v-523h89v88z" />
    <glyph glyph-name="uni0421_uni041A" unicode="&#x421;&#x41a;" horiz-adv-x="530" 
d="M305 430q-17 0 -29.5 -12t-12.5 -29t12.5 -29.5t29.5 -12.5h134v-347h-87v314h-47q-23 0 -42 13v-68h-87v259h87v-68q17 13 42 13h47v231h87v-264h-134zM176 171h87v-171h-263v694h263v-88h-87v55h-89v-628h89v138z" />
    <glyph glyph-name="uni0421_uni041D" unicode="&#x421;&#x41d;" horiz-adv-x="530" 
d="M352 694h87v-694h-87v402h-89v-143h-87v259h87v-83h89v259zM176 33v138h87v-171h-263v694h263v-88h-87v55h-89v-628h89z" />
    <glyph glyph-name="uni0421_uni0427" unicode="&#x421;&#x427;" horiz-adv-x="530" 
d="M439 694v-694h-87v175q-1 18 -8.5 33t-19.5 26.5t-27.5 18t-33.5 6.5h-87v259h87v-226q26 0 49 -10.5t40 -27.5v440h87zM176 171h87v-171h-263v694h263v-88h-87v55h-89v-628h89v138z" />
    <glyph glyph-name="uni0421_uni0418" unicode="&#x421;&#x418;" horiz-adv-x="530" 
d="M439 694v-694h-87v440q-17 -17 -40 -27.5t-49 -10.5v-143h-87v259h87v-83q18 0 33.5 6.5t27.5 18t19.5 26.5t8.5 33v175h87zM176 171h87v-171h-263v694h263v-88h-87v55h-89v-628h89v138z" />
    <glyph glyph-name="uni0421_uni0425" unicode="&#x421;&#x425;" horiz-adv-x="530" 
d="M369 430q-17 0 -29.5 -12t-12.5 -29v-1q0 -17 12.5 -29t29.5 -12h70v-347h-87v316q-25 6 -42 26q-18 -22 -47 -27v-56h-87v88h76q17 0 29.5 12t12.5 29v1q0 17 -12.5 29t-29.5 12h-76v88h87v-56q29 -3 47 -27q8 10 18.5 17t23.5 9v233h87v-264h-70zM176 171h87v-171h-263
v694h263v-88h-87v55h-89v-628h89v138z" />
    <glyph glyph-name="uni0421_uni041D_uni0423" unicode="&#x421;&#x41d;&#x423;" horiz-adv-x="706" 
d="M352 171v176h-89v-88h-87v259h87v-138h89v55h87v-264h-87zM615 694v-694h-263v88h87v-55h89v401q-1 18 -8.5 33t-19.5 26.5t-27.5 18t-33.5 6.5h-87v176h87v-143q26 0 49 -10.5t40 -27.5v181h87zM176 171h87v-171h-263v694h263v-88h-87v55h-89v-628h89v138z" />
    <glyph glyph-name="uni0423_uni0422_uni041A" unicode="&#x423;&#x422;&#x41a;" horiz-adv-x="881" 
d="M176 435h87v-435h-263v171h87v-138h89v142q-1 18 -8.5 33t-19.5 26.5t-27.5 18t-33.5 6.5h-87v435h87v-402q26 0 49 -10.5t40 -27.5v181zM527 518v143h-89v-661h-87v661h-88v-143h-87v176h438v-176h-87zM656 259q-17 0 -29.5 -12.5t-12.5 -29.5t12.5 -29t29.5 -12h134
v-176h-87v143h-47q-25 0 -42 13v-156h-87v435h87v-156q19 13 42 13h47v402h87v-435h-134z" />
    <glyph glyph-name="uni0425_uni0418" unicode="&#x425;&#x418;" horiz-adv-x="530" 
d="M439 694v-694h-87v176q-17 -17 -40 -27.5t-49 -10.5v-138h-87v259h87v-88q18 0 33.5 6.5t27.5 18t19.5 26.5t8.5 33v439h87zM176 404q-25 6 -42 26q-18 -22 -47 -27v-403h-87v435h76q17 0 29.5 12t12.5 29v1q0 17 -12.5 29t-29.5 12h-76v176h87v-144q29 -5 47 -27
q17 20 42 26v145h87v-176h-70q-17 0 -29.5 -12t-12.5 -29v-1q0 -17 12.5 -29t29.5 -12h70v-88h-87v57z" />
    <glyph glyph-name="uni0425_uni041D" unicode="&#x425;&#x41d;" horiz-adv-x="530" 
d="M176 404q-25 6 -42 26q-18 -22 -47 -27v-403h-87v435h76q17 0 29.5 12t12.5 29v1q0 17 -12.5 29t-29.5 12h-76v176h87v-144q29 -5 47 -27q17 20 42 26v145h87v-176h-70q-17 0 -29.5 -12t-12.5 -29v-1q0 -17 12.5 -29t29.5 -12h70v-88h-87v57zM439 694v-694h-87v138h-89
v-138h-87v259h87v-88h89v523h87z" />
    <glyph glyph-name="uni0427_uni0422" unicode="&#x427;&#x422;" horiz-adv-x="705" 
d="M176 435h87v-435h-87v142q-1 18 -8.5 33t-19.5 26.5t-27.5 18t-33.5 6.5h-87v468h87v-435q26 0 49 -10.5t40 -27.5v214zM614 694v-176h-87v143h-89v-661h-87v661h-88v-143h-87v176h438z" />
    <glyph glyph-name="uni042C_uni0418" unicode="&#x42c;&#x418;" horiz-adv-x="530" 
d="M439 694v-694h-87v402h-89v-55h-87v347h87v-259h89v259h87zM263 259v-259h-263v694h87v-351q1 -18 8.5 -33t19.5 -26.5t27.5 -18t33.5 -6.5h87zM176 226q-26 0 -49 10.5t-40 27.5v-231h89v193z" />
    <glyph glyph-name="uni042C_uni041D" unicode="&#x42c;&#x41d;" horiz-adv-x="530" 
d="M439 694v-694h-87v440q-17 -17 -40 -27.5t-49 -10.5v-55h-87v347h87v-259q18 0 33.5 6.5t27.5 18t19.5 26.5t8.5 33v175h87zM87 343q1 -18 8.5 -33t19.5 -26.5t27.5 -18t33.5 -6.5h87v-259h-263v694h87v-351zM176 226q-26 0 -49 10.5t-40 27.5v-231h89v193z" />
    <glyph glyph-name="uni042F_uni041D" unicode="&#x42f;&#x41d;" horiz-adv-x="530" 
d="M176 347v68q-20 -13 -42 -13h-47v-402h-87v435h134q17 0 29.5 12.5t12.5 29.5t-12.5 29t-29.5 12h-134v176h263v-347h-87zM134 551q22 0 42 -13v123h-89v-110h47zM439 694v-694h-87v138h-89v-138h-87v259h87v-88h89v523h87z" />
    <glyph glyph-name="uni042F_uni041D_uni0418" unicode="&#x42f;&#x41d;&#x418;" horiz-adv-x="706" 
d="M176 347v68q-20 -13 -42 -13h-47v-402h-87v435h134q17 0 29.5 12.5t12.5 29.5t-12.5 29t-29.5 12h-134v176h263v-347h-87zM134 551q22 0 42 -13v123h-89v-110h47zM352 347h87v-347h-87v138h-89v-138h-87v259h87v-88h89v176zM615 694v-694h-87v556q-17 -17 -40 -27.5
t-49 -10.5v-83h-87v259h87v-143q18 0 33.5 6.5t27.5 18t19.5 26.5t8.5 33v59h87z" />
    <glyph glyph-name="uni0410_uni0415_uni0422_uni0421_uni042F" unicode="&#x410;&#x415;&#x422;&#x421;&#x42f;" horiz-adv-x="1233" 
d="M176 259h263v-88h-87v55h-89q0 -41 23.5 -59t65.5 -18v-34q-40 0 -63.5 -22t-25.5 -60h89v55h87v-88h-263v27q0 42 25.5 67t59.5 38q-17 6 -32.5 14t-27 19t-18.5 25.5t-7 35.5v33zM1142 694v-694h-88v415q-20 -13 -42 -13h-46v-55h-88v88h134q17 0 29.5 12.5t12.5 29.5
t-12.5 29t-29.5 12h-134v176h264zM1054 661h-88v-110h46q22 0 42 -13v123zM703 259h263v-88h-88v55h-88v-193h88v55h88v-88h-264zM703 661h-89v-661h-87v661h-88v-314h-87v347h438v-347h-87v314zM176 440q-17 -18 -40 -28.5t-49 -10.5v-401h-87v518h87q18 0 33.5 6.5
t27.5 18t19.5 26.5t8.5 33v59h-89v-55h-87v88h263v-347h-87v93zM87 434q36 0 61.5 24.5t27.5 59.5v5q-17 -17 -40 -27.5t-49 -10.5v-51z" />
    <glyph glyph-name="uni041A_uni0422" unicode="&#x41a;&#x422;" horiz-adv-x="705" 
d="M176 435h87v-176h-134q-17 0 -29.5 -12.5t-12.5 -29.5t12.5 -29t29.5 -12h134v-176h-87v143h-47q-25 0 -42 13v-156h-87v694h87v-415q19 13 42 13h47v143zM614 693v-176h-87v143h-89v-661h-87v661h-88v-143h-87v176h438z" />
    <glyph glyph-name="uni041D_uni0422_uni0418" unicode="&#x41d;&#x422;&#x418;" horiz-adv-x="881" 
d="M790 694v-694h-87v264q-17 -17 -40 -27.5t-49 -10.5v-226h-87v435h87v-176q18 0 33.5 6.5t27.5 18t19.5 26.5t8.5 33v351h87zM527 517v143h-89v-661h-87v661h-88v-143h-87v176h438v-176h-87zM176 434h87v-435h-87v226h-89v-226h-87v694h87v-435h89v176z" />
    <glyph glyph-name="uni0420_uni042F_uni0422" unicode="&#x420;&#x42f;&#x422;" horiz-adv-x="881" 
d="M176 435h263v-435h-87v156q-17 -13 -42 -13h-47v-143h-87v176h134q17 0 29.5 12t12.5 29t-12.5 29.5t-29.5 12.5h-134v176zM263 292h47q22 0 42 -13v123h-89v-110zM790 694v-176h-87v143h-89v-661h-87v661h-88v-143h-87v176h438zM176 518q-18 0 -33.5 -6.5t-27.5 -18
t-19.5 -26.5t-8.5 -33v-434h-87v694h263v-176h-87zM87 513q17 17 40 27.5t49 10.5v110h-89v-148z" />
    <glyph glyph-name="TT" unicode="TT" horiz-adv-x="880" 
d="M0 694h789v-176h-87v143h-89v-661h-87v661h-88v-143h-87v143h-89v-661h-87v661h-88v-143h-87v176v0z" />
    <glyph glyph-name="TI" unicode="TI" horiz-adv-x="529" 
d="M0 694h438v-176h-87v143h-89v-661h-87v661h-88v-143h-87v176zM351 0v435h87v-435h-87z" />
    <glyph glyph-name="TU" unicode="TU" horiz-adv-x="705" 
d="M351 518v143h-89v-661h-87v661h-88v-143h-87v176h438v-176h-87zM527 694h87v-694h-263v435h87v-402h89v661z" />
    <glyph glyph-name="TH" unicode="TH" horiz-adv-x="705" 
d="M351 518v143h-89v-661h-87v661h-88v-143h-87v176h438v-176h-87zM527 694h87v-694h-87v226h-89v-226h-87v435h87v-176h89v435z" />
    <glyph glyph-name="TAT" unicode="TAT" horiz-adv-x="1056" 
d="M351 661h-89v-661h-87v661h-88v-143h-87v176h438v-176h-87v143zM965 694v-176h-88v143h-88v-661h-87v661h-88v-143h-87v176h438zM351 435h263v-435h-87v126q-17 -17 -40 -27.5t-49 -10.5v-88h-87v259h87q18 0 33.5 6.5t27.5 18t19.5 26.5t8.5 33v59h-89v-55h-87v88z
M527 264q-17 -17 -40 -27.5t-49 -10.5v-105q18 0 33.5 6.5t27.5 18t19.5 26.5t8.5 33v59z" />
    <glyph glyph-name="CK" unicode="CK" horiz-adv-x="530" 
d="M305 430q-17 0 -29.5 -12t-12.5 -29t12.5 -29.5t29.5 -12.5h134v-347h-87v314h-47q-23 0 -42 13v-68h-87v259h87v-68q17 13 42 13h47v231h87v-264h-134zM176 171h87v-171h-263v694h263v-88h-87v55h-89v-628h89v138z" />
    <glyph glyph-name="CH" unicode="CH" horiz-adv-x="530" 
d="M352 694h87v-694h-87v402h-89v-143h-87v259h87v-83h89v259zM176 33v138h87v-171h-263v694h263v-88h-87v55h-89v-628h89z" />
    <glyph glyph-name="HT" unicode="HT" horiz-adv-x="705" 
d="M176 694h438v-176h-87v143h-89v-661h-87v661h-88v-143h-87v176zM176 259v176h87v-435h-87v226h-89v-226h-87v694h87v-435h89z" />
    <glyph glyph-name="FU" unicode="FU" horiz-adv-x="530" 
d="M352 694h87v-694h-263v435h87v-402h89v661zM87 661v-226h45v-33h-45v-402h-87v694h263v-176h-87v143h-89z" />
    <glyph glyph-name="FLI" unicode="FLI" horiz-adv-x="530" 
d="M352 694h87v-435h-87v435zM352 33v138h87v-171h-263v435h87v-402h89zM87 661v-226h45v-33h-45v-402h-87v694h263v-176h-87v143h-89z" />
    <glyph glyph-name="FI" unicode="FI" 
d="M176 0v435h87v-435h-87zM263 518h-87v143h-89v-226h45v-33h-45v-402h-87v694h263v-176z" />
    <glyph glyph-name="LI" unicode="LI" 
d="M176 33v138h87v-171h-263v694h87v-661h89zM176 694h87v-435h-87v435z" />
    <glyph glyph-name="LA" unicode="LA" horiz-adv-x="530" 
d="M439 694v-694h-87v352q-17 -18 -40 -28t-49 -10v-55h-87v176h87q18 0 33.5 6.5t27.5 18t19.5 26.5t8.5 33v142h-89v-143h-87v176h263zM352 440q-17 -17 -40 -27.5t-49 -10.5v-55q18 0 33.5 6.5t27.5 18t19.5 26.5t8.5 33v9zM176 171h87v-171h-263v694h87v-661h89v138z
" />
    <glyph glyph-name="LK" unicode="LK" horiz-adv-x="530" 
d="M305 518q-17 0 -29.5 -12t-12.5 -29t12.5 -29.5t29.5 -12.5h134v-435h-87v402h-47q-23 0 -42 13v-156h-87v435h87v-156q19 13 42 13h47v143h87v-176h-134zM176 171h87v-171h-263v694h87v-661h89v138z" />
    <glyph glyph-name="IT" unicode="IT" horiz-adv-x="529" 
d="M0 694h438v-176h-87v143h-89v-661h-87v661h-88v-143h-87v176zM0 0v435h87v-435h-87z" />
    <glyph glyph-name="ITI" unicode="ITI" horiz-adv-x="529" 
d="M0 694h438v-176h-87v143h-89v-661h-87v661h-88v-143h-87v176zM0 0v435h87v-435h-87zM351 0v435h87v-435h-87z" />
    <glyph glyph-name="ITH" unicode="ITH" horiz-adv-x="705" 
d="M527 694h87v-694h-87v226h-89v-226h-87v435h87v-176h89v435zM351 518v143h-89v-661h-87v661h-88v-143h-87v176h438v-176h-87zM0 0v435h87v-435h-87z" />
    <glyph glyph-name="ITATI" unicode="ITATI" horiz-adv-x="1056" 
d="M351 661h-89v-661h-87v661h-88v-143h-87v176h438v-176h-87v143zM965 694v-176h-88v143h-88v-661h-87v661h-88v-143h-87v176h438zM351 435h263v-435h-87v126q-17 -17 -40 -27.5t-49 -10.5v-88h-87v259h87q18 0 33.5 6.5t27.5 18t19.5 26.5t8.5 33v59h-89v-55h-87v88z
M527 264q-17 -17 -40 -27.5t-49 -10.5v-105q18 0 33.5 6.5t27.5 18t19.5 26.5t8.5 33v59zM0 435h87v-435h-87v435zM877 435h88v-435h-88v435z" />
    <glyph glyph-name="MON" unicode="MON" horiz-adv-x="881" 
d="M351 259h263v-259h-263v259zM438 33h89v193h-89v-193zM351 573q-18 0 -33.5 -6.5t-27.5 -18t-19.5 -26.5t-8.5 -33v-489h-87v489q0 18 -8 33.5t-20 27t-28 17.5t-32 6v-573h-87v694h87v-88q30 0 66.5 -13t65.5 -36q28 23 65 36t67 13v88h87v-347h-87v226zM790 694v-694
h-88v402q-26 0 -48.5 10.5t-39.5 27.5v-93h-88v347h88v-175q1 -18 8 -33t19 -26.5t27.5 -18t33.5 -6.5v259h88z" />
    <glyph glyph-name="NT" unicode="nt" horiz-adv-x="705" 
d="M614 694v-176h-87v143h-89v-661h-87v661h-88v-143h-87v176h438zM176 435h87v-435h-87v226q-26 0 -49 10.5t-40 27.5v-264h-87v694h87v-351q1 -18 8.5 -33t19.5 -26.5t27.5 -18t33.5 -6.5v176z" />
    <glyph glyph-name="NK" unicode="nk" horiz-adv-x="530" 
d="M305 520q-17 0 -29.5 -12.5t-12.5 -29.5t12.5 -29.5t29.5 -12.5h134v-436h-87v403h-47q-23 0 -42 13v-68h-87v346h87v-154q19 13 42 13h47v141h87v-174h-134zM176 259h87v-258h-87v137q-26 0 -49 10.5t-40 27.5v-174h-87v692h87v-439q1 -18 8.5 -33t19.5 -26.5t27.5 -18
t33.5 -6.5v88z" />
    <glyph glyph-name="NOT" unicode="not" horiz-adv-x="881" 
d="M176 259h263v-259h-263v259zM263 33h89v193h-89v-193zM790 694v-176h-87v143h-89v-661h-87v661h-88v-314h-87v347h438zM176 485q-26 0 -49 10.5t-40 27.5v-523h-87v694h87v-92q1 -18 8.5 -33t19.5 -26.5t27.5 -18t33.5 -6.5v176h87v-347h-87v138z" />
    <glyph glyph-name="NOTH" unicode="noth" horiz-adv-x="1057" 
d="M966 694v-694h-88v226h-88v-226h-88v435h88v-176h88v435h88zM176 259h263v-259h-263v259zM263 33h89v193h-89v-193zM703 661h-89v-661h-87v661h-88v-314h-87v347h438v-176h-87v143zM176 485q-26 0 -49 10.5t-40 27.5v-523h-87v694h87v-92q1 -18 8.5 -33t19.5 -26.5
t27.5 -18t33.5 -6.5v176h87v-347h-87v138z" />
    <glyph glyph-name="PI" unicode="pi" 
d="M263 694v-176h-87q-18 0 -33.5 -6.5t-27.5 -18t-19.5 -26.5t-8.5 -33v-434h-87v694h263zM176 661h-89v-148q17 17 40 27.5t49 10.5v110zM176 435h87v-435h-87v435z" />
    <glyph glyph-name="PH" unicode="ph" horiz-adv-x="530" 
d="M439 694v-694h-87v226h-89v-226h-87v435h87v-176h89v435h87zM176 518q-18 0 -33.5 -6.5t-27.5 -18t-19.5 -26.5t-8.5 -33v-434h-87v694h263v-176h-87zM87 513q17 17 40 27.5t49 10.5v110h-89v-148z" />
    <glyph glyph-name="PU" unicode="pu" horiz-adv-x="530" 
d="M263 694v-176h-87q-18 0 -33.5 -6.5t-27.5 -18t-19.5 -26.5t-8.5 -33v-434h-87v694h263zM176 661h-89v-148q17 17 40 27.5t49 10.5v110zM352 694h87v-694h-263v435h87v-402h89v661z" />
    <glyph glyph-name="UT" unicode="UT" horiz-adv-x="705" 
d="M176 694h438v-176h-87v143h-89v-661h-87v661h-88v-143h-87v176zM176 33v402h87v-435h-263v694h87v-661h89z" />
    <glyph glyph-name="UTI" unicode="UTI" horiz-adv-x="705" 
d="M527 0v435h87v-435h-87zM176 694h438v-176h-87v143h-89v-661h-87v661h-88v-143h-87v176zM176 33v402h87v-435h-263v694h87v-661h89z" />
    <glyph glyph-name="YT" unicode="YT" horiz-adv-x="705" 
d="M614 694v-176h-87v143h-89v-661h-87v661h-88v-143h-87v176h438zM176 435h87v-88q0 -35 -26.5 -55.5t-61.5 -30.5v-261h-87v261q-35 10 -61.5 30.5t-26.5 55.5v347h87v-347q0 -27 12.5 -47t32.5 -31q20 11 32 31t12 47v88z" />
    <glyph glyph-name="ITTI" unicode="ITTI" horiz-adv-x="880" 
d="M0 0v435h87v-435h-87zM0 694h789v-176h-87v143h-89v-661h-87v661h-88v-143h-87v143h-89v-661h-87v661h-88v-143h-87v176zM702 0v435h87v-435h-87z" />
    <glyph glyph-name="RN" unicode="RN" horiz-adv-x="530" 
d="M176 402h-47q-23 0 -42 13v-415h-87v694h263v-176h-134q-17 0 -29.5 -12t-12.5 -29t12.5 -29.5t29.5 -12.5h134v-88h-87v55zM87 538q19 13 42 13h47v110h-89v-123zM439 694v-694h-87v88q-26 0 -49 10.5t-40 27.5v-126h-87v259h87v-54q1 -18 8.5 -33t19.5 -26.5t27.5 -18
t33.5 -6.5v573h87z" />
    <glyph glyph-name="YTH" unicode="YTH" horiz-adv-x="881" 
d="M790 694v-694h-87v226h-89v-226h-87v435h87v-176h89v435h87zM527 661h-89v-661h-87v661h-88v-143h-87v176h438v-176h-87v143zM176 435h87v-88q0 -35 -26.5 -55.5t-61.5 -30.5v-261h-87v261q-35 10 -61.5 30.5t-26.5 55.5v347h87v-347q0 -27 12.5 -47t32.5 -31
q20 11 32 31t12 47v88z" />
    <glyph glyph-name="PLA" unicode="pla" horiz-adv-x="706" 
d="M352 171h87v-171h-263v435h87v-402h89v138zM176 518q-18 0 -33.5 -6.5t-27.5 -18t-19.5 -26.5t-8.5 -33v-434h-87v694h263v-176h-87zM87 513q17 17 40 27.5t49 10.5v110h-89v-148zM615 694v-694h-87v385q-17 -17 -40 -27.5t-49 -10.5v-88h-87v259h87q18 0 33.5 6.5
t27.5 18t19.5 26.5t8.5 33v59h-89v-55h-87v88h263zM528 523q-17 -17 -40 -27.5t-49 -10.5v-105q18 0 33.5 6.5t27.5 18t19.5 26.5t8.5 33v59z" />
    <glyph glyph-name="MU" unicode="MU" horiz-adv-x="705" 
d="M351 573q-18 0 -33.5 -6.5t-27.5 -18t-19.5 -26.5t-8.5 -33v-489h-87v489q0 18 -8 33.5t-20 27t-28 17.5t-32 6v-573h-87v694h87v-88q30 0 66.5 -13t65.5 -36q28 23 65 36t67 13v88h87v-176h-87v55zM614 694v-694h-263v435h87v-402h89v661h87z" />
    <glyph glyph-name="RH" unicode="RH" horiz-adv-x="530" 
d="M439 694v-694h-87v138h-89v-138h-87v259h87v-88h89v523h87zM176 402h-47q-23 0 -42 13v-415h-87v694h263v-176h-134q-17 0 -29.5 -12t-12.5 -29t12.5 -29.5t29.5 -12.5h134v-88h-87v55zM87 538q19 13 42 13h47v110h-89v-123z" />
    <glyph glyph-name="RU" unicode="RU" horiz-adv-x="530" 
d="M439 694v-694h-263v259h87v-226h89v661h87zM176 402h-47q-23 0 -42 13v-415h-87v694h263v-176h-134q-17 0 -29.5 -12t-12.5 -29t12.5 -29.5t29.5 -12.5h134v-88h-87v55zM87 538q19 13 42 13h47v110h-89v-123z" />
    <glyph glyph-name="RUN" unicode="RUN" horiz-adv-x="706" 
d="M615 694v-694h-87v402q-26 0 -49 10.5t-40 27.5v-93h-87v347h87v-175q1 -18 8.5 -33t19.5 -26.5t27.5 -18t33.5 -6.5v259h87zM352 259h87v-259h-263v259h88v-226h88v226zM176 402h-47q-22 0 -41 13v-415h-88v694h264v-176h-135q-17 0 -29 -12t-12 -29t12 -29.5t29 -12.5
h135v-88h-88v55zM88 538q19 13 41 13h47v110h-88v-123z" />
    <glyph glyph-name="NN" unicode="nn" horiz-adv-x="530" 
d="M176 435v50q-26 0 -49 10.5t-40 27.5v-523h-87v692h87v-90q1 -18 8.5 -33t19.5 -26.5t27.5 -18t33.5 -6.5v176h87v-259h-87zM439 694v-694h-87v138q-26 0 -48.5 10.5t-39.5 27.5v-176h-88v347h88v-92q1 -18 8 -33t19 -26.5t27.5 -18t33.5 -6.5v523h87z" />
    <glyph glyph-name="GH" unicode="GH" horiz-adv-x="530" 
d="M352 694h87v-694h-87v402h-89v-143h-87v259h87v-83h89v259zM132 138v33h131v-171h-263v694h263v-88h-87v55h-89v-628h89v105h-44z" />
    <glyph glyph-name="GHT" unicode="GHT" horiz-adv-x="881" 
d="M352 694h438v-176h-87v143h-89v-661h-87v661h-88v-143h-87v176zM352 347v88h87v-435h-87v314h-89v-55h-87v259h87v-171h89zM132 138v33h131v-171h-263v694h263v-88h-87v55h-89v-628h89v105h-44z" />
    <glyph glyph-name="HOU" unicode="HOU" horiz-adv-x="706" 
d="M439 694v-259h-263v259h263zM352 468v193h-89v-193h89zM176 259v88h87v-347h-87v226h-89v-226h-87v694h87v-435h89zM528 694h87v-694h-263v347h87v-314h89v661z" />
    <glyph glyph-name="TON" unicode="TON" horiz-adv-x="881" 
d="M351 259h263v-259h-263v259zM438 33h89v193h-89v-193zM790 694v-694h-88v402q-26 0 -48.5 10.5t-39.5 27.5v-93h-88v347h88v-175q1 -18 8 -33t19 -26.5t27.5 -18t33.5 -6.5v259h88zM351 661h-89v-661h-87v661h-88v-143h-87v176h438v-347h-87v314z" />
    <glyph glyph-name="ROTH" unicode="ROTH" horiz-adv-x="1057" 
d="M966 694v-694h-88v226h-88v-226h-88v435h88v-176h88v435h88zM176 259h263v-259h-263v259zM263 33h89v193h-89v-193zM703 661h-89v-661h-87v661h-88v-314h-87v347h438v-176h-87v143zM176 402h-47q-23 0 -42 13v-415h-87v694h263v-176h-134q-17 0 -29.5 -12t-12.5 -29
t12.5 -29.5t29.5 -12.5h134v-88h-87v55zM87 538q19 13 42 13h47v110h-89v-123z" />
    <glyph glyph-name="FOR" unicode="FOR" horiz-adv-x="706" 
d="M263 402h-176v-402h-87v694h263v-176h-87v143h-89v-226h176v-33zM176 259h263v-259h-263v259zM263 33h89v193h-89v-193zM481 518q-17 0 -29.5 -12t-12.5 -29t12.5 -29.5t29.5 -12.5h134v-435h-87v402h-47q-23 0 -42 13v-68h-87v347h263v-176h-134zM439 538q19 13 42 13
h47v110h-89v-123z" />
    <glyph glyph-name="uni041D_uni041D" unicode="&#x41d;&#x41d;" horiz-adv-x="0" 
d="M176 347v138h-89v-485h-87v694h87v-176h89v176h87v-347h-87zM352 694h87v-694h-87v138h-89v-138h-87v259h87v-88h89v523z" />
    <glyph glyph-name="uni0428_uni0418" unicode="&#x428;&#x418;" horiz-adv-x="705" 
d="M614 694v-694h-87v440q-17 -17 -40 -27.5t-49 -10.5v-55h-87v347h87v-259q18 0 33.5 6.5t27.5 18t19.5 26.5t8.5 33v175h87zM351 259h87v-259h-438v694h87v-661h88v661h87v-661h89v226z" />
    <glyph glyph-name="uni0428_uni041A" unicode="&#x428;&#x41a;" horiz-adv-x="705" 
d="M351 259h87v-259h-438v694h87v-661h88v661h87v-661h89v226zM480 518q-17 0 -29.5 -12t-12.5 -29t12.5 -29.5t29.5 -12.5h134v-435h-87v402h-47q-23 0 -42 13v-68h-87v347h87v-156q19 13 42 13h47v143h87v-176h-134z" />
    <glyph glyph-name="uni041A_uni041E_uni041B" unicode="&#x41a;&#x41e;&#x41b;" horiz-adv-x="706" 
d="M176 347v55h-47q-23 0 -42 13v-415h-87v694h87v-156q19 13 42 13h47v143h87v-176h-134q-17 0 -29.5 -12t-12.5 -29t12.5 -29.5t29.5 -12.5h134v-88h-87zM176 259h263v-259h-263v259zM263 33h89v193h-89v-193zM615 694v-694h-87v440q-17 -17 -40 -27.5t-49 -10.5v-55h-87
v88h87q18 0 33.5 6.5t27.5 18t19.5 26.5t8.5 33v142h-89v-143h-87v176h263z" />
    <glyph glyph-name="uni0413_uni0410_uni0422" unicode="&#x413;&#x410;&#x422;" horiz-adv-x="881" 
d="M790 694v-176h-87v143h-89v-661h-87v661h-88v-143h-87v176h438zM176 518v143h-89v-661h-87v694h263v-176h-87zM176 435h263v-435h-87v126q-17 -17 -40 -27.5t-49 -10.5v-88h-87v259h87q18 0 33.5 6.5t27.5 18t19.5 26.5t8.5 33v59h-89v-55h-87v88zM352 264
q-17 -17 -40 -27.5t-49 -10.5v-105q18 0 33.5 6.5t27.5 18t19.5 26.5t8.5 33v59z" />
    <glyph glyph-name="uni0413_uni0410_uni0422_uni0423" unicode="&#x413;&#x410;&#x422;&#x423;" horiz-adv-x="1054" 
d="M703 518v143h-89v-661h-87v661h-88v-143h-87v176h438v-176h-87zM176 518v143h-89v-661h-87v694h263v-176h-87zM176 435h263v-435h-87v126q-17 -17 -40 -27.5t-49 -10.5v-88h-87v259h87q18 0 33.5 6.5t27.5 18t19.5 26.5t8.5 33v59h-89v-55h-87v88zM352 264
q-17 -17 -40 -27.5t-49 -10.5v-105q18 0 33.5 6.5t27.5 18t19.5 26.5t8.5 33v59zM966 694v-694h-263v171h87v-138h89v142q-1 18 -8.5 33t-19.5 26.5t-27.5 18t-33.5 6.5h-87v176h87v-143q26 0 49 -10.5t40 -27.5v440h87z" />
    <glyph glyph-name="uni0422_uni0410_uni041D_uni0418" unicode="&#x422;&#x410;&#x41d;&#x418;" horiz-adv-x="1057" 
d="M966 694v-694h-87v176q-17 -17 -40 -27.5t-49 -10.5v-138h-87v259h87v-88q18 0 33.5 6.5t27.5 18t19.5 26.5t8.5 33v439h87zM703 347v226h-89v-55h-87v176h87v-88h89v88h87v-347h-87zM351 518v143h-89v-661h-87v661h-88v-143h-87v176h438v-176h-87zM351 435h263v-435h-87
v126q-17 -17 -40 -27.5t-49 -10.5v-88h-87v259h87q18 0 33.5 6.5t27.5 18t19.5 26.5t8.5 33v59h-89v-55h-87v88zM527 264q-17 -17 -40 -27.5t-49 -10.5v-105q18 0 33.5 6.5t27.5 18t19.5 26.5t8.5 33v59z" />
    <glyph glyph-name=".notdef" horiz-adv-x="198" 
 />
    <glyph glyph-name="NULL" horiz-adv-x="0" 
 />
    <glyph glyph-name="NULL" horiz-adv-x="0" 
 />
    <glyph glyph-name="nonmarkingreturn" unicode="&#xd;" horiz-adv-x="500" 
 />
    <glyph glyph-name="space" unicode=" " horiz-adv-x="198" 
 />
    <glyph glyph-name="uni0418" unicode="&#x418;" 
d="M176 694h87v-694h-87v440q-17 -17 -40 -27.5t-49 -10.5v-402h-87v694h87v-259q18 0 33.5 6.5t27.5 18t19.5 26.5t8.5 33v175z" />
    <glyph glyph-name="uni0413" unicode="&#x413;" 
d="M0 694h263v-176h-87v143h-89v-661h-87v694v0v0z" />
    <glyph glyph-name="uni041F" unicode="&#x41f;" 
d="M0 694h263v-694h-87v661h-89v-661h-87v694v0z" />
    <glyph glyph-name="uni0422" unicode="&#x422;" horiz-adv-x="529" 
d="M0 694h438v-176h-87v143h-89v-661h-87v661h-88v-143h-87v176v0z" />
    <glyph glyph-name="uni0428" unicode="&#x428;" horiz-adv-x="529" 
d="M351 33v661h87v-694h-438v694h87v-661h88v661h87v-661h89v0z" />
    <glyph glyph-name="uni0420" unicode="&#x420;" 
d="M263 694v-292h-87q-18 0 -33.5 -6.5t-27.5 -18t-19.5 -26.5t-8.5 -33v-318h-87v694h263zM176 661h-89v-264q17 17 40 27.5t49 10.5v226z" />
    <glyph glyph-name="uni041C" unicode="&#x41c;" horiz-adv-x="529" 
d="M351 694h87v-694h-87v573q-18 0 -33.5 -6.5t-27.5 -18t-19.5 -26.5t-8.5 -33v-489h-87v489q0 18 -8 33.5t-20 27t-28 17.5t-32 6v-573h-87v694h87v-88q30 0 66.5 -13t65.5 -36q28 23 65 36t67 13v88z" />
    <glyph glyph-name="uni041E" unicode="&#x41e;" 
d="M0 694h263v-694h-263v694zM176 33v628h-89v-628h89z" />
    <glyph glyph-name="uni0429" unicode="&#x429;" horiz-adv-x="525" 
d="M438 33h44v-33q0 -24 -16 -40.5t-45 -16.5h-70v11q44 0 44 46h-395v694h87v-661h88v661h87v-661h89v661h87v-661z" />
    <glyph glyph-name="uni0427" unicode="&#x427;" 
d="M176 694h87v-694h-87v318q-1 18 -8.5 33t-19.5 26.5t-27.5 18t-33.5 6.5h-87v292h87v-259q26 0 49 -10.5t40 -27.5v297z" />
    <glyph glyph-name="uni0426" unicode="&#x426;" horiz-adv-x="350" 
d="M263 33h44v-33q0 -24 -16 -40.5t-45 -16.5h-70v11q44 0 44 46h-220v694h87v-661h89v661h87v-661z" />
    <glyph glyph-name="uni042C" unicode="&#x42c;" 
d="M263 435v-435h-263v694h87v-175q1 -18 8.5 -33t19.5 -26.5t27.5 -18t33.5 -6.5h87zM176 33v369q-26 0 -49 10.5t-40 27.5v-407h89z" />
    <glyph glyph-name="uni042A" unicode="&#x42a;" 
d="M263 435v-435h-263v661h-44v33h132v-175q1 -18 8 -33t19 -26.5t27.5 -18t33.5 -6.5h87zM176 33v369q-26 0 -48.5 10.5t-39.5 27.5v-407h88z" />
    <glyph glyph-name="uni042B" unicode="&#x42b;" 
d="M263 435v-435h-263v694h87v-175q1 -18 8.5 -33t19.5 -26.5t27.5 -18t33.5 -6.5h87zM176 402q-26 0 -49 10.5t-40 27.5v-407h89v369zM263 694v-176h-87v176h87z" />
    <glyph glyph-name="uni0411" unicode="&#x411;" 
d="M263 694v-176h-87v143h-89v-142q1 -18 8.5 -33t19.5 -26.5t27.5 -18t33.5 -6.5h87v-435v-1h-263v1v694h263zM176 402q-26 0 -49 10.5t-40 27.5v-408h89v370z" />
    <glyph glyph-name="uni041A" unicode="&#x41a;" 
d="M176 694h87v-176h-134q-17 0 -29.5 -12t-12.5 -29t12.5 -29.5t29.5 -12.5h134v-435h-87v402h-47q-23 0 -42 13v-415h-87v694h87v-156q19 13 42 13h47v143z" />
    <glyph glyph-name="uni041B" unicode="&#x41b;" 
d="M263 694v-694h-87v440q-17 -17 -40 -27.5t-49 -10.5v-402h-87v435h87q18 0 33.5 6.5t27.5 18t19.5 26.5t8.5 33v142h-89v-143h-87v176h263z" />
    <glyph glyph-name="uni042F" unicode="&#x42f;" 
d="M263 694v-694h-87v415q-20 -13 -42 -13h-47v-402h-87v435h134q17 0 29.5 12.5t12.5 29.5t-12.5 29t-29.5 12h-134v176h263zM176 661h-89v-110h47q22 0 42 -13v123z" />
    <glyph glyph-name="uni0414" unicode="&#x414;" horiz-adv-x="350" 
d="M263 33h44v-33q0 -24 -16 -40.5t-45 -16.5h-70v11q44 0 44 46h-177q0 -46 44 -46v-11h-70q-29 0 -45 16.5t-16 40.5v33h44v402h87q36 0 61.5 24.5t27.5 59.5v142h-89v-143h-87v176h263v-661zM176 33v407q-17 -17 -40 -27.5t-49 -10.5v-369h89z" />
    <glyph glyph-name="uni0416" unicode="&#x416;" horiz-adv-x="530" 
d="M352 694h87v-176h-134q-17 0 -29.5 -12t-12.5 -29t12.5 -29.5t29.5 -12.5h134v-435h-87v402h-47q-23 0 -42 13v-415h-87v415q-20 -13 -42 -13h-47v-402h-87v435h134q17 0 29.5 12.5t12.5 29.5t-12.5 29t-29.5 12h-134v176h87v-143h47q22 0 42 -13v156h87v-156
q19 13 42 13h47v143z" />
    <glyph glyph-name="uni0425" unicode="&#x425;" 
d="M193 518q-17 0 -29.5 -12t-12.5 -29v-1q0 -17 12.5 -29t29.5 -12h70v-435h-87v404q-25 6 -42 26q-18 -22 -47 -27v-403h-87v435h76q17 0 29.5 12t12.5 29v1q0 17 -12.5 29t-29.5 12h-76v176h87v-144q29 -5 47 -27q17 20 42 26v145h87v-176h-70v0z" />
    <glyph glyph-name="uni0424" unicode="&#x424;" horiz-adv-x="529" 
d="M438 694v-468h-87q-37 0 -62.5 -25.5t-26.5 -62.5v-138h-87v138q-1 37 -26.5 62.5t-62.5 25.5h-86v468h438zM87 259q26 0 48.5 -10.5t39.5 -27.5v440h-88v-402zM262 221q17 17 40 27.5t49 10.5v402h-89v-440z" />
    <glyph glyph-name="uni0423" unicode="&#x423;" 
d="M263 694v-694h-263v259h87v-226h89v285q-1 18 -8.5 33t-19.5 26.5t-27.5 18t-33.5 6.5h-87v292h87v-259q26 0 49 -10.5t40 -27.5v297h87z" />
    <glyph glyph-name="uni0401" unicode="&#x401;" 
d="M176 518v143h-89v-137q0 -41 23.5 -65t65.5 -24v-33q-42 0 -65.5 -24t-23.5 -64v-281h89v226h87v-259h-263v313q0 42 25.5 67t59.5 39q-34 13 -59.5 38t-25.5 67v170h263v-176h-87zM132 727q-18 0 -31 13t-13 31t13 30.5t31 12.5t30.5 -12.5t12.5 -30.5t-12.5 -31
t-30.5 -13z" />
    <glyph glyph-name="uni0419" unicode="&#x419;" 
d="M132 727q-18 0 -31 13t-13 31t13 30.5t31 12.5t30.5 -12.5t12.5 -30.5t-12.5 -31t-30.5 -13zM176 694h87v-694h-87v440q-17 -17 -40 -27.5t-49 -10.5v-402h-87v694h87v-259q18 0 33.5 6.5t27.5 18t19.5 26.5t8.5 33v175z" />
    <glyph glyph-name="uni042E" unicode="&#x42e;" horiz-adv-x="530" 
d="M176 694h263v-694h-263v402h-89v-402h-87v694h87v-259h89v259zM352 33v628h-89v-628h89z" />
    <glyph glyph-name="uni0412" unicode="&#x412;" 
d="M263 694v-176h-134q-17 0 -29.5 -12t-12.5 -29t12.5 -29.5t29.5 -12.5h134v-435h-263v694h263zM129 402q-23 0 -42 13v-382h89v369h-47zM176 661h-89v-123q19 13 42 13h47v110z" />
    <glyph glyph-name="uni0421" unicode="&#x421;" 
d="M0 694h263v-176h-87v143h-89v-628h89v226h87v-259h-263v694v0v0v0z" />
    <glyph glyph-name="uni042D" unicode="&#x42d;" 
d="M0 694h263v-694h-263v259h87v-226h89v369h-89v33h89v226h-89v-143h-87v176v0v0z" />
    <glyph glyph-name="uni0417" unicode="&#x417;" 
d="M263 694v-170q0 -18 -8 -32.5t-21.5 -25.5t-31 -18.5t-36.5 -12.5h97v-435h-263v259h87v-226h89v369h-89v33q37 0 63 24.5t26 64.5v137h-89v-143h-87v176h263z" />
    <glyph glyph-name="one" unicode="1" 
d="M263 0h-87v589q-23 -9 -46.5 -12.5t-42.5 -3.5v-55h-87v88h87q42 0 65.5 23.5t23.5 64.5h87v-694z" />
    <glyph glyph-name="two" unicode="2" 
d="M263 694v-176q-2 -33 -21 -55.5t-46 -36t-57 -19t-52 -5.5v-369h89v227h87v-260h-263v435h87q42 0 65.5 24t23.5 64v138h-89v-143h-87v176h263z" />
    <glyph glyph-name="zero" unicode="0" 
d="M264 171q0 -42 -26.5 -67.5t-61.5 -38.5v-65h-88v65q-35 13 -61.5 38t-26.5 68v523h264v-523zM132 92q21 10 32.5 30.5t11.5 48.5v490h-89v-490q0 -28 11.5 -48.5t33.5 -30.5z" />
    <glyph glyph-name="three" unicode="3" 
d="M263 524q0 -42 -25.5 -67t-59.5 -38q34 -14 59.5 -38.5t25.5 -66.5v-314h-263v260h87v-227h89v281q0 41 -23.5 64.5t-64.5 23.5l-0.5 5t-0.5 11.5t0.5 11.5l0.5 5q41 0 64.5 24t23.5 65v137h-89v-143h-87v176h263v-170v0z" />
    <glyph glyph-name="four" unicode="4" 
d="M176 435v259h87v-694h-87v402h-175h-1v292h87v-259h89v0z" />
    <glyph glyph-name="five" unicode="5" 
d="M263 694v-176h-87v143h-89v-138q0 -40 23.5 -64t65.5 -24h87v-435h-262l-1 260h87v-227h89v369q-23 0 -52.5 5.5t-56.5 19t-46.5 36t-20.5 55.5l1 176h262z" />
    <glyph glyph-name="six" unicode="6" 
d="M0 572q0 35 19 58.5t46 37.5t57.5 20t53.5 6h87v-176h-87v143q-42 0 -65.5 -24t-23.5 -65v-49q0 -40 23.5 -64t65.5 -24h87v-435h-1h-261h-1v572zM176 402q-19 0 -42.5 3.5t-46.5 12.5v-385h89v369z" />
    <glyph glyph-name="seven" unicode="7" 
d="M262 694v-176q-2 -35 -28 -55t-59 -31v-432h-87v435q37 0 62.5 26t25.5 63v137h-89v-143h-87v176h262z" />
    <glyph glyph-name="eight" unicode="8" 
d="M263 694v-259h-70q-17 0 -29.5 -12.5t-12.5 -29.5t12.5 -29t29.5 -12h70v-352h-263v352h76q17 0 29.5 12t12.5 29t-12.5 29.5t-29.5 12.5h-76v259h263zM176 320q-13 3 -23.5 10t-18.5 16q-18 -22 -47 -27v-286h89v287zM176 661h-89v-194q29 -5 47 -27q17 20 42 26v195z
" />
    <glyph glyph-name="nine" unicode="9" 
d="M263 694v-694h-263v259h87v-226h89v285q-1 18 -8.5 33t-19.5 26.5t-27.5 18t-33.5 6.5h-87v292h263zM176 661h-89v-226q26 0 49 -10.5t40 -27.5v264z" />
    <glyph glyph-name="hyphen" unicode="-" horiz-adv-x="266" 
d="M0 287v32h175v-32h-175v0z" />
    <glyph glyph-name="equal" unicode="=" horiz-adv-x="266" 
d="M0 226v33h175v-33h-175zM0 380h175v-33h-175v33z" />
    <glyph glyph-name="parenleft" unicode="(" horiz-adv-x="266" 
d="M175 784v-33q-42 0 -65 -24t-23 -65v-626q0 -41 23 -64.5t65 -23.5v-34q-23 0 -53 6t-57 20t-46 37.5t-19 58.5v626q0 35 19 58.5t46 37.5t57 20t53 6z" />
    <glyph glyph-name="parenright" unicode=")" horiz-adv-x="178" 
d="M-87 784q22 0 52 -6t57 -20t46 -37.5t19 -58.5v-626q0 -35 -19 -58.5t-46 -37.5t-57 -20t-52 -6v34q42 0 64.5 23.5t22.5 64.5v626q0 41 -22.5 65t-64.5 24v33v0z" />
    <glyph glyph-name="period" unicode="." horiz-adv-x="130" 
d="M0 -1v88h87v-88h-87v0z" />
    <glyph glyph-name="colon" unicode=":" horiz-adv-x="178" 
d="M0 0v88h87v-88h-87zM0 434h87v-88h-87v88z" />
    <glyph glyph-name="comma" unicode="," horiz-adv-x="130" 
d="M0 87h87v-88q0 -24 -16 -40.5t-45 -16.5h-70v11q44 0 44 46v88z" />
    <glyph glyph-name="semicolon" unicode=";" horiz-adv-x="178" 
d="M0 88h87v-88q0 -24 -16 -40.5t-45 -16.5h-70v11q44 0 44 46v88zM87 434v-88h-87v88h87z" />
    <glyph glyph-name="quotesingle" unicode="'" horiz-adv-x="178" 
d="M0 606v176h87v-176h-87v0z" />
    <glyph glyph-name="slash" unicode="/" horiz-adv-x="218" 
d="M0 0l87 694h88l-88 -694h-87v0z" />
    <glyph glyph-name="backslash" unicode="\" horiz-adv-x="266" 
d="M0 694h87l88 -694h-88l-87 694v0z" />
    <glyph glyph-name="plus" unicode="+" horiz-adv-x="353" 
d="M175 434v-115h87v-32h-87v-115h-88v115h-87v32h87v115h88v0z" />
    <glyph glyph-name="uni0410" unicode="&#x410;" 
d="M263 694v-694h-87v176q-17 -18 -40 -28.5t-49 -10.5v-137h-87v435h87q18 0 33.5 6.5t27.5 18t19.5 26.5t8.5 33v142h-89v-143h-87v176h263zM87 170q18 0 33.5 6.5t27.5 18t19.5 26.5t8.5 33v186q-17 -17 -40 -27.5t-49 -10.5v-232z" />
    <glyph glyph-name="uni041D" unicode="&#x41d;" 
d="M176 435v259h87v-694h-87v402h-89v-402h-87v694h87v-259h89v0z" />
    <glyph glyph-name="uni0415" unicode="&#x415;" 
d="M263 694v-176h-87v143h-89v-137q0 -41 23.5 -65t65.5 -24v-33q-42 0 -65.5 -24t-23.5 -64v-281h89v226h87v-259h-263v313q0 42 25.5 67t59.5 39q-34 13 -59.5 38t-25.5 67v170h263z" />
    <glyph glyph-name="question" unicode="?" 
d="M263 694v-171q0 -42 -26.5 -67.5t-61.5 -38.5v-246h-87v264q42 0 65 23.5t23 64.5v138h-89v-143h-87v176h263zM88 88h87v-88h-87v88z" />
    <glyph glyph-name="exclam" unicode="!" horiz-adv-x="178" 
d="M0 170v523h87v-523h-87zM0 -1v88h87v-88h-87z" />
    <glyph glyph-name="emdash" unicode="&#x2014;" horiz-adv-x="441" 
d="M0 287v32h350v-32h-350v0z" />
    <glyph glyph-name="endash" unicode="&#x2013;" horiz-adv-x="353" 
d="M0 287v32h262v-32h-262v0z" />
    <glyph glyph-name="uni0430" unicode="&#x430;" 
d="M263 694v-694h-87v176q-17 -18 -40 -28.5t-49 -10.5v-137h-87v435h87q18 0 33.5 6.5t27.5 18t19.5 26.5t8.5 33v142h-89v-143h-87v176h263zM87 170q18 0 33.5 6.5t27.5 18t19.5 26.5t8.5 33v186q-17 -17 -40 -27.5t-49 -10.5v-232z" />
    <glyph glyph-name="uni0431" unicode="&#x431;" 
d="M263 694v-176h-87v143h-89v-142q1 -18 8.5 -33t19.5 -26.5t27.5 -18t33.5 -6.5h87v-435v-1h-263v1v694h263zM176 402q-26 0 -49 10.5t-40 27.5v-408h89v370z" />
    <glyph glyph-name="uni0432" unicode="&#x432;" 
d="M263 694v-176h-134q-17 0 -29.5 -12t-12.5 -29t12.5 -29.5t29.5 -12.5h134v-435h-263v694h263zM129 402q-23 0 -42 13v-382h89v369h-47zM176 661h-89v-123q19 13 42 13h47v110z" />
    <glyph glyph-name="uni0433" unicode="&#x433;" 
d="M0 694h263v-176h-87v143h-89v-661h-87v694v0v0z" />
    <glyph glyph-name="uni0434" unicode="&#x434;" horiz-adv-x="350" 
d="M263 33h44v-33q0 -24 -16 -40.5t-45 -16.5h-70v11q44 0 44 46h-177q0 -46 44 -46v-11h-70q-29 0 -45 16.5t-16 40.5v33h44v402h87q36 0 61.5 24.5t27.5 59.5v142h-89v-143h-87v176h263v-661zM176 33v407q-17 -17 -40 -27.5t-49 -10.5v-369h89z" />
    <glyph glyph-name="uni0435" unicode="&#x435;" 
d="M263 694v-176h-87v143h-89v-137q0 -41 23.5 -65t65.5 -24v-33q-42 0 -65.5 -24t-23.5 -64v-281h89v226h87v-259h-263v313q0 42 25.5 67t59.5 39q-34 13 -59.5 38t-25.5 67v170h263z" />
    <glyph glyph-name="uni0451" unicode="&#x451;" 
d="M176 518v143h-89v-137q0 -41 23.5 -65t65.5 -24v-33q-42 0 -65.5 -24t-23.5 -64v-281h89v226h87v-259h-263v313q0 42 25.5 67t59.5 39q-34 13 -59.5 38t-25.5 67v170h263v-176h-87zM132 727q-18 0 -31 13t-13 31t13 30.5t31 12.5t30.5 -12.5t12.5 -30.5t-12.5 -31
t-30.5 -13z" />
    <glyph glyph-name="uni0436" unicode="&#x436;" horiz-adv-x="530" 
d="M352 694h87v-176h-134q-17 0 -29.5 -12t-12.5 -29t12.5 -29.5t29.5 -12.5h134v-435h-87v402h-47q-23 0 -42 13v-415h-87v415q-20 -13 -42 -13h-47v-402h-87v435h134q17 0 29.5 12.5t12.5 29.5t-12.5 29t-29.5 12h-134v176h87v-143h47q22 0 42 -13v156h87v-156
q19 13 42 13h47v143z" />
    <glyph glyph-name="uni0437" unicode="&#x437;" 
d="M263 694v-170q0 -18 -8 -32.5t-21.5 -25.5t-31 -18.5t-36.5 -12.5h97v-435h-263v259h87v-226h89v369h-89v33q37 0 63 24.5t26 64.5v137h-89v-143h-87v176h263z" />
    <glyph glyph-name="uni0438" unicode="&#x438;" 
d="M176 694h87v-694h-87v440q-17 -17 -40 -27.5t-49 -10.5v-402h-87v694h87v-259q18 0 33.5 6.5t27.5 18t19.5 26.5t8.5 33v175z" />
    <glyph glyph-name="uni0439" unicode="&#x439;" 
d="M132 727q-18 0 -31 13t-13 31t13 30.5t31 12.5t30.5 -12.5t12.5 -30.5t-12.5 -31t-30.5 -13zM176 694h87v-694h-87v440q-17 -17 -40 -27.5t-49 -10.5v-402h-87v694h87v-259q18 0 33.5 6.5t27.5 18t19.5 26.5t8.5 33v175z" />
    <glyph glyph-name="uni043A" unicode="&#x43a;" 
d="M176 694h87v-176h-134q-17 0 -29.5 -12t-12.5 -29t12.5 -29.5t29.5 -12.5h134v-435h-87v402h-47q-23 0 -42 13v-415h-87v694h87v-156q19 13 42 13h47v143z" />
    <glyph glyph-name="uni043B" unicode="&#x43b;" 
d="M263 694v-694h-87v440q-17 -17 -40 -27.5t-49 -10.5v-402h-87v435h87q18 0 33.5 6.5t27.5 18t19.5 26.5t8.5 33v142h-89v-143h-87v176h263z" />
    <glyph glyph-name="uni043C" unicode="&#x43c;" horiz-adv-x="529" 
d="M351 694h87v-694h-87v573q-18 0 -33.5 -6.5t-27.5 -18t-19.5 -26.5t-8.5 -33v-489h-87v489q0 18 -8 33.5t-20 27t-28 17.5t-32 6v-573h-87v694h87v-88q30 0 66.5 -13t65.5 -36q28 23 65 36t67 13v88z" />
    <glyph glyph-name="uni043D" unicode="&#x43d;" 
d="M176 435v259h87v-694h-87v402h-89v-402h-87v694h87v-259h89v0z" />
    <glyph glyph-name="uni043E" unicode="&#x43e;" 
d="M0 694h263v-694h-263v694zM176 33v628h-89v-628h89z" />
    <glyph glyph-name="uni043F" unicode="&#x43f;" 
d="M0 694h263v-694h-87v661h-89v-661h-87v694v0z" />
    <glyph glyph-name="uni0440" unicode="&#x440;" 
d="M263 694v-292h-87q-18 0 -33.5 -6.5t-27.5 -18t-19.5 -26.5t-8.5 -33v-318h-87v694h263zM176 661h-89v-264q17 17 40 27.5t49 10.5v226z" />
    <glyph glyph-name="uni0441" unicode="&#x441;" 
d="M0 694h263v-176h-87v143h-89v-628h89v226h87v-259h-263v694v0v0v0z" />
    <glyph glyph-name="uni0442" unicode="&#x442;" horiz-adv-x="529" 
d="M0 694h438v-176h-87v143h-89v-661h-87v661h-88v-143h-87v176v0z" />
    <glyph glyph-name="uni0443" unicode="&#x443;" 
d="M263 694v-694h-263v259h87v-226h89v285q-1 18 -8.5 33t-19.5 26.5t-27.5 18t-33.5 6.5h-87v292h87v-259q26 0 49 -10.5t40 -27.5v297h87z" />
    <glyph glyph-name="uni0444" unicode="&#x444;" horiz-adv-x="529" 
d="M438 694v-468h-87q-37 0 -62.5 -25.5t-26.5 -62.5v-138h-87v138q-1 37 -26.5 62.5t-62.5 25.5h-86v468h438zM87 259q26 0 48.5 -10.5t39.5 -27.5v440h-88v-402zM262 221q17 17 40 27.5t49 10.5v402h-89v-440z" />
    <glyph glyph-name="uni0445" unicode="&#x445;" 
d="M193 518q-17 0 -29.5 -12t-12.5 -29v-1q0 -17 12.5 -29t29.5 -12h70v-435h-87v404q-25 6 -42 26q-18 -22 -47 -27v-403h-87v435h76q17 0 29.5 12t12.5 29v1q0 17 -12.5 29t-29.5 12h-76v176h87v-144q29 -5 47 -27q17 20 42 26v145h87v-176h-70v0z" />
    <glyph glyph-name="uni0446" unicode="&#x446;" horiz-adv-x="350" 
d="M263 33h44v-33q0 -24 -16 -40.5t-45 -16.5h-70v11q44 0 44 46h-220v694h87v-661h89v661h87v-661z" />
    <glyph glyph-name="uni0447" unicode="&#x447;" 
d="M176 694h87v-694h-87v318q-1 18 -8.5 33t-19.5 26.5t-27.5 18t-33.5 6.5h-87v292h87v-259q26 0 49 -10.5t40 -27.5v297z" />
    <glyph glyph-name="uni0448" unicode="&#x448;" horiz-adv-x="529" 
d="M351 33v661h87v-694h-438v694h87v-661h88v661h87v-661h89v0z" />
    <glyph glyph-name="uni0449" unicode="&#x449;" horiz-adv-x="525" 
d="M438 33h44v-33q0 -24 -16 -40.5t-45 -16.5h-70v11q44 0 44 46h-395v694h87v-661h88v661h87v-661h89v661h87v-661z" />
    <glyph glyph-name="uni044A" unicode="&#x44a;" 
d="M263 435v-435h-263v661h-44v33h132v-175q1 -18 8 -33t19 -26.5t27.5 -18t33.5 -6.5h87zM176 33v369q-26 0 -48.5 10.5t-39.5 27.5v-407h88z" />
    <glyph glyph-name="uni044B" unicode="&#x44b;" 
d="M263 435v-435h-263v694h87v-175q1 -18 8.5 -33t19.5 -26.5t27.5 -18t33.5 -6.5h87zM176 402q-26 0 -49 10.5t-40 27.5v-407h89v369zM263 694v-176h-87v176h87z" />
    <glyph glyph-name="uni044C" unicode="&#x44c;" 
d="M263 435v-435h-263v694h87v-175q1 -18 8.5 -33t19.5 -26.5t27.5 -18t33.5 -6.5h87zM176 33v369q-26 0 -49 10.5t-40 27.5v-407h89z" />
    <glyph glyph-name="uni044D" unicode="&#x44d;" 
d="M0 694h263v-694h-263v259h87v-226h89v369h-89v33h89v226h-89v-143h-87v176v0v0z" />
    <glyph glyph-name="uni044E" unicode="&#x44e;" horiz-adv-x="530" 
d="M176 694h263v-694h-263v402h-89v-402h-87v694h87v-259h89v259zM352 33v628h-89v-628h89z" />
    <glyph glyph-name="uni044F" unicode="&#x44f;" 
d="M263 694v-694h-87v415q-20 -13 -42 -13h-47v-402h-87v435h134q17 0 29.5 12.5t12.5 29.5t-12.5 29t-29.5 12h-134v176h263zM176 661h-89v-110h47q22 0 42 -13v123z" />
    <glyph glyph-name="A" unicode="A" 
d="M263 694v-694h-87v176q-17 -18 -40 -28.5t-49 -10.5v-137h-87v435h87q18 0 33.5 6.5t27.5 18t19.5 26.5t8.5 33v142h-89v-143h-87v176h263zM87 170q18 0 33.5 6.5t27.5 18t19.5 26.5t8.5 33v186q-17 -17 -40 -27.5t-49 -10.5v-232z" />
    <glyph glyph-name="a" unicode="a" 
d="M263 694v-694h-87v176q-17 -18 -40 -28.5t-49 -10.5v-137h-87v435h87q18 0 33.5 6.5t27.5 18t19.5 26.5t8.5 33v142h-89v-143h-87v176h263zM87 170q18 0 33.5 6.5t27.5 18t19.5 26.5t8.5 33v186q-17 -17 -40 -27.5t-49 -10.5v-232z" />
    <glyph glyph-name="B" unicode="B" 
d="M263 694v-176h-134q-17 0 -29.5 -12t-12.5 -29t12.5 -29.5t29.5 -12.5h134v-435h-263v694h263zM129 402q-23 0 -42 13v-382h89v369h-47zM176 661h-89v-123q19 13 42 13h47v110z" />
    <glyph glyph-name="b" unicode="b" 
d="M263 694v-176h-134q-17 0 -29.5 -12t-12.5 -29t12.5 -29.5t29.5 -12.5h134v-435h-263v694h263zM129 402q-23 0 -42 13v-382h89v369h-47zM176 661h-89v-123q19 13 42 13h47v110z" />
    <glyph glyph-name="C" unicode="C" 
d="M0 694h263v-176h-87v143h-89v-628h89v226h87v-259h-263v694v0v0v0z" />
    <glyph glyph-name="c" unicode="c" 
d="M0 694h263v-176h-87v143h-89v-628h89v226h87v-259h-263v694v0v0v0z" />
    <glyph glyph-name="D" unicode="D" 
d="M87 694q25 0 55.5 -9.5t57 -26t45 -38.5t18.5 -47v-573h-263v694h87zM176 572q0 37 -26 63t-63 26v-628h89v539z" />
    <glyph glyph-name="d" unicode="d" 
d="M87 694q25 0 55.5 -9.5t57 -26t45 -38.5t18.5 -47v-573h-263v694h87zM176 572q0 37 -26 63t-63 26v-628h89v539z" />
    <glyph glyph-name="E" unicode="E" 
d="M263 694v-176h-87v143h-89v-137q0 -41 23.5 -65t65.5 -24v-33q-42 0 -65.5 -24t-23.5 -64v-281h89v226h87v-259h-263v313q0 42 25.5 67t59.5 39q-34 13 -59.5 38t-25.5 67v170h263z" />
    <glyph glyph-name="e" unicode="e" 
d="M263 694v-176h-87v143h-89v-137q0 -41 23.5 -65t65.5 -24v-33q-42 0 -65.5 -24t-23.5 -64v-281h89v226h87v-259h-263v313q0 42 25.5 67t59.5 39q-34 13 -59.5 38t-25.5 67v170h263z" />
    <glyph glyph-name="F" unicode="F" 
d="M0 694h263v-176h-87v143h-89v-226h89v-33h-89v-402h-87v694v0v0z" />
    <glyph glyph-name="f" unicode="f" 
d="M0 694h263v-176h-87v143h-89v-226h89v-33h-89v-402h-87v694v0v0z" />
    <glyph glyph-name="G" unicode="G" 
d="M0 694h263v-176h-87v143h-89v-628h89v193h-44v33h131v-259h-263v694v0z" />
    <glyph glyph-name="g" unicode="g" 
d="M0 694h263v-176h-87v143h-89v-628h89v193h-44v33h131v-259h-263v694v0z" />
    <glyph glyph-name="H" unicode="H" 
d="M176 435v259h87v-694h-87v402h-89v-402h-87v694h87v-259h89v0z" />
    <glyph glyph-name="h" unicode="h" 
d="M176 435v259h87v-694h-87v402h-89v-402h-87v694h87v-259h89v0z" />
    <glyph glyph-name="I" unicode="I" horiz-adv-x="178" 
d="M0 0v694h87v-694h-87v0z" />
    <glyph glyph-name="i" unicode="i" horiz-adv-x="178" 
d="M0 0v694h87v-694h-87v0z" />
    <glyph glyph-name="J" unicode="J" 
d="M176 33v661h87v-694h-263v259h87v-226h89v0z" />
    <glyph glyph-name="j" unicode="j" 
d="M176 33v661h87v-694h-263v259h87v-226h89v0z" />
    <glyph glyph-name="K" unicode="K" 
d="M176 694h87v-176h-134q-17 0 -29.5 -12t-12.5 -29t12.5 -29.5t29.5 -12.5h134v-435h-87v402h-47q-23 0 -42 13v-415h-87v694h87v-156q19 13 42 13h47v143z" />
    <glyph glyph-name="k" unicode="k" 
d="M176 694h87v-176h-134q-17 0 -29.5 -12t-12.5 -29t12.5 -29.5t29.5 -12.5h134v-435h-87v402h-47q-23 0 -42 13v-415h-87v694h87v-156q19 13 42 13h47v143z" />
    <glyph glyph-name="L" unicode="L" 
d="M176 33v226h87v-259h-263v694h87v-661h89v0z" />
    <glyph glyph-name="l" unicode="l" 
d="M176 33v226h87v-259h-263v694h87v-661h89v0z" />
    <glyph glyph-name="M" unicode="M" horiz-adv-x="529" 
d="M351 694h87v-694h-87v573q-18 0 -33.5 -6.5t-27.5 -18t-19.5 -26.5t-8.5 -33v-489h-87v489q0 18 -8 33.5t-20 27t-28 17.5t-32 6v-573h-87v694h87v-88q30 0 66.5 -13t65.5 -36q28 23 65 36t67 13v88z" />
    <glyph glyph-name="m" unicode="m" horiz-adv-x="529" 
d="M351 694h87v-694h-87v573q-18 0 -33.5 -6.5t-27.5 -18t-19.5 -26.5t-8.5 -33v-489h-87v489q0 18 -8 33.5t-20 27t-28 17.5t-32 6v-573h-87v694h87v-88q30 0 66.5 -13t65.5 -36q28 23 65 36t67 13v88z" />
    <glyph glyph-name="n" unicode="n" 
d="M176 694h87v-694h-87v402q-26 0 -49 10.5t-40 27.5v-440h-87v694h87v-175q1 -18 8.5 -33t19.5 -26.5t27.5 -18t33.5 -6.5v259z" />
    <glyph glyph-name="N" unicode="N" 
d="M176 694h87v-694h-87v402q-26 0 -49 10.5t-40 27.5v-440h-87v694h87v-175q1 -18 8.5 -33t19.5 -26.5t27.5 -18t33.5 -6.5v259z" />
    <glyph glyph-name="O" unicode="O" 
d="M0 694h263v-694h-263v694zM176 33v628h-89v-628h89z" />
    <glyph glyph-name="o" unicode="o" 
d="M0 694h263v-694h-263v694zM176 33v628h-89v-628h89z" />
    <glyph glyph-name="p" unicode="p" 
d="M263 694v-292h-87q-18 0 -33.5 -6.5t-27.5 -18t-19.5 -26.5t-8.5 -33v-318h-87v694h263zM176 661h-89v-264q17 17 40 27.5t49 10.5v226z" />
    <glyph glyph-name="P" unicode="P" 
d="M263 694v-292h-87q-18 0 -33.5 -6.5t-27.5 -18t-19.5 -26.5t-8.5 -33v-318h-87v694h263zM176 661h-89v-264q17 17 40 27.5t49 10.5v226z" />
    <glyph glyph-name="q" unicode="q" horiz-adv-x="350" 
d="M263 33h44v-33q0 -24 -16 -40.5t-45 -16.5h-70v11q44 0 44 46h-220v694h263v-661zM176 33v628h-89v-628h89z" />
    <glyph glyph-name="Q" unicode="Q" horiz-adv-x="344" 
d="M263 33h44v-33q0 -24 -16 -40.5t-45 -16.5h-70v11q44 0 44 46h-220v694h263v-661zM176 33v628h-89v-628h89z" />
    <glyph glyph-name="R" unicode="R" 
d="M263 694v-176h-134q-17 0 -29.5 -12t-12.5 -29t12.5 -29.5t29.5 -12.5h134v-435h-87v402h-47q-23 0 -42 13v-415h-87v694h263zM87 538q19 13 42 13h47v110h-89v-123z" />
    <glyph glyph-name="r" unicode="r" 
d="M263 694v-176h-134q-17 0 -29.5 -12t-12.5 -29t12.5 -29.5t29.5 -12.5h134v-435h-87v402h-47q-23 0 -42 13v-415h-87v694h263zM87 538q19 13 42 13h47v110h-89v-123z" />
    <glyph glyph-name="s" unicode="s" 
d="M263 694v-176h-87v143h-89v-143h1q0 -31 13 -48.5t32.5 -29t42 -19t42 -17.5t32.5 -25.5t13 -42.5v-336h-263v259h87v-226h89v303q0 31 -13.5 48.5t-33 29t-42 19t-42 17.5t-32.5 25.5t-13 42.5v176h263z" />
    <glyph glyph-name="S" unicode="S" 
d="M263 694v-176h-87v143h-89v-143h1q0 -31 13 -48.5t32.5 -29t42 -19t42 -17.5t32.5 -25.5t13 -42.5v-336h-263v259h87v-226h89v303q0 31 -13.5 48.5t-33 29t-42 19t-42 17.5t-32.5 25.5t-13 42.5v176h263z" />
    <glyph glyph-name="T" unicode="T" horiz-adv-x="529" 
d="M0 694h438v-176h-87v143h-89v-661h-87v661h-88v-143h-87v176v0z" />
    <glyph glyph-name="t" unicode="t" horiz-adv-x="529" 
d="M0 694h438v-176h-87v143h-89v-661h-87v661h-88v-143h-87v176v0z" />
    <glyph glyph-name="U" unicode="U" 
d="M176 33v661h87v-694h-263v694h87v-661h89v0z" />
    <glyph glyph-name="u" unicode="u" 
d="M176 33v661h87v-694h-263v694h87v-661h89v0z" />
    <glyph glyph-name="V" unicode="V" 
d="M176 694h87v-523q-2 -33 -28 -53t-60 -30v-88h-87v88q-33 11 -59.5 30.5t-28.5 52.5v523h87v-520q2 -26 13.5 -46t31.5 -31q20 11 32 31t12 46v520z" />
    <glyph glyph-name="v" unicode="v" 
d="M176 694h87v-523q-2 -33 -28 -53t-60 -30v-88h-87v88q-33 11 -59.5 30.5t-28.5 52.5v523h87v-520q2 -26 13.5 -46t31.5 -31q20 11 32 31t12 46v520z" />
    <glyph glyph-name="W" unicode="W" horiz-adv-x="530" 
d="M352 694h87v-523q-2 -33 -28 -53t-60 -30v-88h-87v88q-12 4 -23 8.5t-21 10.5q-10 -6 -21.5 -10.5t-23.5 -8.5v-88h-87v88q-34 10 -60 30t-28 53v523h87v-520q0 -26 12.5 -46t32.5 -31q20 11 32 31t12 46v520h87v-520q1 -26 13 -46t32 -31q20 11 32 31t12 46v520z" />
    <glyph glyph-name="w" unicode="w" horiz-adv-x="530" 
d="M352 694h87v-523q-2 -33 -28 -53t-60 -30v-88h-87v88q-12 4 -23 8.5t-21 10.5q-10 -6 -21.5 -10.5t-23.5 -8.5v-88h-87v88q-34 10 -60 30t-28 53v523h87v-520q0 -26 12.5 -46t32.5 -31q20 11 32 31t12 46v520h87v-520q1 -26 13 -46t32 -31q20 11 32 31t12 46v520z" />
    <glyph glyph-name="X" unicode="X" 
d="M193 518q-17 0 -29.5 -12t-12.5 -29v-1q0 -17 12.5 -29t29.5 -12h70v-435h-87v404q-25 6 -42 26q-18 -22 -47 -27v-403h-87v435h76q17 0 29.5 12t12.5 29v1q0 17 -12.5 29t-29.5 12h-76v176h87v-144q29 -5 47 -27q17 20 42 26v145h87v-176h-70v0z" />
    <glyph glyph-name="x" unicode="x" 
d="M193 518q-17 0 -29.5 -12t-12.5 -29v-1q0 -17 12.5 -29t29.5 -12h70v-435h-87v404q-25 6 -42 26q-18 -22 -47 -27v-403h-87v435h76q17 0 29.5 12t12.5 29v1q0 17 -12.5 29t-29.5 12h-76v176h87v-144q29 -5 47 -27q17 20 42 26v145h87v-176h-70v0z" />
    <glyph glyph-name="Y" unicode="Y" 
d="M176 694h87v-176q0 -35 -26.5 -55t-61.5 -31v-432h-87v432q-35 11 -61.5 31t-26.5 55v176h87v-176q0 -26 12.5 -46.5t32.5 -31.5q20 11 32 31.5t12 46.5v176z" />
    <glyph glyph-name="y" unicode="y" 
d="M176 694h87v-176q0 -35 -26.5 -55t-61.5 -31v-432h-87v432q-35 11 -61.5 31t-26.5 55v176h87v-176q0 -26 12.5 -46.5t32.5 -31.5q20 11 32 31.5t12 46.5v176z" />
    <glyph glyph-name="Z" unicode="Z" 
d="M263 694v-176q0 -27 -13 -42.5t-32.5 -25.5t-42 -17.5t-42 -19t-33 -29t-13.5 -48.5v-303h89v226h87v-259h-263v336q0 27 13 42.5t32.5 25.5t42 17.5t42 19t33 29t13.5 48.5v143h-89v-143h-87v176h263z" />
    <glyph glyph-name="z" unicode="z" 
d="M263 694v-176q0 -27 -13 -42.5t-32.5 -25.5t-42 -17.5t-42 -19t-33 -29t-13.5 -48.5v-303h89v226h87v-259h-263v336q0 27 13 42.5t32.5 25.5t42 17.5t42 19t33 29t13.5 48.5v143h-89v-143h-87v176h263z" />
    <glyph glyph-name="guillemotleft" unicode="&#xab;" horiz-adv-x="440" 
d="M175 523l-88 -218l88 -217h-88l-87 217l87 218h88zM349 523l-87 -218l87 -217h-87l-87 217l87 218h87z" />
    <glyph glyph-name="guillemotright" unicode="&#xbb;" horiz-adv-x="440" 
d="M87 523l88 -218l-88 -217h-87l87 217l-87 218h87zM262 523l87 -218l-87 -217h-87l87 217l-87 218h87z" />
    <glyph glyph-name="dollar" unicode="$" 
d="M176 518v143h-89v-143h1q0 -31 13 -48.5t32.5 -29t42 -19t42 -17.5t32.5 -25.5t13 -42.5v-336h-88v-88h-87v88h-88v259h87v-226h89v303q0 31 -13.5 48.5t-33 29t-42 19t-42 17.5t-32.5 25.5t-13 42.5v176h88v88h87v-88h88v-176h-87z" />
    <glyph glyph-name="underscore" unicode="_" horiz-adv-x="353" 
d="M0 -33v33h262v-33h-262v0z" />
    <glyph glyph-name="at" unicode="@" horiz-adv-x="703" 
d="M612 694v-523h-88q-18 0 -41 4t-46 12v-16h-1h-261v347h261h1v-225q0 -41 23 -64.5t64 -23.5v456h-437v-628h349v-33h-436v694h612zM349 204v281h-87v-281h87z" />
    <glyph glyph-name="percent" unicode="%" horiz-adv-x="706" 
d="M528 694h87l-528 -694h-87zM263 694v-176h-263v176h263v0zM176 551v110h-89v-110h89zM352 0v176h263v-176h-263zM439 143v-110h89v110h-89z" />
    <glyph glyph-name="numbersign" unicode="#" horiz-adv-x="563" 
d="M472 287h-95l-18 -143h90v-33h-94l-14 -111h-88l14 111h-88l-14 -111h-87l14 111h-92v33h96l18 143h-91v32h95l15 116h87l-15 -116h88l15 116h87l-14 -116h91v-32zM271 144l18 143h-88l-18 -143h88z" />
    <glyph glyph-name="bracketright" unicode="]" horiz-adv-x="178" 
d="M87 784v-872h-174v33h87v806h-87v33h174v0z" />
    <glyph glyph-name="bracketleft" unicode="[" horiz-adv-x="266" 
d="M0 784h175v-33h-88v-806h88v-33h-175v872v0z" />
    <glyph glyph-name="greater" unicode="&#x3e;" horiz-adv-x="353" 
d="M0 606h87l175 -217l-175 -218h-87l175 218l-175 217v0z" />
    <glyph glyph-name="less" unicode="&#x3c;" horiz-adv-x="353" 
d="M262 606l-175 -217l175 -218h-87l-175 218l175 217h87v0z" />
    <glyph glyph-name="ampersand" unicode="&#x26;" horiz-adv-x="398" 
d="M307 314h-44v-314h-263v311q0 42 25.5 68t59.5 39q-34 13 -59.5 38t-25.5 67v171h263v-176h-87v143h-89v-138q0 -41 23.5 -64.5t65.5 -23.5v-34q-32 0 -53.5 -14t-30.5 -40h215v-33zM176 314h-89v-1v-280h89v281z" />
    <glyph glyph-name="quotedbl" unicode="&#x22;" horiz-adv-x="353" 
d="M0 606v176h87v-176h-87zM174 606v176h88v-176h-88z" />
    <glyph glyph-name="quotedblleft" unicode="&#x201c;" horiz-adv-x="440" 
d="M175 523l-88 -218l88 -217h-88l-87 217l87 218h88zM349 523l-87 -218l87 -217h-87l-87 217l87 218h87z" />
    <glyph glyph-name="quotedblright" unicode="&#x201d;" horiz-adv-x="440" 
d="M87 523l88 -218l-88 -217h-87l87 217l-87 218h87zM262 523l87 -218l-87 -217h-87l87 217l-87 218h87z" />
    <glyph glyph-name="quotedblbase" unicode="&#x201e;" horiz-adv-x="439" 
d="M87 87h87v-88q0 -24 -16 -40.5t-45 -16.5h-70v11q44 0 44 46v88zM348 87v-88q0 -24 -16 -40.5t-45 -16.5h-70v11q44 0 44 46v88h87z" />
    <glyph glyph-name="quoteleft" unicode="&#x2018;" horiz-adv-x="223" 
d="M87 606h-87v88q0 23 16 40t45 17h71v-11q-24 0 -34.5 -11.5t-10.5 -34.5v-88z" />
    <glyph glyph-name="uni0403" unicode="&#x403;" 
d="M263 694v-176h-87v143h-89v-661h-87v694h263zM176 782q0 -24 -15.5 -40.5t-44.5 -16.5h-72v11q44 0 44 46h88z" />
    <glyph glyph-name="Iacute" unicode="&#xcd;" horiz-adv-x="180" 
d="M88 782q0 -24 -15.5 -40.5t-44.5 -16.5h-71v11q24 0 34.5 11t10.5 35h86zM89 694v-694h-87v694h87z" />
    <glyph glyph-name="Igrave" unicode="&#xcc;" horiz-adv-x="222" 
d="M87 782q0 -46 44 -46v-11h-70q-29 0 -45 16.5t-16 40.5h87zM1 694h87v-694h-87v694z" />
    <glyph glyph-name="Icircumflex" unicode="&#xce;" horiz-adv-x="205" 
d="M131 782q29 0 45 -17t16 -40h-87q0 46 -44 46q-24 0 -34.5 -11.5t-10.5 -34.5h-86q0 23 15.5 40t44.5 17h141zM18 694h87v-694h-87v694z" />
    <glyph glyph-name="Idieresis" unicode="&#xcf;" horiz-adv-x="206" 
d="M-27 814q18 0 31 -12.5t13 -30.5t-13 -31t-31 -13t-30.5 13t-12.5 31t12.5 30.5t30.5 12.5zM150 814q18 0 30.5 -12.5t12.5 -30.5t-12.5 -31t-30.5 -13t-31 13t-13 31t13 30.5t31 12.5zM19 694h87v-694h-87v694z" />
    <glyph glyph-name="scedilla" unicode="&#x15f;" 
d="M176 518v143h-89v-143h1q0 -31 13 -48.5t32.5 -29t42 -19t42 -17.5t32.5 -25.5t13 -42.5v-336h-87q0 -24 -16 -40.5t-45 -16.5h-70v11q44 0 44 46h-89v259h87v-226h89v303q0 31 -13.5 48.5t-33 29t-42 19t-42 17.5t-32.5 25.5t-13 42.5v176h263v-176h-87z" />
    <glyph glyph-name="Odieresis" unicode="&#xd6;" 
d="M0 694h263v-694h-263v694zM87 33h89v628h-89v-628zM43 727q-18 0 -30.5 13t-12.5 31t12.5 30.5t30.5 12.5q19 0 31.5 -12.5t12.5 -30.5t-12.5 -31t-31.5 -13zM220 727q-18 0 -31 13t-13 31t13 30.5t31 12.5t30.5 -12.5t12.5 -30.5t-12.5 -31t-30.5 -13z" />
    <glyph glyph-name="odieresis" unicode="&#xf6;" 
d="M0 694h263v-694h-263v694zM87 33h89v628h-89v-628zM43 727q-18 0 -30.5 13t-12.5 31t12.5 30.5t30.5 12.5q19 0 31.5 -12.5t12.5 -30.5t-12.5 -31t-31.5 -13zM220 727q-18 0 -31 13t-13 31t13 30.5t31 12.5t30.5 -12.5t12.5 -30.5t-12.5 -31t-30.5 -13z" />
    <glyph glyph-name="ccedilla" unicode="&#xe7;" 
d="M176 518v143h-89v-628h89v226h87v-259h-87q0 -24 -16 -40.5t-45 -16.5h-72v11q24 0 34.5 11t10.5 35h-88v694h263v-176h-87z" />
    <glyph glyph-name="Ccedilla" unicode="&#xc7;" 
d="M176 518v143h-89v-628h89v226h87v-259h-87q0 -24 -16 -40.5t-45 -16.5h-72v11q24 0 34.5 11t10.5 35h-88v694h263v-176h-87z" />
    <glyph glyph-name="udieresis" unicode="&#xfc;" 
d="M43 727q-18 0 -30.5 13t-12.5 31t12.5 30.5t30.5 12.5q19 0 31.5 -12.5t12.5 -30.5t-12.5 -31t-31.5 -13zM220 727q-18 0 -31 13t-13 31t13 30.5t31 12.5t30.5 -12.5t12.5 -30.5t-12.5 -31t-30.5 -13zM176 694h87v-694h-263v694h87v-661h89v661z" />
    <glyph glyph-name="Udieresis" unicode="&#xdc;" 
d="M43 727q-18 0 -30.5 13t-12.5 31t12.5 30.5t30.5 12.5q19 0 31.5 -12.5t12.5 -30.5t-12.5 -31t-31.5 -13zM220 727q-18 0 -31 13t-13 31t13 30.5t31 12.5t30.5 -12.5t12.5 -30.5t-12.5 -31t-30.5 -13zM176 694h87v-694h-263v694h87v-661h89v661z" />
    <glyph glyph-name="ydieresis" unicode="&#xff;" 
d="M43 727q-18 0 -30.5 13t-12.5 31t12.5 30.5t30.5 12.5q19 0 31.5 -12.5t12.5 -30.5t-12.5 -31t-31.5 -13zM220 727q-18 0 -31 13t-13 31t13 30.5t31 12.5t30.5 -12.5t12.5 -30.5t-12.5 -31t-30.5 -13zM176 694h87v-176q0 -35 -26.5 -55t-61.5 -31v-432h-87v432
q-35 11 -61.5 31t-26.5 55v176h87v-176q0 -26 12.5 -46.5t32.5 -31.5q20 11 32 31.5t12 46.5v176z" />
    <glyph glyph-name="Ydieresis" unicode="&#x178;" 
d="M43 727q-18 0 -30.5 13t-12.5 31t12.5 30.5t30.5 12.5q19 0 31.5 -12.5t12.5 -30.5t-12.5 -31t-31.5 -13zM220 727q-18 0 -31 13t-13 31t13 30.5t31 12.5t30.5 -12.5t12.5 -30.5t-12.5 -31t-30.5 -13zM176 694h87v-176q0 -35 -26.5 -55t-61.5 -31v-432h-87v432
q-35 11 -61.5 31t-26.5 55v176h87v-176q0 -26 12.5 -46.5t32.5 -31.5q20 11 32 31.5t12 46.5v176z" />
    <glyph glyph-name="Oacute" unicode="&#xd3;" 
d="M176 782q0 -24 -15.5 -40.5t-44.5 -16.5h-72v11q44 0 44 46h88zM263 694v-694h-263v694h263zM176 661h-89v-628h89v628z" />
    <glyph glyph-name="oacute" unicode="&#xf3;" 
d="M176 782q0 -24 -15.5 -40.5t-44.5 -16.5h-72v11q44 0 44 46h88zM263 694v-694h-263v694h263zM176 661h-89v-628h89v628z" />
    <glyph glyph-name="Ograve" unicode="&#xd2;" 
d="M148 725q-29 0 -45 16.5t-16 40.5h89q0 -46 44 -46v-11h-72zM263 694v-694h-263v694h263zM176 661h-89v-628h89v628z" />
    <glyph glyph-name="ograve" unicode="&#xf2;" 
d="M148 725q-29 0 -45 16.5t-16 40.5h89q0 -46 44 -46v-11h-72zM263 694v-694h-263v694h263zM176 661h-89v-628h89v628z" />
    <glyph glyph-name="Adieresis" unicode="&#xc4;" 
d="M0 694h263v-694h-87v176q-17 -18 -40 -28.5t-49 -10.5v-137h-87v435h87q18 0 33.5 6.5t27.5 18t19.5 26.5t8.5 33v142h-89v-143h-87v176zM176 440q-17 -17 -40 -27.5t-49 -10.5v-232q18 0 33.5 6.5t27.5 18t19.5 26.5t8.5 33v186zM43 727q-18 0 -30.5 13t-12.5 31
t12.5 30.5t30.5 12.5q19 0 31.5 -12.5t12.5 -30.5t-12.5 -31t-31.5 -13zM220 727q-18 0 -31 13t-13 31t13 30.5t31 12.5t30.5 -12.5t12.5 -30.5t-12.5 -31t-30.5 -13z" />
    <glyph glyph-name="adieresis" unicode="&#xe4;" 
d="M0 694h263v-694h-87v176q-17 -18 -40 -28.5t-49 -10.5v-137h-87v435h87q18 0 33.5 6.5t27.5 18t19.5 26.5t8.5 33v142h-89v-143h-87v176zM176 440q-17 -17 -40 -27.5t-49 -10.5v-232q18 0 33.5 6.5t27.5 18t19.5 26.5t8.5 33v186zM43 727q-18 0 -30.5 13t-12.5 31
t12.5 30.5t30.5 12.5q19 0 31.5 -12.5t12.5 -30.5t-12.5 -31t-31.5 -13zM220 727q-18 0 -31 13t-13 31t13 30.5t31 12.5t30.5 -12.5t12.5 -30.5t-12.5 -31t-30.5 -13z" />
    <glyph glyph-name="Agrave" unicode="&#xc0;" 
d="M148 725q-29 0 -45 16.5t-16 40.5h89q0 -46 44 -46v-11h-72zM263 694v-694h-87v176q-17 -18 -40 -28.5t-49 -10.5v-137h-87v435h87q18 0 33.5 6.5t27.5 18t19.5 26.5t8.5 33v142h-89v-143h-87v176h263zM176 440q-17 -17 -40 -27.5t-49 -10.5v-232q18 0 33.5 6.5t27.5 18
t19.5 26.5t8.5 33v186z" />
    <glyph glyph-name="agrave" unicode="&#xe0;" 
d="M148 725q-29 0 -45 16.5t-16 40.5h89q0 -46 44 -46v-11h-72zM263 694v-694h-87v176q-17 -18 -40 -28.5t-49 -10.5v-137h-87v435h87q18 0 33.5 6.5t27.5 18t19.5 26.5t8.5 33v142h-89v-143h-87v176h263zM176 440q-17 -17 -40 -27.5t-49 -10.5v-232q18 0 33.5 6.5t27.5 18
t19.5 26.5t8.5 33v186z" />
    <glyph glyph-name="Aacute" unicode="&#xc1;" 
d="M175 782q0 -24 -15.5 -40.5t-44.5 -16.5h-72v11q44 0 44 46h88zM263 694v-694h-87v176q-17 -18 -40 -28.5t-49 -10.5v-137h-87v435h87q18 0 33.5 6.5t27.5 18t19.5 26.5t8.5 33v142h-89v-143h-87v176h263zM176 440q-17 -17 -40 -27.5t-49 -10.5v-232q18 0 33.5 6.5
t27.5 18t19.5 26.5t8.5 33v186z" />
    <glyph glyph-name="aacute" unicode="&#xe1;" 
d="M175 782q0 -24 -15.5 -40.5t-44.5 -16.5h-72v11q44 0 44 46h88zM263 694v-694h-87v176q-17 -18 -40 -28.5t-49 -10.5v-137h-87v435h87q18 0 33.5 6.5t27.5 18t19.5 26.5t8.5 33v142h-89v-143h-87v176h263zM176 440q-17 -17 -40 -27.5t-49 -10.5v-232q18 0 33.5 6.5
t27.5 18t19.5 26.5t8.5 33v186z" />
    <glyph glyph-name="Uacute" unicode="&#xda;" 
d="M176 782q0 -24 -16 -40.5t-45 -16.5h-72v11q44 0 44 46h89zM263 694v-694h-263v694h87v-661h89v661h87z" />
    <glyph glyph-name="uacute" unicode="&#xfa;" 
d="M176 782q0 -24 -16 -40.5t-45 -16.5h-72v11q44 0 44 46h89zM263 694v-694h-263v694h87v-661h89v661h87z" />
    <glyph glyph-name="Ugrave" unicode="&#xd9;" 
d="M148 725q-29 0 -44.5 16.5t-15.5 40.5h88q0 -46 44 -46v-11h-72zM263 694v-694h-263v694h87v-661h89v661h87z" />
    <glyph glyph-name="ugrave" unicode="&#xf9;" 
d="M148 725q-29 0 -44.5 16.5t-15.5 40.5h88q0 -46 44 -46v-11h-72zM263 694v-694h-263v694h87v-661h89v661h87z" />
    <glyph glyph-name="Ucircumflex" unicode="&#xdb;" 
d="M263 694v-694h-263v694h87v-661h89v661h87zM131 771q-44 0 -44 -46h-87q0 23 16 40t45 17h70h71q29 0 44.5 -17t15.5 -40h-86q0 23 -10.5 34.5t-34.5 11.5z" />
    <glyph glyph-name="ucircumflex" unicode="&#xfb;" 
d="M263 694v-694h-263v694h87v-661h89v661h87zM131 771q-44 0 -44 -46h-87q0 23 16 40t45 17h70h71q29 0 44.5 -17t15.5 -40h-86q0 23 -10.5 34.5t-34.5 11.5z" />
    <glyph glyph-name="Ocircumflex" unicode="&#xd4;" 
d="M0 694h263v-694h-263v694zM176 33v628h-89v-628h89zM132 765l-41 -40h-46l87 87l87 -87h-47z" />
    <glyph glyph-name="ocircumflex" unicode="&#xf4;" 
d="M0 694h263v-694h-263v694zM176 33v628h-89v-628h89zM132 765l-41 -40h-46l87 87l87 -87h-47z" />
    <glyph glyph-name="Acircumflex" unicode="&#xc2;" 
d="M91 725h-46l87 87l87 -87h-47l-40 40zM263 694v-694h-87v176q-17 -18 -40 -28.5t-49 -10.5v-137h-87v435h87q18 0 33.5 6.5t27.5 18t19.5 26.5t8.5 33v142h-89v-143h-87v176h263zM176 440q-17 -17 -40 -27.5t-49 -10.5v-232q18 0 33.5 6.5t27.5 18t19.5 26.5t8.5 33v186z
" />
    <glyph glyph-name="acircumflex" unicode="&#xe2;" 
d="M91 725h-46l87 87l87 -87h-47l-40 40zM263 694v-694h-87v176q-17 -18 -40 -28.5t-49 -10.5v-137h-87v435h87q18 0 33.5 6.5t27.5 18t19.5 26.5t8.5 33v142h-89v-143h-87v176h263zM176 440q-17 -17 -40 -27.5t-49 -10.5v-232q18 0 33.5 6.5t27.5 18t19.5 26.5t8.5 33v186z
" />
    <glyph glyph-name="Ecircumflex" unicode="&#xca;" 
d="M176 518v143h-89v-137q0 -41 23.5 -65t65.5 -24v-33q-42 0 -65.5 -24t-23.5 -64v-281h89v226h87v-259h-263v313q0 42 25.5 67t59.5 39q-34 13 -59.5 38t-25.5 67v170h263v-176h-87zM131 771q-44 0 -44 -46h-87q0 23 16 40t45 17h70h71q29 0 44.5 -17t15.5 -40h-86
q0 23 -10.5 34.5t-34.5 11.5z" />
    <glyph glyph-name="ecircumflex" unicode="&#xea;" 
d="M176 518v143h-89v-137q0 -41 23.5 -65t65.5 -24v-33q-42 0 -65.5 -24t-23.5 -64v-281h89v226h87v-259h-263v313q0 42 25.5 67t59.5 39q-34 13 -59.5 38t-25.5 67v170h263v-176h-87zM131 771q-44 0 -44 -46h-87q0 23 16 40t45 17h70h71q29 0 44.5 -17t15.5 -40h-86
q0 23 -10.5 34.5t-34.5 11.5z" />
    <glyph glyph-name="Egrave" unicode="&#xc8;" 
d="M148 725q-29 0 -44.5 16.5t-15.5 40.5h88q0 -46 44 -46v-11h-72zM176 518v143h-89v-137q0 -41 23.5 -65t65.5 -24v-33q-42 0 -65.5 -24t-23.5 -64v-281h89v226h87v-259h-263v313q0 42 25.5 67t59.5 39q-34 13 -59.5 38t-25.5 67v170h263v-176h-87z" />
    <glyph glyph-name="egrave" unicode="&#xe8;" 
d="M148 725q-29 0 -44.5 16.5t-15.5 40.5h88q0 -46 44 -46v-11h-72zM176 518v143h-89v-137q0 -41 23.5 -65t65.5 -24v-33q-42 0 -65.5 -24t-23.5 -64v-281h89v226h87v-259h-263v313q0 42 25.5 67t59.5 39q-34 13 -59.5 38t-25.5 67v170h263v-176h-87z" />
    <glyph glyph-name="eacute" unicode="&#xe9;" 
d="M176 782q0 -24 -16 -40.5t-45 -16.5h-72v11q44 0 44 46h89zM176 518v143h-89v-137q0 -41 23.5 -65t65.5 -24v-33q-42 0 -65.5 -24t-23.5 -64v-281h89v226h87v-259h-263v313q0 42 25.5 67t59.5 39q-34 13 -59.5 38t-25.5 67v170h263v-176h-87z" />
    <glyph glyph-name="Eacute" unicode="&#xc9;" 
d="M176 782q0 -24 -16 -40.5t-45 -16.5h-72v11q44 0 44 46h89zM176 518v143h-89v-137q0 -41 23.5 -65t65.5 -24v-33q-42 0 -65.5 -24t-23.5 -64v-281h89v226h87v-259h-263v313q0 42 25.5 67t59.5 39q-34 13 -59.5 38t-25.5 67v170h263v-176h-87z" />
    <glyph glyph-name="Edieresis" unicode="&#xcb;" 
d="M220 727q-18 0 -31 13t-13 31t13 30.5t31 12.5t30.5 -12.5t12.5 -30.5t-12.5 -31t-30.5 -13zM43 727q-18 0 -31 13t-13 31t13 30.5t31 12.5t30.5 -12.5t12.5 -30.5t-12.5 -31t-30.5 -13zM0 694h263v-176h-87v143h-89v-137q0 -41 23.5 -65t65.5 -24v-33q-42 0 -65.5 -24
t-23.5 -64v-281h89v226h87v-259h-263v313q0 42 25.5 67t59.5 39q-34 13 -59.5 38t-25.5 67v170z" />
    <glyph glyph-name="edieresis" unicode="&#xeb;" 
d="M220 727q-18 0 -31 13t-13 31t13 30.5t31 12.5t30.5 -12.5t12.5 -30.5t-12.5 -31t-30.5 -13zM43 727q-18 0 -31 13t-13 31t13 30.5t31 12.5t30.5 -12.5t12.5 -30.5t-12.5 -31t-30.5 -13zM0 694h263v-176h-87v143h-89v-137q0 -41 23.5 -65t65.5 -24v-33q-42 0 -65.5 -24
t-23.5 -64v-281h89v226h87v-259h-263v313q0 42 25.5 67t59.5 39q-34 13 -59.5 38t-25.5 67v170z" />
    <glyph glyph-name="yen" unicode="&#xa5;" 
d="M263 518q0 -35 -26.5 -55t-61.5 -31v-52h88v-33h-88v-55h88v-33h-88v-259h-87v259h-88v33h88v55h-88v33h88v52q-35 11 -61.5 31t-26.5 55v176h87v-176q0 -26 12.5 -46.5t32.5 -31.5q20 11 32 31.5t12 46.5v176h87v-176v0z" />
    <glyph glyph-name="Euro" unicode="&#x20ac;" horiz-adv-x="355" 
d="M264 518h-87v143h-89v-226h89v-33h-89v-55h89v-33h-89v-281h89v226h87v-259h-263v314h-44v33h44v55h-44v33h44v259h263v-176v0z" />
    <glyph glyph-name="questiondown" unicode="&#xbf;" 
d="M0 -33v170q0 43 26.5 68t61.5 38v242h87v-259q-42 0 -65 -24t-23 -65v-137h89v138h87v-171h-263zM175 573h-87v88h87v-88z" />
    <glyph glyph-name="exclamdown" unicode="&#xa1;" horiz-adv-x="178" 
d="M87 485v-519h-87v519h87zM87 660v-88h-87v88h87z" />
    <glyph glyph-name="iacute" unicode="&#xed;" horiz-adv-x="180" 
d="M88 782q0 -24 -15.5 -40.5t-44.5 -16.5h-71v11q24 0 34.5 11t10.5 35h86zM89 694v-694h-87v694h87z" />
    <glyph glyph-name="igrave" unicode="&#xec;" horiz-adv-x="222" 
d="M87 782q0 -46 44 -46v-11h-70q-29 0 -45 16.5t-16 40.5h87zM1 694h87v-694h-87v694z" />
    <glyph glyph-name="icircumflex" unicode="&#xee;" horiz-adv-x="205" 
d="M131 782q29 0 45 -17t16 -40h-87q0 46 -44 46q-24 0 -34.5 -11.5t-10.5 -34.5h-86q0 23 15.5 40t44.5 17h141zM18 694h87v-694h-87v694z" />
    <glyph glyph-name="idieresis" unicode="&#xef;" horiz-adv-x="206" 
d="M-27 814q18 0 31 -12.5t13 -30.5t-13 -31t-31 -13t-30.5 13t-12.5 31t12.5 30.5t30.5 12.5zM150 814q18 0 30.5 -12.5t12.5 -30.5t-12.5 -31t-30.5 -13t-31 13t-13 31t13 30.5t31 12.5zM19 694h87v-694h-87v694z" />
    <glyph glyph-name="Aring" unicode="&#xc5;" 
d="M263 694v-694h-87v176q-17 -18 -40 -28.5t-49 -10.5v-137h-87v435h87q18 0 33.5 6.5t27.5 18t19.5 26.5t8.5 33v142h-89v-143h-87v176h263zM176 440q-17 -17 -40 -27.5t-49 -10.5v-232q18 0 33.5 6.5t27.5 18t19.5 26.5t8.5 33v186zM132 727q-18 0 -31 13t-13 31t13 30.5
t31 12.5t30.5 -12.5t12.5 -30.5t-12.5 -31t-30.5 -13zM132 782q-11 0 -11 -11t11 -11t11 11t-11 11z" />
    <glyph glyph-name="aring" unicode="&#xe5;" 
d="M263 694v-694h-87v176q-17 -18 -40 -28.5t-49 -10.5v-137h-87v435h87q18 0 33.5 6.5t27.5 18t19.5 26.5t8.5 33v142h-89v-143h-87v176h263zM176 440q-17 -17 -40 -27.5t-49 -10.5v-232q18 0 33.5 6.5t27.5 18t19.5 26.5t8.5 33v186zM132 727q-18 0 -31 13t-13 31t13 30.5
t31 12.5t30.5 -12.5t12.5 -30.5t-12.5 -31t-30.5 -13zM132 782q-11 0 -11 -11t11 -11t11 11t-11 11z" />
    <glyph glyph-name="Atilde" unicode="&#xc3;" 
d="M0 694h263v-694h-87v176q-17 -18 -40 -28.5t-49 -10.5v-137h-87v435h87q18 0 33.5 6.5t27.5 18t19.5 26.5t8.5 33v142h-89v-143h-87v176zM176 440q-17 -17 -40 -27.5t-49 -10.5v-232q18 0 33.5 6.5t27.5 18t19.5 26.5t8.5 33v186zM78 788q-19 0 -32.5 -13t-13.5 -33h-33
q0 33 23 56t56 23q29 0 43 -12.5t24 -25.5q8 -11 15.5 -17.5t24.5 -6.5q20 0 33 13t13 33h33q0 -33 -23 -56t-56 -23q-29 0 -43 12.5t-24 25.5q-8 11 -15.5 17.5t-24.5 6.5z" />
    <glyph glyph-name="atilde" unicode="&#xe3;" 
d="M0 694h263v-694h-87v176q-17 -18 -40 -28.5t-49 -10.5v-137h-87v435h87q18 0 33.5 6.5t27.5 18t19.5 26.5t8.5 33v142h-89v-143h-87v176zM176 440q-17 -17 -40 -27.5t-49 -10.5v-232q18 0 33.5 6.5t27.5 18t19.5 26.5t8.5 33v186zM78 788q-19 0 -32.5 -13t-13.5 -33h-33
q0 33 23 56t56 23q29 0 43 -12.5t24 -25.5q8 -11 15.5 -17.5t24.5 -6.5q20 0 33 13t13 33h33q0 -33 -23 -56t-56 -23q-29 0 -43 12.5t-24 25.5q-8 11 -15.5 17.5t-24.5 6.5z" />
    <glyph glyph-name="Otilde" unicode="&#xd5;" 
d="M0 694h263v-694h-263v694zM87 33h89v628h-89v-628zM78 788q-19 0 -32.5 -13t-13.5 -33h-33q0 33 23 56t56 23q29 0 43 -12.5t24 -25.5q8 -11 15.5 -17.5t24.5 -6.5q20 0 33 13t13 33h33q0 -33 -23 -56t-56 -23q-29 0 -43 12.5t-24 25.5q-8 11 -15.5 17.5t-24.5 6.5z" />
    <glyph glyph-name="otilde" unicode="&#xf5;" 
d="M0 694h263v-694h-263v694zM87 33h89v628h-89v-628zM78 788q-19 0 -32.5 -13t-13.5 -33h-33q0 33 23 56t56 23q29 0 43 -12.5t24 -25.5q8 -11 15.5 -17.5t24.5 -6.5q20 0 33 13t13 33h33q0 -33 -23 -56t-56 -23q-29 0 -43 12.5t-24 25.5q-8 11 -15.5 17.5t-24.5 6.5z" />
    <glyph glyph-name="Ntilde" unicode="&#xd1;" 
d="M78 788q-19 0 -32.5 -13t-13.5 -33h-33q0 33 23 56t56 23q29 0 43 -12.5t24 -25.5q8 -11 15.5 -17.5t24.5 -6.5q20 0 33 13t13 33h33q0 -33 -23 -56t-56 -23q-29 0 -43 12.5t-24 25.5q-8 11 -15.5 17.5t-24.5 6.5zM176 694h87v-694h-87v402q-26 0 -49 10.5t-40 27.5v-440
h-87v694h87v-175q1 -18 8.5 -33t19.5 -26.5t27.5 -18t33.5 -6.5v259z" />
    <glyph glyph-name="ntilde" unicode="&#xf1;" 
d="M78 788q-19 0 -32.5 -13t-13.5 -33h-33q0 33 23 56t56 23q29 0 43 -12.5t24 -25.5q8 -11 15.5 -17.5t24.5 -6.5q20 0 33 13t13 33h33q0 -33 -23 -56t-56 -23q-29 0 -43 12.5t-24 25.5q-8 11 -15.5 17.5t-24.5 6.5zM176 694h87v-694h-87v402q-26 0 -49 10.5t-40 27.5v-440
h-87v694h87v-175q1 -18 8.5 -33t19.5 -26.5t27.5 -18t33.5 -6.5v259z" />
    <glyph glyph-name="greaterequal" unicode="&#x2265;" horiz-adv-x="353" 
d="M0 121h262v-33h-262v33zM87 171h-87l175 218l-175 217h87l175 -217z" />
    <glyph glyph-name="lessequal" unicode="&#x2264;" horiz-adv-x="353" 
d="M262 121v-33h-262v33h262v0zM175 171l-175 218l175 217h87l-175 -217l175 -218h-87v0z" />
    <glyph glyph-name="plusminus" unicode="&#xb1;" horiz-adv-x="353" 
d="M175 319h87v-32h-87v-115h-88v115h-87v32h87v115h88v-115zM0 88v33h262v-33h-262z" />
    <glyph glyph-name="asterisk" unicode="*" horiz-adv-x="259" 
d="M168 695l-51 -30l51 -29l-17 -29l-51 30v-59h-33v59l-51 -30l-16 29l51 29l-51 30l16 28l51 -29v58h33v-58l51 29l17 -28v0z" />
    <glyph glyph-name="asciitilde" unicode="~" horiz-adv-x="355" 
d="M78 318q-19 0 -32.5 -13.5t-13.5 -32.5h-33q0 32 23 55.5t56 23.5q29 0 43 -12.5t24 -25.5q8 -11 15.5 -18t24.5 -7q20 0 33 13.5t13 32.5h33q0 -32 -23 -55.5t-56 -23.5q-29 0 -43 12.5t-24 25.5q-8 11 -15.5 18t-24.5 7z" />
    <glyph glyph-name="approxequal" unicode="&#x2248;" horiz-adv-x="355" 
d="M78 384q-19 0 -32.5 -13.5t-13.5 -32.5h-33q0 32 23 55.5t56 23.5q29 0 43 -12.5t24 -25.5q8 -11 15.5 -18t24.5 -7q20 0 33 13.5t13 32.5h33q0 -32 -23 -55.5t-56 -23.5q-29 0 -43 12.5t-24 25.5q-8 11 -15.5 18t-24.5 7zM185 234q20 0 33 13t13 32h33q0 -32 -23 -55
t-56 -23q-29 0 -43 12.5t-24 24.5q-8 11 -15.5 18t-24.5 7q-19 0 -32.5 -13.5t-13.5 -32.5h-33q0 32 23 55.5t56 23.5q29 0 43 -12.5t24 -25.5q8 -11 15.5 -17.5t24.5 -6.5z" />
    <glyph glyph-name="degree" unicode="&#xb0;" horiz-adv-x="178" 
d="M43 640q-18 0 -30.5 12.5t-12.5 31.5q0 18 12.5 30.5t30.5 12.5q19 0 31.5 -12.5t12.5 -30.5q0 -19 -12.5 -31.5t-31.5 -12.5zM43 695q-11 0 -11 -11t11 -11q12 0 12 11t-12 11z" />
    <glyph glyph-name="AE" unicode="&#xc6;" horiz-adv-x="708" 
d="M352 518v143h-89v-137q0 -41 23.5 -65t65.5 -24v-33q-42 0 -65.5 -24t-23.5 -64v-281h89v226h87v-259h-263v176q-17 -18 -40 -28.5t-49 -10.5v-137h-87v435h87q18 0 33.5 6.5t27.5 18t19.5 26.5t8.5 33v142h-89v-143h-87v176h439v-176h-87zM176 440q-17 -17 -40 -27.5
t-49 -10.5v-232q18 0 33.5 6.5t27.5 18t19.5 26.5t8.5 33v186z" />
    <glyph glyph-name="ae" unicode="&#xe6;" horiz-adv-x="708" 
d="M352 518v143h-89v-137q0 -41 23.5 -65t65.5 -24v-33q-42 0 -65.5 -24t-23.5 -64v-281h89v226h87v-259h-263v176q-17 -18 -40 -28.5t-49 -10.5v-137h-87v435h87q18 0 33.5 6.5t27.5 18t19.5 26.5t8.5 33v142h-89v-143h-87v176h439v-176h-87zM176 440q-17 -17 -40 -27.5
t-49 -10.5v-232q18 0 33.5 6.5t27.5 18t19.5 26.5t8.5 33v186z" />
    <glyph glyph-name="OE" unicode="&#x152;" horiz-adv-x="708" 
d="M352 518v143h-89v-142q2 -38 25 -61t64 -23v-33q-42 0 -65.5 -24t-23.5 -64v-281h89v226h87v-259h-439v694h439v-176h-87zM87 33h89v628h-89v-628z" />
    <glyph glyph-name="oe" unicode="&#x153;" horiz-adv-x="708" 
d="M352 518v143h-89v-142q2 -38 25 -61t64 -23v-33q-42 0 -65.5 -24t-23.5 -64v-281h89v226h87v-259h-439v694h439v-176h-87zM87 33h89v628h-89v-628z" />
    <glyph glyph-name="quoteright" unicode="&#x2019;" horiz-adv-x="178" 
d="M0 751h87v-88q0 -23 -16 -40t-45 -17h-70v11q44 0 44 46v88z" />
    <glyph glyph-name="dagger" unicode="&#x2020;" horiz-adv-x="262" 
d="M219 516v-33h-88v-574h-87v574h-87v33h87v178h87v-178h88v0z" />
    <glyph glyph-name="daggerdbl" unicode="&#x2021;" horiz-adv-x="262" 
d="M219 483h-88v-164h88v-32h-88v-378h-87v378h-87v32h87v164h-87v33h87v178h87v-178h88v-33v0z" />
    <glyph glyph-name="florin" unicode="&#x192;" horiz-adv-x="310" 
d="M219 485h-88v-449q0 -35 -19 -58.5t-46 -37.5t-57 -20t-52 -6v34q42 0 64.5 23.5t22.5 64.5v449h-87v33h87v144q0 35 19 58.5t46 37.5t57 20t53 6v-33q-42 0 -65 -24t-23 -65v-144h88v-33z" />
    <glyph glyph-name="bar" unicode="|" horiz-adv-x="178" 
d="M87 784v-872h-87v872h87v0z" />
    <glyph glyph-name="cent" unicode="&#xa2;" 
d="M263 347h-87v138h-89v-452h89v138h87v-171h-88v-87h-87v87h-88v518h88v88h87v-88h88v-171v0z" />
    <glyph glyph-name="sterling" unicode="&#xa3;" horiz-adv-x="397" 
d="M306 33v-33h-349v33h46q41 1 41 46v323h-87v33h87v137q0 35 19 58.5t46 37.5t57 20t53 6v-33q-42 0 -65 -24t-23 -65v-137h88v-33h-88v-323q0 -31 -22 -46h197z" />
    <glyph glyph-name="perthousand" unicode="&#x2030;" horiz-adv-x="1058" 
d="M0 0l528 694h87l-528 -694h-87zM263 694v-176h-263v176h263v0zM176 551v110h-89v-110h89zM352 0v176h263v-176h-263zM439 143v-110h89v110h-89zM704 176h263v-176h-263v176zM879 33v110h-88v-110h88z" />
    <glyph glyph-name="Oslash" unicode="&#xd8;" 
d="M263 694v-694h-158l-5 -33h-33l4 33h-71v694h159l4 33h33l-4 -33h71zM87 661v-535l68 535h-68zM109 33h67v533z" />
    <glyph glyph-name="oslash" unicode="&#xf8;" 
d="M263 694v-694h-158l-5 -33h-33l4 33h-71v694h159l4 33h33l-4 -33h71zM87 661v-535l68 535h-68zM109 33h67v533z" />
    <glyph glyph-name="registered" unicode="&#xae;" horiz-adv-x="703" 
d="M612 0h-612v606h612v-606zM87 33h437v540h-437v-540zM437 518v-176h-134q-17 0 -29.5 -12t-12.5 -29t12.5 -29.5t29.5 -12.5h134v-171h-87v138h-47q-23 0 -42 13v-151h-87v430h263zM261 363q18 12 42 12h47v110h-89v-122z" />
    <glyph glyph-name="copyright" unicode="&#xa9;" horiz-adv-x="703" 
d="M0 606h612v-606h-612v606zM524 33v540h-437v-540h437zM437 259v-171h-263v430h263v-171h-87v138h-88v-364h88v138h87z" />
    <glyph glyph-name="trademark" unicode="&#x2122;" horiz-adv-x="573" 
d="M0 782h219v-88h-44v71h-44v-330h-44v330h-43v-71h-44v88zM482 782v-347h-44v286q-17 0 -30 -12t-14 -30v-244h-44v244q0 19 -13 30.5t-30 11.5v-286h-44v347h44v-44q15 0 33 -7t32 -18q14 11 32.5 18t33.5 7v44h44z" />
    <glyph glyph-name="bullet" unicode="&#x2022;" horiz-adv-x="265" 
d="M130 303q-18 0 -30.5 12.5t-12.5 30.5t12.5 31t30.5 13q19 0 31.5 -13t12.5 -31t-12.5 -30.5t-31.5 -12.5z" />
    <glyph glyph-name="ellipsis" unicode="&#x2026;" horiz-adv-x="528" 
d="M0 -1v88h87v-88h-87zM174 -1v88h88v-88h-88zM349 87h88v-88h-88v88z" />
    <glyph glyph-name="dieresis" unicode="&#xa8;" horiz-adv-x="353" 
d="M218 694q18 0 31 -13t13 -31t-13 -31t-31 -13t-30.5 13t-12.5 31t12.5 31t30.5 13zM44 694q18 0 30.5 -13t12.5 -31t-12.5 -31t-30.5 -13q-19 0 -31.5 13t-12.5 31t12.5 31t31.5 13z" />
    <glyph glyph-name="braceleft" unicode="{" horiz-adv-x="269" 
d="M90 435q0 -17 -8 -31t-24 -21q32 -14 32 -51v-296q0 -41 23 -64.5t65 -23.5v-34q-23 0 -53 6t-57 20t-46 37.5t-19 58.5v296q0 46 -46 46v11h1q45 0 45 46v227q0 35 19 58.5t46 37.5t57 20t53 6v-33q-42 0 -65 -24t-23 -65v-227v0z" />
    <glyph glyph-name="braceright" unicode="}" horiz-adv-x="268" 
d="M44 435v227q0 41 -22.5 65t-64.5 24v33q22 0 52 -6t57 -20t46 -37.5t19 -58.5v-227q0 -46 46 -46v-11q-46 0 -46 -46v-296q0 -35 -19 -58.5t-46 -37.5t-57 -20t-52 -6v34q42 0 64.5 23.5t22.5 64.5v296q0 37 32 51q-16 7 -24 21t-8 31z" />
    <glyph glyph-name="fraction" unicode="&#x2044;" horiz-adv-x="706" 
d="M0 0l528 694h87l-528 -694h-87v0z" />
    <glyph glyph-name="ordfeminine" unicode="&#xaa;" horiz-adv-x="223" 
d="M132 694v-347h-44v88q-17 -19 -44 -19v-69h-44v217h44q17 0 30 12.5t14 29.5v71h-44v-71h-44v88h132zM44 432q17 0 30 12.5t14 29.5v93q-17 -19 -44 -19v-116z" />
    <glyph glyph-name="ordmasculine" unicode="&#xba;" horiz-adv-x="223" 
d="M0 694h132v-347h-132v347zM88 363v314h-44v-314h44z" />
    <glyph glyph-name="twosuperior" unicode="&#xb2;" horiz-adv-x="174" 
d="M131 782v-88q-1 -17 -10.5 -28t-22.5 -18t-28 -9.5t-26 -2.5v-185h44v114h43v-130h-131v217h44q20 0 32 12.5t12 32.5v68h-44v-71h-44v88h131z" />
    <glyph glyph-name="onesuperior" unicode="&#xb9;" horiz-adv-x="175" 
d="M132 435h-44v294q-12 -5 -23.5 -6.5t-20.5 -1.5v-27h-44v44h44q20 0 32 12t12 32h44v-347z" />
    <glyph glyph-name="threesuperior" unicode="&#xb3;" horiz-adv-x="175" 
d="M132 697q0 -21 -13 -33.5t-30 -19.5q17 -6 30 -19t13 -33v-157h-132v130h44v-114h44v141q0 20 -12 32t-32 12v17q20 0 32 12t12 32v68h-44v-71h-44v88h132v-85v0z" />
    <glyph glyph-name="onehalf" unicode="&#xbd;" horiz-adv-x="662" 
d="M528 694h43l-528 -694h-43zM571 347v-88q-1 -17 -10.5 -28t-23 -18t-28.5 -9.5t-26 -2.5v-185h45v114h43v-130h-131v217h43q21 0 33 12.5t12 32.5v68h-45v-71h-43v88h131zM132 347h-44v294q-26 -8 -44 -8v-27h-44v44h44q20 0 32 12t12 32h44v-347z" />
    <glyph glyph-name="onequarter" unicode="&#xbc;" horiz-adv-x="662" 
d="M571 694l-528 -694h-43l528 694h43zM44 606h-44v44h44q20 0 32 12t12 32h44v-347h-44v294q-26 -8 -44 -8v-27zM571 347v-347h-44v201h-87v146h43v-130h44v130h44z" />
    <glyph glyph-name="threequarters" unicode="&#xbe;" horiz-adv-x="662" 
d="M571 694l-528 -694h-43l528 694h43zM571 347v-347h-44v201h-87v146h43v-130h44v130h44zM132 347h-132v130h44v-113h44v140q0 20 -12 32t-32 12v17q20 0 32 12t12 32v69h-44v-72h-44v88h132v-85q0 -21 -13 -33.5t-30 -19.5q17 -6 30 -18.5t13 -33.5v-157z" />
    <glyph glyph-name="asciicircum" unicode="^" horiz-adv-x="526" 
d="M0 606l217 174l218 -174h-109l-109 87l-108 -87h-109v0z" />
    <glyph glyph-name="section" unicode="&#xa7;" horiz-adv-x="357" 
d="M266 694v-33h-91q-42 0 -65 -24t-23 -65v-90h1q0 -45 43 -46h2v-11h-2q-43 0 -43 -46v-44q0 -23 10.5 -34.5t34.5 -11.5v-11h-72q-29 0 -45 17t-16 40v44q0 17 8 31t24 21q-16 7 -24 20.5t-8 30.5v90q0 35 19 58.5t46 37.5t57 20t53 6h91zM205 436q29 0 45 -16.5
t16 -40.5v-44q0 -37 -33 -51q16 -7 24.5 -21t8.5 -31v-144q0 -35 -19 -58.5t-46 -37.5t-57 -20t-53 -6h-91v34h91q42 0 64.5 23.5t22.5 64.5v144h-1q0 23 -9.5 34.5t-32.5 11.5h-2v11h2q23 1 32.5 12t9.5 34v44q0 46 -44 46v11h72z" />
    <glyph glyph-name="paragraph" unicode="&#xb6;" horiz-adv-x="543" 
d="M500 661h-44v-749h-87v749h-88v-749h-87v406q-1 18 -8.5 33t-19.5 26.5t-27.5 18t-33.5 6.5h-87v292h482v-33z" />
    <glyph glyph-name="Eth" unicode="&#xd0;" 
d="M87 694q25 0 55.5 -9.5t57 -26t45 -38.5t18.5 -47v-573h-263v402h-44v33h44v259h87zM176 572q0 37 -26 63t-63 26v-226h44v-33h-44v-369h89v539z" />
    <glyph glyph-name="multiply" unicode="&#xd7;" horiz-adv-x="338" 
d="M247 365l-61 -62l61 -62l-62 -62l-61 62l-62 -62l-62 62l62 62l-62 62l62 62l62 -62l61 62l62 -62v0z" />
    <glyph glyph-name="Yacute" unicode="&#xdd;" 
d="M176 782q0 -24 -16 -40.5t-45 -16.5h-72v11q24 0 34 11t10 35h89zM263 694v-176q0 -35 -26.5 -55t-61.5 -31v-432h-87v432q-35 11 -61.5 31t-26.5 55v176h87v-176q0 -26 12.5 -46.5t32.5 -31.5q20 11 32 31.5t12 46.5v176h87z" />
    <glyph glyph-name="yacute" unicode="&#xfd;" 
d="M176 782q0 -24 -16 -40.5t-45 -16.5h-72v11q24 0 34 11t10 35h89zM263 694v-176q0 -35 -26.5 -55t-61.5 -31v-432h-87v432q-35 11 -61.5 31t-26.5 55v176h87v-176q0 -26 12.5 -46.5t32.5 -31.5q20 11 32 31.5t12 46.5v176h87z" />
    <glyph glyph-name="Thorn" unicode="&#xde;" 
d="M87 606q25 0 55.5 -9.5t57 -26t45 -38.5t18.5 -47v-485h-176v-33h-87v727h87v-88zM176 484q0 37 -26 63t-63 26v-540h89v451z" />
    <glyph glyph-name="thorn" unicode="&#xfe;" 
d="M87 606q25 0 55.5 -9.5t57 -26t45 -38.5t18.5 -47v-485h-176v-33h-87v727h87v-88zM176 484q0 37 -26 63t-63 26v-540h89v451z" />
    <glyph glyph-name="eth" unicode="&#xf0;" 
d="M87 694q25 0 55.5 -9.5t57 -26t45 -38.5t18.5 -47v-573h-263v402h-44v33h44v259h87zM176 572q0 37 -26 63t-63 26v-226h44v-33h-44v-369h89v539z" />
    <glyph glyph-name="Amacron" unicode="&#x100;" 
d="M263 694v-694h-87v176q-17 -18 -40 -28.5t-49 -10.5v-137h-87v435h87q18 0 33.5 6.5t27.5 18t19.5 26.5t8.5 33v142h-89v-143h-87v176h263zM176 440q-17 -17 -40 -27.5t-49 -10.5v-232q18 0 33.5 6.5t27.5 18t19.5 26.5t8.5 33v186zM219 725h-175v33h175v-33z" />
    <glyph glyph-name="amacron" unicode="&#x101;" 
d="M263 694v-694h-87v176q-17 -18 -40 -28.5t-49 -10.5v-137h-87v435h87q18 0 33.5 6.5t27.5 18t19.5 26.5t8.5 33v142h-89v-143h-87v176h263zM176 440q-17 -17 -40 -27.5t-49 -10.5v-232q18 0 33.5 6.5t27.5 18t19.5 26.5t8.5 33v186zM219 725h-175v33h175v-33z" />
    <glyph glyph-name="Abreve" unicode="&#x102;" horiz-adv-x="355" 
d="M61 725q-29 0 -45 16.5t-16 40.5h88q0 -46 44 -46t44 46h88q0 -24 -15.5 -40.5t-44.5 -16.5h-71h-1h-71zM0 694h263v-694h-87v176q-17 -18 -40 -28.5t-49 -10.5v-137h-87v435h87q18 0 33.5 6.5t27.5 18t19.5 26.5t8.5 33v142h-89v-143h-87v176zM176 440
q-17 -17 -40 -27.5t-49 -10.5v-232q18 0 33.5 6.5t27.5 18t19.5 26.5t8.5 33v186z" />
    <glyph glyph-name="abreve" unicode="&#x103;" horiz-adv-x="355" 
d="M61 725q-29 0 -45 16.5t-16 40.5h88q0 -46 44 -46t44 46h88q0 -24 -15.5 -40.5t-44.5 -16.5h-71h-1h-71zM0 694h263v-694h-87v176q-17 -18 -40 -28.5t-49 -10.5v-137h-87v435h87q18 0 33.5 6.5t27.5 18t19.5 26.5t8.5 33v142h-89v-143h-87v176zM176 440
q-17 -17 -40 -27.5t-49 -10.5v-232q18 0 33.5 6.5t27.5 18t19.5 26.5t8.5 33v186z" />
    <glyph glyph-name="Aogonek" unicode="&#x104;" horiz-adv-x="352" 
d="M263 0q0 -46 46 -46v-11h-72q-29 0 -45 16.5t-16 40.5v176q-17 -18 -40 -28.5t-49 -10.5v-137h-87v435h87q18 0 33.5 6.5t27.5 18t19.5 26.5t8.5 33v142h-89v-143h-87v176h263v-694zM176 440q-17 -17 -40 -27.5t-49 -10.5v-232q18 0 33.5 6.5t27.5 18t19.5 26.5t8.5 33
v186z" />
    <glyph glyph-name="aogonek" unicode="&#x105;" horiz-adv-x="352" 
d="M263 0q0 -46 46 -46v-11h-72q-29 0 -45 16.5t-16 40.5v176q-17 -18 -40 -28.5t-49 -10.5v-137h-87v435h87q18 0 33.5 6.5t27.5 18t19.5 26.5t8.5 33v142h-89v-143h-87v176h263v-694zM176 440q-17 -17 -40 -27.5t-49 -10.5v-232q18 0 33.5 6.5t27.5 18t19.5 26.5t8.5 33
v186z" />
    <glyph glyph-name="Cacute" unicode="&#x106;" 
d="M176 782q0 -24 -16 -40.5t-45 -16.5h-72v11q24 0 34 11t10 35h89zM176 518v143h-89v-628h89v226h87v-259h-263v694h263v-176h-87z" />
    <glyph glyph-name="cacute" unicode="&#x107;" 
d="M176 782q0 -24 -16 -40.5t-45 -16.5h-72v11q24 0 34 11t10 35h89zM176 518v143h-89v-628h89v226h87v-259h-263v694h263v-176h-87z" />
    <glyph glyph-name="Ccircumflex" unicode="&#x108;" 
d="M263 518h-87v143h-89v-628h89v226h87v-259h-263v694h263v-176zM132 765l-41 -40h-46l87 87l87 -87h-47z" />
    <glyph glyph-name="ccircumflex" unicode="&#x109;" 
d="M263 518h-87v143h-89v-628h89v226h87v-259h-263v694h263v-176zM132 765l-41 -40h-46l87 87l87 -87h-47z" />
    <glyph glyph-name="Ccaron" unicode="&#x10c;" 
d="M263 518h-87v143h-89v-628h89v226h87v-259h-263v694h263v-176zM219 812l-87 -87l-87 87h46l41 -40l40 40h47z" />
    <glyph glyph-name="ccaron" unicode="&#x10d;" 
d="M263 518h-87v143h-89v-628h89v226h87v-259h-263v694h263v-176zM219 812l-87 -87l-87 87h46l41 -40l40 40h47z" />
    <glyph glyph-name="Dcaron" unicode="&#x10e;" 
d="M132 725l-87 87h46l41 -40l40 40h47zM87 694q25 0 55.5 -9.5t57 -26t45 -38.5t18.5 -47v-573h-263v694h87zM176 572q0 37 -26 63t-63 26v-628h89v539z" />
    <glyph glyph-name="dcaron" unicode="&#x10f;" 
d="M132 725l-87 87h46l41 -40l40 40h47zM87 694q25 0 55.5 -9.5t57 -26t45 -38.5t18.5 -47v-573h-263v694h87zM176 572q0 37 -26 63t-63 26v-628h89v539z" />
    <glyph glyph-name="Dcroat" unicode="&#x110;" 
d="M87 694q25 0 55.5 -9.5t57 -26t45 -38.5t18.5 -47v-573h-263v402h-44v33h44v259h87zM176 572q0 37 -26 63t-63 26v-226h44v-33h-44v-369h89v539z" />
    <glyph glyph-name="dcroat" unicode="&#x111;" 
d="M87 694q25 0 55.5 -9.5t57 -26t45 -38.5t18.5 -47v-573h-263v402h-44v33h44v259h87zM176 572q0 37 -26 63t-63 26v-226h44v-33h-44v-369h89v539z" />
    <glyph glyph-name="Emacron" unicode="&#x112;" 
d="M176 518v143h-89v-137q0 -41 23.5 -65t65.5 -24v-33q-42 0 -65.5 -24t-23.5 -64v-281h89v226h87v-259h-263v313q0 42 25.5 67t59.5 39q-34 13 -59.5 38t-25.5 67v170h263v-176h-87zM219 725h-175v33h175v-33z" />
    <glyph glyph-name="emacron" unicode="&#x113;" 
d="M176 518v143h-89v-137q0 -41 23.5 -65t65.5 -24v-33q-42 0 -65.5 -24t-23.5 -64v-281h89v226h87v-259h-263v313q0 42 25.5 67t59.5 39q-34 13 -59.5 38t-25.5 67v170h263v-176h-87zM219 725h-175v33h175v-33z" />
    <glyph glyph-name="Edotaccent" unicode="&#x116;" 
d="M176 518v143h-89v-137q0 -41 23.5 -65t65.5 -24v-33q-42 0 -65.5 -24t-23.5 -64v-281h89v226h87v-259h-263v313q0 42 25.5 67t59.5 39q-34 13 -59.5 38t-25.5 67v170h263v-176h-87zM132 727q-18 0 -31 13t-13 31t13 30.5t31 12.5t30.5 -12.5t12.5 -30.5t-12.5 -31
t-30.5 -13z" />
    <glyph glyph-name="edotaccent" unicode="&#x117;" 
d="M176 518v143h-89v-137q0 -41 23.5 -65t65.5 -24v-33q-42 0 -65.5 -24t-23.5 -64v-281h89v226h87v-259h-263v313q0 42 25.5 67t59.5 39q-34 13 -59.5 38t-25.5 67v170h263v-176h-87zM132 727q-18 0 -31 13t-13 31t13 30.5t31 12.5t30.5 -12.5t12.5 -30.5t-12.5 -31
t-30.5 -13z" />
    <glyph glyph-name="Eogonek" unicode="&#x118;" 
d="M176 518v143h-89v-137q0 -41 23.5 -65t65.5 -24v-33q-42 0 -65.5 -24t-23.5 -64v-281h89v226h87v-259h-87q0 -46 44 -46v-11h-72q-29 0 -45 16.5t-16 40.5h-87v313q0 42 25.5 67t59.5 39q-34 13 -59.5 38t-25.5 67v170h263v-176h-87z" />
    <glyph glyph-name="eogonek" unicode="&#x119;" 
d="M176 518v143h-89v-137q0 -41 23.5 -65t65.5 -24v-33q-42 0 -65.5 -24t-23.5 -64v-281h89v226h87v-259h-87q0 -46 44 -46v-11h-72q-29 0 -45 16.5t-16 40.5h-87v313q0 42 25.5 67t59.5 39q-34 13 -59.5 38t-25.5 67v170h263v-176h-87z" />
    <glyph glyph-name="Ecaron" unicode="&#x11a;" 
d="M176 518v143h-89v-137q0 -41 23.5 -65t65.5 -24v-33q-42 0 -65.5 -24t-23.5 -64v-281h89v226h87v-259h-263v313q0 42 25.5 67t59.5 39q-34 13 -59.5 38t-25.5 67v170h263v-176h-87zM132 725l-87 87h46l41 -40l40 40h47z" />
    <glyph glyph-name="ecaron" unicode="&#x11b;" 
d="M176 518v143h-89v-137q0 -41 23.5 -65t65.5 -24v-33q-42 0 -65.5 -24t-23.5 -64v-281h89v226h87v-259h-263v313q0 42 25.5 67t59.5 39q-34 13 -59.5 38t-25.5 67v170h263v-176h-87zM132 725l-87 87h46l41 -40l40 40h47z" />
    <glyph glyph-name="Gbreve" unicode="&#x11e;" horiz-adv-x="355" 
d="M61 725q-29 0 -45 16.5t-16 40.5h88q0 -46 44 -46t44 46h88q0 -24 -15.5 -40.5t-44.5 -16.5h-143zM0 694h263v-176h-87v143h-89v-628h89v193h-44v33h131v-259h-263v694z" />
    <glyph glyph-name="gbreve" unicode="&#x11f;" horiz-adv-x="355" 
d="M61 725q-29 0 -45 16.5t-16 40.5h88q0 -46 44 -46t44 46h88q0 -24 -15.5 -40.5t-44.5 -16.5h-143zM0 694h263v-176h-87v143h-89v-628h89v193h-44v33h131v-259h-263v694z" />
    <glyph glyph-name="Gcommaaccent" unicode="&#x122;" 
d="M0 694h263v-176h-87v143h-89v-628h89v193h-44v33h131v-259h-263v694zM43 -79q24 0 34.5 11t10.5 35h88q0 -24 -16 -40.5t-45 -16.5h-72v11z" />
    <glyph glyph-name="gcommaaccent" unicode="&#x123;" 
d="M0 694h263v-176h-87v143h-89v-628h89v193h-44v33h131v-259h-263v694zM43 -79q24 0 34.5 11t10.5 35h88q0 -24 -16 -40.5t-45 -16.5h-72v11z" />
    <glyph glyph-name="Imacron" unicode="&#x12a;" horiz-adv-x="197" 
d="M-21 758h175v-33h-175v33zM23 0v694h87v-694h-87z" />
    <glyph glyph-name="imacron" unicode="&#x12b;" horiz-adv-x="197" 
d="M-21 758h175v-33h-175v33zM23 0v694h87v-694h-87z" />
    <glyph glyph-name="Iogonek" unicode="&#x12e;" horiz-adv-x="176" 
d="M87 0q0 -46 46 -46v-11h-72q-29 0 -45 16.5t-16 40.5v694h87v-694v0z" />
    <glyph glyph-name="iogonek" unicode="&#x12f;" horiz-adv-x="176" 
d="M87 0q0 -46 46 -46v-11h-72q-29 0 -45 16.5t-16 40.5v694h87v-694v0z" />
    <glyph glyph-name="Idotaccent" unicode="&#x130;" horiz-adv-x="179" 
d="M43 727q-18 0 -30.5 13t-12.5 31t12.5 30.5t30.5 12.5q19 0 31.5 -12.5t12.5 -30.5t-12.5 -31t-31.5 -13zM88 694v-694h-87v694h87z" />
    <glyph glyph-name="Kcommaaccent" unicode="&#x136;" 
d="M43 -79q24 0 34.5 11t10.5 35h88q0 -24 -16 -40.5t-45 -16.5h-72v11zM129 518q-17 0 -29.5 -12t-12.5 -29t12.5 -29.5t29.5 -12.5h134v-435h-87v402h-47q-23 0 -42 13v-415h-87v694h87v-156q19 13 42 13h47v143h87v-176h-134z" />
    <glyph glyph-name="kcommaaccent" unicode="&#x137;" 
d="M43 -79q24 0 34.5 11t10.5 35h88q0 -24 -16 -40.5t-45 -16.5h-72v11zM129 518q-17 0 -29.5 -12t-12.5 -29t12.5 -29.5t29.5 -12.5h134v-435h-87v402h-47q-23 0 -42 13v-415h-87v694h87v-156q19 13 42 13h47v143h87v-176h-134z" />
    <glyph glyph-name="Lacute" unicode="&#x139;" 
d="M88 782q0 -24 -15.5 -40.5t-44.5 -16.5h-72v11q44 0 44 46h88zM263 259v-259h-263v694h87v-661h89v226h87z" />
    <glyph glyph-name="lacute" unicode="&#x13a;" 
d="M88 782q0 -24 -15.5 -40.5t-44.5 -16.5h-72v11q44 0 44 46h88zM263 259v-259h-263v694h87v-661h89v226h87z" />
    <glyph glyph-name="Lcommaaccent" unicode="&#x13b;" 
d="M43 -79q24 0 34.5 11t10.5 35h88q0 -24 -16 -40.5t-45 -16.5h-72v11zM263 259v-259h-263v694h87v-661h89v226h87z" />
    <glyph glyph-name="lcommaaccent" unicode="&#x13c;" 
d="M43 -79q24 0 34.5 11t10.5 35h88q0 -24 -16 -40.5t-45 -16.5h-72v11zM263 259v-259h-263v694h87v-661h89v226h87z" />
    <glyph glyph-name="Lcaron" unicode="&#x13d;" horiz-adv-x="353" 
d="M131 812l-87 -87l-88 87h47l41 -40l40 40h47zM175 259h87v-259h-263v694h87v-661h89v226z" />
    <glyph glyph-name="lcaron" unicode="&#x13e;" horiz-adv-x="353" 
d="M131 812l-87 -87l-88 87h47l41 -40l40 40h47zM175 259h87v-259h-263v694h87v-661h89v226z" />
    <glyph glyph-name="Lslash" unicode="&#x141;" 
d="M176 259h87v-259h-263v382l-62 -35l-16 28l78 45v274h87v-223l62 36l16 -29l-78 -45v-400h89v226v0z" />
    <glyph glyph-name="lslash" unicode="&#x142;" 
d="M176 259h87v-259h-263v382l-62 -35l-16 28l78 45v274h87v-223l62 36l16 -29l-78 -45v-400h89v226v0z" />
    <glyph glyph-name="Nacute" unicode="&#x143;" 
d="M176 782q0 -24 -16 -40.5t-45 -16.5h-72v11q44 0 44 46h89zM263 694v-694h-87v402q-26 0 -49 10.5t-40 27.5v-440h-87v694h87v-175q1 -18 8.5 -33t19.5 -26.5t27.5 -18t33.5 -6.5v259h87z" />
    <glyph glyph-name="nacute" unicode="&#x144;" 
d="M176 782q0 -24 -16 -40.5t-45 -16.5h-72v11q44 0 44 46h89zM263 694v-694h-87v402q-26 0 -49 10.5t-40 27.5v-440h-87v694h87v-175q1 -18 8.5 -33t19.5 -26.5t27.5 -18t33.5 -6.5v259h87z" />
    <glyph glyph-name="Ncommaaccent" unicode="&#x145;" 
d="M43 -79q24 0 34.5 11t10.5 35h88q0 -24 -16 -40.5t-45 -16.5h-72v11zM263 694v-694h-87v402q-26 0 -49 10.5t-40 27.5v-440h-87v694h87v-175q1 -18 8.5 -33t19.5 -26.5t27.5 -18t33.5 -6.5v259h87z" />
    <glyph glyph-name="ncommaaccent" unicode="&#x146;" 
d="M43 -79q24 0 34.5 11t10.5 35h88q0 -24 -16 -40.5t-45 -16.5h-72v11zM263 694v-694h-87v402q-26 0 -49 10.5t-40 27.5v-440h-87v694h87v-175q1 -18 8.5 -33t19.5 -26.5t27.5 -18t33.5 -6.5v259h87z" />
    <glyph glyph-name="Ncaron" unicode="&#x147;" 
d="M263 694v-694h-87v402q-26 0 -49 10.5t-40 27.5v-440h-87v694h87v-175q1 -18 8.5 -33t19.5 -26.5t27.5 -18t33.5 -6.5v259h87zM132 725l-87 87h46l41 -40l40 40h47z" />
    <glyph glyph-name="ncaron" unicode="&#x148;" 
d="M263 694v-694h-87v402q-26 0 -49 10.5t-40 27.5v-440h-87v694h87v-175q1 -18 8.5 -33t19.5 -26.5t27.5 -18t33.5 -6.5v259h87zM132 725l-87 87h46l41 -40l40 40h47z" />
    <glyph glyph-name="Omacron" unicode="&#x14c;" 
d="M0 694h263v-694h-263v694zM176 33v628h-89v-628h89zM219 758v-33h-175v33h175z" />
    <glyph glyph-name="omacron" unicode="&#x14d;" 
d="M263 694v-694h-263v694h263zM176 661h-89v-628h89v628zM219 725h-175v33h175v-33z" />
    <glyph glyph-name="Ohungarumlaut" unicode="&#x150;" horiz-adv-x="355" 
d="M0 694h263v-694h-263v694zM87 661h89v-628h-89v628zM88 782q0 -24 -15.5 -40.5t-44.5 -16.5h-72v11q44 0 44 46h88zM264 782q0 -24 -15.5 -40.5t-44.5 -16.5h-72v11q44 0 44 46h88zM263 694v-694h-263v694h263zM176 33h-89v628h89v-628z" />
    <glyph glyph-name="ohungarumlaut" unicode="&#x151;" horiz-adv-x="355" 
d="M0 694h263v-694h-263v694zM87 33h89v628h-89v-628zM88 782q0 -24 -15.5 -40.5t-44.5 -16.5h-72v11q44 0 44 46h88zM264 782q0 -24 -15.5 -40.5t-44.5 -16.5h-72v11q44 0 44 46h88z" />
    <glyph glyph-name="Racute" unicode="&#x154;" 
d="M176 782q0 -24 -16 -40.5t-45 -16.5h-72v11q44 0 44 46h89zM129 518q-17 0 -29.5 -12t-12.5 -29t12.5 -29.5t29.5 -12.5h134v-435h-87v402h-47q-23 0 -42 13v-415h-87v694h263v-176h-134zM87 538q19 13 42 13h47v110h-89v-123z" />
    <glyph glyph-name="racute" unicode="&#x155;" 
d="M176 782q0 -24 -16 -40.5t-45 -16.5h-72v11q44 0 44 46h89zM129 518q-17 0 -29.5 -12t-12.5 -29t12.5 -29.5t29.5 -12.5h134v-435h-87v402h-47q-23 0 -42 13v-415h-87v694h263v-176h-134zM87 538q19 13 42 13h47v110h-89v-123z" />
    <glyph glyph-name="Rcommaaccent" unicode="&#x156;" 
d="M43 -79q24 0 34.5 11t10.5 35h88q0 -24 -16 -40.5t-45 -16.5h-72v11zM129 518q-17 0 -29.5 -12t-12.5 -29t12.5 -29.5t29.5 -12.5h134v-435h-87v402h-47q-23 0 -42 13v-415h-87v694h263v-176h-134zM87 538q19 13 42 13h47v110h-89v-123z" />
    <glyph glyph-name="rcommaaccent" unicode="&#x157;" 
d="M43 -79q24 0 34.5 11t10.5 35h88q0 -24 -16 -40.5t-45 -16.5h-72v11zM129 518q-17 0 -29.5 -12t-12.5 -29t12.5 -29.5t29.5 -12.5h134v-435h-87v402h-47q-23 0 -42 13v-415h-87v694h263v-176h-134zM87 538q19 13 42 13h47v110h-89v-123z" />
    <glyph glyph-name="Rcaron" unicode="&#x158;" 
d="M132 725l-87 87h46l41 -40l40 40h47zM129 518q-17 0 -29.5 -12t-12.5 -29t12.5 -29.5t29.5 -12.5h134v-435h-87v402h-47q-23 0 -42 13v-415h-87v694h263v-176h-134zM87 538q19 13 42 13h47v110h-89v-123z" />
    <glyph glyph-name="rcaron" unicode="&#x159;" 
d="M132 725l-87 87h46l41 -40l40 40h47zM129 518q-17 0 -29.5 -12t-12.5 -29t12.5 -29.5t29.5 -12.5h134v-435h-87v402h-47q-23 0 -42 13v-415h-87v694h263v-176h-134zM87 538q19 13 42 13h47v110h-89v-123z" />
    <glyph glyph-name="Sacute" unicode="&#x15a;" 
d="M176 518v143h-89v-143h1q0 -31 13 -48.5t32.5 -29t42 -19t42 -17.5t32.5 -25.5t13 -42.5v-336h-263v259h87v-226h89v303q0 31 -13.5 48.5t-33 29t-42 19t-42 17.5t-32.5 25.5t-13 42.5v176h263v-176h-87zM176 782q0 -24 -15.5 -40.5t-44.5 -16.5h-72v11q44 0 44 46h88z
" />
    <glyph glyph-name="sacute" unicode="&#x15b;" 
d="M176 518v143h-89v-143h1q0 -31 13 -48.5t32.5 -29t42 -19t42 -17.5t32.5 -25.5t13 -42.5v-336h-263v259h87v-226h89v303q0 31 -13.5 48.5t-33 29t-42 19t-42 17.5t-32.5 25.5t-13 42.5v176h263v-176h-87zM176 782q0 -24 -15.5 -40.5t-44.5 -16.5h-72v11q44 0 44 46h88z
" />
    <glyph glyph-name="Scedilla" unicode="&#x15e;" 
d="M176 518v143h-89v-143h1q0 -31 13 -48.5t32.5 -29t42 -19t42 -17.5t32.5 -25.5t13 -42.5v-336h-87q0 -24 -16 -40.5t-45 -16.5h-70v11q44 0 44 46h-89v259h87v-226h89v303q0 31 -13.5 48.5t-33 29t-42 19t-42 17.5t-32.5 25.5t-13 42.5v176h263v-176h-87z" />
    <glyph glyph-name="Scaron" unicode="&#x160;" 
d="M176 518v143h-89v-143h1q0 -31 13 -48.5t32.5 -29t42 -19t42 -17.5t32.5 -25.5t13 -42.5v-336h-263v259h87v-226h89v303q0 31 -13.5 48.5t-33 29t-42 19t-42 17.5t-32.5 25.5t-13 42.5v176h263v-176h-87zM132 725l-87 87h46l41 -40l40 40h47z" />
    <glyph glyph-name="scaron" unicode="&#x161;" 
d="M176 518v143h-89v-143h1q0 -31 13 -48.5t32.5 -29t42 -19t42 -17.5t32.5 -25.5t13 -42.5v-336h-263v259h87v-226h89v303q0 31 -13.5 48.5t-33 29t-42 19t-42 17.5t-32.5 25.5t-13 42.5v176h263v-176h-87zM132 725l-87 87h46l41 -40l40 40h47z" />
    <glyph glyph-name="Tcommaaccent" unicode="&#x162;" horiz-adv-x="529" 
d="M438 694v-176h-87v143h-89v-661h-87v661h-88v-143h-87v176h438zM130 -79q24 0 34.5 11t10.5 35h88q0 -24 -15.5 -40.5t-44.5 -16.5h-73v11z" />
    <glyph glyph-name="tcommaaccent" unicode="&#x163;" horiz-adv-x="529" 
d="M438 694v-176h-87v143h-89v-661h-87v661h-88v-143h-87v176h438zM130 -79q24 0 34.5 11t10.5 35h88q0 -24 -15.5 -40.5t-44.5 -16.5h-73v11z" />
    <glyph glyph-name="Tcaron" unicode="&#x164;" horiz-adv-x="529" 
d="M0 694h438v-176h-87v143h-89v-661h-87v661h-88v-143h-87v176zM306 812l-87 -87l-87 87h47l40 -40l40 40h47z" />
    <glyph glyph-name="tcaron" unicode="&#x165;" horiz-adv-x="529" 
d="M0 694h438v-176h-87v143h-89v-661h-87v661h-88v-143h-87v176zM306 812l-87 -87l-87 87h47l40 -40l40 40h47z" />
    <glyph glyph-name="Umacron" unicode="&#x16a;" 
d="M219 758v-33h-175v33h175zM176 694h87v-694h-263v694h87v-661h89v661z" />
    <glyph glyph-name="umacron" unicode="&#x16b;" 
d="M219 758v-33h-175v33h175zM176 694h87v-694h-263v694h87v-661h89v661z" />
    <glyph glyph-name="Uring" unicode="&#x16e;" 
d="M263 694v-694h-263v694h87v-661h89v661h87zM132 725q-18 0 -31 13t-13 31t13 30.5t31 12.5t30.5 -12.5t12.5 -30.5t-12.5 -31t-30.5 -13zM132 780q-11 0 -11 -11t11 -11t11 11t-11 11z" />
    <glyph glyph-name="uring" unicode="&#x16f;" 
d="M263 694v-694h-263v694h87v-661h89v661h87zM132 725q-18 0 -31 13t-13 31t13 30.5t31 12.5t30.5 -12.5t12.5 -30.5t-12.5 -31t-30.5 -13zM132 780q-11 0 -11 -11t11 -11t11 11t-11 11z" />
    <glyph glyph-name="Uhungarumlaut" unicode="&#x170;" horiz-adv-x="355" 
d="M176 694h87v-694h-263v694h87v-661h89v661zM88 782q0 -24 -15.5 -40.5t-44.5 -16.5h-72v11q44 0 44 46h88zM264 782q0 -24 -15.5 -40.5t-44.5 -16.5h-72v11q44 0 44 46h88z" />
    <glyph glyph-name="uhungarumlaut" unicode="&#x171;" horiz-adv-x="355" 
d="M176 694h87v-694h-263v694h87v-661h89v661zM88 782q0 -24 -15.5 -40.5t-44.5 -16.5h-72v11q44 0 44 46h88zM264 782q0 -24 -15.5 -40.5t-44.5 -16.5h-72v11q44 0 44 46h88z" />
    <glyph glyph-name="Uogonek" unicode="&#x172;" 
d="M263 0h-86q0 -46 44 -46v-11h-72q-29 0 -45 16.5t-16 40.5h-88v694h87v-661h89v661h87v-694z" />
    <glyph glyph-name="uogonek" unicode="&#x173;" 
d="M263 0h-86q0 -46 44 -46v-11h-72q-29 0 -45 16.5t-16 40.5h-88v694h87v-661h89v661h87v-694z" />
    <glyph glyph-name="Zacute" unicode="&#x179;" 
d="M176 782q0 -24 -16 -40.5t-45 -16.5h-72v11q44 0 44 46h89zM263 518q0 -27 -13 -42.5t-32.5 -25.5t-42 -17.5t-42 -19t-33 -29t-13.5 -48.5v-303h89v226h87v-259h-263v336q0 27 13 42.5t32.5 25.5t42 17.5t42 19t33 29t13.5 48.5v143h-89v-143h-87v176h263v-176z" />
    <glyph glyph-name="zacute" unicode="&#x17a;" 
d="M176 782q0 -24 -16 -40.5t-45 -16.5h-72v11q44 0 44 46h89zM263 518q0 -27 -13 -42.5t-32.5 -25.5t-42 -17.5t-42 -19t-33 -29t-13.5 -48.5v-303h89v226h87v-259h-263v336q0 27 13 42.5t32.5 25.5t42 17.5t42 19t33 29t13.5 48.5v143h-89v-143h-87v176h263v-176z" />
    <glyph glyph-name="Zdotaccent" unicode="&#x17b;" 
d="M132 727q-18 0 -31 13t-13 31t13 30.5t31 12.5t30.5 -12.5t12.5 -30.5t-12.5 -31t-30.5 -13zM263 518q0 -27 -13 -42.5t-32.5 -25.5t-42 -17.5t-42 -19t-33 -29t-13.5 -48.5v-303h89v226h87v-259h-263v336q0 27 13 42.5t32.5 25.5t42 17.5t42 19t33 29t13.5 48.5v143h-89
v-143h-87v176h263v-176z" />
    <glyph glyph-name="zdotaccent" unicode="&#x17c;" 
d="M132 727q-18 0 -31 13t-13 31t13 30.5t31 12.5t30.5 -12.5t12.5 -30.5t-12.5 -31t-30.5 -13zM263 518q0 -27 -13 -42.5t-32.5 -25.5t-42 -17.5t-42 -19t-33 -29t-13.5 -48.5v-303h89v226h87v-259h-263v336q0 27 13 42.5t32.5 25.5t42 17.5t42 19t33 29t13.5 48.5v143h-89
v-143h-87v176h263v-176z" />
    <glyph glyph-name="Zcaron" unicode="&#x17d;" 
d="M132 725l-87 87h46l41 -40l40 40h47zM263 518q0 -27 -13 -42.5t-32.5 -25.5t-42 -17.5t-42 -19t-33 -29t-13.5 -48.5v-303h89v226h87v-259h-263v336q0 27 13 42.5t32.5 25.5t42 17.5t42 19t33 29t13.5 48.5v143h-89v-143h-87v176h263v-176z" />
    <glyph glyph-name="zcaron" unicode="&#x17e;" 
d="M132 725l-87 87h46l41 -40l40 40h47zM263 518q0 -27 -13 -42.5t-32.5 -25.5t-42 -17.5t-42 -19t-33 -29t-13.5 -48.5v-303h89v226h87v-259h-263v336q0 27 13 42.5t32.5 25.5t42 17.5t42 19t33 29t13.5 48.5v143h-89v-143h-87v176h263v-176z" />
    <glyph glyph-name="Scommaaccent" unicode="&#x218;" 
d="M176 518v143h-89v-143h1q0 -31 13 -48.5t32.5 -29t42 -19t42 -17.5t32.5 -25.5t13 -42.5v-336h-263v259h87v-226h89v303q0 31 -13.5 48.5t-33 29t-42 19t-42 17.5t-32.5 25.5t-13 42.5v176h263v-176h-87zM43 -79q24 0 34.5 11t10.5 35h88q0 -24 -16 -40.5t-45 -16.5h-72
v11z" />
    <glyph glyph-name="scommaaccent" unicode="&#x219;" 
d="M176 518v143h-89v-143h1q0 -31 13 -48.5t32.5 -29t42 -19t42 -17.5t32.5 -25.5t13 -42.5v-336h-263v259h87v-226h89v303q0 31 -13.5 48.5t-33 29t-42 19t-42 17.5t-32.5 25.5t-13 42.5v176h263v-176h-87zM43 -79q24 0 34.5 11t10.5 35h88q0 -24 -16 -40.5t-45 -16.5h-72
v11z" />
    <glyph glyph-name="brokenbar" unicode="&#xa6;" horiz-adv-x="178" 
d="M0 0v261h87v-261h-87zM0 607h87v-261h-87v261z" />
    <glyph glyph-name="uni0402" unicode="&#x402;" horiz-adv-x="529" 
d="M438 0q0 -24 -15 -40.5t-44 -16.5h-73v11q24 0 34.5 11t10.5 35v356q0 23 -10.5 34.5t-34.5 11.5h-44v-402h-87v661h-88v-143h-87v176h438v-176h-87v143h-89v-226h44h73q29 0 44 -17t15 -40v-378z" />
    <glyph glyph-name="uni0404" unicode="&#x404;" 
d="M263 694v0v-176h-87v143h-89v-226h89v-33h-89v-369h89v226h87v-259h-263v694h263v0z" />
    <glyph glyph-name="uni0405" unicode="&#x405;" 
d="M263 694v-176h-87v143h-89v-143h1q0 -31 13 -48.5t32.5 -29t42 -19t42 -17.5t32.5 -25.5t13 -42.5v-336h-263v259h87v-226h89v303q0 31 -13.5 48.5t-33 29t-42 19t-42 17.5t-32.5 25.5t-13 42.5v176h263z" />
    <glyph glyph-name="uni0406" unicode="&#x406;" horiz-adv-x="178" 
d="M0 0v694h87v-694h-87v0z" />
    <glyph glyph-name="uni0456" unicode="&#x456;" horiz-adv-x="178" 
d="M0 0v694h87v-694h-87v0z" />
    <glyph glyph-name="uni0407" unicode="&#x407;" horiz-adv-x="213" 
d="M-27 814q18 0 31 -12.5t13 -30.5t-13 -31t-31 -13t-30.5 13t-12.5 31t12.5 30.5t30.5 12.5zM150 814q18 0 30.5 -12.5t12.5 -30.5t-12.5 -31t-30.5 -13t-31 13t-13 31t13 30.5t31 12.5zM19 694h87v-694h-87v694z" />
    <glyph glyph-name="uni0457" unicode="&#x457;" horiz-adv-x="206" 
d="M-27 814q18 0 31 -12.5t13 -30.5t-13 -31t-31 -13t-30.5 13t-12.5 31t12.5 30.5t30.5 12.5zM150 814q18 0 30.5 -12.5t12.5 -30.5t-12.5 -31t-30.5 -13t-31 13t-13 31t13 30.5t31 12.5zM19 694h87v-694h-87v694z" />
    <glyph glyph-name="uni0408" unicode="&#x408;" 
d="M176 33v661h87v-694h-263v259h87v-226h89v0z" />
    <glyph glyph-name="uni0458" unicode="&#x458;" 
d="M176 33v661h87v-694h-263v259h87v-226h89v0z" />
    <glyph glyph-name="uni0452" unicode="&#x452;" horiz-adv-x="529" 
d="M438 0q0 -24 -15 -40.5t-44 -16.5h-73v11q24 0 34.5 11t10.5 35v356q0 23 -10.5 34.5t-34.5 11.5h-44v-402h-87v661h-88v-143h-87v176h438v-176h-87v143h-89v-226h44h73q29 0 44 -17t15 -40v-378z" />
    <glyph glyph-name="uni0453" unicode="&#x453;" 
d="M263 694v-176h-87v143h-89v-661h-87v694h263zM176 782q0 -24 -15.5 -40.5t-44.5 -16.5h-72v11q44 0 44 46h88z" />
    <glyph glyph-name="uni0454" unicode="&#x454;" 
d="M263 694v-176h-87v143h-89v-226h89v-33h-89v-369h89v226h87v-259h-263v694h263z" />
    <glyph glyph-name="uni0455" unicode="&#x455;" 
d="M263 694v-176h-87v143h-89v-143h1q0 -31 13 -48.5t32.5 -29t42 -19t42 -17.5t32.5 -25.5t13 -42.5v-336h-263v259h87v-226h89v303q0 31 -13.5 48.5t-33 29t-42 19t-42 17.5t-32.5 25.5t-13 42.5v176h263z" />
    <glyph glyph-name="uni0409" unicode="&#x409;" horiz-adv-x="530" 
d="M439 435v-435h-263v440q-17 -17 -40 -27.5t-49 -10.5v-402h-87v435h87q18 0 33.5 6.5t27.5 18t19.5 26.5t8.5 33v142h-89v-143h-87v176h263v-175q1 -18 8.5 -33t19.5 -26.5t27.5 -18t33.5 -6.5h87zM352 402q-26 0 -49 10.5t-40 27.5v-407h89v369z" />
    <glyph glyph-name="uni0459" unicode="&#x459;" horiz-adv-x="530" 
d="M439 435v-435h-263v440q-17 -17 -40 -27.5t-49 -10.5v-402h-87v435h87q18 0 33.5 6.5t27.5 18t19.5 26.5t8.5 33v142h-89v-143h-87v176h263v-175q1 -18 8.5 -33t19.5 -26.5t27.5 -18t33.5 -6.5h87zM352 402q-26 0 -49 10.5t-40 27.5v-407h89v369z" />
    <glyph glyph-name="uni040A" unicode="&#x40a;" horiz-adv-x="530" 
d="M439 0h-263v402h-89v-402h-87v694h87v-259h89v259h87v-175q1 -18 8.5 -33t19.5 -26.5t27.5 -18t33.5 -6.5h87v-435zM352 402q-26 0 -49 10.5t-40 27.5v-407h89v369z" />
    <glyph glyph-name="uni045A" unicode="&#x45a;" horiz-adv-x="530" 
d="M439 0h-263v402h-89v-402h-87v694h87v-259h89v259h87v-175q1 -18 8.5 -33t19.5 -26.5t27.5 -18t33.5 -6.5h87v-435zM352 402q-26 0 -49 10.5t-40 27.5v-407h89v369z" />
    <glyph glyph-name="uni040B" unicode="&#x40b;" horiz-adv-x="529" 
d="M351 0v356q0 23 -10.5 34.5t-34.5 11.5h-44v-402h-87v661h-88v-143h-87v176h438v-176h-87v143h-89v-226h44h73q29 0 44 -17t15 -40v-378h-87z" />
    <glyph glyph-name="uni045B" unicode="&#x45b;" horiz-adv-x="529" 
d="M351 0v356q0 23 -10.5 34.5t-34.5 11.5h-44v-402h-87v661h-88v-143h-87v176h438v-176h-87v143h-89v-226h44h73q29 0 44 -17t15 -40v-378h-87z" />
    <glyph glyph-name="uni040C" unicode="&#x40c;" 
d="M129 518q-17 0 -29.5 -12t-12.5 -29t12.5 -29.5t29.5 -12.5h134v-435h-87v402h-47q-23 0 -42 13v-415h-87v694h87v-156q19 13 42 13h47v143h87v-176h-134zM176 782q0 -24 -16 -40.5t-45 -16.5h-72v11q44 0 44 46h89z" />
    <glyph glyph-name="uni045C" unicode="&#x45c;" 
d="M129 518q-17 0 -29.5 -12t-12.5 -29t12.5 -29.5t29.5 -12.5h134v-435h-87v402h-47q-23 0 -42 13v-415h-87v694h87v-156q19 13 42 13h47v143h87v-176h-134zM176 782q0 -24 -16 -40.5t-45 -16.5h-72v11q44 0 44 46h89z" />
    <glyph glyph-name="uni040E" unicode="&#x40e;" 
d="M176 694h87v-694h-263v259h87v-226h89v285q-1 18 -8.5 33t-19.5 26.5t-27.5 18t-33.5 6.5h-87v292h87v-259q26 0 49 -10.5t40 -27.5v297zM61 725q-29 0 -45 16.5t-16 40.5h88q0 -46 44 -46q43 0 43 46h88q0 -24 -15.5 -40.5t-44.5 -16.5h-142z" />
    <glyph glyph-name="uni045E" unicode="&#x45e;" 
d="M176 694h87v-694h-263v259h87v-226h89v285q-1 18 -8.5 33t-19.5 26.5t-27.5 18t-33.5 6.5h-87v292h87v-259q26 0 49 -10.5t40 -27.5v297zM61 725q-29 0 -45 16.5t-16 40.5h88q0 -46 44 -46q43 0 43 46h88q0 -24 -15.5 -40.5t-44.5 -16.5h-142z" />
    <glyph glyph-name="uni040F" unicode="&#x40f;" 
d="M165 0q-17 -23 -17 -57h-33q0 34 -17 57h-98v694h87v-661h89v661h87v-694h-98z" />
    <glyph glyph-name="uni045F" unicode="&#x45f;" 
d="M165 0q-17 -23 -17 -57h-33q0 34 -17 57h-98v694h87v-661h89v661h87v-694h-98z" />
    <glyph glyph-name="uni0490" unicode="&#x490;" horiz-adv-x="0" 
d="M263 737v-219h-87v143h-89v-661h-87v694h176v43h87v0z" />
    <glyph glyph-name="uni0491" unicode="&#x491;" horiz-adv-x="0" 
d="M263 737v-219h-87v143h-89v-661h-87v694h176v43h87v0z" />
    <glyph glyph-name="currency" unicode="&#xa4;" 
d="M263 694v-292h-87q-35 0 -61 -24t-28 -59v-27h176v-33h-176v-259h-87v694h263zM176 661h-89v-264q36 38 89 38v226z" />
    <glyph glyph-name="uni20BD" unicode="&#x20bd;" 
d="M263 694v-292h-87q-35 0 -61 -24t-28 -59v-27h176v-33h-176v-259h-87v694h263zM176 661h-89v-264q36 38 89 38v226z" />
    <glyph glyph-name="foursuperior" unicode="&#x2074;" horiz-adv-x="175" 
d="M88 652v130h44v-347h-44v201h-88v146h44v-130h44v0z" />
    <glyph glyph-name="uni1E9E" unicode="&#x1e9e;" 
d="M263 524q0 -42 -25.5 -67t-59.5 -38q34 -14 59.5 -39t25.5 -67v-313h-131v33h44v281q0 57 -44 79v52q44 20 44 79v137q-37 0 -63 -26t-26 -63v-572h-87v573q0 25 18.5 47t45 38.5t57 26t55.5 9.5h87v-170v0z" />
    <glyph glyph-name="germandbls" unicode="&#xdf;" 
d="M263 524q0 -42 -25.5 -67t-59.5 -38q34 -14 59.5 -39t25.5 -67v-313h-131v33h44v281q0 57 -44 79v52q44 20 44 79v137q-37 0 -63 -26t-26 -63v-572h-87v573q0 25 18.5 47t45 38.5t57 26t55.5 9.5h87v-170v0z" />
    <glyph glyph-name="uni20B4" unicode="&#x20b4;" horiz-adv-x="349" 
d="M-43 305v33h210q4 8 6.5 18.5t2.5 23.5v143h-89v-144h-87v177h263v-176q0 -26 -12 -42h55v-33h-349zM306 250v-33h-217q-1 -5 -1.5 -9.5t-0.5 -10.5v-164h89v138h87v-171h-263v197q0 6 0.5 10.5t1.5 9.5h-45v33h349z" />
    <glyph glyph-name="minus" unicode="&#x2212;" horiz-adv-x="266" 
d="M0 287v32h175v-32h-175v0z" />
    <glyph glyph-name="uni2116" unicode="&#x2116;" horiz-adv-x="575" 
d="M352 435h132v-33h-132v33zM176 694h87v-694h-87v402q-26 0 -49 10.5t-40 27.5v-440h-87v694h87v-175q1 -18 8.5 -33t19.5 -26.5t27.5 -18t33.5 -6.5v259zM484 694v-226h-132v226h132zM440 661h-44v-160h44v160z" />
    <glyph glyph-name="guilsinglleft" unicode="&#x2039;" horiz-adv-x="282" 
d="M104 518h87l-104 -129l104 -130h-87l-104 130l104 129v0z" />
    <glyph glyph-name="guilsinglright" unicode="&#x203a;" horiz-adv-x="282" 
d="M87 518l104 -129l-104 -130h-87l104 130l-104 129h87v0z" />
    <glyph glyph-name="periodcentered" unicode="&#xb7;" horiz-adv-x="265" 
d="M130 303q-18 0 -30.5 12.5t-12.5 30.5t12.5 31t30.5 13q19 0 31.5 -13t12.5 -31t-12.5 -30.5t-31.5 -12.5z" />
    <glyph glyph-name="quotesinglbase" unicode="&#x201a;" horiz-adv-x="266" 
d="M88 88h87v-88q0 -24 -16 -40.5t-45 -16.5h-71v11q24 0 34.5 11t10.5 35v88z" />
    <glyph glyph-name="divide" unicode="&#xf7;" horiz-adv-x="353" 
d="M262 380v-33h-262v33h262zM131 413q-18 0 -30.5 12.5t-12.5 30.5t12.5 31t30.5 13t31 -13t13 -31t-13 -30.5t-31 -12.5zM131 314q18 0 31 -13t13 -31t-13 -30.5t-31 -12.5t-30.5 12.5t-12.5 30.5t12.5 31t30.5 13z" />
    <glyph glyph-name="acute" unicode="&#xb4;" horiz-adv-x="180" 
d="M89 694q0 -24 -16 -40.5t-45 -16.5h-72v11q24 0 34.5 11t10.5 35h88v0z" />
    <glyph glyph-name="mu" unicode="&#xb5;" 
d="M263 694v-694h-87v22q-23 -11 -46 -16.5t-43 -5.5v-87h-87v781h87v-661q18 0 34.5 7t28.5 19t19 28t7 34v573h87z" />
    <glyph glyph-name="dotlessi" unicode="&#x131;" horiz-adv-x="178" 
d="M0 0v694h87v-694h-87v0z" />
    <glyph glyph-name="circumflex" unicode="&#x2c6;" horiz-adv-x="217" 
d="M87 647l-40 -40h-47l87 87l87 -87h-47l-40 40v0z" />
    <glyph glyph-name="tilde" unicode="&#x2dc;" horiz-adv-x="308" 
d="M79 661q-20 0 -33 -13t-13 -32h-33q0 32 23 55t56 23q29 0 43 -12.5t23 -24.5q8 -11 16 -18t25 -7q19 0 32.5 13.5t13.5 32.5h33q0 -33 -23.5 -56t-55.5 -23q-29 0 -43 12.5t-24 25.5q-8 11 -15.5 17.5t-24.5 6.5z" />
    <glyph glyph-name="macron" unicode="&#xaf;" horiz-adv-x="218" 
d="M175 694v-33h-175v33h175v0z" />
    <glyph glyph-name="breve" unicode="&#x2d8;" horiz-adv-x="307" 
d="M61 637q-29 0 -45 16.5t-16 40.5h88q0 -46 44 -46t44 46h88q0 -24 -15.5 -40.5t-44.5 -16.5h-143v0z" />
    <glyph glyph-name="dotaccent" unicode="&#x2d9;" horiz-adv-x="130" 
d="M43 607q-18 0 -30.5 12.5t-12.5 30.5t12.5 31t30.5 13q19 0 31.5 -13t12.5 -31t-12.5 -30.5t-31.5 -12.5z" />
    <glyph glyph-name="ring" unicode="&#x2da;" horiz-adv-x="130" 
d="M43 607q-18 0 -30.5 12.5t-12.5 30.5t12.5 31t30.5 13q19 0 31.5 -13t12.5 -31t-12.5 -30.5t-31.5 -12.5zM43 661q-11 0 -11 -11t11 -11q12 0 12 11t-12 11z" />
    <glyph glyph-name="cedilla" unicode="&#xb8;" horiz-adv-x="132" 
d="M-43 -46q44 0 44 46h88q0 -24 -15.5 -40.5t-44.5 -16.5h-72v11z" />
    <glyph glyph-name="hungarumlaut" unicode="&#x2dd;" horiz-adv-x="308" 
d="M89 694q0 -24 -15.5 -40.5t-44.5 -16.5h-72v11q44 0 44 46h88zM265 694q0 -24 -15.5 -40.5t-44.5 -16.5h-72v11q44 0 44 46h88z" />
    <glyph glyph-name="ogonek" unicode="&#x2db;" horiz-adv-x="176" 
d="M133 -57h-72q-29 0 -45 16.5t-16 40.5h88q0 -24 10.5 -35t34.5 -11v-11z" />
    <glyph glyph-name="caron" unicode="&#x2c7;" horiz-adv-x="217" 
d="M174 694l-87 -87l-87 87h47l40 -40l40 40h47v0z" />
    <glyph glyph-name=".notdef.001" horiz-adv-x="500" 
 />
    <glyph glyph-name="uni04D8" unicode="&#x4d8;" 
d="M0 694h263v-694h-263v435h176v226h-89v-143h-87v176v0zM176 33v369h-89v-369h89z" />
    <glyph glyph-name="uni04D9" unicode="&#x4d9;" 
d="M263 694v-694h-263v435h176v226h-89v-143h-87v176h263zM176 402h-89v-369h89v369z" />
    <glyph glyph-name="uni04E8" unicode="&#x4e8;" 
d="M0 694h263v-694h-263v694zM176 661h-89v-298h89v298zM87 33h89v297h-89v-297z" />
    <glyph glyph-name="uni04E9" unicode="&#x4e9;" 
d="M0 694h263v-694h-263v694zM176 661h-89v-298h89v298zM87 33h89v297h-89v-297z" />
    <glyph glyph-name="uni04AE" unicode="&#x4ae;" 
d="M176 694h87v-176q0 -35 -26.5 -55t-61.5 -31v-432h-87v432q-35 11 -61.5 31t-26.5 55v176h87v-176q0 -26 12.5 -46.5t32.5 -31.5q20 11 32 31.5t12 46.5v176z" />
    <glyph glyph-name="uni04AF" unicode="&#x4af;" 
d="M176 694h87v-176q0 -35 -26.5 -55t-61.5 -31v-432h-87v432q-35 11 -61.5 31t-26.5 55v176h87v-176q0 -26 12.5 -46.5t32.5 -31.5q20 11 32 31.5t12 46.5v176z" />
    <glyph glyph-name="uni0496" unicode="&#x496;" horiz-adv-x="528" 
d="M439 0q0 -46 46 -46v-11h-73q-29 0 -44.5 16.5t-15.5 40.5v402h-47q-23 0 -42 13v-415h-87v415q-20 -13 -42 -13h-47v-402h-87v435h134q17 0 29.5 12.5t12.5 29.5t-12.5 29t-29.5 12h-134v176h87v-143h47q22 0 42 -13v156h87v-156q19 13 42 13h47v143h87v-176h-134
q-17 0 -29.5 -12t-12.5 -29t12.5 -29.5t29.5 -12.5h134v-435v0z" />
    <glyph glyph-name="uni0497" unicode="&#x497;" horiz-adv-x="528" 
d="M439 0q0 -46 46 -46v-11h-73q-29 0 -44.5 16.5t-15.5 40.5v402h-47q-23 0 -42 13v-415h-87v415q-20 -13 -42 -13h-47v-402h-87v435h134q17 0 29.5 12.5t12.5 29.5t-12.5 29t-29.5 12h-134v176h87v-143h47q22 0 42 -13v156h87v-156q19 13 42 13h47v143h87v-176h-134
q-17 0 -29.5 -12t-12.5 -29t12.5 -29.5t29.5 -12.5h134v-435v0z" />
    <glyph glyph-name="uni04A2" unicode="&#x4a2;" horiz-adv-x="352" 
d="M176 402h-89v-402h-87v694h87v-259h89v259h87v-694q0 -46 46 -46v-11h-73q-29 0 -44.5 16.5t-15.5 40.5v402z" />
    <glyph glyph-name="uni04A3" unicode="&#x4a3;" horiz-adv-x="352" 
d="M176 402h-89v-402h-87v694h87v-259h89v259h87v-694q0 -46 46 -46v-11h-73q-29 0 -44.5 16.5t-15.5 40.5v402z" />
    <glyph glyph-name="uni04BA" unicode="&#x4ba;" 
d="M87 694v-259h44h73q29 0 44 -17t15 -40v-378h-87v356q0 23 -10.5 34.5t-34.5 11.5h-44v-402h-87v694h87z" />
    <glyph glyph-name="uni04BB" unicode="&#x4bb;" 
d="M87 694v-259h44h73q29 0 44 -17t15 -40v-378h-87v356q0 23 -10.5 34.5t-34.5 11.5h-44v-402h-87v694h87z" />
  </font>
</defs>
</svg>
