<?xml version="1.0" standalone="no"?>
<!DOCTYPE svg PUBLIC "-//W3C//DTD SVG 1.1//EN" "http://www.w3.org/Graphics/SVG/1.1/DTD/svg11.dtd" >
<svg xmlns="http://www.w3.org/2000/svg" xmlns:xlink="http://www.w3.org/1999/xlink" version="1.1">
<metadata>
Created by FontForge 20170924 at Mon Aug 18 10:49:05 1997
 By www-data
a_DomIno *Arsenal Company (c)1996*  FAX: (095)924-3775; e-Mail: arsenal@itco.msk.su; Phone: (095)924-5811 (Design and Featuring W.Chufarofsky)
</metadata>
<defs>
<font id="ADomIno" horiz-adv-x="512" >
  <font-face 
    font-family="a_DomIno"
    font-weight="400"
    font-stretch="normal"
    units-per-em="1000"
    panose-1="3 6 9 2 3 3 2 2 2 4"
    ascent="800"
    descent="-200"
    x-height="450"
    cap-height="759"
    bbox="-21 -264 1024 895"
    underline-thickness="60"
    underline-position="-210"
    unicode-range="U+0020-2122"
  />
<missing-glyph horiz-adv-x="500" 
d="M63 0v895h375v-895h-375zM125 63h250v770h-250v-770z" />
    <glyph glyph-name=".notdef" horiz-adv-x="500" 
d="M63 0v895h375v-895h-375zM125 63h250v770h-250v-770z" />
    <glyph glyph-name=".null" horiz-adv-x="0" 
 />
    <glyph glyph-name="nonmarkingreturn" horiz-adv-x="250" 
 />
    <glyph glyph-name="space" unicode=" " horiz-adv-x="250" 
 />
    <glyph glyph-name="exclam" unicode="!" horiz-adv-x="306" 
d="M248 676q0 -20 -10 -53q-10 -37 -12 -53q-4 -58 -13 -175q-5 -47 -13 -142q-4 -49 -4 -65t-10 -20q-5 -3 -24 -3q-40 0 -50 32t-10 119q0 33 1 98.5t1 98.5q0 27 5 80t5 80q0 4 -1 11.5t-1 11.5q0 8 13 20q4 0 7 2.5t5 2.5q-1 0 7 -4q1 0 4 2t4 2q25 0 56 -11
q40 -14 40 -34zM228 51q0 -20 -19 -47.5t-38 -27.5q-3 0 -7.5 1t-7.5 1q-20 0 -34 8.5t-28.5 29.5t-14.5 37q0 22 23.5 55.5t43.5 33.5q33 0 57.5 -29t24.5 -62z" />
    <glyph glyph-name="quotedbl" unicode="&#x22;" horiz-adv-x="322" 
d="M280 440h-82v278h82v-278zM125 440h-82v278h82v-278z" />
    <glyph glyph-name="numbersign" unicode="#" horiz-adv-x="788" 
d="M752 512l-29 -86h-147l-44 -126h154l-30 -86h-154l-78 -217h-96l78 217h-126l-78 -217h-96l78 217h-149l31 86h148l45 126h-157l30 86h158l78 218h95l-77 -218h125l78 218h95l-77 -218h145zM482 426h-128l-45 -127h128z" />
    <glyph glyph-name="dollar" unicode="$" horiz-adv-x="427" 
d="M385 444q0 -72 -41 -72q-57 0 -80 49q-4 18 -12 52q-5 20 -9.5 32t-8.5 12q-18 0 -39 -26t-21 -62t94 -113q100 -81 112 -129q4 -16 4 -37q0 -71 -88 -132l-15.5 -8.5t-15.5 -10.5q0 -1 1 -5v-4q0 -114 -30 -114q-5 0 -13.5 4t-13.5 4q-2 0 -5.5 -1t-5.5 -1q-31 0 -31 25
q0 16 2.5 47t2.5 47q0 2 -20.5 8t-43.5 21q-96 62 -96 103q0 4 1 11.5t1 11.5q0 2 -1 7t-1 7q0 16 22 16q19 0 76 -50t99 -50q40 0 40 44q0 43 -39 84q-7 8 -79 69q-48 42 -63 75q-12 30 -12 72q0 46 24 87t64 65l54 32q0 2 -1 6t-1 6q0 5 1 14t1 14q0 67 40 67q14 0 30 -6
q21 -8 21 -19q0 -3 -2.5 -6.5t-2.5 -5.5q0 -10 -1 -30t-1 -30q0 -3 -1 -8.5t-1 -8.5q0 -8 26 -28q35 -27 48 -41q26 -29 26 -59v-4q-1 -3 -1 -4q0 -4 3 -13t3 -14z" />
    <glyph glyph-name="percent" unicode="%" horiz-adv-x="706" 
d="M664 171q0 -58 -37 -124q-42 -75 -95 -75q-60 0 -101 51q-38 48 -38 109q0 51 26 105.5t66 86.5q19 15 22 15q7 0 17 -4q14 -6 16 -7q16 -4 56 -21q68 -41 68 -136zM626 606q-146 -151 -266 -349q-27 -46 -81 -137q-89 -148 -101 -148q-55 0 -55 48q0 19 169 268l132 194
q67 100 113 151q8 9 33 9q20 0 36 -8q20 -10 20 -28zM304 471q0 -58 -37 -124q-42 -75 -95 -75q-60 0 -101 51q-37 47 -37 109q0 49 26.5 105.5t64.5 87.5q17 14 21 14q25 0 70 -23q21 -11 38 -24q50 -39 50 -121zM576 182q0 22 -7 42q-9 28 -27 28q-25 0 -44 -51
q-16 -42 -16 -73q0 -22 7 -48q9 -34 25 -34q27 0 47 56q15 45 15 80zM217 484q0 21 -7 42q-9 28 -26 28q-26 0 -45 -51q-16 -41 -16 -73q0 -22 6 -47q9 -35 25 -35q27 0 47 56q16 46 16 80z" />
    <glyph glyph-name="ampersand" unicode="&#x26;" horiz-adv-x="538" 
d="M538 206q0 -10 -19 -35q-15 -21 -27 -32q-4 -4 -18.5 -13t-14.5 -16q0 -4 32.5 -56t32.5 -61q0 -7 -6 -7t-12 -6q-5 -1 -13.5 -8t-10.5 -7q-29 0 -44 17q-62 72 -80 72q-13 0 -54 -24q-46 -27 -57 -30q-53 -16 -99 -16q-49 0 -90.5 34.5t-41.5 83.5q0 39 25.5 95t55.5 83
q45 40 45 46q0 3 -12 22q-46 71 -46 138q0 73 44 145q50 81 118 81q61 0 144 -84q36 -36 43 -60q5 -17 5 -40q0 -81 -54 -146q-2 -3 -43 -37q-34 -30 -34 -37q0 -10 44.5 -59t52.5 -49q1 0 19 5q82 23 89 23q5 0 15.5 -8.5t10.5 -13.5zM331 528q0 29 -17 55.5t-44 26.5
q-35 0 -54 -36q-16 -29 -16 -68q0 -41 13 -73.5t23 -32.5q24 0 59.5 51t35.5 77zM291 140q-17 24 -33 47q-34 47 -49 47q-12 0 -37 -42q-20 -32 -29.5 -55t-9.5 -41q0 -17 17 -17q14 0 74.5 25.5t66.5 35.5z" />
    <glyph glyph-name="quotesingle" unicode="'" horiz-adv-x="167" 
d="M125 440h-82v278h82v-278z" />
    <glyph glyph-name="parenleft" unicode="(" horiz-adv-x="344" 
d="M268 -161q0 -23 -70 -23q-56 0 -81 170q-15 101 -15 217q0 179 56 420q3 17 11 50q5 20 8 33.5t15 13.5q18 0 43 -21t25 -39q0 -36 -9 -94q-15 -86 -43 -258q-10 -67 -10 -101q0 -154 58 -325q12 -35 12 -43z" />
    <glyph glyph-name="parenright" unicode=")" horiz-adv-x="344" 
d="M242 306q0 -227 -51 -400q-7 -20 -19 -60q-9 -30 -24 -30q-5 0 -16.5 3.5t-17.5 3.5q-3 0 -10 -1t-10 -1q-11 0 -22.5 6.5t-11.5 16.5q0 15 15 54q19 53 20 55q57 194 57 378q0 132 -33 243q-8 26 -18 48q-4 6 -9 17t-14 30q-8 13 -8 27q0 8 25 14q19 4 32 4q28 0 51 -54
q64 -152 64 -354z" />
    <glyph glyph-name="asterisk" unicode="*" 
d="M448 572q0 -22 -36 -36q-16 -6 -68 -18q-36 -7 -36 -15q0 -9 42.5 -37.5t42.5 -44.5q0 -22 -14 -48q-16 -29 -35 -29q-28 0 -57 63t-33 63q-6 0 -13 -17q-8 -36 -17 -72q-10 -32 -60 -32q-54 0 -54 38q0 7 13 29q16 26 35.5 41.5t39.5 30.5q8 7 8 10q0 14 -46 14
q-6 0 -17.5 -3.5t-17.5 -3.5q-23 0 -40 22.5t-17 46.5q0 44 36 44q10 0 60.5 -31t53.5 -31q10 0 10 12q0 9 -18 47t-18 49q0 20 25.5 38.5t45.5 18.5q35 0 35 -44q0 -16 -9 -57t-9 -56q0 -10 4 -10q10 0 40 39t44 39q20 0 50 -20.5t30 -39.5z" />
    <glyph glyph-name="plus" unicode="+" horiz-adv-x="810" 
d="M633 264h-186v-186h-85v186h-186v83h186v186h85v-186h186v-83z" />
    <glyph glyph-name="comma" unicode="," horiz-adv-x="244" 
d="M190 89q0 -18 -32 -83q-40 -83 -42 -87q-8 -23 -29 -67q-9 -15 -17 -15t-26 14.5t-18 21.5q0 5 9 36q12 50 23 99q16 65 32 94q3 5 21.5 15.5t24.5 10.5q10 0 32 -15t22 -24z" />
    <glyph glyph-name="hyphen" unicode="-" horiz-adv-x="344" 
d="M288 209q0 -19 -10 -19q-2 0 -6.5 1t-6.5 1q-8 0 -27 -3t-29 -3q-9 0 -25.5 2t-25.5 2q-7 0 -20.5 -2t-20.5 -2h-37q-13 0 -26 31q-11 26 -11 42q0 15 6 15q1 0 3.5 -1t3.5 -1t3 1t3 1q2 0 6.5 -1t6.5 -1q3 0 9.5 2t9.5 2q6 0 16.5 -1t16.5 -1q8 0 24.5 1t24.5 1
q100 0 100 -18q0 -7 6 -21t6 -28z" />
    <glyph glyph-name="hyphen" unicode="&#x2010;" horiz-adv-x="344" 
d="M288 209q0 -19 -10 -19q-2 0 -6.5 1t-6.5 1q-8 0 -27 -3t-29 -3q-9 0 -25.5 2t-25.5 2q-7 0 -20.5 -2t-20.5 -2h-37q-13 0 -26 31q-11 26 -11 42q0 15 6 15q1 0 3.5 -1t3.5 -1t3 1t3 1q2 0 6.5 -1t6.5 -1q3 0 9.5 2t9.5 2q6 0 16.5 -1t16.5 -1q8 0 24.5 1t24.5 1
q100 0 100 -18q0 -7 6 -21t6 -28z" />
    <glyph glyph-name="period" unicode="." horiz-adv-x="244" 
d="M192 58q0 -12 -5 -29q-6 -21 -15 -21l-2 1h-3v-1q0 -5 -29 -18.5t-36 -13.5q-18 0 -39.5 21.5t-21.5 39.5q0 24 21 63.5t42 39.5q6 0 27 -11h5q3 1 4 1q11 0 31.5 -30t20.5 -42z" />
    <glyph glyph-name="slash" unicode="/" horiz-adv-x="438" 
d="M446 691q0 -3 -20.5 -32t-64.5 -122q-86 -182 -153 -358q-17 -46 -50 -137q-47 -128 -67 -128q-6 0 -13.5 -2.5t-9.5 -2.5q-13 0 -25.5 11t-12.5 24q51 130 198 487q32 79 102 234q35 71 50 71q21 0 43.5 -13t22.5 -32z" />
    <glyph glyph-name="zero" unicode="0" horiz-adv-x="488" 
d="M454 332q0 -82 -22 -155q-24 -79 -61 -130q-52 -71 -117 -71q-27 0 -99 35q-60 29 -93 109q-28 67 -28 145q0 139 82 285q15 26 39 53q32 36 49 36q7 0 44 -13q24 -8 48 -17q12 -4 30 -9q69 -20 103 -111q25 -68 25 -157zM326 332q0 66 -11 118q-17 86 -58 86
q-48 0 -77 -118q-22 -88 -22 -159q0 -56 12 -113q17 -82 49 -82q54 0 85 112q22 81 22 156z" />
    <glyph glyph-name="one" unicode="1" horiz-adv-x="286" 
d="M224 584q0 -28 -2.5 -85t-2.5 -85q0 -59 -1.5 -178t-1.5 -178q0 -10 2.5 -29.5t2.5 -29.5q0 -27 -29 -27q-11 0 -38 15q-30 18 -38 20q-13 4 -17 14.5t-4 34.5q0 26 2.5 79t2.5 79q0 7 -2 19.5t-2 18.5t1.5 18t1.5 17q3 57 3 105q0 8 -1 24t-1 24q0 3 1 9t1 9q0 8 -4 8
q-3 0 -19 -11t-27 -11q-3 0 -13.5 10t-10.5 13q34 64 55 86q9 9 21 33t22 32l24 21q51 -19 55 -19q19 0 19 -36z" />
    <glyph glyph-name="two" unicode="2" horiz-adv-x="442" 
d="M440 24q0 -29 -108 -29q-10 0 -29.5 1t-29.5 1h-11q-7 -1 -11 -1q-8 0 -24.5 1.5t-24.5 1.5q-14 0 -43 -3.5t-43 -3.5q-10 0 -23 17.5t-13 28.5v8q0 7 -8 23t-8 26q0 23 62 102q78 101 80 103q49 80 75.5 137.5t26.5 81.5q0 7 -10 7q-48 0 -136 -86q-19 -23 -37 -47
q-30 -37 -39 -37q-8 0 -32 39.5t-24 48.5q0 14 95 106q46 45 87 66q38 20 76 20q20 0 31 -15q3 -4 39 -35q28 -24 41 -56q9 -22 9 -51q0 -31 -7 -57q-11 -39 -39 -89q-26 -41 -52 -83l-50 -68q-38 -51 -38 -67q0 -9 12 -9q10 0 29.5 2t29.5 2q65 0 97 -12q50 -20 50 -74z
" />
    <glyph glyph-name="three" unicode="3" horiz-adv-x="427" 
d="M384 186q0 -107 -110 -170q-30 -17 -75 -33q-51 -18 -79 -18q-29 0 -58 25.5t-29 53.5q0 19 16 25q22 8 23 10q5 0 13.5 -2.5t12.5 -2.5q37 0 106.5 45t69.5 79q0 20 -34 33q-27 9 -52 9q-71 0 -90 -21q-7 0 -24.5 14.5t-17.5 20.5q0 4 4 10.5t4 9.5q-8 8 -8 31
q0 19 8.5 30t31.5 18q29 10 36 15q146 99 146 146q0 8 -42 8q-72 0 -131 -34q-10 -6 -11 -6t-8 10q-33 49 -33 81v3q0 20 73 41q63 19 92 19q46 0 68 -16q88 -63 88 -122q0 -34 -30 -81q-26 -41 -57 -67q-11 -9 -22 -22q29 -17 66 -44q53 -56 53 -98z" />
    <glyph glyph-name="four" unicode="4" horiz-adv-x="488" 
d="M460 203q0 -17 -26 -17q-2 0 -5.5 1t-5.5 1q-43 0 -48 -7.5t-5 -76.5q0 -15 -3 -46t-3 -46q0 -5 3 -15t3 -15q0 -34 -16 -34q-20 0 -53 14q-38 16 -38 33q0 2 1 7t1 7q0 16 -4 32.5t-4 58.5q0 9 -1 27t-1 27q0 3 1 8t1 8q0 7 -19 7q-5 0 -30 -2q-50 -4 -98 -4
q-34 0 -44 12q-15 13 -29 26q-21 19 -21 29q0 20 16 54q20 41 57 99q60 95 61 97q24 46 76 124q1 0 4.5 13.5t11.5 13.5q30 0 84 -13q66 -15 66 -34q0 -1 -8 -20q-10 -24 -10 -85q0 -9 1 -26v-26q0 -56 -1 -80q-2 -41 -2 -35q0 -5 1 -14.5t1 -14t27.5 -9.5t30.5 -6
q9 -5 18.5 -32.5t9.5 -40.5zM280 498q0 12 -12 12q-6 0 -32 -52q-18 -36 -58 -107q-24 -37 -24 -69q0 -4 12 -4q6 0 17 1t17 1q7 0 21 -1t21 -1q19 0 19 15q0 5 4 36q0 30 5 91q10 71 10 78z" />
    <glyph glyph-name="five" unicode="5" horiz-adv-x="417" 
d="M390 542q0 -19 -79 -29q-49 -4 -98 -9q-17 -4 -27 -27l-12 -40q-5 -16 -20 -39q0 -3 15 -8q75 -26 92 -34q40 -19 80.5 -56t40.5 -64q0 -62 -21 -102q-26 -49 -89 -92q-54 -37 -117 -59q-26 -9 -41 -9q-7 0 -39.5 35.5t-32.5 43.5q0 13 9.5 25.5t22.5 12.5q5 0 13.5 -2.5
t12.5 -2.5q35 0 95.5 51.5t60.5 86.5q0 25 -36 44q-27 15 -59 21q-26 5 -61 5q-3 0 -11 -6t-12 -6q-6 0 -25.5 27.5t-19.5 34.5q0 25 44 104.5t44 104.5q0 7 -13 18t-13 17q0 20 74 30q51 8 95 8q6 0 17.5 -1t17.5 -1q4 0 13 1t13 1q24 0 45 -29.5t21 -54.5z" />
    <glyph glyph-name="six" unicode="6" horiz-adv-x="488" 
d="M440 221q0 -64 -40 -129.5t-97 -95.5q-34 -18 -59 -18q-17 0 -59 16q-20 7 -56 26q-40 29 -63 90q-21 54 -21 109q0 61 26 143q25 79 59 134q21 35 65 105.5t52 70.5q19 0 27 4q3 0 8.5 -1.5t8.5 -1.5h6q12 0 29.5 -11.5t17.5 -22.5q-17 -19 -38 -47q-94 -164 -94 -178
q0 -1 1 -2h25q28 0 72.5 -17t70 -36t42.5 -60.5t17 -77.5zM316 236q0 97 -72 97q-86 0 -86 -137q0 -40 9 -75q13 -51 39 -51q48 0 81 61q29 53 29 105z" />
    <glyph glyph-name="seven" unicode="7" horiz-adv-x="384" 
d="M376 558q0 -10 -51 -140q-13 -36 -39 -107q-14 -35 -39 -106q-13 -43 -40 -130q-33 -101 -50 -101h-5q-31 0 -54 16q-26 18 -26 47q0 58 101 307l34 76q18 45 18 80q0 7 -12 7q-9 0 -26 -2.5t-26 -2.5q-13 0 -38 2.5t-38 2.5q-7 0 -20.5 -2.5t-20.5 -2.5
q-10 0 -22.5 16.5t-12.5 26.5q0 4 1.5 12.5t1.5 12.5q0 5 -3 13.5t-3 13.5q0 23 16 23q11 0 33.5 -3t33.5 -3q50 0 123 5t90 5q22 0 48 -22.5t26 -43.5z" />
    <glyph glyph-name="eight" unicode="8" horiz-adv-x="450" 
d="M406 154q0 -73 -55.5 -125.5t-129.5 -52.5t-129 51.5t-55 124.5q0 61 40 113q19 18 54 55q4 4 9 12q-2 3 -10 12q-62 68 -62 129q0 64 45.5 116.5t108.5 52.5q61 0 115.5 -50.5t54.5 -111.5q0 -42 -42.5 -100t-42.5 -54q0 -1 26 -30q30 -35 47 -64q26 -43 26 -78z
M284 505q0 19 -10.5 36.5t-27.5 17.5q-30 0 -51 -29.5t-21 -60.5q0 -17 14.5 -44t29.5 -27q16 0 42 46q24 43 24 61zM280 167q0 20 -18 53.5t-36 33.5q-20 0 -53 -53t-33 -75q0 -24 18 -46t42 -22q38 0 60 37q20 32 20 72z" />
    <glyph glyph-name="nine" unicode="9" horiz-adv-x="488" 
d="M440 374q0 -70 -30 -146.5t-86 -148.5q-108 -137 -134 -137q-6 0 -25 28.5t-19 35.5q0 25 66 102t66 101q0 5 -4 5q-6 0 -18 -3.5t-18 -3.5q-69 0 -131 70q-61 67 -61 137q0 55 35.5 118.5t82.5 91.5q27 16 36 16q27 0 68 -9q46 -9 65 -21q107 -68 107 -236zM320 400
q0 56 -14 96q-20 58 -64 58q-32 0 -58 -66q-22 -56 -22 -95q0 -44 7 -60q11 -28 48 -28q54 0 78.5 21t24.5 74z" />
    <glyph glyph-name="colon" unicode=":" horiz-adv-x="244" 
d="M192 378q0 -13 -5 -29q-6 -21 -15 -21h-5q0 -8 -28 -20.5t-39 -12.5q-16 0 -37.5 22t-21.5 39q0 23 20 61q22 42 43 42q6 0 27 -11h9q10 0 31 -29.5t21 -40.5zM192 58q0 -12 -5 -29q-6 -21 -15 -21l-2 1h-3v-1q0 -5 -28.5 -18.5t-36.5 -13.5q-18 0 -39.5 21.5t-21.5 39.5
q0 23 20 61q23 42 43 42q6 0 27 -11h9q11 0 31.5 -30t20.5 -41z" />
    <glyph glyph-name="semicolon" unicode=";" horiz-adv-x="244" 
d="M192 378q0 -13 -5 -29q-6 -21 -15 -21h-5q0 -8 -28 -20.5t-39 -12.5q-16 0 -37.5 22t-21.5 39q0 23 20 61q22 42 43 42q6 0 27 -11h9q10 0 31 -29.5t21 -40.5zM192 89q0 -17 -33 -83q-41 -81 -43 -87q-8 -23 -29 -67q-9 -15 -17 -15t-26 14.5t-18 21.5q0 5 9 36
q12 50 23 99q16 65 32 94q3 5 21.5 15.5t24.5 10.5q10 0 33 -15t23 -24z" />
    <glyph glyph-name="less" unicode="&#x3c;" horiz-adv-x="810" 
d="M670 24l-589 241v80l589 243v-92l-467 -191l467 -191v-90z" />
    <glyph glyph-name="equal" unicode="=" horiz-adv-x="810" 
d="M704 366h-599v84h599v-84zM704 161h-599v83h599v-83z" />
    <glyph glyph-name="greater" unicode="&#x3e;" horiz-adv-x="810" 
d="M729 265l-589 -241v90l467 191l-467 191v92l589 -243v-80z" />
    <glyph glyph-name="question" unicode="?" horiz-adv-x="398" 
d="M389 559q0 -54 -48 -131q-5 -7 -90 -125q-48 -67 -48 -97q0 -4 8 -14t8 -16q0 -12 -16 -12q-8 0 -25 3t-26 3q-14 0 -37.5 25t-23.5 39q0 41 75 146q89 125 99 149q13 30 13 60q0 18 -25 18q-33 0 -90 -44q-50 -40 -74 -74q-16 -23 -25 -23q-10 0 -30 40.5t-20 52.5
q0 21 29 49q53 51 139 92q36 17 48 17t56 -22q19 -8 52 -29q51 -45 51 -107zM226 70q0 -32 -18 -60q-20 -32 -50 -32q-7 0 -15 -2t-9 -2q-16 0 -37 21t-21 37q0 24 19 63q21 43 42 43q5 0 18 -4.5t22 -4.5q19 0 34 -19.5t15 -39.5z" />
    <glyph glyph-name="at" unicode="@" horiz-adv-x="1024" 
d="M975 382q0 -127 -77 -223q-83 -103 -207 -103q-104 0 -104 86q-53 -84 -152 -84q-157 0 -157 168q0 107 63 189q69 89 173 89q86 0 124 -71l28 53h76l-74 -292q-4 -16 -4 -25q0 -19 14.5 -30.5t33.5 -11.5q54 0 107 57q74 79 74 197q0 136 -104 214q-93 71 -234 71
q-70 0 -128 -16q-134 -37 -215 -144t-81 -246q0 -162 113 -256q106 -87 271 -87q169 0 307 95l34 -49q-149 -113 -337 -113q-194 0 -316 94q-154 118 -154 317q0 141 75 255.5t205 173.5q101 46 229 46q173 0 289 -89q128 -97 128 -265zM616 354q-15 88 -92 88
q-72 0 -116 -77q-38 -65 -38 -143q0 -102 88 -102q45 0 82 33.5t49 86.5z" />
    <glyph glyph-name="A" unicode="A" horiz-adv-x="488" 
d="M463 0q0 -6 -8 -12t-15 -6q-3 0 -9.5 2t-9.5 2q-5 0 -13 -4t-12 -4q-34 0 -54 70q-1 9 -4 25q-10 49 -25 91q-3 10 -12 20h-20q-111 1 -119 -13q-5 -9 -15 -54q-11 -52 -14 -61q-17 -54 -17 -80q0 -36 -35 -36q-19 0 -38 5q-27 8 -27 22q0 3 1 8t1 7q1 24 5 73
q19 176 94 401l1 3q18 74 35 149q27 112 45 112q32 0 83 -10q65 -13 65 -31v-4q-1 -3 -1 -5q0 -1 5 -28q10 -62 32 -187q20 -103 20 -119q0 -34 13 -88q12 -48 20 -104q8 -37 19 -110q1 -6 5 -17t4 -17zM298 305q0 26 -11 74q-15 71 -16 76t-3 18q-11 59 -18 59v-1
q0 -4 -8 -33q-56 -194 -56 -207q0 -7 29 -7h15q9 -1 14 -1q54 0 54 22z" />
    <glyph glyph-name="B" unicode="B" horiz-adv-x="503" 
d="M462 168q0 -113 -215 -168q-46 -12 -79 -12q-16 0 -10 2l-6 -2q-4 -1 -8.5 -8.5t-10.5 -7.5q-7 0 -36 20.5t-29 27.5q0 4 1 11.5t1 11.5q0 5 -2 14.5t-2 14.5q0 -5 2 13.5t2 52.5v419q0 14 -2 41t-2 41q0 20 4 28q9 17 65 28q44 9 76 9h50q37 0 56 -5t39 -19
q103 -72 103 -180q0 -81 -81 -144q-1 -1 -15.5 -8t-14.5 -11q0 -1 12 -7q32 -15 52 -40q50 -62 50 -122zM356 538q0 31 -34 50q-27 15 -61 15q-75 0 -75 -31v-26q0 -25 -2 -46q-3 -31 -3 -32q0 -7 2.5 -21t2.5 -21q0 -5 -2 -15t-2 -15t8 -5q40 0 103 54.5t63 92.5zM343 207
q0 35 -39 56q-32 17 -70 17h-28q-20 0 -25 -13.5t-5 -59.5q0 -13 1 -39t1 -39v-7q-1 -5 -1 -8q0 -10 21 -10q9 0 33 9q38 14 69 36q43 30 43 58z" />
    <glyph glyph-name="C" unicode="C" horiz-adv-x="446" 
d="M408 213q0 -88 -43 -159q-51 -82 -133 -82q-37 0 -78 18t-63 43q-57 65 -57 232q0 132 41 270q55 187 153 187q41 0 121 -62q47 -36 47 -128q0 -53 -8 -72q-14 -33 -58 -33q-55 0 -62 73q-2 19 -4 39t-10 36q-14 30 -20 30q-11 0 -19 -24q-40 -126 -46 -200t-6 -145
q0 -98 21 -158q6 -18 30 -18q39 0 74 102l20 72q16 46 46 46q24 0 39 -21t15 -46z" />
    <glyph glyph-name="D" unicode="D" horiz-adv-x="482" 
d="M444 398q0 -217 -156 -364q-15 -14 -52 -37q-44 -27 -57 -27q-2 0 -52 22.5t-54 25.5q-9 7 -9 14q0 3 1 10t1 10q0 12 -2 36t-2 36q0 28 3 83t3 83q0 17 -2 50.5t-2 50.5t1 52.5t1 52.5v118q0 7 1 22t1 22t-4 18.5t-4 15.5q0 27 90 27q132 0 215 -96q79 -91 79 -225z
M314 396q0 196 -124 196q-6 0 -6 -3q0 -4 1 -11t1 -11q0 -9 -2 -30q-2 -24 -2 -32q-1 -25 -1 -78q0 -18 -1.5 -55t-1.5 -56q0 -26 1.5 -77t1.5 -77q0 -29 -1 -38q-2 -16 -2 -18q0 -6 10 -6q9 0 37 41q23 33 33 53q56 110 56 202z" />
    <glyph glyph-name="E" unicode="E" horiz-adv-x="428" 
d="M377 16q-15 -6 -115 -22t-123 -16q-7 0 -32 15q-21 13 -28 21q-16 20 -16 170q0 170 2 279q1 63 9 189q4 34 15 41q7 5 18 5q6 0 15 -4.5t13 -4.5q3 0 20 4q72 17 144 17q23 0 41 -33q15 -28 15 -53q0 -15 -27 -21q-40 -4 -120 -15q-27 -4 -27 -18q0 -19 -3 -55.5
t-3 -55.5q0 -40 12 -40q5 0 20 2q61 8 100 8q54 0 54 -73q0 -4 1 -12.5t1 -12.5q0 -13 -95.5 -20t-95.5 -27q0 -2 1 -7.5t1 -8.5v-35q-1 -23 -1 -34.5t-1.5 -35t-1.5 -35.5q0 -22 9 -22q7 0 27 3q28 4 85 12q20 3 26 3q13 0 29 -14q13 -13 19 -25.5t6 -31.5v-9q-1 -6 -1 -9
t3.5 -9t3.5 -10z" />
    <glyph glyph-name="F" unicode="F" horiz-adv-x="384" 
d="M368 616q0 -23 -10 -28q-4 -2 -11 -2q-14 0 -41.5 -1t-41.5 -1h-74q-13 0 -13 -16q0 -10 2 -31.5t2 -31.5q0 -15 -2 -45.5t-2 -45.5q0 -4 7 -4q5 2 34 2h35q36 0 64 -15q33 -18 33 -52q0 -53 -62 -53h-71q-33 0 -33 -12q0 -41 -2 -124t-2 -123.5t-8.5 -53t-29.5 -12.5
q-15 0 -43 16q-31 18 -31 31q0 3 2 9.5t2 9.5q0 8 -2 23.5t-2 23.5q0 11 1 32.5t1 32.5q0 17 -2 52t-2 52q0 52 1.5 155t1.5 155q0 6 1 19v18q0 12 -1 35t-1 35q0 21 10 23q72 13 116 13q116 0 132 -13q42 -35 42 -73z" />
    <glyph glyph-name="G" unicode="G" horiz-adv-x="503" 
d="M467 278q0 -72 -34 -152q-36 -87 -89 -126q-38 -28 -72 -28q-27 0 -68 11t-60 26q-53 42 -82 132q-25 76 -25 157q0 112 42 221q47 124 129 179q30 20 46 20q29 0 59 -16q2 -1 53 -34q44 -28 58 -63q11 -28 11 -84q0 -123 -48 -123q-4 0 -13 3t-14 3q-2 0 -7 -1t-8 -1
q-42 0 -42 118q0 13 4.5 39.5t4.5 39.5q0 23 -16 23q-9 0 -30 -22q-103 -106 -103 -324q0 -67 12 -130q18 -93 55 -93q27 0 58 39q25 30 38 63q10 25 10 48q0 10 -24 10h-13q-9 -1 -13 -1q-34 0 -63 18q-33 21 -33 54q0 17 46 21q25 2 87 15q55 12 89 12q10 0 32.5 -22
t22.5 -32z" />
    <glyph glyph-name="H" unicode="H" horiz-adv-x="503" 
d="M434 312q0 -15 1 -45t1 -45q0 -33 -3.5 -98t-3.5 -98q0 -14 -6.5 -21.5t-16.5 -7.5q-82 0 -82 55q0 29 -3 85.5t-3 85.5q0 10 1 29.5t1 29.5q0 27 -12 27q-10 0 -30.5 -3.5t-30.5 -3.5q-2 0 -5 1h-6q-32 0 -50 -7q-5 -2 -5 -105q0 -17 -1.5 -51t-1.5 -51q0 -4 1 -12v-12
q0 -8 -1 -23.5t-1 -23.5q0 -3 1 -10t1 -10q0 -16 -13 -16q-4 0 -12 2t-12 2q-48 0 -61 23t-13 95q0 44 -2 133t-2 133q0 35 3 89q3 73 4 89q1 30 1 97q0 15 9.5 35t22.5 20q53 0 66 -10q16 -13 16 -62q0 -14 -1 -43t-1 -43t1 -42.5t1 -42.5q0 -6 -1 -17t-1 -16q0 -6 4 -6
q6 0 18 1t18 1h7q5 -1 7 -1q10 0 29 3t28 3q3 0 8.5 -1t8.5 -1q2 0 4 14q6 52 6 212q0 12 -2 36.5t-2 36.5q0 22 7.5 29.5t28.5 7.5q27 0 51 -10q30 -14 30 -37q0 -6 -1 -16.5t-1 -16.5q0 -8 1.5 -24t1.5 -24q0 -14 -2 -42t-2 -42q0 -23 2.5 -69.5t2.5 -69.5q0 -16 -1.5 -48
t-1.5 -48z" />
    <glyph glyph-name="I" unicode="I" horiz-adv-x="256" 
d="M188 677q0 -5 -2 -14t-2 -14q0 -9 1 -27t1 -27q0 -14 -2 -40.5t-2 -40.5q0 -9 1 -25.5t1 -25.5q0 -15 -2 -46t-2 -46q0 -24 2 -63q3 -49 3 -64q1 -35 1 -104q0 -21 -1 -62t-1 -62q0 -27 -5.5 -35.5t-18.5 -8.5q-16 0 -54 20t-38 34v63q0 37 -1 95q-1 65 -1 96
q0 121 5 300q0 3 1 10v10q0 8 -1 25.5t-1 26.5q0 45 7 55t29 10q25 0 49 -8q33 -12 33 -32z" />
    <glyph glyph-name="J" unicode="J" horiz-adv-x="360" 
d="M290 204q0 -52 -6 -89.5t-28 -74.5q-24 -42 -54 -57q-23 -11 -56 -11q-43 0 -86 27q-72 45 -72 153q0 38 32 38q72 0 87 -65q16 -69 22 -69q44 0 44 380q0 9 -2 74q-2 61 -2 142q0 77 27 77q90 0 90 -55q0 5 -1 -6q-3 -29 -3 -69q0 -37 4 -110.5t4 -110.5v-174z" />
    <glyph glyph-name="K" unicode="K" horiz-adv-x="469" 
d="M488 673q0 -15 -99 -165t-99 -173q0 -5 91.5 -144t91.5 -152q0 -7 -23 -30t-29 -23q-7 0 -37 29q-40 39 -91 110q-68 94 -84 114q-19 23 -25 23q-1 0 -2 -1v-10q0 -6 1 -16.5t1 -16.5q0 -37 -5 -124q-6 -102 -12 -111t-15 -9q-22 0 -52 12q-36 15 -36 34v165
q0 39 3 116.5t3 116.5q0 21 -1 62t-1 62q0 76 6 126q6 46 14 46q21 0 47 -5q34 -7 41.5 -16.5t9.5 -160.5v-12q0 -17 -1 -46q-1 -32 -1 -46q0 -32 4 -32q8 0 107 167t121 167q11 0 41.5 -23.5t30.5 -33.5z" />
    <glyph glyph-name="L" unicode="L" horiz-adv-x="362" 
d="M370 44q0 -18 -17 -20q-2 0 -43 -8q-58 -10 -173 -36l-14 -4q-4 0 -13 9t-22 17q-19 13 -25 35q-3 13 -3 45v41q0 92 5 275.5t5 275.5v13q0 2 -1 6.5t-1 6.5q0 12 48 12q39 0 54 -33q9 -21 11 -67q1 -28 1 -63q0 -60 -1.5 -179.5t-1.5 -179.5q0 -9 -1 -27.5t-1 -27.5
q0 -10 15 -10q14 0 41 1.5t41 1.5q39 0 55 -8q23 -11 34 -44q7 -20 7 -32z" />
    <glyph glyph-name="M" unicode="M" horiz-adv-x="616" 
d="M550 110q0 -13 -2 -37.5t-2 -37.5q0 -2 1 -7v-8q0 -34 -13 -34q-28 0 -60 11q-42 13 -42 35q0 66 6 197t6 197q0 62 -16 62q-2 0 -10 -27q-17 -61 -55 -234q-5 -30 -14 -70l1 4q-14 -61 -30 -61q-56 0 -73 63v0v0q0 6 -15 74q-11 49 -32 146q-6 27 -16 80q-14 0 -14 -19
q0 -3 1 -9v-8q0 -13 -1 -40t-1 -40q0 -41 3 -124t3 -124v-20q-1 -13 -1 -19q0 -11 2 -32.5t2 -32.5q0 -15 -10 -15q2 0 -46 10q-43 9 -52 31q-2 6 -6 61q-2 26 -2 42q0 262 6 401q2 44 2 68q0 84 14 84q6 0 13 3t9 3q-2 0 26 -7q16 -4 32 -5q21 -1 56 -10q11 -5 14 -20
q18 -95 60 -282q6 -21 7 -21q4 0 13 33q12 42 19 74l36 156q34 127 55 127q19 0 53.5 -10.5t52 -21t17.5 -27.5v-14q-1 -9 -1 -14q0 -6 1 -19t1 -19v-47v-36q-1 -24 -1 -36q0 -22 1.5 -65t1.5 -65q0 -25 -1 -74.5t-1 -74.5q0 -16 1 -47.5t1 -47.5z" />
    <glyph glyph-name="N" unicode="N" horiz-adv-x="528" 
d="M434 -7q-2 0 -19 4q-1 0 -32 3q-18 2 -28 11.5t-21 30.5q-27 52 -44 81q-26 42 -71 129q-12 29 -12 52v0l-1 3l-2 5q-3 8 -8.5 22t-9.5 21q-8 15 -14 15l-1 -1q-1 -5 -1 -11q0 -3 2 -34q7 -108 7 -134q0 -12 -1 -36t-1 -36q0 -13 1 -39.5t1 -39.5q0 -40 -2 -48
q-5 -26 -31 -26q-13 0 -28 10t-20 11q-26 3 -26 10v7q1 30 -3 84q-5 59 -5 85q0 27 1 80.5t1 80.5q0 23 2 70t2 70q0 125 6 201q1 15 15 15q13 0 41 -7.5t41.5 -15.5t46.5 -102q-1 0 0 1l1 -2q7 -23 23 -69q79 -226 96 -226q4 0 4 18q0 13 -1.5 38t-1.5 38q0 353 10 365
q4 5 21 5q48 0 64 -7.5t16 -28.5q0 -31 2 -93t2 -93v-169q0 -29 1.5 -87t1.5 -87q0 -118 -5 -144q-6 -30 -20 -30z" />
    <glyph glyph-name="O" unicode="O" horiz-adv-x="521" 
d="M488 368q0 -101 -30 -197q-35 -115 -100 -169q-34 -28 -57 -28q-5 0 -15.5 -1t-15.5 -1q-12 0 -30 7q-12 5 -32 9q-34 7 -68 44q-58 63 -81 131q-22 62 -22 153q0 94 24 190q29 113 79 172q35 41 88 41q14 0 89 -29q21 -6 62 -25q18 -13 38 -43q71 -106 71 -254zM358 400
q0 34 -11 91q-11 61 -25 87q-9 16 -24.5 29t-23.5 13q-7 0 -21 -17q-9 -11 -27 -41q-68 -115 -68 -264q0 -57 15 -132q20 -102 53 -102q69 0 106 139q26 99 26 197z" />
    <glyph glyph-name="P" unicode="P" horiz-adv-x="436" 
d="M414 515q0 -69 -35.5 -137t-92.5 -102q-36 -14 -102 -48v-70q0 -14 2 -43t2 -43q0 -10 -3.5 -29t-3.5 -29q0 -3 2.5 -8.5t2.5 -9.5q0 -33 -30 -33q-81 0 -85 67q-5 82 -5 250q0 27 1 81t1 81q0 38 -1 114t-1 114q0 40 78 40h53q38 0 65 -8q55 -16 103.5 -74t48.5 -113z
M284 511q0 42 -11 61q-16 26 -56 26h-17q-13 0 -16 -6.5t-3 -53.5q0 -8 1.5 -24t1.5 -24q0 -7 -1.5 -21t-1.5 -21t1.5 -21t1.5 -21q0 -5 -1.5 -15t-1.5 -13q0 -22 11 -22q41 0 70 52q22 41 22 103z" />
    <glyph glyph-name="Q" unicode="Q" horiz-adv-x="521" 
d="M518 -78q0 -6 -12.5 -18t-19.5 -12q-6 0 -18 3t-18 3h-20q-15 0 -28 14q-42 47 -66 70q-28 -10 -66 -10q-13 0 -30 7q-12 5 -32 9q-34 7 -68 44q-58 62 -82 131q-21 62 -21 153q0 121 41 242q55 161 150 161q14 0 89 -29q22 -6 62 -25q18 -13 38 -43q71 -106 71 -254
q0 -177 -80 -308q110 -115 110 -138zM358 393q0 64 -17 132q-23 95 -67 95q-16 0 -48 -58q-25 -46 -30 -57q-13 -27 -22 -61q-16 -61 -16 -146q0 -56 15 -131q20 -103 53 -103q14 0 33 13q-23 42 -23 45q0 8 13 15t23 7q16 0 32 -10q54 140 54 259z" />
    <glyph glyph-name="R" unicode="R" horiz-adv-x="507" 
d="M484 516q0 -63 -84 -158q-4 -4 -48 -40q-40 -33 -40 -36q0 -11 42 -67q50 -68 52 -71q21 -34 60 -103q3 -6 7 -17q-3 -6 -17 -24.5t-18 -21.5q-36 0 -71 36q-27 32 -53 65q-1 1 -23 34q-51 76 -86 122q-20 26 -26 26q-4 0 -4 -5q0 -4 1.5 -17t1.5 -20l-2 -28t-2 -113
q0 -9 -2 -27t-2 -27q0 -2 1 -6v-7q0 -31 -15 -31q2 0 -39 12q-13 2 -35 12q-18 14 -18 128q0 48 1 143.5t1 143.5q0 211 6 243q1 7 7 18q19 17 29 22q4 0 25.5 -10.5t22.5 -10.5l6 2q69 23 126 23q110 0 172 -119q24 -46 24 -71zM366 559q0 24 -14 32q-10 6 -36 6h-8
q-5 -1 -7 -1q-4 0 -12.5 1t-12.5 1q-18 0 -52 -12q-40 -14 -40 -28.5t-1 -43.5t-1 -42.5t-3 -36.5t-3 -35q0 -8 2 -34q0 -6 6 -6q28 0 90 53q57 48 74.5 78t17.5 68z" />
    <glyph glyph-name="S" unicode="S" horiz-adv-x="458" 
d="M410 512q0 -87 -42 -87q-48 0 -78 48q0 1 -17 63q-6 20 -13 59q-25 0 -50.5 -38t-25.5 -65q0 -37 58 -98q100 -106 108 -116q58 -74 58 -143q0 -37 -36 -83q-32 -40 -69 -62q-30 -18 -59 -18q-91 0 -144 52q-5 6 -19 16q-19 12 -42 48.5t-23 57.5q0 4 2 12t2 12q0 2 -2 6
t-2 6q0 18 22 18q28 0 71 -46q70 -75 111 -75q22 0 34 18t12 41q0 58 -52 117q-48 49 -96 99q-52 64 -52 136q0 94 76 172q55 57 96 57q10 0 37 -10.5t35 -17.5l62 -51q17 -14 29 -60q9 -38 9 -68z" />
    <glyph glyph-name="T" unicode="T" horiz-adv-x="400" 
d="M389 680q0 -61 -24 -66q-4 -1 -25 -2q-77 -5 -77 -18q0 -2 1 -6v-6q0 -32 -2 -86q-3 -65 -3 -86q-2 -99 -2 -164q0 -27 1 -80t1 -80q0 -31 -4 -77q6 -12 6 -13q0 -16 -27 -16q-92 0 -92 66v50q0 16 -1 45t-1 44v270q0 15 2 45t2 45v35q-80 -10 -88 -10q-4 0 -6 11
q-3 15 -4 17t-14 22q-12 17 -12 20q0 1 1 3t1 3q0 3 -2 10t-2 10q0 20 73 32q17 3 47 6l12 1q7 1 4 1q51 5 115 18q11 2 13 2q4 0 11.5 -1.5t10.5 -1.5q4 0 12 3t12 3q3 0 8.5 -1.5t8.5 -1.5q1 0 3 1h3q11 0 24.5 -17.5t13.5 -29.5z" />
    <glyph glyph-name="U" unicode="U" horiz-adv-x="503" 
d="M437 268q0 -178 -43 -233q-50 -65 -120 -65q-24 0 -84 28q-74 35 -104 93q-26 51 -26 139v79q0 51 5 144q6 101 7 145q1 96 18 96q25 0 57 -10q41 -12 41 -30q0 -8 -2 -23.5t-2 -23.5q0 -7 1 -21.5t1 -21.5q0 -48 -6 -144t-6 -144q0 -198 66 -198q55 0 73 82q9 41 9 126
q0 60 -3 180.5t-3 180.5q0 42 4.5 51.5t17.5 9.5q25 0 56 -7q42 -9 42 -25q0 -5 -1.5 -14t-1.5 -13q0 -3 1 -10v-10q0 -12 -1 -36t-1 -36q0 -48 2.5 -144.5t2.5 -144.5z" />
    <glyph glyph-name="V" unicode="V" horiz-adv-x="476" 
d="M450 706q0 -62 -48 -233q-28 -97 -80 -293q-23 -95 -23 -97q-16 -62 -30 -93q-6 -14 -10 -14q-9 0 -45.5 12t-41.5 18v1q0 5 -7 33q-3 13 -13 62q-17 85 -55 248q-39 167 -55 248q-1 5 -8 26q-6 17 -6 23q0 12 17 25t30 13q47 0 79 -107q0 1 -1 1l1 -2l1 -5l2 -9
q24 -94 66 -283q5 -24 3 -26q3 8 20.5 79t51.5 215q8 29 24 86q36 130 57 130q14 0 42.5 -22t28.5 -36z" />
    <glyph glyph-name="W" unicode="W" horiz-adv-x="670" 
d="M666 702q-30 -63 -67 -225q-17 -73 -47 -219q-12 -64 -43 -191q-20 -64 -25 -64q-14 0 -36 12q-30 17 -35 19q-17 6 -26 20q-16 25 -28 82l-24 104q-13 62 -13 106q0 3 1 10t1 10q0 4 -6 4q-9 0 -9 -9q0 -63 -16 -147q-16 -73 -31 -146q-4 -23 -8 -45q-7 -37 -14 -37
q-30 0 -73 16.5t-63 36.5q-30 67 -38 325q0 11 -5 32t-5 32q0 6 2 17.5t2 17.5q0 10 -13 122q-3 26 -3 31q0 20 5 58q25 13 35 13q40 0 55 -7t15 -32t10 -162l7 -96q7 -96 7 -121q0 -43 6 -65.5t10 -22.5q10 0 14 30q2 19 3 38q14 136 35 239q13 62 16 101q2 20 4.5 31.5
t8 16.5t19.5 5q92 0 92 -40v0v0l2 -17q1 -9 6 -55l8 -76q17 -162 17 -204q0 -14 9 -14q4 0 12.5 30.5t17.5 69.5l50 238q43 176 70 176q16 0 52 -17t36 -31z" />
    <glyph glyph-name="X" unicode="X" horiz-adv-x="449" 
d="M440 702q-3 -12 -8 -35l-11 -22q-8 -19 -17 -41q-27 -64 -54 -127q-38 -92 -38 -115q0 -7 20 -62q100 -275 100 -288q0 -21 -18 -21q-7 0 -20 4.5t-20 4.5q-19 0 -31 4q-22 7 -44 56q-15 36 -29 72q-9 21 -24 62q-5 15 -5 22t-3 7q-3 -4 -9 -17q-35 -78 -61 -141
q-14 -34 -48 -98q-13 -18 -24 -18q-17 0 -50.5 27.5t-33.5 43.5q14 21 52 99q22 46 41 90q18 38 36 75q24 54 24 76q0 6 -19 57l-52 130q-40 101 -40 120q0 31 18 31q16 0 22 -2q17 1 51 -12q13 -10 43 -72q20 -42 39 -84q9 -19 11 -19q5 0 19 39q19 58 64 173q18 39 31 39
q30 0 88 -58z" />
    <glyph glyph-name="Y" unicode="Y" horiz-adv-x="434" 
d="M454 706q0 -45 -108 -268q-35 -73 -67 -164q-20 -57 -20 -258q0 -20 -5 -27t-18 -7q-47 0 -81 29q-13 11 -13 45q0 10 1 31t1 31q0 3 -1 9t-1 9q0 17 4 52t4 52q0 27 -35 120q-25 61 -50 123q-21 53 -36 110.5t-15 64.5q0 5 5 19t7 14h3q2 -1 3 -1t4 1.5t6 1.5
q2 0 8.5 -4.5t11.5 -4.5q26 0 43 -31l39 -71q4 -8 36 -85q11 -24 30 -73q3 0 14 22q32 64 84 187q9 18 22 54l-2 -3q39 80 52 80q19 0 46.5 -20t27.5 -38z" />
    <glyph glyph-name="Z" unicode="Z" horiz-adv-x="465" 
d="M442 624q0 -40 -100 -192q-24 -36 -54 -91q-56 -101 -113 -214q23 -3 69 -8q65 -7 101 -7q18 0 30 -18.5t12 -37.5q0 -56 -12 -56q-2 0 -7 1h-7q-9 0 -27 -1.5t-27 -1.5q-21 0 -63 2.5t-63 2.5q-14 0 -41.5 -1.5t-41.5 -1.5q-10 0 -22 -6l-12 -6q-11 0 -28.5 40t-17.5 54
q0 26 131 241.5t131 246.5q0 4 -12 4q-35 0 -66 1q-8 0 -32 2q-20 1 -32 1h-11q-4 0 -11 -2t-10 -2q-11 0 -21 34q-8 28 -8 44q0 27 31 36q15 4 54 4h58q89 0 121 -4q8 -1 13 -1q7 0 19 5.5l12 5.5q12 0 34.5 -30.5t22.5 -43.5z" />
    <glyph glyph-name="bracketleft" unicode="[" horiz-adv-x="324" 
d="M334 -98q0 -23 -79 -43q-66 -17 -101 -17q-10 0 -43.5 39.5t-33.5 54.5q0 10 1 26q2 20 2 27q1 27 1 57q0 79 5 236t5 236q0 47 -1 71q0 10 -3 42q-2 26 -2 42q0 29 35 37q14 3 59 3q107 0 119 -15q2 -3 13 -35t11 -35q0 -10 -58 -15q-32 -2 -63 -5q-5 -3 -7 -44
q0 -1 -5 -153q-8 -245 -8 -259q0 -184 9 -194q3 -3 10 -3q13 0 38 5t38 5q2 0 13 -12.5t12 -13.5q6 -5 18 -5q9 0 12 -6.5t3 -25.5z" />
    <glyph glyph-name="backslash" unicode="\" horiz-adv-x="438" 
d="M414 -56q0 -13 -12 -24t-25 -11q-1 0 -9 2.5t-14 2.5q-19 0 -75 146q-17 49 -53 146q-23 57 -68 171q-47 123 -79 185t-69 113q-11 15 -11 16q0 19 24 33q20 12 41 12q11 0 21 -16q5 -11 15 -32q7 -12 20 -37q50 -95 96 -217q53 -126 154 -381q14 -28 39 -86q5 -14 5 -23
z" />
    <glyph glyph-name="bracketright" unicode="]" horiz-adv-x="322" 
d="M263 624q0 -72 -8.5 -215t-8.5 -215q0 -61 -1 -82q-5 -107 -5 -115q0 -14 1 -41t1 -41q0 -28 -2 -35q-5 -17 -25 -17q-3 0 -8 1h-9h-36q-16 0 -49 -2t-49 -2q-21 0 -35 30q-3 6 -17 48q2 4 11.5 11.5t13.5 7.5q3 0 8 -1t8 -1t27 3q16 2 42 2q11 0 14 15q2 10 2 62
q0 -4 4 63q12 203 12 401q0 11 -2 33.5t-2 33.5q0 4 1 12.5t1 12.5q0 16 -54 17q-60 0 -70 12t-10 46q0 15 11.5 27.5t26.5 12.5q4 0 11 -1t11 -1q18 0 56.5 4.5t57.5 4.5q24 0 47.5 -33t23.5 -58z" />
    <glyph glyph-name="asciicircum" unicode="^" horiz-adv-x="810" 
d="M707 450h-104l-198 198l-200 -198h-103l249 280h108z" />
    <glyph glyph-name="underscore" unicode="_" 
d="M512 -242h-512v86h512v-86z" />
    <glyph glyph-name="grave" unicode="`" 
d="M320 547q0 -8 -19 -26.5t-27 -18.5q-11 0 -80 32q-33 10 -84 35q-8 7 -8 15q0 13 25.5 35.5t38.5 22.5q154 -77 154 -95z" />
    <glyph glyph-name="a" unicode="a" horiz-adv-x="332" 
d="M291 160q0 -9 1 -28v-28v-36q-1 -23 -1 -35q0 -4 1 -11v-11q0 -19 -5.5 -27t-24.5 -8q-40 0 -58 34q-51 -19 -77 -19q-33 0 -66 35t-33 69q0 55 32 84q20 18 50 35q35 20 55 20q4 0 11 -1t10 -1q12 0 12 20q0 8 -1 24.5t-1 24.5q0 6 1 18t1 18q0 23 -10 23
q-14 0 -74 -100q-11 -18 -22 -18q-14 0 -36 13t-22 25q0 13 23 60q9 20 31 56q47 63 70 63q7 0 29.5 -12.5t48.5 -23.5q41 -17 53 -67q5 -23 5 -90q0 -18 -1.5 -53t-1.5 -53zM196 110v17q0 23 -12 23q-18 0 -50 -18t-32 -34q0 -19 24 -19q70 0 70 31z" />
    <glyph glyph-name="b" unicode="b" horiz-adv-x="375" 
d="M339 252q0 -97 -23 -168q-35 -106 -110 -106q-16 0 -50 12t-48 12q-5 0 -13.5 -3.5t-13.5 -3.5q-22 0 -29 34t-7 77q0 11 1 32v33v131q0 124 10 306q4 73 4 64q0 5 -1 14t-1 14q0 19 25 19q77 0 77 -43q0 -130 -12 -270q-2 -23 -2 -21q0 -5 4 -5q31 62 63 62q25 0 54 -13
q46 -21 62 -75q10 -34 10 -102zM236 297q0 7 -1 22t-1 23q0 20 -10 20q-7 0 -26 -38q-52 -106 -52 -239q0 -29 27 -29q37 0 53 105q10 63 10 136z" />
    <glyph glyph-name="c" unicode="c" horiz-adv-x="332" 
d="M312 140q0 -43 -40 -100q-44 -62 -84 -62q-35 0 -107 48q-34 23 -44 64q-7 25 -7 80q0 43 11 101q12 65 29 97q5 9 15 28q33 66 52 66q12 0 54.5 -12t56.5 -19l20 -10q11 -7 17 -16q8 -12 8 -50v-18q-1 -13 -1 -19q0 -76 -41 -76q-3 0 -10 4t-13 4q-34 0 -34 58
q0 7 1 20.5t1 20.5q0 15 -10 15q-9 0 -22 -41q-31 -95 -31 -223q0 -42 15 -42q14 0 26 17q10 13 29 33q3 3 23 46q17 38 27 38q13 0 36 -20t23 -32z" />
    <glyph glyph-name="d" unicode="d" horiz-adv-x="368" 
d="M326 -20q0 -24 -26 -24t-51 19t-25 55q0 10 -8 10q-3 0 -32.5 -28t-43.5 -28q-12 0 -37 14.5t-45 33.5q-32 30 -32 126q0 47 20 121q21 78 45 114q12 18 31.5 34.5t25.5 16.5q4 0 27.5 -6.5t36.5 -6.5q9 0 9 15v3q-1 2 -1 3q0 3 2 9t2 9q0 5 -1.5 14t-1.5 14q0 15 2.5 46
t2.5 47q0 31 -2 56l-3 37q0 36 21 36q17 0 68 -20q8 -3 11 -10t3 -36v-213q0 -53 -2 -153q-2 -103 -2 -154q0 -14 1 -43t1 -43q0 -8 -1 -23.5t-1 -23.5q0 -3 3 -10t3 -11zM217 334q0 26 -15 26q-31 0 -58 -122q-23 -101 -23 -153q0 -15 11 -15q9 0 28 25q36 48 48 114
q9 46 9 125z" />
    <glyph glyph-name="e" unicode="e" horiz-adv-x="351" 
d="M320 132q0 -2 -2 -6.5t-2 -6.5t1 -5.5t1 -5.5q0 -9 -17 -38q-14 -23 -38 -50q-27 -30 -47 -39q-15 -7 -37 -7q-9 0 -43 15q-13 5 -34 16q-74 58 -74 160q0 58 21 139q23 87 53 128q20 27 52 27q22 0 59 -12.5t51 -25.5q43 -41 43 -160q0 -8 -1 -25t-1 -25q0 -11 -38 -18
q-10 -2 -31 -4q-5 0 -57.5 -8.5t-52.5 -36.5v-36q0 -40 26 -40q17 0 47 25q27 21 39 40q5 8 18 25q12 13 16 13q15 0 31.5 -12.5t16.5 -26.5zM212 276q0 104 -26 104q-7 0 -25.5 -53t-18.5 -66q0 -4 8 -4t35 7.5t27 11.5z" />
    <glyph glyph-name="f" unicode="f" horiz-adv-x="278" 
d="M302 593q0 -6 -1 -19t-1 -19q0 -3 1 -8v-7q0 -30 -15 -40q-11 -6 -44 -6q-15 0 -24 26q-7 20 -7 38q0 5 1 15v16q0 31 -10 31q-26 0 -26 -187q0 -13 12 -13q6 0 18 1.5t18 1.5q34 0 34 -13q0 -4 -1.5 -12t-1.5 -12q0 -3 1 -9v-9q0 -35 -14 -35q-4 0 -11.5 1t-11.5 1
q-42 0 -42 -13v-19v-12q-1 -9 -1 -13q0 -5 1 -16t1 -16q0 -31 -1.5 -93t-1.5 -93q0 -9 1 -27t1 -27q0 -32 -21 -32q-6 0 -34 6t-34 8q-13 5 -13 120q0 14 -1.5 43t-1.5 43t1.5 42t1.5 42v12q-1 8 -1 12q0 14 -7 17q-3 1 -19 1q-36 0 -36 64q0 15 32 20t32 13v4v8q-1 6 -1 8
q0 82 18 162q27 118 80 118q76 0 115 -55q11 -15 11 -34q0 -6 1.5 -17.5t1.5 -17.5z" />
    <glyph glyph-name="g" unicode="g" horiz-adv-x="362" 
d="M322 366q0 1 -13 -111q-5 -40 -5 -92q0 -43 6 -128t6 -127q0 -57 -37 -108q-40 -56 -95 -56q-29 0 -85.5 52.5t-56.5 79.5q0 30 18 30l2 -1q2 0 8.5 4.5t12.5 4.5q10 0 16.5 -8t12.5 -16q41 -36 63 -36q28 0 36 23q4 12 4 48q0 19 -2.5 57.5t-2.5 57.5q0 5 -3 5
q-15 -16 -30 -31q-22 -21 -40 -21t-38 11q-69 37 -69 125q0 94 30 194q40 133 107 133q16 0 44 -20t38 -20q2 0 5 1h5q22 0 42.5 -14.5t20.5 -36.5zM209 336q0 18 -11 18q-29 0 -55 -115q-21 -94 -21 -143q0 -18 9 -18q16 14 44.5 57.5t28.5 60.5v10v8q-1 6 -1 8q0 19 3 57
t3 57z" />
    <glyph glyph-name="h" unicode="h" horiz-adv-x="372" 
d="M328 258q0 -12 -2 -35t-2 -35q0 -3 1 -10t1 -10q0 -25 -6 -75t-6 -75q0 -4 1 -11t1 -11q0 -8 -12.5 -18.5t-21.5 -10.5q-65 0 -65 57q0 20 1 53q2 38 2 53q2 125 2 140q0 64 -9 64q-36 0 -56 -120q-15 -85 -15 -152q0 -7 1 -21t1 -21q0 -26 -25 -26q-72 0 -72 87
q0 9 1 28v28q0 45 -1.5 134.5t-1.5 134.5q0 26 1 77v78q0 14 -1 42t-1 42q0 10 4.5 28.5t4.5 28.5q0 21 19 21q53 0 65 -18q9 -13 9 -71q0 -14 -1 -42t-1 -42q0 -10 1 -31t1 -31q0 -16 -3 -47.5t-3 -47.5q0 -9 6 -9q1 0 24.5 26.5t36.5 26.5q11 0 46 -13q28 -11 41 -22
q34 -31 34 -144z" />
    <glyph glyph-name="i" unicode="i" horiz-adv-x="232" 
d="M178 584q0 -25 -8 -46q-12 -29 -33 -29q-75 0 -75 59q0 3 1 8t1 8t-1 8t-1 8q0 25 15.5 42.5t40.5 17.5q10 0 30.5 -13.5t20.5 -23t4.5 -22t4.5 -17.5zM176 410q0 -25 -3.5 -74.5t-3.5 -74.5q0 -17 1.5 -51.5t1.5 -51.5q0 -9 -1.5 -28t-1.5 -28q0 -15 1.5 -46t1.5 -46
q0 -32 -32 -32q-26 0 -41 4q-26 7 -34 47q-3 17 -3 64q0 12 1 36.5t1 37.5v124q0 17 -1 52.5t-1 53.5q0 57 31 57q83 0 83 -44z" />
    <glyph glyph-name="j" unicode="j" horiz-adv-x="232" 
d="M119 512q-14 0 -38.5 26t-24.5 40q0 8 3 21.5t3 20.5q0 14 15 24t29 10q30 0 52.5 -17.5t22.5 -47.5q0 -4 1 -13v-12v-9q0 -18 -24 -31q-20 -12 -39 -12zM175 -100q0 -164 -65 -164q-3 0 -8.5 1t-8.5 1q-2 0 -7 -1t-8 -1t-9 1.5t-10 1.5q-2 -1 -3 -1q-17 0 -40.5 29
t-23.5 47q0 13 6.5 28.5t17.5 15.5q9 0 24.5 -9.5t17.5 -9.5q8 0 10 24t2 118q0 23 -2 68.5t-2 68.5q0 22 2 58q2 43 2 57q0 29 2 87q0 5 2 28q2 19 2 27q0 5 -3 14t-3 13q0 3 2 8.5t2 8.5t-2 8t-2 8q0 24 13 24q4 0 11.5 -2.5t11.5 -2.5q20 0 27 -2q42 -12 42 -23
q0 -2 -1 -6t-1 -6q0 -4 1 -11v-12q0 -16 -2.5 -49t-2.5 -49q0 -45 1.5 -135t1.5 -135v-31q-1 -20 -1 -30q0 -11 2 -32.5t2 -32.5z" />
    <glyph glyph-name="k" unicode="k" horiz-adv-x="348" 
d="M336 26q0 -9 -17.5 -25.5t-27.5 -16.5q-18 0 -74 72q-1 1 -33 54q-27 46 -32 46q-6 0 -6 -4q0 -3 1 -8t1 -8q0 -7 -1 -21t-1 -21q0 -15 3 -45.5t3 -45.5q0 -23 -16 -23q-53 0 -69 15t-16 67q0 12 -1.5 35t-1.5 35q0 21 1.5 62.5t1.5 62.5q0 28 -1.5 84.5t-1.5 84.5
q0 14 1.5 41.5t1.5 41.5q0 15 -1 45.5t-1 45.5q0 93 6 106t23 13q20 0 46 -12q30 -14 30 -31q0 -5 1 -15t1 -15q0 -4 -2 -13t-2 -13q0 -8 1 -24t1 -24q0 -15 -2 -45t-2 -45v-64q0 -10 -2 -30.5t-2 -31.5v-54q0 -4 -1 -13t-1 -13q0 -8 6 -8q8 0 51 80q10 18 28 53l6 13l3 6
q5 11 18 32q17 27 22 27q6 0 31.5 -17t25.5 -22q0 -43 -48.5 -134t-48.5 -93q0 -11 26 -57l34 -60l22 -34q16 -25 16 -36z" />
    <glyph glyph-name="l" unicode="l" horiz-adv-x="232" 
d="M181 677q0 -4 -11 -194q-2 -32 -2 -105q0 -22 -1.5 -66.5t-1.5 -66.5q0 -7 1 -20v-20v-95v-22q-1 -15 -1 -22t1 -20v-21q0 -49 -30 -49q-11 0 -34.5 9.5t-29.5 15.5q-15 17 -15 65q0 16 1.5 48t1.5 48q0 37 5 249l7 235q3 74 18 74q28 0 54 -9q37 -12 37 -34z" />
    <glyph glyph-name="m" unicode="m" horiz-adv-x="552" 
d="M500 235q0 -63 -14 -215q-2 -22 -7 -28t-27 -6q-19 0 -40 11.5t-21 28.5q0 -7 1 24v4q2 73 7 218q0 6 2 26q1 16 1 26q0 44 -15 44q-45 0 -60 -221q-7 -105 -7 -121q0 -20 -23 -20q-8 0 -21 5t-20 5q-20 0 -25 11.5t-5 58.5q0 29 3 86t3 86q0 93 -13 93q-34 0 -53 -90
q-14 -64 -14 -119q0 -13 1 -38t1 -38q0 -86 -21 -86q-29 0 -53 14q-29 16 -29 43v32q1 22 1 33v98q0 7 1 21v20q0 33 -2.5 98t-2.5 97q0 26 39 26q47 0 47 -25q0 -9 -1 -26t-1 -26q0 -3 4 -3l34 42q23 24 46 24q42 0 78 -48q2 -3 6 -8q5 0 10 12l1 3q14 29 33 38
q23 11 64 11q59 0 78 -38q14 -26 14 -92v-91z" />
    <glyph glyph-name="n" unicode="n" horiz-adv-x="381" 
d="M333 294q0 -25 -2 -66q-2 -53 -2 -65t-2 -65q-2 -39 -2 -64q0 -34 -36 -34q-71 0 -71 66q0 43 4.5 128t4.5 128q0 34 -7 34q-37 0 -56 -118q-13 -81 -13 -161q0 -11 1.5 -34t1.5 -35q0 -30 -28 -30q-20 0 -33 3q-42 10 -42 97q0 37 2 115q2 75 2 115v31q0 8 -2 24.5
t-2 24.5q0 28 10 34.5t39 6.5q36 0 36 -28v-4q-1 -3 -1 -4q0 -6 4 -6q1 0 31 36t42 36q79 0 104 -46q17 -31 17 -119z" />
    <glyph glyph-name="o" unicode="o" horiz-adv-x="357" 
d="M326 218q0 -75 -28 -148q-37 -94 -100 -94q-18 0 -42 12l-76 38q-5 3 -15 14q-35 42 -35 141q0 70 24 161q32 119 81 119q12 0 53 -11q35 -9 52 -17q86 -38 86 -215zM220 242q0 29 -6 69q-9 55 -24 55q-23 0 -42 -89q-14 -70 -14 -111q0 -28 5 -58q7 -44 21 -44
q29 0 47 77q13 56 13 101z" />
    <glyph glyph-name="p" unicode="p" horiz-adv-x="379" 
d="M356 294q0 -32 -19 -100q-32 -112 -85 -174q-26 -30 -40 -30q-5 0 -14 2t-14 2q-13 0 -16 -11v-22q0 -15 1 -44.5t1 -44.5t-2 -45t-2 -45q0 -28 -4.5 -35t-15.5 -7q-20 0 -51 17.5t-31 35.5q0 6 1 17t1 17q0 10 -2 30.5t-2 30.5q0 14 2 42t2 42q0 9 -1 27t-1 27
q0 21 2 62.5t2 61.5q0 14 -2 40.5t-2 39.5q0 3 1 10t1 11t-14 22.5t-14 22.5q0 7 16 37t16 45q0 6 -1 18t-1 18q0 99 25 99q39 0 70 -33q9 -10 9 -26q0 -6 3 -6q4 0 11.5 1t11.5 1q70 0 114 -43t44 -113zM249 308q0 62 -27 62q-15 0 -33 -11.5t-18 -25.5v-6q0 -10 1 -30v-29
q0 -28 -1 -84t-1 -84q0 -12 5 -14q19 0 48 100q26 92 26 122z" />
    <glyph glyph-name="q" unicode="q" horiz-adv-x="370" 
d="M324 410q0 -70 -8 -210t-8 -210q0 -16 3 -48t3 -48q0 -5 -2 -15t-2 -15t2 -15t2 -15q0 -4 -1 -13t-1 -13q0 -6 1 -19t1 -19q0 -18 -14 -23q-6 -2 -30 -2t-43.5 14t-19.5 37q0 4 1.5 11.5t1.5 11.5q0 8 -1.5 24t-1.5 24t1 23v23q0 21 -1 39q-3 46 -3 36q0 2 1 7t1 7
q0 1 -1 2q-34 -18 -49 -18q-7 0 -42 14.5t-39 17.5q-45 35 -45 140q0 74 30 172q38 124 92 124q51 0 80 -17q19 9 28 9q12 0 38 -13t26 -23zM211 309q0 51 -3 55t-12 4q-29 0 -50 -112q-15 -85 -15 -140q0 -11 5 -32q6 -26 12 -26q33 0 50 62q12 44 12 89v15q-1 9 -1 14
q0 12 1 35.5t1 35.5z" />
    <glyph glyph-name="r" unicode="r" horiz-adv-x="278" 
d="M270 358q0 -11 -18 -47.5t-26 -36.5q-23 0 -39 35t-19 35q-6 0 -8 -66q-6 -174 -6 -170q0 -77 -4 -107q2 -8 2 -11q0 -12 -25 -12q-12 0 -33 4q-26 4 -28 10q-5 14 -13 41q-2 44 -2 58q0 45 3.5 135.5t3.5 135.5q0 6 -1 19t-1 19q0 29 16 29q45 0 62 -22l3 -3q2 0 17 26
t28 26q84 0 84 -54v-5q-1 -3 -1 -5q0 -6 2.5 -17t2.5 -17z" />
    <glyph glyph-name="s" unicode="s" horiz-adv-x="332" 
d="M289 322q0 -68 -29 -68q-4 0 -13.5 1.5t-14.5 1.5h-5q-4 -1 -6 -1q-22 0 -27 35q-2 10 -2 52q0 29 -8 29q-15 0 -29.5 -27t-14.5 -44q0 -32 86 -101q60 -48 60 -107q0 -41 -40.5 -80t-81.5 -39q-31 0 -82 32q-54 33 -54 62q0 6 4.5 15t4.5 11q0 1 -1 4t-1 4q0 12 29 12
q8 0 46.5 -24t43.5 -24q9 0 17 7.5t8 16.5q0 19 -36 49q-51 42 -67 61q-36 45 -36 102q0 46 31 89q28 40 71 62q21 11 27 11q32 0 70 -26t45 -56q5 -20 5 -60z" />
    <glyph glyph-name="t" unicode="t" horiz-adv-x="278" 
d="M261 347q-8 -17 -13 -17q-7 3 -12 3q-52 0 -52 -17q0 -1 2 -12t2 -34q0 -16 -2 -49.5t-2 -50.5q0 -15 1 -44.5t1 -46.5v-65q0 -38 -15 -38q-11 0 -42.5 9.5t-36.5 16.5q-12 16 -12 48q0 28 2.5 84.5t2.5 84.5q0 12 -1.5 36t-1.5 36q0 4 1.5 10.5t1.5 10.5q0 2 -13.5 6
t-17.5 4q-1 0 -4 -2t-5 -2q-11 0 -23 28q-10 25 -10 39q0 7 6.5 13t13.5 6q2 0 4.5 -1t3.5 -1q4 0 11 2t11 2q20 0 25 8q2 5 2 28v38v22q-1 15 -1 22q0 3 1 9v9q0 5 -1 13t-1 11t1.5 8t1.5 8q0 2 -1 6.5t-1 6.5q0 17 26 17q86 0 86 -47q0 -6 -3 -25t-3 -66q0 -2 -3 -9
t-3 -11q0 -3 2 -8t2 -8q0 -2 -1 -5t-1 -4q0 -10 8 -10q3 0 9 1h8.5h5.5q3 -1 5 -1t6 1h5q17 0 21 -10q1 -4 1 -25q0 -3 -1 -9.5t-1 -9.5q0 1 4 -19z" />
    <glyph glyph-name="u" unicode="u" horiz-adv-x="375" 
d="M339 46q0 -16 -13 -37q-14 -24 -29 -24q-22 0 -39 9q-12 7 -20 36q-2 7 -4 7t-10 -11q-28 -41 -63 -41q-25 0 -55 17t-40 40q-21 48 -21 138q0 44 5 130q6 104 14 118q6 10 26 10q22 0 43 -9q27 -12 27 -31q0 -40 -6 -119t-6 -119q0 -57 4 -71t7 -14q36 0 49 24.5
t13 88.5q0 22 2 66.5t2 66.5q0 17 -2 51t-2 51q0 15 12 25.5t27 10.5q19 0 39.5 -10t20.5 -27q0 -8 -1 -25t-1 -25q0 -17 2 -51.5t2 -51.5q0 -29 -3.5 -85t-3.5 -84q0 -35 12 -44t12 -10z" />
    <glyph glyph-name="v" unicode="v" horiz-adv-x="322" 
d="M318 438q0 -23 -11 -67q-19 -75 -53 -185q-7 -24 -20 -72q-5 -32 -11 -63q-7 -37 -21 -60q-11 -17 -25 -17q-9 0 -28 10q-15 8 -37 13q-27 6 -36 61v1l-2 9q-5 28 -16 85q-13 67 -25 139q-19 112 -19 150q0 14 14 14q79 0 86 -48.5t18 -110.5q16 -91 16 -109q0 -3 -1 -9
t-1 -9q0 -9 8 -9q3 0 9 24q10 50 31 151q6 27 18 80q18 92 44 92q23 0 42.5 -23t19.5 -47z" />
    <glyph glyph-name="w" unicode="w" horiz-adv-x="474" 
d="M470 460q0 -39 -31 -159q-19 -71 -53 -213q-22 -108 -47 -108q-3 0 -10 4t-13 4q-2 0 -5 -1t-5 -1q-20 0 -32.5 17.5t-21.5 68.5q-6 37 -12 75q-2 14 -7 41q-4 18 -7 18q-8 0 -8 -20q0 -1 1 -3v-4q0 -32 -14 -109q-16 -90 -32 -90q-5 0 -31 6q-49 11 -62 42
q-15 35 -21 108q-3 36 -22 144q-15 90 -15 145q0 6 5.5 17.5t10.5 11.5q1 0 3 -1t3 -1q3 0 9 2t7 2l26.5 -6t32 -13.5t7.5 -38.5q9 -129 21 -199q2 -11 3 -11q5 0 9 17t8 46q7 49 14 99q14 80 30 80q3 0 7 -2.5t6 -2.5t6 2t6 2q12 0 26 -10.5t14 -22.5q0 -32 12.5 -93.5
t12.5 -93.5q0 -19 4 -19q15 0 15 23q0 3 -1 8t-1 7t3 16q14 55 37 166q1 11 6 32q12 12 12 39q0 3 -1 5q0 23 18 23q22 0 47 -14q30 -15 30 -35z" />
    <glyph glyph-name="x" unicode="x" horiz-adv-x="339" 
d="M331 430q0 -14 -30 -64q-20 -33 -39 -65.5t-40 -85.5v-2l30 -63q64 -125 64 -140q0 -22 -23 -22q-2 0 -7 2t-8 2t-8 -3t-7 -3q-30 0 -65 58t-38 58q-8 -7 -68 -142q-1 -2 -1 -5.5t-4 -3.5h-6q-4 1 -6 1q-5 0 -7 -1q-19 0 -35.5 24.5t-16.5 44.5q0 2 12 34q6 13 16 40
q3 7 33 66q25 49 25 62q0 15 -19 56q-25 52 -27 58q-6 18 -18 53q-10 26 -10 27q0 15 23 26.5t40 11.5q21 0 43.5 -64t35.5 -64q23 42 46 85q38 68 50 68q9 0 37 -21t28 -28z" />
    <glyph glyph-name="y" unicode="y" horiz-adv-x="339" 
d="M330 429q0 -12 -31 -135q-21 -85 -53 -237q-35 -167 -52 -237q-3 -26 -17 -73q-5 -10 -11 -10q-18 0 -48.5 20t-30.5 37q0 6 3 20q2 20 8 60q6 28 14 58q20 73 20 86q0 6 -11 12l-17 9q-14 12 -27 57q-47 159 -47 331q0 17 11 17q6 0 17 -3t17 -3q46 0 50 -54
q1 -19 11 -68q8 -43 8 -69q0 -34 12 -84q4 -15 7 -15q7 0 7 15q0 25 6 58q4 19 30 136q6 41 24 114q7 17 16 17q14 0 62 -23q22 -11 22 -36z" />
    <glyph glyph-name="z" unicode="z" horiz-adv-x="332" 
d="M324 377q0 -24 -46 -88q-32 -43 -65 -85q-5 -6 -42 -59q-10 -15 -31 -41q0 -8 26 -8q2 0 7 1t7 1q7 0 20.5 -2t20.5 -2h11q25 0 40 -26q12 -21 12 -48q0 -15 -3.5 -19t-18.5 -4q-3 0 -9 1h-9q-9 0 -27 -1.5t-27 -1.5t-28 2.5t-29 2.5h-9q-5 -1 -8 -1q-7 0 -20 2t-20 2
q-3 0 -9 -3t-9 -3q-9 0 -25.5 30.5t-16.5 40.5q0 25 92 144.5t92 132.5q-3 6 -12 6q-8 0 -23 -2t-23 -2q-2 0 -6 1h-7q-23 0 -36.5 -10t-14.5 -10q-11 0 -21 25q-9 22 -9 36v16v9q-1 6 -1 9q0 15 33 15q30 0 89.5 6t89.5 6q15 0 40 -28.5t25 -44.5z" />
    <glyph glyph-name="braceleft" unicode="{" 
d="M437 -207h-36q-143 0 -171 72q-12 30 -12 102v124q0 72 -25.5 101.5t-96.5 29.5h-7q-6 -1 -8 -1v89h7h7q5 -1 7 -1q66 0 93 33q23 30 23 98v123q0 58 6 84q11 46 46 67q40 24 144 24h23v-89q-2 0 -8 1h-9q-61 0 -80.5 -22.5t-19.5 -85.5v-120q0 -71 -17 -102
q-21 -40 -84 -55q62 -14 84 -55q17 -32 17 -102v-120q0 -61 17 -82q19 -26 77 -26q3 0 8 1h8h7v-88z" />
    <glyph glyph-name="bar" unicode="|" 
d="M301 -242h-89v1024h89v-1024z" />
    <glyph glyph-name="braceright" unicode="}" 
d="M431 221q-2 0 -8 1h-7q-69 0 -95.5 -30t-26.5 -101v-124q0 -57 -6 -83q-11 -45 -46 -66q-41 -25 -144 -25h-22v88h7h8q5 -1 7 -1q59 0 78 25q16 21 16 83v120q0 70 18 102q22 40 84 55q-62 15 -84 55q-18 32 -18 102v120q0 66 -19 87t-80 21h-9q-6 -1 -8 -1v89h22
q104 0 144 -24q35 -21 46 -67q6 -26 6 -84v-123q0 -68 23 -98q27 -33 93 -33q2 0 7 1h7h7v-89z" />
    <glyph glyph-name="asciitilde" unicode="~" horiz-adv-x="853" 
d="M765 300q-103 -70 -191 -70q-50 0 -145.5 33.5t-146.5 33.5q-81 0 -193 -80v93q107 72 193 72q66 0 148 -30q98 -36 146 -36q85 0 189 76v-92z" />
    <glyph glyph-name="currency" unicode="&#xa4;" horiz-adv-x="620" 
d="M584 216l-46 -46l-102 102q-54 -40 -124 -40q-73 0 -126 40l-102 -102l-46 46l102 102q-40 53 -40 124t40 124l-102 102l46 47l102 -101q53 40 124 40q73 0 126 -40l102 101l46 -47l-102 -102q40 -55 40 -124t-40 -124zM456 442q0 60 -42 103t-102 43t-103 -43t-43 -103
t43 -102t103 -42q59 0 101.5 42.5t42.5 101.5z" />
    <glyph glyph-name="brokenbar" unicode="&#xa6;" 
d="M301 337h-89v379h89v-379zM301 -175h-89v379h89v-379z" />
    <glyph glyph-name="section" unicode="&#xa7;" 
d="M475 322q0 -78 -49 -118q-2 -1 -18.5 -10t-16.5 -12q0 -1 17 -21q20 -24 31 -46q17 -33 17 -66q0 -86 -60 -139.5t-147 -53.5q-58 0 -109.5 30t-83.5 80q-19 30 -19 42q0 17 28 34q25 16 43 16q12 0 26 -20q52 -74 115 -74q39 0 67 17q33 21 33 57q0 30 -43 61
q-25 18 -108 57q-73 35 -105 63q-47 43 -47 103q0 55 38 100q20 19 39 38q-43 61 -43 110q0 74 60 115q52 36 130 36q37 0 89 -16q65 -20 65 -47q0 -22 -14 -43t-35 -21q-15 0 -55.5 13t-57.5 13q-70 0 -70 -52q0 -39 116 -84q22 -10 66 -28q101 -41 101 -134zM366 312
q0 35 -63 64q-54 26 -94 26q-19 0 -37 -27.5t-18 -48.5q0 -30 50 -52l96 -42q22 0 44 28.5t22 51.5z" />
    <glyph glyph-name="copyright" unicode="&#xa9;" horiz-adv-x="810" 
d="M775 366q0 -156 -106 -260q-113 -111 -264 -111t-260.5 110t-109.5 261q0 149 111 262q105 107 259 107q155 0 262.5 -107t107.5 -262zM721 366q0 134 -91 224.5t-224 90.5q-131 0 -223 -92t-92 -223q0 -129 93 -222.5t222 -93.5q130 0 225 94q90 89 90 222zM586 291
q-4 -71 -57 -112q-49 -37 -123 -37q-96 0 -149 63q-50 60 -50 157q0 99 50 161q55 67 151 67q69 0 117 -34q53 -38 57 -104h-83q-10 76 -95 76q-57 0 -84 -56q-21 -42 -21 -106q0 -65 22 -106q29 -53 88 -53q84 0 94 84h83z" />
    <glyph glyph-name="guillemotleft" unicode="&#xab;" horiz-adv-x="414" 
d="M394 39q0 -7 -22.5 -18.5t-30.5 -11.5q-33 0 -103 135q-35 67 -35 76q0 17 29 64q5 7 14 27q30 63 51 96q13 21 19 21q23 0 45 -6q32 -8 32 -24q-19 -32 -54 -98q-20 -33 -41 -81q6 -14 52 -98q44 -80 44 -82zM228 39q0 -7 -22.5 -18.5t-30.5 -11.5q-31 0 -103 135
q-35 66 -35 76q0 17 29 64q5 7 14 27q30 63 51 96q13 21 19 21q24 0 46 -6q32 -8 32 -24q-19 -32 -55 -98q-20 -33 -41 -81q5 -13 52 -97q44 -79 44 -83z" />
    <glyph glyph-name="logicalnot" unicode="&#xac;" horiz-adv-x="810" 
d="M698 180h-83v168h-516v83h599v-251z" />
    <glyph glyph-name="registered" unicode="&#xae;" horiz-adv-x="810" 
d="M775 366q0 -77 -27 -143q-41 -101 -137.5 -164.5t-205.5 -63.5q-152 0 -261 109.5t-109 261.5t112 264q105 105 258 105q155 0 262.5 -107t107.5 -262zM721 360q0 67 -22 124q-35 89 -116 143t-177 54q-131 0 -220 -90q-95 -96 -95 -225q0 -130 92 -223t218 -93
q131 0 225.5 89.5t94.5 220.5zM589 165h-99l-82 173h-65v-173h-88v415h159q175 0 175 -113q0 -94 -92 -115zM498 456q0 68 -100 68h-55v-131h59q96 0 96 63z" />
    <glyph glyph-name="degree" unicode="&#xb0;" horiz-adv-x="337" 
d="M316 582q0 -61 -43.5 -104.5t-104.5 -43.5q-62 0 -104 43t-42 105q0 61 43 104.5t104 43.5t104 -43.5t43 -104.5zM261 582q0 39 -26.5 66t-65.5 27q-38 0 -65.5 -27.5t-27.5 -65.5t27.5 -65t65.5 -27t65 27t27 65z" />
    <glyph glyph-name="plusminus" unicode="&#xb1;" horiz-adv-x="810" 
d="M704 354h-257v-168h-85v168h-257v82h257v167h85v-167h257v-82zM704 7h-599v84h599v-84z" />
    <glyph glyph-name="paragraph" unicode="&#xb6;" 
d="M484 690h-58v-690h-64v690h-84v-690h-66v392q-80 3 -130 47q-54 48 -54 126q0 83 57 131q53 44 138 44h261v-50z" />
    <glyph glyph-name="guillemotright" unicode="&#xbb;" horiz-adv-x="414" 
d="M377 220q0 -25 -16 -49q-25 -37 -39 -65l-4 -8q-44 -89 -80 -89q-6 0 -29 12.5t-23 17.5q1 1 25 45q10 20 31 60q14 25 40 75q0 11 -17 41q-13 20 -25 40q-27 52 -54 98q0 16 33 24q23 6 45 6q4 0 12 -12q12 -19 46 -86q16 -28 32 -55q23 -40 23 -55zM211 220
q0 -25 -16 -49q-24 -36 -41 -69q-47 -93 -82 -93q-7 0 -29.5 12t-22.5 18q8 16 57 105q14 24 39 75q0 10 -17 40q-12 21 -24 41q-18 33 -55 98q0 16 33 24q23 6 45 6q4 0 12 -12q12 -19 46 -86q16 -28 32 -55q23 -40 23 -55z" />
    <glyph glyph-name="mu" unicode="&#xb5;" horiz-adv-x="630" 
d="M585 540l-73 -369q-9 -45 -9 -67q0 -23 15 -29q7 -3 36 -3l-16 -79q-32 -9 -75 -9q-75 0 -75 70q0 -28 -51 -51q-43 -19 -75 -19q-80 0 -118 54l-50 -253h-114l148 755h115l-63 -317q-6 -30 -6 -52q0 -99 92 -99q71 0 110 63q25 43 42 128l54 277h113z" />
    <glyph glyph-name="mu" unicode="&#x3bc;" horiz-adv-x="630" 
d="M585 540l-73 -369q-9 -45 -9 -67q0 -23 15 -29q7 -3 36 -3l-16 -79q-32 -9 -75 -9q-75 0 -75 70q0 -28 -51 -51q-43 -19 -75 -19q-80 0 -118 54l-50 -253h-114l148 755h115l-63 -317q-6 -30 -6 -52q0 -99 92 -99q71 0 110 63q25 43 42 128l54 277h113z" />
    <glyph glyph-name="afii10023" unicode="&#x401;" horiz-adv-x="436" 
d="M366 828q0 -18 -18.5 -37t-36.5 -19q-21 0 -44 13q-27 14 -27 33q0 31 17.5 54t47.5 23q16 0 38.5 -25t22.5 -42zM196 828q0 -17 -18.5 -36.5t-35.5 -19.5q-21 0 -45 12q-27 15 -27 34q0 31 17.5 54t47.5 23q16 0 38.5 -25t22.5 -42zM382 16q-15 -6 -115 -22t-123 -16
q-7 0 -32 15q-21 13 -28 21q-16 20 -16 170q0 170 2 279q1 63 9 189q2 15 4 23q4 14 11 18.5t18 4.5q5 0 14 -4.5t14 -4.5q3 0 20 4q72 17 144 17q22 0 40 -33q16 -28 16 -53q0 -15 -27 -21q-40 -4 -120 -15q-27 -4 -27 -18q0 -19 -3 -55.5t-3 -55.5q0 -40 12 -40q4 0 20 2
q62 8 100 8q54 0 54 -73q0 -4 1 -12.5t1 -12.5q0 -13 -95.5 -20t-95.5 -27q0 -14 1 -43v-43q0 -11 -1.5 -34.5t-1.5 -35.5q0 -22 9 -22q8 0 28 3l84 12q20 3 26 3q13 0 29 -15q13 -12 19 -24.5t6 -31.5v-9q-1 -6 -1 -9t3.5 -9t3.5 -10z" />
    <glyph glyph-name="afii10017" unicode="&#x410;" horiz-adv-x="488" 
d="M463 0q0 -6 -8 -12t-15 -6q-3 0 -9.5 2t-9.5 2q-5 0 -13 -4t-12 -4q-34 0 -54 70q-1 9 -4 25q-10 49 -25 91q-3 10 -12 20h-20q-111 1 -119 -13q-5 -9 -15 -54q-11 -52 -14 -61q-17 -54 -17 -80q0 -36 -35 -36q-19 0 -38 5q-27 8 -27 22q0 3 1 8t1 7q1 24 5 73
q19 176 94 401l1 3q18 74 35 149q27 112 45 112q32 0 83 -10q65 -13 65 -31v-4q-1 -3 -1 -5q0 -1 5 -28q10 -62 32 -187q20 -103 20 -119q0 -34 13 -88q12 -48 20 -104q8 -37 19 -110q1 -6 5 -17t4 -17zM298 305q0 26 -11 74q-15 71 -16 76t-3 18q-11 59 -18 59v-1
q0 -4 -8 -33q-56 -194 -56 -207q0 -7 29 -7h15q9 -1 14 -1q54 0 54 22z" />
    <glyph glyph-name="afii10018" unicode="&#x411;" horiz-adv-x="501" 
d="M462 224q0 -111 -85 -176q-77 -60 -191 -60q-4 0 -11 1t-11 1q-8 0 -21 -4.5t-21 -4.5q-52 0 -52 45q0 8 -2 23t-2 23q0 25 2 74t2 74q0 24 -2 73.5t-2 74.5q0 32 4 96.5t4 96.5q0 18 -2 53.5t-2 53.5q0 24 29 36q21 10 49 10q10 0 23 -5t22 -5q-4 0 30 3l159 14
q33 -28 33 -88q0 -32 -19 -32q-12 0 -35 -2t-35 -2q-22 0 -65.5 -4.5t-65.5 -4.5q-7 0 -8.5 -36.5t-5.5 -110.5q-2 -21 -2 -28q0 -5 13 -5q18 0 52.5 3t52.5 3q80 0 133 -64q13 -16 20 -33q12 -30 12 -93zM343 214q0 44 -24.5 70.5t-67.5 26.5q-11 0 -32.5 -3t-32.5 -3
q-10 -17 -10 -85q0 -11 1.5 -31.5t1.5 -31.5q0 -7 -1.5 -21.5t-1.5 -21.5q0 -10 22 -10q65 0 111 39q8 7 21 28t13 43z" />
    <glyph glyph-name="afii10019" unicode="&#x412;" horiz-adv-x="503" 
d="M462 168q0 -113 -215 -168q-46 -12 -79 -12q-16 0 -10 2l-6 -2q-4 -1 -8.5 -8.5t-10.5 -7.5q-7 0 -36 20.5t-29 27.5q0 4 1 11.5t1 11.5q0 5 -2 14.5t-2 14.5q0 -5 2 13.5t2 52.5v419q0 14 -2 41t-2 41q0 20 4 28q9 17 65 28q44 9 76 9h50q37 0 56 -5t39 -19
q103 -72 103 -180q0 -81 -81 -144q-1 -1 -15.5 -8t-14.5 -11q0 -1 12 -7q32 -15 52 -40q50 -62 50 -122zM356 538q0 31 -34 50q-27 15 -61 15q-75 0 -75 -31v-26q0 -25 -2 -46q-3 -31 -3 -32q0 -7 2.5 -21t2.5 -21q0 -5 -2 -15t-2 -15t8 -5q40 0 103 54.5t63 92.5zM343 207
q0 35 -39 56q-32 17 -70 17h-28q-20 0 -25 -13.5t-5 -59.5q0 -13 1 -39t1 -39v-7q-1 -5 -1 -8q0 -10 21 -10q9 0 33 9q38 14 69 36q43 30 43 58z" />
    <glyph glyph-name="afii10020" unicode="&#x413;" horiz-adv-x="383" 
d="M368 616q0 -32 -19 -32q-15 0 -45 1t-45 1q-11 0 -34.5 -1t-35.5 -1t-12 -16q0 -11 1.5 -33t1.5 -33q0 -15 -1.5 -44t-1.5 -44q0 -32 4 -75q3 -32 3 -133q0 -27 -2 -81.5t-2 -80t-2 -37.5q-1 -6 -6 -17q-5 -5 -30 -5q-14 0 -42 9q-32 10 -32 20q0 4 1 12.5t1 12.5
q0 8 -1 25t-1 25q0 16 1 48t1 48q0 18 -2 53.5t-2 53.5q0 27 2 81t2 82v145q0 10 -1 30.5t-1 30.5q0 25 10 28q45 13 116 13q125 0 141 -14q33 -29 33 -72z" />
    <glyph glyph-name="afii10021" unicode="&#x414;" horiz-adv-x="500" 
d="M521 46q0 -12 -4 -77q-4 -68 -5 -70q-4 -8 -31 -8q-13 0 -36 7q-28 7 -28 16q0 7 17 89q-83 -5 -248 -20q-40 -5 -119 -14q7 -40 7 -73q0 -28 -47 -28t-47 12q0 18 3 54.5t3 54.5q0 5 -1 9q-6 6 -6 22q0 43 64 43q52 263 88 402q10 39 29 117q30 138 49 138q7 0 21 -3
q83 -18 112 -18q14 0 18 -6q3 -23 8 -55q9 -47 24 -142q1 -7 12 -64q8 -39 8 -64q0 -32 9 -132q9 -107 15.5 -121.5t18.5 -14.5q31 0 38 -1q21 -4 26 -22q2 -8 2 -31zM336 93q0 38 -13 110t-13 109q0 16 -8 54q-14 66 -43 175q-4 -11 -25 -93q-12 -48 -36 -145
q-9 -46 -29 -138q-5 -30 -18 -89h8q30 0 88.5 8.5t88.5 8.5z" />
    <glyph glyph-name="afii10022" unicode="&#x415;" horiz-adv-x="422" 
d="M377 16q-15 -6 -115 -22t-123 -16q-7 0 -32 15q-21 13 -28 21q-16 20 -16 170q0 170 2 279q1 63 9 189q4 34 15 41q7 5 18 5q6 0 15 -4.5t13 -4.5q3 0 20 4q72 17 144 17q23 0 41 -33q15 -28 15 -53q0 -15 -27 -21q-40 -4 -120 -15q-27 -4 -27 -18q0 -19 -3 -55.5
t-3 -55.5q0 -40 12 -40q5 0 20 2q61 8 100 8q54 0 54 -73q0 -4 1 -12.5t1 -12.5q0 -13 -95.5 -20t-95.5 -27q0 -2 1 -7.5t1 -8.5v-35q-1 -23 -1 -34.5t-1.5 -35t-1.5 -35.5q0 -22 9 -22q7 0 27 3q28 4 85 12q20 3 26 3q13 0 29 -14q13 -13 19 -25.5t6 -31.5v-9q-1 -6 -1 -9
t3.5 -9t3.5 -10z" />
    <glyph glyph-name="afii10024" unicode="&#x416;" horiz-adv-x="686" 
d="M704 675q0 -14 -99 -165t-99 -173q0 -5 91.5 -144t91.5 -152q0 -7 -23 -30t-29 -23q-7 0 -37 29q-58 57 -94 115q-25 40 -77 119q-18 25 -25 25q-4 0 -4 -15q0 -17 1 -50.5t1 -49.5q0 -115 -5 -157q-6 -46 -15 -46q-21 0 -47 5q-34 7 -42.5 17.5t-8.5 159.5q0 17 2 52
t2 52q0 32 -6 32q-9 0 -107 -167t-121 -167q-9 0 -40.5 24.5t-31.5 32.5q0 17 71 121q127 187 127 217q0 8 -91.5 146t-91.5 150q0 6 23 29.5t29 23.5q8 0 38 -29q51 -50 93 -113q48 -72 79 -110q20 -24 25 -24q4 0 4 23q0 11 -1 33t-1 33q0 25 6 101q6 83 11 90.5t15 7.5
q28 0 53 -7q35 -10 35 -30q0 -4 -2 -11.5t-2 -11.5q0 -7 2 -20.5t2 -20.5q0 -19 -2 -58t-2 -58q0 -66 4 -81q8 0 105.5 165t120.5 165q10 0 41 -23t31 -32z" />
    <glyph glyph-name="afii10025" unicode="&#x417;" horiz-adv-x="491" 
d="M449 218q0 -44 -30 -98q-45 -82 -176 -128q-57 -20 -87 -20q-96 0 -96 88q0 38 53 38q16 0 24 -2q12 -3 13 -3q54 0 113 42q64 45 64 96q0 38 -25.5 67.5t-62.5 29.5q-27 0 -50 -13.5t-31 -13.5q-25 0 -36 8.5t-11 33.5q0 36 15 52.5t52 35.5q67 33 84 44q53 32 64 63
q6 16 6 44q0 4 -12 15t-34 11q-37 0 -67 -10.5t-63 -36.5q-19 -15 -28 -15q-5 0 -13 8q-33 32 -33 74q0 25 53 52q36 18 76 29q30 8 54 8q87 0 139 -53q34 -35 34 -100q0 -38 -50 -104q-17 -22 -39 -34t-22 -17q0 -2 9 -5q23 -8 60 -31q53 -52 53 -155z" />
    <glyph glyph-name="afii10026" unicode="&#x418;" horiz-adv-x="528" 
d="M458 172q0 -23 -4 -67.5t-4 -66t-5 -27.5t-21 -6q-8 0 -21.5 -9.5t-26.5 -9.5q-24 0 -30 22q-3 10 -3 43q0 11 1 33.5t1 33.5q0 12 -1 36t-1 36q0 21 7 134q2 40 2 43q0 20 -3 20q-7 0 -20 -37q-4 -16 -14 -46q-32 -65 -57 -143q-27 -83 -69 -165q-21 -40 -53 -40
q-15 0 -29.5 10.5t-19.5 10.5q-26 0 -26 112q0 38 2.5 114.5t2.5 114.5q0 22 -1 65.5t-1 65.5q0 32 2 97t2 97q0 46 80 46q16 0 20.5 -8.5t4.5 -27.5q0 -57 3 -172t3 -172q0 -14 -1.5 -42t-1.5 -42q0 -10 4 -10q9 0 27 43q33 81 74 216l36 126q31 102 44 110q9 6 34 14t36 8
q9 0 13 -5t9 -87q5 -69 5 -96q0 -36 -4 -106.5t-4 -106.5q0 -27 4 -79.5t4 -79.5z" />
    <glyph glyph-name="afii10027" unicode="&#x419;" horiz-adv-x="528" 
d="M373 826q0 -48 -35.5 -75t-84.5 -27q-44 0 -75 19q-36 23 -36 64q0 15 43 15q16 0 24 -18.5t43 -18.5q49 0 49 23q0 3 -1 8t-1 8q0 16 39 16q35 0 35 -14zM458 172q0 -23 -4 -67.5t-4 -66t-5 -27.5t-21 -6q-8 0 -21.5 -9.5t-26.5 -9.5q-24 0 -30 22q-3 10 -3 43
q0 11 1 33.5t1 33.5q0 12 -1 36t-1 36q0 21 7 134q2 40 2 43q0 20 -3 20q-7 0 -20 -37q-4 -16 -14 -46q-32 -65 -57 -143q-27 -83 -69 -165q-21 -40 -53 -40q-15 0 -29.5 10.5t-19.5 10.5q-26 0 -26 112q0 38 2.5 114.5t2.5 114.5q0 22 -1 65.5t-1 65.5q0 32 2 97t2 97
q0 46 77 46q17 0 22.5 -8.5t5.5 -27.5q0 -57 3 -172t3 -172q0 -14 -1.5 -42t-1.5 -42q0 -10 4 -10q9 0 27 43q33 81 74 216l36 126q31 102 44 110q9 6 34 14t36 8q9 0 13 -5t9 -87q5 -69 5 -96q0 -36 -4 -106.5t-4 -106.5q0 -27 4 -79.5t4 -79.5z" />
    <glyph glyph-name="afii10028" unicode="&#x41a;" horiz-adv-x="469" 
d="M488 673q0 -15 -99 -165t-99 -173q0 -5 91.5 -144t91.5 -152q0 -7 -23 -30t-29 -23q-7 0 -37 29q-40 39 -91 110q-68 94 -84 114q-19 23 -25 23q-1 0 -2 -1v-10q0 -6 1 -16.5t1 -16.5q0 -37 -5 -124q-6 -102 -12 -111t-15 -9q-22 0 -52 12q-36 15 -36 34v165
q0 39 3 116.5t3 116.5q0 21 -1 62t-1 62q0 76 6 126q6 46 14 46q21 0 47 -5q34 -7 41.5 -16.5t9.5 -160.5v-12q0 -17 -1 -46q-1 -32 -1 -46q0 -32 4 -32q8 0 107 167t121 167q11 0 41.5 -23.5t30.5 -33.5z" />
    <glyph glyph-name="afii10029" unicode="&#x41b;" horiz-adv-x="488" 
d="M463 0q0 -6 -8 -12t-15 -6q-3 0 -9.5 2t-9.5 2q-5 0 -13 -4t-12 -4q-35 0 -54 70q-1 7 -3 19q-8 39 -21 118q-10 40 -20 120q-1 29 -13 75q-16 57 -18.5 73t-6.5 46q-2 16 -10 33q-3 -9 -26 -93q-20 -71 -52 -214q-10 -40 -27 -120q-2 -14 -17 -64q-12 -40 -12 -65
q0 -15 -9 -25t-26 -11q4 0 -30 0q-8 0 -21.5 9.5t-13.5 17.5q0 3 1 8t1 7q1 24 5 73q19 176 94 401l1 3q18 74 35 149q27 112 45 112q5 0 54 -8q46 -8 73 -11q13 -2 17 -6.5t4 -14.5v-8q-1 -6 -1 -9q0 1 15 -80q6 -33 17 -99q7 -32 20 -96q2 -25 7 -76q9 -59 20 -114
q3 -19 11 -54q6 -13 14 -54q2 -19 5 -56q0 -6 4.5 -17t4.5 -17z" />
    <glyph glyph-name="afii10030" unicode="&#x41c;" horiz-adv-x="616" 
d="M550 110q0 -13 -2 -37.5t-2 -37.5q0 -2 1 -7v-8q0 -34 -13 -34q-28 0 -60 11q-42 13 -42 35q0 66 6 197t6 197q0 62 -16 62q-2 0 -10 -27q-17 -61 -55 -234q-5 -30 -14 -70l1 4q-14 -61 -30 -61q-56 0 -73 63v0v0q0 6 -15 74q-11 49 -32 146q-6 27 -16 80q-14 0 -14 -19
q0 -3 1 -9v-8q0 -13 -1 -40t-1 -40q0 -41 3 -124t3 -124v-20q-1 -13 -1 -19q0 -11 2 -32.5t2 -32.5q0 -15 -10 -15q2 0 -46 10q-43 9 -52 31q-2 6 -6 61q-2 26 -2 42q0 262 6 401q2 44 2 68q0 84 14 84q6 0 13 3t9 3q-2 0 26 -7q16 -4 32 -5q21 -1 56 -10q11 -5 14 -20
q18 -95 60 -282q6 -21 7 -21q4 0 13 33q12 42 19 74l36 156q34 127 55 127q19 0 53.5 -10.5t52 -21t17.5 -27.5v-14q-1 -9 -1 -14q0 -6 1 -19t1 -19v-47v-36q-1 -24 -1 -36q0 -22 1.5 -65t1.5 -65q0 -25 -1 -74.5t-1 -74.5q0 -16 1 -47.5t1 -47.5z" />
    <glyph glyph-name="afii10031" unicode="&#x41d;" horiz-adv-x="503" 
d="M434 312q0 -15 1 -45t1 -45q0 -33 -3.5 -98t-3.5 -98q0 -14 -6.5 -21.5t-16.5 -7.5q-82 0 -82 55q0 29 -3 85.5t-3 85.5q0 10 1 29.5t1 29.5q0 27 -12 27q-10 0 -30.5 -3.5t-30.5 -3.5q-2 0 -5 1h-6q-32 0 -50 -7q-5 -2 -5 -105q0 -17 -1.5 -51t-1.5 -51q0 -4 1 -12v-12
q0 -8 -1 -23.5t-1 -23.5q0 -3 1 -10t1 -10q0 -16 -13 -16q-4 0 -12 2t-12 2q-48 0 -61 23t-13 95q0 44 -2 133t-2 133q0 35 3 89q3 73 4 89q1 30 1 97q0 15 9.5 35t22.5 20q53 0 66 -10q16 -13 16 -62q0 -14 -1 -43t-1 -43t1 -42.5t1 -42.5q0 -6 -1 -17t-1 -16q0 -6 4 -6
q6 0 18 1t18 1h7q5 -1 7 -1q10 0 29 3t28 3q3 0 8.5 -1t8.5 -1q2 0 4 14q6 52 6 212q0 12 -2 36.5t-2 36.5q0 22 7.5 29.5t28.5 7.5q27 0 51 -10q30 -14 30 -37q0 -6 -1 -16.5t-1 -16.5q0 -8 1.5 -24t1.5 -24q0 -14 -2 -42t-2 -42q0 -23 2.5 -69.5t2.5 -69.5q0 -16 -1.5 -48
t-1.5 -48z" />
    <glyph glyph-name="afii10032" unicode="&#x41e;" horiz-adv-x="521" 
d="M488 368q0 -101 -30 -197q-35 -115 -100 -169q-34 -28 -57 -28q-5 0 -15.5 -1t-15.5 -1q-12 0 -30 7q-12 5 -32 9q-34 7 -68 44q-58 63 -81 131q-22 62 -22 153q0 94 24 190q29 113 79 172q35 41 88 41q14 0 89 -29q21 -6 62 -25q18 -13 38 -43q71 -106 71 -254zM358 400
q0 34 -11 91q-11 61 -25 87q-9 16 -24.5 29t-23.5 13q-7 0 -21 -17q-9 -11 -27 -41q-68 -115 -68 -264q0 -57 15 -132q20 -102 53 -102q69 0 106 139q26 99 26 197z" />
    <glyph glyph-name="afii10033" unicode="&#x41f;" horiz-adv-x="503" 
d="M429 26q0 -32 -23 -32q-82 0 -82 58q0 29 -3 85.5t-3 85.5q0 23 3 68t3 67q0 21 -3 61.5t-3 60.5q0 23 2 69t2 69q-12 -2 -35 -6q-53 -11 -63 -11q-4 0 -11 1h-12h-17q0 -13 1 -38.5t1 -37.5q0 -44 -2.5 -131t-2.5 -131q0 -88 -1 -108q-2 -41 -2 -50q0 -6 1.5 -19
t1.5 -19q0 -7 -1.5 -21t-1.5 -21q0 -4 1.5 -12.5t1.5 -12.5q0 -5 -5 -12t-10 -7q-4 0 -12 2t-12 2q-48 0 -61 23t-13 95q0 44 -2 133t-2 133q0 37 4 112t4 112q0 5 -8.5 19.5t-8.5 30.5q0 42 10.5 53.5t38.5 11.5q47 0 215 28q3 22 35 22q9 0 26.5 -4t26.5 -4q6 0 17.5 -16
t11.5 -23q0 -5 -2 -16t-2 -17t2 -18.5t2 -18.5q0 -16 -2 -47.5t-2 -47.5q0 -24 2 -72t2 -72q0 -63 -3.5 -188.5t-3.5 -188.5z" />
    <glyph glyph-name="afii10034" unicode="&#x420;" horiz-adv-x="436" 
d="M414 515q0 -69 -35.5 -137t-92.5 -102q-36 -14 -102 -48v-70q0 -14 2 -43t2 -43q0 -10 -3.5 -29t-3.5 -29q0 -3 2.5 -8.5t2.5 -9.5q0 -33 -30 -33q-81 0 -85 67q-5 82 -5 250q0 27 1 81t1 81q0 38 -1 114t-1 114q0 40 78 40h53q38 0 65 -8q55 -16 103.5 -74t48.5 -113z
M284 511q0 42 -11 61q-16 26 -56 26h-17q-13 0 -16 -6.5t-3 -53.5q0 -8 1.5 -24t1.5 -24q0 -7 -1.5 -21t-1.5 -21t1.5 -21t1.5 -21q0 -5 -1.5 -15t-1.5 -13q0 -22 11 -22q41 0 70 52q22 41 22 103z" />
    <glyph glyph-name="afii10035" unicode="&#x421;" horiz-adv-x="446" 
d="M408 213q0 -88 -43 -159q-51 -82 -133 -82q-37 0 -78 18t-63 43q-57 65 -57 232q0 132 41 270q55 187 153 187q41 0 121 -62q47 -36 47 -128q0 -53 -8 -72q-14 -33 -58 -33q-55 0 -62 73q-2 19 -4 39t-10 36q-14 30 -20 30q-11 0 -19 -24q-40 -126 -46 -200t-6 -145
q0 -98 21 -158q6 -18 30 -18q39 0 74 102l20 72q16 46 46 46q24 0 39 -21t15 -46z" />
    <glyph glyph-name="afii10036" unicode="&#x422;" horiz-adv-x="400" 
d="M389 680q0 -61 -24 -66q-4 -1 -25 -2q-77 -5 -77 -18q0 -2 1 -6v-6q0 -32 -2 -86q-3 -65 -3 -86q-2 -99 -2 -164q0 -27 1 -80t1 -80q0 -31 -4 -77q6 -12 6 -13q0 -16 -27 -16q-92 0 -92 66v50q0 16 -1 45t-1 44v270q0 15 2 45t2 45v35q-80 -10 -88 -10q-4 0 -6 11
q-3 15 -4 17t-14 22q-12 17 -12 20q0 1 1 3t1 3q0 3 -2 10t-2 10q0 20 73 32q17 3 47 6l12 1q7 1 4 1q51 5 115 18q11 2 13 2q4 0 11.5 -1.5t10.5 -1.5q4 0 12 3t12 3q3 0 8.5 -1.5t8.5 -1.5q1 0 3 1h3q11 0 24.5 -17.5t13.5 -29.5z" />
    <glyph glyph-name="afii10037" unicode="&#x423;" horiz-adv-x="376" 
d="M371 701q0 -22 -14 -74q-10 -37 -21 -75q-11 -41 -39 -161q-16 -87 -52 -261q-9 -35 -25 -104q-4 -28 -18 -76q-5 -10 -15 -10q-22 0 -52 18q-34 19 -34 39q0 6 3 18t3 18q0 29 22 117t22 95q0 6 -13 13l-18 11q-17 14 -33 63q-25 74 -44 181q-21 112 -21 184q0 17 19 21
q17 1 34 3q11 2 21 2q26 0 35.5 -19t11.5 -52q1 -17 8 -74q5 -46 5 -74q0 -32 20 -97q5 -17 9 -17q8 0 8 16q0 28 7 64q11 57 33 152q6 45 27 126q8 19 18 19q25 0 57 -20q36 -23 36 -46z" />
    <glyph glyph-name="afii10038" unicode="&#x424;" horiz-adv-x="627" 
d="M597 444q0 -95 -9 -142q-14 -80 -61 -125q-37 -36 -108 -66q-20 -8 -48 -21q-5 -4 -5 -9q0 -6 1.5 -18t1.5 -18q0 -70 -7 -84q-4 -8 -20 -9t-24 -6.5t-33 -5.5q-29 0 -29 25q0 9 3 44q2 23 2 75q-75 0 -148 29q-44 18 -66 89q-17 53 -17 115q0 212 72 272q42 35 107 62
q23 9 48 20q4 3 4 9q0 11 -2.5 32t-2.5 32q0 36 26 36q12 0 34.5 -3.5t34 -3.5t15 -10t3.5 -31q0 -9 -1.5 -27.5t-1.5 -27.5q78 0 148 -29q83 -34 83 -204zM468 438q0 56 -8 81q-15 44 -58 44h-17q-5 0 -9 -2q-10 -6 -10 -84q0 -11 1.5 -34t1.5 -35q0 -10 -1.5 -30.5
t-1.5 -30.5t1.5 -30t1.5 -30q0 -7 -1.5 -21t-1.5 -20q0 -31 11 -31q91 0 91 223zM261 284q0 11 -2.5 34t-2.5 34q0 18 2.5 53.5t2.5 53.5v61q0 26 -11 26q-91 0 -91 -223q0 -54 9 -80q14 -45 57 -45h17q12 0 16 15q3 12 3 71z" />
    <glyph glyph-name="afii10039" unicode="&#x425;" horiz-adv-x="449" 
d="M440 702q-3 -12 -8 -35l-11 -22q-8 -19 -17 -41q-27 -64 -54 -127q-38 -92 -38 -115q0 -7 20 -62q100 -275 100 -288q0 -21 -18 -21q-7 0 -20 4.5t-20 4.5q-19 0 -31 4q-22 7 -44 56q-15 36 -29 72q-9 21 -24 62q-5 15 -5 22t-3 7q-3 -4 -9 -17q-35 -78 -61 -141
q-14 -34 -48 -98q-13 -18 -24 -18q-17 0 -50.5 27.5t-33.5 43.5q14 21 52 99q22 46 41 90q18 38 36 75q24 54 24 76q0 6 -19 57l-52 130q-40 101 -40 120q0 31 18 31q16 0 22 -2q17 1 51 -12q13 -10 43 -72q20 -42 39 -84q9 -19 11 -19q5 0 19 39q19 58 64 173q18 39 31 39
q30 0 88 -58z" />
    <glyph glyph-name="afii10040" unicode="&#x426;" horiz-adv-x="504" 
d="M494 85q0 -15 -3 -45t-3 -44t-6 -33.5t-6.5 -27.5t-2.5 -19q-4 -7 -32 -7q-14 0 -38 6q-29 7 -29 15q0 7 11 38t11 51q0 12 -12 12q-44 0 -119 -12q-15 -2 -68 -18q-43 -12 -70 -12q-67 0 -67 39q0 6 2 16.5t2 16.5t-2 18.5t-2 18.5q0 18 2 55t2 56q0 21 -2 64t-2 64
q0 -17 4 119v45q0 30 1.5 91t1.5 92t23 31q82 0 82 -58q0 -29 3 -85.5t3 -85.5q0 -17 -3 -52t-3 -52q0 -20 3 -61t3 -61q0 -25 -2 -74t-2 -74q83 26 141 26v35q0 24 -1.5 71.5t-1.5 70.5q0 36 1.5 108t1.5 108q0 17 1.5 51.5t1.5 51.5q0 6 -1.5 19t-1.5 19q0 7 1.5 21
t1.5 21q0 4 -1.5 12.5t-1.5 12.5t5.5 11.5t9.5 7.5t12 -2t12 -2q48 0 61 -23t13 -95q0 -39 2 -117t2 -117q0 -43 -4 -128t-4 -128q0 -10 27 -12q31 -2 37 -10t6 -39z" />
    <glyph glyph-name="afii10041" unicode="&#x427;" horiz-adv-x="440" 
d="M380 701q0 -5 -2 -14t-2 -14q0 -9 1 -27t1 -27q0 -14 -2 -40.5t-2 -40.5q0 -9 1 -25.5t1 -25.5q0 -15 -2 -46t-2 -46q0 -24 2 -63q3 -49 3 -64q1 -35 1 -104q0 -23 -1 -67.5t-1 -67.5q0 -27 -5 -35.5t-19 -8.5q-16 0 -54 20t-38 34v125q-2 98 -2 95q-28 -7 -49 -7
q-26 0 -57 8q-76 20 -107 89q-20 45 -25 94h-2v42q0 -2 9 126q0 31 3 71q2 6 9 6t19.5 2.5t19.5 2.5q24 0 51 -12q33 -14 33 -34q0 -15 -7.5 -42.5t-7.5 -41.5v-77q0 -70 14 -98q11 -22 52 -22q9 0 31 6q19 5 19 169q0 14 1 41v42q0 8 -1 25.5t-1 26.5q0 45 7 55t32 10
t48 -8q31 -12 31 -32z" />
    <glyph glyph-name="afii10042" unicode="&#x428;" horiz-adv-x="755" 
d="M692 85q0 -42 -10.5 -53.5t-38.5 -11.5q-47 0 -215 -28q-3 -22 -35 -22q-10 0 -56 9q-31 -3 -91 -14q-88 -25 -116 -25q-67 0 -67 39q0 6 2 16.5t2 16.5t-2 18.5t-2 18.5q0 18 2 55t2 56q0 21 -2 64t-2 64q0 23 2 60q2 49 2 59v45q0 30 1.5 91t1.5 92t23 31q82 0 82 -58
q0 -29 3 -85.5t3 -85.5q0 -17 -3 -52t-3 -52q0 -20 3 -61t3 -61q0 -25 -2 -74t-2 -74q76 24 134 26q0 18 2 54.5t2 54.5q0 4 -2 50q-2 42 -2 123q0 29 2 109l1 40q1 40 1 111q0 32 23 32q82 0 82 -58q0 -29 3 -85.5t3 -85.5q0 -26 -1 -40q-2 -29 -2 -23q0 -21 3 -61.5
t3 -60.5q0 -23 -2 -69t-2 -69q3 0 49 11q29 6 49 6h20q13 -1 20 -1q0 10 -1 29.5t-1 29.5q0 61 5 241v93q0 17 1.5 51.5t1.5 51.5q0 6 -1.5 19t-1.5 19q0 7 1.5 21t1.5 21q0 4 -1.5 12.5t-1.5 12.5t5.5 11.5t9.5 7.5t12 -2t12 -2q49 0 61.5 -22.5t12.5 -95.5q0 -39 2 -117
t2 -117q0 -83 -6 -209q-2 -41 -2 -47q0 -4 8.5 -18t8.5 -32z" />
    <glyph glyph-name="afii10043" unicode="&#x429;" horiz-adv-x="761" 
d="M743 79q0 -10 -1.5 -29.5t-1.5 -29.5q0 -16 -6.5 -45t-6.5 -45t-2 -20q-4 -8 -32 -8q-13 0 -38 7q-29 8 -29 17q0 14 11.5 41.5t11.5 44.5q0 8 -12 8q-62 0 -230 -28q-3 -22 -35 -22q-9 0 -26.5 4t-26.5 4q-34 0 -92.5 -19t-96.5 -19q-67 0 -67 39q0 6 2 16.5t2 16.5
t-2 18.5t-2 18.5q0 18 2 55t2 56q0 21 -2 64t-2 64q0 -17 4 119v45q0 30 1.5 91t1.5 92t23 31q82 0 82 -58q0 -29 3 -85.5t3 -85.5q0 -17 -3 -52t-3 -52q0 -20 3 -61t3 -61q0 -25 -2 -74t-2 -74q80 26 134 26q0 18 2 54.5t2 54.5q0 21 -2 64t-2 64t2 62t2 62q0 26 -1.5 77
t-1.5 77q0 59 26 59q82 0 82 -58q0 -29 3 -85.5t3 -85.5q0 -26 -1 -40q-2 -29 -2 -23q0 -21 3 -61.5t3 -60.5q0 -23 -2 -69t-2 -69q61 16 141 16q0 30 -1.5 89t-1.5 88q0 14 3 119v97q0 17 1.5 51.5t1.5 51.5q0 6 -1.5 19t-1.5 19q0 7 1.5 21t1.5 21q0 4 -1.5 12.5
t-1.5 12.5t5.5 11.5t9.5 7.5t12 -2t12 -2q49 0 61.5 -22.5t12.5 -95.5q0 -39 2 -117t2 -117q0 -83 -6 -209q-2 -41 -2 -47q8 2 22 2q31 0 40 -14q6 -10 6 -44z" />
    <glyph glyph-name="afii10044" unicode="&#x42a;" horiz-adv-x="587" 
d="M554 242q0 -143 -86 -204q-41 -29 -91 -40t-77 -11q-7 0 -22 1t-22 1q-8 0 -21 -5t-21 -5q-52 0 -52 49q0 8 -2 25t-2 25q0 27 2 80t2 79q0 27 -2 80t-2 80q0 40 4 120.5t4 120.5q0 4 -8 4q-23 0 -96 -17q-17 -4 -23 -4q-3 0 -3 8q0 13 -8.5 29t-8.5 19q0 2 2 5
q0 3 -1.5 8.5t-1.5 7.5q0 12 24 22q76 33 139 33q18 0 53.5 3t53.5 3q12 0 18.5 -13t6.5 -26q0 -55 -14 -60q-1 0 -13 -1t-12 -3q0 -12 2 -36.5t2 -36.5q0 -13 -3 -41q0 -22 -2 -66q-2 -22 -2 -30q0 -5 13 -5q17 0 49.5 3t49.5 3q85 0 139 -69q13 -16 20 -36q12 -32 12 -100
zM435 231q0 108 -92 108q-11 0 -32.5 -3.5t-32.5 -3.5q-10 -20 -10 -94q0 -11 1.5 -34t1.5 -34q0 -10 -1.5 -30.5t-1.5 -30.5q0 -11 22 -11q62 0 103.5 36t41.5 97z" />
    <glyph glyph-name="afii10045" unicode="&#x42b;" horiz-adv-x="718" 
d="M652 19q0 -19 -32 -31q-24 -9 -48 -9t-29.5 12.5t-5.5 52.5q0 10 1.5 29t1.5 29q0 8 -1.5 24t-1.5 24q0 46 -1.5 138.5t-1.5 138.5q0 29 1.5 88t1.5 89q0 46 -1 63q-2 29 -2 26q0 16 7 33q8 21 21 21q9 0 25.5 -4.5t26.5 -4.5q15 0 25.5 -10t10.5 -25q0 -18 1 -53.5
t1 -52.5q0 -36 -2 -132q0 -11 -2 -47q-1 -30 -1 -48q0 -21 1.5 -63.5t1.5 -63.5q0 -9 -1.5 -26t-1.5 -25q0 -14 2.5 -40.5t2.5 -40.5q0 -9 -1 -26.5t-1 -26.5q0 -7 1 -19.5t1 -19.5zM462 242q0 -143 -86 -204q-41 -29 -91 -40t-77 -11q-7 0 -22 1t-22 1q-8 0 -21 -5t-21 -5
q-52 0 -52 49q0 8 -2 25t-2 25q0 27 2 80t2 79q0 27 -2 80t-2 80q0 30 4 90t4 90q0 16 -2 47t-2 46q0 50 42 50q70 0 70 -32q0 -10 2 -29.5t2 -29.5q0 -53 -1 -68t-3 -46q0 -10 -1.5 -33.5t-1.5 -35.5q0 -5 13 -5q17 0 49.5 3t49.5 3q85 0 139 -69q32 -41 32 -136zM343 231
q0 47 -22 76q-25 32 -70 32q-11 0 -32.5 -3.5t-32.5 -3.5q-10 -20 -10 -94q0 -11 1.5 -34t1.5 -34q0 -10 -1.5 -30.5t-1.5 -30.5q0 -11 22 -11q62 0 103.5 36t41.5 97z" />
    <glyph glyph-name="afii10046" unicode="&#x42c;" horiz-adv-x="492" 
d="M462 242q0 -143 -86 -204q-41 -29 -91 -40t-77 -11q-7 0 -22 1t-22 1q-8 0 -21 -5t-21 -5q-52 0 -52 49q0 8 -2 25t-2 25q0 27 2 80t2 79q0 27 -2 80t-2 80q0 31 4 91.5t4 91.5q0 18 -2 53t-2 52q0 50 42 50q70 0 70 -32q0 -12 2 -35t2 -35q0 -54 -1 -69t-3 -46
q0 -14 -1 -42q-2 -22 -2 -30q0 -5 13 -5q17 0 49.5 3t49.5 3q85 0 139 -69q13 -16 20 -36q12 -32 12 -100zM343 231q0 47 -22 76q-25 32 -70 32q-11 0 -32.5 -3.5t-32.5 -3.5q-10 -20 -10 -94q0 -11 1.5 -34t1.5 -34q0 -10 -1.5 -30.5t-1.5 -30.5q0 -11 22 -11
q62 0 103.5 36t41.5 97z" />
    <glyph glyph-name="afii10047" unicode="&#x42d;" horiz-adv-x="455" 
d="M440 388q0 -37 -34 -61q-32 -268 -132 -331q-38 -24 -73 -24q-69 0 -117 33.5t-48 128.5q0 54 12 79.5t54 25.5q26 0 36 -17q12 -22 15 -56q3 -44 4 -47q7 -30 30 -30q12 0 32 25q42 53 58 199q-23 2 -26 2q-21 0 -29 -2q-11 -3 -21 -3t-22 14.5t-12 23.5t-2 24.5
t-2 23.5q0 20 16 20q11 0 33.5 -2.5t33.5 -2.5h37v47q0 94 -21 158q-6 18 -30 18q-42 0 -74 -62l-20 -68q-15 -43 -46 -43q-24 0 -39 21t-15 46q0 85 46 139.5t130 54.5q39 0 79 -18t62 -43q57 -65 57 -243q28 0 28 -30z" />
    <glyph glyph-name="afii10048" unicode="&#x42e;" horiz-adv-x="735" 
d="M702 375q0 -103 -27 -196q-34 -113 -98 -169q-35 -31 -84 -31q-10 0 -27 4q-6 1 -36 3q-18 1 -35 13q-32 23 -63 75q-28 46 -41 90q-21 69 -21 159q0 6 -1.5 7t-13.5 1q-13 0 -38 -5q-31 -5 -38 -6q3 -69 3 -98q0 -9 -1.5 -26t-1.5 -25q0 -14 2.5 -40.5t2.5 -40.5
q0 -9 -1 -26.5t-1 -26.5q0 -7 1 -19.5t1 -19.5q0 -20 -33 -32q-25 -8 -50 -8q-24 0 -30 22q-2 8 -2 43q0 10 1.5 29t1.5 29q0 8 -1.5 24t-1.5 24v32q0 25 -1.5 73t-1.5 71q-18 7 -18 17q0 23 -4 31t-4 23q0 14 26 26q0 30 1.5 90t1.5 91q0 46 -1 63q-2 29 -2 26q0 16 7 33
q8 21 21 21q9 0 26 -4.5t26 -4.5q36 0 36 -35q0 -18 1 -53.5t1 -53.5q0 -63 -3 -151q13 0 39.5 3.5t39.5 3.5h9q6 -1 9 -1q25 175 90 255q33 41 85 41q8 0 52 -13q19 -6 33.5 -9t31 -5.5t29.5 -13.5q17 -14 36 -46q67 -113 67 -264zM578 407q0 34 -11 90q-11 60 -24 88
q-8 17 -22.5 29.5t-23.5 12.5q-7 0 -20 -17q-91 -124 -91 -305q0 -55 14 -131q20 -103 51 -103q66 0 102 141q25 99 25 195z" />
    <glyph glyph-name="afii10049" unicode="&#x42f;" horiz-adv-x="501" 
d="M431 149q0 -21 2 -62t2 -61q0 -25 -8.5 -35t-33.5 -10q-70 0 -70 29q0 16 -2 48t-2 48q0 29 3.5 87.5t3.5 87.5q0 7 -7 7q-9 0 -30 -3q-32 -55 -62 -115l-16 -32q-23 -48 -45 -96q-38 -74 -59 -74q-17 0 -48.5 22.5t-31.5 38.5q0 12 11 27q41 56 132 229q-44 11 -61 26
q-42 37 -55 72q-11 28 -11 87q0 144 119 197q88 39 148 39q5 0 15.5 -1.5t15.5 -1.5q11 0 32 5.5t32 5.5q22 0 27 -13q3 -6 3 -33q0 -8 2 -23t2 -23q0 -20 -2 -59t-2 -59q0 -26 2 -77.5t2 -77.5q0 -68 -6 -165q-2 -32 -2 -35zM329 446q0 49 -1 62q-2 23 -2 29q0 7 1.5 20
t1.5 20q0 11 -6 13h-16q-54 0 -97 -27q-48 -32 -48 -83q0 -44 24.5 -70.5t67.5 -26.5q11 0 32.5 3t32.5 3q10 17 10 57z" />
    <glyph glyph-name="afii10065" unicode="&#x430;" horiz-adv-x="332" 
d="M291 160q0 -9 1 -28v-28v-36q-1 -23 -1 -35q0 -4 1 -11v-11q0 -19 -5.5 -27t-24.5 -8q-40 0 -58 34q-51 -19 -77 -19q-33 0 -66 35t-33 69q0 55 32 84q20 18 50 35q35 20 55 20q4 0 11 -1t10 -1q12 0 12 20q0 8 -1 24.5t-1 24.5q0 6 1 18t1 18q0 23 -10 23
q-14 0 -74 -100q-11 -18 -22 -18q-14 0 -36 13t-22 25q0 13 23 60q9 20 31 56q47 63 70 63q7 0 29.5 -12.5t48.5 -23.5q41 -17 53 -67q5 -23 5 -90q0 -18 -1.5 -53t-1.5 -53zM196 110v17q0 23 -12 23q-18 0 -50 -18t-32 -34q0 -19 24 -19q70 0 70 31z" />
    <glyph glyph-name="afii10066" unicode="&#x431;" horiz-adv-x="369" 
d="M339 232q0 -52 -12 -96q-16 -59 -46 -102q-39 -57 -87 -57q-99 0 -136 69q-27 50 -27 158q0 19 2.5 56.5t2.5 56.5q0 171 24 245q10 31 45.5 53.5t141.5 66.5q32 13 51 29q10 8 19 8q14 0 14 -19q0 -7 -2 -20.5t-2 -20.5q0 -9 4 -18t4 -31q0 -26 -106 -56q-27 -8 -47 -18
q-39 -20 -52 -66q-9 -30 -9 -88v-16h2q25 40 42 55q26 23 64 23q11 0 31 -14q49 -35 66 -87q13 -39 13 -111zM229 275q0 77 -24 77q-22 0 -35 -20l-35 -56q-7 -39 -7 -49q0 -14 3.5 -40.5t3.5 -40.5q0 -82 33 -82q9 0 21 20q40 69 40 191z" />
    <glyph glyph-name="afii10067" unicode="&#x432;" horiz-adv-x="383" 
d="M353 145q0 -29 -23 -65q-35 -55 -132 -85q-42 -13 -75 -13q-36 0 -50.5 11.5t-18.5 45.5q-3 26 -3 58q0 12 1 36.5t1 37.5v124q0 17 -1 52.5t-1 53.5q0 58 31 58q42 0 64 -14q42 14 68 14q39 0 60 -4q48 -9 65 -52q6 -15 6 -39t-22 -57q-20 -29 -43 -44q-5 -3 -15 -11
q0 -2 19 -6t29 -12q40 -30 40 -89zM260 366q0 2 -8 8t-22 6q-39 0 -67 -14q-2 -29 -5 -88q102 46 102 88zM257 153q0 48 -62 48q-18 0 -34 -8q0 -15 -1.5 -44t-1.5 -43q0 -7 1 -20t1 -20q34 6 63 29q34 27 34 58z" />
    <glyph glyph-name="afii10068" unicode="&#x433;" horiz-adv-x="328" 
d="M292 68q0 -41 -63 -65q-49 -18 -99 -18q-41 0 -69 33.5t-28 74.5q0 69 65 120q84 66 84 107q0 64 -20 64q-9 0 -19.5 -14.5t-12.5 -63.5q-2 -34 -37 -34q-3 0 -12 3.5t-17 3.5q-25 0 -25 52q0 34 10 53q19 36 59 56q37 19 80 19q94 0 94 -138q0 -78 -78 -142
q-40 -32 -50.5 -52.5t-10.5 -27.5q0 -8 8.5 -16t16.5 -8q10 0 46.5 19.5t43.5 19.5q29 0 29 -12q0 -2 -1 -5t-1 -5q0 -5 3.5 -10.5t3.5 -13.5z" />
    <glyph glyph-name="afii10069" unicode="&#x434;" horiz-adv-x="359" 
d="M326 336q0 -258 -72 -320q-36 -31 -63 -31q-64 0 -112.5 32.5t-48.5 161.5q0 115 54 230q23 50 73 50q14 0 36 -9.5t32 -19.5q0 12 -1.5 34.5t-1.5 33.5t1.5 32t1.5 32q0 27 -7 38t-33 11q-12 0 -47 -30t-45 -30q-4 0 -11.5 4.5t-11.5 4.5q-3 -1 -4 -1q-14 0 -14 30
q0 29 57.5 79.5t87.5 50.5q125 0 125 -162q0 -37 2 -110.5t2 -110.5zM225 187q0 17 -2.5 51t-2.5 51q0 77 -53 77q-22 0 -29 -59t-7 -159q0 -88 25 -88q24 0 46.5 35.5t22.5 91.5z" />
    <glyph glyph-name="afii10070" unicode="&#x435;" horiz-adv-x="351" 
d="M320 132q0 -2 -2 -6.5t-2 -6.5t1 -5.5t1 -5.5q0 -9 -17 -38q-14 -23 -38 -50q-27 -30 -47 -39q-15 -7 -37 -7q-9 0 -43 15q-13 5 -34 16q-74 58 -74 160q0 58 21 139q23 87 53 128q20 27 52 27q22 0 59 -12.5t51 -25.5q43 -41 43 -160q0 -8 -1 -25t-1 -25q0 -11 -38 -18
q-10 -2 -31 -4q-5 0 -57.5 -8.5t-52.5 -36.5v-36q0 -40 26 -40q17 0 47 25q27 21 39 40q5 8 18 25q12 13 16 13q15 0 31.5 -12.5t16.5 -26.5zM212 276q0 104 -26 104q-7 0 -25.5 -53t-18.5 -66q0 -4 8 -4t35 7.5t27 11.5z" />
    <glyph glyph-name="afii10072" unicode="&#x436;" horiz-adv-x="503" 
d="M491 26q0 -10 -17.5 -26t-27.5 -16q-8 0 -28 18q-25 22 -46 64l-36 70q-7 12 -20 36q-6 14 -8 14q-7 0 -7 -8q0 -10 2 -29t2 -29t-2 -29t-2 -28t2 -28t2 -28q0 -10 -22 -17q-18 -6 -31 -6q-29 0 -37 11.5t-9 51.5q-1 28 -2 57t-1 35q0 3 1 10v9q0 24 -7 24
q-14 0 -73 -121q-14 -31 -40 -73q-9 -8 -15 -8q-7 0 -32 12t-25 18q0 11 4.5 24.5t53.5 102.5q45 81 45 92q0 15 -50.5 90t-50.5 89q0 10 17 26t28 16q19 0 74 -72q2 -2 32 -64q27 -53 36 -53q2 0 4 10q1 6 1 76q0 13 -1.5 39.5t-1.5 39.5q0 33 32 33q70 0 70 -62
q0 -10 -2 -31t-2 -31t-1.5 -28t-1.5 -27q0 -12 7 -12q12 0 57 91q48 97 56 104t15 7q8 0 32.5 -11.5t24.5 -18.5q0 -22 -17 -50q-13 -21 -51 -95q-35 -68 -35 -74q0 -17 27 -62q33 -56 36 -62.5t24 -35.5q17 -23 17 -35z" />
    <glyph glyph-name="afii10073" unicode="&#x437;" horiz-adv-x="355" 
d="M325 145q0 -29 -23 -65q-34 -54 -131 -85q-41 -13 -65 -13q-47 0 -60 20t-13 40q0 28 41 28q5 0 14.5 -2t13.5 -2q36 0 79 25q48 29 48 62q0 48 -62 48q-20 0 -34.5 -9t-24.5 -9q-39 0 -39 31q0 26 12.5 37.5t61.5 33t69 42.5t20 39q0 6 -11.5 10t-18.5 4q-28 0 -50 -7
q-9 -3 -36 -18.5t-30 -15.5q-13 0 -25.5 22t-12.5 37q0 17 41 36q29 14 56 20q22 5 41 5q39 0 60 -4q48 -9 65 -52q6 -15 6 -39t-22 -56.5t-44 -42.5q-5 -2 -16 -8q18 -4 50 -21q40 -36 40 -91z" />
    <glyph glyph-name="afii10074" unicode="&#x438;" horiz-adv-x="375" 
d="M339 46q0 -16 -13 -37q-14 -24 -29 -24q-22 0 -39 9q-12 7 -20 36q-2 7 -4 7t-10 -11q-28 -41 -63 -41q-25 0 -55 17t-40 40q-21 48 -21 138q0 44 5 130q6 104 14 118q6 10 26 10q22 0 43 -9q27 -12 27 -31q0 -40 -6 -119t-6 -119q0 -57 4 -71t7 -14q36 0 49 24.5
t13 88.5q0 22 2 66.5t2 66.5q0 17 -2 51t-2 51q0 15 12 25.5t27 10.5q19 0 39.5 -10t20.5 -27q0 -8 -1 -25t-1 -25q0 -17 2 -51.5t2 -51.5q0 -29 -3.5 -85t-3.5 -84q0 -35 12 -44t12 -10z" />
    <glyph glyph-name="afii10075" unicode="&#x439;" horiz-adv-x="375" 
d="M294 579q0 -30 -18.5 -54.5t-46.5 -33.5q-21 -6 -48 -6q-40 0 -66 21t-26 60q0 17 40 17q15 0 20.5 -18.5t36.5 -18.5q39 0 39 23q0 3 -2 9t-2 9q0 14 48 14q25 0 25 -22zM339 47q0 -16 -13 -37q-14 -24 -29 -24q-23 0 -39 8q-12 6 -20 37q-2 7 -4 7t-10 -11
q-28 -41 -63 -41q-25 0 -55 17t-40 40q-21 48 -21 138q0 44 5 130q6 104 14 118q6 10 26 10q22 0 43 -9q27 -12 27 -31q0 -40 -6 -119t-6 -119q0 -57 4 -71t7 -14q36 0 49 24.5t13 88.5q0 22 2 66.5t2 66.5q0 17 -2 51t-2 51q0 15 12 25.5t27 10.5q19 0 39.5 -10t20.5 -27
q0 -8 -1 -25t-1 -25q0 -17 2 -51.5t2 -51.5q0 -29 -3.5 -85t-3.5 -84q0 -35 12 -44t12 -10z" />
    <glyph glyph-name="afii10076" unicode="&#x43a;" horiz-adv-x="348" 
d="M336 26q0 -9 -17.5 -25.5t-27.5 -16.5q-19 0 -74 72q-4 7 -11 20q-21 38 -41 69q-10 15 -12 15q-7 0 -7 -8q0 -7 2 -20t2 -20q0 -8 -2 -24.5t-2 -24.5q0 -10 2 -30t2 -30q0 -23 -18 -23q-50 0 -64 13t-17 52q0 29 -1.5 59t-1.5 35q0 16 1.5 48t1.5 48v52q0 23 -1.5 69.5
t-1.5 69.5q0 33 32 33q70 0 70 -62q0 -6 -2 -24q0 -24 -3 -71q-2 -18 -2 -22q0 -12 7 -12q12 0 57 91q49 98 56.5 104.5t14.5 6.5q8 0 32.5 -12t24.5 -18q0 -20 -16 -50q-24 -44 -71 -132q-16 -32 -16 -37q0 -12 28 -61l38 -64l22 -34q16 -25 16 -36z" />
    <glyph glyph-name="afii10077" unicode="&#x43b;" horiz-adv-x="333" 
d="M315 24q0 -14 -65 -14q-31 0 -35 48q-3 39 -26 190q-4 26 -4 35.5t-8 9.5q-3 0 -12 -34q-11 -45 -18 -76q-9 -48 -18 -95q-14 -69 -26 -86t-25 -17q-20 0 -38 8q-22 10 -22 27q0 43 60 249q7 24 19 71q4 25 16 74q14 45 40 45q10 0 30 -10q12 -6 44 -13q11 -2 22 -21
q13 -22 16 -50q2 -24 9 -74q11 -47 24 -126q17 -104 17 -141z" />
    <glyph glyph-name="afii10078" unicode="&#x43c;" horiz-adv-x="541" 
d="M493 371q0 -7 -3 -20t-3 -20q0 -13 1.5 -40t1.5 -40q0 -16 -1 -48.5t-1 -48.5q0 -11 1 -33.5t1 -33.5q0 -9 -2 -26.5t-2 -26.5q0 -2 1 -5v-4q0 -25 -11 -25q-37 0 -64.5 11t-27.5 21q0 43 5.5 129t5.5 129q0 44 -15 44q-5 0 -25 -66q-4 -14 -33 -117q-4 -18 -13 -48l1 2
q-12 -43 -27 -43q-48 0 -66 44v0v0q0 7 -28 92.5t-34 96.5q-7 0 -7 -13q0 -2 1 -6v-7q0 -9 -1 -27.5t-1 -27.5q0 -25 3 -76t3 -77q0 -37 -6 -52q-10 -24 -42 -24q-51 0 -51 35q0 10 -1.5 29.5t-1.5 29.5q0 150 5 254q2 40 2 47q0 59 13 59q6 0 12 2t7 2l24 -5q27 0 79 -10
q9 -3 13 -14q15 -53 48 -158q9 -27 12 -27t10 17q19 59 39 118q33 95 51 95q22 0 70 -11q56 -14 56 -27q0 -4 -1.5 -12t-1.5 -12q0 -5 2 -13t2 -13z" />
    <glyph glyph-name="afii10079" unicode="&#x43d;" horiz-adv-x="400" 
d="M350 203q0 -8 1 -25v-25q0 -23 -2.5 -67t-2.5 -65t-21 -21q-71 0 -71 38q0 17 -2 52t-2 52q0 6 1 17v18q0 24 -10 24q-6 0 -18 -2.5t-18 -2.5q-1 0 -4 1h-4q-11 0 -44 -5q-4 -5 -4 -22q0 -62 -1 -80q-2 -36 -2 -41q0 -3 1 -8v-8q0 -12 -1 -19q-3 -19 -4 -20
q-3 -8 -18 -11q-23 -5 -39 -5q-18 0 -26 16q-6 12 -9 159l-1 52q0 4 -1 19v19q0 17 4 64q3 35 3 96q0 11 8.5 24.5t19.5 13.5q45 0 55 -6q15 -8 15 -48v-12q-1 -9 -1 -13q0 -8 1 -25v-25v-32.5v-3.5q-1 -3 -1 -4q0 -5 3 -5q5 0 15.5 1t15.5 1h6q4 -1 6 -1q6 0 18.5 2t19.5 2
q4 0 9 -1q8 23 8 64q0 56 -1 71l-2 27q0 17 6.5 21.5t24.5 4.5q23 0 42 -6q28 -9 28 -27q0 -4 -1 -11t-1 -11t1 -13t1 -13q0 -8 -1.5 -23.5t-1.5 -23.5q0 -10 2 -30t2 -31t-1 -33.5t-1 -33.5z" />
    <glyph glyph-name="afii10080" unicode="&#x43e;" horiz-adv-x="357" 
d="M326 218q0 -75 -28 -148q-37 -94 -100 -94q-18 0 -42 12l-76 38q-5 3 -15 14q-35 42 -35 141q0 70 24 161q32 119 81 119q12 0 53 -11q35 -9 52 -17q86 -38 86 -215zM220 242q0 29 -6 69q-9 55 -24 55q-23 0 -42 -89q-14 -70 -14 -111q0 -28 5 -58q7 -44 21 -44
q29 0 47 77q13 56 13 101z" />
    <glyph glyph-name="afii10081" unicode="&#x43f;" horiz-adv-x="381" 
d="M333 294q0 -25 -2 -66q-2 -53 -2 -65t-2 -65q-2 -39 -2 -64q0 -34 -36 -34q-71 0 -71 66q0 43 4.5 128t4.5 128q0 34 -7 34q-37 0 -56 -118q-13 -81 -13 -161q0 -11 1.5 -34t1.5 -35q0 -30 -28 -30q-20 0 -33 3q-42 10 -42 97q0 37 2 115q2 75 2 115v31q0 8 -2 24.5
t-2 24.5q0 28 10 34.5t39 6.5q36 0 36 -28v-4q-1 -3 -1 -4q0 -6 4 -6q1 0 31 36t42 36q79 0 104 -46q17 -31 17 -119z" />
    <glyph glyph-name="afii10082" unicode="&#x440;" horiz-adv-x="379" 
d="M356 294q0 -32 -19 -100q-32 -112 -85 -174q-26 -30 -40 -30q-5 0 -14 2t-14 2q-13 0 -16 -11v-22q0 -15 1 -44.5t1 -44.5t-2 -45t-2 -45q0 -28 -4.5 -35t-15.5 -7q-20 0 -51 17.5t-31 35.5q0 6 1 17t1 17q0 10 -2 30.5t-2 30.5q0 14 2 42t2 42q0 9 -1 27t-1 27
q0 21 2 62.5t2 61.5q0 14 -2 40.5t-2 39.5q0 3 1 10t1 11t-14 22.5t-14 22.5q0 7 16 37t16 45q0 6 -1 18t-1 18q0 99 25 99q39 0 70 -33q9 -10 9 -26q0 -6 3 -6q4 0 11.5 1t11.5 1q70 0 114 -43t44 -113zM249 308q0 62 -27 62q-15 0 -33 -11.5t-18 -25.5v-6q0 -10 1 -30v-29
q0 -28 -1 -84t-1 -84q0 -12 5 -14q19 0 48 100q26 92 26 122z" />
    <glyph glyph-name="afii10083" unicode="&#x441;" horiz-adv-x="332" 
d="M312 140q0 -43 -40 -100q-44 -62 -84 -62q-35 0 -107 48q-34 23 -44 64q-7 25 -7 80q0 43 11 101q12 65 29 97q5 9 15 28q33 66 52 66q12 0 54.5 -12t56.5 -19l20 -10q11 -7 17 -16q8 -12 8 -50v-18q-1 -13 -1 -19q0 -76 -41 -76q-3 0 -10 4t-13 4q-34 0 -34 58
q0 7 1 20.5t1 20.5q0 15 -10 15q-9 0 -22 -41q-31 -95 -31 -223q0 -42 15 -42q14 0 26 17q10 13 29 33q3 3 23 46q17 38 27 38q13 0 36 -20t23 -32z" />
    <glyph glyph-name="afii10084" unicode="&#x442;" horiz-adv-x="552" 
d="M500 235q0 -63 -14 -215q-2 -22 -7 -28t-27 -6q-19 0 -40 11.5t-21 28.5q0 -7 1 24v4q2 73 7 218q0 6 2 26q1 16 1 26q0 44 -15 44q-45 0 -60 -221q-7 -105 -7 -121q0 -20 -23 -20q-8 0 -21 5t-20 5q-20 0 -25 11.5t-5 58.5q0 29 3 86t3 86q0 93 -13 93q-34 0 -53 -90
q-14 -64 -14 -119q0 -13 1 -38t1 -38q0 -86 -21 -86q-29 0 -53 14q-29 16 -29 43v32q1 22 1 33v98q0 7 1 21v20q0 33 -2.5 98t-2.5 97q0 26 39 26q47 0 47 -25q0 -9 -1 -26t-1 -26q0 -3 4 -3l34 42q23 24 46 24q42 0 78 -48q2 -3 6 -8q5 0 10 12l1 3q14 29 33 38
q23 11 64 11q59 0 78 -38q14 -26 14 -92v-91z" />
    <glyph glyph-name="afii10085" unicode="&#x443;" horiz-adv-x="339" 
d="M330 429q0 -12 -31 -135q-21 -85 -53 -237q-35 -167 -52 -237q-3 -26 -17 -73q-5 -10 -11 -10q-18 0 -48.5 20t-30.5 37q0 6 3 20q2 20 8 60q6 28 14 58q20 73 20 86q0 6 -11 12l-17 9q-14 12 -27 57q-47 159 -47 331q0 17 11 17q6 0 17 -3t17 -3q46 0 50 -54
q1 -19 11 -68q8 -43 8 -69q0 -34 12 -84q4 -15 7 -15q7 0 7 15q0 25 6 58q4 19 30 136q6 41 24 114q7 17 16 17q14 0 62 -23q22 -11 22 -36z" />
    <glyph glyph-name="afii10086" unicode="&#x444;" horiz-adv-x="520" 
d="M493 294q0 -32 -19 -100q-32 -113 -85 -174q-26 -30 -40 -30q-5 0 -14 2t-14 2q-13 0 -16 -11v-22q0 -15 1 -44.5t1 -44.5t-2 -45t-2 -45q0 -28 -4.5 -35t-15.5 -7q-20 0 -49 16q-33 19 -33 37q0 6 2 17t2 17q0 10 -2 30.5t-2 30.5q0 -1 2 13q8 55 8 84v21h-8l-15 -10.5
t-32 -10.5q-6 0 -41 13t-40 17q-45 36 -45 140q0 74 30 172q38 124 92 124q24 0 62 -10q0 21 -1.5 63.5t-1.5 63.5q0 11 1.5 33t1.5 33q0 84 14 84q38 0 61.5 -14.5t23.5 -28.5q0 -4 -1.5 -11.5t-1.5 -11.5q0 -32 -1 -96.5t-1 -96.5q0 -11 4 -11t11.5 1t11.5 1q70 0 114 -43
t44 -113zM386 308q0 62 -27 62q-15 0 -33.5 -11.5t-18.5 -25.5q0 -6 1.5 -18.5t1.5 -18.5q0 -22 -1 -66t-1 -66q0 -10 -1.5 -30t-1.5 -30q0 -18 7 -18q19 0 48 100q26 91 26 122zM211 197q0 6 -1.5 19t-1.5 19q0 9 1.5 26.5t1.5 26.5v56q0 19 -15 19q-29 0 -50 -112
q-15 -84 -15 -138q0 -11 5 -32q6 -26 12 -26q31 0 49 58q14 43 14 84z" />
    <glyph glyph-name="afii10087" unicode="&#x445;" horiz-adv-x="339" 
d="M331 430q0 -14 -30 -64q-20 -33 -39 -65.5t-40 -85.5v-2l30 -63q64 -125 64 -140q0 -22 -23 -22q-2 0 -7 2t-8 2t-8 -3t-7 -3q-30 0 -65 58t-38 58q-8 -7 -68 -142q-1 -2 -1 -5.5t-4 -3.5h-6q-4 1 -6 1q-5 0 -7 -1q-19 0 -35.5 24.5t-16.5 44.5q0 2 12 34q6 13 16 40
q3 7 33 66q25 49 25 62q0 15 -19 56q-25 52 -27 58q-6 18 -18 53q-10 26 -10 27q0 15 23 26.5t40 11.5q21 0 43.5 -64t35.5 -64q23 42 46 85q38 68 50 68q9 0 37 -21t28 -28z" />
    <glyph glyph-name="afii10088" unicode="&#x446;" horiz-adv-x="376" 
d="M385 35q0 -8 -1.5 -25t-1.5 -25q0 -11 -6 -31t-6 -32t-4 -16q-6 -7 -28 -7q-10 0 -25 7.5t-15 16.5q0 13 9 34t9 35q0 4 -3 4q-6 0 -16 -2.5t-15 -2.5q-31 0 -44 39q-2 7 -4 7t-10 -11q-10 -15 -41 -28t-50 -13q-24 0 -44.5 17.5t-29.5 40.5q-14 36 -14 137q0 53 11 206
q2 31 23 41.5t43 10.5t28.5 -9t6.5 -31q0 -40 -6 -119t-6 -119q0 -57 4 -71t7 -14h3q71 0 71 113q0 22 2 66t2 66q0 16 -2 47t-2 46q0 17 27 32q24 14 43 14q26 0 34 -24q4 -12 4 -45q0 -17 -3 -45q-3 -35 -4 -45q0 -28 -2 -84q-5 -69 -5 -95q0 -31 4.5 -39t17.5 -8q2 0 7 1
h6q26 0 26 -40z" />
    <glyph glyph-name="afii10089" unicode="&#x447;" horiz-adv-x="366" 
d="M318 419q0 -15 -4 -43.5t-4 -43.5q0 -73 -3 -106q-4 -43 -4 -80q0 -20 2.5 -60.5t2.5 -60.5q0 -40 -75 -40q-26 0 -26 52q0 13 2 38t2 37q0 36 -3 36q1 0 -22.5 -18.5t-49.5 -18.5q-94 0 -94 155q0 13 1 38.5t1 38.5q0 88 60 88q42 0 42 -40q0 -24 -5 -72.5t-5 -72.5
q0 -45 17 -45q58 0 58 54q0 8 3 33q2 16 2 53t-2 49q-3 18 -3 33q0 14 29 26q24 10 41 10q37 0 37 -40z" />
    <glyph glyph-name="afii10090" unicode="&#x448;" horiz-adv-x="552" 
d="M518 23q0 -43 -39 -43q-30 0 -40 14q-20 27 -20 58q0 8 -4 8q-2 0 -29.5 -33t-53.5 -33q-42 0 -78 48q-2 3 -6 8q-5 0 -10 -12q-14 -30 -34 -40q-25 -12 -64 -12q-59 0 -78 38q-14 26 -14 92v89q0 39 7 131q7 106 13 113t28 7q21 0 39 -9q22 -12 22 -31q0 -5 -1.5 -14
t-1.5 -14v-29q0 -8 -2 -46q0 -48 -4 -143q-2 -25 -2 -46q0 -50 15 -50q44 0 55 94q3 64 5 127q7 105 7 122.5t23 17.5q18 0 28 -4.5t13 -4.5q19 0 24.5 -11.5t5.5 -58.5q0 -22 -3 -62t-3 -110q0 -93 13 -93q67 0 67 209q0 13 -1 38t-1 38q0 55 4 70.5t17 15.5q29 0 53 -14
q29 -16 29 -43v-26v-68q-1 -47 -1 -67q0 -10 -1.5 -30.5t-1.5 -30.5q0 -63 4 -90.5t9 -39.5q1 -2 8 -14q4 -7 4 -16z" />
    <glyph glyph-name="afii10091" unicode="&#x449;" horiz-adv-x="552" 
d="M555 30q0 -6 -1.5 -18t-1.5 -18q0 -17 -5 -33q-4 -23 -9 -48q-5 -6 -29 -6q-11 0 -24 7q-16 9 -16 18q0 12 9 34.5t9 33.5q0 5 -3 5q-6 0 -17.5 -2.5t-17.5 -2.5q-17 0 -27 18l-16 28q-4 0 -11 -9q-31 -43 -73 -43q-43 0 -68 46l-6 10q-2 0 -4 -3q-28 -42 -59 -54
q-19 -7 -45 -7q-59 0 -78 38q-14 26 -14 92v90q0 39 7 131q7 105 13 112t28 7q21 0 39 -9q22 -12 22 -31q0 -5 -1.5 -14t-1.5 -14q0 -28 -4 -83t-4 -83q0 -16 -2.5 -47.5t-2.5 -47.5q0 -53 20 -53q45 0 56 71q2 52 4 105l6 105q0 27 7 64q6 7 20 7q10 0 23 4.5t18 4.5
q24 0 31 -25q3 -11 3 -44q0 -22 -7 -60q-9 -45 -10 -61q-2 -26 -2 -60q0 -94 19 -94q76 0 76 207q0 12 -2.5 35t-2.5 33q0 48 9 65q5 11 21.5 12t24.5 8.5t20 7.5q28 0 28 -54q0 -8 -10 -96q-1 -31 -5 -92q-4 -32 -4 -47q0 -88 26 -88q3 0 8.5 1t8.5 1q19 0 23.5 -7.5
t4.5 -46.5z" />
    <glyph glyph-name="afii10092" unicode="&#x44a;" horiz-adv-x="465" 
d="M438 151q0 -75 -74 -121q-63 -38 -144 -38q-6 -16 -40 -16q-18 0 -25 5q-2 1 -27 5q-21 4 -21 14q0 12 1 36.5t1 36.5q0 11 -1 33t-1 33q0 26 2.5 78t2.5 78q0 10 2 20q1 5 1 30q0 7 -9 7q-11 0 -30.5 -3.5t-29.5 -3.5q-34 0 -34 21q0 7 2 20t2 20q0 14 16.5 29.5
t30.5 15.5q9 0 26.5 -1.5t26.5 -1.5q12 0 24 5.5t40 5.5q27 0 36.5 -8.5t9.5 -35.5q0 -24 -3.5 -72t-3.5 -72v-9q54 18 90 18q59 0 94 -35t35 -94zM338 151q0 47 -47 47q-58 0 -75 -19q0 -82 8 -94q5 -7 14 -7q40 0 67 16q33 20 33 57z" />
    <glyph glyph-name="afii10093" unicode="&#x44b;" horiz-adv-x="590" 
d="M540 415q0 -25 -3.5 -74.5t-3.5 -74.5q0 -17 1.5 -51.5t1.5 -51.5q0 -9 -1.5 -28t-1.5 -28q0 -15 1.5 -46t1.5 -46q0 -32 -32 -32q-26 0 -41 4q-26 7 -34 47q-3 17 -3 64q0 12 1 36.5t1 37.5v124q0 17 -1 52.5t-1 53.5q0 57 31 57q83 0 83 -44zM383 151q0 -75 -74 -121
q-63 -38 -144 -38q-6 -16 -40 -16q-17 0 -24 5q-2 1 -28 5q-22 4 -22 14q0 12 1.5 36.5t1.5 36.5q0 11 -1 33t-1 33q0 17 1 51t1 52q0 9 -1.5 28t-1.5 29q0 17 1.5 51t1.5 51q0 46 34 46q83 0 83 -44q0 -22 -3.5 -66t-3.5 -66v-9q54 18 90 18q59 0 94 -35t35 -94zM283 151
q0 47 -47 47q-56 0 -75 -19q0 -82 7 -94q4 -7 15 -7q40 0 67 16q33 20 33 57z" />
    <glyph glyph-name="afii10094" unicode="&#x44c;" horiz-adv-x="410" 
d="M383 151q0 -75 -74 -121q-63 -38 -144 -38q-6 -16 -40 -16q-17 0 -24 5q-2 1 -29 5q-21 4 -21 14q0 12 1.5 36.5t1.5 36.5q0 11 -1 33t-1 33q0 14 1 43t1 43q0 13 -1.5 38.5t-1.5 38.5q0 18 1.5 55t1.5 56q0 46 34 46q83 0 83 -44q0 -24 -3.5 -72t-3.5 -72v-9
q54 18 90 18q59 0 94 -35t35 -94zM283 151q0 47 -47 47q-56 0 -75 -19q0 -82 7 -94q4 -7 15 -7q40 0 67 16q33 20 33 57z" />
    <glyph glyph-name="afii10095" unicode="&#x44d;" horiz-adv-x="340" 
d="M310 241q0 -149 -61 -227q-23 -29 -53 -29q2 0 -67 2q-39 1 -48 6l-13 6q-41 19 -41 101q0 54 36 54q63 0 63 -74q0 -16 13 -16q30 0 48 43q13 33 13 69q0 9 -14 9q-6 0 -17.5 -2.5t-17.5 -2.5q-9 0 -19.5 12.5t-10.5 21.5q0 3 1 9.5t1 9.5q0 4 -2.5 11t-2.5 11
q0 17 13 17q10 0 29.5 -2.5t29.5 -2.5t10 5q0 11 -3 30q-3 24 -5 47q-7 30 -29 30q-32 0 -54 -49t-31 -49q-12 0 -31.5 13.5t-19.5 24.5q0 49 36 94.5t83 45.5q38 0 88 -27q76 -41 76 -191z" />
    <glyph glyph-name="afii10096" unicode="&#x44e;" horiz-adv-x="548" 
d="M517 218q0 -75 -28 -148q-37 -94 -100 -94q-18 0 -42 12l-76 38q-5 3 -15 14q-35 42 -35 142q-10 0 -30.5 -2t-30.5 -2q0 -38 -1 -49q-2 -21 -2 -29q0 -15 1.5 -46t1.5 -46q0 -32 -31 -32q-26 0 -41 4q-26 7 -34 47q-3 17 -3 64q0 12 1 37t1 37v28q-19 19 -19 32
q0 6 -1.5 17.5t-1.5 17.5q0 13 4 16t18 3v10q0 18 -1 53t-1 53q0 57 31 57q82 0 82 -44q0 -22 -3.5 -66.5t-3.5 -66.5l74 4q35 182 95 182q12 0 53 -11q35 -9 52 -17q86 -38 86 -215zM411 242q0 34 -6 71q-8 53 -24 53q-23 0 -42 -89q-14 -70 -14 -111q0 -28 5 -58
q7 -44 21 -44q29 0 47 77q13 56 13 101z" />
    <glyph glyph-name="afii10097" unicode="&#x44f;" horiz-adv-x="428" 
d="M340 -28q-76 0 -76 44q0 22 3.5 66.5t3.5 67.5q0 6 -5 6q-3 0 -42 -51q-44 -56 -47 -59q-70 -75 -93 -75q-7 0 -18.5 9.5t-16.5 9.5q-11 0 -15 12.5t-4 14.5q0 23 69 84q29 26 49 55q-47 6 -75 41t-28 83q0 58 46 103q29 28 81 45q47 16 92 16q0 15 39 15q9 0 26 -4.5
t26 -4.5q22 0 22 -27q0 -11 -1.5 -32.5t-1.5 -32.5t1 -33t1 -33q0 -14 -1 -43t-1 -43q0 -15 1.5 -45t1.5 -45q0 -120 -10 -134q-7 -10 -27 -10zM268 254q0 9 -2 27t-2 27q0 34 -3.5 41.5t-15.5 7.5q-39 0 -67 -17q-33 -20 -33 -56q0 -47 54 -47q37 0 69 17z" />
    <glyph glyph-name="afii10071" unicode="&#x451;" horiz-adv-x="351" 
d="M324 570q0 -18 -18.5 -37t-36.5 -19q-21 0 -44 13q-27 14 -27 33q0 31 17.5 54t47.5 23q16 0 38.5 -25t22.5 -42zM154 570q0 -17 -18.5 -36.5t-35.5 -19.5q-21 0 -45 12q-27 15 -27 34q0 31 17.5 54t47.5 23q16 0 38.5 -25t22.5 -42zM320 132q0 -2 -2 -6.5t-2 -6.5
t1 -5.5t1 -5.5q0 -9 -17 -38q-14 -23 -38 -50q-27 -30 -47 -39q-15 -7 -37 -7q-9 0 -43 15q-13 5 -34 16q-74 58 -74 160q0 58 21 139q23 87 53 128q20 27 52 27q22 0 59 -12.5t51 -25.5q43 -41 43 -160q0 -8 -1 -25t-1 -25q0 -11 -38 -18q-10 -2 -31 -4q-5 0 -57.5 -8.5
t-52.5 -36.5v-36q0 -40 26 -40q17 0 47 25q27 21 39 40q5 8 18 25q12 13 16 13q15 0 31.5 -12.5t16.5 -26.5zM212 276q0 104 -26 104q-7 0 -25.5 -53t-18.5 -66q0 -4 8 -4t35 7.5t27 11.5z" />
    <glyph glyph-name="endash" unicode="&#x2013;" 
d="M512 202h-512v66h512v-66z" />
    <glyph glyph-name="emdash" unicode="&#x2014;" horiz-adv-x="1024" 
d="M1024 202h-1024v66h1024v-66z" />
    <glyph glyph-name="quoteleft" unicode="&#x2018;" horiz-adv-x="213" 
d="M177 675q0 -8 -7 -35q-9 -33 -10 -37l-27 -130q-2 -9 -16 -18t-24 -9q-8 0 -29.5 13t-21.5 20q0 21 13 61q10 30 38 95q34 79 43 79q5 0 23 -17t18 -22z" />
    <glyph glyph-name="quoteright" unicode="&#x2019;" horiz-adv-x="213" 
d="M177 675q0 -21 -17 -67l-26 -68q-9 -30 -32 -86q-6 -12 -11 -12t-24 14.5t-19 18.5q0 10 18 103.5t23 107.5q2 5 16.5 14.5t19.5 9.5q14 0 33 -11t19 -24z" />
    <glyph glyph-name="quotesinglbase" unicode="&#x201a;" horiz-adv-x="244" 
d="M190 89q0 -18 -32 -83q-40 -83 -42 -87q-8 -23 -29 -67q-9 -15 -17 -15t-26 14.5t-18 21.5q0 5 9 36q12 50 23 99q16 65 32 94q3 5 21.5 15.5t24.5 10.5q10 0 32 -15t22 -24z" />
    <glyph glyph-name="quotedblleft" unicode="&#x201c;" horiz-adv-x="362" 
d="M336 675q0 -4 -8 -33q-9 -34 -10 -39l-27 -129q-3 -16 -19 -16q-12 -12 -20 -12t-30 13t-22 20q0 20 14 61q12 34 38 95q34 79 43 79q4 0 22.5 -16.5t18.5 -22.5zM177 675q0 -8 -7 -35q-9 -33 -10 -37l-27 -130q-2 -9 -16 -18t-24 -9q-8 0 -29.5 13t-21.5 20q0 21 13 61
q10 30 38 95q34 79 43 79q5 0 23 -17t18 -22z" />
    <glyph glyph-name="quotedblright" unicode="&#x201d;" horiz-adv-x="362" 
d="M326 675q0 -26 -26 -101q-20 -59 -39 -101q-14 -31 -19 -31t-24.5 14t-19.5 19q0 4 18.5 104.5t21 106t18 15t20.5 9.5q14 0 32 -11t18 -24zM177 675q0 -21 -17 -67l-26 -68q-9 -30 -32 -86q-6 -12 -11 -12t-24 14.5t-19 18.5q0 10 18 103.5t23 107.5q2 5 16.5 14.5
t19.5 9.5q14 0 33 -11t19 -24z" />
    <glyph glyph-name="quotedblbase" unicode="&#x201e;" horiz-adv-x="362" 
d="M309 81q0 -57 -67 -202q-14 -31 -19 -31t-24 14.5t-19 18.5q0 20 16.5 106t23.5 105q2 5 17 14.5t20 9.5q15 0 33.5 -10.5t18.5 -24.5zM158 81q0 -25 -26 -100q-21 -61 -39 -102q-14 -31 -19 -31t-24.5 14t-19.5 19q0 20 16.5 106.5t23.5 104.5q2 5 17.5 14.5t20.5 9.5
q14 0 32 -11t18 -24z" />
    <glyph glyph-name="dagger" unicode="&#x2020;" 
d="M438 432q0 -17 -10 -30t-26 -13q-2 0 -13.5 2t-32.5 2h-10q-7 -1 -10 -1q-6 0 -15 2.5t-11 2.5q-4 0 -4 -5q0 -3 1 -8t1 -8q0 -13 -2 -38t-2 -38q0 -36 2 -107t2 -107v-156q0 -68 -38 -68q-14 7 -41 20q-23 11 -28 24q-3 8 -3 38v301q0 19 3.5 57.5t3.5 57.5q0 36 -13 36
q-5 0 -14 -1t-13 -1q-5 0 -15.5 2t-15.5 2q-3 0 -7.5 -1t-7.5 -1q-23 0 -36 27q-11 21 -11 47q0 8 9 22.5t15 14.5q11 0 32.5 -2t32.5 -2q5 0 14 1h15q8 0 8 6q0 10 1 30t1 30q0 7 -1 22t-1 22t1 21t1 21t-1 20t-1 20q0 32 24 32q17 0 44 -7q33 -9 38 -19.5t5 -152.5v-19
q-1 -13 -1 -19l-1 -2v-1q0 -5 7 -5q3 0 10 1t10 1q8 0 23 -1.5t23 -1.5q3 0 11 1h10h7q10 0 20 -31q10 -27 10 -40z" />
    <glyph glyph-name="bullet" unicode="&#x2022;" horiz-adv-x="604" 
d="M450 381q0 -61 -44 -105t-105 -44q-60 0 -103.5 44t-43.5 105t43.5 104t104.5 43t104.5 -43t43.5 -104z" />
    <glyph glyph-name="ellipsis" unicode="&#x2026;" horiz-adv-x="1024" 
d="M924 58q0 -12 -5 -29q-6 -21 -15 -21l-2 1h-3v-1q0 -5 -29 -18.5t-36 -13.5q-18 0 -39.5 21.5t-21.5 39.5q0 24 21 63.5t42 39.5q6 0 27 -11h5q3 1 4 1q11 0 31.5 -30t20.5 -42zM582 58q0 -12 -5 -29q-6 -21 -15 -21l-2 1h-3v-1q0 -5 -29 -18.5t-36 -13.5
q-18 0 -39.5 21.5t-21.5 39.5q0 24 21 63.5t42 39.5q6 0 27 -11h5q3 1 4 1q11 0 31.5 -30t20.5 -42zM241 58q0 -12 -5 -29q-6 -21 -15 -21l-2 1h-3v-1q0 -5 -29 -18.5t-36 -13.5q-18 0 -39.5 21.5t-21.5 39.5q0 24 21 63.5t42 39.5q6 0 27 -11h5q3 1 4 1q11 0 31.5 -30
t20.5 -42z" />
    <glyph glyph-name="perthousand" unicode="&#x2030;" horiz-adv-x="1010" 
d="M978 171q0 -58 -37 -124q-42 -75 -95 -75q-60 0 -101 51q-37 47 -37 109q0 49 26.5 105.5t64.5 87.5q17 14 21 14q8 0 17 -4q15 -6 17 -7q18 -5 55 -21q69 -42 69 -136zM666 170q0 -58 -37 -123q-42 -75 -95 -75q-61 0 -102 51q-38 47 -38 109q0 49 26.5 104t65.5 88
q18 15 22 15q7 0 17 -4q14 -6 17 -7q18 -5 55 -20q32 -19 50.5 -58.5t18.5 -79.5zM626 606q-146 -151 -266 -349q-27 -46 -81 -137q-89 -148 -101 -148q-55 0 -55 48q0 19 169 268l132 194q67 100 113 151q8 9 33 9q20 0 36 -8q20 -10 20 -28zM304 471q0 -58 -37 -124
q-42 -75 -95 -75q-60 0 -101 51q-37 47 -37 109q0 49 26.5 105.5t64.5 87.5q17 14 21 14q25 0 70 -23q21 -11 38 -24q50 -39 50 -121zM892 184q0 21 -7 42q-9 28 -26 28q-26 0 -45 -51q-16 -41 -16 -73q0 -22 7 -48q9 -34 25 -34q27 0 46 56q16 45 16 80zM576 182
q0 22 -7 42q-9 28 -27 28q-25 0 -44 -51q-16 -42 -16 -73q0 -22 7 -48q9 -34 25 -34q27 0 47 56q15 45 15 80zM217 484q0 21 -7 42q-9 28 -26 28q-26 0 -45 -51q-16 -41 -16 -73q0 -22 6 -47q9 -35 25 -35q27 0 47 56q16 46 16 80z" />
    <glyph glyph-name="guilsinglleft" unicode="&#x2039;" horiz-adv-x="286" 
d="M236 39q0 -6 -22.5 -18t-29.5 -12q-32 0 -104 135q-35 66 -35 76q0 9 37 78q23 43 45.5 86.5t28.5 43.5q24 0 46 -6q32 -8 32 -24q-26 -47 -52 -93q-42 -77 -42 -86q0 -6 48 -92.5t48 -87.5z" />
    <glyph glyph-name="guilsinglright" unicode="&#x203a;" horiz-adv-x="286" 
d="M240 220q0 -21 -15 -48q-14 -22 -27 -44q-4 -8 -12 -22q-11 -15 -31 -46q-29 -51 -53 -51q-8 0 -30.5 11.5t-22.5 18.5q12 20 52 94q43 81 43 86q0 10 -47 92.5t-47 86.5q0 16 32 24q23 6 45 6q4 0 12 -12q23 -43 70 -127q31 -55 31 -69z" />
    <glyph glyph-name="afii61352" unicode="&#x2116;" horiz-adv-x="808" 
d="M763 352q0 -51 -25 -105q-31 -65 -76 -65q-18 0 -34 8l-56 28q-40 20 -40 108q0 49 20 114q25 82 62 82q12 0 40 -8q13 -3 38 -12q71 -31 71 -150zM761 100q0 -8 -3 -24.5t-3 -24.5q0 -18 -100 -18q-8 0 -24.5 1t-24.5 1q-6 0 -16.5 -1t-16.5 -1q-3 0 -9.5 2t-9.5 2
q-26 0 -26 21q0 17 8 38q10 27 23 27h37q7 0 20.5 -2t20.5 -2q9 0 25.5 2t25.5 2q28 0 43 -2t20 -2q10 0 10 -19zM434 -7q-2 0 -19 4q-1 0 -32 3q-18 2 -28 11.5t-21 30.5q-27 52 -44 81q-26 42 -71 129q-12 29 -12 52v0l-1 3l-2 5q-3 8 -8.5 22t-9.5 21q-8 15 -14 15l-1 -1
q-1 -5 -1 -11q0 -3 2 -34q7 -108 7 -134q0 -12 -1 -36t-1 -36q0 -13 1 -39.5t1 -39.5q0 -40 -2 -48q-5 -26 -31 -26q-13 0 -28 10t-20 11q-26 3 -26 10v7q1 30 -3 84q-5 59 -5 85q0 27 1 80.5t1 80.5q0 23 2 70t2 70q0 125 6 201q1 15 15 15q13 0 41 -7.5t41.5 -15.5
t46.5 -102q-1 0 0 1l1 -2q7 -23 23 -69q79 -226 96 -226q4 0 4 18q0 13 -1.5 38t-1.5 38q0 353 10 365q4 5 21 5q48 0 64 -7.5t16 -28.5q0 -31 2 -93t2 -93v-169q0 -29 1.5 -87t1.5 -87q0 -118 -5 -144q-6 -30 -20 -30zM683 368q0 22 -6 49q-8 38 -21 38q-19 0 -34 -62
q-12 -50 -12 -79q0 -18 4 -39q7 -31 18 -31q23 0 39 52q12 41 12 72z" />
    <glyph glyph-name="trademark" unicode="&#x2122;" horiz-adv-x="810" 
d="M690 459h-58v214l-80 -214h-29l-83 214v-214h-58v271h86l70 -180l66 180h86v-271zM324 683h-84v-224h-64v224h-86v47h234v-47z" />
    <glyph glyph-name="periodcentered" unicode="&#xb7;" horiz-adv-x="244" 
d="M202 338q0 -12 -6 -29q-6 -21 -15 -21l-2 1h-3q0 -6 -28.5 -20t-37.5 -14q-17 0 -38.5 22t-21.5 39q0 23 20 61q21 42 42 42q5 0 28 -9h10q10 0 31 -30.5t21 -41.5z" />
    <glyph glyph-name="periodcentered" unicode="&#x2219;" horiz-adv-x="244" 
d="M202 338q0 -12 -6 -29q-6 -21 -15 -21l-2 1h-3q0 -6 -28.5 -20t-37.5 -14q-17 0 -38.5 22t-21.5 39q0 23 20 61q21 42 42 42q5 0 28 -9h10q10 0 31 -30.5t21 -41.5z" />
    <glyph glyph-name="u0000" horiz-adv-x="1000" 
 />
    <glyph glyph-name="u0001" horiz-adv-x="1000" 
 />
    <glyph glyph-name="u0002" horiz-adv-x="1000" 
 />
    </font>
</defs>
</svg>
