<?xml version="1.0" standalone="no"?>
<!DOCTYPE svg PUBLIC "-//W3C//DTD SVG 1.1//EN" "http://www.w3.org/Graphics/SVG/1.1/DTD/svg11.dtd" >
<svg xmlns="http://www.w3.org/2000/svg" xmlns:xlink="http://www.w3.org/1999/xlink" version="1.1">
<metadata>
Created by FontForge 20170924 at Wed Aug 27 15:39:57 1997
 By www-data
a_AlbionicTitulNr *Arsenal Company (c) 1996*  FAX: (095)924-3775; e-Mail: arsenal@itco.msk.su; Phone: (095)924-5811 (Design and Featuring W.Chufarofsky)
</metadata>
<defs>
<font id="AAlbionicTitulNrSh" horiz-adv-x="527" >
  <font-face 
    font-family="a_AlbionicTitulNrSh"
    font-weight="400"
    font-stretch="normal"
    units-per-em="1000"
    panose-1="2 11 9 3 6 7 3 2 2 4"
    ascent="800"
    descent="-200"
    x-height="720"
    cap-height="720"
    bbox="-10 -184 994 888"
    underline-thickness="63"
    underline-position="-211"
    unicode-range="U+0020-2122"
  />
<missing-glyph horiz-adv-x="500" 
d="M63 0v888h375v-888h-375zM125 63h250v763h-250v-763z" />
    <glyph glyph-name=".notdef" horiz-adv-x="500" 
d="M63 0v888h375v-888h-375zM125 63h250v763h-250v-763z" />
    <glyph glyph-name=".null" horiz-adv-x="0" 
 />
    <glyph glyph-name="nonmarkingreturn" horiz-adv-x="288" 
 />
    <glyph glyph-name="space" unicode=" " horiz-adv-x="288" 
 />
    <glyph glyph-name="exclam" unicode="!" horiz-adv-x="312" 
d="M269 639q0 -15 -11 -96l-43 -317h-63l-4 27h-23l-43 317q-10 74 -10 96q0 64 85 64q64 0 80 -37q32 -15 32 -54zM258 55q0 -93 -74 -93q-48 0 -63 34q-39 21 -39 86q0 93 75 93q47 0 63 -35q38 -21 38 -85zM230 666q0 52 -73 52t-73 -52q0 -19 10 -94l41 -307h43l41 307
q11 82 11 94zM219 82q0 81 -62 81q-63 0 -63 -81t63 -81q62 0 62 81z" />
    <glyph glyph-name="quotedbl" unicode="&#x22;" horiz-adv-x="280" 
d="M286 693l-34 -240h-32l-4 27h-23l-34 240h100l-4 -27h31zM148 693l-34 -240h-33l-4 27h-23l-33 240h100l-4 -27h31zM245 708h-72l30 -216h12zM107 708h-72l29 -216h13z" />
    <glyph glyph-name="numbersign" unicode="#" 
d="M510 501l-9 -60h-86l-24 -159h86l-7 -60h-87l-25 -180h-99l26 180h-83l-25 -180h-98l25 180h-87l8 60h87l23 159h-87l9 60h86l25 181h99l-26 -181h83l26 181h99l-26 -181h87zM317 441h-85l-22 -159h83z" />
    <glyph glyph-name="dollar" unicode="$" 
d="M504 186q0 -70 -30 -125q-33 -60 -94 -86q-37 -15 -90 -15v-80h-31v27h-27v58q-63 13 -99 46q-6 7 -18 19q-8 7 -24 22q-42 49 -42 132q0 16 3 48l81 25q-2 -13 -7 -38l34 11q-10 -41 -10 -78q0 -52 15 -75q18 -26 67 -33v209q-43 22 -97 73q-81 77 -81 183
q0 202 178 221v65h31v-27h27v-36q65 -6 103 -41q7 -7 19 -20q8 -7 23 -23q44 -53 44 -154l-78 -21q2 12 5 36l-32 -9q5 23 5 48q0 51 -19.5 73t-69.5 26v-185l55 -27q47 -23 71 -46q6 -7 17 -19q5 -4 14 -12q57 -54 57 -172zM465 213q0 79 -26 125q-22 40 -73 72
q-12 7 -115 59v218q140 -10 140 -139q0 -13 -1 -31l50 13q0 98 -45.5 144.5t-143.5 46.5v62h-7v-64q-95 -10 -136.5 -61.5t-41.5 -148.5q0 -160 178 -233v-246q-133 18 -133 149q0 35 6 60l-54 -16q-2 -20 -2 -39q0 -162 183 -187v-78h7v80q63 0 98 15q58 23 88 81
q28 51 28 118zM244 470q-97 50 -97 117q0 98 77 98q-3 0 20 -5v-210zM355 143q0 -93 -104 -114v243q104 -49 104 -129zM232 490v154q-46 -12 -46 -84q0 -44 46 -70zM343 143q0 62 -53 83v-173q53 24 53 90z" />
    <glyph glyph-name="percent" unicode="%" horiz-adv-x="663" 
d="M675 152q0 -185 -134 -185q-69 0 -101 47q-60 40 -60 165q0 186 134 186q69 0 101 -47q60 -40 60 -166zM524 693l-270 -720h-60l10 27h-37l269 720h61l-10 -27h37zM310 513q0 -186 -134 -186q-54 0 -86 30q-5 4 -8 9q-10 9 -29 28q-38 47 -38 146q0 186 134 186
q69 0 101 -47q60 -41 60 -166zM636 179q0 174 -122 174t-122 -174q0 -173 122 -173t122 173zM480 708h-36l-260 -696h35zM271 540q0 174 -122 174t-122 -174t122 -174t122 174zM560 179q0 -166 -46 -166t-46 166q0 168 46 168t46 -168zM194 540q0 -167 -45 -167
q-46 0 -46 167q0 166 46 166q45 0 45 -166zM548 179q0 90 -12 128q-29 -11 -29 -155q0 -85 11 -126q30 9 30 153zM182 540q0 92 -10 126q-30 -9 -30 -153q0 -90 12 -127q28 10 28 154z" />
    <glyph glyph-name="ampersand" unicode="&#x26;" horiz-adv-x="549" 
d="M564 -27h-171l-14 27h-13l-6 11q-56 -53 -122 -53q-94 0 -140 54l-7 7t-15 14q-56 56 -56 170q0 122 145 204q-49 91 -49 152q0 74 43 123.5t116 49.5t105 -47q49 -33 49 -120q0 -105 -80 -161l75 -151q21 46 35 113l22 116h45v-27h27q0 -147 -81 -301zM517 12l-86 169
q83 154 83 289h-23q-27 -164 -74 -259l-110 224q83 58 83 157q0 128 -115 128q-69 0 -108 -45.5t-39 -115.5q0 -60 53 -157q-149 -83 -149 -199q0 -206 179 -206q66 0 134 70l28 -55h144zM362 581q0 -72 -69 -117l-46 92q-17 34 -17 63q0 68 56 68q76 0 76 -106zM331 100
q-33 -50 -73 -50q-52 0 -91 79q-32 67 -32 126q0 78 60 119zM350 581q0 40 -11 62q-15 5 -26 5q-44 0 -44 -56q0 -26 39 -104q42 34 42 93zM317 101l-110 220q-33 -30 -33 -93q0 -49 19 -100q25 -66 65 -66q34 0 59 39z" />
    <glyph glyph-name="quotesingle" unicode="'" horiz-adv-x="142" 
d="M148 693l-34 -240h-33l-4 27h-23l-33 240h100l-4 -27h31zM107 708h-72l29 -216h13z" />
    <glyph glyph-name="parenleft" unicode="(" horiz-adv-x="322" 
d="M339 -6l-23 -56q-71 29 -147 101q-132 125 -132 321q0 279 252 395l14 -34q5 3 13 7l23 -56q-137 -154 -137 -339q0 -188 137 -339zM298 19q-135 148 -135 341q0 188 135 341l-15 38q-234 -108 -234 -379q0 -131 57 -228q60 -103 176 -151z" />
    <glyph glyph-name="parenright" unicode=")" horiz-adv-x="322" 
d="M313 333q0 -137 -63 -239q-65 -106 -189 -156l-13 33q-4 -2 -14 -6l-23 56q137 151 137 339q0 183 -137 339l23 56q77 -37 149 -107q130 -127 130 -315zM274 360q0 271 -234 379l-15 -38q135 -153 135 -341q0 -193 -135 -341l16 -38q116 47 177 151q56 97 56 228z" />
    <glyph glyph-name="asterisk" unicode="*" horiz-adv-x="373" 
d="M349 493l-111 -15l79 -89q-31 -17 -54 -48l-17 40q-4 -4 -10 -13l-31 70l-40 -96q-18 25 -56 47l5 6q-16 13 -32 21l61 68l-66 9q6 8 11 22l-38 5q20 31 24 73l100 -58l-22 124q20 -7 34 -7q15 0 35 7l-5 -34q9 0 32 7l-12 -76l66 38q2 -20 6 -39l21 12q3 -41 20 -74z
M303 530q-11 26 -11 44l-103 -59v-1zM206 641h-3.5h-7.5q-6 -1 -9 -1t-9 1h-10v0v0l21 -117zM189 515l-1 9l-2 -10zM190 512l-1 2h-2zM271 420l-84 94l-1 -1l52 -120q11 14 33 27zM186 514l-102 59q-5 -31 -14 -44zM188 478l-4 1l-5 -12zM186 514l-85 -95q28 -16 34 -26z
" />
    <glyph glyph-name="plus" unicode="+" horiz-adv-x="426" 
d="M452 303h-180v-150h-64v27h-27v123h-152v27h-27v60h179v150h64v-27h27v-123h153v-27h27v-60zM413 342v36h-180v150h-40v-150h-179v-36h179v-150h40v150h180z" />
    <glyph glyph-name="comma" unicode="," horiz-adv-x="246" 
d="M225 45q0 -170 -128 -220v40q-9 -5 -27 -13v68q29 22 43 60q-16 7 -25 26q-38 17 -38 84q0 93 75 93q40 0 58 -34q42 -21 42 -104zM186 72q0 99 -61 99q-63 0 -63 -81q0 -42 15 -60t56 -18q-16 -72 -51 -98v-44q104 40 104 202z" />
    <glyph glyph-name="hyphen" unicode="-" horiz-adv-x="240" 
d="M252 273h-210v27h-27v120h210v-27h27v-120zM213 312v96h-186v-96h186z" />
    <glyph glyph-name="hyphen" unicode="&#x2010;" horiz-adv-x="240" 
d="M252 273h-210v27h-27v120h210v-27h27v-120zM213 312v96h-186v-96h186z" />
    <glyph glyph-name="period" unicode="." horiz-adv-x="246" 
d="M225 55q0 -93 -75 -93q-47 0 -63 35q-38 21 -38 85q0 93 74 93q48 0 64 -35q38 -21 38 -85zM186 82q0 81 -63 81q-62 0 -62 -81t62 -81q63 0 63 81z" />
    <glyph glyph-name="slash" unicode="/" horiz-adv-x="342" 
d="M342 693l-227 -720h-61l9 27h-36l227 720h61l-9 -27h36zM299 708h-36l-220 -696h36z" />
    <glyph glyph-name="zero" unicode="0" 
d="M532 333q0 -372 -241 -372q-79 0 -133 41q-5 4 -33 32q-12 11 -35 37q-68 93 -68 289q0 371 242 371q80 0 134 -41q5 -4 33 -32q12 -11 34 -37q67 -92 67 -288zM493 360q0 359 -229 359q-230 0 -230 -359q0 -360 230 -360q229 0 229 360zM341 360q0 -326 -77 -326
q-78 0 -78 326q0 325 78 325q77 0 77 -325zM329 360q0 222 -31 285q-3 1 -7 1q-66 0 -66 -313q0 -220 33 -286q1 0 3 -1h3q65 0 65 314z" />
    <glyph glyph-name="one" unicode="1" 
d="M392 -27h-163v27h-27v500q-47 -24 -93 -29v31q-1 0 -27 -4v95q129 15 180 127h103v-27h27v-720zM353 12v696h-83q-51 -111 -176 -126v-71q45 5 120 53v-552h139z" />
    <glyph glyph-name="two" unicode="2" 
d="M503 509q0 -33 -8 -62q-18 -61 -94 -147q-21 -24 -124 -127h195v-27h27v-173h-430v27h-27v104l122 149q75 92 100 132q53 83 53 152q0 65 -18 95q-16 8 -38 8q-99 0 -99 -156q0 -39 15 -105l-89 27q-2 6 -5 20l-22 7q-11 52 -11 80q0 218 216 218q105 0 160 -56
q4 -5 13 -14q5 -4 14 -12q24 -23 37 -60q13 -33 13 -80zM464 536q0 92 -54 139q-51 44 -144 44q-204 0 -204 -206q0 -28 9 -71l63 -19q-11 52 -11 88q0 168 111 168q95 0 95 -142q0 -70 -54 -157q-27 -43 -102 -135l-119 -145v-88h406v149h-266l104 104q137 137 158 211
q8 28 8 60z" />
    <glyph glyph-name="three" unicode="3" 
d="M503 211q0 -113 -62 -181q-65 -70 -177 -70q-98 0 -148 42q-7 8 -21 23q-8 6 -23 21q-34 41 -34 112q0 33 5 61l76 20q-2 -12 -5 -36l32 9q-8 -42 -8 -79q0 -41 11 -58q14 -22 54 -22q110 0 110 194q0 66 -21 100q-20 11 -46 11q-27 0 -59 -25l-19 33l-8 -6l-32 55
l176 127h-198l-3 27h-24l-14 151h379l-4 -27h31l-21 -151l-105 -83q30 -13 78 -57q80 -73 80 -191zM464 238q0 95 -50 153.5t-144 71.5l142 112l18 133h-352l12 -127h289l-235 -169l20 -34q5 8 24 13.5t31 5.5q106 0 106 -150q0 -206 -122 -206q-104 0 -104 119q0 44 5 63
l-50 -14q-4 -22 -4 -51q0 -159 187 -159q108 0 169 66q58 64 58 173z" />
    <glyph glyph-name="four" unicode="4" 
d="M505 123h-64v-150h-164v27h-27v123h-188v27h-27v89l269 481h110v-27h27v-461h37v-27h27v-82zM466 162v58h-64v488h-91l-264 -472v-74h215v-150h140v150h64zM265 220h-175l175 335v-335zM253 232v195l-102 -195h102z" />
    <glyph glyph-name="five" unicode="5" 
d="M506 211q0 -112 -64 -181.5t-175 -69.5q-98 0 -148 42q-7 8 -21 23q-7 6 -21 20q-36 41 -36 113q0 33 5 61l76 20q-2 -10 -5 -36l32 9q-8 -42 -8 -79q0 -41 11 -58q14 -22 54 -22q110 0 110 194q0 66 -21 100q-20 11 -46 11q-55 0 -99 -74l-67 20l3 18l-30 9l54 389h337
l-4 -27h31l-21 -151h-274l-14 -102q54 33 109 33q76 0 130 -49q7 -7 22 -23q25 -26 33 -36q13 -17 25 -42q22 -49 22 -112zM467 238q0 93 -49 155q-53 68 -144 68q-70 0 -159 -75l27 195h274l17 127h-313l-51 -368l48 -15q41 72 105 72q106 0 106 -150q0 -206 -122 -206
q-104 0 -104 119q0 27 5 63l-50 -14q-4 -22 -4 -51q0 -159 187 -159q108 0 169 66q58 64 58 173z" />
    <glyph glyph-name="six" unicode="6" 
d="M520 221q0 -108 -50 -179q-56 -82 -160 -82q-93 0 -151 51q-8 8 -23 24q-12 12 -35 38q-65 91 -65 275q0 150 55 254q69 130 206 130q76 0 118 -34q7 -8 21 -22q7 -5 19 -17q36 -38 36 -108q0 -21 -5 -44l-75 -16q5 18 6 34l-33 -7q7 29 7 60q0 39 -12 63q-13 7 -34 7
q-99 0 -110 -203q37 32 86 32q35 0 65 -15q23 -12 52 -43q5 -4 14 -13q68 -68 68 -185zM481 248q0 83 -38 144q-44 73 -122 73q-61 0 -126 -87q0 151 27.5 230t95.5 79q85 0 85 -109q0 -30 -3 -44l49 10q3 11 3 34q0 142 -155 142q-132 0 -198 -127q-51 -99 -51 -245
q0 -349 235 -349q100 0 152 78q46 67 46 171zM342 247q0 -215 -73 -215q-74 0 -74 204q0 179 77 179q70 0 70 -168zM330 247q0 90 -19 127q-10 2 -12 2q-65 0 -65 -167q0 -115 23 -163q10 -2 12 -2q61 0 61 203z" />
    <glyph glyph-name="seven" unicode="7" 
d="M500 583q-149 -245 -149 -568v-42h-186q0 13 2 27h-29q13 297 179 529h-248l3 27h-30l20 164h411v-27h27v-110zM461 613v95h-388l-17 -140h306q-197 -256 -211 -556h161q0 356 149 601z" />
    <glyph glyph-name="eight" unicode="8" 
d="M525 197q0 -107 -66.5 -172.5t-173.5 -65.5q-103 0 -169 64q-6 7 -17 19q-5 4 -14 12q-55 54 -55 140q0 98 90 149q-77 69 -77 170q0 98 60.5 157.5t158.5 59.5q90 0 144 -53q4 -5 12 -14q20 -19 25 -25q10 -13 20 -31q16 -33 16 -73q0 -82 -66 -132q58 -51 81 -89
q31 -51 31 -116zM486 224q0 120 -125 202q79 56 79 135q0 75 -53 118q-48 39 -125 39q-95 0 -151 -55.5t-56 -149.5q0 -95 85 -172q-98 -57 -98 -147q0 -89 64 -144q61 -52 152 -52q103 0 165.5 61.5t62.5 164.5zM392 542q0 -58 -47 -107q-12 5 -37 15q-84 32 -104 43
q-62 36 -62 86q0 106 116 106q134 0 134 -143zM383 156q0 -51 -38 -87.5t-90 -36.5q-67 0 -115.5 48t-48.5 114q0 81 67 132q69 -29 121 -47q104 -36 104 -123zM380 542q0 53 -22 85q-29 19 -73 19q-104 0 -104 -94q0 -41 65 -66q32 -13 96 -37q38 41 38 93zM371 156
q0 40 -18 59q-14 15 -78 39q-44 15 -88 31q-57 -43 -57 -118q0 -58 33 -90.5t92 -32.5q48 0 82 32t34 80z" />
    <glyph glyph-name="nine" unicode="9" 
d="M517 344q0 -149 -55 -253q-69 -131 -205 -131q-77 0 -119 35q-7 7 -21 22q-7 5 -19 17q-36 38 -36 107q0 25 4 45l76 16q-2 -10 -5 -34l32 7q-6 -36 -6 -61q0 -39 12 -63q13 -7 34 -7q66 0 92 74q14 42 18 130q-37 -32 -87 -32q-36 0 -66 16q-24 12 -53 44q-5 4 -14 13
q-66 67 -66 183q0 107 51 179q57 81 160 81q91 0 149 -51q8 -7 23 -23q12 -12 35 -38q66 -90 66 -276zM478 371q0 349 -234 349q-100 0 -153 -77q-46 -67 -46 -171q0 -83 37 -145q45 -72 123 -72q64 0 127 88q0 -172 -27 -240q-29 -71 -96 -71q-85 0 -85 109q0 30 3 46
l-50 -11q-3 -11 -3 -35q0 -142 156 -142q132 0 197 127q51 100 51 245zM332 483q0 -179 -78 -179q-69 0 -69 169q0 214 73 214q74 0 74 -204zM320 483q0 118 -24 163q-10 2 -11 2q-61 0 -61 -202q0 -89 19 -128q8 -2 11 -2q66 0 66 167z" />
    <glyph glyph-name="colon" unicode=":" horiz-adv-x="246" 
d="M225 387q0 -93 -75 -93q-47 0 -63 35q-38 21 -38 85q0 92 74 92q48 0 64 -35q38 -21 38 -84zM225 55q0 -93 -75 -93q-47 0 -63 35q-38 21 -38 85q0 93 74 93q48 0 64 -35q38 -21 38 -85zM186 414q0 80 -63 80q-62 0 -62 -80q0 -81 62 -81q63 0 63 81zM186 82q0 81 -63 81
q-62 0 -62 -81t62 -81q63 0 63 81z" />
    <glyph glyph-name="semicolon" unicode=";" horiz-adv-x="246" 
d="M225 387q0 -93 -75 -93q-47 0 -63 35q-38 21 -38 85q0 92 74 92q48 0 64 -35q38 -21 38 -84zM225 45q0 -170 -128 -220v40q-9 -5 -27 -13v68q29 22 43 60q-16 7 -25 26q-38 17 -38 84q0 93 75 93q40 0 58 -34q42 -21 42 -104zM186 414q0 80 -63 80q-62 0 -62 -80
q0 -81 62 -81q63 0 63 81zM186 72q0 99 -61 99q-63 0 -63 -81q0 -42 15 -60t56 -18q-16 -72 -51 -98v-44q104 40 104 202z" />
    <glyph glyph-name="less" unicode="&#x3c;" horiz-adv-x="426" 
d="M370 72l-280 196v8l-27 19v131l280 196v-46l27 19v-157l-141 -101l114 -83v-7l27 -20v-155zM331 122v126l-154 112l154 111v128l-256 -179v-119z" />
    <glyph glyph-name="equal" unicode="=" horiz-adv-x="426" 
d="M420 380h-360v27h-27v80h360v-27h27v-80zM420 205h-360v27h-27v81h360v-27h27v-81zM381 419v56h-336v-56h336zM381 244v57h-336v-57h336z" />
    <glyph glyph-name="greater" unicode="&#x3e;" horiz-adv-x="426" 
d="M390 268l-280 -196v46l-27 -19v155l141 102l-114 82v8l-27 19v157l280 -196v-8l27 -19v-131zM351 301v119l-256 179v-128l154 -111l-154 -112v-126z" />
    <glyph glyph-name="question" unicode="?" horiz-adv-x="414" 
d="M416 484q0 -78 -38 -143q-45 -77 -117 -77q-41 0 -87 39v-77h-65v27h-27v173h60q3 -15 6 -27h21q8 -51 27 -51q54 0 54 129q0 123 -24 166q-8 3 -17 3q-54 0 -54 -96q0 -25 6 -73l-67 24l-3 18l-24 9q-6 33 -6 64q0 139 144 139q76 0 121 -38q7 -7 21 -22q8 -7 24 -24
q45 -55 45 -163zM220 55q0 -93 -75 -93q-44 0 -73 39q-28 36 -28 81q0 93 74 93q48 0 64 -35q38 -21 38 -85zM377 511q0 208 -172 208q-132 0 -132 -127q0 -28 5 -55l42 -15q-4 20 -4 55q0 108 66 108q80 0 80 -208q0 -141 -66 -141q-52 0 -64 78h-38v-149h41v91
q61 -53 99 -53q68 0 109 73q34 61 34 135zM181 82q0 81 -63 81q-62 0 -62 -81t62 -81q63 0 63 81z" />
    <glyph glyph-name="at" unicode="@" horiz-adv-x="631" 
d="M619 424q0 -111 -51 -184q-59 -83 -165 -83q-60 0 -67 39q-37 -38 -66 -38q-86 0 -86 128q0 80 27 152q37 96 103 96q42 0 61 -55l7 44l92 -5l-37 -269q-1 -7 -1 -8q0 -26 21 -26q50 0 76 82q19 59 19 123q0 100 -57 175q-62 82 -159 82q-117 0 -184 -112
q-56 -94 -56 -219q0 -116 56 -205q65 -104 175 -104q75 0 175 58l16 -49q-100 -61 -193 -61q-142 0 -231 111q-82 103 -82 248q0 84 27 155q38 103 114 166q82 69 186 69q120 0 202 -96q78 -92 78 -214zM365 426q0 55 -25 55q-28 0 -43 -104q-11 -71 -11 -128q0 -38 20 -38
q31 0 48 91q11 62 11 124z" />
    <glyph glyph-name="A" unicode="A" horiz-adv-x="467" 
d="M499 -27h-168l-6 27h-21l-28 129h-153l-37 -156h-65l6 27h-33l171 720h146l6 -27h21zM457 12l-156 696h-127l-165 -696h41l37 156h193l34 -156h143zM269 216h-171l88 388zM254 228l-52 245l-56 -245h108z" />
    <glyph glyph-name="B" unicode="B" horiz-adv-x="542" 
d="M555 165q0 -192 -194 -192h-285v27h-27v720h257q94 0 144 -42q6 -7 20 -21q11 -9 34 -36q26 -41 26 -105q0 -111 -95 -152q31 -17 49 -37q2 -3 8.5 -9.5l21.5 -21.5q41 -48 41 -131zM516 192q0 84 -49 130q-41 37 -129 59q74 22 109 53q44 40 44 109q0 165 -185 165h-245
v-696h273q182 0 182 180zM351 538q0 -143 -83 -143h-64v277h59q88 0 88 -134zM370 194q0 -147 -106 -147h-60v312h58q108 0 108 -165zM339 538q0 59 -16 87q-18 8 -33 8h-47v-226h25q71 0 71 131zM358 194q0 76 -24 115q-20 11 -45 11h-46v-261h21q94 0 94 135z" />
    <glyph glyph-name="C" unicode="C" horiz-adv-x="518" 
d="M530 168q0 -62 -32.5 -112t-89.5 -77q-42 -19 -101 -19q-94 0 -154 51l-25 25q-13 12 -36 38q-67 91 -67 274q0 147 60 254q73 130 209 130q82 0 131 -52q3 -4 9 -10t16 -15q58 -59 58 -162l-73 -32q2 26 2 40l-29 -13q2 16 2 49q0 51 -13.5 80.5t-61.5 29.5
q-108 0 -108 -339q0 -182 47 -250q19 -13 45 -13q59 0 91 48q27 41 27 103q0 1 -6 70l72 -27v-17l27 -10v-44zM491 231l-46 17q4 -36 4 -52q0 -65 -31 -111q-36 -52 -99 -52q-131 0 -131 302q0 351 120 351q114 0 114 -149v-30l47 21q0 86 -44 137q-47 55 -131 55
q-132 0 -201 -126q-56 -103 -56 -246q0 -349 243 -349q69 0 121 31q57 34 78 96q12 35 12 105z" />
    <glyph glyph-name="D" unicode="D" horiz-adv-x="567" 
d="M570 332q0 -359 -267 -359h-226v27h-27v720h226q99 0 161 -49l32 -32q13 -12 36 -40q65 -90 65 -267zM531 359q0 349 -255 349h-214v-696h214q255 0 255 347zM380 361q0 -119 -6 -167q-16 -118 -69 -135q-18 -6 -44 -6h-56v613h56q33 0 56 -10q43 -21 57 -135
q6 -51 6 -160zM368 361q0 204 -30 257q-18 9 -50 9h-44v-562h17q31 0 51 9q39 18 51 132q5 46 5 155z" />
    <glyph glyph-name="E" unicode="E" horiz-adv-x="461" 
d="M485 -27h-409v27h-27v720h374v-27h27v-72h-207v-197h138v-27h27v-65h-165v-260h215v-27h27v-72zM446 12v48h-242v311h165v41h-165v248h207v48h-350v-696h385z" />
    <glyph glyph-name="F" unicode="F" horiz-adv-x="432" 
d="M453 621h-210v-197h127v-27h27v-65h-154v-359h-167v27h-27v720h377v-27h27v-72zM414 660v48h-353v-696h143v359h154v41h-154v248h210z" />
    <glyph glyph-name="G" unicode="G" horiz-adv-x="546" 
d="M539 -27h-53l-10 27h-17l-4 11q-63 -51 -134 -51q-94 0 -158 53l-29 29q-59 60 -84 134t-25 177q0 151 64 255q77 124 219 124q37 0 70 -18q25 -14 57 -47q5 -5 15 -14q67 -67 67 -158l-75 -34v39l-27 -12q0 86 -14.5 119t-57.5 33q-34 0 -54.5 -9t-32.5 -41
q-23 -57 -23 -269t26 -264q9 -4 31 -4q68 0 68 86v193h-56v27h-27v65h237v-27h27v-424zM500 12v400h-213v-41h83v-232q0 -41 -19 -68q-21 -30 -61 -30q-25 0 -43 10q-53 29 -53 297q0 213 26 276q18 42 57 51q17 4 39 4q57 0 87 -53q24 -42 24 -104v-15l51 23q0 70 -50 128
q-52 62 -120 62q-138 0 -211 -120q-60 -99 -60 -247q0 -150 52 -241q66 -113 205 -113q73 0 152 72l21 -59h33z" />
    <glyph glyph-name="H" unicode="H" horiz-adv-x="569" 
d="M547 -27h-167v27h-27v332h-110v-359h-167v27h-27v720h167v-27h27v-269h110v296h167v-27h27v-720zM508 12v696h-143v-296h-161v296h-143v-696h143v359h161v-359h143z" />
    <glyph glyph-name="I" unicode="I" horiz-adv-x="267" 
d="M245 -27h-168v27h-27v720h168v-27h27v-720zM206 12v696h-144v-696h144z" />
    <glyph glyph-name="J" unicode="J" horiz-adv-x="358" 
d="M339 230q0 -273 -154 -273q-35 0 -68 16q-22 10 -58 46q-16 15 -44 54q-18 33 -18 77q0 45 13 103l61 21q-2 -13 -7 -39l34 12q-14 -76 -14 -107q0 -55 14 -88q8 -3 15 -3q32 0 32 109v562h167v-27h27v-463zM300 257v451h-143v-550q0 -121 -44 -121q-68 0 -68 130
q0 34 10 89l-35 -12q-11 -55 -11 -94q0 -64 42.5 -109t106.5 -45q142 0 142 261z" />
    <glyph glyph-name="K" unicode="K" horiz-adv-x="555" 
d="M589 -27h-187l-11 27h-16l-117 275l-15 -20v-282h-167v27h-27v720h167v-27h27v-250l172 277h78l-17 -27h44l-143 -227zM544 12l-208 482l135 214h-49l-218 -351v351h-143v-696h143v274l40 53l139 -327h161z" />
    <glyph glyph-name="L" unicode="L" horiz-adv-x="439" 
d="M481 -27h-404v27h-27v720h167v-27h27v-621h210v-27h27v-72zM442 12v48h-237v648h-143v-696h380z" />
    <glyph glyph-name="M" unicode="M" horiz-adv-x="634" 
d="M612 -27h-161v27h-27v357l-86 -384h-93l-6 27h-21l-88 378v-405h-56v27h-27v720h169l6 -27h21l88 -383l93 410h161v-27h27v-720zM573 12v696h-139l-113 -498l-115 498h-147v-696h32v486h24l113 -486h73l111 495h24v-495h137z" />
    <glyph glyph-name="N" unicode="N" horiz-adv-x="518" 
d="M498 -27h-129l-14 27h-13l-212 404v-431h-57v27h-27v720h106l14 -27h13l236 -441v468h56v-27h27v-720zM459 12v696h-32v-528l-282 528h-87v-696h33v493l258 -493h110z" />
    <glyph glyph-name="O" unicode="O" horiz-adv-x="562" 
d="M564 334q0 -374 -257 -374q-89 0 -146 47q-4 2 -31 30q-12 12 -36 39q-69 96 -69 293q0 363 261 363q89 0 146 -46q3 -2 30 -30q13 -12 37 -40q65 -93 65 -282zM525 361q0 359 -239 359q-249 0 -249 -351q0 -370 243 -370q245 0 245 362zM374 361q0 -286 -52 -317
q-18 -11 -42 -11t-41 11q-51 31 -51 317t51 316q17 10 41 10t42 -10q52 -30 52 -316zM362 361q0 225 -27 283q-9 4 -28 4q-21 0 -36 -9q-44 -26 -44 -305q0 -229 26 -285q9 -4 27 -4q22 0 38 9q44 26 44 307z" />
    <glyph glyph-name="P" unicode="P" horiz-adv-x="517" 
d="M537 482q0 -214 -235 -214h-58v-295h-167v27h-27v720h248q97 0 151 -46l10 -10q7 -12 19 -19q22 -13 40 -55q19 -45 19 -108zM498 509q0 199 -200 199h-236v-696h143v295h70q223 0 223 202zM358 513q0 -164 -103 -164h-50v317h50q103 0 103 -153zM346 513q0 68 -21 103
q-20 11 -43 11h-38v-266h11q91 0 91 152z" />
    <glyph glyph-name="Q" unicode="Q" horiz-adv-x="558" 
d="M563 334q0 -267 -133 -343q13 -38 24 -38q35 0 35 40q0 19 -3 30l44 -21q2 -1 2 -15l25 -12q3 -30 3 -41q0 -50 -26 -84t-75 -34q-53 0 -94 47q-35 41 -48 97q-102 2 -163 53l-25 25q-7 6 -20 19q-61 64 -78 192q-7 53 -7 120q0 363 261 363q90 0 147 -48l26 -26
q13 -12 37 -38q68 -92 68 -286zM524 361q0 359 -239 359q-249 0 -249 -351q0 -169 46 -255q61 -115 215 -115h25q22 -144 110 -144q89 0 89 106q0 24 -2 33l-16 8l-2 6v-15q0 -52 -47 -52q-39 0 -65 83q135 78 135 337zM372 361q0 -166 -11 -235h-20q-32 73 -65 73
q-15 0 -28 -11q-10 -7 -16 -19q-9 -15 -10 -16.5t-25 -29.5q-10 92 -10 238q0 286 51 316q17 10 41 10t42 -10q51 -29 51 -316zM318 43q-17 -10 -39 -10q-53 0 -73 59q29 54 59 54q22 0 35 -24q18 -36 18 -66v-13zM360 361q0 231 -26 283q-9 4 -28 4q-21 0 -36 -9
q-44 -25 -44 -305q0 -90 3 -150q23 27 47 27q29 0 77 -57q7 58 7 207zM306 50v5q0 20 -12 52h-2q-25 0 -46 -43q8 -19 33 -19q15 0 27 5z" />
    <glyph glyph-name="R" unicode="R" horiz-adv-x="546" 
d="M553 -27h-182q-1 5 -7 27h-20q-18 59 -18 124v98q0 62 -15 89q-19 8 -67 8v-346h-167v27h-27v720h247q96 0 152 -47q8 -9 24 -26q7 -6 21 -20q43 -48 43 -121q0 -124 -110 -165q20 -12 33 -27q2 -3 7 -8t13 -12q23 -22 31 -51q10 -35 11 -106t9 -105q10 -40 22 -59z
M505 12q-5 8 -14 47t-9 101q0 95 -22 130.5t-108 74.5q73 22 106 57q40 40 40 111q0 87 -59 133q-53 42 -142 42h-235v-696h143v346h41q92 0 92 -136v-98q0 -52 15 -112h152zM358 530q0 -137 -108 -137h-45v273h45q108 0 108 -136zM346 530q0 49 -10 69q-15 28 -59 28h-33
v-222h6q96 0 96 125z" />
    <glyph glyph-name="S" unicode="S" horiz-adv-x="474" 
d="M477 186q0 -100 -56.5 -163t-155.5 -63q-98 0 -152 44q-7 8 -23 24q-8 7 -23 22q-43 51 -43 144q0 16 2 42l80 21l-6 -36l33 9q-9 -49 -9 -79q0 -55 21 -88q28 -19 74 -19q99 0 99 97q0 40 -27 62q-19 15 -63 37t-63 38q-67 52 -98 103q-37 60 -37 136q0 95 55.5 155
t150.5 60q80 0 126 -38q8 -8 23 -24q8 -7 24 -23q44 -53 44 -155l-77 -19q2 11 5 35l-32 -8q5 37 5 49q0 55 -20.5 77t-75.5 22q-96 0 -96 -86q0 -35 23 -53q19 -15 58 -32q66 -28 122 -76q61 -52 90 -110q22 -46 22 -105zM438 213q0 165 -200 253q-115 51 -115 123
q0 98 108 98q135 0 135 -138q0 -6 -1 -17t-1 -16l50 12q0 192 -178 192q-90 0 -142 -56t-52 -147q0 -161 164 -239q124 -59 124 -137q0 -109 -111 -109q-134 0 -134 146q0 18 6 63l-54 -14q0 -5 -1 -16v-17q0 -195 202 -195q95 0 147.5 59t52.5 155z" />
    <glyph glyph-name="T" unicode="T" horiz-adv-x="447" 
d="M481 621h-142v-648h-177v27h-27v621h-114v27h-27v72h460v-27h27v-72zM442 660v48h-436v-48h141v-648h153v648h142z" />
    <glyph glyph-name="U" unicode="U" horiz-adv-x="523" 
d="M509 209q0 -248 -219 -248q-94 0 -147 46q-7 7 -21 22q-9 8 -27 26q-51 62 -51 181v484h167v-27h27v-490q0 -92 19 -127q20 -11 56 -11q114 0 114 171v484h55v-27h27v-484zM470 236v472h-31v-472q0 -183 -126 -183q-64 0 -89 40q-25 37 -25 137v478h-143v-472
q0 -236 207 -236t207 236z" />
    <glyph glyph-name="V" unicode="V" horiz-adv-x="459" 
d="M492 693l-167 -720h-149l-6 27h-21l-154 720h169l6 -27h21l98 -469l113 496h63l-6 -27h33zM450 708h-38l-134 -589l-124 589h-144l149 -696h129z" />
    <glyph glyph-name="W" unicode="W" horiz-adv-x="674" 
d="M707 693l-157 -720h-109l-6 27h-21l-64 313l-70 -340h-110l-6 27h-21l-148 720h169l5 -27h22l70 -356l77 383h98l5 -27h22l70 -358l81 385h66l-6 -27h33zM665 708h-41l-102 -486l-96 486h-78l-98 -486l-96 486h-144l143 -696h90l91 440l90 -440h89z" />
    <glyph glyph-name="X" unicode="X" horiz-adv-x="494" 
d="M527 -27h-186l-12 27h-15l-91 209l-115 -236h-75l13 27h-40l163 329l-174 391h185l12 -27h15l83 -191l104 218h73l-13 -27h40l-150 -309zM482 12l-178 399l144 297h-46l-121 -252l-109 252h-159l169 -379l-157 -317h48l132 270l117 -270h160z" />
    <glyph glyph-name="Y" unicode="Y" horiz-adv-x="441" 
d="M479 693l-93 -303q-18 -45 -47 -151q-4 -20 -2 -44q2 -41 2 -45v-177h-167v27h-27v266q-8 36 -23 76q-26 69 -29 75l-103 303h173l9 -27h18l99 -292l97 319h66l-8 -27h35zM436 708h-41l-114 -374l-127 374h-147l100 -293q19 -44 50 -147v-256h143v171q0 3 -2 43
q-2 23 2 42q7 35 20 74q23 66 25 73z" />
    <glyph glyph-name="Z" unicode="Z" horiz-adv-x="473" 
d="M493 627l-264 -555h217v-27h27v-72h-442v27h-27v72l261 549h-194v27h-27v72h422v-27h27v-66zM454 657v51h-398v-48h241l-281 -591v-57h418v48h-264z" />
    <glyph glyph-name="bracketleft" unicode="[" horiz-adv-x="327" 
d="M318 -86h-228v27h-27v839h228v-27h27v-60h-97v-693h70v-27h27v-59zM279 -47v35h-97v744h97v36h-204v-815h204z" />
    <glyph glyph-name="backslash" unicode="\" horiz-adv-x="342" 
d="M342 -27h-61l-9 27h-18l-227 720h61l9 -27h18zM299 12l-220 696h-36l220 -696h36z" />
    <glyph glyph-name="bracketright" unicode="]" horiz-adv-x="327" 
d="M291 -86h-228v27h-27v59h97v693h-70v27h-27v60h228v-27h27v-839zM252 -47v815h-204v-36h97v-744h-97v-35h204z" />
    <glyph glyph-name="asciicircum" unicode="^" horiz-adv-x="426" 
d="M399 421h-110l-8 27h-19l-31 106l-40 -133h-110l9 27h-36l89 272h140l9 -27h18zM355 460l-81 248h-122l-81 -248h84l59 196l57 -196h84z" />
    <glyph glyph-name="underscore" unicode="_" horiz-adv-x="432" 
d="M459 -177h-432v27h-27v90h432v-27h27v-90zM420 -138v66h-408v-66h408z" />
    <glyph glyph-name="grave" unicode="`" horiz-adv-x="208" 
d="M208 568h-37l-171 166h120l12 -27h15zM163 607l-51 115h-82l119 -115h14z" />
    <glyph glyph-name="a" unicode="a" horiz-adv-x="467" 
d="M499 -27h-168l-6 27h-21l-28 129h-153l-37 -156h-65l6 27h-33l171 720h146l6 -27h21zM457 12l-156 696h-127l-165 -696h41l37 156h193l34 -156h143zM269 216h-171l88 388zM254 228l-52 245l-56 -245h108z" />
    <glyph glyph-name="b" unicode="b" horiz-adv-x="542" 
d="M555 165q0 -192 -194 -192h-285v27h-27v720h257q94 0 144 -42q6 -7 20 -21q11 -9 34 -36q26 -41 26 -105q0 -111 -95 -152q31 -17 49 -37q2 -3 8.5 -9.5l21.5 -21.5q41 -48 41 -131zM516 192q0 84 -49 130q-41 37 -129 59q74 22 109 53q44 40 44 109q0 165 -185 165h-245
v-696h273q182 0 182 180zM351 538q0 -143 -83 -143h-64v277h59q88 0 88 -134zM370 194q0 -147 -106 -147h-60v312h58q108 0 108 -165zM339 538q0 59 -16 87q-18 8 -33 8h-47v-226h25q71 0 71 131zM358 194q0 76 -24 115q-20 11 -45 11h-46v-261h21q94 0 94 135z" />
    <glyph glyph-name="c" unicode="c" horiz-adv-x="518" 
d="M530 168q0 -62 -32.5 -112t-89.5 -77q-42 -19 -101 -19q-94 0 -154 51l-25 25q-13 12 -36 38q-67 91 -67 274q0 147 60 254q73 130 209 130q82 0 131 -52q3 -4 9 -10t16 -15q58 -59 58 -162l-73 -32q2 26 2 40l-29 -13q2 16 2 49q0 51 -13.5 80.5t-61.5 29.5
q-108 0 -108 -339q0 -182 47 -250q19 -13 45 -13q59 0 91 48q27 41 27 103q0 1 -6 70l72 -27v-17l27 -10v-44zM491 231l-46 17q4 -36 4 -52q0 -65 -31 -111q-36 -52 -99 -52q-131 0 -131 302q0 351 120 351q114 0 114 -149v-30l47 21q0 86 -44 137q-47 55 -131 55
q-132 0 -201 -126q-56 -103 -56 -246q0 -349 243 -349q69 0 121 31q57 34 78 96q12 35 12 105z" />
    <glyph glyph-name="d" unicode="d" horiz-adv-x="567" 
d="M570 332q0 -359 -267 -359h-226v27h-27v720h226q99 0 161 -49l32 -32q13 -12 36 -40q65 -90 65 -267zM531 359q0 349 -255 349h-214v-696h214q255 0 255 347zM380 361q0 -119 -6 -167q-16 -118 -69 -135q-18 -6 -44 -6h-56v613h56q33 0 56 -10q43 -21 57 -135
q6 -51 6 -160zM368 361q0 204 -30 257q-18 9 -50 9h-44v-562h17q31 0 51 9q39 18 51 132q5 46 5 155z" />
    <glyph glyph-name="e" unicode="e" horiz-adv-x="461" 
d="M485 -27h-409v27h-27v720h374v-27h27v-72h-207v-197h138v-27h27v-65h-165v-260h215v-27h27v-72zM446 12v48h-242v311h165v41h-165v248h207v48h-350v-696h385z" />
    <glyph glyph-name="f" unicode="f" horiz-adv-x="432" 
d="M453 621h-210v-197h127v-27h27v-65h-154v-359h-167v27h-27v720h377v-27h27v-72zM414 660v48h-353v-696h143v359h154v41h-154v248h210z" />
    <glyph glyph-name="g" unicode="g" horiz-adv-x="546" 
d="M539 -27h-53l-10 27h-17l-4 11q-63 -51 -134 -51q-94 0 -158 53l-29 29q-59 60 -84 134t-25 177q0 151 64 255q77 124 219 124q37 0 70 -18q25 -14 57 -47q5 -5 15 -14q67 -67 67 -158l-75 -34v39l-27 -12q0 86 -14.5 119t-57.5 33q-34 0 -54.5 -9t-32.5 -41
q-23 -57 -23 -269t26 -264q9 -4 31 -4q68 0 68 86v193h-56v27h-27v65h237v-27h27v-424zM500 12v400h-213v-41h83v-232q0 -41 -19 -68q-21 -30 -61 -30q-25 0 -43 10q-53 29 -53 297q0 213 26 276q18 42 57 51q17 4 39 4q57 0 87 -53q24 -42 24 -104v-15l51 23q0 70 -50 128
q-52 62 -120 62q-138 0 -211 -120q-60 -99 -60 -247q0 -150 52 -241q66 -113 205 -113q73 0 152 72l21 -59h33z" />
    <glyph glyph-name="h" unicode="h" horiz-adv-x="569" 
d="M547 -27h-167v27h-27v332h-110v-359h-167v27h-27v720h167v-27h27v-269h110v296h167v-27h27v-720zM508 12v696h-143v-296h-161v296h-143v-696h143v359h161v-359h143z" />
    <glyph glyph-name="i" unicode="i" horiz-adv-x="267" 
d="M245 -27h-168v27h-27v720h168v-27h27v-720zM206 12v696h-144v-696h144z" />
    <glyph glyph-name="j" unicode="j" horiz-adv-x="358" 
d="M339 230q0 -273 -154 -273q-35 0 -68 16q-22 10 -58 46q-16 15 -44 54q-18 33 -18 77q0 45 13 103l61 21q-2 -13 -7 -39l34 12q-14 -76 -14 -107q0 -55 14 -88q8 -3 15 -3q32 0 32 109v562h167v-27h27v-463zM300 257v451h-143v-550q0 -121 -44 -121q-68 0 -68 130
q0 34 10 89l-35 -12q-11 -55 -11 -94q0 -64 42.5 -109t106.5 -45q142 0 142 261z" />
    <glyph glyph-name="k" unicode="k" horiz-adv-x="555" 
d="M589 -27h-187l-11 27h-16l-117 275l-15 -20v-282h-167v27h-27v720h167v-27h27v-250l172 277h78l-17 -27h44l-143 -227zM544 12l-208 482l135 214h-49l-218 -351v351h-143v-696h143v274l40 53l139 -327h161z" />
    <glyph glyph-name="l" unicode="l" horiz-adv-x="439" 
d="M481 -27h-404v27h-27v720h167v-27h27v-621h210v-27h27v-72zM442 12v48h-237v648h-143v-696h380z" />
    <glyph glyph-name="m" unicode="m" horiz-adv-x="634" 
d="M612 -27h-161v27h-27v357l-86 -384h-93l-6 27h-21l-88 378v-405h-56v27h-27v720h169l6 -27h21l88 -383l93 410h161v-27h27v-720zM573 12v696h-139l-113 -498l-115 498h-147v-696h32v486h24l113 -486h73l111 495h24v-495h137z" />
    <glyph glyph-name="n" unicode="n" horiz-adv-x="518" 
d="M498 -27h-129l-14 27h-13l-212 404v-431h-57v27h-27v720h106l14 -27h13l236 -441v468h56v-27h27v-720zM459 12v696h-32v-528l-282 528h-87v-696h33v493l258 -493h110z" />
    <glyph glyph-name="o" unicode="o" horiz-adv-x="562" 
d="M564 334q0 -374 -257 -374q-89 0 -146 47q-4 2 -31 30q-12 12 -36 39q-69 96 -69 293q0 363 261 363q89 0 146 -46q3 -2 30 -30q13 -12 37 -40q65 -93 65 -282zM525 361q0 359 -239 359q-249 0 -249 -351q0 -370 243 -370q245 0 245 362zM374 361q0 -286 -52 -317
q-18 -11 -42 -11t-41 11q-51 31 -51 317t51 316q17 10 41 10t42 -10q52 -30 52 -316zM362 361q0 225 -27 283q-9 4 -28 4q-21 0 -36 -9q-44 -26 -44 -305q0 -229 26 -285q9 -4 27 -4q22 0 38 9q44 26 44 307z" />
    <glyph glyph-name="p" unicode="p" horiz-adv-x="517" 
d="M537 482q0 -214 -235 -214h-58v-295h-167v27h-27v720h248q97 0 151 -46l10 -10q7 -12 19 -19q22 -13 40 -55q19 -45 19 -108zM498 509q0 199 -200 199h-236v-696h143v295h70q223 0 223 202zM358 513q0 -164 -103 -164h-50v317h50q103 0 103 -153zM346 513q0 68 -21 103
q-20 11 -43 11h-38v-266h11q91 0 91 152z" />
    <glyph glyph-name="q" unicode="q" horiz-adv-x="558" 
d="M563 334q0 -267 -133 -343q13 -38 24 -38q35 0 35 40q0 19 -3 30l44 -21q2 -1 2 -15l25 -12q3 -30 3 -41q0 -50 -26 -84t-75 -34q-53 0 -94 47q-35 41 -48 97q-102 2 -163 53l-25 25q-7 6 -20 19q-61 64 -78 192q-7 53 -7 120q0 363 261 363q90 0 147 -48l26 -26
q13 -12 37 -38q68 -92 68 -286zM524 361q0 359 -239 359q-249 0 -249 -351q0 -169 46 -255q61 -115 215 -115h25q22 -144 110 -144q89 0 89 106q0 24 -2 33l-16 8l-2 6v-15q0 -52 -47 -52q-39 0 -65 83q135 78 135 337zM372 361q0 -166 -11 -235h-20q-32 73 -65 73
q-15 0 -28 -11q-10 -7 -16 -19q-9 -15 -10 -16.5t-25 -29.5q-10 92 -10 238q0 286 51 316q17 10 41 10t42 -10q51 -29 51 -316zM318 43q-17 -10 -39 -10q-53 0 -73 59q29 54 59 54q22 0 35 -24q18 -36 18 -66v-13zM360 361q0 231 -26 283q-9 4 -28 4q-21 0 -36 -9
q-44 -25 -44 -305q0 -90 3 -150q23 27 47 27q29 0 77 -57q7 58 7 207zM306 50v5q0 20 -12 52h-2q-25 0 -46 -43q8 -19 33 -19q15 0 27 5z" />
    <glyph glyph-name="r" unicode="r" horiz-adv-x="546" 
d="M553 -27h-182q-1 5 -7 27h-20q-18 59 -18 124v98q0 62 -15 89q-19 8 -67 8v-346h-167v27h-27v720h247q96 0 152 -47q8 -9 24 -26q7 -6 21 -20q43 -48 43 -121q0 -124 -110 -165q20 -12 33 -27q2 -3 7 -8t13 -12q23 -22 31 -51q10 -35 11 -106t9 -105q10 -40 22 -59z
M505 12q-5 8 -14 47t-9 101q0 95 -22 130.5t-108 74.5q73 22 106 57q40 40 40 111q0 87 -59 133q-53 42 -142 42h-235v-696h143v346h41q92 0 92 -136v-98q0 -52 15 -112h152zM358 530q0 -137 -108 -137h-45v273h45q108 0 108 -136zM346 530q0 49 -10 69q-15 28 -59 28h-33
v-222h6q96 0 96 125z" />
    <glyph glyph-name="s" unicode="s" horiz-adv-x="474" 
d="M477 186q0 -100 -56.5 -163t-155.5 -63q-98 0 -152 44q-7 8 -23 24q-8 7 -23 22q-43 51 -43 144q0 16 2 42l80 21l-6 -36l33 9q-9 -49 -9 -79q0 -55 21 -88q28 -19 74 -19q99 0 99 97q0 40 -27 62q-19 15 -63 37t-63 38q-67 52 -98 103q-37 60 -37 136q0 95 55.5 155
t150.5 60q80 0 126 -38q8 -8 23 -24q8 -7 24 -23q44 -53 44 -155l-77 -19q2 11 5 35l-32 -8q5 37 5 49q0 55 -20.5 77t-75.5 22q-96 0 -96 -86q0 -35 23 -53q19 -15 58 -32q66 -28 122 -76q61 -52 90 -110q22 -46 22 -105zM438 213q0 165 -200 253q-115 51 -115 123
q0 98 108 98q135 0 135 -138q0 -6 -1 -17t-1 -16l50 12q0 192 -178 192q-90 0 -142 -56t-52 -147q0 -161 164 -239q124 -59 124 -137q0 -109 -111 -109q-134 0 -134 146q0 18 6 63l-54 -14q0 -5 -1 -16v-17q0 -195 202 -195q95 0 147.5 59t52.5 155z" />
    <glyph glyph-name="t" unicode="t" horiz-adv-x="447" 
d="M481 621h-142v-648h-177v27h-27v621h-114v27h-27v72h460v-27h27v-72zM442 660v48h-436v-48h141v-648h153v648h142z" />
    <glyph glyph-name="u" unicode="u" horiz-adv-x="523" 
d="M509 209q0 -248 -219 -248q-94 0 -147 46q-7 7 -21 22q-9 8 -27 26q-51 62 -51 181v484h167v-27h27v-490q0 -92 19 -127q20 -11 56 -11q114 0 114 171v484h55v-27h27v-484zM470 236v472h-31v-472q0 -183 -126 -183q-64 0 -89 40q-25 37 -25 137v478h-143v-472
q0 -236 207 -236t207 236z" />
    <glyph glyph-name="v" unicode="v" horiz-adv-x="459" 
d="M492 693l-167 -720h-149l-6 27h-21l-154 720h169l6 -27h21l98 -469l113 496h63l-6 -27h33zM450 708h-38l-134 -589l-124 589h-144l149 -696h129z" />
    <glyph glyph-name="w" unicode="w" horiz-adv-x="674" 
d="M707 693l-157 -720h-109l-6 27h-21l-64 313l-70 -340h-110l-6 27h-21l-148 720h169l5 -27h22l70 -356l77 383h98l5 -27h22l70 -358l81 385h66l-6 -27h33zM665 708h-41l-102 -486l-96 486h-78l-98 -486l-96 486h-144l143 -696h90l91 440l90 -440h89z" />
    <glyph glyph-name="x" unicode="x" horiz-adv-x="494" 
d="M527 -27h-186l-12 27h-15l-91 209l-115 -236h-75l13 27h-40l163 329l-174 391h185l12 -27h15l83 -191l104 218h73l-13 -27h40l-150 -309zM482 12l-178 399l144 297h-46l-121 -252l-109 252h-159l169 -379l-157 -317h48l132 270l117 -270h160z" />
    <glyph glyph-name="y" unicode="y" horiz-adv-x="441" 
d="M479 693l-93 -303q-18 -45 -47 -151q-4 -20 -2 -44q2 -41 2 -45v-177h-167v27h-27v266q-8 36 -23 76q-26 69 -29 75l-103 303h173l9 -27h18l99 -292l97 319h66l-8 -27h35zM436 708h-41l-114 -374l-127 374h-147l100 -293q19 -44 50 -147v-256h143v171q0 3 -2 43
q-2 23 2 42q7 35 20 74q23 66 25 73z" />
    <glyph glyph-name="z" unicode="z" horiz-adv-x="473" 
d="M493 627l-264 -555h217v-27h27v-72h-442v27h-27v72l261 549h-194v27h-27v72h422v-27h27v-66zM454 657v51h-398v-48h241l-281 -591v-57h418v48h-264z" />
    <glyph glyph-name="braceleft" unicode="{" horiz-adv-x="366" 
d="M357 -84h-129q-55 0 -76 37q-47 25 -47 144v148q0 43 -10 69h-5q0 18 -10.5 22.5t-16.5 4.5v38q42 0 42 85v149q0 74 13 108q22 56 83 56h129v-27h27v-57h-58q-36 0 -36 -66v-159q0 -90 -53 -138q53 -45 53 -138v-160q0 -20 3 -32h64v-27h27v-57zM318 -45v33h-46
q-48 0 -48 71v160q0 86 -59 138q59 53 59 138v159q0 78 48 78h46v33h-117q-46 0 -64 -30q-20 -35 -20 -122v-149q0 -36 -11 -66.5t-31 -30.5v-14q20 0 31 -33q12 -36 12 -111q0 -18 -1 -54t-1 -53q0 -91 20 -121q17 -26 65 -26h117z" />
    <glyph glyph-name="bar" unicode="|" horiz-adv-x="426" 
d="M324 -87h-168v27h-27v840h168v-27h27v-840zM285 -48v816h-144v-816h144z" />
    <glyph glyph-name="braceright" unicode="}" horiz-adv-x="366" 
d="M356 314q-42 0 -42 -96v-148q0 -73 -13 -104q-21 -50 -83 -50h-129v27h-27v57q65 0 71 2q23 9 23 57v160q0 93 53 138q-53 48 -53 138v159q0 27 -4 39h-63v27h-27v57h129q51 0 73 -37q50 -27 50 -154v-149q0 -34 9 -58h6q0 -19 12 -23q9 -4 15 -4v-38zM317 353v14
q-20 0 -31 30.5t-11 66.5v149q0 87 -20 122q-18 30 -64 30h-117v-33h46q48 0 48 -78v-159q0 -85 59 -138q-59 -52 -59 -138v-160q0 -71 -48 -71h-46v-33h117q48 0 65 26q20 30 20 121q0 17 -1 53t-1 54q0 75 12 111q11 33 31 33z" />
    <glyph glyph-name="asciitilde" unicode="~" horiz-adv-x="426" 
d="M429 369q-48 -87 -123 -87q-24 0 -69 14.5t-70 14.5q-30 0 -50 -29l-66 44q2 2 4 6l-31 21q46 85 123 85q28 0 72.5 -14t64.5 -14q34 0 53 28l65 -42q0 2 -4 -7zM386 392l-46 30q-5 -9 -24 -16.5t-32 -7.5q-24 0 -68 14t-69 14q-70 0 -107 -69l47 -31q17 24 53 24
q28 0 73 -14.5t66 -14.5q68 0 107 71z" />
    <glyph glyph-name="currency" unicode="&#xa4;" horiz-adv-x="501" 
d="M476 178l-47 -47l-62 63q-53 -39 -117 -39q-63 0 -117 39l-62 -63l-47 47l62 63q-37 52 -37 119q0 69 37 118l-62 63l47 47l63 -63q56 39 116 39t117 -39l62 63l47 -47l-62 -63q37 -49 37 -118q0 -67 -37 -119zM351 360q0 43 -29 74t-72 31q-42 0 -71 -31.5t-29 -73.5
q0 -43 28.5 -74.5t71.5 -31.5t72 31.5t29 74.5z" />
    <glyph glyph-name="brokenbar" unicode="&#xa6;" horiz-adv-x="426" 
d="M324 392h-168v27h-27v361h168v-27h27v-361zM324 -87h-168v27h-27v360h168v-27h27v-360zM285 431v337h-144v-337h144zM285 -48v336h-144v-336h144z" />
    <glyph glyph-name="section" unicode="&#xa7;" 
d="M497 379q0 -87 -63 -152q48 -55 48 -114q0 -90 -52 -149q-55 -62 -144 -62q-117 0 -156 55q-55 37 -55 149l80 34q-6 -21 -6 -41l33 14q-6 -22 -6 -44q0 -47 17 -62.5t64 -15.5q113 0 113 87q0 30 -18 39.5t-46 18.5q-66 22 -97 35q-56 24 -86 53q-4 5 -13 14
q-20 19 -24 23q-12 13 -18 29q-11 27 -11 62q0 82 61 155q-35 41 -35 104q0 88 48.5 140.5t135.5 52.5q95 0 144 -53q3 -4 10 -11l19 -19q34 -37 34 -95l-75 -29q4 13 4 39l-31 -12q4 13 4 27q0 43 -21 57q-17 11 -63 11q-89 0 -89 -72q0 -21 25 -37q3 -2 43 -20l97 -44
q27 -12 44 -24q5 -4 31 -30q7 -6 19 -18q35 -38 35 -95zM458 406q0 86 -95 129l-97 44q-102 46 -102 95q0 84 101 84q123 0 123 -107v-11v-1q1 1 2 5l45 17q0 66 -53 101q-46 30 -115 30q-83 0 -127.5 -48.5t-44.5 -132.5q0 -57 39 -104q-65 -76 -65 -155q0 -30 8 -54
q16 -46 91 -82q32 -15 121 -44q93 -31 93 -94q0 -99 -125 -99q-120 0 -120 117v12q1 8 1 12v1q-1 0 -1 -2l-50 -21q0 -92 41 -126q37 -31 131 -31q86 0 136 58q48 54 48 141q0 56 -52 114q67 69 67 152zM409 331q0 -30 -31 -72q-26 25 -60 39q-45 19 -118 51q-88 38 -88 82
q0 28 31 65q14 -10 139 -64q101 -44 120 -75q7 -13 7 -26zM397 331q0 25 -99 67q-118 49 -126 55q-21 -25 -21 -49q0 -17 17 -26.5t71 -32.5l84 -36q33 -14 53 -32q21 29 21 54z" />
    <glyph glyph-name="copyright" unicode="&#xa9;" horiz-adv-x="663" 
d="M651 401q0 -132 -93.5 -226t-225.5 -94q-131 0 -225.5 94.5t-94.5 225.5t94.5 225t225.5 94q132 0 225.5 -93.5t93.5 -225.5zM604 401q0 112 -80.5 193t-191.5 81t-191.5 -81t-80.5 -193t80 -193.5t192 -81.5t192 81.5t80 193.5zM480 330q0 -119 -144 -119
q-164 0 -164 185q0 82 44 137q48 59 128 59q121 0 121 -118l-52 -24q1 9 1 31q0 78 -59 78q-65 0 -65 -170q0 -146 73 -146q69 0 69 85q0 8 -5 41l51 -12q2 -8 2 -27z" />
    <glyph glyph-name="guillemotleft" unicode="&#xab;" horiz-adv-x="368" 
d="M355 38h-86l-11 27h-16l-77 189v36l-14 -41l72 -211h-86l-11 27h-16l-78 189v44l78 187h86l-9 -27h44l11 27h86l-9 -27h36l-71 -209zM311 77l-67 199l67 197h-61l-73 -177v-40l73 -179h61zM179 77l-68 199l68 197h-61l-74 -177v-40l74 -179h61z" />
    <glyph glyph-name="logicalnot" unicode="&#xac;" horiz-adv-x="426" 
d="M395 221h-141v91h-233v121h374v-212z" />
    <glyph glyph-name="registered" unicode="&#xae;" horiz-adv-x="663" 
d="M651 360q0 -132 -93.5 -226t-225.5 -94q-131 0 -225.5 94.5t-94.5 225.5t94.5 225t225.5 94q132 0 225.5 -93.5t93.5 -225.5zM604 360q0 112 -80.5 193t-191.5 81t-191.5 -81t-80.5 -193t80 -193.5t192 -81.5t192 81.5t80 193.5zM499 175h-123q-11 26 -13 121
q-1 32 -17 44q-13 9 -45 9v-174h-112v368h159q137 0 137 -95q0 -66 -71 -87q40 -18 52 -54q5 -14 11 -69q5 -42 22 -63zM377 446q0 61 -58 61h-18v-121h18q58 0 58 60z" />
    <glyph glyph-name="degree" unicode="&#xb0;" horiz-adv-x="385" 
d="M314 582q0 -56 -32 -101q-35 -50 -89 -50t-89 50q-32 45 -32 101q0 57 31 102q35 50 90 50t90 -50q31 -45 31 -102zM260 582q0 87 -67 87q-68 0 -68 -87q0 -86 68 -86q67 0 67 86z" />
    <glyph glyph-name="plusminus" unicode="&#xb1;" horiz-adv-x="426" 
d="M425 341h-180v-150h-64v150h-179v60h179v150h64v-150h180v-60zM425 0h-423v60h423v-60z" />
    <glyph glyph-name="paragraph" unicode="&#xb6;" horiz-adv-x="582" 
d="M498 -86h-72v734h-64v-734h-73v379h-59q-171 0 -171 212q0 81 32 141q40 74 115 74h292v-806z" />
    <glyph glyph-name="guillemotright" unicode="&#xbb;" horiz-adv-x="368" 
d="M363 227l-78 -189h-86l9 27h-44l-11 -27h-85l9 27h-36l71 211l-71 209h85l11 -27h16l78 -187v-36l14 41l-73 209h86l11 -27h16l78 -187v-44zM324 256v40l-74 177h-61l69 -197l-69 -199h61zM192 256v40l-74 177h-60l67 -197l-67 -199h60z" />
    <glyph glyph-name="mu" unicode="&#xb5;" horiz-adv-x="470" 
d="M444 0h-154v84q-35 -84 -76 -84q-20 0 -35 13v-153l-153 47v625q51 0 153 13v-409q0 -58 42 -58q69 0 69 186v268q92 5 154 13v-545z" />
    <glyph glyph-name="mu" unicode="&#x3bc;" horiz-adv-x="470" 
d="M444 0h-154v84q-35 -84 -76 -84q-20 0 -35 13v-153l-153 47v625q51 0 153 13v-409q0 -58 42 -58q69 0 69 186v268q92 5 154 13v-545z" />
    <glyph glyph-name="afii10023" unicode="&#x401;" horiz-adv-x="461" 
d="M429 793q0 -58 -68 -58q-53 0 -65 34q-31 13 -31 51q0 58 69 58q52 0 64 -34q31 -12 31 -51zM239 793q0 -58 -69 -58q-53 0 -65 34q-31 13 -31 51q0 58 69 58q54 0 66 -34q30 -14 30 -51zM485 -27h-409v27h-27v720h374v-27h27v-72h-207v-192h147v-27h27v-71h-174v-259
h215v-27h27v-72zM390 820q0 28 -16 38q-11 8 -40 8q-57 0 -57 -46t57 -46q56 0 56 46zM200 820q0 46 -57 46t-57 -46t57 -46t57 46zM446 12v48h-242v310h174v47h-174v243h207v48h-350v-696h385z" />
    <glyph glyph-name="afii10017" unicode="&#x410;" horiz-adv-x="467" 
d="M499 -27h-168l-6 27h-21l-28 129h-153l-37 -156h-65l6 27h-33l171 720h146l6 -27h21zM457 12l-156 696h-127l-165 -696h41l37 156h193l34 -156h143zM269 216h-171l88 388zM254 228l-52 245l-56 -245h108z" />
    <glyph glyph-name="afii10018" unicode="&#x411;" horiz-adv-x="525" 
d="M537 184q0 -211 -212 -211h-248v27h-27v720h412v-27h27v-72h-245v-197h31q110 0 168 -46q14 -15 38 -37q13 -8 28 -35q28 -48 28 -122zM498 211q0 201 -223 201h-70v248h245v48h-388v-696h236q200 0 200 199zM358 207q0 -154 -103 -154h-50v318h50q103 0 103 -164z
M346 207q0 77 -23 115q-16 10 -41 10h-38v-267h11q91 0 91 142z" />
    <glyph glyph-name="afii10019" unicode="&#x412;" horiz-adv-x="542" 
d="M555 165q0 -192 -194 -192h-285v27h-27v720h257q94 0 144 -42q6 -7 20 -21q11 -9 34 -36q26 -41 26 -105q0 -111 -95 -152q31 -17 49 -37q2 -3 8.5 -9.5l21.5 -21.5q41 -48 41 -131zM516 192q0 84 -49 130q-41 37 -129 59q74 22 109 53q44 40 44 109q0 165 -185 165h-245
v-696h273q182 0 182 180zM351 538q0 -143 -83 -143h-64v277h59q88 0 88 -134zM370 194q0 -147 -106 -147h-60v312h58q108 0 108 -165zM339 538q0 59 -16 87q-18 8 -33 8h-47v-226h25q71 0 71 131zM358 194q0 76 -24 115q-20 11 -45 11h-46v-261h21q94 0 94 135z" />
    <glyph glyph-name="afii10020" unicode="&#x413;" horiz-adv-x="419" 
d="M453 621h-210v-648h-167v27h-27v720h377v-27h27v-72zM414 660v48h-353v-696h143v648h210z" />
    <glyph glyph-name="afii10021" unicode="&#x414;" horiz-adv-x="508" 
d="M528 -122l-57 -32v42l-27 -15v100h-360v-127l-57 32v12l-27 15v167h42q15 0 28.5 34t13.5 90v524h360v-27h27v-621h30v-27h27v-167zM489 -88v148h-57v648h-336v-512q0 -39 -11 -80q-15 -56 -43 -56h-30v-148l33 -19v119h411v-119zM289 60h-186q26 70 26 155v445h160v-600
zM277 72v549h-109v-433q0 -69 -13 -116h122z" />
    <glyph glyph-name="afii10022" unicode="&#x415;" horiz-adv-x="461" 
d="M485 -27h-409v27h-27v720h374v-27h27v-72h-207v-197h138v-27h27v-65h-165v-260h215v-27h27v-72zM446 12v48h-242v311h165v41h-165v248h207v48h-350v-696h385z" />
    <glyph glyph-name="afii10024" unicode="&#x416;" horiz-adv-x="837" 
d="M871 -27h-186l-12 27h-15l-119 275l-14 -20v-282h-160v27h-27v282l-132 -309h-186l12 27h-39l212 493l-143 227h77l17 -27h10l172 -277v304h160v-27h27v-250l172 277h77l-17 -27h44l-143 -227zM826 12l-209 482l135 214h-48l-218 -351v351h-136v-351l-218 351h-48
l135 -214l-208 -482h160l140 327l39 -53v-274h136v274l39 53l141 -327h160z" />
    <glyph glyph-name="afii10025" unicode="&#x417;" horiz-adv-x="482" 
d="M482 171q0 -211 -233 -211q-100 0 -153 43q-7 8 -22 23q-7 6 -21 20q-38 42 -38 116q0 28 7 77l77 27l-6 -39l33 12q-11 -58 -11 -97q0 -49 16 -77q21 -12 55 -12q100 0 100 141q0 67 -19 98q-25 16 -112 16v27h-27v85q88 0 117 22q35 27 35 111q0 48 -17 77
q-20 11 -46 11q-88 0 -88 -103q0 -43 6 -77l-78 32v8q1 5 1 8l-28 11q0 212 191 212q106 0 161 -44q7 -8 23 -24q7 -6 20 -19q41 -45 41 -126q0 -112 -103 -158q10 -5 55 -45q64 -57 64 -145zM443 198q0 78 -48 122q-38 36 -120 59q73 25 107 57q45 42 45 110
q0 174 -206 174q-179 0 -179 -192l50 -21q-2 28 -2 58q0 115 100 115q102 0 102 -127q0 -84 -34 -114.5t-118 -30.5v-61h26q73 0 105 -41q27 -36 27 -112q0 -153 -112 -153q-110 0 -110 128q0 55 7 79l-50 -18q-6 -48 -6 -68q0 -163 195 -163q221 0 221 199z" />
    <glyph glyph-name="afii10026" unicode="&#x418;" horiz-adv-x="569" 
d="M562 -27h-167v27h-27v415l-125 -442h-167v27h-27v720h167v-27h27v-415l125 442h167v-27h27v-720zM523 12v696h-146l-150 -530h-23v530h-143v-696h146l150 530h23v-530h143z" />
    <glyph glyph-name="afii10027" unicode="&#x419;" horiz-adv-x="569" 
d="M456 861q0 -72 -32.5 -103t-104.5 -31q-88 0 -118 47q-46 30 -46 114h45q0 -15 3 -27h24q0 -29 19 -37q10 -4 46 -4q47 0 66 10q26 15 26 58h45q0 -20 -1 -27h28zM562 -27h-167v27h-27v415l-125 -442h-167v27h-27v720h167v-27h27v-415l125 442h167v-27h27v-720zM417 876
h-21q0 -68 -104 -68t-104 68h-21q0 -62 32 -88q29 -22 93 -22t93 22q32 26 32 88zM523 12v696h-146l-150 -530h-23v530h-143v-696h146l150 530h23v-530h143z" />
    <glyph glyph-name="afii10028" unicode="&#x41a;" horiz-adv-x="555" 
d="M589 -27h-187l-11 27h-16l-117 275l-15 -20v-282h-167v27h-27v720h167v-27h27v-250l172 277h78l-17 -27h44l-143 -227zM544 12l-208 482l135 214h-49l-218 -351v351h-143v-696h143v274l40 53l139 -327h161z" />
    <glyph glyph-name="afii10029" unicode="&#x41b;" horiz-adv-x="557" 
d="M535 -27h-167v27h-27v621h-109v-433q0 -125 -20.5 -178t-73.5 -53q-55 0 -83 42q-55 34 -55 142q0 50 14 104l60 21q-3 -13 -7 -39l34 12q-14 -78 -14 -108q0 -53 12 -80q10 -2 18 -2q32 0 32 109v562h359v-27h27v-720zM496 12v696h-335v-550q0 -121 -44 -121
q-69 0 -69 121q0 42 11 90l-35 -12q-12 -51 -12 -95q0 -145 99 -145q46 0 64 47t18 172v445h160v-648h143z" />
    <glyph glyph-name="afii10030" unicode="&#x41c;" horiz-adv-x="634" 
d="M612 -27h-161v27h-27v357l-86 -384h-93l-6 27h-21l-88 378v-405h-56v27h-27v720h169l6 -27h21l88 -383l93 410h161v-27h27v-720zM573 12v696h-139l-113 -498l-115 498h-147v-696h32v486h24l113 -486h73l111 495h24v-495h137z" />
    <glyph glyph-name="afii10031" unicode="&#x41d;" horiz-adv-x="569" 
d="M547 -27h-167v27h-27v332h-110v-359h-167v27h-27v720h167v-27h27v-269h110v296h167v-27h27v-720zM508 12v696h-143v-296h-161v296h-143v-696h143v359h161v-359h143z" />
    <glyph glyph-name="afii10032" unicode="&#x41e;" horiz-adv-x="562" 
d="M564 334q0 -374 -257 -374q-89 0 -146 47q-4 2 -31 30q-12 12 -36 39q-69 96 -69 293q0 363 261 363q89 0 146 -46q3 -2 30 -30q13 -12 37 -40q65 -93 65 -282zM525 361q0 359 -239 359q-249 0 -249 -351q0 -370 243 -370q245 0 245 362zM374 361q0 -286 -52 -317
q-18 -11 -42 -11t-41 11q-51 31 -51 317t51 316q17 10 41 10t42 -10q52 -30 52 -316zM362 361q0 225 -27 283q-9 4 -28 4q-21 0 -36 -9q-44 -26 -44 -305q0 -229 26 -285q9 -4 27 -4q22 0 38 9q44 26 44 307z" />
    <glyph glyph-name="afii10033" unicode="&#x41f;" horiz-adv-x="569" 
d="M547 -27h-167v27h-27v621h-110v-648h-167v27h-27v720h471v-27h27v-720zM508 12v696h-447v-696h143v648h161v-648h143z" />
    <glyph glyph-name="afii10034" unicode="&#x420;" horiz-adv-x="517" 
d="M537 482q0 -214 -235 -214h-58v-295h-167v27h-27v720h248q97 0 151 -46l10 -10q7 -12 19 -19q22 -13 40 -55q19 -45 19 -108zM498 509q0 199 -200 199h-236v-696h143v295h70q223 0 223 202zM358 513q0 -164 -103 -164h-50v317h50q103 0 103 -153zM346 513q0 68 -21 103
q-20 11 -43 11h-38v-266h11q91 0 91 152z" />
    <glyph glyph-name="afii10035" unicode="&#x421;" horiz-adv-x="518" 
d="M530 168q0 -62 -32.5 -112t-89.5 -77q-42 -19 -101 -19q-94 0 -154 51l-25 25q-13 12 -36 38q-67 91 -67 274q0 147 60 254q73 130 209 130q82 0 131 -52q3 -4 9 -10t16 -15q58 -59 58 -162l-73 -32q2 26 2 40l-29 -13q2 16 2 49q0 51 -13.5 80.5t-61.5 29.5
q-108 0 -108 -339q0 -182 47 -250q19 -13 45 -13q59 0 91 48q27 41 27 103q0 1 -6 70l72 -27v-17l27 -10v-44zM491 231l-46 17q4 -36 4 -52q0 -65 -31 -111q-36 -52 -99 -52q-131 0 -131 302q0 351 120 351q114 0 114 -149v-30l47 21q0 86 -44 137q-47 55 -131 55
q-132 0 -201 -126q-56 -103 -56 -246q0 -349 243 -349q69 0 121 31q57 34 78 96q12 35 12 105z" />
    <glyph glyph-name="afii10036" unicode="&#x422;" horiz-adv-x="447" 
d="M481 621h-142v-648h-177v27h-27v621h-114v27h-27v72h460v-27h27v-72zM442 660v48h-436v-48h141v-648h153v648h142z" />
    <glyph glyph-name="afii10037" unicode="&#x423;" horiz-adv-x="456" 
d="M496 693l-188 -583q-23 -72 -46 -104q-37 -49 -96 -49q-50 0 -83 46q-29 41 -29 93q0 29 10 65l53 19q-11 -22 -15 -42l42 15q-19 -43 -19 -76q0 -23 5 -41q1 0 4 -1h4q64 0 64 76q0 31 -16 75l-196 534h176l10 -27h17l105 -294l104 321h67l-9 -27h36zM453 708h-42
l-120 -372l-133 372h-151l190 -518q17 -46 17 -79q0 -38 -19.5 -63t-56.5 -25q-52 0 -52 81q0 11 3.5 29.5t4.5 25.5l-20 -7q-8 -35 -8 -56q0 -100 73 -100q55 0 89 48q20 28 42 97z" />
    <glyph glyph-name="afii10038" unicode="&#x424;" horiz-adv-x="763" 
d="M782 361q0 -113 -61 -174.5t-174 -61.5h-58v-152h-161v27h-27v125q-95 0 -142 20q-41 17 -65 43q-4 5 -11 13q-5 4 -14 11q-62 60 -62 176q0 107 53.5 167.5t158.5 60.5h82v104h161v-27h27v-77h54q91 0 144 -45q8 -8 23 -24q4 -4 13 -11q59 -57 59 -175zM743 388
q0 216 -200 216h-93v104h-137v-104h-94q-200 0 -200 -216q0 -109 57.5 -166.5t166.5 -57.5h70v-152h137v152h70q109 0 166 57.5t57 166.5zM602 385q0 -71 -21 -117q-28 -63 -91 -63h-40v358h40q112 0 112 -178zM313 205h-40q-63 0 -92 63q-21 46 -21 117t21 116q29 62 92 62
h40v-358zM590 385q0 83 -27 126q-19 13 -46 13h-28v-307h1q100 0 100 168zM301 217v307h-1q-101 0 -101 -166q0 -85 29 -129q20 -12 45 -12h28z" />
    <glyph glyph-name="afii10039" unicode="&#x425;" horiz-adv-x="494" 
d="M527 -27h-186l-12 27h-15l-91 209l-115 -236h-75l13 27h-40l163 329l-174 391h185l12 -27h15l83 -191l104 218h73l-13 -27h40l-150 -309zM482 12l-178 399l144 297h-46l-121 -252l-109 252h-159l169 -379l-157 -317h48l132 270l117 -270h160z" />
    <glyph glyph-name="afii10040" unicode="&#x426;" horiz-adv-x="569" 
d="M596 -122l-57 -32v42l-27 -15v100h-436v27h-27v720h167v-27h27v-621h102v648h167v-27h27v-621h30v-27h27v-167zM557 -88v148h-57v648h-143v-648h-153v648h-143v-696h463v-119z" />
    <glyph glyph-name="afii10041" unicode="&#x427;" 
d="M505 -27h-167v27h-27v273q-40 -5 -54 -5q-118 0 -165 49q-4 5 -11 14q-5 4 -13 11q-48 47 -48 167v211h162v-27h27v-207q0 -82 17 -114q12 -5 32 -5h53v353h167v-27h27v-720zM466 12v696h-143v-353h-65q-56 0 -76 55q-12 34 -12 103v195h-138v-199q0 -114 42.5 -158
t155.5 -44q38 0 93 13v-308h143z" />
    <glyph glyph-name="afii10042" unicode="&#x428;" horiz-adv-x="746" 
d="M724 -27h-648v27h-27v720h167v-27h27v-621h102v503h56v-27h27v-476h102v648h167v-27h27v-720zM685 12v696h-143v-648h-153v503h-32v-503h-153v648h-143v-696h624z" />
    <glyph glyph-name="afii10043" unicode="&#x429;" horiz-adv-x="754" 
d="M781 -122l-57 -32v42l-27 -15v100h-621v27h-27v720h167v-27h27v-621h102v503h56v-27h27v-476h102v648h167v-27h27v-621h30v-27h27v-167zM742 -88v148h-57v648h-143v-648h-153v503h-32v-503h-153v648h-143v-696h648v-119z" />
    <glyph glyph-name="afii10044" unicode="&#x42a;" horiz-adv-x="590" 
d="M603 184q0 -211 -212 -211h-250v27h-27v621h-93v27h-27v72h288v-27h27v-269h31q108 0 166 -45q14 -15 38 -37q4 -3 11 -10q48 -53 48 -148zM564 211q0 201 -224 201h-70v296h-264v-48h120v-648h238q200 0 200 199zM423 207q0 -154 -103 -154h-50v318h50q103 0 103 -164z
M411 207q0 77 -23 115q-16 10 -41 10h-38v-267h11q91 0 91 142z" />
    <glyph glyph-name="afii10045" unicode="&#x42b;" horiz-adv-x="777" 
d="M754 -27h-166v27h-27v720h166v-27h27v-720zM537 184q0 -211 -212 -211h-249v27h-27v720h167v-27h27v-269h31q108 0 166 -45q14 -15 38 -37q4 -3 11 -10q48 -53 48 -148zM715 12v696h-142v-696h142zM498 211q0 201 -224 201h-70v296h-143v-696h237q200 0 200 199zM357 207
q0 -154 -103 -154h-50v318h50q103 0 103 -164zM345 207q0 77 -23 115q-16 10 -41 10h-38v-267h11q91 0 91 142z" />
    <glyph glyph-name="afii10046" unicode="&#x42c;" horiz-adv-x="524" 
d="M537 184q0 -211 -212 -211h-249v27h-27v720h167v-27h27v-269h31q108 0 166 -45q14 -15 38 -37q4 -3 11 -10q48 -53 48 -148zM498 211q0 201 -224 201h-70v296h-143v-696h237q200 0 200 199zM357 207q0 -154 -103 -154h-50v318h50q103 0 103 -164zM345 207q0 77 -23 115
q-16 10 -41 10h-38v-267h11q91 0 91 142z" />
    <glyph glyph-name="afii10047" unicode="&#x42d;" horiz-adv-x="518" 
d="M521 321q0 -361 -256 -361q-102 0 -162 60q-4 5 -12 14q-5 4 -15 13q-27 25 -42 63q-19 43 -19 129l72 27q-2 -13 -5 -39l32 12q-6 -47 -6 -70q0 -94 43 -115q19 -9 48 -9q115 0 119 287h-92v27h-27v65h119q0 151 -41 212q-17 11 -40 11q-102 0 -102 -137q0 -15 2 -49
l-73 32v8q1 4 1 7l-28 12q0 93 46 150q51 62 142 62q93 0 156 -53l28 -28q14 -13 39 -42q73 -98 73 -288zM482 348q0 156 -50 250q-65 122 -207 122q-85 0 -130.5 -53t-45.5 -139l48 -21q-1 21 -1 30q0 149 114 149q120 0 120 -274h-119v-41h119q0 -338 -131 -338
q-63 0 -98 52q-32 46 -32 111q0 16 4 52l-46 -17v-36q0 -89 62 -144q59 -52 149 -52q244 0 244 349z" />
    <glyph glyph-name="afii10048" unicode="&#x42e;" horiz-adv-x="784" 
d="M789 333q0 -372 -241 -372q-82 0 -138 44l-29 29q-12 11 -34 38q-62 86 -67 260h-37v-359h-167v27h-27v720h167v-27h27v-269h38q19 307 240 307q81 0 135 -43q2 -1 29 -28q12 -11 33 -35q71 -92 71 -292zM750 360q0 359 -229 359q-122 0 -179 -98q-42 -73 -50 -209h-88
v296h-143v-696h143v359h87q0 -371 230 -371q229 0 229 360zM598 360q0 -326 -77 -326q-78 0 -78 326q0 325 78 325q77 0 77 -325zM586 360q0 222 -31 285q-3 1 -7 1q-66 0 -66 -313q0 -220 33 -286q11 -1 6 -1q65 0 65 314z" />
    <glyph glyph-name="afii10049" unicode="&#x42f;" horiz-adv-x="546" 
d="M523 -27h-167v27h-27v293h-1q-82 0 -82 -98v-98q0 -69 -17 -124h-183q10 13 14 27h-41q14 19 24 59q6 28 9 107q2 70 15 103q20 50 76 70q-100 71 -100 177q0 97 54.5 150.5t151.5 53.5h247v-27h27v-720zM484 12v696h-235q-93 0 -143.5 -49.5t-50.5 -142.5
q0 -127 146 -171q-86 -25 -114 -67q-21 -29 -22 -93q-2 -91 -9 -127q-4 -19 -13 -46h150q14 47 14 112v98q0 110 94 110h40v-320h143zM341 367h-46q-56 0 -84 49q-23 40 -23 100t23 101q28 49 84 49h46v-299zM329 379v248h-7q-51 0 -76 -46q-19 -36 -19 -92q0 -60 23 -98
q20 -12 45 -12h34z" />
    <glyph glyph-name="afii10065" unicode="&#x430;" horiz-adv-x="467" 
d="M499 -27h-168l-6 27h-21l-28 129h-153l-37 -156h-65l6 27h-33l171 720h146l6 -27h21zM457 12l-156 696h-127l-165 -696h41l37 156h193l34 -156h143zM269 216h-171l88 388zM254 228l-52 245l-56 -245h108z" />
    <glyph glyph-name="afii10066" unicode="&#x431;" horiz-adv-x="525" 
d="M537 184q0 -211 -212 -211h-248v27h-27v720h412v-27h27v-72h-245v-197h31q110 0 168 -46q14 -15 38 -37q13 -8 28 -35q28 -48 28 -122zM498 211q0 201 -223 201h-70v248h245v48h-388v-696h236q200 0 200 199zM358 207q0 -154 -103 -154h-50v318h50q103 0 103 -164z
M346 207q0 77 -23 115q-16 10 -41 10h-38v-267h11q91 0 91 142z" />
    <glyph glyph-name="afii10067" unicode="&#x432;" horiz-adv-x="542" 
d="M555 165q0 -192 -194 -192h-285v27h-27v720h257q94 0 144 -42q6 -7 20 -21q11 -9 34 -36q26 -41 26 -105q0 -111 -95 -152q31 -17 49 -37q2 -3 8.5 -9.5l21.5 -21.5q41 -48 41 -131zM516 192q0 84 -49 130q-41 37 -129 59q74 22 109 53q44 40 44 109q0 165 -185 165h-245
v-696h273q182 0 182 180zM351 538q0 -143 -83 -143h-64v277h59q88 0 88 -134zM370 194q0 -147 -106 -147h-60v312h58q108 0 108 -165zM339 538q0 59 -16 87q-18 8 -33 8h-47v-226h25q71 0 71 131zM358 194q0 76 -24 115q-20 11 -45 11h-46v-261h21q94 0 94 135z" />
    <glyph glyph-name="afii10068" unicode="&#x433;" horiz-adv-x="419" 
d="M453 621h-210v-648h-167v27h-27v720h377v-27h27v-72zM414 660v48h-353v-696h143v648h210z" />
    <glyph glyph-name="afii10069" unicode="&#x434;" horiz-adv-x="508" 
d="M528 -122l-57 -32v42l-27 -15v100h-360v-127l-57 32v12l-27 15v167h42q15 0 28.5 34t13.5 90v524h360v-27h27v-621h30v-27h27v-167zM489 -88v148h-57v648h-336v-512q0 -39 -11 -80q-15 -56 -43 -56h-30v-148l33 -19v119h411v-119zM289 60h-186q26 70 26 155v445h160v-600
zM277 72v549h-109v-433q0 -69 -13 -116h122z" />
    <glyph glyph-name="afii10070" unicode="&#x435;" horiz-adv-x="461" 
d="M485 -27h-409v27h-27v720h374v-27h27v-72h-207v-197h138v-27h27v-65h-165v-260h215v-27h27v-72zM446 12v48h-242v311h165v41h-165v248h207v48h-350v-696h385z" />
    <glyph glyph-name="afii10072" unicode="&#x436;" horiz-adv-x="837" 
d="M871 -27h-186l-12 27h-15l-119 275l-14 -20v-282h-160v27h-27v282l-132 -309h-186l12 27h-39l212 493l-143 227h77l17 -27h10l172 -277v304h160v-27h27v-250l172 277h77l-17 -27h44l-143 -227zM826 12l-209 482l135 214h-48l-218 -351v351h-136v-351l-218 351h-48
l135 -214l-208 -482h160l140 327l39 -53v-274h136v274l39 53l141 -327h160z" />
    <glyph glyph-name="afii10073" unicode="&#x437;" horiz-adv-x="482" 
d="M482 171q0 -211 -233 -211q-100 0 -153 43q-7 8 -22 23q-7 6 -21 20q-38 42 -38 116q0 28 7 77l77 27l-6 -39l33 12q-11 -58 -11 -97q0 -49 16 -77q21 -12 55 -12q100 0 100 141q0 67 -19 98q-25 16 -112 16v27h-27v85q88 0 117 22q35 27 35 111q0 48 -17 77
q-20 11 -46 11q-88 0 -88 -103q0 -43 6 -77l-78 32v8q1 5 1 8l-28 11q0 212 191 212q106 0 161 -44q7 -8 23 -24q7 -6 20 -19q41 -45 41 -126q0 -112 -103 -158q10 -5 55 -45q64 -57 64 -145zM443 198q0 78 -48 122q-38 36 -120 59q73 25 107 57q45 42 45 110
q0 174 -206 174q-179 0 -179 -192l50 -21q-2 28 -2 58q0 115 100 115q102 0 102 -127q0 -84 -34 -114.5t-118 -30.5v-61h26q73 0 105 -41q27 -36 27 -112q0 -153 -112 -153q-110 0 -110 128q0 55 7 79l-50 -18q-6 -48 -6 -68q0 -163 195 -163q221 0 221 199z" />
    <glyph glyph-name="afii10074" unicode="&#x438;" horiz-adv-x="569" 
d="M562 -27h-167v27h-27v415l-125 -442h-167v27h-27v720h167v-27h27v-415l125 442h167v-27h27v-720zM523 12v696h-146l-150 -530h-23v530h-143v-696h146l150 530h23v-530h143z" />
    <glyph glyph-name="afii10075" unicode="&#x439;" horiz-adv-x="569" 
d="M456 861q0 -72 -32.5 -103t-104.5 -31q-88 0 -118 47q-46 30 -46 114h45q0 -15 3 -27h24q0 -29 19 -37q10 -4 46 -4q47 0 66 10q26 15 26 58h45q0 -20 -1 -27h28zM562 -27h-167v27h-27v415l-125 -442h-167v27h-27v720h167v-27h27v-415l125 442h167v-27h27v-720zM417 876
h-21q0 -68 -104 -68t-104 68h-21q0 -62 32 -88q29 -22 93 -22t93 22q32 26 32 88zM523 12v696h-146l-150 -530h-23v530h-143v-696h146l150 530h23v-530h143z" />
    <glyph glyph-name="afii10076" unicode="&#x43a;" horiz-adv-x="555" 
d="M589 -27h-187l-11 27h-16l-117 275l-15 -20v-282h-167v27h-27v720h167v-27h27v-250l172 277h78l-17 -27h44l-143 -227zM544 12l-208 482l135 214h-49l-218 -351v351h-143v-696h143v274l40 53l139 -327h161z" />
    <glyph glyph-name="afii10077" unicode="&#x43b;" horiz-adv-x="557" 
d="M535 -27h-167v27h-27v621h-109v-433q0 -125 -20.5 -178t-73.5 -53q-55 0 -83 42q-55 34 -55 142q0 50 14 104l60 21q-3 -13 -7 -39l34 12q-14 -78 -14 -108q0 -53 12 -80q10 -2 18 -2q32 0 32 109v562h359v-27h27v-720zM496 12v696h-335v-550q0 -121 -44 -121
q-69 0 -69 121q0 42 11 90l-35 -12q-12 -51 -12 -95q0 -145 99 -145q46 0 64 47t18 172v445h160v-648h143z" />
    <glyph glyph-name="afii10078" unicode="&#x43c;" horiz-adv-x="634" 
d="M612 -27h-161v27h-27v357l-86 -384h-93l-6 27h-21l-88 378v-405h-56v27h-27v720h169l6 -27h21l88 -383l93 410h161v-27h27v-720zM573 12v696h-139l-113 -498l-115 498h-147v-696h32v486h24l113 -486h73l111 495h24v-495h137z" />
    <glyph glyph-name="afii10079" unicode="&#x43d;" horiz-adv-x="569" 
d="M547 -27h-167v27h-27v332h-110v-359h-167v27h-27v720h167v-27h27v-269h110v296h167v-27h27v-720zM508 12v696h-143v-296h-161v296h-143v-696h143v359h161v-359h143z" />
    <glyph glyph-name="afii10080" unicode="&#x43e;" horiz-adv-x="562" 
d="M564 334q0 -374 -257 -374q-89 0 -146 47q-4 2 -31 30q-12 12 -36 39q-69 96 -69 293q0 363 261 363q89 0 146 -46q3 -2 30 -30q13 -12 37 -40q65 -93 65 -282zM525 361q0 359 -239 359q-249 0 -249 -351q0 -370 243 -370q245 0 245 362zM374 361q0 -286 -52 -317
q-18 -11 -42 -11t-41 11q-51 31 -51 317t51 316q17 10 41 10t42 -10q52 -30 52 -316zM362 361q0 225 -27 283q-9 4 -28 4q-21 0 -36 -9q-44 -26 -44 -305q0 -229 26 -285q9 -4 27 -4q22 0 38 9q44 26 44 307z" />
    <glyph glyph-name="afii10081" unicode="&#x43f;" horiz-adv-x="569" 
d="M547 -27h-167v27h-27v621h-110v-648h-167v27h-27v720h471v-27h27v-720zM508 12v696h-447v-696h143v648h161v-648h143z" />
    <glyph glyph-name="afii10082" unicode="&#x440;" horiz-adv-x="517" 
d="M537 482q0 -214 -235 -214h-58v-295h-167v27h-27v720h248q97 0 151 -46l10 -10q7 -12 19 -19q22 -13 40 -55q19 -45 19 -108zM498 509q0 199 -200 199h-236v-696h143v295h70q223 0 223 202zM358 513q0 -164 -103 -164h-50v317h50q103 0 103 -153zM346 513q0 68 -21 103
q-20 11 -43 11h-38v-266h11q91 0 91 152z" />
    <glyph glyph-name="afii10083" unicode="&#x441;" horiz-adv-x="518" 
d="M530 168q0 -62 -32.5 -112t-89.5 -77q-42 -19 -101 -19q-94 0 -154 51l-25 25q-13 12 -36 38q-67 91 -67 274q0 147 60 254q73 130 209 130q82 0 131 -52q3 -4 9 -10t16 -15q58 -59 58 -162l-73 -32q2 26 2 40l-29 -13q2 16 2 49q0 51 -13.5 80.5t-61.5 29.5
q-108 0 -108 -339q0 -182 47 -250q19 -13 45 -13q59 0 91 48q27 41 27 103q0 1 -6 70l72 -27v-17l27 -10v-44zM491 231l-46 17q4 -36 4 -52q0 -65 -31 -111q-36 -52 -99 -52q-131 0 -131 302q0 351 120 351q114 0 114 -149v-30l47 21q0 86 -44 137q-47 55 -131 55
q-132 0 -201 -126q-56 -103 -56 -246q0 -349 243 -349q69 0 121 31q57 34 78 96q12 35 12 105z" />
    <glyph glyph-name="afii10084" unicode="&#x442;" horiz-adv-x="447" 
d="M481 621h-142v-648h-177v27h-27v621h-114v27h-27v72h460v-27h27v-72zM442 660v48h-436v-48h141v-648h153v648h142z" />
    <glyph glyph-name="afii10085" unicode="&#x443;" horiz-adv-x="456" 
d="M496 693l-188 -583q-23 -72 -46 -104q-37 -49 -96 -49q-50 0 -83 46q-29 41 -29 93q0 29 10 65l53 19q-11 -22 -15 -42l42 15q-19 -43 -19 -76q0 -23 5 -41q1 0 4 -1h4q64 0 64 76q0 31 -16 75l-196 534h176l10 -27h17l105 -294l104 321h67l-9 -27h36zM453 708h-42
l-120 -372l-133 372h-151l190 -518q17 -46 17 -79q0 -38 -19.5 -63t-56.5 -25q-52 0 -52 81q0 11 3.5 29.5t4.5 25.5l-20 -7q-8 -35 -8 -56q0 -100 73 -100q55 0 89 48q20 28 42 97z" />
    <glyph glyph-name="afii10086" unicode="&#x444;" horiz-adv-x="763" 
d="M782 361q0 -113 -61 -174.5t-174 -61.5h-58v-152h-161v27h-27v125q-95 0 -142 20q-41 17 -65 43q-4 5 -11 13q-5 4 -14 11q-62 60 -62 176q0 107 53.5 167.5t158.5 60.5h82v104h161v-27h27v-77h54q91 0 144 -45q8 -8 23 -24q4 -4 13 -11q59 -57 59 -175zM743 388
q0 216 -200 216h-93v104h-137v-104h-94q-200 0 -200 -216q0 -109 57.5 -166.5t166.5 -57.5h70v-152h137v152h70q109 0 166 57.5t57 166.5zM602 385q0 -71 -21 -117q-28 -63 -91 -63h-40v358h40q112 0 112 -178zM313 205h-40q-63 0 -92 63q-21 46 -21 117t21 116q29 62 92 62
h40v-358zM590 385q0 83 -27 126q-19 13 -46 13h-28v-307h1q100 0 100 168zM301 217v307h-1q-101 0 -101 -166q0 -85 29 -129q20 -12 45 -12h28z" />
    <glyph glyph-name="afii10087" unicode="&#x445;" horiz-adv-x="494" 
d="M527 -27h-186l-12 27h-15l-91 209l-115 -236h-75l13 27h-40l163 329l-174 391h185l12 -27h15l83 -191l104 218h73l-13 -27h40l-150 -309zM482 12l-178 399l144 297h-46l-121 -252l-109 252h-159l169 -379l-157 -317h48l132 270l117 -270h160z" />
    <glyph glyph-name="afii10088" unicode="&#x446;" horiz-adv-x="569" 
d="M596 -122l-57 -32v42l-27 -15v100h-436v27h-27v720h167v-27h27v-621h102v648h167v-27h27v-621h30v-27h27v-167zM557 -88v148h-57v648h-143v-648h-153v648h-143v-696h463v-119z" />
    <glyph glyph-name="afii10089" unicode="&#x447;" 
d="M505 -27h-167v27h-27v273q-40 -5 -54 -5q-118 0 -165 49q-4 5 -11 14q-5 4 -13 11q-48 47 -48 167v211h162v-27h27v-207q0 -82 17 -114q12 -5 32 -5h53v353h167v-27h27v-720zM466 12v696h-143v-353h-65q-56 0 -76 55q-12 34 -12 103v195h-138v-199q0 -114 42.5 -158
t155.5 -44q38 0 93 13v-308h143z" />
    <glyph glyph-name="afii10090" unicode="&#x448;" horiz-adv-x="746" 
d="M724 -27h-648v27h-27v720h167v-27h27v-621h102v503h56v-27h27v-476h102v648h167v-27h27v-720zM685 12v696h-143v-648h-153v503h-32v-503h-153v648h-143v-696h624z" />
    <glyph glyph-name="afii10091" unicode="&#x449;" horiz-adv-x="754" 
d="M781 -122l-57 -32v42l-27 -15v100h-621v27h-27v720h167v-27h27v-621h102v503h56v-27h27v-476h102v648h167v-27h27v-621h30v-27h27v-167zM742 -88v148h-57v648h-143v-648h-153v503h-32v-503h-153v648h-143v-696h648v-119z" />
    <glyph glyph-name="afii10092" unicode="&#x44a;" horiz-adv-x="590" 
d="M603 184q0 -211 -212 -211h-250v27h-27v621h-93v27h-27v72h288v-27h27v-269h31q108 0 166 -45q14 -15 38 -37q4 -3 11 -10q48 -53 48 -148zM564 211q0 201 -224 201h-70v296h-264v-48h120v-648h238q200 0 200 199zM423 207q0 -154 -103 -154h-50v318h50q103 0 103 -164z
M411 207q0 77 -23 115q-16 10 -41 10h-38v-267h11q91 0 91 142z" />
    <glyph glyph-name="afii10093" unicode="&#x44b;" horiz-adv-x="777" 
d="M754 -27h-166v27h-27v720h166v-27h27v-720zM537 184q0 -211 -212 -211h-249v27h-27v720h167v-27h27v-269h31q108 0 166 -45q14 -15 38 -37q4 -3 11 -10q48 -53 48 -148zM715 12v696h-142v-696h142zM498 211q0 201 -224 201h-70v296h-143v-696h237q200 0 200 199zM357 207
q0 -154 -103 -154h-50v318h50q103 0 103 -164zM345 207q0 77 -23 115q-16 10 -41 10h-38v-267h11q91 0 91 142z" />
    <glyph glyph-name="afii10094" unicode="&#x44c;" horiz-adv-x="524" 
d="M537 184q0 -211 -212 -211h-249v27h-27v720h167v-27h27v-269h31q108 0 166 -45q14 -15 38 -37q4 -3 11 -10q48 -53 48 -148zM498 211q0 201 -224 201h-70v296h-143v-696h237q200 0 200 199zM357 207q0 -154 -103 -154h-50v318h50q103 0 103 -164zM345 207q0 77 -23 115
q-16 10 -41 10h-38v-267h11q91 0 91 142z" />
    <glyph glyph-name="afii10095" unicode="&#x44d;" horiz-adv-x="518" 
d="M521 321q0 -361 -256 -361q-102 0 -162 60q-4 5 -12 14q-5 4 -15 13q-27 25 -42 63q-19 43 -19 129l72 27q-2 -13 -5 -39l32 12q-6 -47 -6 -70q0 -94 43 -115q19 -9 48 -9q115 0 119 287h-92v27h-27v65h119q0 151 -41 212q-17 11 -40 11q-102 0 -102 -137q0 -15 2 -49
l-73 32v8q1 4 1 7l-28 12q0 93 46 150q51 62 142 62q93 0 156 -53l28 -28q14 -13 39 -42q73 -98 73 -288zM482 348q0 156 -50 250q-65 122 -207 122q-85 0 -130.5 -53t-45.5 -139l48 -21q-1 21 -1 30q0 149 114 149q120 0 120 -274h-119v-41h119q0 -338 -131 -338
q-63 0 -98 52q-32 46 -32 111q0 16 4 52l-46 -17v-36q0 -89 62 -144q59 -52 149 -52q244 0 244 349z" />
    <glyph glyph-name="afii10096" unicode="&#x44e;" horiz-adv-x="784" 
d="M789 333q0 -372 -241 -372q-82 0 -138 44l-29 29q-12 11 -34 38q-62 86 -67 260h-37v-359h-167v27h-27v720h167v-27h27v-269h38q19 307 240 307q81 0 135 -43q2 -1 29 -28q12 -11 33 -35q71 -92 71 -292zM750 360q0 359 -229 359q-122 0 -179 -98q-42 -73 -50 -209h-88
v296h-143v-696h143v359h87q0 -371 230 -371q229 0 229 360zM598 360q0 -326 -77 -326q-78 0 -78 326q0 325 78 325q77 0 77 -325zM586 360q0 222 -31 285q-3 1 -7 1q-66 0 -66 -313q0 -220 33 -286q11 -1 6 -1q65 0 65 314z" />
    <glyph glyph-name="afii10097" unicode="&#x44f;" horiz-adv-x="546" 
d="M523 -27h-167v27h-27v293h-1q-82 0 -82 -98v-98q0 -69 -17 -124h-183q10 13 14 27h-41q14 19 24 59q6 28 9 107q2 70 15 103q20 50 76 70q-100 71 -100 177q0 97 54.5 150.5t151.5 53.5h247v-27h27v-720zM484 12v696h-235q-93 0 -143.5 -49.5t-50.5 -142.5
q0 -127 146 -171q-86 -25 -114 -67q-21 -29 -22 -93q-2 -91 -9 -127q-4 -19 -13 -46h150q14 47 14 112v98q0 110 94 110h40v-320h143zM341 367h-46q-56 0 -84 49q-23 40 -23 100t23 101q28 49 84 49h46v-299zM329 379v248h-7q-51 0 -76 -46q-19 -36 -19 -92q0 -60 23 -98
q20 -12 45 -12h34z" />
    <glyph glyph-name="afii10071" unicode="&#x451;" horiz-adv-x="461" 
d="M429 793q0 -58 -68 -58q-53 0 -65 34q-31 13 -31 51q0 58 69 58q52 0 64 -34q31 -12 31 -51zM239 793q0 -58 -69 -58q-53 0 -65 34q-31 13 -31 51q0 58 69 58q54 0 66 -34q30 -14 30 -51zM485 -27h-409v27h-27v720h374v-27h27v-72h-207v-192h147v-27h27v-71h-174v-259
h215v-27h27v-72zM390 820q0 28 -16 38q-11 8 -40 8q-57 0 -57 -46t57 -46q56 0 56 46zM200 820q0 46 -57 46t-57 -46t57 -46t57 46zM446 12v48h-242v310h174v47h-174v243h207v48h-350v-696h385z" />
    <glyph glyph-name="afii10050" unicode="&#x490;" horiz-adv-x="441" 
d="M472 693l-80 -265h20v-27h27v-59h-74l-17 -59h41v-27h27v-59h-82v-224h-160v27h-27v197h-58v27h-27v59h78l-19 59h-53v27h-27v59h52l-98 292h169l9 -27h18l95 -291l95 318h64l-8 -27h35zM429 708h-39l-113 -375l-122 375h-143l98 -292h-57v-35h69l34 -110h-82v-35h85
v-224h136v224h82v35h-80l32 110h71v35h-59z" />
    <glyph glyph-name="endash" unicode="&#x2013;" horiz-adv-x="487" 
d="M469 273h-397v27h-27v120h397v-27h27v-120zM430 312v96h-373v-96h373z" />
    <glyph glyph-name="emdash" unicode="&#x2014;" horiz-adv-x="660" 
d="M668 273h-622v27h-27v120h622v-27h27v-120zM629 312v96h-598v-96h598z" />
    <glyph glyph-name="quoteleft" unicode="&#x2018;" horiz-adv-x="230" 
d="M216 467q0 -93 -75 -93q-39 0 -58 34q-42 21 -42 103q0 170 128 220v-39q7 5 27 12v-66q-27 -20 -42 -61q13 -6 24 -26q38 -17 38 -84zM177 494q0 41 -15.5 59.5t-55.5 18.5q16 73 51 99v43q-104 -42 -104 -203q0 -98 61 -98q63 0 63 81z" />
    <glyph glyph-name="quoteright" unicode="&#x2019;" horiz-adv-x="230" 
d="M216 593q0 -171 -128 -219v39q-2 -1 -27 -12v66q30 21 44 61q-19 11 -26 27q-37 18 -37 82q0 93 75 93q39 0 58 -34q41 -20 41 -103zM177 620q0 98 -60 98q-63 0 -63 -81q0 -41 15.5 -59t55.5 -18q-17 -72 -52 -99v-43q104 40 104 202z" />
    <glyph glyph-name="quotesinglbase" unicode="&#x201a;" horiz-adv-x="246" 
d="M225 45q0 -170 -128 -220v40q-9 -5 -27 -13v68q29 22 43 60q-16 7 -25 26q-38 17 -38 84q0 93 75 93q40 0 58 -34q42 -21 42 -104zM186 72q0 99 -61 99q-63 0 -63 -81q0 -42 15 -60t56 -18q-16 -72 -51 -98v-44q104 40 104 202z" />
    <glyph glyph-name="quotedblleft" unicode="&#x201c;" horiz-adv-x="414" 
d="M400 467q0 -93 -75 -93q-39 0 -58 34q-42 21 -42 103q0 171 129 220v-39q2 1 27 12v-66q-29 -22 -43 -62q62 -32 62 -109zM216 467q0 -93 -75 -93q-39 0 -58 34q-42 21 -42 103q0 170 128 220v-39q7 5 27 12v-66q-27 -20 -42 -61q13 -6 24 -26q38 -17 38 -84zM361 494
q0 41 -15 59.5t-55 18.5q15 69 51 99v43q-105 -42 -105 -203q0 -98 61 -98q63 0 63 81zM177 494q0 41 -15.5 59.5t-55.5 18.5q16 73 51 99v43q-104 -42 -104 -203q0 -98 61 -98q63 0 63 81z" />
    <glyph glyph-name="quotedblright" unicode="&#x201d;" horiz-adv-x="414" 
d="M401 593q0 -171 -129 -219v39q-2 -1 -27 -12v66q30 21 44 61q-19 11 -26 27q-37 18 -37 82q0 93 75 93q39 0 58 -34q42 -20 42 -103zM216 593q0 -171 -128 -219v39q-2 -1 -27 -12v66q31 22 43 62q-15 8 -25 26q-37 18 -37 82q0 93 75 93q39 0 58 -34q41 -20 41 -103z
M362 620q0 98 -61 98q-63 0 -63 -81q0 -41 15.5 -59t55.5 -18q-17 -72 -52 -99v-43q105 41 105 202zM177 620q0 98 -60 98q-63 0 -63 -81q0 -41 15 -59t55 -18q-16 -73 -51 -99v-43q104 40 104 202z" />
    <glyph glyph-name="quotedblbase" unicode="&#x201e;" horiz-adv-x="414" 
d="M401 45q0 -171 -129 -220v39q-2 -1 -27 -12v68q30 20 44 60q-19 11 -26 27q-37 18 -37 83q0 93 75 93q40 0 58 -34q42 -21 42 -104zM216 45q0 -170 -128 -220v39q-2 -1 -27 -12v68q33 25 43 61q-15 8 -25 26q-37 18 -37 83q0 93 75 93q40 0 58 -34q41 -21 41 -104z
M362 72q0 99 -61 99q-63 0 -63 -81q0 -42 15 -60t56 -18q-16 -73 -52 -98v-45q105 41 105 203zM177 72q0 99 -60 99q-63 0 -63 -81q0 -41 15 -59.5t55 -18.5q-15 -72 -51 -98v-45q104 40 104 203z" />
    <glyph glyph-name="dagger" unicode="&#x2020;" horiz-adv-x="528" 
d="M504 389h-136v-497h-155v27h-27v470h-109v27h-27v82h136v222h155v-27h27v-195h109v-27h27v-82zM465 428v58h-136v222h-131v-222h-136v-58h136v-497h131v497h136z" />
    <glyph glyph-name="daggerdbl" unicode="&#x2021;" horiz-adv-x="559" 
d="M520 99h-137v-222h-154v27h-27v195h-108v27h-27v81h135v182h-108v27h-27v82h135v222h154v-27h27v-195h110v-27h27v-82h-137v-182h110v-27h27v-81zM481 138v57h-137v233h137v58h-137v222h-130v-222h-135v-58h135v-233h-135v-57h135v-222h130v222h137z" />
    <glyph glyph-name="bullet" unicode="&#x2022;" horiz-adv-x="426" 
d="M360 333q0 -50 -34.5 -85.5t-84.5 -35.5q-30 0 -55 14q-12 6 -43 36q-12 9 -36 42q-14 26 -14 56q0 50 35.5 86t85.5 36q29 0 54 -14q10 -6 41 -36q12 -9 37 -42q14 -27 14 -57zM321 360q0 46 -30.5 78t-76.5 32t-77.5 -32t-31.5 -78t31.5 -77.5t77.5 -31.5t76.5 31.5
t30.5 77.5z" />
    <glyph glyph-name="ellipsis" unicode="&#x2026;" horiz-adv-x="740" 
d="M717 55q0 -93 -74 -93q-47 0 -63 35q-38 21 -38 85q0 93 74 93q47 0 63 -35q38 -21 38 -85zM471 55q0 -93 -74 -93q-48 0 -63 34q-39 21 -39 86q0 93 75 93q47 0 63 -35q38 -21 38 -85zM225 55q0 -93 -75 -93q-47 0 -63 35q-38 21 -38 85q0 93 74 93q48 0 64 -35
q38 -21 38 -85zM678 82q0 81 -62 81t-62 -81t62 -81t62 81zM432 82q0 81 -62 81q-63 0 -63 -81t63 -81q62 0 62 81zM186 82q0 81 -63 81q-62 0 -62 -81t62 -81q63 0 63 81z" />
    <glyph glyph-name="perthousand" unicode="&#x2030;" horiz-adv-x="1001" 
d="M994 152q0 -185 -134 -185q-69 0 -102 48q-59 42 -59 164q0 186 134 186q69 0 101 -47q60 -40 60 -166zM695 152q0 -185 -134 -185q-69 0 -102 48q-60 42 -60 164q0 186 135 186q69 0 101 -47q60 -40 60 -166zM544 693l-271 -720h-60l10 27h-37l270 720h61l-10 -27h37z
M329 513q0 -186 -134 -186q-54 0 -86 30q-5 4 -8 9q-10 9 -29 28q-38 47 -38 146q0 186 134 186q69 0 102 -48q59 -42 59 -165zM955 179q0 174 -122 174t-122 -174q0 -173 122 -173t122 173zM656 179q0 174 -122 174q-123 0 -123 -174q0 -173 123 -173q122 0 122 173z
M500 708h-36l-261 -696h35zM290 540q0 174 -122 174t-122 -174t122 -174t122 174zM878 179q0 -166 -45 -166t-45 166q0 168 45 168t45 -168zM579 179q0 -166 -45 -166q-46 0 -46 166q0 168 46 168q45 0 45 -168zM213 540q0 -167 -45 -167t-45 167q0 166 45 166t45 -166z
M866 179q0 87 -11 128q-28 -10 -28 -155q0 -92 10 -126q29 9 29 153zM567 179q0 87 -11 128q-29 -11 -29 -155q0 -91 11 -126q29 9 29 153zM201 540q0 92 -10 126q-29 -9 -29 -153q0 -86 11 -127q28 10 28 154z" />
    <glyph glyph-name="guilsinglleft" unicode="&#x2039;" horiz-adv-x="237" 
d="M225 122h-87l-11 27h-16l-78 189v44l78 187h87l-9 -27h36l-72 -209zM181 161l-68 199l68 197h-62l-74 -177v-40l74 -179h62z" />
    <glyph glyph-name="guilsinglright" unicode="&#x203a;" horiz-adv-x="237" 
d="M231 311l-78 -189h-87l9 27h-36l72 211l-72 209h87l11 -27h16l78 -187v-44zM192 340v40l-74 177h-62l68 -197l-68 -199h62z" />
    <glyph glyph-name="afii61352" unicode="&#x2116;" horiz-adv-x="827" 
d="M824 318q0 -169 -139 -169q-74 0 -108 49q-57 39 -57 147q0 168 138 168q62 0 97 -33q4 -4 7 -10q10 -8 28 -27q34 -42 34 -125zM807 17h-243v27h-27v70h243v-27h27v-70zM498 -27h-129l-14 27h-13l-212 404v-431h-57v27h-27v720h106l14 -27h13l236 -441v468h56v-27h27
v-720zM785 345q0 156 -127 156q-126 0 -126 -156q0 -157 126 -157q127 0 127 157zM768 56v46h-219v-46h219zM459 12v696h-32v-528l-282 528h-87v-696h33v493l258 -493h110zM698 345q0 -149 -40 -149q-39 0 -39 149t39 149q40 0 40 -149zM686 345q0 69 -8 107
q-20 -17 -20 -134q0 -73 8 -107q20 17 20 134z" />
    <glyph glyph-name="trademark" unicode="&#x2122;" horiz-adv-x="643" 
d="M609 388h-106v200h-2l-55 -200h-57l-58 200h-2v-200h-39v332h103l53 -191l52 191h111v-332zM274 685h-84v-297h-108v297h-82v35h274v-35z" />
    <glyph glyph-name="periodcentered" unicode="&#xb7;" horiz-adv-x="246" 
d="M225 333q0 -92 -75 -92q-47 0 -63 35q-38 21 -38 84q0 93 74 93q48 0 64 -35q38 -21 38 -85zM186 360q0 81 -63 81q-62 0 -62 -81q0 -80 62 -80q63 0 63 80z" />
    <glyph glyph-name="periodcentered" unicode="&#x2219;" horiz-adv-x="246" 
d="M225 333q0 -92 -75 -92q-47 0 -63 35q-38 21 -38 84q0 93 74 93q48 0 64 -35q38 -21 38 -85zM186 360q0 81 -63 81q-62 0 -62 -81q0 -80 62 -80q63 0 63 80z" />
    <glyph glyph-name="u0000" horiz-adv-x="1000" 
 />
    <glyph glyph-name="u0001" horiz-adv-x="1000" 
 />
    <glyph glyph-name="u0002" horiz-adv-x="1000" 
 />
    <glyph glyph-name="u0003" horiz-adv-x="1000" 
 />
    </font>
</defs>
</svg>
