<?xml version="1.0" standalone="no"?>
<!DOCTYPE svg PUBLIC "-//W3C//DTD SVG 1.1//EN" "http://www.w3.org/Graphics/SVG/1.1/DTD/svg11.dtd" >
<svg xmlns="http://www.w3.org/2000/svg" xmlns:xlink="http://www.w3.org/1999/xlink" version="1.1">
<metadata>
Created by FontForge 20170924 at Sun Mar 14 14:47:32 1999
 By www-data
Copyright 1995 DoubleAlex Team. All rights reserved.
</metadata>
<defs>
<font id="Manuscript" horiz-adv-x="500" >
  <font-face 
    font-family="Manuscript"
    font-weight="400"
    font-stretch="normal"
    units-per-em="1000"
    panose-1="2 0 5 7 9 0 0 2 0 2"
    ascent="800"
    descent="-200"
    x-height="302"
    cap-height="722"
    bbox="-417 -285 1634 930"
    underline-thickness="50"
    underline-position="-100"
    unicode-range="U+0020-2265"
  />
<missing-glyph horiz-adv-x="1000" 
 />
    <glyph glyph-name=".notdef" horiz-adv-x="1000" 
 />
    <glyph glyph-name="space" unicode=" " horiz-adv-x="222" 
 />
    <glyph glyph-name="exclam" unicode="!" horiz-adv-x="407" 
d="M608 553q-109 -115 -221 -226t-232 -214l-7 7q94 106 185 213.5t178 219.5h97v0zM120 43q0 -18 -15.5 -33.5t-32.5 -15.5t-26.5 9t-9.5 26q0 18 15.5 33.5t32.5 15.5t26.5 -9t9.5 -26z" />
    <glyph glyph-name="quotedbl" unicode="&#x22;" horiz-adv-x="352" 
d="M486 697q0 -7 -1 -14t-3 -16l-12 -74q-3 -23 -15 -23q-13 0 -16 22l-12 75q-2 9 -3 16t-1 13q0 8 7 17.5t24 9.5t24.5 -9t7.5 -17zM370 697q0 -7 -1 -14t-3 -16l-12 -74q-3 -23 -15 -23q-13 0 -16 22l-12 75q-2 9 -3 16t-1 13q0 8 7 17.5t24 9.5t24.5 -9t7.5 -17z" />
    <glyph glyph-name="numbersign" unicode="#" horiz-adv-x="559" 
d="M529 385h95l-22 -29h-93l-96 -145h95l-20 -29h-94l-124 -188h-39l125 187h-140l-125 -187h-38l125 188h-95l20 29h94l96 145h-95l20 29h95l120 182h38l-120 -182h140l120 182h39zM331 356l-96 -145h141l95 145h-140z" />
    <glyph glyph-name="dollar" unicode="$" horiz-adv-x="814" 
d="M940 551q0 -34 -15 -51.5t-42 -17.5q-22 0 -38 13.5t-16 35.5q0 20 14 35.5t37 15.5q14 0 26 -6t20 -21l2 1q-3 40 -23 75t-50.5 60.5t-69 40t-78.5 14.5q-37 0 -72.5 -12.5t-63.5 -35t-45 -55.5t-17 -73q0 -44 23.5 -82.5t52.5 -70.5q18 -21 37 -43.5t34 -48.5
t24.5 -55.5t9.5 -63.5q0 -46 -21 -85.5t-57.5 -69t-87 -46.5t-108.5 -17q-50 0 -101 16t-92 46t-67 74t-26 100q0 38 17.5 58.5t47.5 20.5q23 0 37.5 -15t14.5 -40q0 -20 -13.5 -37t-36.5 -17q-36 0 -51 37h-2q-3 -50 20.5 -92.5t62.5 -73.5t88.5 -48t97.5 -17
q49 0 88.5 15.5t66.5 40t41.5 55t14.5 61.5q0 29 -8 54.5t-21 48t-29.5 43t-32.5 39.5q-17 20 -34 41t-31 44t-22.5 48t-8.5 54q0 56 25 96.5t63.5 66.5t86 38.5t92.5 12.5q43 0 85 -15.5t75.5 -43.5t54.5 -65.5t21 -82.5zM197 -74l761 883l10 -10l-761 -883zM100 -45
l761 883l10 -10l-761 -883z" />
    <glyph glyph-name="percent" unicode="%" horiz-adv-x="945" 
d="M592 564q0 -30 -16 -49.5t-40 -29.5q-11 -26 -30.5 -57.5t-45 -63.5t-56.5 -62t-64 -53.5t-67 -38t-67 -14.5q-26 0 -42 16.5t-16 45.5q0 32 17 69t44.5 73.5t62.5 70.5t71.5 59.5t71.5 41t62 15.5q18 0 33 -4.5t25 -9.5l-6 -7q-12 9 -41 9q-15 0 -47.5 -20.5
t-83.5 -71.5q-88 -88 -136.5 -150t-48.5 -91q0 -20 10 -27t22 -7q39 0 86 28.5t92 70.5t83 90t59 88q-23 0 -35.5 9t-12.5 26q0 13 9 22t22 9q18 0 26 -11t8 -27v-6.5t-1 -7.5q20 8 30 26.5t10 43.5h12v-5zM854 599q-25 -26 -74 -75l-109.5 -109.5t-126.5 -127t-126 -126.5
t-108 -109t-72 -74h-32l74 74l109 109t126.5 126t126.5 126.5t108 109.5t72 76h32v0zM979 357q0 -30 -16 -49.5t-40 -29.5q-11 -26 -30.5 -57.5t-45 -63.5t-56.5 -62t-64 -53.5t-67 -38t-67 -14.5q-26 0 -42 16.5t-16 45.5q0 32 17 69t44.5 73.5t62.5 70.5t71.5 59.5
t71.5 41t62 15.5q18 0 33 -4.5t25 -9.5l-6 -7q-12 9 -41 9q-15 0 -47.5 -20.5t-83.5 -71.5q-88 -88 -136.5 -150t-48.5 -91q0 -20 10 -27t22 -7q39 0 86 28.5t92 70.5t83 90t59 88q-47 0 -49 35q0 13 9.5 22t22.5 9q18 0 26 -11t8 -27v-6.5t-1 -7.5q20 8 30 26.5t10 43.5h12
v-5z" />
    <glyph glyph-name="ampersand" unicode="&#x26;" horiz-adv-x="852" 
d="M567 159q0 34 -6.5 71t-15.5 74t-18.5 72t-15.5 66q-44 -21 -89.5 -49.5t-82 -64.5t-60 -79.5t-23.5 -95.5q0 -23 6 -46.5t20 -42.5t35.5 -31t53.5 -12q30 0 57 10t50.5 26t43.5 35.5t36 38.5q4 9 6.5 13.5t2.5 14.5zM675 629q0 25 -12.5 39t-34.5 14q-18 0 -38 -12
t-36.5 -33t-27 -50.5t-10.5 -64.5q0 -30 6 -55q24 10 51 25.5t49.5 35.5t37.5 45.5t15 55.5zM847 378q0 -20 -13.5 -35t-36.5 -15q-16 0 -28 9t-12 26q0 5 1 9t0 8t-1.5 6.5t-5.5 2.5q-3 0 -15 -15.5t-28 -40t-34.5 -53t-35 -55t-29 -46.5t-16.5 -26q1 -9 1.5 -18t0.5 -20
q0 -5 -0.5 -9.5t-0.5 -9.5q-5 -76 -37.5 -137t-82.5 -104t-112 -66.5t-126 -23.5q-43 0 -75.5 10.5t-54.5 28.5t-33 42t-11 51q0 50 33.5 80.5t86.5 30.5q32 0 56.5 -7t44.5 -21l-6 -8q-17 10 -41.5 17t-51.5 7q-46 0 -78 -26.5t-32 -74.5t42 -80t111 -32q58 0 115 29.5
t104 77.5t79 108t40 120h-2q-40 -48 -88.5 -78t-115.5 -30q-44 0 -79 13.5t-59 36.5t-36.5 53.5t-12.5 64.5q0 56 31.5 100.5t80.5 79.5t108.5 61t115.5 44q-2 13 -3 29t-1 34q0 37 12 67.5t30 53t39 35t40 12.5q32 0 47 -19.5t15 -45.5q0 -33 -15.5 -60.5t-39.5 -50
t-53 -39.5t-55 -28q17 -69 37.5 -136.5t29.5 -141.5h1q13 19 27.5 41t28.5 44t26.5 41.5t21.5 34.5q28 47 48 69.5t52 22.5q23 0 37 -12.5t14 -35.5z" />
    <glyph glyph-name="quotesingle" unicode="'" horiz-adv-x="259" 
d="M417 697q0 -7 -1 -14t-3 -16l-12 -74q-3 -23 -15 -23q-13 0 -16 22l-12 75q-2 9 -3 16t-2 13q0 8 7 17.5t24 9.5t24.5 -9t8.5 -17z" />
    <glyph glyph-name="parenleft" unicode="(" horiz-adv-x="426" 
d="M719 723q-5 -3 -18.5 -12t-18.5 -14q-58 -42 -118.5 -95.5t-118.5 -114.5t-112 -126t-100 -130t-82.5 -127.5t-58.5 -117.5q-5 -6 -11 -20.5t-12.5 -31.5t-11.5 -32t-8 -22l-7 5q1 3 2.5 9.5t3 13.5t3.5 13.5t4 8.5q42 147 110.5 269t153 219.5t179 171.5t189.5 125
q2 3 12.5 7.5t13.5 6.5l6 -6v0z" />
    <glyph glyph-name="parenright" unicode=")" horiz-adv-x="426" 
d="M532 724q-1 -3 -2.5 -9.5t-3.5 -13.5t-4 -13.5t-4 -8.5q-45 -146 -114 -268t-152.5 -220t-177 -172t-188.5 -125q-2 -3 -12.5 -7.5t-13.5 -6.5l-6 6q5 3 18.5 12t18.5 14q58 42 118.5 95.5t118.5 114.5t112 126t100 130t82.5 127.5t58.5 117.5q4 6 10.5 20.5t13 31.5
t11.5 32t8 22l8 -5v0z" />
    <glyph glyph-name="asterisk" unicode="*" horiz-adv-x="370" 
d="M425 569l69 -117l-16 -11l-65 121l-80 -121l-16 11l83 117h-138v16h138l-65 120l16 11l63 -123l75 123l16 -11l-78 -120h137v-16h-139z" />
    <glyph glyph-name="plus" unicode="+" horiz-adv-x="666" 
d="M401 235v-235h-36v235h-235v36h235v235h36v-235h235v-36h-235z" />
    <glyph glyph-name="comma" unicode="," horiz-adv-x="259" 
d="M89 39q0 -17 -11 -33t-27 -31t-34 -27t-31 -19l-6 9q20 12 41.5 27.5t35.5 30.5l-2 3q-6 -5 -19 -5q-12 0 -22 8t-10 22q0 21 15.5 38t32.5 17q14 0 25.5 -9.5t11.5 -30.5z" />
    <glyph glyph-name="hyphen" unicode="-" 
d="M363 172q-18 2 -43 4.5t-52 2.5q-30 1 -56 -1.5t-49 -4.5l9 35q18 -3 42 -4.5t53 -2.5q29 0 55.5 2t49.5 4z" />
    <glyph glyph-name="hyphen" unicode="&#xad;" 
d="M363 172q-18 2 -43 4.5t-52 2.5q-30 1 -56 -1.5t-49 -4.5l9 35q18 -3 42 -4.5t53 -2.5q29 0 55.5 2t49.5 4z" />
    <glyph glyph-name="period" unicode="." horiz-adv-x="259" 
d="M89 43q0 -18 -15.5 -33.5t-32.5 -15.5t-27 9t-10 26q0 18 15.5 33.5t32.5 15.5t27 -9t10 -26z" />
    <glyph glyph-name="slash" unicode="/" horiz-adv-x="426" 
d="M739 722q-85 -81 -167 -162.5t-163 -163.5q-97 -97 -194.5 -196.5t-197.5 -214.5h-45q47 48 106 108t124 125.5t132.5 133.5t131.5 134t122.5 126.5t105.5 109.5h45v0z" />
    <glyph glyph-name="zero" unicode="0" horiz-adv-x="556" 
d="M709 549q-2 -42 -20.5 -69.5t-53.5 -44.5q-14 -37 -43 -85t-67.5 -97.5t-85.5 -97t-97 -85t-102 -60t-100 -22.5q-24 0 -41 9t-28.5 24t-16.5 33t-5 36q0 45 26.5 98.5t69.5 107t98 103.5t111 88.5t109 62t93 23.5q20 0 37 -3.5t31 -13.5l-5 -9q-13 8 -25 11t-25 3
q-16 0 -38 -10.5t-51.5 -34t-68.5 -60t-90 -88.5q-64 -66 -108.5 -119t-73 -93.5t-41.5 -69t-13 -44.5q0 -20 17 -31.5t39 -11.5q42 0 89 23t94.5 60t93.5 84.5t84.5 95.5t68.5 92t46 76l-1 1q-3 -1 -7 -1h-7q-23 0 -37.5 11t-14.5 36q0 19 13 32t32 13q14 0 22.5 -4.5
t13.5 -11.5t7 -14.5t2 -13.5v-12t-2 -13l3 -1q27 16 40 41t16 55l12 1v0z" />
    <glyph glyph-name="one" unicode="1" horiz-adv-x="445" 
d="M128 0h-108l443 476l-2 2q-77 -51 -159.5 -97.5t-157.5 -79.5l-10 11q51 22 110 51.5t115.5 63t104.5 69.5t78 71h89z" />
    <glyph glyph-name="two" unicode="2" horiz-adv-x="519" 
d="M606 457q0 -50 -45.5 -106.5t-127.5 -101.5q-74 -40 -137.5 -61t-119 -38t-103 -36.5t-89.5 -56.5h4q21 13 47 20.5t55 7.5q20 0 41 -5.5t43 -13.5q23 -8 47 -14.5t49 -6.5q35 0 58.5 14t40.5 43l7 -4q-12 -23 -26.5 -43t-33 -35t-41.5 -23.5t-52 -8.5q-30 0 -58 7.5
t-54.5 17t-52 17t-51.5 7.5q-24 0 -44 -10t-43 -30l-9 7q27 25 49 45.5t43.5 37.5t44.5 31.5t53 29t69 30.5t93 35q77 27 131.5 68t89.5 84t51.5 80.5t16.5 57.5q0 25 -19.5 41.5t-50.5 16.5q-27 0 -60 -18t-61.5 -44t-47.5 -55t-19 -52q0 -19 11 -32t32 -13q22 0 42 12.5
t36 31t27.5 41t18.5 42.5l9 -4q-6 -21 -18 -45t-29 -44t-38.5 -33t-46.5 -13q-29 0 -45.5 18t-16.5 45q0 35 20 66.5t50 55.5t65.5 38.5t67.5 14.5q22 0 45 -7.5t41 -22t29.5 -36t11.5 -50.5z" />
    <glyph glyph-name="three" unicode="3" horiz-adv-x="519" 
d="M604 472q0 -43 -22 -77t-57 -58t-78.5 -36.5t-87.5 -12.5v-2q27 -9 40.5 -33.5t13.5 -50.5q0 -43 -22.5 -81.5t-61 -68t-89.5 -47t-106 -17.5q-75 0 -111.5 30.5t-36.5 79.5q0 16 5 33.5t14 32t22 24t30 9.5q21 0 35.5 -13.5t14.5 -33.5q1 -23 -13 -36.5t-35 -14.5
q-35 0 -46 46q-8 -12 -11 -25t-3 -24q0 -23 10 -41t26 -30t36.5 -18.5t41.5 -6.5q12 0 25 2.5t28 11t33 24.5t41 42q39 45 62 74t35.5 47.5t16.5 30t4 22.5q0 20 -17 29t-41 9q-8 0 -15.5 -0.5t-13.5 -1.5v11q42 0 72.5 2.5t54 9.5t42 18.5t36.5 28.5q15 14 29 32t25.5 37.5
t18.5 39t7 36.5q0 26 -16 41t-48 15q-26 0 -57 -18t-57.5 -43.5t-44.5 -52t-18 -44.5q0 -20 13.5 -32t29.5 -12q20 0 38.5 10.5t33.5 26t26 33t17 31.5l9 -6q-7 -19 -20 -38t-29.5 -34.5t-35 -25t-36.5 -9.5q-27 0 -42 16.5t-15 41.5q0 33 17 63.5t44 53.5t60 37t65 14
q24 0 45 -8t36 -22t24 -32t9 -39z" />
    <glyph glyph-name="four" unicode="4" horiz-adv-x="519" 
d="M384 191h83l-13 -18h-86l-159 -173h-100l163 173h-264l11 24l627 370h83zM604 528l-566 -335v-2h251l317 336z" />
    <glyph glyph-name="five" unicode="5" horiz-adv-x="519" 
d="M730 567q-9 -11 -22.5 -24.5t-29.5 -25.5t-34.5 -20.5t-38.5 -8.5q-16 0 -32.5 4.5t-33.5 9.5t-34 9.5t-35 4.5q-23 0 -46.5 -12.5t-50.5 -41.5l-112 -117l2 -1q19 11 42 18t49 7q54 0 86 -33t32 -87q0 -42 -28.5 -88.5t-76 -84.5t-109 -63t-128.5 -25q-60 0 -92 30.5
t-32 81.5q0 20 5.5 37.5t15 31t23 21.5t29.5 8q18 0 32 -13t15 -36q0 -20 -12.5 -33.5t-32.5 -13.5q-12 0 -19 7t-11.5 16t-8.5 16t-8 7q-7 0 -11.5 -18t-4.5 -37q0 -22 9 -39t24 -29t34 -18.5t40 -6.5q35 0 68 22t73 62q146 146 146 212q0 30 -19.5 45.5t-48.5 15.5
q-30 0 -63 -16t-55 -36l-10 10l241 255l12 -3l-29 -31h2q17 15 42.5 26t52.5 11q15 0 32 -4.5t34 -9.5t33.5 -9.5t30.5 -4.5q17 0 31 9t25 18l7 -5v0z" />
    <glyph glyph-name="six" unicode="6" horiz-adv-x="519" 
d="M399 283q0 29 -18.5 39.5t-38.5 10.5t-49.5 -16t-68.5 -57q-66 -68 -99 -122t-33 -89q0 -26 15.5 -37.5t39.5 -11.5t50 17.5t55 46.5q75 76 111 132t36 87zM667 479q0 -19 -6.5 -36t-18 -30t-26.5 -20.5t-33 -7.5q-21 0 -35.5 13t-14.5 35q0 21 13.5 34.5t35.5 13.5
q24 0 34 -14.5t10 -35.5q0 -4 -1 -8q13 8 21.5 22t8.5 33q0 38 -23.5 59t-54.5 21q-20 0 -37.5 -5.5t-37 -18.5t-42 -34t-51.5 -51l-111 -115l2 -1q22 12 49 12q37 0 65 -28t28 -75q0 -40 -21 -85t-58 -82.5t-87.5 -62t-108.5 -24.5q-61 0 -86.5 28.5t-25.5 73.5
q0 41 24.5 93t65.5 105.5t94 105t109.5 91t113 64t104.5 24.5q42 0 71.5 -24t29.5 -70z" />
    <glyph glyph-name="seven" unicode="7" horiz-adv-x="445" 
d="M650 566q-121 -129 -239.5 -268.5t-241.5 -297.5h-119q72 76 138 142.5t129.5 128t126.5 120.5t130 121h-2q-22 -15 -48 -23.5t-52 -8.5q-16 0 -37 5t-43 11.5t-43 11.5t-38 5q-20 0 -49 -22t-55 -52l-9 7q16 20 37.5 42.5t44.5 41t47.5 31t46.5 12.5q23 0 45 -6
t44 -13.5t44.5 -14t46.5 -6.5q29 0 49.5 11t36.5 27l10 -5v0z" />
    <glyph glyph-name="eight" unicode="8" horiz-adv-x="519" 
d="M655 553q0 -22 -8.5 -48.5t-34.5 -44.5q-15 -68 -67.5 -102t-129.5 -42q5 -23 9 -48t4 -49q0 -55 -22 -98t-56.5 -72.5t-78 -45t-86.5 -15.5q-56 0 -93 30t-37 90q0 48 26.5 86t67 64.5t88 41.5t89.5 17q-4 19 -8 40t-4 41q0 39 14 71t37 55t51.5 36t57.5 13
q17 0 31.5 -3t26.5 -8v-11q-28 10 -53 10q-40 0 -61.5 -27.5t-22.5 -68.5q0 -30 4.5 -68.5t12.5 -69.5q28 3 57.5 10.5t55 22.5t44 37.5t26.5 55.5q-12 -4 -25 -4q-24 0 -40 11.5t-16 34.5q0 20 13.5 33.5t32.5 13.5q26 0 39 -19.5t13 -45.5q19 13 26.5 32t7.5 44h9v0z
M344 172q0 33 -4 66t-12 68q-45 -3 -89.5 -22t-79.5 -49t-57 -68t-22 -78q0 -43 30.5 -66t77.5 -23q28 0 55.5 11t50 32.5t36.5 54t14 74.5z" />
    <glyph glyph-name="nine" unicode="9" horiz-adv-x="519" 
d="M599 470q0 -41 -24.5 -92.5t-65.5 -105t-93.5 -105t-109.5 -91t-113 -64t-104 -24.5q-42 0 -72 24t-30 70q0 19 6.5 36t18 30t27 20.5t33.5 7.5q21 0 35.5 -13t14.5 -35q0 -21 -13.5 -34.5t-34.5 -13.5q-19 0 -31.5 9.5t-12.5 26.5q0 5 -0.5 10t0.5 12q-13 -8 -21.5 -22
t-8.5 -33q0 -38 23.5 -59t54.5 -21q20 0 37.5 5.5t37 18.5t42 34t51.5 51l111 115l-2 1q-23 -12 -49 -12q-37 0 -65 28t-28 75q0 40 21 85t58 82.5t87.5 62t108.5 24.5q61 0 86 -28.5t25 -74.5zM564 513q0 26 -15.5 37.5t-39.5 11.5t-50 -17.5t-55 -46.5q-75 -76 -111 -132
t-36 -87q0 -29 18.5 -39.5t38.5 -10.5t49.5 16t68.5 57q66 68 98.5 122t33.5 89z" />
    <glyph glyph-name="colon" unicode=":" horiz-adv-x="259" 
d="M282 262q0 -18 -15.5 -33.5t-32.5 -15.5t-27 9t-10 26q0 18 15.5 33.5t32.5 15.5t27 -9t10 -26zM89 43q0 -18 -15.5 -33.5t-32.5 -15.5t-27 9t-10 26q0 18 15.5 33.5t32.5 15.5t27 -9t10 -26z" />
    <glyph glyph-name="semicolon" unicode=";" horiz-adv-x="278" 
d="M282 262q0 -18 -15.5 -33.5t-32.5 -15.5t-27 9t-10 26q0 18 15.5 33.5t32.5 15.5t27 -9t10 -26zM89 39q0 -17 -11 -33t-27 -31t-34 -27t-31 -19l-6 9q20 12 41.5 27.5t35.5 30.5l-2 3q-6 -5 -19 -5q-12 0 -22 8t-10 22q0 21 15.5 38t32.5 17q14 0 25.5 -9.5t11.5 -30.5z
" />
    <glyph glyph-name="semicolon" unicode="&#x37e;" horiz-adv-x="278" 
d="M282 262q0 -18 -15.5 -33.5t-32.5 -15.5t-27 9t-10 26q0 18 15.5 33.5t32.5 15.5t27 -9t10 -26zM89 39q0 -17 -11 -33t-27 -31t-34 -27t-31 -19l-6 9q20 12 41.5 27.5t35.5 30.5l-2 3q-6 -5 -19 -5q-12 0 -22 8t-10 22q0 21 15.5 38t32.5 17q14 0 25.5 -9.5t11.5 -30.5z
" />
    <glyph glyph-name="less" unicode="&#x3c;" horiz-adv-x="666" 
d="M120 233v39l506 238v-38l-466 -219l466 -219v-38z" />
    <glyph glyph-name="equal" unicode="=" horiz-adv-x="666" 
d="M130 331v36l506 1v-36zM383 138h-253v36l506 1v-37h-253z" />
    <glyph glyph-name="greater" unicode="&#x3e;" horiz-adv-x="666" 
d="M200 -4v38l466 219l-466 219v38l506 -237v-39z" />
    <glyph glyph-name="question" unicode="?" horiz-adv-x="537" 
d="M614 448q0 -39 -19.5 -76t-54 -68.5t-82.5 -54.5t-104 -34q-61 -11 -103 -39t-66 -56l-11 7q24 35 66 61t94 51q55 26 97 58.5t70.5 66.5t43.5 67.5t15 61.5q0 33 -20 50.5t-57 17.5q-26 0 -57.5 -18t-59 -44t-46.5 -55.5t-19 -51.5q0 -23 13.5 -37t32.5 -14
q22 0 42.5 11t37 29.5t27 41.5t11.5 46l12 -3q-1 -27 -13 -52t-30.5 -43.5t-41.5 -29.5t-47 -11q-27 0 -44 18.5t-17 47.5q0 39 18.5 71.5t47.5 56t64 36.5t67 13q64 0 98.5 -36t34.5 -89zM158 43q0 -18 -15.5 -33.5t-32.5 -15.5t-26.5 9t-9.5 26q0 18 15.5 33.5t32.5 15.5
t26.5 -9t9.5 -26z" />
    <glyph glyph-name="at" unicode="@" horiz-adv-x="900" 
d="M924 407q0 -41 -13 -85.5t-37.5 -82t-60.5 -62t-82 -24.5q-28 0 -46.5 9.5t-30 22.5t-16.5 25.5t-6 17.5h-2q-8 -12 -21 -25t-29.5 -24t-36 -18.5t-40.5 -7.5q-19 0 -37 7.5t-32.5 22t-23.5 36t-9 49.5q0 52 19.5 101t50.5 87t69.5 61t74.5 23q27 0 48.5 -15.5
t32.5 -45.5h2l12 51h66l-71 -273q-4 -15 -6 -32q0 -16 11.5 -29t32.5 -13q34 0 62 21.5t48 54.5t30.5 72t10.5 74q0 49 -20.5 100t-61.5 92.5t-101 68t-138 26.5q-68 0 -126 -24t-100.5 -70t-67 -113t-24.5 -152q0 -60 22.5 -117.5t65 -102t103 -72t137.5 -27.5
q60 0 111.5 14.5t99.5 40.5l15 -25q-42 -22 -102 -40.5t-126 -18.5q-102 0 -176.5 34.5t-123 87t-72 114t-23.5 115.5q0 86 30.5 157t83.5 122t123.5 79t148.5 28q75 0 139 -24t111.5 -66t74.5 -100t27 -125zM679 429q0 35 -14 52t-36 17q-21 0 -48 -15t-51 -43.5t-40.5 -70
t-16.5 -93.5q0 -40 18.5 -60t42.5 -20q21 0 46.5 17t47.5 48t36.5 74t14.5 94z" />
    <glyph glyph-name="A" unicode="A" horiz-adv-x="1116" 
d="M1047 722q37 0 51 -17t14 -48q0 -30 -19.5 -66t-50.5 -76.5t-70 -84.5t-78 -89h95l-6 -12h-101q-28 -31 -58 -65t-54.5 -67.5t-40.5 -64t-16 -53.5q0 -24 7.5 -40t20 -25.5t29.5 -13t36 -3.5q30 0 64 13.5t67.5 36t64 51t54 58t37.5 58t14 50.5q0 27 -16.5 38t-34.5 11
q-26 0 -52.5 -15t-50.5 -37.5t-43.5 -48.5t-30.5 -48l-9 -1q9 26 28 54.5t44 52.5t54 39.5t58 15.5q35 0 50 -18.5t15 -42.5q0 -39 -15 -74.5t-40 -66.5t-57 -56.5t-66.5 -43.5t-68.5 -28t-62 -10q-33 0 -60 10.5t-46 29t-29 43.5t-10 55q0 22 7.5 43.5t22.5 45.5t37.5 52.5
t53.5 64.5h-172q-64 -75 -124 -138t-118 -108.5t-115 -71.5t-115 -26q-63 0 -101 27t-38 74q0 22 14.5 38.5t37.5 16.5q20 0 35 -13t15 -36q0 -17 -13.5 -33t-33.5 -16q-13 0 -13 -9q0 -5 7.5 -11.5t21 -12t31.5 -9.5t39 -4q54 0 107 24.5t108.5 68.5t114 105t122.5 134
h-145l6 12h150q70 80 133.5 149.5t119 121t102.5 81t85 29.5zM1075 685q0 14 -9.5 19.5t-21.5 5.5q-57 0 -159.5 -95.5t-259.5 -273.5h170q22 28 51 60.5t60 66t61.5 66.5t54.5 62t38.5 52t14.5 37z" />
    <glyph glyph-name="B" unicode="B" horiz-adv-x="981" 
d="M1106 543q0 -39 -18 -70t-46.5 -53.5t-63 -37.5t-67.5 -21q20 -17 33 -43t13 -62q0 -57 -26 -106.5t-67.5 -86t-94 -57.5t-104.5 -21q-45 0 -73.5 21t-28.5 63q0 34 16 65.5t41.5 57.5t57 45.5t62.5 28.5l2 -10q-29 -9 -58.5 -27t-53.5 -42.5t-39.5 -54t-15.5 -62.5
q0 -26 19.5 -46.5t50.5 -20.5q40 0 84 32.5t81.5 79.5t62 99t24.5 91q0 17 -2 30.5t-7 21.5q-15 -5 -30.5 -7t-38.5 -2q-30 0 -49 10.5t-19 24.5t11 22t34 8q32 0 56.5 -11.5t44.5 -28.5q28 8 53 27t43.5 44.5t30 54.5t11.5 56q0 33 -17 64.5t-46 51.5q-52 -32 -99 -78.5
t-92 -101t-89 -113t-89.5 -114.5t-93 -107t-100 -89t-110.5 -60.5t-124 -22.5q-35 0 -65 5t-53 16.5t-36 29.5t-13 45q0 22 12.5 38.5t38.5 16.5q21 0 36 -13t15 -36q0 -20 -9.5 -29t-21 -13t-21 -5.5t-9.5 -7.5q0 -4 5.5 -10t19 -11.5t36 -9.5t55.5 -4q53 0 99 23.5
t88.5 62.5t84 91t84 109t88 115.5t98 112t112.5 97t132 71.5v1q-38 15 -82 21t-85 6q-88 0 -169 -24.5t-143.5 -65t-99.5 -93t-37 -107.5q0 -37 20.5 -57t57.5 -20q23 0 48 12t49.5 32t46.5 45.5t39 53.5t27 56t11 52q2 3 1.5 14.5t-0.5 14.5h12q0 -3 1 -13t-1 -12
q-1 -48 -19.5 -96t-50 -86t-73.5 -61.5t-90 -23.5q-46 0 -68.5 24.5t-22.5 62.5q0 54 35 108.5t98 98.5t150 72t192 28q63 0 108.5 -7.5t83.5 -22.5q23 9 51 16t51 8v-12q-21 -2 -44.5 -7t-42.5 -14q44 -20 72.5 -53.5t28.5 -86.5zM882 368q-17 17 -40.5 25t-43.5 8t-27 -5
t-7 -12q0 -8 13.5 -16t40.5 -8q13 0 31.5 1.5t32.5 6.5z" />
    <glyph glyph-name="C" unicode="C" horiz-adv-x="633" 
d="M980 656q0 -29 -25.5 -61.5t-69 -64t-101.5 -60t-123.5 -50.5t-135.5 -35.5t-136 -13.5q-24 -26 -57 -64.5t-62 -80.5t-49.5 -84t-20.5 -75q0 -28 23 -49.5t68 -21.5q38 0 77 12.5t76 33t70 46.5t57.5 53t38.5 52.5t14 45.5q0 26 -17.5 39t-42.5 13q-29 0 -59 -12.5
t-58.5 -33.5t-55 -48.5t-48.5 -56.5l-6 7q16 26 42.5 54t57.5 50.5t63.5 37t62.5 14.5q31 0 52 -17.5t21 -56.5t-26 -82t-71 -79t-105.5 -59.5t-130.5 -23.5q-40 0 -67.5 11.5t-45 31t-25 44.5t-7.5 52q0 33 12 68t30.5 68.5t41.5 64.5t45 56q-30 6 -58.5 16.5t-50.5 28.5
t-35.5 44t-13.5 62q0 42 20.5 76t55 58t79 37t93.5 13q62 0 102.5 -13.5t73.5 -31.5l-5 -10q-38 18 -76 30.5t-93 12.5q-45 0 -83 -12.5t-65.5 -36t-43.5 -56.5t-16 -75q0 -55 35.5 -89t90.5 -43q51 59 115.5 118t138.5 106.5t155.5 77t166.5 29.5q22 0 41.5 -3.5t34 -11.5
t23 -20.5t8.5 -31.5zM968 656q0 17 -8 27.5t-20.5 16.5t-27 8t-27.5 2q-46 0 -92 -15.5t-91 -41.5t-87 -59.5t-81 -70t-73.5 -73t-63.5 -67.5q70 2 139.5 16.5t133 36.5t118 49.5t94.5 57t63 59t23 54.5z" />
    <glyph glyph-name="D" unicode="D" horiz-adv-x="815" 
d="M1045 665q-47 -5 -90 -24.5t-81 -49.5q14 -27 21.5 -58t7.5 -74q0 -52 -18 -107t-51 -108t-78.5 -100t-100 -82.5t-116 -56.5t-126.5 -21q-45 0 -87.5 7t-68.5 15q-29 -9 -72.5 -15t-85.5 -6q-48 0 -68 10t-20 30t21.5 33.5t68.5 13.5q40 0 84 -8.5t108 -26.5
q45 21 81 57.5t71.5 83t72.5 100.5t84 110t106.5 112t139.5 106q-20 26 -48 45.5t-61.5 33t-71 20t-75.5 6.5q-64 0 -121 -17.5t-104.5 -46.5t-85.5 -66t-64 -76t-40 -77t-14 -68q0 -41 22 -65t70 -24q36 0 71 11.5t66 29.5t57.5 42t45.5 48t29.5 47.5t10.5 41.5
q0 23 -14.5 38.5t-36.5 15.5q-28 0 -54 -14t-49 -36t-42.5 -47t-34.5 -47l-12 4q15 24 36 50.5t46 49t52.5 37t55.5 14.5q30 0 47.5 -17.5t17.5 -49.5q0 -29 -23.5 -68.5t-63.5 -75.5t-93 -61t-113 -25q-62 0 -97.5 32.5t-35.5 89.5q0 36 16.5 75t46.5 77t72 72t94 60
t112.5 41.5t126.5 15.5q36 0 74 -6t74 -18.5t67.5 -33.5t54.5 -51q41 27 88 44.5t95 19.5l3 -12v0zM891 461q0 34 -7 63.5t-19 58.5q-44 -39 -81 -86t-74 -97.5t-75.5 -102t-85 -100t-103.5 -91t-130 -74.5v-1q30 -11 66 -18t65 -7q51 0 103.5 20t101.5 53.5t92.5 79t76 96
t51.5 103.5t19 103zM234 15q-62 18 -102.5 27t-64.5 10q-21 0 -33 -8.5t-12 -18.5q-1 -12 14.5 -20t53.5 -8q34 0 72.5 4t69.5 12z" />
    <glyph glyph-name="E" unicode="E" horiz-adv-x="642" 
d="M872 664q0 -26 -21.5 -50.5t-57 -47.5t-81.5 -42.5t-96 -34.5t-100 -24.5t-93 -11.5q-6 -11 -4 -20q0 -2 8 -8q6 1 15 1.5t19 0.5q11 0 25.5 -2.5t28 -7.5t23 -13.5t9.5 -21.5q0 -15 -13 -22.5t-28 -7.5q-26 0 -53.5 12.5t-41.5 38.5q-26 -14 -56 -36t-60 -49.5
t-58.5 -58t-50.5 -60.5t-35 -57.5t-13 -49.5q0 -17 8 -34t24.5 -30.5t42.5 -22t62 -8.5q68 0 131 25.5t112 62t78 76.5t29 68q0 35 -22.5 49t-52.5 14q-36 0 -68 -12.5t-59 -31.5t-49 -42.5t-38 -44.5l-11 5q15 21 37 45t50.5 44.5t63 34.5t72.5 14q40 0 67.5 -19t27.5 -63
q0 -39 -27 -80.5t-75 -76.5t-113.5 -57.5t-142.5 -22.5q-90 0 -140.5 42.5t-50.5 117.5q0 55 29.5 102t75 83t99.5 59.5t103 31.5q-8 15 -9 31q-38 0 -75.5 7.5t-67 23t-48 41.5t-18.5 64q0 30 16 53.5t41.5 39.5t57 24.5t61.5 8.5q38 0 70 -6.5t71 -20.5l-5 -10
q-29 11 -60.5 18t-67.5 7q-28 0 -54.5 -8t-47 -23t-33 -35.5t-12.5 -45.5q0 -38 15 -61.5t39 -38t54.5 -20.5t62.5 -7q3 41 22.5 76t50.5 64t70.5 51.5t82 37.5t85 23t79.5 8q43 0 67 -13.5t24 -45.5zM859 663q0 30 -19.5 38.5t-45.5 8.5q-27 0 -60 -12t-68 -32t-70 -45.5
t-67 -53t-58 -54t-42 -48.5q34 2 79.5 10.5t93.5 22t94 32t82 40t58.5 45.5t22.5 48zM535 383q0 8 -8 14t-18.5 10t-22 6t-18.5 2q-11 0 -22 -1.5t-21 -5.5q11 -19 35 -31.5t46 -12.5q11 0 20 4t9 15z" />
    <glyph glyph-name="F" unicode="F" horiz-adv-x="687" 
d="M1147 720q-37 -51 -81 -75.5t-113 -24.5q-44 0 -92 6.5t-99 14.5t-104 14.5t-107 6.5q-74 0 -136.5 -25.5t-108 -64.5t-71.5 -86.5t-26 -90.5q0 -17 5 -33.5t15 -29.5t26 -21t38 -8q33 0 65 19.5t57 50.5t40.5 68t15.5 73q0 25 -5 45.5t-7 27.5l7 2q9 -17 16 -40.5
t7 -46.5q0 -41 -14 -79t-39 -67.5t-60 -47t-76 -17.5q-20 0 -39 5.5t-33 17.5t-22.5 30.5t-8.5 44.5q0 63 39 123t101 106.5t139 75t153 28.5q54 0 107 -6.5t103 -14.5t92 -14.5t71 -6.5q37 0 73.5 8.5t63.5 35.5l8 -4v0zM939 585q-51 -3 -95 -28.5t-84.5 -65t-79 -89
t-79.5 -99.5l71 3q14 18 31 34.5t35 29t35.5 20.5t31.5 8q16 0 25.5 -6.5t9.5 -23.5q0 -16 -16.5 -28.5t-39.5 -22t-49 -15.5t-44 -7q-5 -7 -11.5 -18t-12.5 -23.5t-11.5 -24t-7.5 -19.5l-45 -21q14 29 29 55.5t33 49.5l-73 -3q-47 -67 -96.5 -123t-105 -96.5t-119 -63.5
t-138.5 -23q-79 0 -114 28.5t-35 67.5q0 23 14 39.5t38 16.5q22 0 35 -14t13 -34q0 -21 -9 -29.5t-20.5 -12t-20.5 -5t-9 -7.5t5 -12.5t17.5 -12.5t33 -9.5t50.5 -3.5q43 0 82 15.5t80.5 49.5t88 89t105.5 135q-55 -5 -101 -31.5t-77 -64.5l-7 7q35 45 85.5 70.5t108.5 30.5
q48 59 94.5 111.5t98 93t111.5 66t136 28.5l3 -12v0zM828 370q0 11 -8 13.5t-16 2.5q-13 0 -29 -8t-31.5 -20t-28.5 -25.5t-20 -25.5q21 3 44.5 9t43 13.5t32.5 18t13 22.5z" />
    <glyph glyph-name="G" unicode="G" horiz-adv-x="722" 
d="M1022 640q0 -32 -26 -64.5t-69.5 -62t-98.5 -55t-113 -44.5t-114 -30t-101 -11q-13 0 -26.5 1t-28.5 3q-20 -25 -32.5 -51t-12.5 -49q0 -36 22 -50.5t50 -14.5q52 0 90 17t63 45q15 17 31 30t36.5 21.5t47.5 13t64 4.5l1 -6q-32 -11 -59.5 -41.5t-58 -69.5t-66 -81.5
t-84 -78t-112.5 -58.5t-150 -23q-40 0 -72 10.5t-54 28t-33.5 40t-11.5 45.5q0 29 18.5 49.5t42.5 20.5t38.5 -14t14.5 -37q0 -21 -13 -36.5t-37 -15.5q-17 0 -24 4.5t-11 5.5q-7 0 -7 -7q0 -9 10 -22.5t28.5 -27t45 -23t60.5 -9.5q48 0 92 23.5t84 58t75 74.5t67 73l-2 1
q-25 -11 -51.5 -19t-56.5 -8q-62 0 -94.5 35.5t-32.5 90.5q0 16 4 31t10 26q-39 7 -74.5 20.5t-63 34.5t-43.5 52t-16 73q0 40 23 70t57.5 50t75.5 29.5t77 9.5q45 0 89 -8t86 -22l-4 -12q-42 13 -83 21.5t-87 8.5q-37 0 -72.5 -10t-63.5 -30.5t-45 -52.5t-17 -76
q0 -31 15 -56t39 -43t53 -29.5t57 -15.5q17 41 50.5 81.5t77 76.5t94.5 66.5t104.5 53t106 35t98.5 12.5q23 0 45 -4t39.5 -13.5t28 -25.5t10.5 -39zM1011 642q0 19 -9.5 32.5t-24.5 21.5t-33 12t-36 4q-56 0 -113.5 -28t-115.5 -73.5t-115.5 -103.5t-111.5 -117
q14 -2 27 -3t27 -1q44 0 99 11t111 30t109 44.5t94.5 54t66.5 58.5t25 58z" />
    <glyph glyph-name="H" unicode="H" horiz-adv-x="1135" 
d="M1292 674q0 -30 -18.5 -65.5t-50 -70.5t-72 -68.5t-85 -61t-89.5 -47t-85 -26.5q-76 -97 -119.5 -163t-43.5 -110q0 -17 7.5 -29t19 -20t25.5 -12t28 -4q35 0 72 13t71 33.5t64.5 47.5t53.5 55t36 55t13 48q0 29 -15 41.5t-32 12.5q-27 0 -54 -12.5t-51.5 -31t-45 -39.5
t-34.5 -39l-10 2q17 22 39 45.5t47.5 43t53.5 31.5t58 12q32 0 47 -22t15 -52q0 -38 -27.5 -83t-72.5 -83.5t-102 -64t-116 -25.5q-62 0 -93 33t-31 90q0 25 8.5 52t22.5 54.5t32 55.5t36 54q-5 0 -14.5 -1.5t-20.5 -3.5t-20.5 -3.5t-12.5 -1.5q-20 -28 -38.5 -59t-33.5 -62
h-36q37 60 80 118q-5 0 -15 -1.5t-21.5 -3t-22 -3t-14.5 -2.5q-39 -60 -88 -116.5t-107.5 -101t-125.5 -71.5t-141 -27q-24 0 -51 5t-49.5 17t-37.5 30.5t-15 45.5q0 22 13.5 40t38.5 18q23 0 37.5 -13t14.5 -36q0 -22 -10 -31t-21.5 -12t-21.5 -5t-10 -9q0 -5 8.5 -11.5
t23.5 -12.5t34.5 -10t41.5 -4q57 0 106 27t93.5 69.5t85 95t79.5 103.5q-73 -11 -136.5 -43t-113.5 -77l-6 6q21 24 52 45t66.5 37.5t73 28t72.5 15.5q31 43 71.5 90t85.5 92.5t92.5 87t92.5 73.5l-1 3q-42 -22 -82.5 -38t-87.5 -16q-32 0 -57 13.5t-50.5 29t-53.5 29
t-65 13.5q-31 0 -67.5 -15.5t-67.5 -41.5t-52 -62t-21 -76q0 -47 31.5 -70.5t74.5 -23.5q34 0 71 14.5t70 37.5t57.5 53t35.5 62l8 -3q-11 -37 -32.5 -70t-51 -58t-66.5 -39.5t-79 -14.5q-27 0 -51 7t-41.5 21t-28 36t-10.5 52q0 43 27 84.5t69.5 74.5t94.5 53t101 20
q35 0 64.5 -13.5t57 -30t54.5 -30t56 -13.5q37 0 82 21t81 51l5 -11q-95 -74 -170.5 -173t-145.5 -211q4 1 15 2.5t22.5 3.5t22 3.5t15.5 2.5q27 38 58 76t56 64l6 -4q-25 -29 -49.5 -64.5t-44.5 -70.5q4 1 13.5 2.5t20 3t20 3t12.5 2.5q26 36 64 78t80.5 84.5t87.5 82
t86 69.5t76 48.5t57 18.5q17 0 29.5 -10t12.5 -33zM1278 681q0 11 -7 16t-15 5q-18 0 -46 -19t-60.5 -49.5t-67.5 -69t-68 -78t-62.5 -75.5t-49.5 -62h1q38 8 80.5 29t84 50t80 63t67.5 68.5t46 66t17 55.5z" />
    <glyph glyph-name="I" unicode="I" horiz-adv-x="594" 
d="M939 710q-43 -28 -81.5 -69t-74.5 -88.5t-70.5 -99.5t-67.5 -102.5t-66 -97.5t-67 -85q-35 -38 -74 -71.5t-83.5 -58.5t-95.5 -39t-108 -14q-20 0 -44.5 4t-46.5 14.5t-37 29t-15 46.5q0 26 15.5 43t39.5 17q23 0 38 -15t15 -38q0 -21 -9.5 -30t-21 -12.5t-21 -5
t-9.5 -7.5q0 -4 5.5 -9.5t17 -11t29.5 -9.5t44 -4q45 0 88 19.5t82.5 52t76 74t70 85t64 85t58.5 74.5q36 42 63 75.5t56.5 65t66.5 65t93 76.5l-2 3q-35 -18 -77.5 -35t-87.5 -17q-28 0 -55.5 7t-56.5 16q-30 10 -61 17.5t-65 7.5q-39 0 -84 -23.5t-83 -62t-63.5 -87
t-25.5 -98.5q0 -51 23 -79.5t71 -28.5q30 0 65.5 21t67 56.5t52.5 82.5t23 99l11 1q1 -5 1 -10.5v-10.5q0 -56 -18.5 -102.5t-49 -79.5t-69.5 -51t-81 -18q-53 0 -80.5 31.5t-27.5 89.5q0 57 32.5 114.5t83 104t110 76t113.5 29.5q33 0 66 -6.5t65 -14.5q34 -8 66.5 -16
t63.5 -8q38 0 72.5 11t64.5 31l6 -9v0z" />
    <glyph glyph-name="J" unicode="J" horiz-adv-x="815" 
d="M1060 690q-86 -58 -154.5 -137t-131 -164.5t-124 -171.5t-132.5 -157q58 9 113 32t98.5 57t70 78t26.5 94q0 9 -1 18t-3 21h7q9 -21 9 -52q0 -70 -32 -117t-81 -76.5t-106.5 -45t-108.5 -22.5q-36 -44 -90.5 -98.5t-115.5 -103.5t-122.5 -82t-111.5 -33q-38 0 -54.5 20.5
t-16.5 47.5q0 38 30.5 74t86 68t133 59.5t172.5 48.5q60 86 119 162.5t123.5 148t137.5 139.5t161 136v3q-29 -16 -63 -27.5t-66 -11.5q-34 0 -63 11t-58.5 24t-62 24t-73.5 11q-42 0 -90.5 -26.5t-90 -67t-69 -89t-27.5 -93.5q0 -40 22.5 -66.5t66.5 -26.5q40 0 83 23
t78 58t58 77t25 80v10q0 4 0.5 8t0.5 6l10 1q2 -10 2 -20t-1 -21q-3 -41 -23 -82.5t-53 -75.5t-76.5 -55t-94.5 -21q-50 0 -80 25t-30 74q0 39 16 78.5t43.5 77t63 70.5t75 57.5t80 38.5t76.5 14q43 0 79 -12t68 -26t62.5 -26t62.5 -12q24 0 43.5 5t36 12.5t31.5 17t32 19.5
l4 -10v0zM410 32q-41 -9 -87 -21.5t-90.5 -29t-84.5 -36.5t-70.5 -43t-48.5 -48t-18 -52t15.5 -43.5t44.5 -16.5q37 0 76.5 23.5t81.5 63.5t87.5 92l94.5 108z" />
    <glyph glyph-name="K" unicode="K" horiz-adv-x="1099" 
d="M1318 655q0 -20 -12 -34t-34 -14q-50 0 -50 44q0 18 9 27.5t20 12.5q12 2 12 7q0 8 -13 10t-24 2q-35 0 -65 -23t-59.5 -59.5t-61 -81t-67.5 -86.5t-79 -77t-96 -52q11 -13 17 -29.5t6 -32.5q0 -23 -18 -51.5t-39.5 -58t-39.5 -57.5t-18 -51q0 -27 25.5 -40.5t57.5 -13.5
q35 0 71.5 13.5t70.5 35t63.5 49t51.5 56t34.5 54.5t12.5 46q0 23 -13.5 37t-36.5 14t-47 -10.5t-47 -27t-43 -37t-34 -40.5l-8 3q13 22 33 44t44 40t50 29t52 11q32 0 47 -21t15 -50q0 -42 -23.5 -87.5t-66 -83.5t-101 -62.5t-128.5 -24.5q-23 0 -47.5 6t-45 19t-34 33.5
t-13.5 49.5t17.5 57t40 56t44 56.5t28.5 58.5q-14 -4 -29 -7t-32 -3q-10 0 -21 1.5t-20 6t-15 12.5t-7 21q-19 -25 -45 -61.5t-58.5 -77.5t-73 -81.5t-89 -73t-105.5 -53t-123 -20.5q-31 0 -59 6t-49 18.5t-33.5 32t-12.5 45.5q0 24 15 40.5t39 16.5q23 0 34.5 -13.5
t11.5 -33.5q0 -21 -9 -31.5t-19.5 -15t-19.5 -7t-9 -6.5q0 -11 27.5 -25.5t77.5 -14.5q39 0 71 10.5t62 30.5t59 50.5t61 69.5q55 69 105.5 134.5t102.5 126.5t109 117t125 106l-2 2q-34 -17 -70.5 -29.5t-73.5 -12.5q-35 0 -66 12.5t-61.5 27t-61.5 27t-65 12.5
q-29 0 -62 -17t-62 -45t-48 -64t-19 -75q0 -24 8.5 -41.5t22 -29t31.5 -17.5t37 -6q40 0 76.5 19t66 46t50 56.5t28.5 50.5l10 -2q-11 -32 -32.5 -65.5t-50.5 -60.5t-63.5 -44.5t-71.5 -17.5q-26 0 -49 8.5t-39.5 23.5t-26 35.5t-9.5 44.5q0 52 28.5 96.5t69.5 76.5t87 50.5
t81 18.5q40 0 77.5 -12.5t71 -28t64 -28t57.5 -12.5q16 0 38.5 8t45.5 19.5t44 24.5t36 24l6 -9q-50 -31 -90.5 -69.5t-74 -82t-63 -90t-57.5 -91.5l1 -2q12 9 33 9q20 1 45 -9.5t42 -33.5q39 19 72.5 54.5t64.5 78t63 87t68.5 81t79.5 59.5t98 23q41 0 63.5 -18t22.5 -49z
M774 334q-8 12 -30 23.5t-47 11.5q-19 0 -26 -6t-7 -14q0 -11 13.5 -18t36.5 -8q25 0 58 11h2z" />
    <glyph glyph-name="L" unicode="L" horiz-adv-x="920" 
d="M1102 674q0 -30 -22.5 -63.5t-59 -66.5t-84.5 -64.5t-99 -57t-101.5 -44.5t-92.5 -27q-28 -41 -63.5 -85.5t-75.5 -86t-82.5 -78t-84.5 -61.5q52 -17 106.5 -30t96.5 -13q56 0 117 23t112 57.5t84 74.5t33 74q0 27 -17 45t-49 18q-48 0 -91 -29.5t-83 -68.5l-8 9
q38 42 84.5 71.5t94.5 29.5q26 0 43 -9t26.5 -22t13.5 -28t4 -27q0 -50 -30 -92t-80.5 -73t-116 -48.5t-135.5 -17.5q-51 0 -108.5 14.5t-110.5 33.5q-47 -21 -103 -34t-107 -13q-54 0 -83 15t-29 43q0 21 20.5 39t74.5 18q51 0 107 -15t107 -37q34 30 64 67.5t58 77
t53.5 78.5t49.5 72q-7 -1 -14 -1h-15q-39 0 -84 10t-83.5 31.5t-64 55.5t-25.5 82q0 50 21 86t57 59.5t83.5 35t100.5 11.5q64 0 116.5 -14t109.5 -46l-8 -9q-60 32 -111.5 44.5t-107.5 12.5q-57 0 -98.5 -15.5t-68.5 -41.5t-39.5 -59t-12.5 -67q0 -39 17 -69.5t48 -51.5
t73.5 -31.5t92.5 -10.5h18.5t4.5 1q24 37 59 79.5t76 85t86.5 81.5t91 69t89 48t80.5 18q32 0 53.5 -13t21.5 -50zM1090 673q0 26 -15.5 39.5t-41.5 13.5q-44 0 -90.5 -31.5t-94.5 -82.5t-97.5 -116t-98.5 -131l1 -1q41 9 90 28.5t97.5 45t93.5 55.5t79.5 61t55.5 61.5
t21 57.5zM100 87q-50 0 -67.5 -14t-17.5 -30q0 -21 25 -33.5t73 -12.5q15 0 38 2.5t49 7.5t52.5 13t48.5 19q-56 22 -109 35t-92 13z" />
    <glyph glyph-name="M" unicode="M" horiz-adv-x="1333" 
d="M1371 695q0 -14 -11 -31.5t-23 -35.5q-16 -23 -53 -66t-83 -95.5t-95 -111.5t-89.5 -114.5t-66.5 -103t-26 -77.5q0 -34 20.5 -48.5t55.5 -14.5q29 0 63 13.5t68 36t65 51t55.5 58t39 57t14.5 49.5q0 24 -16.5 36t-39.5 12q-25 0 -51 -14.5t-49.5 -36t-43 -47
t-30.5 -46.5l-6 5q11 27 31 54t44.5 49t51.5 35.5t53 13.5q32 0 52.5 -18t20.5 -53q0 -36 -22.5 -82.5t-64.5 -87.5t-101.5 -69t-133.5 -28q-60 0 -89 32.5t-29 84.5q0 54 39.5 123t101.5 144.5t138 154t150 151.5q11 10 19 17.5t11 13.5q1 2 -1.5 3t-5.5 1
q-42 -4 -92.5 -37.5t-105.5 -85t-112.5 -116t-114.5 -131t-111 -130t-102 -113t-88 -79.5t-68 -30q-22 0 -36 12.5t-14 37.5q0 20 7.5 42t20.5 46q21 41 66.5 99.5t106.5 129.5t134 151t148 164q10 11 18 20.5t11 15.5q1 2 -1.5 3t-4.5 1q-25 -4 -59 -26.5t-76 -59
t-90.5 -85t-102 -103.5t-110 -114.5t-114.5 -118.5q-29 -29 -68.5 -66.5t-83 -71.5t-88 -57t-83.5 -23q-21 0 -42 5t-37.5 15.5t-27 27t-10.5 40.5q0 27 14.5 43.5t37.5 16.5q22 0 34.5 -14t12.5 -34q0 -21 -12 -35t-33 -14q-6 0 -11 -1t-6 -3q0 -7 6.5 -13t17 -11t23.5 -8
t26 -3q34 0 74.5 19t82.5 50t84 70t80.5 78.5t72 75.5t57.5 61q80 85 147.5 153.5t122 117t95.5 74.5t69 26q11 0 22 -6.5t11 -21.5q0 -17 -10 -41t-40 -63q-74 -96 -142.5 -179t-125.5 -150.5t-99.5 -119t-63.5 -84.5q-9 -14 -14 -24.5t-6 -20.5q0 -6 4 -9t9 -3
q24 0 61.5 31t85.5 82t103 115.5t113.5 132.5t118 132.5t115.5 115.5t106.5 82t90.5 31q14 0 23.5 -6t9.5 -21z" />
    <glyph glyph-name="N" unicode="N" horiz-adv-x="852" 
d="M770 684q-72 -51 -136 -127.5t-126 -161.5t-124 -168.5t-128 -148.5q-43 -42 -88 -67.5t-93 -25.5q-50 0 -73.5 21t-23.5 53q0 26 14.5 42t38.5 16q22 0 35.5 -13.5t13.5 -33.5q0 -26 -13 -35.5t-25 -12.5q-14 -3 -15 -10q0 -15 45 -15t89.5 26t89 70t89 101.5t91 120
t93.5 126.5t96.5 120t101 101t106.5 70l5 -7q-27 -26 -43.5 -56t-25.5 -66.5t-13 -80t-7 -95.5q-2 -45 -8.5 -92t-22 -96t-43.5 -100t-73 -104l2 -2q61 54 121 126t119 148.5t117.5 151t118 133t119.5 94.5t123 36q35 0 57 -15t22 -42q0 -22 -14 -35t-36 -13t-37 12t-15 31
q0 12 4 19.5t9 11.5t9 6.5t4 4.5q0 5 -7 6.5t-12 1.5q-45 0 -94 -29.5t-99.5 -77t-102 -108.5t-101 -124.5t-96 -124t-87.5 -107.5q-51 -57 -98.5 -99.5t-89.5 -61.5l-6 7q30 21 48 47t29.5 58.5t17.5 72.5t11 90q6 63 13.5 121.5t22 112t39 102.5t64.5 94z" />
    <glyph glyph-name="O" unicode="O" horiz-adv-x="685" 
d="M919 569q0 -49 -21.5 -80.5t-51.5 -62.5l-10 5q32 34 51.5 65.5t19.5 73.5q0 36 -14.5 62.5t-38 44t-53.5 25.5t-61 8q-40 0 -89 -18t-102 -48.5t-107 -72t-104 -88.5t-94 -97.5t-76.5 -99.5t-51.5 -94.5t-19 -81.5q0 -63 36 -88t94 -25q77 0 148.5 25t134 65.5t114 91
t88 101.5t57 97.5t20.5 79.5q0 50 -26 81.5t-79 31.5q-41 0 -86 -20t-83.5 -52t-63.5 -71.5t-25 -77.5q0 -35 19.5 -52.5t52.5 -17.5q28 0 59 19.5t56.5 48.5t43.5 63t21 61h9q0 -36 -14.5 -72t-40 -65.5t-59 -48t-70.5 -18.5q-40 0 -64.5 19t-24.5 62q0 44 26.5 86t67 75
t88 53t88.5 20q53 0 85 -31.5t32 -92.5q0 -37 -21.5 -87t-60 -102.5t-91.5 -103.5t-116.5 -91t-135 -64.5t-145.5 -24.5q-48 0 -82.5 13t-56.5 36.5t-32.5 56t-10.5 71.5q0 62 31 127.5t83.5 128t121.5 117.5t145 96.5t153.5 66t147.5 24.5q39 0 73 -9t59.5 -28t40.5 -47.5
t15 -68.5z" />
    <glyph glyph-name="P" unicode="P" horiz-adv-x="722" 
d="M1000 525q0 -51 -22.5 -89t-59.5 -63.5t-83 -38t-93 -12.5q-14 0 -27 1t-26 3l-1 13q13 -2 26 -3t25 -1q43 0 83 15t70.5 42t48.5 63.5t18 78.5q0 41 -19 73t-51 53q-53 -35 -93.5 -90t-83 -123.5t-94.5 -145.5t-128 -156q-30 -31 -66 -60t-78 -51t-90 -35.5t-100 -13.5
q-29 0 -55.5 6.5t-46.5 19.5t-32 31t-12 41q0 26 16.5 42.5t36.5 16.5q21 0 35.5 -14t14.5 -35q0 -18 -10 -26.5t-21.5 -12.5t-21.5 -5.5t-10 -5.5q0 -6 7.5 -14t21 -15t32 -12t41.5 -5q57 0 101 21.5t81 55.5q43 39 81 87.5t76 102t77.5 109t85 109t98.5 102t119 87.5
q-45 23 -96.5 31t-99.5 8q-73 0 -144.5 -15.5t-136.5 -41.5t-120 -60.5t-95.5 -72.5t-63.5 -78t-23 -76q0 -45 28 -70.5t76 -25.5q39 0 80 13.5t80 36.5t73.5 53.5t61.5 63.5t43.5 66t18.5 63h12q-2 -53 -30 -108t-75 -101t-110.5 -75t-136.5 -29q-27 0 -51 7t-42 20.5
t-29 34.5t-11 48q0 40 23.5 82.5t65 82.5t97.5 75.5t121 61.5t136 41.5t142 15.5q59 0 116 -9t107 -34q20 11 41.5 20t44.5 14l3 -12q-18 -5 -37 -12.5t-36 -18.5q40 -25 68 -60.5t28 -84.5z" />
    <glyph glyph-name="Q" unicode="Q" horiz-adv-x="704" 
d="M907 579q0 -28 -16 -59.5t-39 -57.5l-7 6q22 27 36 55.5t14 63.5q0 31 -14 54t-38 38.5t-55.5 23t-65.5 7.5q-30 0 -66 -9t-78 -30.5t-91 -57t-107 -87.5q-57 -52 -109.5 -110.5t-92.5 -115t-63.5 -106t-23.5 -83.5q0 -55 38 -86t104 -31q82 0 158 38t160 112
q52 46 98 96.5t80.5 99t54 92.5t19.5 77q0 48 -26 70.5t-74 22.5q-46 0 -97.5 -27.5t-99.5 -72.5t-88 -103.5t-64 -120.5l-12 1q8 28 27 64t46 73.5t60.5 73t71.5 63.5t77.5 45t79.5 17q53 0 84.5 -28.5t31.5 -86.5q0 -61 -24 -122t-65.5 -117t-96.5 -104.5t-117 -85.5
t-128 -59.5t-129 -26.5l-1 -1q28 -9 57 -22t57.5 -26t54.5 -22t48 -9q29 0 60 23.5t58 54.5l5 -9q-15 -22 -34.5 -45t-43 -41.5t-49 -30.5t-51.5 -12q-30 0 -64.5 16.5t-67.5 36t-62.5 36t-51.5 16.5q-29 0 -53.5 -16.5t-50.5 -42.5l-10 5q21 26 52 52t69 36v2
q-72 17 -102.5 68.5t-30.5 119.5q0 53 28 114t76 122t113.5 117.5t140 99.5t155.5 69t160 26q29 0 61.5 -6t60 -22t45.5 -44t18 -71z" />
    <glyph glyph-name="R" unicode="R" horiz-adv-x="1065" 
d="M826 377q-8 23 -33 35t-48 12q-12 0 -19.5 -3.5t-7.5 -10.5q0 -11 9 -18t21.5 -10.5t25.5 -5t21 -1.5t15.5 0.5t15.5 1.5zM1011 565q0 72 -63 108q-24 -14 -53.5 -39t-60.5 -57t-61.5 -69.5t-55.5 -75.5h1q6 2 13.5 3t15.5 2q25 0 53.5 -14.5t44.5 -42.5q30 7 59.5 25
t53 43t38.5 55t15 62zM1078 539q0 -40 -21 -71t-54 -53t-73 -34.5t-77 -15.5q18 -29 18 -53q0 -30 -21.5 -61.5t-47.5 -64t-47.5 -65t-21.5 -65.5q0 -34 22 -47.5t49 -13.5q23 0 51 12.5t56 33t54.5 46t46.5 52t32.5 51.5t12.5 44q0 20 -13 31t-34 11q-17 0 -33 -8
t-31 -19.5t-28 -25t-23 -25.5l-8 5q12 15 25.5 30t29.5 27t32.5 20t34.5 8q25 0 42 -14t17 -45q0 -42 -23.5 -86t-61 -79.5t-84 -58.5t-92.5 -23q-32 0 -56 10t-40 27t-24 39t-8 47q0 26 11 50.5t27.5 46.5t36 42.5t36 40.5t27.5 39t11 39q-9 -1 -19.5 -1.5t-21.5 -0.5
q-12 0 -25.5 2t-25.5 8t-20 15.5t-8 24.5h-2q-34 -46 -69.5 -95.5t-74.5 -97t-82.5 -90.5t-93 -75.5t-106.5 -51.5t-123 -19q-36 0 -65 8.5t-49 22.5t-31 33.5t-11 40.5q0 25 17.5 42t38.5 17q23 0 38 -14.5t15 -40.5q0 -19 -9 -28t-20 -13t-20 -6t-9 -6q0 -12 27.5 -27.5
t78.5 -15.5q54 0 97 24.5t85 62.5q36 34 75 83.5t82.5 106.5t91 117t101.5 115t114.5 101t128.5 74q-41 17 -85.5 23t-89.5 6q-73 0 -137.5 -14.5t-119 -38t-98 -54.5t-73.5 -64t-46 -65.5t-16 -59.5q0 -38 17.5 -62t59.5 -24q33 0 72.5 20.5t75.5 55t63.5 79t36.5 92.5
l7 37h9v-10q0 -59 -24 -112t-61.5 -93t-83 -63.5t-88.5 -23.5q-47 0 -71.5 26.5t-24.5 72.5q0 51 39.5 106.5t108.5 101.5t162.5 76t201.5 30q59 0 108.5 -10t78.5 -22q19 9 39 16t38 12l5 -8q-20 -7 -35.5 -13.5t-30.5 -12.5q49 -21 78 -55.5t29 -88.5z" />
    <glyph glyph-name="S" unicode="S" horiz-adv-x="629" 
d="M1102 669q0 -39 -40 -89.5t-106 -99t-152 -88.5t-177 -59q-39 -59 -91 -121t-113.5 -112.5t-132 -83t-146.5 -32.5q-28 0 -55.5 6.5t-49 18.5t-35 30.5t-13.5 42.5q0 25 14 42t40 17q23 0 37 -13.5t14 -34.5q0 -20 -12.5 -32.5t-27.5 -12.5q-20 0 -20 -13q0 -10 28.5 -24
t79.5 -14q46 0 85 16t73 43t63.5 61.5t56.5 71t52 72.5t50 66q-11 -1 -22.5 -1h-22.5q-44 0 -86.5 12t-75.5 34t-53 54t-20 73t20.5 76.5t56.5 61t84.5 40t104.5 14.5q57 0 111.5 -15t97.5 -39l-6 -9q-50 26 -103.5 38.5t-110.5 12.5q-45 0 -85 -14t-70 -38t-47 -56.5
t-17 -69.5q0 -47 20.5 -78t53 -49.5t72.5 -25.5t80 -5q11 1 15 0.5t12 1.5q29 45 68.5 90.5t85 87.5t94 78.5t95.5 63.5t90 42.5t77 15.5q28 0 43.5 -13t15.5 -41zM1090 668q0 19 -10.5 30.5t-35.5 11.5q-35 0 -72 -18t-74 -47.5t-73 -67.5t-69.5 -77.5t-64 -78t-55.5 -69.5
q18 3 43 10.5t54.5 18t62 25.5t65.5 33q43 24 84.5 52t73.5 58t51.5 60.5t19.5 58.5z" />
    <glyph glyph-name="T" unicode="T" horiz-adv-x="611" 
d="M1150 721q-32 -53 -76 -73.5t-105 -20.5q-38 0 -86 5.5t-101 12.5t-107.5 12.5t-107.5 5.5q-68 0 -132 -22.5t-114 -60t-80.5 -86.5t-30.5 -101q0 -38 22.5 -65t61.5 -27q32 0 64 20t58 51.5t42 69t16 72.5q0 24 -6.5 46t-11.5 30l9 2q10 -18 18.5 -42t8.5 -43
q0 -45 -16 -85t-43 -69t-62.5 -46t-73.5 -17q-46 0 -72.5 29.5t-26.5 72.5q0 65 40 125t105.5 105.5t149 72.5t170.5 27q40 0 89.5 -5t99.5 -12q51 -7 97 -12.5t76 -5.5q32 0 63.5 8t54.5 31l7 -5v0zM943 598q-27 -2 -53.5 -12t-51 -26t-47 -36.5t-43.5 -42.5
q-47 -50 -90 -106.5t-85.5 -111.5t-87.5 -105.5t-97.5 -88.5t-114 -61t-136.5 -23q-30 0 -57 5t-48 16.5t-33 29t-12 42.5q0 23 14.5 40.5t38.5 17.5q21 0 37 -13t16 -36q0 -21 -13.5 -32.5t-32.5 -14.5q-17 -2 -18 -10q0 -4 8 -9.5t22 -11t33 -9t42 -3.5q58 0 100 20.5
t82 58.5q36 34 69.5 75.5t66.5 85t65.5 86t65.5 80.5q82 94 167 146t191 60l2 -11v0z" />
    <glyph glyph-name="U" unicode="U" horiz-adv-x="998" 
d="M668 176q-52 -59 -52 -112q0 -67 77 -67q48 0 97 29t89.5 69.5t66 83t25.5 69.5q0 21 -12.5 32t-29.5 11q-22 0 -46.5 -15.5t-48 -37t-43.5 -45t-34 -39.5l-9 6q14 18 35.5 42.5t47 47t51.5 38t49 15.5q20 0 39 -15.5t19 -53.5q0 -43 -27 -87.5t-69.5 -80.5t-95 -58.5
t-104.5 -22.5q-32 0 -55.5 9.5t-39 25t-23.5 35t-8 39.5q0 23 8 47.5t17 40.5l-1 1q-48 -50 -88 -87t-75 -62t-65.5 -37t-60.5 -12q-45 0 -72 25t-27 70q0 40 28 87t69.5 96.5t90 99t90 95.5t69.5 86.5t28 71.5q0 94 -105 94q-39 0 -82 -13.5t-84.5 -36t-78.5 -53t-65 -65
t-44.5 -71t-16.5 -71.5q0 -36 20.5 -56t53.5 -20q26 0 58.5 16t61.5 45q40 38 59.5 82t18.5 99h12l1 -35q1 -42 -16 -81.5t-46.5 -70t-67.5 -49t-80 -18.5q-38 0 -62.5 22t-24.5 67q0 36 17 73.5t45.5 73t66.5 67.5t80 55.5t86.5 37.5t85.5 14q34 0 64.5 -8t53.5 -25.5
t36 -44.5t13 -66q0 -37 -29 -82.5t-73 -94.5t-95 -99t-95 -97t-73 -87.5t-29 -70.5q0 -27 18 -38.5t47 -11.5q33 0 73 23t83.5 59.5t87.5 82.5t85 91l364 404h92z" />
    <glyph glyph-name="V" unicode="V" horiz-adv-x="630" 
d="M1134 653q0 -23 -14.5 -37t-34.5 -14q-26 0 -41 13.5t-15 34.5q0 16 10 23t11 12q0 7 -12 7q-17 0 -39.5 -15.5t-47.5 -41.5q-39 -40 -87.5 -102.5t-107.5 -133t-129.5 -142.5t-152.5 -131t-177 -97.5t-203 -43.5l-3 12q14 2 32 9t35 16q37 19 72.5 60t73.5 95t80 116.5
t91.5 125t107 120.5t127.5 102l-2 3q-35 -16 -66 -27t-70 -11q-34 0 -60.5 10.5t-53 23.5t-55.5 23.5t-68 10.5q-46 0 -89 -24t-76.5 -62t-53.5 -84.5t-20 -91.5q0 -44 25.5 -70t70.5 -26q36 0 73 21t67.5 54.5t50 75t19.5 83.5l9 1q0 -50 -14 -95.5t-41 -80.5t-67.5 -56
t-93.5 -21q-51 0 -81.5 32.5t-30.5 83.5q0 65 32 121.5t79.5 98t102.5 65t102 23.5q41 0 75 -12t64 -26.5t57.5 -26.5t55.5 -12q35 0 73.5 17.5t76.5 43.5l6 -8q-59 -37 -105.5 -92.5t-89 -119t-86 -132t-96 -132t-117.5 -119t-151 -92.5l3 -3q92 13 174.5 54t155.5 98.5
t136.5 124.5t117.5 131.5t98.5 121t79.5 91.5q42 42 72.5 62t65.5 20q31 0 50 -16t19 -42z" />
    <glyph glyph-name="W" unicode="W" horiz-adv-x="944" 
d="M1437 662q0 -26 -15 -39t-37 -13q-25 0 -38 14.5t-13 31.5q0 11 4 17.5t8.5 10t8.5 6t4 5.5q0 6 -9 6q-31 0 -75 -42t-97 -106.5t-114 -141.5t-125 -147q-50 -54 -106.5 -102t-117.5 -84.5t-123.5 -61t-123.5 -31.5l-4 12q43 23 82.5 67t80 101t83.5 123t93.5 134
t110.5 134.5t135 123.5l-2 2q-95 -45 -172.5 -111t-146 -139.5t-132.5 -148t-132.5 -137t-146 -106t-172.5 -55.5l-2 12q45 23 83.5 65t76.5 96.5t79 117.5t90.5 127.5t111 127t140.5 116.5l-2 2q-29 -14 -62 -28.5t-75 -14.5q-30 0 -61 11t-61.5 24t-61 24t-60.5 11
q-36 0 -77.5 -23.5t-77.5 -60t-60 -81t-24 -87.5q0 -45 23 -75.5t68 -30.5q36 0 75 21.5t71 55.5t52.5 76.5t20.5 85.5l12 1q0 -3 0.5 -12t-1.5 -11q-2 -50 -21.5 -93t-49.5 -74.5t-69 -49.5t-80 -18q-55 0 -84 31t-29 89q0 50 29 103.5t75 97.5t103.5 72.5t115.5 28.5
q42 0 77 -11t64.5 -24.5t54 -24.5t45.5 -11q44 0 81.5 18t74.5 38l3 -11q-52 -33 -89.5 -71.5t-69 -81.5t-60.5 -90.5t-64 -100t-79.5 -110t-105.5 -119.5q-32 -32 -70 -60.5t-82 -51.5v-3q84 16 156.5 65.5t140 117t134 145t137 149.5t149.5 131.5t173 90.5l4 -11
q-42 -30 -82 -89t-84 -132t-95 -152.5t-114 -150.5q-88 -99 -196 -161l2 -2q92 22 168.5 65t141.5 99t120.5 120t106 128.5t98 125t96.5 108.5q34 33 65 49t57 16q30 0 48 -16t18 -42z" />
    <glyph glyph-name="X" unicode="X" horiz-adv-x="920" 
d="M1210 610q0 -23 -14.5 -38.5t-38.5 -15.5q-23 0 -36 13t-13 33q0 24 11 34.5t23 15.5q19 6 19 12q0 11 -21 18t-51 7q-41 0 -82 -18.5t-80 -48.5t-76 -69t-70 -79.5t-62 -79.5t-51 -70h83l-9 -15h-81q-45 -63 -74.5 -119t-29.5 -106q0 -45 23.5 -66t72.5 -21q27 0 55 13
t55 33.5t50 47t41 54t28 53.5t10 46q0 24 -15.5 38.5t-37.5 14.5q-23 0 -45.5 -12.5t-42.5 -31t-35.5 -41t-23.5 -42.5l-13 2q9 22 25.5 46t38 44.5t46.5 33.5t50 13q37 0 54 -24t17 -61q0 -38 -21.5 -80t-57.5 -77.5t-82 -58.5t-95 -23q-66 0 -97.5 35t-31.5 98q0 12 1 26
t3 25h-3q-35 -35 -76.5 -68.5t-88 -59t-96.5 -41t-101 -15.5q-66 0 -107 26.5t-41 72.5q0 23 15.5 39.5t39.5 16.5t38 -14t14 -34t-12.5 -33.5t-30.5 -13.5q-8 0 -14 -3.5t-6 -9.5t8.5 -12t23 -11.5t32.5 -8.5t38 -3q37 0 76 15.5t77 41t75 58.5t70 67.5t60.5 68.5t48.5 61
h-106l10 15h106q27 36 54 75.5t49 78.5t36 74.5t14 63.5q0 46 -30 70t-72 24q-39 0 -79 -12.5t-78 -33.5t-70.5 -49t-57.5 -59t-39 -63t-14 -62q0 -44 23.5 -66.5t58.5 -22.5q27 0 60 17.5t62 48t48.5 71.5t19.5 89v17t-2 20l13 2q8 -32 8 -63q0 -39 -16.5 -77.5t-45 -69
t-66 -49.5t-79.5 -19q-38 0 -67 24t-29 74q0 51 33 103.5t84.5 95t115 69.5t123.5 27q32 0 60.5 -9.5t49.5 -26.5t33.5 -42.5t12.5 -56.5q0 -14 -1 -28.5t-8 -27.5h2q29 29 64.5 59.5t75 55t82 40.5t85.5 16q52 0 85 -23.5t33 -68.5z" />
    <glyph glyph-name="Y" unicode="Y" horiz-adv-x="945" 
d="M569 11q37 4 77 14.5t79.5 26.5t74.5 38.5t61 52t40 65t11 78.5q4 3 1.5 13.5t-3.5 15.5h11q4 -14 6.5 -28.5t2.5 -28.5q0 -48 -17.5 -84.5t-46.5 -64.5t-67 -47.5t-79 -32.5t-82 -20.5t-77 -11.5q-130 -144 -236.5 -208.5t-186.5 -64.5q-16 0 -31.5 4t-28 12.5t-20 22.5
t-7.5 34q0 146 420 206l119 133l-2 3q-24 -22 -51 -43t-56 -37t-59 -25.5t-60 -9.5q-47 0 -71.5 25t-24.5 66q0 25 13.5 49t30.5 47q9 12 31 37.5t51 58t61.5 67.5t61 67t50.5 56.5t30 35.5q17 22 27 41.5t10 37.5q0 26 -11 44.5t-29 30.5t-40.5 17.5t-44.5 5.5
q-44 0 -88.5 -14.5t-85.5 -38.5t-76.5 -55t-62 -65t-41.5 -68.5t-15 -64.5q0 -39 23.5 -66t65.5 -27q31 0 68.5 23t70.5 58.5t55 77t22 78.5q0 20 -3 35l8 3q2 -12 5 -24t3 -24q0 -44 -18 -86.5t-49.5 -76.5t-73.5 -55t-90 -21q-45 0 -72 28t-27 73q0 39 17 78t46 75t67 67
t79.5 53.5t83.5 35.5t80 13q51 0 87 -13t59 -33.5t33.5 -46t10.5 -51.5q0 -30 -20.5 -63.5t-47.5 -66.5q-10 -12 -31.5 -35.5t-49.5 -53.5t-58.5 -62.5t-58 -61.5t-48 -51.5t-28.5 -32.5q-19 -23 -29.5 -42.5t-10.5 -33.5q-1 -19 15 -29t44 -10q25 0 54.5 11t59 28
t58.5 38.5t53 42t42.5 38.5t28.5 29l397 450h98zM458 -10q-106 -15 -181 -36t-122.5 -46t-69.5 -53t-22 -57q0 -32 21 -47t53 -15q31 0 60.5 11.5t65.5 40.5t82.5 77t113.5 122z" />
    <glyph glyph-name="Z" unicode="Z" horiz-adv-x="993" 
d="M1010 688q0 -20 -21.5 -36t-51 -28.5t-60.5 -20t-50 -8.5q-20 -20 -45 -47.5t-50.5 -56.5t-50 -57t-43.5 -49h160l-6 -12h-163q-46 -54 -93 -107t-95 -101q39 -14 78.5 -35.5t80 -41.5t83 -34.5t87.5 -14.5q43 0 81.5 17.5t67 44t45 56.5t16.5 55q0 37 -22.5 55.5
t-57.5 18.5q-28 0 -51 -9.5t-43 -25.5t-36.5 -36t-30.5 -42l-12 2q14 25 32 47.5t39.5 39t47 26.5t54.5 10q38 0 65 -21t27 -62q0 -40 -26.5 -81t-68.5 -74t-94.5 -54t-104.5 -21q-33 0 -69.5 11.5t-75.5 29.5t-81 40t-86 43q-26 -23 -55 -45t-60 -39.5t-64.5 -28.5
t-68.5 -11q-20 0 -38 5t-32 16t-22.5 28.5t-8.5 42.5q0 36 20.5 60t51 39t65 21.5t63.5 6.5q48 0 93 -8t92 -25q18 20 40 45.5t45 52.5t46.5 53.5t44.5 50.5h-102l6 12h106q43 52 93 106t100 100h-20.5t-19.5 1q-32 4 -66.5 16t-70.5 25.5t-72 24.5t-69 11
q-21 0 -46.5 -10.5t-51.5 -29t-51 -43t-44 -53.5t-30.5 -61t-11.5 -64q0 -40 20.5 -62.5t49.5 -22.5q39 0 74.5 26.5t62 65.5t42.5 82t17 76l12 -1v-25q-2 -45 -18 -87.5t-43.5 -76t-64 -53.5t-78.5 -20q-38 0 -62 25t-24 75q0 60 34 116t84.5 99.5t108.5 70t107 26.5
q34 0 69 -10t69.5 -24.5t68 -30.5t64.5 -28q45 37 81.5 61t56.5 24q14 0 22.5 -7.5t8.5 -18.5zM998 687q2 15 -18 15q-32 0 -125 -75l1 -1q28 0 54 6t45.5 15.5t31 20t11.5 19.5zM374 116q-43 20 -94 36.5t-100 16.5q-21 0 -43.5 -5.5t-42 -17t-32 -29t-12.5 -41.5
q0 -43 27.5 -60.5t63.5 -17.5q29 0 59.5 10t60.5 26.5t58.5 37.5t54.5 44z" />
    <glyph glyph-name="bracketleft" unicode="[" horiz-adv-x="426" 
d="M738 719h-104l-634 -829h110l-6 -12h-173l648 853h168z" />
    <glyph glyph-name="backslash" unicode="\" horiz-adv-x="426" 
d="M429 -15q-20 84 -48.5 182t-61.5 198q-32 97 -63 188.5t-60 168.5l37 1q23 -77 53.5 -175.5t63.5 -200.5t64.5 -197t55.5 -165h-41z" />
    <glyph glyph-name="bracketright" unicode="]" horiz-adv-x="426" 
d="M-6 -122h-168l10 12h104l633 829h-110l7 12h172z" />
    <glyph glyph-name="asciicircum" unicode="^" horiz-adv-x="666" 
d="M593 215l-164 318l-164 -318h-43l189 366h35l188 -366h-41z" />
    <glyph glyph-name="underscore" unicode="_" 
d="M0 -125v50h500v-50h-500z" />
    <glyph glyph-name="grave" unicode="`" horiz-adv-x="278" 
d="M304 402q-38 17 -70 47t-43 72h62q5 -29 19 -57t36 -48l-4 -14v0z" />
    <glyph glyph-name="a" unicode="a" 
d="M561 165q-26 -27 -60 -58.5t-71 -58.5t-74 -45t-68 -18q-17 0 -27.5 5t-16.5 13t-9 16.5t-3 16.5q0 21 9 38l-2 1q-87 -90 -147 -90q-30 0 -47 19t-17 51q0 36 15.5 69.5t40.5 62.5t57 52.5t65 40t63.5 25.5t53.5 9q27 0 44 -12t18 -27q0 -5 -0.5 -9.5t-2.5 -10.5h2
l43 47h98l-237 -257q-7 -8 -13 -17t-7 -15q0 -8 6 -12t14 -4q28 0 63.5 17.5t71.5 43.5t69.5 56.5t57.5 56.5l11 -6v0zM372 270q0 14 -10.5 21.5t-24.5 7.5t-28 -5.5t-37.5 -25.5t-61.5 -60.5t-101 -109.5q-26 -29 -36.5 -46.5t-10.5 -28.5q0 -12 8.5 -19t22.5 -7
q27 0 65 25.5t82 70.5q38 39 63.5 69t40.5 51t21.5 35t6.5 22z" />
    <glyph glyph-name="b" unicode="b" horiz-adv-x="426" 
d="M692 668q0 -31 -25.5 -73t-76.5 -89.5t-128 -97t-180 -96.5q-60 -71 -100 -120.5t-65 -83t-35.5 -53t-10.5 -29.5q0 -17 13.5 -23t26.5 -6q44 0 97 35t131 115q-7 9 -11.5 19.5t-4.5 24.5q0 15 8 34.5t21.5 37t29.5 30t33 12.5q11 0 17 -8.5t6 -20.5q0 -18 -7.5 -35
t-19.5 -33t-26 -31.5t-26 -28.5q8 -5 19 -7.5t22 -2.5q17 0 37.5 11t35.5 31l6 -7q-12 -20 -36 -33.5t-49 -13.5q-15 0 -25 4t-18 9q-38 -37 -70 -66t-60.5 -48.5t-56.5 -29.5t-58 -10q-32 0 -51.5 21.5t-19.5 62.5q0 16 5.5 34.5t20.5 44.5t41.5 62t69.5 86q36 41 80 88.5
t91.5 94t94 89t88 75t73.5 52t50 19.5q43 0 43 -46zM681 670q0 13 -5.5 22t-18.5 9q-17 0 -41.5 -16.5t-65.5 -58.5t-102.5 -113t-150.5 -180h2q91 43 162 89.5t120 91t74.5 84.5t25.5 72z" />
    <glyph glyph-name="c" unicode="c" horiz-adv-x="333" 
d="M383 172q-33 -41 -70.5 -75.5t-75 -59.5t-72.5 -38.5t-63 -13.5q-42 0 -60.5 23.5t-18.5 56.5q0 25 13 53.5t34.5 56t49.5 53t58.5 45t61.5 31t58 11.5q38 0 55.5 -17.5t17.5 -42.5q0 -24 -12.5 -37t-29.5 -13t-29 10.5t-12 26.5q0 17 10 28t28 11q17 0 27 -11l2 1
q-1 15 -14.5 23t-25.5 8q-27 0 -73.5 -46t-106.5 -121q-26 -32 -40.5 -51.5t-22.5 -31.5t-10 -18t-2 -10q0 -11 11 -19t28 -8q28 0 63.5 14.5t73 40t74.5 59t68 71.5l5 -10v0z" />
    <glyph glyph-name="d" unicode="d" 
d="M367 263q1 15 -8.5 24t-24.5 9q-12 0 -32 -11t-42 -27.5t-43.5 -36.5t-37.5 -38q-44 -51 -68.5 -80t-37.5 -44.5t-16 -21.5t-3 -11q0 -10 8 -20t27 -10q34 0 103 59.5t157 171.5q11 13 14.5 22t3.5 14zM288 56q-16 -17 -22 -26t-7 -17q0 -16 22 -16q48 0 111.5 42.5
t150.5 131.5l10 -7q-87 -88 -150.5 -133.5t-121.5 -45.5q-26 0 -43 10.5t-17 37.5q0 10 1 19t4 16l-2 2q-42 -42 -75 -63.5t-64 -21.5q-20 0 -32.5 6t-20 16t-10.5 22.5t-3 25.5q0 40 26.5 85t68 83t93.5 63t103 25q26 0 46.5 -9t20.5 -38q0 -8 -1 -13l2 1l330 348h96z" />
    <glyph glyph-name="e" unicode="e" horiz-adv-x="334" 
d="M394 165q-32 -35 -70.5 -67.5t-79.5 -57.5t-82 -40.5t-79 -15.5q-31 0 -51.5 16.5t-20.5 48.5q0 48 31.5 95t77.5 85t96.5 61.5t89.5 23.5q26 0 41 -14t15 -36q0 -33 -24 -58t-59.5 -42t-76.5 -25.5t-74 -9.5q-26 -28 -41.5 -47t-23.5 -31.5t-10.5 -20t-2.5 -12.5
q0 -13 11.5 -17.5t26.5 -4.5q34 0 72.5 14t77 38.5t76.5 56t73 66.5l7 -6v0zM333 281q0 9 -5.5 15t-13.5 6q-14 0 -36 -17.5t-41 -37.5l-99 -106q36 0 71 13.5t62.5 34t44.5 45t17 47.5z" />
    <glyph glyph-name="f" unicode="f" horiz-adv-x="352" 
d="M779 672q0 -31 -19.5 -66t-52.5 -71.5t-77 -71.5t-94 -67.5t-103 -59.5t-103 -46l-148 -168q8 -1 17 -1.5t17 0.5q50 2 95.5 22t83.5 43l5 -11q-18 -12 -41 -23.5t-50 -21t-56.5 -16t-59.5 -6.5q-5 0 -12 -0.5t-10 1.5l-304 -349h-101l333 370q-9 4 -19.5 10t-19 13
t-14 14.5t-5.5 14.5q0 8 4.5 13t10.5 5q13 0 18 -20q2 -9 10.5 -19t25.5 -18l325 358q36 40 79.5 78t85.5 68t78 48t57 18q18 0 31 -9t13 -32zM767 669q0 14 -6.5 23t-20.5 9q-23 0 -71.5 -41.5t-132.5 -135.5q-11 -9 -36.5 -37.5t-55.5 -62t-57.5 -66t-42.5 -49.5h2
q46 18 95.5 44t96.5 57t88.5 65.5t72.5 68.5t49.5 66t18.5 59z" />
    <glyph glyph-name="g" unicode="g" horiz-adv-x="463" 
d="M127 -36q-62 -23 -119 -48.5t-100 -51.5t-69 -52t-26 -50q0 -17 12 -25t29 -8q18 0 37 8t48.5 33t74 71t114.5 122zM367 264q1 14 -9 26t-31 12q-20 0 -44 -15.5t-48.5 -37.5t-47 -46l-37.5 -40q-3 -3 -18.5 -19.5t-33.5 -38.5t-32 -44t-14 -36q0 -11 8.5 -18t24.5 -7
q31 0 75.5 29t89.5 80l94 107q15 17 19 27t4 21zM522 167q-26 -28 -61 -55.5t-74 -50.5t-78 -40.5t-72 -26.5q-45 -51 -96.5 -100.5t-102.5 -89t-98 -63.5t-83 -24q-26 0 -41 11.5t-15 31.5q0 25 24.5 52.5t69.5 56t107.5 57t138.5 56.5l54 59l-2 1q-28 -23 -55.5 -39
t-57.5 -16q-31 0 -46 22t-15 53q0 47 30.5 92.5t75.5 81.5t96.5 58t93.5 22q28 0 44.5 -12t16.5 -37q0 -8 -1 -12h2l40 46h93l-256 -288l2 -1q69 23 135.5 64.5t123.5 97.5l7 -7v0z" />
    <glyph glyph-name="h" unicode="h" horiz-adv-x="463" 
d="M725 652q0 -37 -38 -82t-99.5 -91.5t-139 -91t-157.5 -78.5l-103 -114l1 -2q25 21 51.5 40.5t51.5 35.5t47 25.5t39 9.5q23 0 36 -16t13 -43q0 -32 -23 -64.5t-67 -78.5q-41 -44 -58.5 -63.5t-18.5 -27.5q0 -13 14 -15q32 0 93 48t144 130l5 -9q-33 -35 -68 -67.5
t-67 -57.5t-60 -40t-49 -15q-7 0 -15.5 2.5t-15.5 9.5t-11.5 18.5t-4.5 29.5q0 15 7 30.5t17.5 30.5t23 29t23.5 26q48 50 71.5 74.5t23.5 35.5q0 20 -22 20q-14 0 -41.5 -13.5t-61 -36t-68.5 -51.5t-63 -60l-116 -130h-96l325 348q165 177 274 263t160 86q22 0 32.5 -13
t10.5 -32zM683 686q-9 0 -28.5 -14.5t-44.5 -37.5t-53.5 -51.5t-55.5 -57.5t-51 -54.5t-40 -41.5l-98 -100q72 32 143.5 73.5t129 85.5t93.5 87.5t36 78.5q0 11 -7 21.5t-24 10.5z" />
    <glyph glyph-name="i" unicode="i" horiz-adv-x="278" 
d="M327 455q0 17 14.5 32t35.5 15q17 0 28.5 -10.5t11.5 -26.5q0 -17 -14.5 -32t-35.5 -15q-17 0 -28.5 10.5t-11.5 26.5zM318 167q-99 -91 -162.5 -137t-97.5 -46q-28 0 -41.5 16t-13.5 41q0 17 9 37t30 44l158 180h89l-204 -230q-14 -16 -23.5 -26t-14.5 -17t-7 -10.5
t-2 -6.5q0 -16 22 -16q31 -1 88.5 42.5t159.5 134.5l8 -6h2z" />
    <glyph glyph-name="j" unicode="j" horiz-adv-x="278" 
d="M333 455q0 17 14.5 32t35.5 15q17 0 28.5 -10.5t11.5 -26.5q0 -17 -14.5 -32t-35.5 -15q-17 0 -28.5 10.5t-11.5 26.5zM331 177q-64 -57 -146.5 -105.5t-172.5 -77.5q-51 -56 -104 -106t-103.5 -88t-94.5 -60t-77 -22q-27 0 -38.5 11.5t-11.5 34.5q0 49 85 104t254 116
l287 320h90l-271 -292l2 -3q48 19 88.5 39.5t75.5 42t66.5 45t60.5 48.5l10 -7v0zM-93 -30q-89 -35 -148.5 -64t-95.5 -54t-51 -46t-15 -39q0 -17 8.5 -26.5t25.5 -9.5q22 0 43 9.5t51 35.5t73.5 72t110.5 119z" />
    <glyph glyph-name="k" unicode="k" horiz-adv-x="481" 
d="M709 655q0 -42 -39 -90.5t-100.5 -96t-137.5 -89.5t-150 -71l-128 -148h47q36 0 61 10.5t43.5 26t32.5 34t28.5 34t32 26t42.5 10.5q23 0 37 -12t14 -29q0 -22 -14.5 -37t-34.5 -15q-16 0 -26 11.5t-10 26.5q0 11 3.5 18t8 11t8.5 6.5t6 5.5q1 2 -1.5 2.5t-3.5 0.5
q-21 -3 -37.5 -24.5t-36 -45.5t-45 -43.5t-63.5 -19.5v-2q31 0 47.5 -16t16.5 -36q0 -14 -8 -28t-17.5 -26.5t-17.5 -23t-8 -16.5q0 -12 17 -12q15 0 43 15.5t61 40.5t68 57t66 64l6 -12q-51 -49 -90 -82.5t-69.5 -54.5t-54.5 -31t-44 -10q-32 0 -47.5 13.5t-15.5 33.5
q0 13 8 28t18 29t18 25.5t8 16.5q0 7 -8.5 12.5t-31.5 5.5h-68l-125 -148h-91l311 349q68 76 133.5 140t122 110.5t100 72t68.5 25.5q15 0 31 -8t16 -34zM698 658q0 14 -8.5 20.5t-20.5 6.5q-15 0 -39.5 -16.5t-55.5 -44.5t-67 -64.5t-72.5 -76t-72 -80t-65.5 -76.5l1 -2
q78 33 150 75.5t127.5 87.5t89 89.5t33.5 80.5z" />
    <glyph glyph-name="l" unicode="l" horiz-adv-x="297" 
d="M681 659q0 -25 -18 -58t-49.5 -70t-74.5 -76t-92 -74.5t-102.5 -65.5t-106.5 -49l-143 -175q-14 -17 -24.5 -38.5t-10.5 -29.5q0 -12 9.5 -19.5t21.5 -7.5q25 0 56 16t64 41t66.5 56.5t64.5 61.5l8 -10q-83 -81 -145.5 -128.5t-107.5 -47.5q-73 0 -73 87q0 24 16.5 56
t43.5 67q47 60 100.5 120.5t108 116.5t108.5 104t100.5 84t84 56.5t60.5 20.5q17 0 26 -11t9 -27zM669 657q0 28 -24 28q-12 0 -36 -16.5t-53 -43t-59.5 -58.5t-56.5 -62l-188 -221h2q44 17 91.5 45t93.5 61.5t88 71t73.5 73t50 67.5t18.5 55z" />
    <glyph glyph-name="m" unicode="m" horiz-adv-x="722" 
d="M775 169q-80 -90 -139.5 -137t-94.5 -47q-27 0 -39 17t-12 45q0 34 39.5 82t102.5 111q25 25 25 37q0 11 -7.5 16.5t-18.5 5.5q-22 0 -56 -19.5t-72.5 -50t-79 -69t-75.5 -77.5l-76 -83h-95l199 216q25 28 33.5 40t8.5 24q0 9 -6.5 14t-17.5 5q-21 0 -54 -16t-70.5 -42.5
t-75.5 -59.5t-69 -66l-107 -115h-85l266 303h91l-111 -119h1q81 64 133 95.5t87 31.5q27 0 40 -16t14 -37q0 -34 -22 -72l1 -2q31 24 59 47t53.5 41t47.5 28.5t42 10.5q18 0 35 -15t17 -55q0 -31 -30 -73t-79 -93q-29 -31 -41 -44t-12 -21q0 -14 18 -14q29 0 87.5 48
t139.5 135l5 -10v0z" />
    <glyph glyph-name="n" unicode="n" horiz-adv-x="463" 
d="M514 169q-80 -90 -139.5 -137t-94.5 -47q-27 0 -39 17t-12 45q0 34 39.5 82.5t102.5 111.5q25 25 25 36q0 22 -26 22q-18 0 -47.5 -16t-63 -42.5t-69 -59t-65.5 -65.5l-105 -116h-93l275 302h88l-81 -88l1 -1q22 19 44.5 37t44 31.5t40.5 21.5t33 8q22 0 38 -15.5
t16 -54.5q0 -31 -30 -73t-79 -93q-29 -31 -41 -44t-12 -20q0 -6 5 -10.5t13 -4.5q29 0 87.5 48t139.5 135l5 -10v0z" />
    <glyph glyph-name="o" unicode="o" horiz-adv-x="426" 
d="M478 170q-17 -14 -37.5 -24.5t-43.5 -10.5q-28 0 -44 14q-30 -35 -60.5 -64.5t-61.5 -52t-63 -35t-65 -12.5q-40 0 -61 22.5t-21 53.5q0 24 13 52t35 56.5t50.5 55t60 47t63 33t60.5 12.5q22 0 35.5 -5.5t24.5 -21.5q9 5 18 7q11 0 20 -8.5t9 -25.5q0 -24 -14 -50.5
t-37 -53.5q9 -7 20 -9.5t23 -2.5q15 0 37 10t36 24l3 -11v0zM352 284q-3 6 -9 10.5t-16 4.5q-16 0 -34 -12.5t-51 -44.5q-44 -43 -81.5 -83.5t-67.5 -78.5q-13 -17 -18 -29t-5 -23q0 -12 9 -21.5t29 -9.5q29 0 59.5 13.5t60.5 35.5t59 50.5t54 59.5q-10 8 -17.5 22t-7.5 30
q0 23 11.5 45t24.5 31z" />
    <glyph glyph-name="p" unicode="p" horiz-adv-x="463" 
d="M510 166q-33 -32 -67 -64.5t-66 -58.5t-59.5 -42t-47.5 -16t-38 12.5t-18 44.5q0 19 12.5 40.5t33.5 45t47.5 49.5t53.5 54q18 18 25 28t7 16q0 10 -7 17t-20 7q-18 0 -49.5 -18t-64.5 -43t-62 -50t-42 -40l-350 -388h-93l491 542h90l-79 -85l2 -1q20 16 41.5 33t42.5 31
t40.5 23t35.5 9q23 0 38 -16.5t15 -46.5q0 -24 -12.5 -49t-30.5 -49t-40 -46t-40 -40.5t-30.5 -32.5t-12.5 -21q0 -15 15 -15q29 0 90.5 49t144.5 131l4 -10v0z" />
    <glyph glyph-name="q" unicode="q" 
d="M545 160q-29 -23 -65 -48.5t-76.5 -49t-84 -42.5t-87.5 -29l-221 -231h-92l237 245l-2 2q-17 -11 -35.5 -16.5t-35.5 -5.5q-28 0 -43.5 19t-15.5 53q0 48 31.5 93.5t77.5 81t97.5 57.5t91.5 22q32 0 48.5 -14.5t16.5 -31.5q0 -13 -6 -25l2 -1l58 63h91l-284 -293l2 -3
q40 12 79.5 30.5t77 41t71.5 46t63 45.5l4 -9v0zM374 264q0 17 -11.5 25t-26.5 8t-33.5 -9t-45.5 -32.5t-66.5 -64.5t-97.5 -106q-13 -14 -20.5 -24t-11.5 -17t-5 -12t-1 -10q0 -10 8.5 -17t27.5 -7q15 0 31.5 6.5t33.5 17.5t33 24t29 27q55 55 86.5 88.5t47 53.5t19 30
t3.5 19z" />
    <glyph glyph-name="r" unicode="r" horiz-adv-x="333" 
d="M393 290q0 -19 -13 -34.5t-32.5 -27.5t-41 -20.5t-36.5 -12.5q-3 -8 -1 -22q2 -12 10 -22t22 -10q23 0 40 11t30 26l7 -6q-14 -16 -32 -29.5t-42 -13.5q-23 0 -34 12t-14 26q-2 13 1 25q-57 -15 -97 -41t-78 -69l-73 -82h-89l268 302h91l-133 -143l2 -3q23 17 50.5 28
t58.5 19q5 16 17 35t27 35.5t32 27t32 10.5q10 0 19 -4.5t9 -16.5z" />
    <glyph glyph-name="s" unicode="s" horiz-adv-x="352" 
d="M411 160q-26 -38 -64 -63t-89 -33q-16 -15 -34 -29t-39 -25.5t-45 -18t-53 -6.5q-48 0 -69 23t-21 54q0 19 7.5 39t20 36t28 26t31.5 10t27 -11t11 -28q0 -19 -14 -32t-29 -13q-13 0 -20.5 5.5t-11 13t-5 14t-2.5 9.5q-14 -12 -22 -31t-8 -41q0 -23 13.5 -39.5
t34.5 -16.5q22 0 51 23t57 51q16 16 34.5 36.5t33.5 40.5t25 39t10 34q0 11 -5.5 26t-16.5 29l-82 -77l-7 5l83 78q-4 7 -7 13.5t-3 13.5q0 14 5 27t13 22.5t17.5 15.5t18.5 6q8 0 13.5 -6.5t5.5 -14.5q0 -10 -6 -21t-14.5 -21.5t-17 -19l-13.5 -13.5q26 -41 40.5 -68.5
t14.5 -55.5q0 -12 -4 -25t-9.5 -25.5t-12 -23t-12.5 -16.5q42 10 74.5 31t59.5 58l7 -5v0z" />
    <glyph glyph-name="t" unicode="t" horiz-adv-x="278" 
d="M349 368h67l-8 -12h-70l-262 -286q-24 -26 -34 -39t-10 -20q0 -6 5 -10t13 -4q14 0 35 8.5t51 28.5t70.5 53t94.5 82l9 -6q-42 -39 -81 -72t-73 -56.5t-62.5 -37t-49.5 -13.5q-26 0 -38.5 16t-12.5 37q0 24 14 49.5t51 65.5l188 204h-68l9 12h69l126 137h93z" />
    <glyph glyph-name="u" unicode="u" 
d="M543 160q-39 -36 -76 -67.5t-69.5 -55.5t-60.5 -38t-49 -14q-25 0 -39.5 15t-14.5 39q0 25 13 45l-2 2q-21 -19 -42.5 -37t-44 -32.5t-45 -23.5t-44.5 -9q-29 0 -47.5 20t-18.5 46q0 24 12.5 47t45.5 61l124 144h94l-192 -218q-29 -33 -37.5 -46t-8.5 -20q0 -10 9 -15.5
t23 -5.5q19 0 44 10.5t52.5 30t57 46.5t58.5 59l142 159h93l-212 -236q-23 -26 -30.5 -35.5t-7.5 -17.5q0 -16 19 -16q30 0 94 44t151 127l9 -8v0z" />
    <glyph glyph-name="v" unicode="v" horiz-adv-x="426" 
d="M469 167q-14 -20 -39 -31t-45 -11q-11 0 -23 3.5t-20 10.5q-69 -69 -131 -111.5t-129 -42.5q-38 0 -59 22t-21 48q0 29 12.5 53t38.5 54l124 140h94l-200 -227q-20 -23 -26.5 -34t-6.5 -16q0 -13 11.5 -21t31.5 -8q34 0 66.5 12t63 32.5t60.5 47t60 55.5q-11 10 -16.5 23
t-5.5 27t8.5 34.5t21 39t28.5 31.5t31 13q14 0 19 -8.5t5 -19.5q0 -23 -22 -60t-53 -73q7 -5 16.5 -9t21.5 -4q17 -1 37.5 7.5t40.5 28.5l6 -6v0z" />
    <glyph glyph-name="w" unicode="w" horiz-adv-x="648" 
d="M691 167q-14 -20 -39 -31t-45 -11q-25 0 -43 13q-80 -80 -142 -117t-113 -37q-29 0 -49 15t-20 47q0 23 9 43l-2 1q-48 -48 -92.5 -76.5t-81.5 -28.5q-29 0 -47 17.5t-18 45.5q0 21 8.5 42t36.5 53l136 159h98l-208 -234q-20 -23 -26.5 -33t-6.5 -19q0 -19 29 -19
q24 0 53.5 15.5t61.5 41t64.5 58t62.5 65.5l111 125h93l-187 -212q-31 -35 -43 -49.5t-12 -24.5q0 -20 31 -20q21 0 45 6.5t53.5 23t65 45t79.5 72.5q-11 10 -16.5 23t-5.5 27t8.5 34.5t21 39t28.5 31.5t31 13q14 0 19 -8.5t5 -19.5q0 -23 -22 -60t-53 -73q7 -5 16.5 -9
t21.5 -4q17 -1 37.5 7.5t40.5 28.5l6 -6v0z" />
    <glyph glyph-name="x" unicode="x" horiz-adv-x="481" 
d="M527 164q-47 -48 -85 -82t-69.5 -55.5t-58 -31.5t-50.5 -10q-44 0 -67.5 18.5t-23.5 62.5v17q-3 -5 -18 -21t-34.5 -33t-40.5 -30.5t-38 -13.5q-23 0 -39.5 16.5t-16.5 48.5q0 26 15 42.5t35 16.5q17 0 28 -12t11 -31t-13 -30t-28 -11q-12 0 -20.5 4.5t-13.5 9.5h-1
q3 -23 13.5 -32.5t31.5 -9.5q18 0 41.5 17t46.5 41t42.5 49t31.5 41q16 21 36 50t30 53q6 13 6 22q0 13 -8 20.5t-21 7.5q-17 0 -38 -11t-42.5 -26t-40.5 -31.5t-31 -26.5l-9 4q13 14 34 32t44.5 33.5t47.5 26.5t44 11q32 0 54.5 -18.5t22.5 -45.5q0 -16 -6 -32l2 -2
q38 48 64.5 73t54.5 25q20 0 38 -11.5t18 -34.5q0 -21 -11.5 -33.5t-31.5 -12.5q-17 0 -28.5 9.5t-11.5 28.5q0 20 19 39q-16 -1 -38.5 -20.5t-48 -48.5t-51.5 -64t-50 -67q-18 -25 -23.5 -39t-5.5 -25q0 -12 11 -23t29 -11q45 0 104.5 42t148.5 131l9 -6v0z" />
    <glyph glyph-name="y" unicode="y" horiz-adv-x="481" 
d="M540 175q-27 -25 -63 -52t-76 -51.5t-81 -43.5t-78 -28l-43 -46q-52 -56 -102.5 -99.5t-96.5 -74t-85.5 -46.5t-69.5 -16q-23 0 -40.5 13.5t-17.5 36.5q0 27 28 55t76 56t112.5 54.5t136.5 51.5l68 73l-2 1q-40 -32 -72.5 -45.5t-58.5 -13.5t-41.5 14.5t-15.5 40.5
q0 23 10.5 48.5t40.5 59.5l124 139h100l-197 -208q-23 -24 -32.5 -38t-9.5 -25q0 -19 25 -19q36 0 86 30t100 84l160 176h99l-265 -283l1 -2q36 10 72 27.5t71 39.5t68 47.5t62 50.5l7 -7v0zM123 -31q-49 -17 -105.5 -40t-105 -49t-80.5 -54.5t-32 -56.5q0 -17 12 -28
t30 -11q21 0 46.5 12.5t59.5 40.5t77 73t99 110z" />
    <glyph glyph-name="z" unicode="z" horiz-adv-x="445" 
d="M481 166q-66 -84 -119 -133t-95 -49q-17 0 -41.5 8.5t-65.5 37.5q-50 -46 -111 -46q-31 0 -48 16t-17 39q0 34 29 61t78 27q26 0 53 -11.5t57 -31.5q5 6 15.5 17.5t22 25t22.5 27t18 21.5l-2 2q-8 -4 -18 -5.5t-16 -1.5q-20 0 -38.5 10.5t-18.5 28.5q0 10 5.5 19.5
t11.5 18t11.5 15.5t5.5 12q0 10 -12 10q-6 0 -19 -6.5t-28.5 -17t-33 -24.5t-33.5 -28l-9 5q17 16 38.5 33.5t43.5 31.5t43 23.5t37 9.5q21 0 34.5 -13t13.5 -24t-8 -21.5t-18 -21t-18 -19.5t-8 -17q0 -13 17 -13q7 0 16 2.5t14 7.5q4 5 13.5 16t20 22.5t20 22t12.5 13.5
q23 23 39 34t30 11q9 0 14.5 -5.5t5.5 -13.5q0 -23 -38.5 -52t-113.5 -61q-5 -7 -15.5 -20.5t-23 -28.5t-24.5 -29t-21 -22q37 -24 59.5 -37t45.5 -13q26 0 65.5 37t93.5 106l8 -6v0zM433 289q2 11 -10 11q-6 0 -13.5 -4t-19.5 -14.5t-29.5 -29t-44.5 -48.5l-6 -6l2 -1
q18 9 39 20.5t39.5 24.5t30.5 25.5t12 21.5zM152 35q-32 25 -57.5 39t-49.5 14q-19 0 -33.5 -12.5t-14.5 -33.5q0 -20 13.5 -32t39.5 -12q25 0 50 8.5t52 28.5z" />
    <glyph glyph-name="braceleft" unicode="{" horiz-adv-x="426" 
d="M703 718q-27 -2 -46.5 -9t-34.5 -18t-28 -26t-27 -34l-164 -214q-15 -20 -32 -36t-39.5 -28t-51 -20t-66.5 -11l-1 -2q20 -8 32.5 -24t12.5 -34q0 -34 -47 -96l-147 -194q-17 -21 -21.5 -33t-4.5 -20q0 -11 9.5 -20t30.5 -9h34l-10 -12h-50q-34 0 -49.5 12.5t-15.5 32.5
q0 8 2.5 16.5t8 19t15 24t23.5 32.5l148 195q18 23 23.5 37t5.5 26q0 41 -47 52v1q36 6 62.5 14t48 20.5t40 30.5t37.5 43l150 198q42 55 89 77t115 22l-5 -13v0z" />
    <glyph glyph-name="bar" unicode="|" horiz-adv-x="444" 
d="M292 -15v737h36v-737h-36z" />
    <glyph glyph-name="braceright" unicode="}" horiz-adv-x="426" 
d="M586 686q0 -16 -10.5 -35.5t-38.5 -56.5l-148 -195q-18 -23 -23.5 -37t-5.5 -26q0 -41 47 -52v-1q-36 -6 -62.5 -14t-48 -20.5t-40 -30.5t-37.5 -43l-150 -198q-21 -28 -43 -47t-47 -30.5t-54.5 -16.5t-65.5 -5l5 12q29 2 49 8.5t36 18t29 27t28 34.5l164 214
q15 19 32 35.5t39.5 28.5t51 20t66.5 11l1 2q-20 8 -32.5 24t-12.5 34q0 34 47 96l147 194q17 21 21.5 33t4.5 20q0 11 -9.5 20t-30.5 9h-34l10 12h50q34 0 49.5 -12.5t15.5 -32.5z" />
    <glyph glyph-name="asciitilde" unicode="~" horiz-adv-x="666" 
d="M610 286q-9 -16 -21 -31.5t-27.5 -27.5t-34.5 -19.5t-40 -7.5q-29 0 -58 10.5t-58 24.5q-28 14 -54 24.5t-49 10.5q-26 0 -50 -20t-44 -50l-29 20q9 16 21 31.5t28 27.5t34.5 19.5t40.5 7.5q29 0 58 -10.5t57 -24.5t54 -24.5t50 -10.5q26 0 50 20t44 50l28 -20v0z" />
    <glyph glyph-name="afii10051" unicode="&#x402;" horiz-adv-x="976" 
d="M1166 721q-32 -53 -76 -73.5t-105 -20.5q-38 0 -86 5.5t-101 12.5t-107.5 12.5t-107.5 5.5q-45 0 -89 -10t-83.5 -28.5t-73 -43.5t-58 -55.5t-38.5 -64t-14 -68.5q0 -38 22.5 -65t61.5 -27q32 0 64 20t58 51.5t42 69t16 72.5q0 24 -7 46t-12 30l10 2q10 -18 18 -42t8 -43
q0 -45 -16.5 -85t-43.5 -69t-62 -46t-73 -17q-46 0 -72 29.5t-26 72.5q0 65 40 125t105.5 105.5t148.5 72.5t170 27q40 0 89.5 -5t100.5 -12t97 -12.5t76 -5.5q32 0 63.5 8t54.5 31l6 -5v0zM801 430q30 0 56.5 -5t46.5 -17t31.5 -32.5t11.5 -51.5q0 -33 -26 -71t-69.5 -76
t-100 -73.5t-117 -62.5t-121.5 -43t-113 -16l-2 11q40 0 90.5 18t102.5 48t101.5 68t88 79t62 81t23.5 73q0 35 -20.5 45.5t-51.5 9.5q-13 0 -29.5 -3t-32.5 -8.5t-30.5 -12.5t-24.5 -15q-56 -71 -109 -140.5t-113.5 -125.5t-133.5 -90.5t-168 -34.5q-30 0 -57 5t-47.5 16.5
t-32.5 29t-12 42.5q0 23 14.5 40.5t38.5 17.5q21 0 36.5 -13t15.5 -36q0 -21 -13.5 -32.5t-32.5 -14.5q-17 -2 -17 -10q0 -4 8 -9.5t21.5 -11t32.5 -9t42 -3.5q58 0 100 20.5t82 58.5q36 34 69.5 75.5t66.5 85t65.5 86t65.5 80.5q41 46 82 82.5t85 62.5t91.5 41.5
t100.5 19.5l2 -11q-29 -2 -57 -13.5t-54 -29t-49.5 -39.5t-44.5 -46q-14 -16 -27 -31.5t-26 -32.5h1q18 9 46.5 16.5t51.5 7.5z" />
    <glyph glyph-name="afii10052" unicode="&#x403;" horiz-adv-x="648" 
d="M1102 913q-16 -45 -54.5 -75.5t-79.5 -44.5l-2 10q26 20 45.5 48t26.5 62h64v0zM1148 720q-37 -51 -81 -76t-114 -25q-39 0 -86.5 7t-99.5 15q-54 8 -109.5 14.5t-110.5 6.5q-71 0 -132.5 -25.5t-107 -64.5t-71.5 -86.5t-26 -90.5q0 -17 5 -33.5t15.5 -29.5t27 -21
t38.5 -8q32 0 63.5 19.5t56.5 50.5t40.5 68t15.5 73q0 25 -5 46t-7 29h7q9 -17 16 -40.5t7 -46.5q0 -41 -14 -79t-39.5 -67.5t-61 -47t-77.5 -17.5q-45 0 -72.5 28.5t-27.5 74.5q0 60 37.5 118.5t99 105t139.5 75.5t158 29q45 0 96.5 -6.5t102.5 -14.5t96.5 -15t75.5 -7
q37 0 73.5 9t63.5 36l8 -4v0zM940 585q-45 -1 -88 -26t-81 -60q-25 -24 -53.5 -55.5t-56 -65t-52 -65.5t-41.5 -55q-44 -60 -90.5 -110t-99.5 -86.5t-113 -56.5t-130 -20q-65 0 -106.5 22t-41.5 71q0 23 14 40t37 17q20 0 34 -14t14 -37q0 -22 -13 -32t-28 -12
q-8 -2 -13 -3.5t-5 -6.5q0 -8 22.5 -20.5t75.5 -12.5t91.5 14.5t76.5 48.5q31 27 61 60.5t61 71t62.5 77.5t64.5 79q40 48 84.5 92.5t93 78.5t103 55t115.5 23l2 -12v0z" />
    <glyph glyph-name="quotesinglbase" unicode="&#x201a;" horiz-adv-x="222" 
d="M20 -68q17 9 38.5 24.5t35.5 33.5l-2 2q-3 -3 -7 -3.5t-9 -0.5q-11 0 -18.5 8.5t-7.5 19.5q0 20 14 32t26 12q14 0 23 -7.5t9 -24.5t-11 -33t-26 -29.5t-31 -24.5t-26 -17z" />
    <glyph glyph-name="afii10100" unicode="&#x453;" horiz-adv-x="328" 
d="M359 521q-16 -45 -54.5 -75.5t-79.5 -44.5l-2 10q26 20 45.5 48t26.5 62h64v0zM328 86q-23 -17 -52 -35t-59.5 -32.5t-59.5 -24t-52 -9.5q-31 0 -46.5 17t-15.5 37q0 19 9 36.5t21 31.5l125 138q9 11 19.5 24t10.5 21q0 13 -17 13q-15 0 -35.5 -9t-42 -21.5t-41.5 -26
t-33 -22.5l-8 8q18 13 39.5 27.5t44 27.5t44.5 21.5t42 8.5t33.5 -13t13.5 -29q1 -18 -7.5 -44t-31.5 -52l-82 -94q-4 -5 -13 -14.5t-18 -20.5t-15.5 -21t-6.5 -15q0 -16 16 -17q20 0 44.5 8t52.5 21.5t57.5 31t58.5 36.5l5 -8v0z" />
    <glyph glyph-name="quotedblbase" unicode="&#x201e;" horiz-adv-x="352" 
d="M226 36q0 -19 -12 -36.5t-29 -32.5t-36 -27.5t-32 -19.5l-9 7q25 13 48.5 31.5t37.5 38.5h-1q-1 0 -2 1q-7 -4 -17 -4t-21 8t-11 24q0 20 15 33t31 13t27 -10.5t11 -25.5zM116 37q0 -19 -12 -36.5t-29 -32.5t-36 -27.5t-32 -19.5l-9 7q25 13 48.5 31.5t37.5 38.5h-1
q-1 0 -2 1q-7 -4 -17 -4t-21 8t-11 24q0 20 15 33t31 13t27 -10.5t11 -25.5z" />
    <glyph glyph-name="ellipsis" unicode="&#x2026;" horiz-adv-x="1000" 
d="M833 43q0 -18 -15.5 -33.5t-32.5 -15.5t-26.5 9t-9.5 26q0 18 15.5 33.5t32.5 15.5t26.5 -9t9.5 -26zM500 43q0 -18 -15.5 -33.5t-32.5 -15.5t-26.5 9t-9.5 26q0 18 15.5 33.5t32.5 15.5t26.5 -9t9.5 -26zM167 43q0 -18 -15.5 -33.5t-32.5 -15.5t-26.5 9t-9.5 26
q0 18 15.5 33.5t32.5 15.5t26.5 -9t9.5 -26z" />
    <glyph glyph-name="dagger" unicode="&#x2020;" horiz-adv-x="704" 
d="M810 426q-58 5 -124.5 8t-137.5 4q-60 -78 -122 -161t-119 -160t-104 -143.5t-76 -111.5h-72q112 134 224 276.5t229 299.5q-33 0 -69 -0.5l-72 -1t-70 -2.5t-62 -5l35 48q57 -7 123 -8t135 -2q46 61 90 121.5t86 124.5l64 1q-33 -34 -84.5 -98.5t-114.5 -148.5
q69 0 139 2t136 7z" />
    <glyph glyph-name="daggerdbl" unicode="&#x2021;" horiz-adv-x="668" 
d="M18 116q57 -5 116 -6.5t134 -1.5q63 80 129 166.5t125 165.5h-64.5t-71.5 -0.5t-69.5 -2t-59.5 -5.5l30 40q57 -5 117.5 -6.5t135.5 -1.5q57 76 99 136t65 98h52q-24 -24 -72.5 -85t-114.5 -149q66 0 133 1.5t133 6.5l-32 -40q-59 4 -119 6t-134 2q-30 -39 -61.5 -80.5
t-63 -84.5t-63 -85t-59.5 -82q65 0 131 1.5t132 6.5l-32 -40q-59 4 -118 6t-131 2q-54 -73 -97 -132.5t-72 -101.5h-54q37 45 84.5 104t102.5 130h-64t-70.5 -0.5t-68.5 -2t-58 -5.5z" />
    <glyph glyph-name="perthousand" unicode="&#x2030;" horiz-adv-x="1186" 
d="M1246 358q0 -32 -17.5 -53t-46.5 -27q-7 -20 -25 -49.5t-43 -62t-56 -64.5t-65 -57t-70 -41t-71 -16q-20 0 -32 12.5t-12 33.5q0 30 17.5 67.5t45.5 76t64 74.5t73 64t71.5 45t60.5 17q21 0 33.5 -6t20.5 -12l-8 -8q-6 8 -17 11t-25 3q-17 0 -47 -20.5t-66 -53t-73.5 -72
t-68 -76.5t-50 -67.5t-19.5 -44.5q0 -23 10 -27.5t24 -4.5q25 0 54.5 13.5t60.5 35.5t62 51t58 60t49 61.5t36 56.5q-20 0 -32 8.5t-12 22.5q0 13 9 21t21 8q15 0 22.5 -8.5t7.5 -19.5t-4 -20q23 5 35.5 25t12.5 43h12zM578 570q0 -32 -17.5 -53t-46.5 -27q-8 -21 -25.5 -50
t-42.5 -61.5t-56 -64.5t-65 -57t-70 -41t-71 -16q-20 0 -32 12.5t-12 33.5q0 30 17.5 67.5t45.5 76t64 74.5t73 64t71.5 45t60.5 17q21 0 33.5 -6t20.5 -12l-8 -8q-6 8 -17 11t-25 3q-16 0 -46.5 -20.5t-66.5 -53t-73.5 -72t-68 -76.5t-50 -67.5t-19.5 -44.5q0 -23 10 -27.5
t24 -4.5q25 0 54.5 13.5t60.5 35.5t62 51t58 60t49 61.5t36 56.5q-20 0 -32 8.5t-12 22.5q0 13 9 21t21 8q15 0 22.5 -8.5t7.5 -19.5t-4 -20q23 5 35.5 25t12.5 43h12zM800 594q-152 -155 -308.5 -306.5t-301.5 -303.5h-28q76 76 153.5 151.5t154.5 150.5t153 151.5
t149 156.5h28zM892 358q0 -32 -17.5 -53t-46.5 -27q-7 -20 -25 -49.5t-43 -62t-56 -64.5t-65 -57t-70 -41t-71 -16q-20 0 -32 12.5t-12 33.5q0 30 17.5 67.5t45.5 76t64 74.5t73 64t71.5 45t60.5 17q21 0 33.5 -6t20.5 -12l-8 -8q-6 8 -17 11t-25 3q-16 0 -46.5 -20.5
t-66.5 -53t-73.5 -72t-68 -76.5t-50 -67.5t-19.5 -44.5q0 -23 10 -27.5t24 -4.5q25 0 54.5 13.5t60.5 35.5t62 51t58 60t49 61.5t36 56.5q-20 0 -32 8.5t-12 22.5q0 13 9 21t21 8q15 0 22.5 -8.5t7.5 -19.5t-4 -20q23 5 35.5 25t12.5 43h12z" />
    <glyph glyph-name="afii10058" unicode="&#x409;" horiz-adv-x="1142" 
d="M1002 706q0 4 -6 4q-28 -5 -67 -31t-93 -75t-126 -122t-165 -172q-22 -23 -52 -56.5t-65 -69.5t-73.5 -71.5t-78.5 -64t-79.5 -46t-76.5 -17.5q-21 0 -42 5t-37.5 15.5t-26.5 27t-10 40.5q0 27 14.5 43.5t37.5 16.5q22 0 34.5 -14t12.5 -34q0 -21 -12 -35t-33 -14
q-6 0 -11 -1t-5 -3q0 -7 6.5 -13t17 -11t23.5 -8t26 -3q34 0 70.5 16.5t74.5 43t76 60t73 69t65.5 69t55.5 59.5q45 48 92 97t92 94.5t87.5 85t79 68.5t67 46t51.5 17q11 0 22 -6.5t11 -22.5q0 -19 -6 -36t-22 -43q-15 -25 -45.5 -62.5t-68.5 -82t-81 -94t-83 -98.5
q-46 -55 -66 -99.5t-20 -85.5q0 -44 28.5 -69t87.5 -25t108.5 16t89.5 42.5t70.5 60t51.5 69t31.5 70.5t10.5 63q0 41 -19.5 64.5t-65.5 23.5q-41 0 -80.5 -17t-71 -44t-51 -61t-19.5 -69q0 -38 23 -54t60 -16q28 0 54.5 17.5t47 45.5t33 62.5t12.5 68.5h12q0 -37 -11.5 -74
t-32.5 -66.5t-50.5 -47.5t-65.5 -18q-44 0 -69.5 20t-25.5 62t21 79.5t55 65t75.5 43.5t82.5 16q57 0 90.5 -30.5t33.5 -87.5t-29.5 -113.5t-82 -101.5t-125 -73t-157.5 -28q-54 0 -89.5 12t-55.5 32.5t-28 48.5t-8 60q0 30 11.5 61.5t30 61.5t41.5 59t45 55q72 85 140 156
t131 142q8 9 15 19t7 13z" />
    <glyph glyph-name="guilsinglleft" unicode="&#x2039;" horiz-adv-x="296" 
d="M88 0q8 20 11 44t3 48q0 23 -2 45.5t-8 42.5q50 18 93.5 47t77.5 65l5 -4q-26 -41 -61.5 -73.5t-74.5 -58.5q0 -35 -10.5 -78t-25.5 -78h-8z" />
    <glyph glyph-name="afii10059" unicode="&#x40a;" horiz-adv-x="1283" 
d="M1313 302q0 -57 -29.5 -113.5t-82 -102t-125 -73.5t-157.5 -28q-50 0 -85 13t-57.5 35.5t-33 54t-10.5 67.5q0 42 17.5 83.5t48.5 86.5l-166 -12q-2 -2 -5 -6.5t-5 -6.5q-41 -62 -90.5 -118.5t-107.5 -100.5t-123.5 -70t-138.5 -26q-24 0 -51 5t-49.5 17t-37.5 30.5
t-15 45.5q0 22 13.5 40t38.5 18q23 0 37.5 -12.5t14.5 -35.5q0 -26 -14 -35t-28 -11q-8 -1 -14.5 -3.5t-6.5 -8.5q0 -5 8.5 -11.5t23.5 -12.5t34.5 -10t41.5 -4q57 0 108 28.5t96.5 73.5t87 99.5t80.5 105.5q32 43 72.5 90t85.5 92.5t92 87t92 73.5l-1 3q-42 -22 -82.5 -38
t-87.5 -16q-32 0 -57 13.5t-50.5 29t-53.5 29t-65 13.5q-31 0 -67.5 -15.5t-67.5 -41.5t-52 -62t-21 -76q0 -47 31.5 -70.5t74.5 -23.5q34 0 71 14.5t70 37.5t57.5 53t35.5 62l8 -3q-11 -37 -32.5 -70t-51 -58t-66.5 -39.5t-79 -14.5q-27 0 -51 7t-41.5 21t-28 36t-10.5 52
q0 43 27 84.5t69.5 74.5t94.5 53t101 20q35 0 64.5 -13.5t57 -30t54.5 -30t56 -13.5q37 0 82 21t81 51l6 -11q-92 -72 -166.5 -167t-141.5 -204q4 1 27.5 2.5t51.5 3.5t54 3.5t34 3.5q6 8 12.5 16.5t13.5 16.5q12 17 37 44t57 59t68 66t71 63.5t66 51.5t53 32l34 -8
q-16 -10 -44 -34t-60.5 -56.5t-67.5 -70t-66.5 -72.5t-56.5 -64t-37 -46q-45 -61 -75.5 -121.5t-30.5 -113.5q0 -48 34.5 -75.5t97.5 -27.5q59 0 108 16t89.5 42t71 60t51 69.5t31 70.5t10.5 63q0 41 -20 64.5t-65 23.5q-41 0 -80.5 -16.5t-71 -43.5t-51 -61.5t-19.5 -70.5
q0 -38 23 -53.5t60 -15.5q28 0 54.5 17.5t47 45.5t33 62.5t12.5 68.5h12q0 -37 -11.5 -73.5t-32.5 -66t-50.5 -48t-65.5 -18.5q-44 0 -69.5 20t-25.5 62t21 79.5t55 65t75.5 43.5t82.5 16q57 0 90.5 -30.5t33.5 -87.5z" />
    <glyph glyph-name="afii10061" unicode="&#x40c;" horiz-adv-x="1130" 
d="M1193 913q-16 -45 -54.5 -75.5t-79.5 -44.5l-2 10q26 20 45.5 48t26.5 62h64v0zM1318 655q0 -20 -12 -34t-34 -14q-50 0 -50 44q0 18 9 27.5t20 12.5q12 2 12 7q0 8 -13 10t-24 2q-35 0 -65 -23t-59.5 -59.5t-61 -81t-67.5 -86.5t-79 -77t-96 -52q11 -13 17 -29.5
t6 -32.5q0 -23 -18 -51.5t-39.5 -58t-39.5 -57.5t-18 -51q0 -27 25.5 -40.5t57.5 -13.5q35 0 71.5 13.5t70.5 35t63.5 49t51.5 56t34.5 54.5t12.5 46q0 23 -13.5 37t-36.5 14t-47 -10.5t-47 -27t-43 -37t-34 -40.5l-8 3q13 22 33 44t44 40t50 29t52 11q32 0 47 -21t15 -50
q0 -42 -23.5 -87.5t-66 -83.5t-101 -62.5t-128.5 -24.5q-23 0 -47.5 6t-45 19t-34 33.5t-13.5 49.5t17.5 57t40 56t44 56.5t28.5 58.5q-14 -4 -29 -7t-32 -3q-10 0 -21 1.5t-20 6t-15 12.5t-7 21q-19 -25 -45 -61.5t-58.5 -77.5t-73 -81.5t-89 -73t-105.5 -53t-123 -20.5
q-31 0 -59 6t-49 18.5t-33.5 32t-12.5 45.5q0 24 15 40.5t39 16.5q23 0 34.5 -13.5t11.5 -33.5q0 -21 -9 -31.5t-19.5 -15t-19.5 -7t-9 -6.5q0 -11 27.5 -25.5t77.5 -14.5q39 0 71 10.5t62 30.5t59 50.5t61 69.5q55 69 105.5 134.5t102.5 126.5t109 117t125 106l-2 2
q-34 -17 -70.5 -29.5t-73.5 -12.5q-35 0 -66 12.5t-61.5 27t-61.5 27t-65 12.5q-29 0 -62 -17t-62 -45t-48 -64t-19 -75q0 -24 8.5 -41.5t22 -29t31.5 -17.5t37 -6q40 0 76.5 19t66 46t50 56.5t28.5 50.5l10 -2q-11 -32 -32.5 -65.5t-50.5 -60.5t-63.5 -44.5t-71.5 -17.5
q-26 0 -49 8.5t-39.5 23.5t-26 35.5t-9.5 44.5q0 52 28.5 96.5t69.5 76.5t87 50.5t81 18.5q40 0 77.5 -12.5t71 -28t64 -28t57.5 -12.5q16 0 38.5 8t45.5 19.5t44 24.5t36 24l6 -9q-50 -31 -90.5 -69.5t-74 -82t-63 -90t-57.5 -91.5l1 -2q12 9 33 9q20 1 45 -9.5t42 -33.5
q39 19 72.5 54.5t64.5 78t63 87t68.5 81t79.5 59.5t98 23q41 0 63.5 -18t22.5 -49zM774 334q-8 12 -30 23.5t-47 11.5q-19 0 -26 -6t-7 -14q0 -11 13.5 -18t36.5 -8q25 0 58 11h2z" />
    <glyph glyph-name="afii10060" unicode="&#x40b;" horiz-adv-x="1110" 
d="M1166 721q-32 -53 -76 -73.5t-105 -20.5q-38 0 -86 5.5t-101 12.5t-107.5 12.5t-107.5 5.5q-68 0 -132 -22.5t-114 -60t-80.5 -86.5t-30.5 -101q0 -38 22.5 -65t61.5 -27q32 0 64 20t58 51.5t42 69t16 72.5q0 24 -6.5 46t-11.5 30l9 2q10 -18 18.5 -42t8.5 -43
q0 -45 -16 -85t-43 -69t-62.5 -46t-73.5 -17q-46 0 -72.5 29.5t-26.5 72.5t18 84.5t50.5 78.5t76.5 67.5t96 52.5t109 34.5t115 12.5q40 0 89.5 -5t99.5 -12q51 -7 97 -12.5t76 -5.5q32 0 63.5 8t54.5 31l7 -5v0zM1154 231q0 -27 -11 -55.5t-30.5 -56t-46 -52t-57.5 -43
t-64.5 -29t-66.5 -10.5q-62 0 -97 31.5t-35 87.5q0 37 18.5 68.5t41 61.5t41.5 60t19 66q0 35 -20.5 45.5t-51.5 9.5q-13 0 -29.5 -3t-32.5 -8.5t-30.5 -12.5t-24.5 -15q-56 -71 -109 -140.5t-113.5 -125.5t-133.5 -90.5t-168 -34.5q-30 0 -57 5t-48 16.5t-33 29t-12 42.5
q0 23 14.5 40.5t38.5 17.5q21 0 37 -13t16 -36q0 -21 -13.5 -32.5t-32.5 -14.5q-8 -1 -13 -3t-5 -7q0 -4 8 -9.5t22 -11t33 -9t42 -3.5q58 0 100 20.5t82 58.5q36 34 69.5 75.5t66.5 85t65.5 86t65.5 80.5q82 94 167 146t191 60l3 -11q-29 -2 -57 -13.5t-54 -29t-50 -39.5
t-45 -46q-14 -16 -27 -31.5t-26 -32.5l2 -1q18 9 46.5 17.5t51.5 8.5q60 1 92.5 -23.5t32.5 -86.5q0 -45 -19 -82t-41.5 -68.5t-41.5 -59t-19 -52.5q0 -31 20.5 -46.5t54.5 -15.5q25 0 54 12.5t57.5 33.5t54.5 47t46 53.5t32 53t12 44.5q0 23 -13 34.5t-33 11.5
q-19 0 -39.5 -11t-39 -27.5t-35 -35t-28.5 -32.5l-10 5q12 17 30 37t38.5 37t42 28.5t42.5 11.5q10 0 21 -3.5t20.5 -11.5t15.5 -21.5t6 -32.5z" />
    <glyph glyph-name="afii10145" unicode="&#x40f;" horiz-adv-x="1019" 
d="M476 0q-47 -62 -91 -121.5t-83 -124.5h-57q54 59 103 121.5t97 124.5h31v0zM668 176q-52 -59 -52 -112q0 -67 77 -67q48 0 97 29t89.5 69.5t66 83t25.5 69.5q0 21 -12.5 32t-29.5 11q-22 0 -46.5 -15.5t-48 -37t-43.5 -45t-34 -39.5l-9 6q14 18 35.5 42.5t47 47t51.5 38
t49 15.5q20 0 39 -15.5t19 -53.5q0 -43 -27 -87.5t-69.5 -80.5t-95 -58.5t-104.5 -22.5q-32 0 -55.5 9.5t-39 25t-23.5 35t-8 39.5q0 23 8 47.5t17 40.5l-1 1q-48 -50 -88 -87t-75 -62t-65.5 -37t-60.5 -12q-45 0 -72 25t-27 70q0 40 28 87t69.5 96.5t90 99t90 95.5
t69.5 86.5t28 71.5q0 94 -105 94q-39 0 -82 -13.5t-84.5 -36t-78.5 -53t-65 -65t-44.5 -71t-16.5 -71.5q0 -36 20.5 -56t53.5 -20q26 0 58.5 16t61.5 45q40 38 59.5 82t18.5 99h12l1 -35q1 -42 -16 -81.5t-46.5 -70t-67.5 -49t-80 -18.5q-38 0 -62.5 22t-24.5 67
q0 36 17 73.5t45.5 73t66.5 67.5t80 55.5t86.5 37.5t85.5 14q34 0 64.5 -8t53.5 -25.5t36 -44.5t13 -66q0 -37 -29 -82.5t-73 -94.5t-95 -99t-95 -97t-73 -87.5t-29 -70.5q0 -27 18 -38.5t47 -11.5q33 0 73 23t83.5 59.5t87.5 82.5t85 91l364 404h92z" />
    <glyph glyph-name="afii10099" unicode="&#x452;" horiz-adv-x="463" 
d="M401 433h130l-6 -12h-135l-215 -226l1 -2q25 21 51.5 40.5t51.5 35t47 25t39 9.5q23 0 36 -15.5t13 -42.5q0 -16 -10.5 -41.5t-30 -54t-46.5 -57t-59.5 -52t-69.5 -38t-76 -14.5q-32 0 -44 15t-12 32t8.5 28t22.5 11t23.5 -8t9.5 -21q0 -14 -9 -23t-20 -9q-10 0 -10 -4
q0 -3 6.5 -6t22.5 -3q11 0 34 19t52 48t59.5 63t55.5 64t41 51.5t16 25.5q0 20 -22 20q-14 0 -41.5 -13.5t-61 -36t-68.5 -51.5t-63 -60l-116 -130h-96l389 421h-116l6 12h121l154 167h96z" />
    <glyph glyph-name="quoteleft" unicode="&#x2018;" horiz-adv-x="259" 
d="M451 714q-24 -12 -47.5 -30.5t-37.5 -38.5q0 -1 1 -1h2q7 4 17 4t21 -8t11 -24q0 -20 -15 -33t-31 -13t-27.5 10.5t-11.5 24.5q0 19 12 37t29.5 33t36.5 27t32 20l8 -8v0z" />
    <glyph glyph-name="quoteright" unicode="&#x2019;" horiz-adv-x="259" 
d="M451 686q0 -19 -12 -36.5t-29 -32.5t-36 -26.5t-32 -18.5l-9 7q25 11 48.5 29.5t37.5 38.5h-1q-1 0 -2 1q-7 -4 -17 -4t-21 8t-11 24q0 20 15 33t31 13t27 -10.5t11 -25.5z" />
    <glyph glyph-name="quotedblleft" unicode="&#x201c;" horiz-adv-x="352" 
d="M554 714q-24 -12 -47.5 -30.5t-37.5 -38.5q0 -1 1 -1h2q7 4 17 4t21 -8t11 -24q0 -20 -15 -33t-31 -13t-27.5 10.5t-11.5 24.5q0 19 12 37t29.5 33t36.5 27t32 20l8 -8v0zM442 715q-24 -12 -47.5 -30.5t-37.5 -38.5q0 -1 1 -1h2q7 4 17 4t21 -8t11 -24q0 -20 -15 -33
t-31 -13t-27.5 10.5t-11.5 24.5q0 19 12 37t29.5 33t36.5 27t32 20l8 -8v0z" />
    <glyph glyph-name="quotedblright" unicode="&#x201d;" horiz-adv-x="352" 
d="M554 686q0 -19 -12 -36.5t-29 -32.5t-36 -26.5t-32 -18.5l-9 7q25 11 48.5 29.5t37.5 38.5h-1q-1 0 -2 1q-7 -4 -17 -4t-21 8t-11 24q0 20 15 33t31 13t27 -10.5t11 -25.5zM442 687q0 -19 -12 -36.5t-29 -32.5t-36 -26.5t-32 -18.5l-9 7q25 11 48.5 29.5t37.5 38.5h-1
q-1 0 -2 1q-7 -4 -17 -4t-21 8t-11 24q0 20 15 33t31 13t27 -10.5t11 -25.5z" />
    <glyph glyph-name="bullet" unicode="&#x2022;" horiz-adv-x="583" 
d="M367 483q36 0 68.5 -14t56.5 -38t38.5 -56t14.5 -69q0 -36 -14 -68.5t-38.5 -57t-57 -38.5t-68.5 -14t-68.5 14t-56.5 38t-38 56.5t-14 68.5q0 37 14 69.5t38 56.5t56 38t69 14z" />
    <glyph glyph-name="endash" unicode="&#x2013;" 
d="M492 178h-500l16 24h500z" />
    <glyph glyph-name="emdash" unicode="&#x2014;" horiz-adv-x="1000" 
d="M992 178h-1000l16 24h1000z" />
    <glyph glyph-name="trademark" unicode="&#x2122;" horiz-adv-x="995" 
d="M1067 704q-48 0 -48 -46v-257q0 -15 8 -22t19 -7h13v-12h-136v12h12q12 0 21 7t9 22v231h-2l-136 -273h-8l-135 273h-2v-230q0 -16 9 -23t22 -7h13v-12h-108v12h13q12 0 21 7t9 22v261q0 9 -6 17t-15 13.5t-19.5 8.5t-19.5 3v12h95l141 -282l146 282h84v-12v0zM547 638
q-3 26 -16.5 43t-40.5 17h-49v-291q0 -23 12.5 -29t29.5 -5v-11h-138v11q18 0 30.5 5.5t12.5 28.5v291h-46q-28 0 -41 -17t-16 -43h-15v78h291v-78h-14z" />
    <glyph glyph-name="afii10106" unicode="&#x459;" horiz-adv-x="589" 
d="M652 197q-2 0 -3 -3.5t-2 -4.5q-30 -17 -67.5 -33.5t-77.5 -26.5q-2 -26 -18.5 -52t-45 -46.5t-66.5 -33t-83 -12.5q-38 0 -54.5 20.5t-16.5 46.5q0 12 4 25.5t15 31t30 40t49 53.5q13 13 25.5 26.5t22.5 25.5t16 21.5t6 14.5q0 14 -15 14q-18 0 -38.5 -12t-43 -32
t-46 -46.5t-47.5 -55.5q-17 -21 -38 -50.5t-45 -57t-50 -46.5t-54 -19q-27 0 -44 18t-17 46q0 26 15 45.5t40 19.5q17 0 28 -10t11 -28t-13 -33.5t-33 -15.5q-11 0 -19.5 5.5t-13.5 13.5l-2 1q1 -24 15 -37t34 -13q24 0 49.5 19.5t49 47t45 57t38.5 49.5q15 19 36.5 44.5
t45.5 48t49 38.5t49 16q16 0 30 -12.5t14 -49.5q0 -29 -30 -71t-81 -96q-15 -17 -24.5 -28t-14 -18.5t-6 -13t-1.5 -10.5q0 -21 31 -21q48 0 85 14t61.5 34t38 42t15.5 38v2q-25 -5 -45 -5q-15 0 -28.5 4.5t-13.5 18.5q0 12 14.5 23t34.5 11q21 0 34.5 -11t15.5 -28
q42 10 78.5 26.5t64.5 32.5q2 1 3.5 -1t3.5 -1z" />
    <glyph glyph-name="guilsinglright" unicode="&#x203a;" horiz-adv-x="296" 
d="M208 292q-8 -20 -11 -44t-3 -48q0 -23 2 -45.5t8 -42.5q-50 -18 -93.5 -47t-77.5 -65l-5 4q26 41 61.5 73.5t74.5 58.5q0 35 10.5 78t25.5 78h8z" />
    <glyph glyph-name="afii10107" unicode="&#x45a;" horiz-adv-x="610" 
d="M669 189q-30 -17 -67.5 -33.5t-78.5 -26.5q-2 -26 -18.5 -52t-44.5 -46.5t-66 -33t-83 -12.5q-38 0 -55.5 16t-19.5 37q-2 26 9 53.5t34 53.5h-139l-132 -145h-91l275 302h90l-131 -145h138l129 145h89l-192 -214q-15 -17 -25 -34.5t-12 -31.5q-2 -25 34 -25q48 0 85 14
t61.5 34t38 42t15.5 38l-1 2q-25 -5 -44 -5q-15 0 -29 4.5t-14 18.5q0 12 14.5 23t35.5 11t34.5 -11t15.5 -28q42 10 78.5 26.5t64.5 32.5l2 -10v0z" />
    <glyph glyph-name="afii10109" unicode="&#x45c;" horiz-adv-x="481" 
d="M444 521q-16 -45 -54.5 -75.5t-79.5 -44.5l-2 10q26 20 45.5 48t26.5 62h64v0zM456 302q23 0 36.5 -12t13.5 -30q1 -22 -14 -36.5t-35 -14.5q-16 0 -26 11.5t-10 25.5q0 11 5.5 21t13.5 15q5 2 7 5q0 2 -2 2.5t-4 1.5q-21 -3 -37.5 -25t-36 -46.5t-44.5 -44t-63 -18.5
l-1 -2q31 -2 48 -17t17 -35q0 -14 -8 -28t-17.5 -26.5t-18 -23t-8.5 -16.5q0 -12 17 -12q20 0 46.5 8.5t55 22.5t57 31.5t53.5 34.5l6 -9q-24 -17 -53 -35t-60 -32.5t-61.5 -24.5t-56.5 -10q-34 0 -49 14t-15 34q0 13 7.5 28t17.5 29t18.5 25.5t8.5 16.5q0 7 -8 12.5
t-31 5.5h-68l-125 -148h-90l264 302h84l-123 -142h48q36 0 61 10.5t43.5 26t32.5 34t29 34.5t32.5 26.5t42.5 10.5z" />
    <glyph glyph-name="afii10108" unicode="&#x45b;" horiz-adv-x="463" 
d="M401 433h130l-6 -12h-135l-215 -226l1 -2q25 21 51.5 40.5t51.5 35t47 25t39 9.5q23 0 36 -15.5t13 -42.5q0 -32 -23 -64.5t-67 -78.5q-41 -44 -59 -63.5t-18 -27.5q0 -13 14 -15q32 0 93 48t144 130l5 -9q-33 -35 -68 -67.5t-67 -57.5t-60 -40t-49 -15q-7 0 -15.5 2.5
t-15.5 9.5t-11.5 18.5t-4.5 29.5q0 15 7 30.5t17.5 30.5t23 29t23.5 26q48 50 71.5 74.5t23.5 35.5q0 20 -22 20q-14 0 -41.5 -13.5t-61 -36t-68.5 -51.5t-63 -60l-116 -130h-96l389 421h-116l6 12h121l154 167h96z" />
    <glyph glyph-name="afii10193" unicode="&#x45f;" 
d="M191 1q-23 -31 -37.5 -49.5t-27 -35t-26 -36t-32.5 -51.5h-55q27 29 45 48t33 36.5t31.5 37t40.5 50.5h28v0zM234 39q0 25 13 45l-2 2q-21 -19 -42.5 -37t-44 -32.5t-45 -23.5t-44.5 -9q-29 0 -47.5 20t-18.5 46q0 24 12.5 47t45.5 61l124 144h94l-192 -218
q-29 -33 -37.5 -46t-8.5 -20q0 -10 9 -15.5t23 -5.5q19 0 44 10.5t52.5 30t57 46.5t58.5 59l142 159h93l-212 -236q-23 -26 -30.5 -35.5t-7.5 -17.5q0 -16 19 -16q22 0 50 9.5t58 24.5t59.5 33.5t54.5 36.5l6 -9q-24 -17 -54 -36t-61.5 -35t-62 -26t-54.5 -10q-25 0 -38 15
t-13 39z" />
    <glyph glyph-name="nonbreakingspace" unicode="&#xa0;" horiz-adv-x="222" 
 />
    <glyph glyph-name="afii10062" unicode="&#x40e;" horiz-adv-x="945" 
d="M569 11q37 4 77 14.5t79.5 26.5t74.5 38.5t61 52t40 65t11 78.5q4 3 1.5 13.5t-3.5 15.5h11q4 -14 6.5 -28.5t2.5 -28.5q0 -48 -17.5 -84.5t-46.5 -64.5t-67 -47.5t-79 -32.5t-82 -20.5t-77 -11.5q-130 -144 -236.5 -208.5t-186.5 -64.5q-16 0 -31.5 4t-28 12.5t-20 22.5
t-7.5 34q0 146 420 206l119 133l-2 3q-24 -22 -51 -43t-56 -37t-59 -25.5t-60 -9.5q-47 0 -71.5 25t-24.5 66q0 25 13.5 49t30.5 47q9 12 31 37.5t51 58t61.5 67.5t61 67t50.5 56.5t30 35.5q17 22 27 41.5t10 37.5q0 26 -11 44.5t-29 30.5t-40.5 17.5t-44.5 5.5
q-44 0 -88.5 -14.5t-85.5 -38.5t-76.5 -55t-62 -65t-41.5 -68.5t-15 -64.5q0 -39 23.5 -66t65.5 -27q31 0 68.5 23t70.5 58.5t55 77t22 78.5q0 20 -3 35l8 3q2 -12 5 -24t3 -24q0 -44 -18 -86.5t-49.5 -76.5t-73.5 -55t-90 -21q-45 0 -72 28t-27 73q0 39 17 78t46 75t67 67
t79.5 53.5t83.5 35.5t80 13q51 0 87 -13t59 -33.5t33.5 -46t10.5 -51.5q0 -30 -20.5 -63.5t-47.5 -66.5q-10 -12 -31.5 -35.5t-49.5 -53.5t-58.5 -62.5t-58 -61.5t-48 -51.5t-28.5 -32.5q-19 -23 -29.5 -42.5t-10.5 -33.5q-1 -19 15 -29t44 -10q25 0 54.5 11t59 28
t58.5 38.5t53 42t42.5 38.5t28.5 29l397 450h98zM458 -10q-106 -15 -181 -36t-122.5 -46t-69.5 -53t-22 -57q0 -32 21 -47t53 -15q31 0 60.5 11.5t65.5 40.5t82.5 77t113.5 122zM1145 903q-15 -29 -50 -55t-81 -46t-98 -31.5t-100 -11.5q-53 0 -82.5 13t-29.5 41
q0 25 19.5 46t50 37t67.5 25t72 9t49.5 -8.5t14.5 -25.5q0 -12 -8 -20.5t-20.5 -15.5t-29 -12t-33.5 -10l-2 12q15 4 29 8.5t25.5 9.5t18.5 12t7 16q0 13 -12 17.5t-38 4.5q-27 0 -55.5 -11t-51 -27.5t-37 -34.5t-14.5 -31q0 -17 12.5 -28t51.5 -11q43 0 92.5 10t94.5 28
t80 42.5t49 52.5l9 -5v0z" />
    <glyph glyph-name="afii10110" unicode="&#x45e;" horiz-adv-x="481" 
d="M564 467q-15 -18 -41 -34t-57 -29t-65 -20t-65 -7q-44 0 -58.5 10.5t-14.5 27.5t14 33.5t40 29.5l71 -1q-13 -6 -24.5 -15t-20.5 -18.5t-14.5 -18t-5.5 -14.5q0 -21 23 -21q28 0 59 6.5t60 18.5t53 27t39 32l7 -7v0zM526 175q-27 -25 -63 -52t-76 -51.5t-81 -43.5
t-78 -28l-43 -46q-52 -56 -102.5 -99.5t-96.5 -74t-85.5 -46.5t-69.5 -16q-23 0 -40.5 13.5t-17.5 36.5q0 27 28 55t76 56t112.5 54.5t136.5 51.5l68 73l-2 1q-40 -32 -72.5 -45.5t-58.5 -13.5t-41.5 14.5t-15.5 40.5q0 23 10.5 48.5t40.5 59.5l124 139h100l-197 -208
q-23 -24 -32.5 -38t-9.5 -25q0 -19 25 -19q36 0 86 30t100 84l160 176h99l-265 -283l1 -2q36 10 72 27.5t71 39.5t68 47.5t62 50.5l7 -7v0zM109 -31q-49 -17 -105.5 -40t-105 -49t-80.5 -54.5t-32 -56.5q0 -17 12 -28t30 -11q21 0 46.5 12.5t59.5 40.5t77 73t99 110z" />
    <glyph glyph-name="afii10057" unicode="&#x408;" horiz-adv-x="815" 
d="M1060 690q-86 -58 -154.5 -137t-131 -164.5t-124 -171.5t-132.5 -157q58 9 113 32t98.5 57t70 78t26.5 94q0 9 -1 18t-3 21h7q9 -21 9 -52q0 -70 -32 -117t-81 -76.5t-106.5 -45t-108.5 -22.5q-36 -44 -90.5 -98.5t-115.5 -103.5t-122.5 -82t-111.5 -33q-38 0 -54.5 20.5
t-16.5 47.5q0 38 30.5 74t86 68t133 59.5t172.5 48.5q60 86 119 162.5t123.5 148t137.5 139.5t161 136v3q-29 -16 -63 -27.5t-66 -11.5q-34 0 -63 11t-58.5 24t-62 24t-73.5 11q-42 0 -90.5 -26.5t-90 -67t-69 -89t-27.5 -93.5q0 -40 22.5 -66.5t66.5 -26.5q40 0 83 23
t78 58t58 77t25 80v10q0 4 0.5 8t0.5 6l10 1q2 -10 2 -20t-1 -21q-3 -41 -23 -82.5t-53 -75.5t-76.5 -55t-94.5 -21q-50 0 -80 25t-30 74q0 39 16 78.5t43.5 77t63 70.5t75 57.5t80 38.5t76.5 14q43 0 79 -12t68 -26t62.5 -26t62.5 -12q24 0 43.5 5t36 12.5t31.5 17t32 19.5
l4 -10v0zM410 32q-41 -9 -87 -21.5t-90.5 -29t-84.5 -36.5t-70.5 -43t-48.5 -48t-18 -52t15.5 -43.5t44.5 -16.5q37 0 76.5 23.5t81.5 63.5t87.5 92l94.5 108z" />
    <glyph glyph-name="currency" unicode="&#xa4;" horiz-adv-x="518" 
d="M165 126q-57 67 -57 149t57 149l-49 49l19 19l49 -49q70 57 149 57q82 0 149 -57l49 49l19 -19l-49 -49q57 -70 57 -149q0 -82 -57 -149l49 -49l-19 -19l-49 50q-67 -58 -149 -58q-79 0 -149 57l-49 -49l-19 19zM132 275q0 -42 16 -78.5t43 -63.5t63.5 -43t78.5 -16
t78.5 16t63.5 43t43 63.5t16 78.5t-16 78.5t-43 63.5t-63.5 43t-78.5 16t-78.5 -16t-63.5 -43t-43 -63.5t-16 -78.5z" />
    <glyph glyph-name="afii10050" unicode="&#x490;" horiz-adv-x="648" 
d="M940 585q-45 -1 -88 -26t-81 -60q-25 -24 -53.5 -55.5t-56 -65t-52 -65.5t-41.5 -55q-44 -60 -90.5 -110t-99.5 -86.5t-113 -56.5t-130 -20q-65 0 -106.5 22t-41.5 71q0 23 14 40t37 17q20 0 34 -14t14 -37q0 -22 -13 -32t-28 -12q-8 -2 -13 -3.5t-5 -6.5
q0 -8 22.5 -20.5t75.5 -12.5t91.5 14.5t76.5 48.5q31 27 61 60.5t61 71t62.5 77.5t64.5 79q40 48 84.5 92.5t93 78.5t103 55t115.5 23l2 -12v0zM1043 545h-69l81 94q-43 -20 -102 -20q-39 0 -86.5 7t-99.5 15q-54 8 -109.5 14.5t-110.5 6.5q-71 0 -132.5 -25.5t-107 -64.5
t-71.5 -86.5t-26 -90.5q0 -17 5 -33.5t15.5 -29.5t27 -21t38.5 -8q32 0 63.5 19.5t56.5 50.5t40.5 68t15.5 73q0 25 -5 46t-7 29h7q9 -17 16 -40.5t7 -46.5q0 -41 -14 -79t-39.5 -67.5t-61 -47t-77.5 -17.5q-45 0 -72.5 28.5t-27.5 74.5q0 60 37.5 118.5t99 105t139.5 75.5
t158 29q45 0 96.5 -6.5t102.5 -14.5t96.5 -15t75.5 -7q28 0 55.5 4.5t51.5 18.5l130 149h80z" />
    <glyph glyph-name="brokenbar" unicode="&#xa6;" horiz-adv-x="444" 
d="M316 256h24v-274h-24v274zM316 716h24v-274h-24v274z" />
    <glyph glyph-name="section" unicode="&#xa7;" horiz-adv-x="703" 
d="M821 595q0 -24 -12.5 -39t-34.5 -15q-23 0 -36 12.5t-13 31.5q0 22 13 33.5t30 13.5q10 1 17 1t10 2l1 1q-4 16 -17 30t-31.5 23.5t-42.5 15t-50 5.5t-50 -6t-42.5 -19t-29.5 -33.5t-11 -48.5q0 -45 16.5 -87t37.5 -84q13 -26 26 -51t23.5 -50.5t17 -51t6.5 -51.5
q0 -34 -17 -64t-43 -52.5t-57.5 -35.5t-60.5 -13q-11 0 -21.5 2t-15.5 3q2 -11 3 -20t1 -18q0 -42 -19 -73.5t-49.5 -52.5t-69 -31.5t-77.5 -10.5q-35 0 -65.5 9.5t-53.5 26.5t-36.5 39.5t-13.5 49.5q0 26 15 41.5t35 15.5t33.5 -13t13.5 -34q0 -19 -9.5 -30t-24.5 -15
q-12 -3 -21 -1.5t-11 4.5h-1q0 -15 11.5 -29.5t30 -26t42.5 -18.5t50 -7q28 0 56 8t49.5 24.5t35 41t13.5 56.5q0 19 -5.5 42t-15 47.5t-21.5 50.5t-25 51q-25 49 -44.5 95t-19.5 82t17 64.5t43 49t58.5 31t64.5 10.5q19 0 39 -5q-3 11 -5 22.5t-2 22.5q0 41 16.5 70.5
t43.5 48t62.5 27.5t73.5 9q32 0 62.5 -7.5t54 -23.5t38 -39.5t14.5 -56.5zM589 190q0 31 -15.5 74.5t-36.5 88t-41 86t-29 70.5q-8 3 -17.5 4t-20.5 1q-22 0 -44 -6.5t-40 -20t-29.5 -33t-11.5 -46.5q0 -18 8 -43.5t20.5 -55.5t27.5 -62t29 -62.5t25.5 -57.5t16.5 -46
q5 -1 14 -2.5t20 -1.5q23 0 45.5 8t40 22.5t28 35.5t10.5 47z" />
    <glyph glyph-name="afii10023" unicode="&#x401;" horiz-adv-x="642" 
d="M937 900q17 0 25.5 -10.5t8.5 -27.5t-13.5 -31.5t-30.5 -14.5t-26 10.5t-9 27.5t14 31.5t31 14.5zM799 900q17 0 26 -10.5t9 -27.5t-13.5 -31.5t-30.5 -14.5t-26 10.5t-9 27.5t13.5 31.5t30.5 14.5zM872 664q0 -26 -21.5 -50.5t-57 -47.5t-81.5 -42.5t-96 -34.5
t-100 -24.5t-93 -11.5q-6 -11 -4 -20q0 -2 8 -8q6 1 15 1.5t19 0.5q11 0 25.5 -2.5t28 -7.5t23 -13.5t9.5 -21.5q0 -15 -13 -22.5t-28 -7.5q-26 0 -53.5 12.5t-41.5 38.5q-26 -14 -56 -36t-60 -49.5t-58.5 -58t-50.5 -60.5t-35 -57.5t-13 -49.5q0 -17 8 -34t24.5 -30.5
t42.5 -22t62 -8.5q68 0 131 25.5t112 62t78 76.5t29 68q0 35 -22.5 49t-52.5 14q-36 0 -68 -12.5t-59 -31.5t-49 -42.5t-38 -44.5l-11 5q15 21 37 45t50.5 44.5t63 34.5t72.5 14q40 0 67.5 -19t27.5 -63q0 -39 -27 -80.5t-75 -76.5t-113.5 -57.5t-142.5 -22.5
q-90 0 -140.5 42.5t-50.5 117.5q0 55 29.5 102t75 83t99.5 59.5t103 31.5q-8 15 -9 31q-38 0 -75.5 7.5t-67 23t-48 41.5t-18.5 64q0 30 16 53.5t41.5 39.5t57 24.5t61.5 8.5q38 0 70 -6.5t71 -20.5l-5 -10q-29 11 -60.5 18t-67.5 7q-28 0 -54.5 -8t-47 -23t-33 -35.5
t-12.5 -45.5q0 -38 15 -61.5t39 -38t54.5 -20.5t62.5 -7q3 41 22.5 76t50.5 64t70.5 51.5t82 37.5t85 23t79.5 8q43 0 67 -13.5t24 -45.5zM859 663q0 30 -19.5 38.5t-45.5 8.5q-27 0 -60 -12t-68 -32t-70 -45.5t-67 -53t-58 -54t-42 -48.5q34 2 79.5 10.5t93.5 22t94 32
t82 40t58.5 45.5t22.5 48zM535 383q0 8 -8 14t-18.5 10t-22 6t-18.5 2q-11 0 -22 -1.5t-21 -5.5q11 -19 35 -31.5t46 -12.5q11 0 20 4t9 15z" />
    <glyph glyph-name="copyright" unicode="&#xa9;" horiz-adv-x="900" 
d="M924 354q0 -77 -28.5 -144t-79 -117t-117.5 -79t-143 -29q-77 0 -144 29t-117.5 79t-79.5 117t-29 143t29 143.5t79 117.5t117 79t143 29t143.5 -29t118 -79t79.5 -117t29 -143zM888 353q0 70 -26.5 131.5t-71.5 107.5t-105.5 73t-128.5 27t-128.5 -27t-106 -73
t-72 -107.5t-26.5 -130.5q0 -70 26.5 -131.5t71.5 -107.5t105.5 -73t128.5 -27t128.5 27t106 73t72 107.5t26.5 130.5zM718 183q-3 -11 -23 -17q-19 -6 -50.5 -11.5t-67.5 -5.5q-52 0 -94.5 13t-73 39.5t-47 66t-16.5 92.5q0 35 15.5 71.5t46 66t75 48.5t102.5 19
q40 0 68 -5.5t43 -12.5q27 -11 27 -20v-77h-18q-4 44 -34.5 67.5t-90.5 23.5q-41 0 -71 -13t-50 -36.5t-30 -56t-10 -71.5q0 -41 9 -76.5t29 -61t51.5 -40t75.5 -14.5q56 0 87.5 22.5t47.5 64.5h19z" />
    <glyph glyph-name="afii10053" unicode="&#x404;" horiz-adv-x="717" 
d="M918 626q0 -21 -14 -35t-36 -14t-34 11t-12 28q0 23 11.5 34t24.5 15q14 3 14 12t-17.5 15t-48.5 6q-49 0 -99.5 -23t-99.5 -59t-94.5 -81t-84.5 -89q-14 -16 -28.5 -33.5t-29.5 -36.5h264l-7 -12h-267q-8 -10 -15.5 -19.5t-14.5 -18.5q-57 -75 -95 -138.5t-38 -111.5
q0 -42 27 -60.5t71 -18.5q29 0 61.5 12.5t64 32.5t60 45.5t50 52.5t34 53t12.5 46q0 27 -16.5 41.5t-39.5 14.5q-24 0 -50 -12t-50 -30.5t-44.5 -42.5t-33.5 -48l-10 6q10 20 30 44t46 45t55.5 35.5t58.5 14.5q37 0 54.5 -25t17.5 -60q0 -41 -25.5 -83.5t-67.5 -76.5
t-95 -55.5t-107 -21.5q-146 0 -146 150q0 41 17 85t46.5 89.5t68.5 90.5t83 88q48 46 101.5 86.5t109.5 71t113.5 48t113.5 17.5q54 0 82.5 -22.5t28.5 -62.5z" />
    <glyph glyph-name="guillemotleft" unicode="&#xab;" horiz-adv-x="426" 
d="M425 293q-29 -39 -64 -73t-73 -58q-1 -38 -11 -81.5t-29 -78.5l-12 1q6 22 9 46t4 48q0 24 -2.5 47.5t-9.5 45.5q24 7 50 19.5t50 27.5t45 31t36 31l7 -6v0zM296 293q-29 -39 -63.5 -73t-72.5 -58q-1 -38 -11 -81.5t-29 -78.5l-12 1q6 22 9 46t4 48q0 24 -2.5 47.5
t-9.5 45.5q24 7 50 19.5t50 27.5t45 31t36 31l6 -6v0z" />
    <glyph glyph-name="logicalnot" unicode="&#xac;" horiz-adv-x="666" 
d="M600 107v225h-470v36h506v-260z" />
    <glyph glyph-name="registered" unicode="&#xae;" horiz-adv-x="900" 
d="M924 354q0 -77 -28.5 -144t-79 -117t-117.5 -79t-143 -29q-77 0 -144 29t-117.5 79t-79.5 117t-29 143t29 143.5t79 117.5t117 79t143 29t143.5 -29t118 -79t79.5 -117t29 -143zM887 353q0 70 -26.5 131.5t-71.5 107.5t-105 73t-128 27t-129 -27t-106.5 -73t-72 -107.5
t-26.5 -130.5q0 -70 26 -131.5t71.5 -107.5t106.5 -73t129 -27t128.5 27t105.5 73t71.5 107.5t26.5 130.5zM700 159q-9 0 -17 3.5t-23 20t-40 52t-67 98.5h-60v-125q0 -18 8.5 -25.5t29.5 -7.5h16v-15h-164v15h22q14 0 23 6.5t9 23.5v306q0 17 -8.5 23t-25.5 6h-20v15h173
q27 0 52 -6t44 -18.5t30 -31.5t11 -45q0 -41 -24 -70.5t-62 -41.5l92 -126q17 -24 29.5 -34t27.5 -12v-10zM632 451q0 24 -7 40t-19 25.5t-27.5 13.5t-33.5 4h-52v-180h55q84 0 84 97z" />
    <glyph glyph-name="afii10056" unicode="&#x407;" horiz-adv-x="611" 
d="M894 900q17 0 25.5 -10.5t8.5 -27.5t-13.5 -31.5t-30.5 -14.5t-26 10.5t-9 27.5t14 31.5t31 14.5zM756 900q17 0 26 -10.5t9 -27.5t-13.5 -31.5t-30.5 -14.5t-26 10.5t-9 27.5t13.5 31.5t30.5 14.5zM939 710q-43 -28 -81.5 -69t-74.5 -88.5t-70.5 -99.5t-67.5 -102.5
t-66 -97.5t-67 -85q-35 -38 -74 -71.5t-83.5 -58.5t-95.5 -39t-108 -14q-20 0 -44.5 4t-46.5 14.5t-37 29t-15 46.5q0 26 15.5 43t39.5 17q23 0 38 -15t15 -38q0 -21 -9.5 -30t-21 -12.5t-21 -5t-9.5 -7.5q0 -4 5.5 -9.5t17 -11t29.5 -9.5t44 -4q45 0 88 19.5t82.5 52t76 74
t70 85t64 85t58.5 74.5q36 42 63 75.5t56.5 65t66.5 65t93 76.5l-2 3q-35 -18 -77.5 -35t-87.5 -17q-28 0 -55.5 7t-56.5 16q-30 10 -61 17.5t-65 7.5q-39 0 -84 -23.5t-83 -62t-63.5 -87t-25.5 -98.5q0 -51 23 -79.5t71 -28.5q30 0 65.5 21t67 56.5t52.5 82.5t23 99l11 1
q1 -5 1 -10.5v-10.5q0 -56 -18.5 -102.5t-49 -79.5t-69.5 -51t-81 -18q-53 0 -80.5 31.5t-27.5 89.5q0 57 32.5 114.5t83 104t110 76t113.5 29.5q33 0 66 -6.5t65 -14.5q34 -8 66.5 -16t63.5 -8q38 0 72.5 11t64.5 31l6 -9v0z" />
    <glyph glyph-name="degree" unicode="&#xb0;" horiz-adv-x="400" 
d="M528 444q0 -29 -11.5 -55t-31 -45.5t-45.5 -30.5t-55 -11t-55 11t-45.5 30.5t-31 45.5t-11.5 55q0 30 11 56t30.5 45.5t45.5 30.5t55 11t55.5 -11t46 -30.5t31 -45.5t11.5 -56zM497 444q0 23 -9 44t-24 36.5t-35 24.5t-43 9q-24 0 -44.5 -9t-36 -24.5t-24.5 -36t-9 -43.5
t9 -44t24 -36.5t35.5 -24.5t43.5 -9q24 0 44.5 9t35.5 24.5t24 36t9 43.5z" />
    <glyph glyph-name="plusminus" unicode="&#xb1;" horiz-adv-x="666" 
d="M636 282h-10h-26.5h-38h-43.5h-117v-187h-36v187h-235v35h235v189h36v-189h235v-35v0zM130 -1v36h506v-36h-506z" />
    <glyph glyph-name="afii10055" horiz-adv-x="594" 
d="M939 710q-43 -28 -81.5 -69t-74.5 -88.5t-70.5 -99.5t-67.5 -102.5t-66 -97.5t-67 -85q-35 -38 -74 -71.5t-83.5 -58.5t-95.5 -39t-108 -14q-20 0 -44.5 4t-46.5 14.5t-37 29t-15 46.5q0 26 15.5 43t39.5 17q23 0 38 -15t15 -38q0 -21 -9.5 -30t-21 -12.5t-21 -5
t-9.5 -7.5q0 -4 5.5 -9.5t17 -11t29.5 -9.5t44 -4q45 0 88 19.5t82.5 52t76 74t70 85t64 85t58.5 74.5q36 42 63 75.5t56.5 65t66.5 65t93 76.5l-2 3q-35 -18 -77.5 -35t-87.5 -17q-28 0 -55.5 7t-56.5 16q-30 10 -61 17.5t-65 7.5q-39 0 -84 -23.5t-83 -62t-63.5 -87
t-25.5 -98.5q0 -51 23 -79.5t71 -28.5q30 0 65.5 21t67 56.5t52.5 82.5t23 99l11 1q1 -5 1 -10.5v-10.5q0 -56 -18.5 -102.5t-49 -79.5t-69.5 -51t-81 -18q-53 0 -80.5 31.5t-27.5 89.5q0 57 32.5 114.5t83 104t110 76t113.5 29.5q33 0 66 -6.5t65 -14.5q34 -8 66.5 -16
t63.5 -8q38 0 72.5 11t64.5 31l6 -9v0z" />
    <glyph glyph-name="afii10103" unicode="&#x456;" horiz-adv-x="278" 
d="M327 455q0 17 14.5 32t35.5 15q17 0 28.5 -10.5t11.5 -26.5q0 -17 -14.5 -32t-35.5 -15q-17 0 -28.5 10.5t-11.5 26.5zM318 167q-99 -91 -162.5 -137t-97.5 -46q-28 0 -41.5 16t-13.5 41q0 17 9 37t30 44l158 180h89l-204 -230q-14 -16 -23.5 -26t-14.5 -17t-7 -10.5
t-2 -6.5q0 -16 22 -16q31 -1 88.5 42.5t159.5 134.5l8 -6h2z" />
    <glyph glyph-name="mu" unicode="&#xb5;" 
d="M543 160q-39 -36 -76 -67.5t-69.5 -55.5t-60.5 -38t-49 -14q-25 0 -39.5 15t-14.5 39q0 25 13 45l-2 2q-21 -19 -42.5 -37t-44 -32.5t-45 -23.5t-44.5 -9q-14 0 -27 7t-16 23l-226 -254h-97l482 542h94l-192 -218q-29 -33 -37 -46t-9 -20q0 -10 9 -15.5t23 -5.5
q19 0 44 10.5t52.5 30t57 46.5t58.5 59l142 159h93l-212 -236q-23 -26 -30 -35.5t-8 -17.5q0 -16 19 -16q30 0 94 44t151 127l9 -8v0z" />
    <glyph glyph-name="mu" unicode="&#x3bc;" 
d="M543 160q-39 -36 -76 -67.5t-69.5 -55.5t-60.5 -38t-49 -14q-25 0 -39.5 15t-14.5 39q0 25 13 45l-2 2q-21 -19 -42.5 -37t-44 -32.5t-45 -23.5t-44.5 -9q-14 0 -27 7t-16 23l-226 -254h-97l482 542h94l-192 -218q-29 -33 -37 -46t-9 -20q0 -10 9 -15.5t23 -5.5
q19 0 44 10.5t52.5 30t57 46.5t58.5 59l142 159h93l-212 -236q-23 -26 -30 -35.5t-8 -17.5q0 -16 19 -16q30 0 94 44t151 127l9 -8v0z" />
    <glyph glyph-name="paragraph" unicode="&#xb6;" horiz-adv-x="600" 
d="M959 695h-16.5t-14.5 -1q-43 -2 -69 -18t-44 -42l-476 -674q-17 -23 -22 -34t-5 -16q0 -12 17 -16.5t55 -4.5l-12 -12h-147l579 818h-66l-578 -818h-148l11 12q45 0 77 13.5t63 57.5l247 351q-29 0 -55.5 7t-46.5 20t-32 32t-12 44q0 48 33 99.5t91 94.5t136.5 71
t169.5 28h278zM683 695q-64 0 -124.5 -28.5t-108 -72.5t-76.5 -96t-29 -99q0 -40 21 -56.5t56 -16.5l261 369v0z" />
    <glyph glyph-name="periodcentered" unicode="&#xb7;" horiz-adv-x="222" 
d="M170 286q0 17 13.5 29.5t28.5 12.5q12 0 21 -7.5t9 -22.5q0 -17 -13.5 -29.5t-28.5 -12.5q-12 0 -21 7.5t-9 22.5z" />
    <glyph glyph-name="periodcentered" unicode="&#x2219;" horiz-adv-x="222" 
d="M170 286q0 17 13.5 29.5t28.5 12.5q12 0 21 -7.5t9 -22.5q0 -17 -13.5 -29.5t-28.5 -12.5q-12 0 -21 7.5t-9 22.5z" />
    <glyph glyph-name="afii10071" unicode="&#x451;" horiz-adv-x="334" 
d="M378 506q17 0 25.5 -10.5t8.5 -27.5t-13.5 -31.5t-30.5 -14.5t-25.5 10.5t-8.5 27.5t13.5 31.5t30.5 14.5zM242 506q17 0 25.5 -10.5t8.5 -27.5t-13.5 -31.5t-30.5 -14.5t-25.5 10.5t-8.5 27.5t13.5 31.5t30.5 14.5zM362 264q0 -33 -24 -58t-59.5 -42t-76.5 -25.5
t-74 -9.5q-26 -28 -41.5 -47t-23.5 -31.5t-10.5 -20t-2.5 -12.5q0 -13 11.5 -17.5t26.5 -4.5q25 0 60 10.5t71 26.5t69.5 35t57.5 37l6 -9q-23 -17 -57.5 -37t-72 -36.5t-73.5 -27.5t-63 -11q-31 0 -53 16.5t-22 48.5q0 48 31.5 95t77.5 85t96.5 61.5t89.5 23.5q26 0 41 -14
t15 -36zM333 281q0 9 -5.5 15t-13.5 6q-14 0 -36 -17.5t-41 -37.5l-99 -106q36 0 71 13.5t62.5 34t44.5 45t17 47.5z" />
    <glyph glyph-name="afii61352" unicode="&#x2116;" horiz-adv-x="1233" 
d="M1185 186q-11 -8 -24.5 -14.5t-29.5 -6.5q-17 0 -32 9q-36 -39 -76 -68t-82 -29q-34 0 -49 13.5t-15 32.5q0 22 19 49t47.5 50t61 39t59.5 16q12 0 22.5 -3.5t18.5 -13.5q4 2 7.5 4t8.5 2q7 0 13 -5.5t6 -14.5q0 -15 -9 -31t-23 -31q10 -8 26 -8q10 0 24 6.5t24 14.5
l3 -11v0zM1044 -5q-20 2 -53.5 3t-72.5 1q-42 0 -75.5 -1t-62.5 -3l12 32q20 -3 52 -3.5t74 -0.5q39 0 74 1t64 3zM1095 255q-6 6 -14 6q-10 0 -22.5 -6.5t-33.5 -24.5q-27 -23 -53.5 -49.5t-45.5 -50.5q-12 -15 -12 -26q0 -5 6 -9.5t19 -4.5q43 0 80 26t69 61
q-14 12 -14 31q0 14 6.5 27t14.5 20zM1396 665q0 -22 -14 -35t-36 -13t-37 12t-15 31q0 12 4 19.5t9 11.5t9 6.5t4 4.5q0 5 -7 6.5t-12 1.5q-45 0 -94 -29.5t-99.5 -77t-102 -108.5t-101 -124.5t-96 -124t-87.5 -107.5q-51 -57 -98.5 -99.5t-89.5 -61.5l-6 7q30 21 48 47
t29.5 58.5t17.5 72.5t11 90q6 63 13.5 121.5t22 112t39 102.5t64.5 94l-2 1q-72 -51 -136 -127.5t-126 -161.5t-124 -168.5t-128 -148.5q-43 -42 -88 -67.5t-93 -25.5q-50 0 -73.5 21t-23.5 53q0 26 14.5 42t38.5 16q22 0 35.5 -13.5t13.5 -33.5q0 -26 -13 -35.5t-25 -12.5
q-14 -3 -15 -10q0 -15 45 -15t89.5 26t89 70t89 101.5t91 120t93.5 126.5t96.5 120t101 101t106.5 70l5 -7q-27 -26 -43.5 -56t-25.5 -66.5t-13 -80t-7 -95.5q-2 -45 -8.5 -92t-22 -96t-43.5 -100t-73 -104l2 -2q61 54 121 126t119 148.5t117.5 151t118 133t119.5 94.5
t123 36q35 0 57 -15t22 -42z" />
    <glyph glyph-name="afii10101" unicode="&#x454;" horiz-adv-x="333" 
d="M358 255q0 -24 -12 -37t-30 -13q-17 0 -29 10.5t-12 26.5q0 17 10 28t28 11q17 0 27 -11l2 1q-1 15 -14.5 23t-25.5 8q-24 0 -64 -37t-99 -108h117l-6 -12h-120l-27 -33q-20 -24 -31 -39t-16.5 -24.5t-7 -15t-1.5 -9.5q0 -11 11 -19t29 -8q42 0 96.5 31t111.5 81l4 -12
q-60 -53 -114 -82.5t-96 -29.5t-60.5 23.5t-18.5 56.5q0 25 13 53.5t34.5 56t49.5 53t58.5 45t61.5 31t58 11.5q38 0 55.5 -17.5t17.5 -42.5z" />
    <glyph glyph-name="guillemotright" unicode="&#xbb;" horiz-adv-x="426" 
d="M330 299q-1 -1 1.5 -3t2.5 -4q-5 -21 -7.5 -43.5t-2.5 -44.5q-2 -49 12 -93q-24 -8 -50 -20t-50 -27t-45 -31t-36 -31l-7 6q29 39 64 73t74 58q1 38 10.5 80t26.5 77q1 1 3.5 1.5t3.5 1.5zM201 300q0 -1 2.5 -3t2.5 -4q-5 -21 -7.5 -43.5t-2.5 -44.5q-2 -49 12 -93
q-24 -8 -50 -20t-50 -27t-45 -31t-36 -31l-7 6q29 39 64 73t74 58q1 38 10.5 80t26.5 77q1 1 3.5 1.5t2.5 1.5z" />
    <glyph glyph-name="afii10105" unicode="&#x458;" horiz-adv-x="278" 
d="M333 455q0 17 14.5 32t35.5 15q17 0 28.5 -10.5t11.5 -26.5q0 -17 -14.5 -32t-35.5 -15q-17 0 -28.5 10.5t-11.5 26.5zM331 177q-64 -57 -146.5 -105.5t-172.5 -77.5q-51 -56 -104 -106t-103.5 -88t-94.5 -60t-77 -22q-27 0 -38.5 11.5t-11.5 34.5q0 49 85 104t254 116
l287 320h90l-271 -292l2 -3q48 19 88.5 39.5t75.5 42t66.5 45t60.5 48.5l10 -7v0zM-93 -30q-89 -35 -148.5 -64t-95.5 -54t-51 -46t-15 -39q0 -17 8.5 -26.5t25.5 -9.5q22 0 43 9.5t51 35.5t73.5 72t110.5 119z" />
    <glyph glyph-name="afii10054" unicode="&#x405;" horiz-adv-x="629" 
d="M1102 669q0 -39 -40 -89.5t-106 -99t-152 -88.5t-177 -59q-39 -59 -91 -121t-113.5 -112.5t-132 -83t-146.5 -32.5q-28 0 -55.5 6.5t-49 18.5t-35 30.5t-13.5 42.5q0 25 14 42t40 17q23 0 37 -13.5t14 -34.5q0 -20 -12.5 -32.5t-27.5 -12.5q-20 0 -20 -13q0 -10 28.5 -24
t79.5 -14q46 0 85 16t73 43t63.5 61.5t56.5 71t52 72.5t50 66q-11 -1 -22.5 -1h-22.5q-44 0 -86.5 12t-75.5 34t-53 54t-20 73t20.5 76.5t56.5 61t84.5 40t104.5 14.5q57 0 111.5 -15t97.5 -39l-6 -9q-50 26 -103.5 38.5t-110.5 12.5q-45 0 -85 -14t-70 -38t-47 -56.5
t-17 -69.5q0 -47 20.5 -78t53 -49.5t72.5 -25.5t80 -5q11 1 15 0.5t12 1.5q29 45 68.5 90.5t85 87.5t94 78.5t95.5 63.5t90 42.5t77 15.5q28 0 43.5 -13t15.5 -41zM1090 668q0 19 -10.5 30.5t-35.5 11.5q-35 0 -72 -18t-74 -47.5t-73 -67.5t-69.5 -77.5t-64 -78t-55.5 -69.5
q18 3 43 10.5t54.5 18t62 25.5t65.5 33q43 24 84.5 52t73.5 58t51.5 60.5t19.5 58.5z" />
    <glyph glyph-name="afii10102" unicode="&#x455;" horiz-adv-x="352" 
d="M411 160q-26 -38 -64 -63t-89 -33q-16 -15 -34 -29t-39 -25.5t-45 -18t-53 -6.5q-48 0 -69 23t-21 54q0 19 7.5 39t20 36t28 26t31.5 10t27 -11t11 -28q0 -19 -14 -32t-29 -13q-13 0 -20.5 5.5t-11 13t-5 14t-2.5 9.5q-14 -12 -22 -31t-8 -41q0 -23 13.5 -39.5
t34.5 -16.5q22 0 51 23t57 51q16 16 34.5 36.5t33.5 40.5t25 39t10 34q0 11 -5.5 26t-16.5 29l-82 -77l-7 5l83 78q-4 7 -7 13.5t-3 13.5q0 14 5 27t13 22.5t17.5 15.5t18.5 6q8 0 13.5 -6.5t5.5 -14.5q0 -10 -6 -21t-14.5 -21.5t-17 -19l-13.5 -13.5q26 -41 40.5 -68.5
t14.5 -55.5q0 -12 -4 -25t-9.5 -25.5t-12 -23t-12.5 -16.5q42 10 74.5 31t59.5 58l7 -5v0z" />
    <glyph glyph-name="afii10104" unicode="&#x457;" horiz-adv-x="278" 
d="M358 506q17 0 25.5 -10.5t8.5 -27.5t-13.5 -31.5t-30.5 -14.5t-25.5 10.5t-8.5 27.5t13.5 31.5t30.5 14.5zM222 506q17 0 25.5 -10.5t8.5 -27.5t-13.5 -31.5t-30.5 -14.5t-25.5 10.5t-8.5 27.5t13.5 31.5t30.5 14.5zM318 167q-99 -91 -162.5 -137t-97.5 -46
q-28 0 -41.5 16t-13.5 41q0 17 9 37t30 44l158 180h89l-204 -230q-14 -16 -23.5 -26t-14.5 -17t-7 -10.5t-2 -6.5q0 -16 22 -16q31 -1 88.5 42.5t159.5 134.5l8 -6h2z" />
    <glyph glyph-name="afii10017" unicode="&#x410;" horiz-adv-x="1116" 
d="M1047 722q37 0 51 -17t14 -48q0 -30 -19.5 -66t-50.5 -76.5t-70 -84.5t-78 -89h95l-6 -12h-101q-28 -31 -58 -65t-54.5 -67.5t-40.5 -64t-16 -53.5q0 -24 7.5 -40t20 -25.5t29.5 -13t36 -3.5q30 0 64 13.5t67.5 36t64 51t54 58t37.5 58t14 50.5q0 27 -16.5 38t-34.5 11
q-26 0 -52.5 -15t-50.5 -37.5t-43.5 -48.5t-30.5 -48l-9 -1q9 26 28 54.5t44 52.5t54 39.5t58 15.5q35 0 50 -18.5t15 -42.5q0 -39 -15 -74.5t-40 -66.5t-57 -56.5t-66.5 -43.5t-68.5 -28t-62 -10q-33 0 -60 10.5t-46 29t-29 43.5t-10 55q0 22 7.5 43.5t22.5 45.5t37.5 52.5
t53.5 64.5h-172q-64 -75 -124 -138t-118 -108.5t-115 -71.5t-115 -26q-63 0 -101 27t-38 74q0 22 14.5 38.5t37.5 16.5q20 0 35 -13t15 -36q0 -17 -13.5 -33t-33.5 -16q-13 0 -13 -9q0 -5 7.5 -11.5t21 -12t31.5 -9.5t39 -4q54 0 107 24.5t108.5 68.5t114 105t122.5 134
h-145l6 12h150q70 80 133.5 149.5t119 121t102.5 81t85 29.5zM1075 685q0 14 -9.5 19.5t-21.5 5.5q-57 0 -159.5 -95.5t-259.5 -273.5h170q22 28 51 60.5t60 66t61.5 66.5t54.5 62t38.5 52t14.5 37z" />
    <glyph glyph-name="afii10018" unicode="&#x411;" horiz-adv-x="979" 
d="M1225 721q-32 -52 -75.5 -71.5t-105.5 -20.5q-26 0 -57.5 2.5t-63.5 7.5q-57 -45 -108.5 -107t-102.5 -129v-1q23 11 57.5 20t60.5 9q66 0 102 -38.5t36 -111.5q0 -57 -25 -110.5t-66.5 -94.5t-96.5 -66t-115 -25q-45 0 -73.5 21t-28.5 63q0 34 16 65.5t41.5 57.5
t57 45.5t62.5 28.5l2 -10q-29 -9 -58.5 -27t-53.5 -42.5t-39.5 -54t-15.5 -62.5q0 -26 19.5 -46.5t50.5 -20.5q29 0 60 17t60 44.5t55 63t45 71.5t30.5 70.5t11.5 60.5q0 41 -21 63.5t-63 22.5q-15 0 -34 -4t-38 -10.5t-36.5 -15.5t-29.5 -18q-46 -60 -100 -127t-117.5 -124
t-136 -94.5t-156.5 -37.5q-35 0 -65 5t-53 16.5t-36 29.5t-13 45q0 22 12.5 38.5t38.5 16.5q21 0 36 -13t15 -37q0 -23 -14 -33t-31 -12q-15 -3 -15 -9q0 -4 5.5 -10t18.5 -11.5t35.5 -9.5t55.5 -4q65 0 120.5 35t107.5 91.5t103.5 128t108.5 143.5t122.5 138t146.5 112
l-21 3q-53 8 -108 13t-107 5q-65 0 -128.5 -22.5t-114.5 -61t-83 -88t-32 -101.5q0 -38 22.5 -65t61.5 -27q32 0 64 20t58 51.5t42 69t16 72.5q0 24 -6.5 46t-11.5 30l9 2q10 -18 18.5 -42t8.5 -43q0 -45 -16.5 -85t-43.5 -69t-62 -46t-73 -17q-46 0 -72.5 29.5t-26.5 72.5
q0 65 40 125t105.5 105.5t149 72.5t170.5 27q40 0 89.5 -5t99.5 -12q51 -7 99.5 -12.5t78.5 -5.5q32 0 63.5 8t54.5 31l7 -5v0z" />
    <glyph glyph-name="afii10019" unicode="&#x412;" horiz-adv-x="981" 
d="M1106 543q0 -39 -18 -70t-46.5 -53.5t-63 -37.5t-67.5 -21q20 -17 33 -43t13 -62q0 -57 -26 -106.5t-67.5 -86t-94 -57.5t-104.5 -21q-45 0 -73.5 21t-28.5 63q0 34 16 65.5t41.5 57.5t57 45.5t62.5 28.5l2 -10q-29 -9 -58.5 -27t-53.5 -42.5t-39.5 -54t-15.5 -62.5
q0 -26 19.5 -46.5t50.5 -20.5q40 0 84 32.5t81.5 79.5t62 99t24.5 91q0 17 -2 30.5t-7 21.5q-15 -5 -30.5 -7t-38.5 -2q-30 0 -49 10.5t-19 24.5t11 22t34 8q32 0 56.5 -11.5t44.5 -28.5q28 8 53 27t43.5 44.5t30 54.5t11.5 56q0 33 -17 64.5t-46 51.5q-52 -32 -99 -78.5
t-92 -101t-89 -113t-89.5 -114.5t-93 -107t-100 -89t-110.5 -60.5t-124 -22.5q-35 0 -65 5t-53 16.5t-36 29.5t-13 45q0 22 12.5 38.5t38.5 16.5q21 0 36 -13t15 -36q0 -20 -9.5 -29t-21 -13t-21 -5.5t-9.5 -7.5q0 -4 5.5 -10t19 -11.5t36 -9.5t55.5 -4q53 0 99 23.5
t88.5 62.5t84 91t84 109t88 115.5t98 112t112.5 97t132 71.5v1q-38 15 -82 21t-85 6q-88 0 -169 -24.5t-143.5 -65t-99.5 -93t-37 -107.5q0 -37 20.5 -57t57.5 -20q23 0 48 12t49.5 32t46.5 45.5t39 53.5t27 56t11 52q2 3 1.5 14.5t-0.5 14.5h12q0 -3 1 -13t-1 -12
q-1 -48 -19.5 -96t-50 -86t-73.5 -61.5t-90 -23.5q-46 0 -68.5 24.5t-22.5 62.5q0 54 35 108.5t98 98.5t150 72t192 28q63 0 108.5 -7.5t83.5 -22.5q23 9 51 16t51 8v-12q-21 -2 -44.5 -7t-42.5 -14q44 -20 72.5 -53.5t28.5 -86.5zM882 368q-17 17 -40.5 25t-43.5 8t-27 -5
t-7 -12q0 -8 13.5 -16t40.5 -8q13 0 31.5 1.5t32.5 6.5z" />
    <glyph glyph-name="afii10020" unicode="&#x413;" horiz-adv-x="648" 
d="M1148 720q-37 -51 -81 -76t-114 -25q-39 0 -86.5 7t-99.5 15q-54 8 -109.5 14.5t-110.5 6.5q-71 0 -132.5 -25.5t-107 -64.5t-71.5 -86.5t-26 -90.5q0 -17 5 -33.5t15.5 -29.5t27 -21t38.5 -8q32 0 63.5 19.5t56.5 50.5t40.5 68t15.5 73q0 25 -5 46t-7 29h7
q9 -17 16 -40.5t7 -46.5q0 -41 -14 -79t-39.5 -67.5t-61 -47t-77.5 -17.5q-45 0 -72.5 28.5t-27.5 74.5q0 60 37.5 118.5t99 105t139.5 75.5t158 29q45 0 96.5 -6.5t102.5 -14.5t96.5 -15t75.5 -7q37 0 73.5 9t63.5 36l8 -4v0zM940 585q-45 -1 -88 -26t-81 -60
q-25 -24 -53.5 -55.5t-56 -65t-52 -65.5t-41.5 -55q-44 -60 -90.5 -110t-99.5 -86.5t-113 -56.5t-130 -20q-65 0 -106.5 22t-41.5 71q0 23 14 40t37 17q20 0 34 -14t14 -37q0 -22 -13 -32t-28 -12q-8 -2 -13 -3.5t-5 -6.5q0 -8 22.5 -20.5t75.5 -12.5t91.5 14.5t76.5 48.5
q31 27 61 60.5t61 71t62.5 77.5t64.5 79q40 48 84.5 92.5t93 78.5t103 55t115.5 23l2 -12v0z" />
    <glyph glyph-name="afii10021" unicode="&#x414;" horiz-adv-x="815" 
d="M1045 665q-47 -5 -90 -24.5t-81 -49.5q14 -27 21.5 -58t7.5 -74q0 -52 -18 -107t-51 -108t-78.5 -100t-100 -82.5t-116 -56.5t-126.5 -21q-45 0 -87.5 7t-68.5 15q-29 -9 -72.5 -15t-85.5 -6q-48 0 -68 10t-20 30t21.5 33.5t68.5 13.5q40 0 84 -8.5t108 -26.5
q45 21 81 57.5t71.5 83t72.5 100.5t84 110t106.5 112t139.5 106q-20 26 -48 45.5t-61.5 33t-71 20t-75.5 6.5q-64 0 -121 -17.5t-104.5 -46.5t-85.5 -66t-64 -76t-40 -77t-14 -68q0 -41 22 -65t70 -24q36 0 71 11.5t66 29.5t57.5 42t45.5 48t29.5 47.5t10.5 41.5
q0 23 -14.5 38.5t-36.5 15.5q-28 0 -54 -14t-49 -36t-42.5 -47t-34.5 -47l-12 4q15 24 36 50.5t46 49t52.5 37t55.5 14.5q30 0 47.5 -17.5t17.5 -49.5q0 -29 -23.5 -68.5t-63.5 -75.5t-93 -61t-113 -25q-62 0 -97.5 32.5t-35.5 89.5q0 36 16.5 75t46.5 77t72 72t94 60
t112.5 41.5t126.5 15.5q36 0 74 -6t74 -18.5t67.5 -33.5t54.5 -51q41 27 88 44.5t95 19.5l3 -12v0zM891 461q0 34 -7 63.5t-19 58.5q-44 -39 -81 -86t-74 -97.5t-75.5 -102t-85 -100t-103.5 -91t-130 -74.5v-1q30 -11 66 -18t65 -7q51 0 103.5 20t101.5 53.5t92.5 79t76 96
t51.5 103.5t19 103zM234 15q-62 18 -102.5 27t-64.5 10q-21 0 -33 -8.5t-12 -18.5q-1 -12 14.5 -20t53.5 -8q34 0 72.5 4t69.5 12z" />
    <glyph glyph-name="afii10022" unicode="&#x415;" horiz-adv-x="642" 
d="M872 664q0 -26 -21.5 -50.5t-57 -47.5t-81.5 -42.5t-96 -34.5t-100 -24.5t-93 -11.5q-6 -11 -4 -20q0 -2 8 -8q6 1 15 1.5t19 0.5q11 0 25.5 -2.5t28 -7.5t23 -13.5t9.5 -21.5q0 -15 -13 -22.5t-28 -7.5q-26 0 -53.5 12.5t-41.5 38.5q-26 -14 -56 -36t-60 -49.5
t-58.5 -58t-50.5 -60.5t-35 -57.5t-13 -49.5q0 -17 8 -34t24.5 -30.5t42.5 -22t62 -8.5q68 0 131 25.5t112 62t78 76.5t29 68q0 35 -22.5 49t-52.5 14q-36 0 -68 -12.5t-59 -31.5t-49 -42.5t-38 -44.5l-11 5q15 21 37 45t50.5 44.5t63 34.5t72.5 14q40 0 67.5 -19t27.5 -63
q0 -39 -27 -80.5t-75 -76.5t-113.5 -57.5t-142.5 -22.5q-90 0 -140.5 42.5t-50.5 117.5q0 55 29.5 102t75 83t99.5 59.5t103 31.5q-8 15 -9 31q-38 0 -75.5 7.5t-67 23t-48 41.5t-18.5 64q0 30 16 53.5t41.5 39.5t57 24.5t61.5 8.5q38 0 70 -6.5t71 -20.5l-5 -10
q-29 11 -60.5 18t-67.5 7q-28 0 -54.5 -8t-47 -23t-33 -35.5t-12.5 -45.5q0 -38 15 -61.5t39 -38t54.5 -20.5t62.5 -7q3 41 22.5 76t50.5 64t70.5 51.5t82 37.5t85 23t79.5 8q43 0 67 -13.5t24 -45.5zM859 663q0 30 -19.5 38.5t-45.5 8.5q-27 0 -60 -12t-68 -32t-70 -45.5
t-67 -53t-58 -54t-42 -48.5q34 2 79.5 10.5t93.5 22t94 32t82 40t58.5 45.5t22.5 48zM535 383q0 8 -8 14t-18.5 10t-22 6t-18.5 2q-11 0 -22 -1.5t-21 -5.5q11 -19 35 -31.5t46 -12.5q11 0 20 4t9 15z" />
    <glyph glyph-name="afii10024" unicode="&#x416;" horiz-adv-x="1344" 
d="M1634 610q0 -23 -14.5 -38.5t-38.5 -15.5q-23 0 -36 13t-13 33q0 24 11 34.5t24 15.5q18 7 18 12q0 11 -21 18t-51 7q-41 0 -81.5 -18.5t-79.5 -48.5t-75.5 -68.5t-69 -79t-61 -79.5t-50.5 -70q-49 -69 -82 -131.5t-33 -109.5q0 -45 23.5 -66t72.5 -21q27 0 55 13
t55 33.5t50 47t41 54t28 53.5t10 46q0 24 -15.5 38.5t-37.5 14.5q-23 0 -45.5 -12.5t-42.5 -31t-35.5 -41t-23.5 -42.5l-13 2q9 22 25.5 46t38 44.5t46.5 33.5t50 13q37 0 54 -24t17 -61q0 -38 -21.5 -80t-57 -77.5t-81.5 -58.5t-95 -23q-72 0 -108 39t-36 108
q0 48 17.5 95.5t53.5 100.5h-111q-32 -51 -69.5 -101t-81 -95.5t-95 -84t-111.5 -65.5l-4 11q31 14 63.5 46.5t67 77.5t70.5 99.5t74 111.5h-137q-40 -51 -89 -100.5t-101 -96.5q-30 -27 -66.5 -53t-77.5 -46.5t-85 -33.5t-89 -13q-66 0 -107 26.5t-41 72.5q0 23 15.5 39.5
t39.5 16.5t38 -14t14 -34t-12.5 -33.5t-30.5 -13.5q-8 0 -14 -3.5t-6 -9.5t8.5 -12t23 -11.5t32.5 -8.5t38 -3q44 0 91.5 23t93.5 58t86.5 76t70.5 77q23 27 48.5 60t51 68.5t48.5 71.5t41 69.5t28.5 63t10.5 52.5q0 46 -30 70t-72 24q-39 0 -79 -12.5t-78 -33.5t-70.5 -49
t-57.5 -59t-39 -63t-14 -62q0 -44 23.5 -66.5t58.5 -22.5q27 0 60 17.5t62 48t49 71.5t20 88q0 9 -1 19.5t-3 22.5l12 1q5 -16 7.5 -33.5t2.5 -31.5q0 -39 -16.5 -78t-45 -69.5t-66 -49.5t-79.5 -19q-38 0 -67 24t-29 74q0 51 33 103.5t84.5 95t115 69.5t123.5 27
q32 0 60.5 -9.5t50 -27t34 -43t12.5 -56.5q0 -53 -31.5 -116.5t-80.5 -129.5h136q38 57 77.5 112.5t80 103t82.5 84.5t86 56l5 -8q-30 -16 -58.5 -50.5t-57.5 -81t-61 -102.5t-68 -114h111q33 48 79 99t103 103q33 30 72 58.5t81 51t84.5 36.5t82.5 14q52 0 85 -23.5
t33 -68.5z" />
    <glyph glyph-name="afii10025" unicode="&#x417;" horiz-adv-x="674" 
d="M580 394q-19 11 -44 11q-7 0 -20 -1.5t-26 -5.5t-22.5 -10.5t-9.5 -16.5q0 -7 10 -8t22 -1q22 0 44.5 8.5t45.5 23.5zM800 603q0 -32 -13 -62t-34.5 -57.5t-51 -50.5t-62.5 -41q20 -14 31.5 -34.5t11.5 -46.5q0 -45 -19.5 -86.5t-52.5 -77.5t-76 -66t-90 -51.5t-95 -33
t-90 -11.5q-28 0 -56 7.5t-50 22t-35.5 36t-13.5 49.5q0 56 29 90t77 34q26 0 41 -17.5t15 -38.5t-15 -36t-37 -15q-21 0 -32.5 12.5t-11.5 32.5q0 4 0.5 7.5t0.5 6.5q0 2 -1 5.5t-4 3.5q-11 0 -20 -7.5t-16 -19t-10.5 -26.5t-3.5 -30q0 -23 11.5 -42.5t30.5 -33t42.5 -21
t46.5 -7.5q32 0 72 15.5t81.5 41.5t81 60t70 70t49 71.5t18.5 65.5q0 32 -16 53q-30 -12 -60 -18.5t-57 -6.5q-10 0 -24 3.5t-14 16.5q0 15 13 24t30.5 14t35.5 6.5t29 1.5q25 0 45 -7q28 22 53.5 51.5t44.5 61t30.5 62.5t11.5 57q0 33 -22 50.5t-54 17.5q-43 0 -90 -15
t-89.5 -40t-75.5 -56t-48 -64q-5 -12 -9.5 -24t-4.5 -23q0 -18 11.5 -25.5t28.5 -7.5q32 0 60 9t53.5 25t48.5 37t44 44l7 -6q-44 -49 -97 -83.5t-120 -34.5q-28 0 -45 13.5t-17 42.5q0 34 20 64.5t51 56.5t67.5 45.5t69.5 31.5q67 23 128 23q29 0 54.5 -6.5t45 -21t31 -37
t11.5 -54.5z" />
    <glyph glyph-name="afii10026" unicode="&#x418;" horiz-adv-x="998" 
d="M668 176q-52 -59 -52 -112q0 -67 77 -67q48 0 97 29t89.5 69.5t66 83t25.5 69.5q0 21 -12.5 32t-29.5 11q-22 0 -46.5 -15.5t-48 -37t-43.5 -45t-34 -39.5l-9 6q14 18 35.5 42.5t47 47t51.5 38t49 15.5q20 0 39 -15.5t19 -53.5q0 -43 -27 -87.5t-69.5 -80.5t-95 -58.5
t-104.5 -22.5q-32 0 -55.5 9.5t-39 25t-23.5 35t-8 39.5q0 23 8 47.5t17 40.5l-1 1q-48 -50 -88 -87t-75 -62t-65.5 -37t-60.5 -12q-45 0 -72 25t-27 70q0 40 28 87t69.5 96.5t90 99t90 95.5t69.5 86.5t28 71.5q0 94 -105 94q-39 0 -82 -13.5t-84.5 -36t-78.5 -53t-65 -65
t-44.5 -71t-16.5 -71.5q0 -36 20.5 -56t53.5 -20q26 0 58.5 16t61.5 45q40 38 59.5 82t18.5 99h12l1 -35q1 -42 -16 -81.5t-46.5 -70t-67.5 -49t-80 -18.5q-38 0 -62.5 22t-24.5 67q0 36 17 73.5t45.5 73t66.5 67.5t80 55.5t86.5 37.5t85.5 14q34 0 64.5 -8t53.5 -25.5
t36 -44.5t13 -66q0 -37 -29 -82.5t-73 -94.5t-95 -99t-95 -97t-73 -87.5t-29 -70.5q0 -27 18 -38.5t47 -11.5q33 0 73 23t83.5 59.5t87.5 82.5t85 91l364 404h92z" />
    <glyph glyph-name="afii10027" unicode="&#x419;" horiz-adv-x="998" 
d="M1095 903q-15 -29 -50 -55t-81 -46t-98 -31.5t-100 -11.5q-53 0 -82.5 13t-29.5 41q0 25 19.5 46t50 37t67.5 25t72 9t49.5 -8.5t14.5 -25.5q0 -12 -8 -20.5t-20.5 -15.5t-29 -12t-33.5 -10l-2 12q15 4 29 8.5t25.5 9.5t18.5 12t7 16q0 13 -12 17.5t-38 4.5
q-27 0 -55.5 -11t-51 -27.5t-37 -34.5t-14.5 -31q0 -17 12.5 -28t51.5 -11q43 0 92.5 10t94.5 28t80 42.5t49 52.5l9 -5v0zM668 176q-52 -59 -52 -112q0 -67 77 -67q48 0 97 29t89.5 69.5t66 83t25.5 69.5q0 21 -12.5 32t-29.5 11q-22 0 -46.5 -15.5t-48 -37t-43.5 -45
t-34 -39.5l-9 6q14 18 35.5 42.5t47 47t51.5 38t49 15.5q20 0 39 -15.5t19 -53.5q0 -43 -27 -87.5t-69.5 -80.5t-95 -58.5t-104.5 -22.5q-32 0 -55.5 9.5t-39 25t-23.5 35t-8 39.5q0 23 8 47.5t17 40.5l-1 1q-48 -50 -88 -87t-75 -62t-65.5 -37t-60.5 -12q-45 0 -72 25
t-27 70q0 40 28 87t69.5 96.5t90 99t90 95.5t69.5 86.5t28 71.5q0 94 -105 94q-39 0 -82 -13.5t-84.5 -36t-78.5 -53t-65 -65t-44.5 -71t-16.5 -71.5q0 -36 20.5 -56t53.5 -20q26 0 58.5 16t61.5 45q40 38 59.5 82t18.5 99h12l1 -35q1 -42 -16 -81.5t-46.5 -70t-67.5 -49
t-80 -18.5q-38 0 -62.5 22t-24.5 67q0 36 17 73.5t45.5 73t66.5 67.5t80 55.5t86.5 37.5t85.5 14q34 0 64.5 -8t53.5 -25.5t36 -44.5t13 -66q0 -37 -29 -82.5t-73 -94.5t-95 -99t-95 -97t-73 -87.5t-29 -70.5q0 -27 18 -38.5t47 -11.5q33 0 73 23t83.5 59.5t87.5 82.5t85 91
l364 404h92z" />
    <glyph glyph-name="afii10028" unicode="&#x41a;" horiz-adv-x="1130" 
d="M1318 655q0 -20 -12 -34t-34 -14q-50 0 -50 44q0 18 9 27.5t20 12.5q12 2 12 7q0 8 -13 10t-24 2q-35 0 -65 -23t-59.5 -59.5t-61 -81t-67.5 -86.5t-79 -77t-96 -52q11 -13 17 -29.5t6 -32.5q0 -23 -18 -51.5t-39.5 -58t-39.5 -57.5t-18 -51q0 -27 25.5 -40.5t57.5 -13.5
q35 0 71.5 13.5t70.5 35t63.5 49t51.5 56t34.5 54.5t12.5 46q0 23 -13.5 37t-36.5 14t-47 -10.5t-47 -27t-43 -37t-34 -40.5l-8 3q13 22 33 44t44 40t50 29t52 11q32 0 47 -21t15 -50q0 -42 -23.5 -87.5t-66 -83.5t-101 -62.5t-128.5 -24.5q-23 0 -47.5 6t-45 19t-34 33.5
t-13.5 49.5t17.5 57t40 56t44 56.5t28.5 58.5q-14 -4 -29 -7t-32 -3q-10 0 -21 1.5t-20 6t-15 12.5t-7 21q-19 -25 -45 -61.5t-58.5 -77.5t-73 -81.5t-89 -73t-105.5 -53t-123 -20.5q-31 0 -59 6t-49 18.5t-33.5 32t-12.5 45.5q0 24 15 40.5t39 16.5q23 0 34.5 -13.5
t11.5 -33.5q0 -21 -9 -31.5t-19.5 -15t-19.5 -7t-9 -6.5q0 -11 27.5 -25.5t77.5 -14.5q39 0 71 10.5t62 30.5t59 50.5t61 69.5q55 69 105.5 134.5t102.5 126.5t109 117t125 106l-2 2q-34 -17 -70.5 -29.5t-73.5 -12.5q-35 0 -66 12.5t-61.5 27t-61.5 27t-65 12.5
q-29 0 -62 -17t-62 -45t-48 -64t-19 -75q0 -24 8.5 -41.5t22 -29t31.5 -17.5t37 -6q40 0 76.5 19t66 46t50 56.5t28.5 50.5l10 -2q-11 -32 -32.5 -65.5t-50.5 -60.5t-63.5 -44.5t-71.5 -17.5q-26 0 -49 8.5t-39.5 23.5t-26 35.5t-9.5 44.5q0 52 28.5 96.5t69.5 76.5t87 50.5
t81 18.5q40 0 77.5 -12.5t71 -28t64 -28t57.5 -12.5q16 0 38.5 8t45.5 19.5t44 24.5t36 24l6 -9q-50 -31 -90.5 -69.5t-74 -82t-63 -90t-57.5 -91.5l1 -2q12 9 33 9q20 1 45 -9.5t42 -33.5q39 19 72.5 54.5t64.5 78t63 87t68.5 81t79.5 59.5t98 23q41 0 63.5 -18t22.5 -49z
M774 334q-8 12 -30 23.5t-47 11.5q-19 0 -26 -6t-7 -14q0 -11 13.5 -18t36.5 -8q25 0 58 11h2z" />
    <glyph glyph-name="afii10029" unicode="&#x41b;" horiz-adv-x="1008" 
d="M1032 693q0 -23 -17 -55t-43.5 -69t-59.5 -76.5t-65 -77.5q-9 -11 -31 -35.5t-50 -57.5t-58 -70.5t-55 -73.5t-41 -67t-16 -51q0 -34 20.5 -48.5t55.5 -14.5q29 0 63 13.5t68 36t65 51t55.5 58t39 57t14.5 49.5q0 24 -16.5 36t-39.5 12q-25 0 -51 -14.5t-49.5 -36
t-43 -47t-30.5 -46.5l-6 5q11 27 31 54t44.5 49t51.5 35.5t53 13.5q32 0 52.5 -18t20.5 -53q0 -36 -22.5 -82.5t-64.5 -87.5t-101.5 -69t-133.5 -28q-60 0 -89 32.5t-29 83.5q0 28 13 60.5t33 65.5t43.5 64.5t43.5 56.5q76 94 154.5 175.5t145.5 158.5q15 18 15 24q0 4 -6 4
q-28 -5 -67 -31t-93 -75t-126 -122t-165 -172q-22 -23 -52 -56.5t-65 -69.5t-73.5 -71.5t-78.5 -64t-79.5 -46t-76.5 -17.5q-21 0 -42 5t-37.5 15.5t-26.5 27t-10 40.5q0 27 14.5 43.5t37.5 16.5q22 0 34.5 -14t12.5 -34q0 -21 -12 -35t-33 -14q-6 0 -11 -1t-5 -3
q0 -7 6.5 -13t17 -11t23.5 -8t26 -3q34 0 70.5 16.5t74.5 43t76 60t73 69t65.5 69t55.5 59.5q45 48 92 97t92 94.5t87.5 85t79 68.5t67 46t51.5 17q11 0 22 -6.5t11 -22.5z" />
    <glyph glyph-name="afii10030" unicode="&#x41c;" horiz-adv-x="1333" 
d="M1371 695q0 -14 -11 -31.5t-23 -35.5q-16 -23 -53 -66t-83 -95.5t-95 -111.5t-89.5 -114.5t-66.5 -103t-26 -77.5q0 -34 20.5 -48.5t55.5 -14.5q29 0 63 13.5t68 36t65 51t55.5 58t39 57t14.5 49.5q0 24 -16.5 36t-39.5 12q-25 0 -51 -14.5t-49.5 -36t-43 -47
t-30.5 -46.5l-6 5q11 27 31 54t44.5 49t51.5 35.5t53 13.5q32 0 52.5 -18t20.5 -53q0 -36 -22.5 -82.5t-64.5 -87.5t-101.5 -69t-133.5 -28q-60 0 -89 32.5t-29 84.5q0 54 39.5 123t101.5 144.5t138 154t150 151.5q11 10 19 17.5t11 13.5q1 2 -1.5 3t-5.5 1
q-42 -4 -92.5 -37.5t-105.5 -85t-112.5 -116t-114.5 -131t-111 -130t-102 -113t-88 -79.5t-68 -30q-22 0 -36 12.5t-14 37.5q0 20 7.5 42t20.5 46q21 41 66.5 99.5t106.5 129.5t134 151t148 164q10 11 18 20.5t11 15.5q1 2 -1.5 3t-4.5 1q-25 -4 -59 -26.5t-76 -59
t-90.5 -85t-102 -103.5t-110 -114.5t-114.5 -118.5q-29 -29 -68.5 -66.5t-83 -71.5t-88 -57t-83.5 -23q-21 0 -42 5t-37.5 15.5t-27 27t-10.5 40.5q0 27 14.5 43.5t37.5 16.5q22 0 34.5 -14t12.5 -34q0 -21 -12 -35t-33 -14q-6 0 -11 -1t-6 -3q0 -7 6.5 -13t17 -11t23.5 -8
t26 -3q34 0 74.5 19t82.5 50t84 70t80.5 78.5t72 75.5t57.5 61q80 85 147.5 153.5t122 117t95.5 74.5t69 26q11 0 22 -6.5t11 -21.5q0 -17 -10 -41t-40 -63q-74 -96 -142.5 -179t-125.5 -150.5t-99.5 -119t-63.5 -84.5q-9 -14 -14 -24.5t-6 -20.5q0 -6 4 -9t9 -3
q24 0 61.5 31t85.5 82t103 115.5t113.5 132.5t118 132.5t115.5 115.5t106.5 82t90.5 31q14 0 23.5 -6t9.5 -21z" />
    <glyph glyph-name="afii10031" unicode="&#x41d;" horiz-adv-x="1149" 
d="M1292 674q0 -30 -18.5 -65.5t-50 -70.5t-72 -68.5t-85 -61t-89.5 -47t-85 -26.5q-76 -97 -119.5 -163t-43.5 -110q0 -17 7.5 -29t19 -20t25.5 -12t28 -4q35 0 72 13t71 33.5t64.5 47.5t53.5 55t36 55t13 48q0 29 -15 41.5t-32 12.5q-27 0 -54 -12.5t-51.5 -31t-45 -39.5
t-34.5 -39l-10 2q17 22 39 45.5t47.5 43t53.5 31.5t58 12q32 0 47 -22t15 -52q0 -38 -27.5 -83t-72.5 -83.5t-102 -64t-116 -25.5q-62 0 -92.5 33t-31.5 90q0 25 8.5 52t22.5 54.5t31.5 55.5t35.5 54q-10 -1 -34 -4t-50 -6.5t-50 -7t-34 -5.5q-39 -60 -88 -116.5
t-107.5 -101t-125.5 -71.5t-141 -27q-24 0 -51 5t-49.5 17t-37.5 30.5t-15 45.5q0 22 13.5 40t38.5 18q23 0 37.5 -12.5t14.5 -35.5q0 -26 -14 -35.5t-28 -11.5q-8 -1 -14.5 -3t-6.5 -8q0 -5 8.5 -11.5t23.5 -12.5t34.5 -10t41.5 -4q57 0 106 27t93.5 69.5t85 95t79.5 103.5
q-73 -11 -136.5 -43t-113.5 -77l-6 6q21 24 52 45t66.5 37.5t73 28t72.5 15.5q31 43 71.5 90t85.5 92.5t92.5 87t92.5 73.5l-1 3q-42 -22 -82.5 -38t-87.5 -16q-32 0 -57 13.5t-50.5 29t-53.5 29t-65 13.5q-31 0 -67.5 -15.5t-67.5 -41.5t-52 -62t-21 -76q0 -47 31.5 -70.5
t74.5 -23.5q34 0 71 14.5t70 37.5t57.5 53t35.5 62l8 -3q-11 -37 -32.5 -70t-51 -58t-66.5 -39.5t-79 -14.5q-27 0 -51 7t-41.5 21t-28 36t-10.5 52q0 43 27 84.5t69.5 74.5t94.5 53t101 20q35 0 64.5 -13.5t57 -30t54.5 -30t56 -13.5q37 0 82 21t81 51l5 -11
q-95 -74 -170.5 -173t-145.5 -211q10 2 34 5.5t50 7t49.5 6.5t33.5 5q26 36 64 78t80.5 84.5t87.5 82t86 69.5t76 48.5t57 18.5q17 0 29.5 -10t12.5 -33zM1278 681q0 11 -7 16t-15 5q-18 0 -46 -19t-60.5 -49.5t-67.5 -69t-68.5 -78t-62.5 -75.5t-50 -62q30 5 69.5 23.5
t81.5 45.5t82.5 60.5t72.5 69t51.5 70t19.5 63.5z" />
    <glyph glyph-name="afii10032" unicode="&#x41e;" horiz-adv-x="685" 
d="M919 569q0 -49 -21.5 -80.5t-51.5 -62.5l-10 5q32 34 51.5 65.5t19.5 73.5q0 36 -14.5 62.5t-38 44t-53.5 25.5t-61 8q-40 0 -89 -18t-102 -48.5t-107 -72t-104 -88.5t-94 -97.5t-76.5 -99.5t-51.5 -94.5t-19 -81.5q0 -63 36 -88t94 -25q77 0 148.5 25t134 65.5t114 91
t88 101.5t57 97.5t20.5 79.5q0 50 -26 81.5t-79 31.5q-41 0 -86 -20t-83.5 -52t-63.5 -71.5t-25 -77.5q0 -35 19.5 -52.5t52.5 -17.5q28 0 59 19.5t56.5 48.5t43.5 63t21 61h9q0 -36 -14.5 -72t-40 -65.5t-59 -48t-70.5 -18.5q-40 0 -64.5 19t-24.5 62q0 44 26.5 86t67 75
t88 53t88.5 20q53 0 85 -31.5t32 -92.5q0 -37 -21.5 -87t-60 -102.5t-91.5 -103.5t-116.5 -91t-135 -64.5t-145.5 -24.5q-48 0 -82.5 13t-56.5 36.5t-32.5 56t-10.5 71.5q0 62 31 127.5t83.5 128t121.5 117.5t145 96.5t153.5 66t147.5 24.5q39 0 73 -9t59.5 -28t40.5 -47.5
t15 -68.5z" />
    <glyph glyph-name="afii10033" unicode="&#x41f;" horiz-adv-x="999" 
d="M994 234q0 -43 -27 -87.5t-69 -80.5t-94 -58.5t-102 -22.5q-63 0 -101.5 32t-38.5 89q0 24 9 48t23 47.5t31 45t33 40.5q39 46 84 91.5t83.5 87.5t64 79.5t25.5 67.5q0 26 -17.5 38.5t-46.5 12.5q-32 0 -64 -14.5t-66.5 -42t-72.5 -66.5t-81 -87l-410 -454h-92l472 531
q20 22 36.5 49t16.5 59t-23 51.5t-80 19.5q-39 0 -81 -13t-82.5 -35.5t-77 -51.5t-64 -61.5t-44 -66.5t-16.5 -65q0 -35 20.5 -57t57.5 -22q31 0 66.5 21t64.5 54t48.5 73t19.5 78q0 4 -1 7.5t-2 10.5h12q1 -6 2 -15.5t1 -15.5q0 -45 -16.5 -85.5t-45 -71.5t-67.5 -49.5
t-83 -18.5q-41 0 -65 23.5t-24 65.5q0 32 16.5 67.5t44.5 69.5t66 65t80.5 54t88 37t88.5 14q67 0 106 -27.5t39 -81.5q0 -20 -7.5 -44.5t-18.5 -43.5l1 -2q43 45 77 74t62.5 46.5t54 24.5t51.5 7q45 0 72 -25.5t27 -71.5q0 -35 -19 -73t-49 -76.5t-67 -77.5t-71.5 -76.5
t-63 -74t-42.5 -69.5q-7 -17 -12.5 -33.5t-5.5 -33.5q0 -32 21 -49.5t53 -17.5q46 0 94.5 29t88.5 69.5t65.5 83t25.5 69.5q0 21 -12.5 32t-29.5 11q-22 0 -46.5 -15.5t-48 -37t-43.5 -45t-34 -39.5l-9 6q14 18 35.5 42.5t47 47t51.5 38t49 15.5q20 0 39 -15.5t19 -53.5z
" />
    <glyph glyph-name="afii10034" unicode="&#x420;" horiz-adv-x="722" 
d="M1000 525q0 -51 -22.5 -89t-59.5 -63.5t-83 -38t-93 -12.5q-14 0 -27 1t-26 3l-1 13q13 -2 26 -3t25 -1q43 0 83 15t70.5 42t48.5 63.5t18 78.5q0 41 -19 73t-51 53q-53 -35 -93.5 -90t-83 -123.5t-94.5 -145.5t-128 -156q-30 -31 -66 -60t-78 -51t-90 -35.5t-100 -13.5
q-29 0 -55.5 6.5t-46.5 19.5t-32 31t-12 41q0 26 16.5 42.5t36.5 16.5q21 0 35.5 -14t14.5 -35q0 -18 -10 -26.5t-21.5 -12.5t-21.5 -5.5t-10 -5.5q0 -6 7.5 -14t21 -15t32 -12t41.5 -5q57 0 101 21.5t81 55.5q43 39 81 87.5t76 102t77.5 109t85 109t98.5 102t119 87.5
q-45 23 -96.5 31t-99.5 8q-73 0 -144.5 -15.5t-136.5 -41.5t-120 -60.5t-95.5 -72.5t-63.5 -78t-23 -76q0 -45 28 -70.5t76 -25.5q39 0 80 13.5t80 36.5t73.5 53.5t61.5 63.5t43.5 66t18.5 63h12q-2 -53 -30 -108t-75 -101t-110.5 -75t-136.5 -29q-27 0 -51 7t-42 20.5
t-29 34.5t-11 48q0 40 23.5 82.5t65 82.5t97.5 75.5t121 61.5t136 41.5t142 15.5q59 0 116 -9t107 -34q20 11 41.5 20t44.5 14l3 -12q-18 -5 -37 -12.5t-36 -18.5q40 -25 68 -60.5t28 -84.5z" />
    <glyph glyph-name="afii10035" unicode="&#x421;" horiz-adv-x="633" 
d="M980 656q0 -29 -25.5 -61.5t-69 -64t-101.5 -60t-123.5 -50.5t-135.5 -35.5t-136 -13.5q-24 -26 -57 -64.5t-62 -80.5t-49.5 -84t-20.5 -75q0 -28 23 -49.5t68 -21.5q38 0 77 12.5t76 33t70 46.5t57.5 53t38.5 52.5t14 45.5q0 26 -17.5 39t-42.5 13q-29 0 -59 -12.5
t-58.5 -33.5t-55 -48.5t-48.5 -56.5l-6 7q16 26 42.5 54t57.5 50.5t63.5 37t62.5 14.5q31 0 52 -17.5t21 -56.5t-26 -82t-71 -79t-105.5 -59.5t-130.5 -23.5q-40 0 -67.5 11.5t-45 31t-25 44.5t-7.5 52q0 33 12 68t30.5 68.5t41.5 64.5t45 56q-30 6 -58.5 16.5t-50.5 28.5
t-35.5 44t-13.5 62q0 42 20.5 76t55 58t79 37t93.5 13q62 0 102.5 -13.5t73.5 -31.5l-5 -10q-38 18 -76 30.5t-93 12.5q-45 0 -83 -12.5t-65.5 -36t-43.5 -56.5t-16 -75q0 -55 35.5 -89t90.5 -43q51 59 115.5 118t138.5 106.5t155.5 77t166.5 29.5q22 0 41.5 -3.5t34 -11.5
t23 -20.5t8.5 -31.5zM968 656q0 17 -8 27.5t-20.5 16.5t-27 8t-27.5 2q-46 0 -92 -15.5t-91 -41.5t-87 -59.5t-81 -70t-73.5 -73t-63.5 -67.5q70 2 139.5 16.5t133 36.5t118 49.5t94.5 57t63 59t23 54.5z" />
    <glyph glyph-name="afii10036" unicode="&#x422;" horiz-adv-x="1305" 
d="M1311 234q0 -43 -27 -87.5t-69 -80.5t-94 -58.5t-101 -22.5q-63 0 -102.5 32t-39.5 89q0 24 9 48t22.5 46.5t30 43.5t31.5 38q37 42 78.5 84.5t77 82t59 75.5t23.5 65q0 26 -17.5 37.5t-46.5 11.5q-25 0 -51 -10t-51.5 -27t-50 -39t-45.5 -46q-24 -26 -57 -63t-65 -73
l-339 -380h-92l407 457q55 62 82.5 99.5t27.5 65.5q0 26 -17.5 38.5t-46.5 12.5q-32 0 -65.5 -16t-70 -45.5t-76 -69.5t-82.5 -88l-410 -454h-92l472 531q20 22 36.5 49t16.5 59t-23 51.5t-80 19.5q-58 0 -122.5 -27t-118.5 -69.5t-89 -94.5t-35 -102q0 -35 20.5 -57
t57.5 -22q31 0 66.5 21t64.5 54t48.5 72.5t19.5 77.5q0 5 -1 9t-2 9h12q2 -5 2.5 -14.5t0.5 -15.5q0 -47 -16.5 -88t-45 -71.5t-67.5 -48t-83 -17.5q-41 0 -65 23.5t-24 65.5q0 51 35.5 105.5t91.5 99t124 73.5t133 29q67 0 106 -27.5t39 -81.5q0 -20 -7.5 -44.5
t-18.5 -43.5l1 -2q43 45 78.5 75.5t66 49.5t57.5 27.5t53 8.5q45 0 72 -25.5t27 -70.5q0 -15 -5.5 -33t-10.5 -25l2 -1q63 66 113.5 94t99.5 28q45 0 71.5 -25.5t26.5 -70.5q0 -36 -18 -72t-45.5 -72.5t-61.5 -72t-66 -71t-58 -69.5t-39 -67q-7 -17 -12.5 -34t-5.5 -33
q0 -32 21 -49.5t53 -17.5q46 0 94.5 29t88.5 69.5t65.5 83t25.5 69.5q0 21 -12.5 32t-29.5 11q-22 0 -46.5 -15.5t-48 -37t-43.5 -45t-34 -39.5l-9 6q14 18 35.5 42.5t47 47t51.5 38t49 15.5q20 0 39 -15.5t19 -53.5z" />
    <glyph glyph-name="afii10037" unicode="&#x423;" horiz-adv-x="945" 
d="M569 11q37 4 77 14.5t79.5 26.5t74.5 38.5t61 52t40 65t11 78.5q4 3 1.5 13.5t-3.5 15.5h11q4 -14 6.5 -28.5t2.5 -28.5q0 -48 -17.5 -84.5t-46.5 -64.5t-67 -47.5t-79 -32.5t-82 -20.5t-77 -11.5q-130 -144 -236.5 -208.5t-186.5 -64.5q-16 0 -31.5 4t-28 12.5t-20 22.5
t-7.5 34q0 146 420 206l119 133l-2 3q-24 -22 -51 -43t-56 -37t-59 -25.5t-60 -9.5q-47 0 -71.5 25t-24.5 66q0 25 13.5 49t30.5 47q9 12 31 37.5t51 58t61.5 67.5t61 67t50.5 56.5t30 35.5q17 22 27 41.5t10 37.5q0 26 -11 44.5t-29 30.5t-40.5 17.5t-44.5 5.5
q-44 0 -88.5 -14.5t-85.5 -38.5t-76.5 -55t-62 -65t-41.5 -68.5t-15 -64.5q0 -39 23.5 -66t65.5 -27q31 0 68.5 23t70.5 58.5t55 77t22 78.5q0 20 -3 35l8 3q2 -12 5 -24t3 -24q0 -44 -18 -86.5t-49.5 -76.5t-73.5 -55t-90 -21q-45 0 -72 28t-27 73q0 39 17 78t46 75t67 67
t79.5 53.5t83.5 35.5t80 13q51 0 87 -13t59 -33.5t33.5 -46t10.5 -51.5q0 -30 -20.5 -63.5t-47.5 -66.5q-10 -12 -31.5 -35.5t-49.5 -53.5t-58.5 -62.5t-58 -61.5t-48 -51.5t-28.5 -32.5q-19 -23 -29.5 -42.5t-10.5 -33.5q-1 -19 15 -29t44 -10q25 0 54.5 11t59 28
t58.5 38.5t53 42t42.5 38.5t28.5 29l397 450h98zM458 -10q-106 -15 -181 -36t-122.5 -46t-69.5 -53t-22 -57q0 -32 21 -47t53 -15q31 0 60.5 11.5t65.5 40.5t82.5 77t113.5 122z" />
    <glyph glyph-name="afii10038" unicode="&#x424;" horiz-adv-x="884" 
d="M947 395q0 -60 -32 -113.5t-81.5 -93.5t-108 -63t-111.5 -23q-21 0 -41.5 4t-37 13t-27.5 23t-13 33q-1 5 -1 15q-35 -42 -75.5 -79t-87 -65t-100 -44.5t-114.5 -16.5q-73 0 -111.5 29t-38.5 66q0 27 15 43.5t36 16.5q20 0 34 -14.5t14 -33.5q0 -17 -9 -25.5t-19.5 -13.5
t-19.5 -8.5t-9 -10.5q0 -5 8.5 -11.5t22.5 -12t33 -9.5t39 -4q69 0 127 34t115 103v1q-17 -10 -41.5 -17.5t-49.5 -7.5q-26 0 -49 8.5t-40 24.5t-27.5 38.5t-10.5 50.5q0 61 32 114t81.5 93t108.5 63t112 23q22 0 43.5 -4.5t38 -15t26 -27.5t9.5 -42q30 37 60 70.5t63 65.5
t70.5 62.5t83.5 61.5l-2 3q-17 -11 -38 -22t-43 -20t-43.5 -14.5t-38.5 -5.5q-39 0 -77 14.5t-76 30.5q-32 13 -63.5 23t-62.5 10q-33 0 -61.5 -5.5t-49.5 -18.5t-33.5 -34t-12.5 -52q0 -35 19.5 -52t53.5 -17q44 0 81 29.5t64 75.5h13q-11 -22 -26.5 -43t-35.5 -37.5
t-44 -26.5t-51 -10q-35 0 -61 20.5t-26 56.5q0 49 23 80t57.5 48.5t73 24t70.5 6.5q37 0 76 -12.5t76.5 -28t74 -28t69.5 -12.5q15 0 36 7t44 17t45 22t38 23l7 -7q-33 -22 -66 -53t-63.5 -66t-58 -72t-49.5 -71v-1q23 17 55.5 28.5t61.5 11.5q25 0 48.5 -8.5t40.5 -24.5
t27.5 -39t10.5 -51zM876 416q0 40 -23.5 60.5t-53.5 20.5q-17 0 -36 -5.5t-37 -15t-34 -22t-26 -27.5l-137 -193q-14 -19 -19 -32.5t-5 -22.5q0 -19 23 -36.5t64 -17.5q47 0 97 29.5t91.5 73.5t68.5 94.5t27 93.5zM578 447q0 22 -23 40t-63 18q-47 0 -97 -29.5t-91.5 -73.5
t-68.5 -94.5t-27 -93.5q0 -40 23.5 -60.5t52.5 -20.5q13 0 29.5 4t32 11t30 17.5t23.5 22.5l157 206q14 18 18 31.5t4 21.5z" />
    <glyph glyph-name="afii10039" unicode="&#x425;" horiz-adv-x="924" 
d="M1210 610q0 -23 -14.5 -38.5t-38.5 -15.5q-23 0 -36 13t-13 33q0 24 11 34.5t23 15.5q19 6 19 12q0 11 -21 18t-51 7q-56 0 -113.5 -35t-112.5 -89.5t-105 -120t-92 -126.5q-22 -32 -41.5 -63t-34.5 -61t-24 -57.5t-9 -52.5q0 -45 23.5 -66t72.5 -21q27 0 55 13t55 33.5
t50 47t41 54t28 53.5t10 46q0 24 -15.5 38.5t-37.5 14.5q-23 0 -45.5 -12.5t-42.5 -31t-35.5 -41t-23.5 -42.5l-13 2q9 22 25.5 46t38 44.5t46.5 33.5t50 13q37 0 54 -24t17 -61q0 -38 -21.5 -80t-57.5 -77.5t-82 -58.5t-95 -23q-66 0 -98 35t-31 98q0 12 0.5 25.5t2.5 24.5
l-2 1q-35 -35 -76.5 -68.5t-88 -59t-96.5 -41t-101 -15.5q-66 0 -107 26.5t-41 72.5q0 23 15.5 39.5t39.5 16.5t38 -14t14 -34t-12.5 -33.5t-30.5 -13.5q-8 0 -14 -3.5t-6 -9.5t8.5 -12t23 -11.5t32.5 -8.5t38 -3q37 0 76.5 16t78.5 42.5t77 60.5t72 69.5t62.5 70t48.5 61.5
q31 41 59 82.5t49.5 80t34 73.5t12.5 63q0 46 -30 70t-72 24q-39 0 -79 -12.5t-78 -33.5t-70.5 -49t-57.5 -59t-39 -63t-14 -62q0 -44 23.5 -66.5t58.5 -22.5q27 0 60 17.5t62 48t48.5 71.5t19.5 89v17t-2 20l13 2q8 -32 8 -63q0 -39 -16.5 -77.5t-45 -69t-66 -49.5
t-79.5 -19q-38 0 -67 24t-29 74q0 51 33 103.5t84.5 95t115 69.5t123.5 27q32 0 60.5 -9.5t49.5 -26.5t33.5 -42.5t12.5 -56.5q0 -14 -1 -28.5t-8 -27.5h2q29 29 64.5 59.5t75 55t82 40.5t85.5 16q52 0 85 -23.5t33 -68.5z" />
    <glyph glyph-name="afii10040" unicode="&#x426;" horiz-adv-x="989" 
d="M668 176q-52 -59 -52 -112q0 -67 74 -67q46 0 92.5 23.5t85.5 57.5q-2 28 -5 56t-3 57q0 28 7.5 47.5t18.5 32t24.5 18t27.5 5.5q23 0 33 -15.5t10 -41.5q0 -36 -25 -77t-64 -76q2 -14 3 -29t1 -31v-12t-1 -12q5 1 9 1h8q17 0 36 -8.5t28 -28.5l-11 -4q-7 16 -22.5 23.5
t-32.5 7.5q-10 0 -15 -1q-2 -17 -5 -34.5t-9 -36.5q-9 -31 -28 -64.5t-44 -61t-56 -45t-64 -17.5q-23 0 -31.5 12.5t-8.5 26.5q0 26 20 58.5t50.5 64t68 57.5t73.5 40q9 39 8 66v3t-1 3q-42 -34 -88 -55.5t-87 -21.5q-32 0 -55 9.5t-39 25t-23.5 35.5t-7.5 41q0 22 7.5 45.5
t15.5 39.5l-3 2q-95 -100 -161.5 -149t-125.5 -49q-45 0 -71.5 25t-26.5 70q0 40 28 87t69.5 96.5t90 99t90 95.5t69.5 86.5t28 71.5q0 94 -105 94q-39 0 -82 -13.5t-84.5 -36t-78.5 -53t-65 -65t-44.5 -71t-16.5 -71.5q0 -36 20.5 -56t54.5 -20q26 0 60 17.5t64.5 47.5
t51.5 69t21 82q0 4 0.5 13.5t-0.5 12.5h12l1 -35q1 -42 -16 -81.5t-46.5 -70t-67.5 -49t-80 -18.5q-38 0 -62.5 22t-24.5 67q0 36 17 73.5t45.5 73t66.5 67.5t80 55.5t86.5 37.5t85.5 14q34 0 64.5 -8t53.5 -25.5t36 -44.5t13 -66q0 -37 -29 -82.5t-73 -94.5t-95 -99
t-95 -97t-73 -87.5t-29 -70.5q0 -27 18 -38.5t47 -11.5q33 0 73 23t83.5 59.5t87.5 82.5t85 91l364 404h92zM969 239q0 17 -8 30t-25 13q-20 0 -38 -21.5t-18 -66.5q0 -21 3.5 -44t6.5 -49q35 36 57 73.5t22 64.5zM857 -22q-32 -14 -65.5 -39t-61.5 -54.5t-46 -60.5t-18 -55
q0 -12 6.5 -17t16.5 -5q20 0 40 15t39 38.5t36 53t30 58.5q8 18 13.5 34.5t9.5 31.5z" />
    <glyph glyph-name="afii10041" unicode="&#x427;" horiz-adv-x="969" 
d="M635 176q-53 -61 -53 -112q0 -67 77 -67q32 0 65 13.5t63.5 35.5t58 49.5t48 55.5t32.5 53.5t12 43.5q0 21 -12.5 32t-29.5 11q-22 0 -46.5 -15.5t-48 -37t-43.5 -45t-34 -39.5l-10 6q14 18 35.5 42.5t47 47t51.5 38t49 15.5q20 0 39.5 -15.5t19.5 -53.5q0 -43 -27 -87.5
t-69.5 -80.5t-95.5 -58.5t-105 -22.5q-32 0 -55 9.5t-38.5 25t-23 35t-7.5 40.5q0 40 23 83.5t74 103.5l29 34q-96 -72 -170 -72q-44 0 -68 24t-24 71q0 32 11.5 58t29.5 49t38 43t38 41t29.5 43t11.5 48q0 43 -18.5 66t-65.5 23q-38 0 -80 -13.5t-83.5 -36t-79 -53t-66 -65
t-45.5 -71t-17 -71.5q0 -36 20.5 -56t54.5 -20q26 0 60 17.5t64.5 47.5t51.5 69t21 83q0 3 0.5 12.5t-0.5 12.5h12l1 -35q1 -42 -16 -81.5t-46.5 -70t-67.5 -49t-80 -18.5q-38 0 -62.5 22t-24.5 67q0 36 17 73.5t46.5 73t67.5 67.5t80.5 55.5t86 37.5t83.5 14q68 0 107 -33
t39 -102q0 -31 -12.5 -58.5t-32 -52t-42.5 -46.5t-42.5 -43.5t-32.5 -42.5t-13 -42q0 -25 15 -34.5t42 -9.5q28 0 66 18.5t77 46.5t75 60t60 59q10 7 28 25t39 42t43.5 50t40.5 48t29 36l11 14h93z" />
    <glyph glyph-name="afii10042" unicode="&#x428;" horiz-adv-x="1365" 
d="M1034 176q-53 -61 -53 -112q0 -67 77 -67q32 0 65 13.5t64 35.5t58 49.5t47.5 55.5t32.5 53.5t12 43.5q0 21 -12.5 32t-29.5 11q-22 0 -46.5 -15.5t-48 -37t-43.5 -45t-34 -39.5l-10 6q14 18 35.5 42.5t47 47t51.5 38t49 15.5q20 0 39.5 -15.5t19.5 -53.5
q0 -43 -27 -87.5t-69.5 -80.5t-95 -58.5t-104.5 -22.5q-32 0 -55.5 9.5t-39 25t-23.5 35t-8 39.5q0 23 8 47.5t16 40.5l-1 1q-48 -50 -88 -87.5t-75 -62t-65.5 -37t-60.5 -12.5q-27 0 -46.5 9t-32.5 24t-19.5 34t-6.5 39q0 23 9 49.5t17 42.5l-1 1q-48 -50 -88 -87t-75 -62
t-65.5 -37t-60.5 -12q-45 0 -70 25t-25 70q0 40 28 87t69.5 96.5t90 99t90 95.5t69.5 86.5t28 71.5q0 94 -105 94q-39 0 -82 -13.5t-84.5 -36t-78.5 -53t-65 -65t-44.5 -71t-16.5 -71.5q0 -36 20.5 -56t54.5 -20q26 0 60 17.5t64.5 47.5t51.5 69t21 83q0 3 0.5 12.5
t-0.5 12.5h12l1 -35q1 -42 -16 -81.5t-46.5 -70t-67.5 -49t-80 -18.5q-38 0 -62.5 22t-24.5 67q0 36 17 73.5t45.5 73t66.5 67.5t80 55.5t86.5 37.5t85.5 14q34 0 64.5 -8t53.5 -25.5t36 -44.5t13 -66q0 -37 -29 -82.5t-73 -94.5t-94.5 -99t-94.5 -97t-73 -87.5t-29 -70.5
q0 -27 15.5 -38.5t44.5 -11.5q33 0 73 23t83.5 59.5t87.5 82.5t85 91l364 404h93l-427 -481q-53 -61 -53 -112q0 -30 15 -48.5t48 -18.5t73 23t83.5 59.5t87.5 82.5t85 91l364 404h93z" />
    <glyph glyph-name="afii10043" unicode="&#x429;" horiz-adv-x="1365" 
d="M1034 176q-53 -61 -53 -112q0 -67 78 -67q44 0 89.5 24.5t85.5 59.5q-2 27 -5.5 54t-3.5 56q0 28 7 47.5t18.5 32t25 18.5t27.5 6q23 0 33.5 -15.5t10.5 -42.5q1 -36 -24.5 -77t-64.5 -78q2 -14 3 -28t0 -29v-12t-1 -13q5 1 9 1h9q17 0 36 -8t28 -28l-12 -4
q-7 16 -22.5 23.5t-32.5 7.5q-10 0 -15 -1q-2 -17 -5 -34.5t-9 -36.5q-9 -31 -28 -64.5t-44 -61t-55.5 -45t-63.5 -17.5q-23 0 -31.5 12.5t-8.5 26.5q0 26 19.5 58.5t50.5 64t68 57.5t72 40q11 38 9 65v7q-42 -34 -88 -56t-88 -22q-32 0 -55 9.5t-38.5 25t-23 35.5t-7.5 41
q0 22 7.5 45.5t15.5 39.5l-3 2q-95 -100 -161.5 -149t-125.5 -49q-27 0 -46.5 9t-32.5 23.5t-19.5 33.5t-6.5 40q0 22 8.5 48t17.5 42l-3 2q-95 -100 -161.5 -149t-125.5 -49q-45 0 -70 25t-25 70q0 40 28 87t69.5 96.5t90 99t90 95.5t69.5 86.5t28 71.5q0 94 -105 94
q-39 0 -82 -13.5t-84.5 -36t-78.5 -53t-65 -65t-44.5 -71t-16.5 -71.5q0 -36 20.5 -56t54.5 -20q26 0 60 17.5t64.5 47.5t51.5 69t21 82q0 4 0.5 13.5t-0.5 12.5h12l1 -35q1 -42 -16 -81.5t-46.5 -70t-67.5 -49t-80 -18.5q-38 0 -62.5 22t-24.5 67q0 36 17 73.5t45.5 73
t66.5 67.5t80 55.5t86.5 37.5t85.5 14q34 0 64.5 -8t53.5 -25.5t36 -44.5t13 -66q0 -37 -29 -82.5t-73 -94.5t-94.5 -99t-94.5 -97t-73 -87.5t-29 -70.5q0 -27 15.5 -38.5t44.5 -11.5q33 0 73 23t83.5 59.5t87.5 82.5t85 91l364 404h93l-427 -481q-53 -61 -53 -112
q0 -30 15 -48.5t48 -18.5t73 23t83.5 59.5t87.5 82.5t85 91l364 404h93zM1334 239q0 17 -7.5 30.5t-24.5 13.5q-20 0 -38 -21.5t-19 -66.5q0 -21 3.5 -44t7.5 -49q35 36 56.5 73.5t21.5 63.5zM1223 -22q-32 -14 -65.5 -39.5t-62 -55t-46.5 -60.5t-18 -55q0 -12 6.5 -16.5
t16.5 -4.5q20 0 40 15t39 38.5t36 53t30 58.5q15 36 24 66z" />
    <glyph glyph-name="afii10044" unicode="&#x42a;" horiz-adv-x="853" 
d="M874 302q0 -57 -29.5 -113.5t-82 -101.5t-124.5 -73t-156 -28q-51 0 -89 12.5t-64 35t-39 53.5t-13 67q0 56 33 116t86 118t120 110.5t135 92.5h-1q-11 -1 -19.5 -0.5t-18.5 1.5q-32 4 -66.5 16.5t-70.5 26t-72 24t-69 10.5q-21 0 -46.5 -10.5t-51.5 -29t-51 -43
t-44 -53.5t-30.5 -61t-11.5 -64q0 -40 20.5 -62.5t49.5 -22.5q39 0 74.5 26.5t62 65.5t42.5 82t17 76l12 -1q0 -44 -13 -90t-38.5 -84.5t-63.5 -63t-89 -24.5q-38 0 -62 25t-24 75q0 60 34 116t84.5 99.5t108.5 70t107 26.5q34 0 69 -10t69.5 -24.5t68 -30.5t64.5 -28
q45 37 81.5 60.5t56.5 24.5q14 0 22.5 -7.5t8.5 -17.5q0 -20 -21.5 -36.5t-51 -28.5t-60.5 -19.5t-50 -8.5q-69 -53 -128.5 -120t-103 -135.5t-68.5 -131.5t-25 -108q0 -48 31 -75.5t91 -27.5q58 0 107.5 16t90 42t71 60t51 69.5t31.5 70.5t11 63q0 41 -19.5 64.5
t-66.5 23.5q-41 0 -80.5 -16.5t-71 -43.5t-51 -61.5t-19.5 -70.5q0 -38 23 -53t60 -15q28 0 54.5 17.5t47 45t33 62t12.5 68.5h12q0 -37 -11.5 -73.5t-32 -66t-50 -48t-65.5 -18.5q-44 0 -69.5 20t-25.5 62t21 79.5t55 65t75 43.5t82 16q57 0 90.5 -30.5t33.5 -87.5z
M849 687q2 15 -18 15q-32 0 -125 -75l1 -1q28 0 54 6t45.5 15.5t31 20t11.5 19.5z" />
    <glyph glyph-name="afii10045" unicode="&#x42b;" horiz-adv-x="1063" 
d="M721 176q-53 -61 -53 -112q0 -67 77 -67q32 0 65 13.5t64 35.5t58 49.5t47.5 55.5t32.5 53.5t12 43.5q0 21 -12.5 32t-29.5 11q-22 0 -46.5 -15.5t-48 -37t-43.5 -45t-34 -39.5l-10 6q14 18 35.5 42.5t47 47t51.5 38t49 15.5q20 0 39.5 -15.5t19.5 -53.5q0 -43 -27 -87.5
t-69.5 -80.5t-95 -58.5t-104.5 -22.5q-32 0 -55.5 9.5t-39 25t-23.5 35t-8 40.5q0 25 5.5 47t17.5 44.5t31.5 47t47.5 54.5l54 58l-5 2q-9 -8 -25.5 -19t-38 -23t-46 -23.5t-50.5 -18.5q-8 -45 -35.5 -94.5t-71.5 -90.5t-103.5 -67.5t-131.5 -26.5q-48 0 -83 13t-58.5 36
t-34.5 54t-11 68q0 64 37.5 131t97.5 130t136 119t154 98l-2 3q-9 -4 -26.5 -9t-38.5 -9t-43.5 -6.5t-41.5 -2.5q-11 0 -32 2t-42 7t-37 15t-16 26q0 18 12 30t30.5 19.5t41.5 10.5t45 3q18 0 32.5 -1.5t25.5 -3.5l-2 -13q-10 2 -26.5 3.5t-33.5 1.5q-13 0 -29.5 -2
t-31 -7.5t-24.5 -15t-10 -25.5q0 -12 9.5 -19t24 -11.5t32.5 -6t35 -1.5q34 0 72.5 7t76 17.5t71.5 24t60 26.5l1 -10q-54 -32 -112 -76t-114 -95.5t-106 -107t-88 -110t-60.5 -105.5t-22.5 -92q0 -48 34 -75.5t92 -27.5q49 0 98 25t91.5 62.5t75.5 82.5t50 86
q-20 -3 -39 -3q-22 0 -43 4.5t-37 14.5t-26 26t-10 38q0 19 8.5 34t22 25t30.5 15.5t34 5.5q19 0 36.5 -6.5t30.5 -21t21 -36t8 -51.5v-9.5t-1 -9.5q33 12 68 30t67 38.5t58.5 42t42.5 39.5q7 4 20.5 17t30 31t35.5 39.5t38 43.5q43 51 94 113h92zM591 318q0 24 -6.5 39.5
t-17.5 25t-24.5 13.5t-28.5 4q-14 0 -27.5 -4.5t-24.5 -13t-18 -21.5t-7 -29q0 -35 28.5 -50.5t73.5 -15.5q18 0 43 5q9 25 9 47z" />
    <glyph glyph-name="afii10046" unicode="&#x42c;" horiz-adv-x="644" 
d="M675 302q0 -57 -29.5 -113.5t-82 -102t-125 -73.5t-157.5 -28q-50 0 -86 13t-59 35.5t-34 54t-11 67.5q0 64 37 131.5t97 130.5t136 119t153 98l-2 3q-9 -4 -26.5 -9t-38.5 -9t-43.5 -6.5t-41.5 -2.5q-11 0 -32 1.5t-42 7t-36.5 15t-15.5 25.5q0 18 12 30t30.5 19.5
t41.5 11t45 3.5q18 0 32.5 -1.5t25.5 -3.5l-2 -13q-10 2 -27 3.5t-34 1.5q-13 0 -29.5 -2t-31 -7.5t-24.5 -15t-10 -25.5q0 -12 9.5 -19t24 -11.5t32.5 -6t35 -1.5q34 0 73 7t76.5 17.5t71.5 24t60 26.5l1 -10q-54 -32 -112 -76t-114 -95.5t-106.5 -107t-88.5 -110
t-60.5 -105.5t-22.5 -92q0 -48 34.5 -75.5t97.5 -27.5q58 0 107.5 16t90 42t71 60t51 69.5t31 70.5t10.5 63q0 41 -19.5 64.5t-65.5 23.5q-41 0 -80.5 -16.5t-71 -43.5t-51 -61.5t-19.5 -70.5q0 -38 23 -53.5t60 -15.5q28 0 54.5 18t47 45.5t33 62t12.5 68.5h12
q0 -37 -11.5 -73.5t-32.5 -66t-50.5 -48t-65.5 -18.5q-44 0 -69.5 20t-25.5 62t21 79.5t55 65t75.5 43.5t82.5 16q57 0 90.5 -30.5t33.5 -87.5z" />
    <glyph glyph-name="afii10047" unicode="&#x42d;" horiz-adv-x="630" 
d="M794 578q0 -50 -17 -105t-45 -102q-44 -74 -108.5 -143.5t-141 -123.5t-159.5 -86.5t-164 -32.5q-70 0 -109 34t-39 85q0 49 23.5 88t60 66t81 41.5t85.5 14.5q46 0 64.5 -21.5t18.5 -49.5q0 -33 -18 -62t-44.5 -50.5t-56.5 -34t-54 -12.5q-35 0 -55 16t-20 37
q0 25 25 44l7 -7q-21 -14 -21 -36q1 -17 16 -29.5t45 -12.5q22 0 50.5 15.5t53.5 38t42 47.5t17 43q0 24 -15 43t-53 19t-78.5 -16.5t-75 -43.5t-56.5 -62.5t-22 -73.5q0 -25 10 -45t27.5 -34.5t41 -22t50.5 -7.5q53 0 112 29t117.5 75.5t113 105t98.5 117.5l-259 -1l6 13
l263 -1q8 11 14.5 21t12.5 20q22 32 42 67t35.5 70t24.5 68.5t9 63.5q0 13 -6 26t-17 23.5t-28.5 17t-39.5 7.5q-1 1 -5.5 0.5t-6.5 -1.5q-2 -2 -4 -3q1 -5 1 -15q0 -40 -11.5 -80t-26.5 -71q-12 -26 -34 -57t-49.5 -58t-58.5 -45t-62 -18q-36 0 -57.5 24.5t-21.5 57.5
q0 47 30.5 94t76 85.5t99.5 64.5t101 31q-8 39 -28 71.5t-42 45.5l7 10q23 -14 45 -48.5t29 -77.5q2 0 5.5 0.5t5.5 0.5q42 0 69.5 -14t44 -36t23 -49t6.5 -53zM632 698v10.5t-1 11.5q-44 -6 -94 -33t-92 -66t-69.5 -84t-27.5 -87q0 -26 12.5 -46t41.5 -20q30 0 59 18
t54.5 45t46.5 57.5t33 53.5q7 14 13.5 32t12 36.5t8.5 37.5t3 34z" />
    <glyph glyph-name="afii10048" unicode="&#x42e;" horiz-adv-x="1366" 
d="M1603 569q0 -49 -21.5 -80.5t-51.5 -62.5l-10 5q32 34 51.5 65.5t19.5 73.5q0 36 -14.5 62.5t-38 44t-53.5 25.5t-61 8q-40 0 -89 -18t-102 -48.5t-107 -72t-104 -88.5t-94 -97.5t-76.5 -99.5t-51.5 -94.5t-19 -81.5q0 -63 36 -88t94 -25q77 0 148.5 25t134 65.5t114 91
t88 101.5t57 97.5t20.5 79.5q0 50 -26 81.5t-79 31.5q-41 0 -86 -20t-83.5 -52t-63.5 -71.5t-25 -77.5q0 -35 19.5 -52.5t52.5 -17.5q28 0 59 19.5t56.5 48.5t43.5 63t21 61h9q0 -36 -14.5 -72t-40 -65.5t-59 -48t-70.5 -18.5q-40 0 -64.5 19t-24.5 62q0 44 26.5 86t67 75
t88 53t88.5 20q53 0 85 -31.5t32 -92.5q0 -37 -21.5 -87t-60 -102.5t-91.5 -103.5t-116.5 -91t-135 -64.5t-145.5 -24.5q-48 0 -82.5 13t-56.5 36.5t-32.5 56t-10.5 71.5t13 79.5t36 81.5q-10 -1 -32 -3.5t-46.5 -6t-46.5 -7t-32 -5.5q-39 -60 -88 -116.5t-107.5 -101
t-125.5 -71.5t-141 -27q-24 0 -51 5t-49.5 17t-37.5 30.5t-15 45.5q0 22 13.5 40t38.5 18q23 0 37.5 -12.5t14.5 -35.5q0 -26 -14 -35.5t-28 -11.5q-8 -1 -14.5 -3t-6.5 -8q0 -5 8.5 -11.5t23.5 -12.5t34.5 -10t41.5 -4q57 0 106 27t93.5 69.5t85 95t79.5 103.5
q-73 -11 -136.5 -43t-113.5 -77l-6 6q21 24 52 45t66.5 37.5t73 28t72.5 15.5q31 43 71.5 90t85.5 92.5t92.5 87t92.5 73.5l-1 3q-42 -22 -82.5 -38t-87.5 -16q-32 0 -57 13.5t-50.5 29t-53.5 29t-65 13.5q-31 0 -67.5 -15.5t-67.5 -41.5t-52 -62t-21 -76q0 -47 31.5 -70.5
t74.5 -23.5q34 0 71 14.5t70 37.5t57.5 53t35.5 62l8 -3q-11 -37 -32.5 -70t-51 -58t-66.5 -39.5t-79 -14.5q-27 0 -51 7t-41.5 21t-28 36t-10.5 52q0 43 27 84.5t69.5 74.5t94.5 53t101 20q35 0 64.5 -13.5t57 -30t54.5 -30t56 -13.5q37 0 82 21t81 51l5 -11
q-95 -74 -170.5 -172.5t-145.5 -210.5q10 1 32 4.5t46 6.5t46 6t32 4q30 50 73 98t94.5 91.5t109.5 79.5t117.5 62.5t119 41.5t113.5 15q39 0 73 -9t59.5 -28t40.5 -47.5t15 -68.5z" />
    <glyph glyph-name="afii10049" unicode="&#x42f;" horiz-adv-x="952" 
d="M1024 575q0 -23 -10 -40t-25.5 -29t-36 -18t-41.5 -6q-28 0 -56 11l-230 -268q-18 -21 -33 -44t-25.5 -45t-16.5 -42t-6 -34q0 -34 20.5 -48.5t55.5 -14.5q29 0 63 13.5t68 36t65 51t55.5 58t39 57t14.5 49.5q0 24 -16.5 36t-39.5 12q-25 0 -51 -14.5t-49.5 -36t-43 -47
t-30.5 -46.5l-6 5q11 27 31 54t44.5 49t51.5 35.5t53 13.5q32 0 52.5 -18t20.5 -53q0 -36 -22.5 -82.5t-64.5 -87.5t-101.5 -69t-133.5 -28q-60 0 -89 32.5t-29 84.5q0 31 14.5 67.5t40 75.5t59 80.5t71.5 83.5l105 116q-23 16 -41 35l10 7q18 -18 39 -33l86 95h91
l-112 -126q24 -9 48 -9q17 0 34.5 5t31.5 15.5t23 25t9 34.5q0 39 -19 65.5t-48.5 42t-64.5 22t-66 6.5q-35 0 -75 -10.5t-79 -29t-75 -43.5t-64 -53q-30 -30 -54 -63.5t-24 -70.5q0 -20 8 -35t21.5 -25t30 -14.5t32.5 -4.5q32 0 58.5 6.5t44.5 15.5l5 -5
q-24 -15 -49.5 -37.5t-49 -47t-43.5 -48t-33 -41.5q-33 -43 -67.5 -82.5t-75 -70t-88 -49t-105.5 -18.5q-28 0 -54 6.5t-45.5 18.5t-31.5 30.5t-12 42.5q0 25 14 42t40 17q23 0 37 -13.5t14 -34.5q0 -20 -12.5 -32.5t-27.5 -12.5q-20 0 -20 -13q0 -10 24 -24t75 -14
q32 0 63.5 18.5t61.5 48t57.5 64.5t52.5 68q37 50 86.5 87.5t109.5 63.5v3q-8 -2 -17 -3t-18 -1q-26 0 -51 8t-44.5 22t-32 34.5t-12.5 45.5q0 107 122 188q31 20 67.5 35t75.5 24.5t79 14t76 4.5q37 0 75.5 -7t69.5 -24.5t51 -45.5t20 -70z" />
    <glyph glyph-name="afii10065" unicode="&#x430;" 
d="M514 97q-23 -17 -54 -37t-63.5 -36.5t-64 -27.5t-56.5 -11q-17 0 -27.5 5t-16.5 13t-9 16.5t-3 16.5q0 21 9 38l-2 1q-87 -90 -147 -90q-30 0 -47 19t-17 51q0 36 15.5 69.5t40.5 62.5t57 52.5t65 40t63.5 25.5t53.5 9q27 0 44 -12t18 -27q0 -5 -0.5 -9.5t-2.5 -10.5h2
l43 47h98l-237 -257q-7 -8 -13 -17t-7 -15q0 -8 7.5 -12t15.5 -4q22 0 51.5 10.5t61 26.5t62 35t54.5 37l6 -9v0zM360 270q0 14 -10.5 21.5t-24.5 7.5t-28 -5.5t-37.5 -25.5t-61.5 -60.5t-101 -109.5q-26 -29 -36.5 -46.5t-10.5 -28.5q0 -12 8.5 -19t22.5 -7q27 0 65 25.5
t82 70.5q38 39 63.5 69t40.5 51t21.5 35t6.5 22z" />
    <glyph glyph-name="afii10066" unicode="&#x431;" horiz-adv-x="404" 
d="M567 712q-9 -13 -23 -27.5t-31 -27t-36.5 -21t-38.5 -8.5q-18 0 -31.5 1.5t-26 4t-25 4t-28.5 1.5q-46 0 -46 -45q0 -65 16 -118.5t39 -103.5q15 -32 31.5 -62t16.5 -62q0 -46 -34 -95q-19 -26 -40.5 -51t-51.5 -49h1q16 3 37 10t42 16.5t41 20.5t35 22l6 -7
q-33 -25 -81.5 -47t-99.5 -29q-25 -20 -61.5 -37t-74.5 -17q-40 0 -61 22.5t-21 53.5q0 36 27.5 80.5t71.5 83.5t98.5 65.5t107.5 26.5l7 -11q-18 0 -43 -18.5t-50.5 -44t-47.5 -51t-33 -39.5q-42 -50 -65.5 -77.5t-23.5 -47.5q0 -12 9 -21.5t29 -9.5q27 0 58.5 14.5t63 38
t60 54t51.5 62.5q16 23 23 44t7 40q0 13 -5 28t-12.5 30.5t-16 30.5t-14.5 29q-11 23 -22.5 51.5t-20.5 61t-15 67t-6 69.5q0 27 6.5 43.5t17 26t24.5 12.5t29 3q25 0 52.5 -3.5t52.5 -4.5q10 0 26 0.5t33 3t33 7t27 13.5l7 -6v0z" />
    <glyph glyph-name="afii10067" unicode="&#x432;" horiz-adv-x="414" 
d="M683 668q0 -31 -25.5 -73t-76.5 -89.5t-128 -97t-180 -96.5q-60 -71 -100 -120.5t-65 -83t-35.5 -53t-10.5 -29.5q0 -17 13.5 -23t26.5 -6q44 0 97 35t131 115q-7 9 -11.5 19.5t-4.5 24.5q0 15 8 34.5t21.5 37t29.5 30t33 12.5q11 0 17 -8.5t6 -20.5q0 -18 -7.5 -35
t-19.5 -33t-26 -31.5t-26 -28.5q8 -5 19 -7.5t22 -2.5q17 0 37.5 11t35.5 31l6 -7q-12 -20 -36 -33.5t-49 -13.5q-15 0 -25 4t-18 9q-38 -37 -70 -66t-60.5 -48.5t-56.5 -29.5t-58 -10q-32 0 -51.5 21.5t-19.5 62.5q0 16 5.5 34.5t20.5 44.5t41.5 62t69.5 86q36 41 80 88.5
t91.5 94t94 89t88 75t73.5 52t50 19.5q43 0 43 -46zM672 670q0 13 -5.5 22t-18.5 9q-17 0 -41.5 -16.5t-65.5 -58.5t-102.5 -113t-150.5 -180h2q91 43 162 89.5t120 91t74.5 84.5t25.5 72z" />
    <glyph glyph-name="afii10068" unicode="&#x433;" horiz-adv-x="328" 
d="M332 86q-23 -17 -53 -35t-61 -32.5t-61 -24t-53 -9.5q-31 0 -47.5 17t-16.5 37q0 19 10.5 40t26.5 35l145 131q11 9 20.5 23t9.5 22q0 13 -17 13q-15 0 -35.5 -9t-42.5 -22t-42.5 -26.5t-33.5 -23.5l-6 10q18 13 39.5 27.5t44 27.5t45 21.5t41.5 8.5q25 0 38.5 -14
t13.5 -28q0 -8 -1 -18.5t-5.5 -24t-15 -29t-28.5 -31.5l-101 -87q-9 -8 -18 -18t-17 -20t-13 -19t-5 -14q0 -17 16 -17q20 0 45.5 8t54 21.5t59 31t59.5 36.5l5 -8v0z" />
    <glyph glyph-name="afii10069" unicode="&#x434;" horiz-adv-x="463" 
d="M248 13l1 -1q28 10 59 21.5t62 24t59.5 25.5t51.5 25l7 -8q-25 -14 -57.5 -28.5t-67 -28.5t-68.5 -26t-61 -20q-45 -51 -97 -101t-103.5 -90t-99 -64.5t-83.5 -24.5q-26 0 -41 11.5t-15 31.5q0 25 24.5 52.5t69.5 56t107.5 57t138.5 56.5l54 59l-2 1q-28 -23 -55.5 -39
t-57.5 -16q-31 0 -45 22t-14 53q0 47 30 92.5t75 81.5t96 58t93 22q28 0 44.5 -12t16.5 -37q0 -8 -1 -12h2l41 47h93zM361 264q1 14 -9 26t-31 12q-20 0 -44 -15.5t-48.5 -37.5t-47 -46l-37.5 -40q-3 -3 -18.5 -19.5t-33.5 -38.5t-32 -44t-14 -36q0 -11 8.5 -18t24.5 -7
q31 0 75.5 29t89.5 80l95 107q15 17 18.5 27t3.5 21zM121 -36q-62 -23 -119 -48.5t-100 -51.5t-69 -52t-26 -50q0 -17 12 -25t29 -8q18 0 37 8t48.5 33t74 71t114.5 122z" />
    <glyph glyph-name="afii10070" unicode="&#x435;" horiz-adv-x="334" 
d="M362 264q0 -33 -24 -58t-59.5 -42t-76.5 -25.5t-74 -9.5q-26 -28 -41.5 -47t-23.5 -31.5t-10.5 -20t-2.5 -12.5q0 -13 11.5 -17.5t26.5 -4.5q25 0 60 10.5t71 26.5t69.5 35t57.5 37l6 -9q-23 -17 -57.5 -37t-72 -36.5t-73.5 -27.5t-63 -11q-31 0 -53 16.5t-22 48.5
q0 48 31.5 95t77.5 85t96.5 61.5t89.5 23.5q26 0 41 -14t15 -36zM333 281q0 9 -5.5 15t-13.5 6q-14 0 -36 -17.5t-41 -37.5l-99 -106q36 0 71 13.5t62.5 34t44.5 45t17 47.5z" />
    <glyph glyph-name="afii10072" unicode="&#x436;" horiz-adv-x="797" 
d="M507 65q0 36 27 80h-70l-130 -145h-81l129 145h-71q-20 -30 -48.5 -59t-60.5 -51.5t-65.5 -36.5t-62.5 -14q-38 0 -55.5 17.5t-17.5 42.5q0 24 12.5 37t29.5 13t29 -10.5t12 -26.5q0 -17 -10 -28t-28 -11q-17 0 -27 11l-2 -1q1 -15 14.5 -23t24.5 -8q27 0 75 46t108 121
q25 32 40 51.5t22 31.5t9 17.5t2 10.5q0 11 -11 19t-29 8q-23 0 -50.5 -10t-56.5 -27t-58.5 -40t-55.5 -49l-3 16q57 54 116 88t106 34q42 0 58 -23.5t16 -56.5q0 -17 -7 -37t-20 -40h76l128 145h83l-129 -145h67q20 30 48.5 58t60.5 50.5t64.5 36t61.5 13.5
q38 0 55.5 -17.5t17.5 -42.5q0 -24 -12.5 -37t-29.5 -13t-29 10.5t-12 26.5q0 17 10 28t28 11q17 0 27 -11l2 1q-1 15 -14.5 23t-25.5 8q-27 0 -74.5 -46t-107.5 -121q-26 -32 -40.5 -51.5t-21.5 -31.5t-9 -18t-2 -10q0 -11 11 -19t28 -8q22 0 50 9t57 25.5t58.5 38.5
t56.5 48l4 -12q-27 -26 -57 -48.5t-59.5 -38.5t-57.5 -25t-50 -9q-41 0 -57 23.5t-16 56.5z" />
    <glyph glyph-name="afii10073" unicode="&#x437;" horiz-adv-x="333" 
d="M342 104q-16 -8 -35 -17t-38.5 -18t-38.5 -17t-37 -14q-3 -37 -24 -74.5t-53 -72.5t-72.5 -65.5t-83 -53.5t-84 -36t-76.5 -13q-20 0 -34.5 7.5t-14.5 28.5q0 22 19.5 47.5t50 50.5t68 49t73.5 44t67 35t49 22q14 5 27 10.5t27 11.5q2 4 9 19t7 28q-23 -10 -48.5 -16
t-47.5 -6q-8 0 -16 3.5t-8 13.5q0 11 9 19t22.5 13.5t29.5 8t31 2.5q7 0 12.5 -0.5t10.5 -1.5q24 19 47 42.5t40.5 47.5t28.5 46.5t11 39.5q0 7 -6.5 12t-18.5 5q-20 0 -44.5 -11t-50 -27.5t-51 -38t-46.5 -42.5l-8 6q59 61 111 93t97 32q25 0 42 -11.5t17 -32.5
q0 -29 -10 -55.5t-27.5 -50t-41 -43.5t-50.5 -35q5 -8 8 -18.5t4 -20.5q17 6 35.5 14t37.5 16t36.5 16.5t32.5 15.5l5 -8v0zM132 101q-8 3 -18 3q-28 0 -51 -9.5t-23 -23.5q0 -8 8 -8q17 0 39 10.5t45 27.5zM122 12q-18 -8 -51.5 -23t-73.5 -35.5t-81 -44.5t-74.5 -49.5
t-55 -51t-21.5 -47.5q0 -14 8 -19t22 -5t38.5 13t55 34.5t64 50t65 59t59 61t45.5 57.5z" />
    <glyph glyph-name="afii10074" unicode="&#x438;" 
d="M234 39q0 25 13 45l-2 2q-21 -19 -42.5 -37t-44 -32.5t-45 -23.5t-44.5 -9q-29 0 -47.5 20t-18.5 46q0 24 12.5 47t45.5 61l124 144h94l-192 -218q-29 -33 -37.5 -46t-8.5 -20q0 -10 9 -15.5t23 -5.5q19 0 44 10.5t52.5 30t57 46.5t58.5 59l142 159h93l-212 -236
q-23 -26 -30.5 -35.5t-7.5 -17.5q0 -16 19 -16q22 0 50 9.5t58 24.5t59.5 33.5t54.5 36.5l6 -9q-24 -17 -54 -36t-61.5 -35t-62 -26t-54.5 -10q-25 0 -38 15t-13 39z" />
    <glyph glyph-name="afii10075" unicode="&#x439;" 
d="M564 467q-15 -15 -40.5 -31t-57 -29t-65.5 -21.5t-65 -8.5q-44 0 -58.5 10.5t-14.5 27.5t14.5 34.5t34.5 28.5h76q-13 -6 -24.5 -15t-20.5 -18.5t-14.5 -18.5t-5.5 -15q0 -11 8 -16t20 -5q24 0 53.5 7.5t58 19.5t54 27t40.5 30l7 -7v0zM234 39q0 25 13 45l-2 2
q-21 -19 -42.5 -37t-44 -32.5t-45 -23.5t-44.5 -9q-29 0 -47.5 20t-18.5 46q0 24 12.5 47t45.5 61l124 144h94l-192 -218q-29 -33 -37.5 -46t-8.5 -20q0 -10 9 -15.5t23 -5.5q19 0 44 10.5t52.5 30t57 46.5t58.5 59l142 159h93l-212 -236q-23 -26 -30.5 -35.5t-7.5 -17.5
q0 -16 19 -16q22 0 50 9.5t58 24.5t59.5 33.5t54.5 36.5l6 -9q-24 -17 -54 -36t-61.5 -35t-62 -26t-54.5 -10q-25 0 -38 15t-13 39z" />
    <glyph glyph-name="afii10076" unicode="&#x43a;" 
d="M456 302q23 0 36.5 -12t13.5 -30q1 -22 -14 -36.5t-35 -14.5q-16 0 -26 11.5t-10 25.5q0 11 5.5 21t13.5 15q5 2 7 5q0 2 -2 2.5t-4 1.5q-21 -3 -37.5 -25t-36 -46.5t-44.5 -44t-63 -18.5l-1 -2q31 -2 48 -17t17 -35q0 -14 -8 -28t-17.5 -26.5t-18 -23t-8.5 -16.5
q0 -12 17 -12q20 0 46.5 8.5t55 22.5t57 31.5t53.5 34.5l6 -9q-24 -17 -53 -35t-60 -32.5t-61.5 -24.5t-56.5 -10q-34 0 -49 14t-15 34q0 13 7.5 28t17.5 29t18.5 25.5t8.5 16.5q0 7 -8 12.5t-31 5.5h-68l-125 -148h-90l264 302h84l-123 -142h48q36 0 61 10.5t43.5 26
t32.5 34t29 34.5t32.5 26.5t42.5 10.5z" />
    <glyph glyph-name="afii10077" unicode="&#x43b;" horiz-adv-x="465" 
d="M209 47q0 17 11.5 39t31.5 48t47.5 55.5t59.5 62.5q27 27 27 39q0 13 -15 13q-18 0 -38.5 -12t-43 -32t-46 -46.5t-47.5 -55.5q-17 -21 -38 -50.5t-45 -57t-50 -46.5t-54 -19q-27 0 -44 18t-17 46q0 26 15 45.5t40 19.5q17 0 28 -10t11 -28t-13 -33.5t-33 -15.5
q-11 0 -19.5 5.5t-13.5 13.5l-2 1q1 -24 15 -37t34 -13q24 0 49.5 19.5t49 47t45 57t38.5 49.5q15 19 36.5 44.5t45.5 48t49 38.5t49 16q16 0 30 -12.5t14 -50.5q0 -31 -32.5 -76t-83.5 -99q-31 -32 -43.5 -46.5t-12.5 -21.5q0 -6 5 -10.5t13 -4.5q22 0 50.5 9.5t58.5 25
t59.5 34t54.5 36.5l6 -8q-24 -17 -54 -36t-61.5 -35t-62 -27t-54.5 -11q-27 0 -38.5 17.5t-11.5 45.5z" />
    <glyph glyph-name="afii10078" unicode="&#x43c;" horiz-adv-x="685" 
d="M711 93q-24 -17 -54.5 -36t-62 -35t-62 -26.5t-54.5 -10.5q-23 0 -38.5 11.5t-15.5 37.5q0 21 11.5 45.5t32.5 52.5t49 59t61 63q14 14 23 25t10 16q0 10 -10 10q-18 0 -58.5 -35t-102.5 -110q-26 -32 -51.5 -63t-49.5 -56t-45.5 -40.5t-39.5 -15.5q-24 0 -36 15.5
t-12 43.5q1 34 41.5 87.5t103.5 120.5q25 27 25 39q0 6 -1.5 9.5t-9.5 3.5q-12 0 -29.5 -11.5t-38.5 -31.5t-44 -46t-47 -56q-22 -28 -44 -59t-44.5 -56.5t-46 -42t-47.5 -16.5q-27 0 -43.5 18t-16.5 46q0 26 15 45.5t40 19.5q17 0 28 -10t11 -28t-13.5 -33.5t-33.5 -15.5
q-11 0 -19.5 5.5t-13.5 13.5l-1 1q0 -23 14.5 -36.5t34.5 -13.5q18 0 36.5 12.5t38.5 32.5q24 26 49 60.5t51 68.5q15 19 36 44.5t44 47.5t45.5 37.5t41.5 15.5q14 0 26.5 -10.5t12.5 -35.5q1 -39 -28.5 -85t-86.5 -106q-29 -31 -39 -45t-10 -25q0 -12 15 -12q23 0 64 45.5
t111 129.5q21 24 45 50t47.5 47t45 34.5t37.5 13.5q12 0 21 -8t9 -25q0 -31 -16 -61t-40 -60t-52.5 -61t-53.5 -64q-8 -10 -10 -17t-2 -12q0 -12 18 -12q22 0 50.5 10t58.5 25t59.5 33t54.5 36l6 -8v0z" />
    <glyph glyph-name="afii10079" unicode="&#x43d;" 
d="M237 38q0 14 6 28.5t15 28.5t19.5 26.5t19.5 23.5h-139l-132 -145h-91l275 302h90l-131 -145h139l132 145h89l-218 -241q-15 -17 -26.5 -30t-11.5 -20q0 -6 3 -10.5t11 -4.5q21 0 48 9t55.5 23t57 31.5t53.5 34.5l6 -9q-24 -17 -52.5 -34.5t-58 -32t-57.5 -24t-51 -9.5
q-27 0 -39 15t-12 38z" />
    <glyph glyph-name="afii10080" unicode="&#x43e;" horiz-adv-x="426" 
d="M478 170q-17 -14 -37.5 -24.5t-43.5 -10.5q-28 0 -44 14q-30 -35 -60.5 -64.5t-61.5 -52t-63 -35t-65 -12.5q-40 0 -61 22.5t-21 53.5q0 24 13 52t35 56.5t50.5 55t60 47t63 33t60.5 12.5q22 0 35.5 -5.5t24.5 -21.5q9 5 18 7q11 0 20 -8.5t9 -25.5q0 -24 -14 -50.5
t-37 -53.5q9 -7 20 -9.5t23 -2.5q15 0 37 10t36 24l3 -11v0zM352 284q-3 6 -9 10.5t-16 4.5q-16 0 -34 -12.5t-51 -44.5q-44 -43 -81.5 -83.5t-67.5 -78.5q-13 -17 -18 -29t-5 -23q0 -12 9 -21.5t29 -9.5q29 0 59.5 13.5t60.5 35.5t59 50.5t54 59.5q-10 8 -17.5 22t-7.5 30
q0 23 11.5 45t24.5 31z" />
    <glyph glyph-name="afii10081" unicode="&#x43f;" 
d="M238 47q0 34 39.5 82.5t102.5 111.5q25 25 25 36q0 22 -26 22q-18 0 -47.5 -16t-63 -42.5t-69 -59t-65.5 -65.5l-105 -116h-93l275 302h88l-81 -88l1 -1q22 19 44.5 37t44 31.5t40.5 21.5t33 8q22 0 38 -15.5t16 -54.5q0 -31 -30 -73t-79 -93q-29 -31 -41 -44t-12 -20
q0 -6 5 -10.5t13 -4.5q21 0 47 8.5t54.5 22.5t56.5 31.5t53 34.5l7 -9q-24 -17 -53 -34.5t-59 -32t-59 -24t-52 -9.5q-27 0 -37.5 17.5t-10.5 45.5z" />
    <glyph glyph-name="afii10082" unicode="&#x440;" 
d="M507 85q-24 -17 -53 -34.5t-59 -32t-58.5 -24t-51.5 -9.5q-20 0 -38 12.5t-18 44.5q0 19 12.5 40.5t33.5 45t47.5 49.5t53.5 54q18 18 25 28t7 16q0 10 -7 17t-20 7q-18 0 -49.5 -18t-64.5 -43t-62 -50t-42 -40l-350 -388h-93l491 542h90l-79 -85l2 -1q20 16 41.5 33
t42.5 31t40.5 23t35.5 9q23 0 38 -16.5t15 -46.5q0 -24 -12.5 -49t-30.5 -49t-40 -46t-40 -40.5t-30.5 -32.5t-12.5 -21q0 -8 5.5 -11t12.5 -3q21 0 47.5 8.5t54.5 22.5t56.5 31.5t53.5 34.5l6 -9v0z" />
    <glyph glyph-name="afii10083" unicode="&#x441;" horiz-adv-x="333" 
d="M366 255q0 -24 -12.5 -37t-29.5 -13q-17 -1 -29 10t-12 27q0 17 10 28t28 11q17 0 27 -11l2 1q-1 15 -14.5 23t-25.5 8q-27 0 -73.5 -46t-106.5 -121q-26 -32 -40.5 -51.5t-22.5 -31.5t-10 -18t-2 -10q0 -11 12.5 -19t35.5 -8q24 0 53.5 9.5t60.5 24.5t61 33.5t55 36.5
l7 -10q-24 -18 -55.5 -36.5t-64 -34t-63.5 -26t-56 -10.5q-42 0 -62.5 21t-20.5 60q0 38 27.5 81.5t69 81t89.5 62.5t89 25q38 0 55.5 -17.5t17.5 -42.5z" />
    <glyph glyph-name="afii10084" unicode="&#x442;" horiz-adv-x="760" 
d="M490 47q0 34 39.5 82t102.5 111q25 25 25 37q0 11 -7.5 16.5t-18.5 5.5q-22 0 -56 -19.5t-72.5 -50t-79 -69t-75.5 -77.5l-76 -83h-95l199 216q25 28 33.5 40t8.5 24q0 9 -6.5 14t-17.5 5q-21 0 -54 -16t-70.5 -42.5t-75.5 -59.5t-69 -66l-107 -115h-85l266 303h91
l-111 -119h1q81 64 133 95.5t87 31.5q27 0 40 -16t14 -37q0 -34 -22 -72l1 -2q31 24 59 47t53.5 41t47.5 28.5t42 10.5q18 0 35 -15t17 -55q0 -31 -30 -73t-79 -93q-29 -31 -41 -44t-12 -21q0 -14 17 -14q22 0 48.5 9t55 23t57 31t52.5 34l6 -9q-24 -17 -53 -34.5t-59 -32
t-58 -24t-50 -9.5q-27 0 -39 17.5t-12 45.5z" />
    <glyph glyph-name="afii10085" unicode="&#x443;" horiz-adv-x="481" 
d="M259 19l1 -2q54 14 113.5 38.5t119.5 59.5l7 -7q-62 -37 -125 -63.5t-133 -44.5l-43 -46q-52 -56 -102.5 -99.5t-96.5 -74t-85.5 -46.5t-69.5 -16q-23 0 -40.5 13.5t-17.5 36.5q0 27 28 55t76 56t112.5 54.5t136.5 51.5l68 73l-2 1q-40 -32 -72.5 -45.5t-58.5 -13.5
t-41.5 14.5t-15.5 40.5q0 23 10.5 48.5t40.5 59.5l124 139h100l-197 -208q-23 -24 -32.5 -38t-9.5 -25q0 -19 25 -19q36 0 86 30t100 84l160 176h99zM123 -31q-49 -17 -105.5 -40t-105 -49t-80.5 -54.5t-32 -56.5q0 -17 12 -28t30 -11q21 0 46.5 12.5t59.5 40.5t77 73
t99 110z" />
    <glyph glyph-name="afii10086" unicode="&#x444;" horiz-adv-x="664" 
d="M898 560q0 -24 -13 -35.5t-33 -11.5q-15 0 -26.5 10t-11.5 29q0 11 5.5 19.5t14.5 11.5q3 1 7.5 2t7.5 0l1 1q-9 9 -27 9q-24 0 -52.5 -15.5t-58.5 -40.5t-60 -56t-57 -61.5t-49.5 -57.5t-37.5 -44l-33 -37l1 -2q23 18 45 28t39 10q33 0 49.5 -18t16.5 -50q0 -29 -10 -57
t-26.5 -53.5t-38 -48t-45.5 -39.5h1q16 3 36.5 10t41 16t40.5 20t35 22l6 -6q-33 -25 -81.5 -47t-99.5 -29q-31 -22 -73.5 -37.5t-80.5 -15.5q-63 0 -73 43q-2 -3 -8 -9.5t-12.5 -14t-12 -14t-8.5 -8.5q-49 -55 -101 -104t-105 -85.5t-106 -57.5t-104 -21q-25 0 -44.5 16.5
t-19.5 36.5q0 25 13 36.5t33 11.5q15 0 26.5 -10t11.5 -29q0 -18 -11 -25.5t-25 -9.5q5 -5 13 -6.5t17 -1.5q24 0 52.5 14.5t58.5 38t60 52.5t57 58t50.5 54.5t39.5 41.5q3 2 12 12t12 12l-2 3q-20 -16 -40 -25.5t-36 -9.5q-33 -1 -49 17.5t-16 51.5q0 49 28.5 96t72 84.5
t95.5 60.5t99 23q30 0 48 -10.5t24 -28.5l49 57q44 52 94 102t102.5 89t105 63t102.5 24q26 0 45 -15.5t19 -38.5zM584 275q0 15 -8 21.5t-20 6.5q-14 0 -31.5 -7t-35 -18t-33.5 -23.5t-26 -24.5l-161 -188q-2 -3 -1.5 -6t0.5 -6q0 -15 16 -20.5t30 -5.5q15 0 44 17.5
t65 49.5t75 76.5t75 97.5q11 16 11 30zM371 266q1 3 0 5.5t-1 4.5q0 14 -15 18.5t-29 4.5q-15 0 -44 -17.5t-65 -49.5t-75 -76.5t-74 -97.5q-6 -9 -8.5 -16.5t-3.5 -13.5q0 -15 8 -21.5t20 -6.5q13 0 30 7t34 17.5t32 22.5t24 23l166 194l1 2v0z" />
    <glyph glyph-name="afii10087" unicode="&#x445;" horiz-adv-x="481" 
d="M512 264q0 -21 -11.5 -33.5t-31.5 -12.5q-17 0 -28.5 9.5t-11.5 28.5q0 20 19 39q-16 -1 -38.5 -20.5t-48 -48.5t-51.5 -64t-50 -67q-18 -25 -23.5 -39t-5.5 -25q0 -12 12.5 -22.5t30.5 -10.5q17 0 43 8.5t55 22.5t58.5 31t53.5 34l5 -8q-24 -17 -53 -35t-59 -32.5
t-58 -24t-49 -9.5q-44 0 -67.5 18.5t-23.5 62.5v17q-3 -5 -18 -21t-34.5 -33t-40.5 -30.5t-38 -13.5q-23 0 -39.5 16.5t-16.5 48.5q0 26 15 42.5t35 16.5q17 0 28 -12t11 -31t-13 -30t-28 -11q-12 0 -24 7t-11 7q3 -23 13.5 -32.5t31.5 -9.5q18 0 41.5 17t46.5 41t42.5 49
t31.5 41q16 21 36 50t30 53q6 13 6 22q0 13 -8 20.5t-21 7.5q-17 0 -38 -11t-42.5 -26t-40.5 -31.5t-31 -26.5l-9 4q13 14 34 32t44.5 33.5t47.5 26.5t44 11q32 0 54.5 -18.5t22.5 -45.5q0 -16 -6 -32l2 -2q38 48 64.5 73t54.5 25q20 0 38 -11.5t18 -34.5z" />
    <glyph glyph-name="afii10088" unicode="&#x446;" 
d="M322 65q-11 -13 -18 -21.5t-11 -14t-5.5 -9.5t-1.5 -7q0 -16 19 -16q22 0 63.5 24.5t98.5 72.5l6 -5q-13 -20 -19 -38.5t-9 -37t-5.5 -36.5t-7.5 -36q-8 -27 -30 -45t-48.5 -30t-53 -19t-42.5 -11l-3 11q26 9 52 30t45 50q12 18 19 33t13.5 28.5t15 26.5t23.5 28l-2 2
q-34 -26 -64.5 -43t-53.5 -17q-25 0 -39.5 15t-14.5 39q0 25 13 45l-2 2q-21 -19 -42.5 -37t-44 -32.5t-45 -23.5t-44.5 -9q-29 0 -47.5 20t-18.5 46q0 24 12.5 47t45.5 61l124 144h94l-192 -218q-29 -33 -37.5 -46t-8.5 -20q0 -10 9 -15.5t23 -5.5q19 0 44 10.5t52.5 30
t57 46.5t58.5 59l142 159h93z" />
    <glyph glyph-name="afii10089" unicode="&#x447;" horiz-adv-x="416" 
d="M221 66q-17 -19 -27.5 -32t-10.5 -21t6.5 -12t17.5 -4q20 0 46 9t54.5 23t57.5 31t53 34l6 -9q-24 -17 -53 -34.5t-59 -32t-58.5 -24t-51.5 -9.5q-25 0 -40 15t-15 40q0 23 12.5 48.5t41.5 57.5l91 101l-2 2q-14 -8 -37 -13t-48 -5q-21 0 -33.5 6t-23.5 20l-107 -100
l-8 8l109 102q-8 13 -8 28q0 13 5.5 26.5t14.5 24.5t21 18t24 7q6 0 12 -6t6 -11q0 -10 -7 -22t-16 -24t-19 -22.5t-16 -17.5q6 -12 16.5 -18.5t29.5 -6.5q36 0 69 10.5t51 31.5l15 17h93z" />
    <glyph glyph-name="afii10090" unicode="&#x448;" horiz-adv-x="711" 
d="M522 66q-23 -26 -30.5 -35.5t-7.5 -17.5t7 -12t16 -4q21 0 47 9t54.5 23t57 31t52.5 34l6 -9q-24 -17 -53 -34.5t-59 -32t-58.5 -24t-50.5 -9.5q-25 0 -40 15t-15 39q0 25 13 45l-2 2q-21 -19 -43.5 -37t-45.5 -32.5t-46.5 -23t-45.5 -8.5q-25 0 -40.5 15t-15.5 39
q0 25 13 45l-2 1q-20 -19 -40.5 -37t-42 -32.5t-43.5 -23t-44 -8.5q-26 0 -41.5 20t-15.5 46q0 24 12.5 47t45.5 61l124 144h94l-192 -218q-29 -33 -37.5 -46t-8.5 -20q0 -10 7 -15.5t17 -5.5q18 0 41.5 10.5t50.5 30t55.5 46.5t57.5 59l142 159h93l-194 -216
q-18 -20 -29 -32t-17 -19.5t-8 -11.5t-2 -8q0 -9 8 -13.5t16 -4.5q18 0 43.5 10.5t54.5 30t59.5 46.5t59.5 59l142 159h93z" />
    <glyph glyph-name="afii10091" unicode="&#x449;" horiz-adv-x="711" 
d="M537 66q-23 -26 -30.5 -35.5t-7.5 -17.5q0 -16 20 -16q23 0 64.5 24.5t98.5 72.5l7 -5q-14 -20 -20 -38.5t-9.5 -37t-6 -36.5t-7.5 -36q-8 -27 -30.5 -45t-49 -30t-52.5 -19t-42 -11l-2 11q26 9 51.5 30t44.5 50q12 18 18.5 33t13.5 28.5t15.5 26.5t24.5 28l-2 2
q-34 -26 -65 -43t-53 -17q-25 0 -40 15t-15 39q0 25 13 45l-2 2q-21 -19 -43.5 -37t-45.5 -32.5t-46.5 -23t-45.5 -8.5q-25 0 -40.5 15t-15.5 39q0 25 13 45l-2 1q-20 -19 -40.5 -37t-42 -32.5t-43.5 -23t-44 -8.5q-26 0 -41.5 20t-15.5 46q0 24 12.5 47t45.5 61l124 144h94
l-192 -218q-29 -33 -37.5 -46t-8.5 -20q0 -10 7 -15.5t17 -5.5q18 0 41.5 10.5t50.5 30t55.5 46.5t57.5 59l142 159h93l-194 -216q-18 -20 -29 -32t-17 -19.5t-8 -11.5t-2 -8q0 -9 8 -13.5t16 -4.5q18 0 43.5 10.5t54.5 30t59.5 46.5t59.5 59l142 159h93z" />
    <glyph glyph-name="afii10092" unicode="&#x44a;" horiz-adv-x="470" 
d="M151 331q22 0 43.5 -8t41.5 -17.5t37.5 -17.5t31.5 -8q19 0 36.5 4.5t24.5 10.5l7 -8q-15 -11 -33 -26.5t-36.5 -33.5t-36.5 -37.5t-33 -36.5q-36 -40 -62 -73t-26 -59q0 -11 9 -17.5t26 -6.5q45 0 77.5 12.5t54 30.5t32.5 38.5t13 36.5h-15q-24 0 -45.5 5t-21.5 22
q0 12 13 21.5t33 9.5q21 0 35.5 -12.5t14.5 -30.5v-3q40 5 75 19.5t63 32.5l8 -7q-25 -18 -64 -34.5t-84 -21.5q-3 -24 -17.5 -47.5t-39 -42t-58 -30t-75.5 -11.5q-30 0 -53.5 17t-23.5 48q0 42 16.5 74.5t43 57.5t60.5 43t70 31q-5 -2 -22 -3t-22 -2q-15 0 -30 4t-29 9.5
t-28 9.5t-27 4q-15 0 -34 -3.5t-35.5 -12.5t-28 -24.5t-11.5 -39.5q0 -25 22 -25q17 0 26.5 11.5t15.5 22.5l3 -5q-5 -15 -15.5 -26t-28.5 -11q-17 0 -25 9.5t-8 23.5q0 34 14 59t34.5 41.5t44 24.5t42.5 8z" />
    <glyph glyph-name="afii10093" unicode="&#x44b;" horiz-adv-x="579" 
d="M404 61q-15 -17 -26.5 -30.5t-11.5 -19.5q0 -14 19 -14q21 0 47.5 9t55 23t57 31t52.5 34l6 -9q-24 -17 -53 -34.5t-59 -32t-58.5 -24t-51.5 -9.5q-27 0 -39 15t-12 38q0 13 5.5 27t13.5 27.5t17.5 25t17.5 20.5l59 65l-2 1q-30 -20 -69 -40t-71 -31q-2 -26 -21 -52.5
t-49 -47.5t-69.5 -34.5t-82.5 -13.5q-38 0 -55.5 19t-17.5 43q0 35 19.5 65t47.5 62l112 128h95l-189 -213q-17 -18 -29 -37.5t-12 -29.5q0 -11 6.5 -18t21.5 -7q48 0 86 14.5t65 35t42 43.5t17 40q-23 -6 -44 -6q-17 0 -30.5 5t-13.5 19q0 12 15 23t35 11q22 0 35.5 -10.5
t14.5 -27.5q22 7 49.5 20t55.5 29.5t52.5 35t41.5 36.5l34 37h89z" />
    <glyph glyph-name="afii10094" unicode="&#x44c;" horiz-adv-x="373" 
d="M439 185q-32 -17 -69.5 -33t-72.5 -25q-2 -23 -20 -48t-47 -46t-67.5 -34.5t-81.5 -13.5q-39 0 -54.5 19t-15.5 43q0 38 18.5 70t47.5 65l107 120h96l-193 -215q-15 -17 -25.5 -34.5t-10.5 -32.5q0 -11 7 -17t24 -6q46 0 82.5 15.5t62.5 36.5t40 42.5t16 33.5
q-12 -2 -22 -3.5t-18 -1.5q-15 0 -30 5.5t-15 20.5q0 14 16 24t33 10q21 0 34.5 -12.5t15.5 -29.5q34 8 73 25t68 33l1 -11v0z" />
    <glyph glyph-name="afii10095" unicode="&#x44d;" horiz-adv-x="385" 
d="M388 115q-32 -24 -79.5 -46.5t-96.5 -29.5q-36 -25 -71.5 -40t-64.5 -15q-38 -1 -55.5 17t-17.5 43q0 24 12.5 37t29.5 13q17 1 29 -10t12 -27q0 -17 -10 -28t-28 -11q-17 0 -27 11l-2 -1q1 -15 14.5 -23t25.5 -8q47 0 161 143l4 5h-123l6 12h127l26 32q19 23 29.5 38
t16 24t7 14.5t1.5 9.5q0 11 -11 19t-30 8q-22 0 -49.5 -9.5t-56.5 -26t-59 -39.5t-57 -50l-8 8q29 29 60 53t61 41t57.5 26t50.5 9q42 0 60 -23.5t18 -56.5q0 -26 -11.5 -51.5t-28.5 -49t-38.5 -44.5t-40.5 -36q15 3 35 9.5t40.5 16t40.5 20.5t35 23l6 -7v0z" />
    <glyph glyph-name="afii10096" unicode="&#x44e;" horiz-adv-x="630" 
d="M688 170q-17 -14 -37.5 -24.5t-43.5 -10.5q-28 0 -44 14q-30 -35 -60.5 -64.5t-61.5 -52t-63 -35t-65 -12.5q-40 0 -61 22.5t-21 53.5q0 19 8.5 40t22.5 44h-99l-132 -145h-90l272 302h92l-131 -145h96q21 30 50 58.5t62 51t66.5 36.5t63.5 14q22 0 35.5 -5.5t24.5 -21.5
q9 5 19 7q11 0 20 -8.5t9 -25.5q0 -24 -14 -50.5t-38 -53.5q9 -7 20 -9.5t23 -2.5q15 0 37 10t36 24l4 -11v0zM561 284q-3 6 -9 10.5t-16 4.5q-16 0 -34 -12.5t-50 -44.5q-44 -43 -81.5 -83.5t-67.5 -78.5q-24 -31 -24 -52q0 -12 9 -21.5t29 -9.5q29 0 59.5 13.5t60.5 35.5
t59 50.5t54 59.5q-10 8 -17 22t-7 30q0 23 11.5 45t23.5 31z" />
    <glyph glyph-name="afii10097" unicode="&#x44f;" horiz-adv-x="455" 
d="M182 38q0 18 13 47q-44 -42 -89.5 -70.5t-83.5 -29.5q-23 0 -40.5 16.5t-17.5 48.5q0 26 15 43t35 17q17 0 30 -12t13 -31t-13 -30.5t-28 -11.5q-12 0 -21 4.5t-14 10.5l-1 -1q2 -41 45 -41q22 0 48.5 12.5t54 32t53.5 42t46 42.5q2 2 7 9t7 9q-18 -6 -36 -9.5t-33 -3.5
q-25 0 -44 13t-19 37q0 20 15 43.5t40.5 44t60.5 34t74 13.5q29 0 40.5 -9t11.5 -29q0 -9 -1 -14l33 37h88l-233 -260q-11 -12 -16.5 -19.5t-5.5 -12.5q0 -13 20 -13q21 0 48.5 9.5t57.5 24.5t60 33.5t56 36.5l6 -9q-24 -17 -54 -36t-61.5 -35t-62 -26t-53.5 -10t-37 13.5
t-14 39.5zM339 279q0 10 -5 17.5t-19 7.5q-9 0 -24.5 -9t-33 -23.5t-35 -31.5t-32 -32.5t-23.5 -27.5t-9 -16q0 -11 5.5 -15t12.5 -4q37 0 82 18l63 71q18 25 18 45z" />
    <glyph glyph-name="divide" unicode="&#xf7;" horiz-adv-x="666" 
d="M428 464q0 -19 -13 -32t-32 -13t-32 13t-13 32t13 32t32 13t32 -13t13 -32zM130 235v36h506v-36h-506zM428 42q0 -19 -13 -32t-32 -13t-32 13t-13 32t13 32t32 13t32 -13t13 -32z" />
    <glyph glyph-name="florin" unicode="&#x192;" horiz-adv-x="574" 
d="M951 641q0 -28 -15.5 -46.5t-38.5 -18.5q-26 0 -41 14.5t-15 34.5q0 19 13.5 33.5t36.5 14.5q14 0 26 -6t20 -18h2q-5 49 -38.5 73t-83.5 24q-45 0 -89.5 -28.5t-88 -76t-86 -110t-85.5 -130.5l147 1l-11 -19l-148 1q-96 -153 -175.5 -267.5t-150 -190.5t-136 -113.5
t-132.5 -37.5q-56 0 -89.5 31t-33.5 79q0 32 16.5 51.5t38.5 19.5t36 -13.5t14 -35.5q0 -21 -13 -34.5t-33 -13.5q-27 0 -45 25l-3 -1q4 -45 34 -70.5t78 -25.5q49 0 95.5 28t103 96.5t130 183.5t177.5 289l-145 -1l12 19l143 -1q40 67 86.5 131t100.5 114.5t116.5 81
t134.5 30.5q57 0 96 -30t39 -87z" />
    <glyph glyph-name="greaterequal" unicode="&#x2265;" horiz-adv-x="333" 
d="M251 299q-1 -1 1.5 -3t2.5 -4q-5 -21 -7.5 -43.5t-2.5 -44.5q-2 -49 12 -93q-24 -8 -50 -20t-50 -27t-45 -31t-36 -31l-7 6q29 39 64 73t74 58q1 38 10.5 80t26.5 77q1 1 3.5 1.5t3.5 1.5z" />
    <glyph glyph-name="hyphenminus" horiz-adv-x="482" 
d="M148 206q20 -3 52 -3.5t74 -0.5q39 0 74 1t64 3l-12 -32q-20 2 -53.5 3t-72.5 1q-42 0 -75.5 -1t-62.5 -3z" />
    <glyph glyph-name="lessequal" unicode="&#x2264;" horiz-adv-x="333" 
d="M296 293q-29 -39 -63.5 -73t-72.5 -58q-1 -38 -11 -81.5t-29 -78.5l-12 1q6 22 9 46t4 48q0 24 -2.5 47.5t-9.5 45.5q24 7 50 19.5t50 27.5t45 31t36 31l6 -6v0z" />
    <glyph glyph-name="notequal" unicode="&#x2260;" horiz-adv-x="334" 
d="M-61 -29h-31l612 619h31z" />
    <glyph glyph-name="sterling" unicode="&#xa3;" horiz-adv-x="1092" 
d="M1252 607q0 -38 -16.5 -70.5t-42.5 -56.5t-58 -37.5t-64 -13.5q-24 0 -50.5 9.5t-47.5 27t-32.5 43.5t-3.5 59q0 -1 4.5 -1.5t4.5 -1.5q-5 -22 2.5 -44t24 -40t41.5 -29t54 -11q35 0 63.5 13t48.5 35t31 51.5t11 61.5q0 38 -13.5 65.5t-37 45t-54.5 26t-65 8.5
q-62 0 -118.5 -31.5t-107.5 -81.5t-97 -111.5t-87 -120.5h231l-9 -18h-233q-33 -48 -68.5 -95t-76 -90.5t-88 -82.5t-103.5 -70q53 -21 108 -33.5t100 -12.5q51 0 109.5 23t107.5 57t81.5 74t32.5 73t-20.5 46.5t-49.5 13.5q-24 0 -45.5 -8.5t-40.5 -22t-36 -30t-32 -31.5
l-9 7q13 15 31 32t39 31t43.5 23.5t45.5 9.5q92 0 92 -85q0 -56 -32.5 -98t-82 -70.5t-110 -42.5t-115.5 -14q-59 0 -115.5 14t-115.5 36q-1 -1 -3.5 -2.5t-3.5 -1.5q-48 -26 -99 -36.5t-99 -10.5q-50 0 -79 15t-29 43q0 16 8 27.5t20.5 18.5t28.5 10t33 3q50 1 106.5 -14
t103.5 -35q33 27 66 63.5t66 80t65 90.5t64 95h-246l10 18h245q42 61 99.5 124t125 114.5t140.5 84.5t146 33q51 0 89 -12t63.5 -32t38 -48t12.5 -59zM257 47q-45 16 -96.5 30t-99.5 14q-40 0 -60.5 -12.5t-20.5 -33.5q0 -23 25.5 -34t71.5 -11q48 0 96 13t84 34z" />
    </font>
</defs>
</svg>
