<?xml version="1.0" standalone="no"?>
<!DOCTYPE svg PUBLIC "-//W3C//DTD SVG 1.1//EN" "http://www.w3.org/Graphics/SVG/1.1/DTD/svg11.dtd" >
<svg xmlns="http://www.w3.org/2000/svg" xmlns:xlink="http://www.w3.org/1999/xlink" version="1.1">
<metadata>
Created by FontForge 20170924 at Tue Nov 18 12:10:02 1997
 By www-data
a_SignboardCaps *Arsenal Company (c)1997* FAX: (095)924-3775; e-Mail: arsenal@itco.msk.su; Phone: (095)924-5811 (Design and Featuring W.Chufarofsky)
</metadata>
<defs>
<font id="ASignboardCpsBold" horiz-adv-x="657" >
  <font-face 
    font-family="a_SignboardCps"
    font-weight="700"
    font-stretch="normal"
    units-per-em="1000"
    panose-1="4 9 7 5 9 8 2 2 4 4"
    ascent="800"
    descent="-200"
    x-height="569"
    cap-height="720"
    bbox="-12 -216 1198 941"
    underline-thickness="120"
    underline-position="-270"
    unicode-range="U+0020-2122"
  />
<missing-glyph horiz-adv-x="500" 
d="M63 0v941h375v-941h-375zM125 63h250v816h-250v-816z" />
    <glyph glyph-name=".notdef" horiz-adv-x="500" 
d="M63 0v941h375v-941h-375zM125 63h250v816h-250v-816z" />
    <glyph glyph-name=".null" horiz-adv-x="0" 
 />
    <glyph glyph-name="nonmarkingreturn" horiz-adv-x="444" 
 />
    <glyph glyph-name="space" unicode=" " horiz-adv-x="444" 
 />
    <glyph glyph-name="exclam" unicode="!" horiz-adv-x="339" 
d="M67 90q0 44 29.5 73.5t73.5 29.5q43 0 73 -30t30 -73t-30 -73t-73 -30q-44 0 -73.5 29.5t-29.5 73.5zM170 232q-23 0 -28 25q-2 10 -4 32q-4 47 -30 133q-15 47 -31 94q-18 61 -18 95q0 54 29 88t82 34t82 -34t29 -88q0 -34 -18 -95q-16 -47 -31 -94q-11 -38 -22 -87
q-3 -27 -11 -78q-5 -25 -29 -25z" />
    <glyph glyph-name="quotedbl" unicode="&#x22;" horiz-adv-x="380" 
d="M110 421h-25l-41 201q-8 39 -8 64q0 47 62 47q63 0 63 -47q0 -21 -9 -64zM294 421h-25l-41 201q-9 44 -9 64q0 47 62 47q63 0 63 -47q0 -26 -8 -64z" />
    <glyph glyph-name="numbersign" unicode="#" 
d="M189 524l35 153h127l-36 -153h103l35 153h127l-36 -153h105l-25 -111h-106l-25 -106h106l-25 -111h-106l-35 -153h-126l35 153h-103l-35 -153h-126l35 153h-105l25 111h106l24 106h-105l25 111h106zM289 413l-24 -106h103l24 106h-103z" />
    <glyph glyph-name="dollar" unicode="$" 
d="M349 616v-168q81 -33 102 -44q57 -27 93 -60q50 -46 50 -132q0 -41 -18 -80q-30 -64 -91.5 -98t-135.5 -34q0 -37 -1 -41q-4 -22 -28 -22q-23 0 -27 22q-1 3 -1 41q-65 0 -121 22q-65 26 -95 74q-17 27 -17 53q0 40 27 66t67 26q37 0 60 -21t23 -58q0 -30 -20.5 -48.5
t-20.5 -28.5q0 -9 24 -20t73 -11v190l-72 28q-62 24 -101 72q-42 52 -42 115q0 87 65 148q61 57 150 63q0 38 1 41q4 22 27 22q24 0 28 -22q1 -4 1 -41q60 0 110 -19q60 -22 85 -67q14 -25 14 -51q0 -35 -26 -55.5t-62 -20.5q-34 0 -57 18q-26 19 -26 52q0 21 16 37t16 26
q0 26 -70 26zM439 125q0 55 -90 96v-167q36 0 61 17q29 20 29 54zM225 548q0 -46 67 -76v144q-27 0 -47 -20.5t-20 -47.5z" />
    <glyph glyph-name="percent" unicode="%" horiz-adv-x="807" 
d="M222 -12h-82l444 737h83zM594 -12q-75 0 -116.5 42.5t-41.5 117.5t41.5 117.5t116.5 42.5h27q76 0 117.5 -42t41.5 -118t-41.5 -118t-117.5 -42h-27zM594 40h27q23 0 23 45v126q0 45 -23 45h-27q-22 0 -22 -45v-126q0 -45 22 -45zM186 405q-76 0 -117.5 42t-41.5 118
t41.5 118t117.5 42h27q75 0 116.5 -42.5t41.5 -117.5t-41.5 -117.5t-116.5 -42.5h-27zM186 457h27q22 0 22 45v126q0 45 -22 45h-27q-23 0 -23 -45v-126q0 -45 23 -45z" />
    <glyph glyph-name="ampersand" unicode="&#x26;" horiz-adv-x="797" 
d="M465 0l-32 56q-99 -68 -187 -68q-97 0 -154 49.5t-57 145.5q0 87 52 149q49 59 135 85q-46 90 -46 136q0 83 71 134q64 46 150 46q95 0 144 -43t49 -98q0 -43 -36 -84q-31 -36 -75 -53l99 -169q40 36 40 83q0 13 -11 29.5t-11 26.5q0 42 40 42q57 0 57 -61
q0 -85 -83 -178l70 -120q17 -29 53 -48q7 -3 19 -10q7 -5 7 -17q0 -33 -79 -33h-215zM401 108l-150 255q-30 -12 -31 -13q-15 -9 -15 -27q0 -15 10 -33l97 -172q20 -35 44 -35q27 0 45 25zM448 507q74 19 74 91q0 33 -23.5 50t-58.5 17q-42 0 -42 -39q0 -28 17 -62
q17 -29 33 -57z" />
    <glyph glyph-name="quotesingle" unicode="'" horiz-adv-x="197" 
d="M111 421h-25l-41 201q-8 39 -8 64q0 47 62 47q63 0 63 -47q0 -21 -9 -64z" />
    <glyph glyph-name="parenleft" unicode="(" horiz-adv-x="482" 
d="M316 582v-444q0 -83 11.5 -110.5t41.5 -27.5q14 0 25.5 -11t11.5 -25t-11.5 -25t-25.5 -11q-56 0 -105 30q-86 52 -128 179q-32 99 -32 223t32 224q42 127 128 179q48 29 105 29q14 0 25.5 -11t11.5 -25t-11.5 -25t-25.5 -11q-31 0 -42 -27t-11 -111z" />
    <glyph glyph-name="parenright" unicode=")" horiz-adv-x="482" 
d="M166 582q0 87 -9.5 110.5t-32.5 26.5q-27 4 -36 12q-12 12 -12 25q0 14 11.5 25t25.5 11q58 0 106 -29q86 -52 127 -179q32 -100 32 -224t-32 -223q-41 -127 -127 -179q-49 -30 -106 -30q-14 0 -25.5 11t-11.5 25q0 13 12 25q9 8 36 13q23 3 32.5 26.5t9.5 109.5v444z
" />
    <glyph glyph-name="asterisk" unicode="*" 
d="M346 421l-34 1q-10 44 -29 73t-19 55t18.5 41.5t45.5 15.5q26 0 45.5 -16t19.5 -41q0 -19 -13 -46q-11 -22 -20.5 -42.5t-13.5 -40.5zM313 319l34 -1q8 -41 28 -72t20 -54q0 -27 -19 -43t-47 -16q-64 0 -64 59q0 20 17.5 50.5t30.5 76.5zM365 331l17 29q32 -9 62.5 -11
t45.5 -5q28 -5 41 -17t13 -40q0 -27 -18.5 -49t-44.5 -22q-27 0 -48 24q-6 6 -32 46q-13 19 -36 45zM382 382l-16 28q21 20 34 40q29 45 32 48q22 25 49 25t45 -19.5t18 -46.5q0 -40 -30 -54q-17 -8 -66 -11q-31 -2 -66 -10zM278 359l17 -31q-19 -18 -34 -40.5t-49 -61.5
q-13 -10 -34 -10q-27 0 -46 20.5t-19 47.5q0 29 13 41q19 18 87 23q31 2 65 11zM275 380q-36 10 -63 12q-51 3 -66 9q-32 13 -32 52q0 29 18.5 49.5t47.5 20.5q26 0 48 -24q6 -7 32 -46q16 -23 35 -42z" />
    <glyph glyph-name="plus" unicode="+" horiz-adv-x="879" 
d="M132 336q0 16 11 26t27 10h199v189q0 36 37 36h66q16 0 27 -10t11 -26v-189h199q16 0 27 -10t11 -26v-63q0 -16 -11 -26t-27 -10h-199v-189q0 -16 -11 -26t-27 -10h-66q-37 0 -37 36v189h-199q-16 0 -27 10t-11 26v63z" />
    <glyph glyph-name="comma" unicode="," horiz-adv-x="356" 
d="M65 80q0 49 33.5 78.5t83.5 29.5q52 0 84 -41q29 -38 29 -92q0 -123 -117 -170q-39 -16 -60 -16q-14 0 -25 10t-11 24q0 17 47.5 34.5t47.5 29.5q0 15 -15 15q-40 1 -68.5 29.5t-28.5 68.5z" />
    <glyph glyph-name="hyphen" unicode="-" horiz-adv-x="472" 
d="M86 271q-20 0 -33.5 12.5t-13.5 32.5v88q0 20 13.5 32.5t33.5 12.5h300q20 0 34 -12.5t14 -32.5v-88q0 -20 -14 -32.5t-34 -12.5h-300z" />
    <glyph glyph-name="hyphen" unicode="&#x2010;" horiz-adv-x="472" 
d="M86 271q-20 0 -33.5 12.5t-13.5 32.5v88q0 20 13.5 32.5t33.5 12.5h300q20 0 34 -12.5t14 -32.5v-88q0 -20 -14 -32.5t-34 -12.5h-300z" />
    <glyph glyph-name="period" unicode="." horiz-adv-x="339" 
d="M67 90q0 44 29.5 73.5t73.5 29.5q43 0 73 -30t30 -73t-30 -73t-73 -30q-44 0 -73.5 29.5t-29.5 73.5z" />
    <glyph glyph-name="slash" unicode="/" horiz-adv-x="296" 
d="M48 -13h-54l254 746h54z" />
    <glyph glyph-name="zero" unicode="0" 
d="M313 51h31q33 0 43 33q6 17 6 60v429q0 41 -6 59q-11 31 -43 31h-31q-32 0 -42 -31q-6 -18 -6 -59v-429q0 -43 5 -60q10 -33 43 -33zM344 726q279 0 279 -369q0 -263 -150 -341q-54 -28 -160 -28q-278 0 -278 369q0 265 149 342q52 27 160 27z" />
    <glyph glyph-name="one" unicode="1" 
d="M439 726v-599q0 -36 37.5 -52t37.5 -40q0 -35 -53 -35h-267q-59 0 -59 35q0 24 42.5 41.5t42.5 50.5v456q0 39 -27.5 46t-27.5 29q0 20 19 28q8 4 36 8z" />
    <glyph glyph-name="two" unicode="2" 
d="M252 196q67 0 126 -13t102 -13q58 0 58 32q0 36 33 36q29 0 29 -37q0 -82 -58 -146q-60 -67 -141 -67q-42 0 -117 24t-110 24q-22 0 -46 -18t-36 -18q-10 0 -18 8.5t-8 18.5q0 37 9 73q23 92 205 240q50 40 59 101q6 36 6 82q0 142 -59 142q-63 0 -63 -20q0 -3 14 -12
q9 -5 18 -11q31 -24 31 -70q0 -48 -32.5 -76.5t-81.5 -28.5q-48 0 -77 32t-29 80q0 81 77 128q64 39 151 39q117 0 190 -45q88 -54 88 -164q0 -59 -32 -104q-55 -77 -149 -112q-142 -53 -192 -111v-3q22 9 53 9z" />
    <glyph glyph-name="three" unicode="3" 
d="M122 523l-51 6l35 193l50 -3l-5 -41q66 52 156 52q66 0 115 -13t73 -13q17 0 30 10t25 10q22 0 22 -20q0 -105 -30 -170q-34 -73 -118 -123v-3q83 -25 121 -69q41 -47 41 -130q0 -111 -94 -170q-79 -51 -196 -51q-179 0 -236 102q-17 31 -17 62q0 47 28 78t75 31
t78.5 -26t31.5 -72q0 -32 -26.5 -54t-26.5 -29q0 -20 33 -25q9 -1 48 -1q44 0 60 35q11 24 11 75v106q0 89 -47 101q-19 3 -37.5 7.5t-18.5 26.5q0 17 14 23.5t44 6.5q44 0 81.5 28t55.5 69q10 23 10 42v14q-22 -8 -44 -8q-54 0 -114 13t-85 13q-33 0 -57 -14
q-28 -17 -32 -47z" />
    <glyph glyph-name="four" unicode="4" 
d="M104 234h200v255zM540 0h-251q-54 0 -54 35q0 21 21 29l37 14q11 8 11 32v60h-220q-50 0 -50 32q0 28 28 66l324 436q16 22 41 22h62q34 0 34 -30v-462h57q40 0 40 -32t-40 -32h-57v-60q0 -29 18 -38q17 -5 34.5 -10.5t17.5 -26.5q0 -35 -53 -35z" />
    <glyph glyph-name="five" unicode="5" 
d="M122 716l13 10q174 -20 256 -20q89 0 127 10t43 10q7 0 7 -6q0 -35 -25 -68q-40 -54 -116 -86q-71 -30 -143 -30q-76 0 -115 7l-14 -138q81 51 191 51q107 0 176 -66t69 -172q0 -119 -88 -179q-75 -51 -201 -51q-87 0 -159 39q-86 47 -86 127q0 45 31 76t76 31
q47 0 75.5 -26t28.5 -73q0 -31 -25.5 -55.5t-25.5 -31.5q0 -24 76 -24q67 0 67 97v135q0 55 -13 75q-18 26 -73 26q-35 0 -87.5 -28t-60.5 -28q-15 0 -25.5 10t-10.5 25q0 10 7 85z" />
    <glyph glyph-name="six" unicode="6" 
d="M273 570v-189q60 42 139 42q94 0 151.5 -53.5t57.5 -147.5q0 -112 -89 -176q-79 -58 -195 -58q-146 0 -225 116q-68 100 -68 253q0 151 68 252q78 117 222 117q92 0 157 -33q83 -41 83 -125q0 -46 -30.5 -74t-76.5 -28q-43 0 -72 20q-32 24 -32 65q0 25 19 51t19 31
q0 30 -64 30t-64 -93zM273 314v-169q0 -51 8 -67q12 -27 56 -27q38 0 49 22q6 13 6 57v141q0 71 -42 71q-51 0 -77 -28z" />
    <glyph glyph-name="seven" unicode="7" 
d="M138 487l-50 7l30 229l50 -4l-5 -55q67 69 155 69q52 0 115 -17q67 -18 73 -18q13 0 30.5 14t25.5 14q22 0 22 -27q0 -19 -12 -51q-9 -23 -23 -45q-4 -5 -10 -14q-51 -97 -69 -145q-33 -84 -33 -156q0 -50 10 -94t10 -77q0 -55 -31 -92t-85 -37q-62 0 -99 33t-37 94
q0 63 23 111q32 67 134 190q41 50 83 123q-30 -5 -45 -5q-48 0 -118 17t-90 17q-50 0 -54 -81z" />
    <glyph glyph-name="eight" unicode="8" 
d="M211 372v2q-63 15 -102 56q-42 44 -42 106q0 102 84 151q68 39 178 39t177 -39q84 -49 84 -151q0 -63 -40 -105.5t-104 -55.5v-3q167 -25 167 -187q0 -197 -284 -197q-285 0 -285 197q0 164 167 187zM275 269v-156q0 -36 9 -49q11 -16 45 -16q36 0 46 19q7 12 7 52v150
q0 41 -7 53q-10 20 -46 20t-47 -19q-7 -13 -7 -54zM275 599v-131q0 -38 8 -50q11 -16 46 -16q36 0 46 18q7 12 7 53v126q0 40 -7 52q-10 18 -46 18q-37 0 -47 -17q-7 -12 -7 -53z" />
    <glyph glyph-name="nine" unicode="9" 
d="M382 144v189q-60 -42 -138 -42q-94 0 -151.5 53.5t-57.5 147.5q0 112 88 176q79 58 195 58q146 0 225 -116q68 -100 68 -253q0 -151 -68 -252q-78 -117 -222 -117q-92 0 -157 33q-83 41 -83 125q0 46 30.5 74t76.5 28q43 0 72 -20q32 -24 32 -65q0 -25 -19 -51t-19 -31
q0 -30 64 -30t64 93zM382 400v169q0 51 -8 67q-12 27 -56 27q-38 0 -48 -22q-6 -13 -6 -57v-141q0 -71 42 -71q50 0 76 28z" />
    <glyph glyph-name="colon" unicode=":" horiz-adv-x="339" 
d="M67 90q0 44 29.5 73.5t73.5 29.5q43 0 73 -30t30 -73t-30 -73t-73 -30q-44 0 -73.5 29.5t-29.5 73.5zM67 362q0 44 29.5 73.5t73.5 29.5q43 0 73 -30t30 -73t-30 -72.5t-73 -29.5q-44 0 -73.5 29t-29.5 73z" />
    <glyph glyph-name="semicolon" unicode=";" horiz-adv-x="339" 
d="M66 362q0 44 29 74t73 30q43 0 73.5 -30.5t30.5 -73.5t-30.5 -72.5t-73.5 -29.5q-44 0 -73 29t-29 73zM62 80q0 48 31.5 78t79.5 30q51 0 78 -34t27 -86q0 -90 -41 -131q-34 -34 -68.5 -51t-56.5 -17q-34 0 -34 31q0 15 45.5 36t45.5 35q0 11 -6.5 14t-18.5 3
q-35 0 -58.5 28.5t-23.5 63.5z" />
    <glyph glyph-name="less" unicode="&#x3c;" horiz-adv-x="879" 
d="M747 617v-150l-418 -163l418 -163v-149l-615 243v139z" />
    <glyph glyph-name="equal" unicode="=" horiz-adv-x="879" 
d="M127 445q0 20 13.5 32.5t33.5 12.5h531q19 0 33 -13t14 -32v-46q0 -19 -14 -32t-33 -13h-531q-20 0 -33.5 12.5t-13.5 32.5v46zM127 210q0 20 13.5 32.5t33.5 12.5h531q19 0 33 -13t14 -32v-46q0 -19 -14 -32t-33 -13h-531q-20 0 -33.5 12.5t-13.5 32.5v46z" />
    <glyph glyph-name="greater" unicode="&#x3e;" horiz-adv-x="879" 
d="M132 617l615 -243v-139l-615 -243v149l418 163l-418 163v150z" />
    <glyph glyph-name="question" unicode="?" horiz-adv-x="512" 
d="M105 90q0 44 29 73.5t73 29.5q43 0 73 -30t30 -73t-30 -72.5t-73 -29.5q-44 0 -73 29t-29 73zM179 265v157q0 25 12 38q9 9 53 12t65 18q32 25 32 91q0 50 -18 71t-67 21q-52 0 -52 -21q0 -6 7.5 -18.5t7.5 -27.5q0 -41 -27.5 -69t-68.5 -28q-43 0 -68 24.5t-25 67.5
q0 53 56.5 92.5t169.5 39.5q100 0 163 -41q75 -49 75 -143q0 -253 -225 -253q-23 0 -27 -12q-2 -19 -5 -39t-28 -20q-30 0 -30 40z" />
    <glyph glyph-name="at" unicode="@" horiz-adv-x="1000" 
d="M562 465q-49 0 -88 -68q-70 -121 -70 -224q0 -70 55 -70q54 0 104 131q44 112 44 181q0 50 -45 50zM575 152q-59 -94 -140 -94q-77 0 -120 47.5t-43 125.5q0 104 78 191t181 87q98 0 109 -86l22 75h116l-87 -313q-8 -29 -8 -43q0 -39 34 -39q36 0 70 24q53 38 84 114
q28 69 28 140q0 143 -95 225q-90 79 -235 79q-180 0 -297 -128q-113 -124 -113 -305q0 -167 102 -261q99 -91 267 -91q151 0 315 103l23 -33q-152 -114 -336 -114q-203 0 -331 101q-140 110 -140 308q0 199 151 334q145 130 347 130q165 0 271 -90q112 -95 112 -257
q0 -126 -61 -218q-71 -106 -191 -106q-46 0 -78 24.5t-32 69.5h-3z" />
    <glyph glyph-name="A" unicode="A" horiz-adv-x="732" 
d="M194 0h-135q-47 0 -47 31q0 17 11 22q38 17 62 44q19 21 35 71l127 392q15 46 15 76q0 15 -26 25.5t-26 29.5q0 29 46 29h238l166 -608q6 -24 36 -45q27 -19 27 -35q0 -32 -58 -32h-251q-57 0 -57 34q0 17 23 29.5t23 23.5q0 12 -27 120h-177q-24 -75 -24 -97
q0 -28 35.5 -44t35.5 -34q0 -32 -52 -32zM302 520l-82 -250h142z" />
    <glyph glyph-name="B" unicode="B" horiz-adv-x="749" 
d="M86 111v498q0 33 -28.5 47.5t-28.5 34.5q0 29 46 29h341q124 0 187 -29q91 -42 91 -150q0 -145 -186 -164v-3q88 -7 139 -49q58 -48 58 -132q0 -114 -96 -160q-69 -33 -198 -33h-336q-46 0 -46 30q0 16 28.5 30t28.5 51zM338 659v-251h33q45 0 63 24q15 20 15 67v69
q0 47 -15 67q-18 24 -63 24h-33zM338 347v-286h33q45 0 63 24q15 20 15 67v105q0 47 -15 67q-18 23 -63 23h-33z" />
    <glyph glyph-name="C" unicode="C" horiz-adv-x="696" 
d="M626 692v-195q0 -57 -34 -57q-16 0 -24 8q-12 12 -24 58q-19 75 -50 111q-40 45 -109 45q-47 0 -65 -21t-18 -69v-424q0 -48 18 -69t65 -21q61 0 95 24q42 29 90 107q15 24 33 24q32 0 32 -38q0 -78 -88 -136q-80 -52 -162 -52q-159 0 -252.5 93.5t-93.5 289.5
q0 168 90.5 265.5t257.5 97.5q46 0 97 -19t55 -19q11 0 24 16.5t32 16.5q31 0 31 -36z" />
    <glyph glyph-name="D" unicode="D" horiz-adv-x="745" 
d="M86 111v498q0 33 -28.5 47.5t-28.5 34.5q0 29 46 29h296q157 0 249 -103q88 -98 88 -257t-88 -257q-92 -103 -249 -103h-296q-46 0 -46 30q0 18 28.5 33.5t28.5 47.5zM338 659v-598h33q42 0 58 29q11 21 11 66v408q0 45 -11 66q-16 29 -58 29h-33z" />
    <glyph glyph-name="E" unicode="E" horiz-adv-x="659" 
d="M338 338v-272h36q74 0 110 36q26 26 56 103q10 25 34 25q25 0 33 -25q4 -13 4 -46v-159h-536q-46 0 -46 30q0 21 23 30q27 11 31 23q3 9 3 28v498q0 33 -28.5 47.5t-28.5 34.5q0 29 46 29h529v-192q0 -30 -31 -30q-24 0 -34 25q-31 75 -70 107q-22 18 -63 23q-14 1 -68 1
v-250h36q33 0 51 29l22 52q12 29 31 29q29 0 29 -55v-181q0 -51 -29 -51q-18 0 -32 29q-12 26 -25 53q-18 29 -47 29h-36z" />
    <glyph glyph-name="F" unicode="F" horiz-adv-x="631" 
d="M604 720v-191q0 -32 -31 -32q-25 0 -45 53q-18 46 -61.5 75t-92.5 29h-36v-250h36q34 0 58 55t46 55q29 0 29 -52v-187q0 -48 -29 -48q-21 0 -35 29q-12 26 -24 53q-17 29 -45 29h-36v-227q0 -29 34 -46.5t34 -35.5q0 -29 -50 -29h-284q-43 0 -43 30q0 21 23 30
q27 11 31 23q3 9 3 28v498q0 33 -28.5 47.5t-28.5 34.5q0 29 46 29h529z" />
    <glyph glyph-name="G" unicode="G" horiz-adv-x="720" 
d="M650 92q-107 -105 -281 -105q-165 0 -251 106q-80 98 -80 267q0 168 82 267q88 106 252 106q55 0 115 -19t63 -19q13 0 27 16.5t37 16.5q36 0 36 -37v-186q0 -55 -41 -55q-17 0 -28 9q-14 12 -29 52q-20 54 -31 73q-23 43 -61 64q-42 24 -88 24q-47 0 -61 -26
q-10 -17 -10 -69v-434q0 -50 9 -68q14 -26 59 -26q34 0 46 13t12 47v156q0 27 -29 39.5t-29 35.5q0 28 47 28h230q41 0 41 -30q0 -16 -18.5 -31.5t-18.5 -33.5v-181z" />
    <glyph glyph-name="H" unicode="H" horiz-adv-x="794" 
d="M339 405h117v215q0 23 -19.5 40.5t-19.5 34.5q0 25 33 25h271q43 0 43 -29q0 -20 -28 -35t-28 -47v-506q0 -26 28 -39.5t28 -33.5q0 -30 -43 -30h-271q-33 0 -33 26q0 16 19.5 33.5t19.5 40.5v242h-117v-241q0 -27 20 -44.5t20 -30.5q0 -26 -35 -26h-270q-44 0 -44 30
q0 20 28.5 34t28.5 47v498q0 33 -28.5 47.5t-28.5 34.5q0 29 44 29h270q35 0 35 -25q0 -17 -20 -35t-20 -40v-215z" />
    <glyph glyph-name="I" unicode="I" horiz-adv-x="425" 
d="M354 720q42 0 42 -29q0 -21 -29 -35t-29 -47v-500q0 -31 29 -45t29 -34q0 -30 -45 -30h-276q-46 0 -46 30q0 21 23 31q27 10 31 22q3 9 3 25v504q0 30 -28.5 44.5t-28.5 34.5q0 29 43 29h282z" />
    <glyph glyph-name="J" unicode="J" horiz-adv-x="606" 
d="M269 169v446q0 25 -33.5 41.5t-33.5 35.5q0 28 52 28h278q47 0 47 -29q0 -20 -29 -34.5t-29 -47.5v-375q0 -142 -67 -197q-61 -49 -206 -49q-96 0 -164 37q-84 47 -84 135q0 55 34.5 87.5t89.5 32.5q49 0 76.5 -28t27.5 -77q0 -69 -81 -98q19 -21 70 -21q36 0 47 42
q5 20 5 71z" />
    <glyph glyph-name="K" unicode="K" horiz-adv-x="794" 
d="M87 111v498q0 33 -28.5 47.5t-28.5 34.5q0 29 46 29h276q44 0 44 -29q0 -21 -28.5 -35.5t-28.5 -46.5v-210h33q103 0 103 95v73q0 160 143 160q61 0 97 -28q40 -30 40 -90q0 -35 -26 -60.5t-61 -25.5q-33 0 -56 17q-27 20 -27 51q0 22 10.5 31t10.5 19q0 23 -21 23
t-31 -16q-12 -19 -12 -144q0 -31 -10 -65q-11 -37 -34 -51q76 -10 127 -49q61 -46 61 -117v-84q0 -27 16 -27q10 0 23 14t25 14q32 0 32 -28q0 -17 -11 -38q-21 -39 -71 -61q-43 -19 -93 -19q-164 0 -164 176q0 77 0 73q-2 50 -15.5 71t-40.5 25q-6 1 -48 1v-236
q0 -26 28.5 -39.5t28.5 -33.5q0 -30 -44 -30h-276q-46 0 -46 30q0 20 28.5 33.5t28.5 47.5z" />
    <glyph glyph-name="L" unicode="L" 
d="M75 0q-46 0 -46 30q0 20 28.5 34t28.5 47v498q0 33 -28.5 47t-28.5 35q0 29 46 29h276q44 0 44 -29q0 -20 -28.5 -34.5t-28.5 -47.5v-543h33q62 0 91 29q36 36 67 128q10 29 32 29q33 0 33 -59v-193h-519z" />
    <glyph glyph-name="M" unicode="M" horiz-adv-x="845" 
d="M506 521l-161 -521h-32l-151 436h-2v-259q0 -48 16 -72t59 -47q14 -7 14 -25q0 -33 -46 -33h-146q-45 0 -45 33q0 18 14 25q43 21 58.5 46t15.5 73v405q0 36 -23 57q-5 5 -42 25q-23 13 -23 30q0 26 41 26h265l101 -284l89 284h263q46 0 46 -29q0 -21 -28.5 -34
t-28.5 -42v-512q0 -28 28.5 -40.5t28.5 -32.5q0 -30 -46 -30h-275q-46 0 -46 30q0 19 29 33.5t29 47.5v410h-2z" />
    <glyph glyph-name="N" unicode="N" horiz-adv-x="721" 
d="M335 720l230 -379v193q0 96 -73 132q-14 7 -14 21q0 33 43 33h148q44 0 44 -33q0 -14 -13.5 -20t-29.5 -18q-44 -32 -44 -119v-530h-148l-322 515v-327q0 -56 23 -87q11 -16 43 -37q23 -15 23 -31q0 -33 -46 -33h-145q-46 0 -46 33q0 15 14 23q42 24 58.5 54.5t16.5 79.5
v425q-14 20 -16 22q-10 12 -20 17q-17 6 -35.5 13.5t-18.5 25.5q0 27 42 27h286z" />
    <glyph glyph-name="O" unicode="O" horiz-adv-x="752" 
d="M39 360q0 164 85 265q91 108 252 108t252 -108q85 -101 85 -265t-85 -265q-91 -108 -252 -108q-160 0 -251 108q-86 102 -86 265zM308 577v-434q0 -52 9 -69q13 -26 59 -26q45 0 58 27q9 17 9 68v434q0 51 -9 68q-13 27 -58 27q-46 0 -59 -26q-9 -17 -9 -69z" />
    <glyph glyph-name="P" unicode="P" horiz-adv-x="719" 
d="M86 111v498q0 33 -28.5 47.5t-28.5 34.5q0 29 46 29h318q289 0 289 -222t-289 -222h-55v-165q0 -29 34 -47t34 -35q0 -29 -53 -29h-278q-46 0 -46 30q0 18 28.5 33.5t28.5 47.5zM338 659v-321h33q67 0 67 89v141q0 91 -67 91h-33z" />
    <glyph glyph-name="Q" unicode="Q" horiz-adv-x="750" 
d="M373 733q164 0 254 -106q85 -100 85 -267q0 -201 -117 -293q26 -19 55 -19q13 0 28.5 5.5t22.5 5.5q10 0 17.5 -8.5t7.5 -18.5q0 -9 -10 -21q-19 -23 -57 -38q-34 -13 -67 -13q-55 0 -106 44q-59 -17 -113 -17q-165 0 -253 106q-82 99 -82 267t82 267q89 106 253 106z
M344 133q0 13 21 21q16 7 32 7q25 0 45 -17v437q0 80 -36 88q-13 3 -33 3q-43 0 -57 -25q-9 -18 -9 -66v-442q0 -48 9 -66q14 -25 57 -25q38 0 54 16q-11 19 -33 26q-35 12 -40 15q-10 6 -10 28z" />
    <glyph glyph-name="R" unicode="R" horiz-adv-x="774" 
d="M507 362v-2q178 -24 178 -138v-91q0 -20 10 -20q5 0 17.5 14.5t25.5 14.5t23.5 -10t10.5 -23q0 -32 -32 -62q-26 -25 -62 -39q-32 -13 -72 -13q-164 0 -164 176q0 72 0 66q-2 39 -16 64q-13 22 -39 27q-7 1 -49 1v-224q0 -26 28.5 -39.5t28.5 -33.5q0 -30 -44 -30h-276
q-46 0 -46 30q0 20 28.5 33.5t28.5 47.5v498q0 33 -28.5 47t-28.5 35q0 29 46 29h336q119 0 183 -32q85 -44 85 -151q0 -144 -172 -175zM338 657v-270h33q64 0 64 88v93q0 89 -64 89h-33z" />
    <glyph glyph-name="S" unicode="S" horiz-adv-x="647" 
d="M568 695v-169q0 -48 -31 -48q-26 0 -33.5 23t-16.5 52q-16 52 -54 84q-41 35 -93 35q-102 0 -102 -78q0 -54 96 -92q147 -58 177 -80q96 -67 96 -192q0 -119 -89 -185q-80 -59 -203 -59q-48 0 -107 15t-69 15q-14 0 -25.5 -15t-28.5 -15q-34 0 -34 44v187q0 53 34 53
q14 0 21 -6q10 -9 18 -36q5 -20 11 -40q52 -135 168 -135q111 0 111 75q0 19 -5 32q-12 31 -88 65q-126 57 -144 68q-83 48 -110 112q-16 38 -16 86q0 109 72 177q70 65 180 65q55 0 117 -15t64 -15q12 0 25 15t29 15q30 0 30 -38z" />
    <glyph glyph-name="T" unicode="T" horiz-adv-x="705" 
d="M38 720h630v-215q0 -38 -38 -38q-15 0 -25 7t-20 57q-10 59 -24 84q-25 42 -77 42v-558q0 -22 33.5 -36.5t33.5 -33.5q0 -29 -50 -29h-288q-49 0 -49 29q0 20 33.5 34.5t33.5 42.5v551q-51 0 -78 -36q-20 -26 -33 -83q-3 -17 -5 -34q-5 -22 -14 -29.5t-26 -7.5
q-37 0 -37 54v199z" />
    <glyph glyph-name="U" unicode="U" horiz-adv-x="752" 
d="M37 691q0 29 45 29h280q55 0 55 -28q0 -21 -34 -35t-34 -43v-425q0 -71 18 -96q23 -30 90 -30q73 0 97.5 39.5t24.5 130.5v324q0 48 -23 73q-9 9 -42 27q-23 12 -23 30q0 33 45 33h158q44 0 44 -33q0 -21 -19 -30q-24 -12 -43 -26q-26 -20 -26 -101v-303q0 -68 -12 -113
q-21 -80 -104 -108q-54 -18 -158 -18q-283 0 -283 229v392q0 33 -28 47.5t-28 34.5z" />
    <glyph glyph-name="V" unicode="V" horiz-adv-x="716" 
d="M432 -5h-152l-191 613q-10 33 -39 50q-24 15 -24 30q0 32 59 32h250q57 0 57 -34q0 -16 -23 -26t-23 -27q0 -9 10 -42l88 -290l74 252q10 34 10 58q0 27 -36 43t-36 34q0 32 52 32h134q49 0 49 -30q0 -19 -18 -26.5t-35 -13.5q-33 -19 -57 -106z" />
    <glyph glyph-name="W" unicode="W" horiz-adv-x="961" 
d="M700 -5h-131l-90 306h-1l-87 -306h-130l-169 613q-3 11 -11 32q-5 9 -31 21q-21 9 -21 27q0 32 58 32h250q58 0 58 -34q0 -17 -22.5 -28t-22.5 -26q0 -11 3 -22l51 -185l93 295h108l106 -362l58 200q8 28 8 46q0 28 -32.5 47t-32.5 37q0 32 47 32h126q47 0 47 -30
q0 -20 -16 -27t-32 -13q-15 -9 -25.5 -22.5t-20.5 -54.5z" />
    <glyph glyph-name="X" unicode="X" horiz-adv-x="716" 
d="M368 0q-53 0 -53 33q0 15 18.5 26.5t18.5 20.5q0 12 -8 27l-71 137l-57 -97q-16 -27 -16 -46q0 -15 30.5 -32.5t30.5 -36.5q0 -32 -63 -32h-118q-51 0 -51 31q0 24 14 29l35 12q14 5 30 23q11 12 42 64l90 150l-163 316q-6 11 -32 34q-23 20 -23 31q0 30 45 30h267
q50 0 50 -27q0 -13 -16 -23t-16 -17q0 -11 13 -36l57 -111l50 79q12 19 12 42q0 17 -29 32t-29 34q0 27 42 27h164q27 0 27 -26q0 -13 -10 -21q-22 -14 -64 -45q-23 -18 -40 -45l-89 -142l175 -337q9 -17 21.5 -27.5t25.5 -20.5t13 -24q0 -32 -55 -32h-268z" />
    <glyph glyph-name="Y" unicode="Y" horiz-adv-x="739" 
d="M492 335v-236q0 -23 34 -35t34 -35q0 -29 -51 -29h-288q-51 0 -51 29q0 25 33.5 35.5t33.5 42.5v195l-146 315q-10 21 -38 41q-24 15 -24 30q0 32 58 32h250q57 0 57 -35q0 -14 -17 -25t-17 -19q0 -11 12 -37l91 -200l71 155q13 28 13 55q0 30 -35.5 43t-35.5 31
q0 32 50 32h135q48 0 48 -30q0 -19 -9 -23q-40 -16 -66 -44q-22 -23 -50 -85z" />
    <glyph glyph-name="Z" unicode="Z" horiz-adv-x="621" 
d="M589 0h-560v63l277 595h-35q-63 0 -93 -24q-40 -32 -69 -105q-10 -24 -29 -24q-32 0 -32 70v145h535v-63l-273 -590h34q83 0 126 44q23 23 47 80q17 44 37 44q25 0 32 -28q3 -12 3 -49v-158z" />
    <glyph glyph-name="bracketleft" unicode="[" horiz-adv-x="479" 
d="M314 690v-660q0 -24 25 -29q22 -1 43 -2t21 -12v-44q0 -13 -29 -13h-204q-44 0 -44 42v777q0 41 44 41h204q29 0 29 -13v-44q0 -11 -21 -13h-30q-38 -1 -38 -30z" />
    <glyph glyph-name="backslash" unicode="\" horiz-adv-x="296" 
d="M248 -13l-254 746h54l254 -746h-54z" />
    <glyph glyph-name="bracketright" unicode="]" horiz-adv-x="479" 
d="M165 690q0 24 -25 29q-22 1 -43 2t-21 12v44q0 13 29 13h204q44 0 44 -41v-777q0 -42 -44 -42h-204q-29 0 -29 13v44q0 11 21 13h30q38 1 38 30v660z" />
    <glyph glyph-name="asciicircum" unicode="^" 
d="M268 733h121l197 -281h-56l-203 157l-200 -157h-57z" />
    <glyph glyph-name="underscore" unicode="_" horiz-adv-x="500" 
d="M-6 -57h512v-123h-512v123z" />
    <glyph glyph-name="grave" unicode="`" horiz-adv-x="533" 
d="M300 770q-70 24 -149 52q-46 16 -46 51q0 20 14.5 34t34.5 14q25 0 56 -26l148 -125h-58z" />
    <glyph glyph-name="a" unicode="a" horiz-adv-x="593" 
d="M157 0h-109q-38 0 -38 24q0 12 9 17q32 16 50 36q15 16 28 56l103 309q12 36 12 60q0 12 -21 20.5t-21 23.5q0 23 37 23h193l135 -481q5 -18 28 -34t23 -29q0 -25 -48 -25h-202q-47 0 -47 27q0 14 18.5 24t18.5 18q0 11 -21 95h-144q-19 -60 -19 -77q0 -21 28.5 -34.5
t28.5 -27.5q0 -25 -42 -25zM245 411l-67 -198h115z" />
    <glyph glyph-name="b" unicode="b" horiz-adv-x="607" 
d="M70 88v393q0 27 -23.5 38t-23.5 27q0 23 38 23h276q100 0 151 -22q74 -33 74 -120q0 -114 -151 -129v-3q71 -5 112 -38q48 -38 48 -105q0 -152 -238 -152h-272q-38 0 -38 24q0 12 23.5 23t23.5 41zM274 521v-199h27q37 0 50 17t13 55v55q0 72 -63 72h-27zM274 274v-226
h27q63 0 63 72v83q0 37 -13.5 54t-49.5 17h-27z" />
    <glyph glyph-name="c" unicode="c" horiz-adv-x="564" 
d="M507 547v-154q0 -45 -27 -45q-11 0 -19 7q-11 10 -20 45q-31 123 -129 123q-67 0 -67 -71v-335q0 -38 15 -54.5t52 -16.5q57 0 94 32q20 16 47 58q20 32 35 32q26 0 26 -30q0 -28 -18 -55q-28 -42 -80 -67.5t-104 -25.5q-141 0 -212 82q-68 77 -68 220q0 135 73.5 211
t207.5 76q40 0 78 -15t46 -15t19 13t26 13q25 0 25 -28z" />
    <glyph glyph-name="d" unicode="d" horiz-adv-x="603" 
d="M70 88v393q0 27 -23.5 38t-23.5 27q0 23 38 23h240q126 0 199 -79t73 -206q0 -126 -72 -204q-75 -80 -200 -80h-240q-38 0 -38 24q0 14 23.5 26.5t23.5 37.5zM274 521v-473h27q55 0 55 75v323q0 75 -55 75h-27z" />
    <glyph glyph-name="e" unicode="e" horiz-adv-x="534" 
d="M274 267v-215h29q58 0 88 29q24 22 47 81q8 20 27 20q21 0 27 -19q3 -10 3 -37v-126h-434q-38 0 -38 24q0 17 21 24.5t24 16.5q2 6 2 23v393q0 27 -23.5 38t-23.5 27q0 23 38 23h428v-152q0 -24 -25 -24q-19 0 -28 20q-14 33 -22 46q-14 23 -34 39q-24 19 -106 19v-198
h29q33 0 50 43.5t34 43.5q24 0 24 -43v-143q0 -41 -24 -41q-17 0 -35 44t-49 44h-29z" />
    <glyph glyph-name="f" unicode="f" horiz-adv-x="511" 
d="M489 569v-151q0 -25 -25 -25q-11 0 -18 6.5t-18 35.5q-14 36 -50 59t-75 23h-29v-198h29q28 0 47 43.5t37 43.5q24 0 24 -40v-148q0 -39 -24 -39q-20 0 -38 44t-46 44h-29v-179q0 -24 27.5 -37t27.5 -28q0 -23 -40 -23h-231q-35 0 -35 24q0 17 21 24.5t24 16.5q2 6 2 20
v396q0 27 -23.5 38t-23.5 27q0 23 38 23h428z" />
    <glyph glyph-name="g" unicode="g" horiz-adv-x="583" 
d="M526 73q-85 -83 -227 -83q-132 0 -202 82q-66 77 -66 212q0 134 67 212q72 83 203 83q59 0 94 -15t51 -15q10 0 21.5 13t29.5 13q29 0 29 -29v-147q0 -43 -33 -43q-24 0 -38.5 31.5t-27.5 64.5q-21 42 -54.5 60.5t-71.5 18.5t-49 -20q-8 -14 -8 -55v-343q0 -40 8 -54
q11 -20 47 -20q28 0 37.5 10t9.5 37v123q0 21 -23.5 31.5t-23.5 28.5q0 22 38 22h186q33 0 33 -24q0 -13 -9 -20q-15 -12 -16 -14q-5 -7 -5 -17v-143z" />
    <glyph glyph-name="h" unicode="h" horiz-adv-x="643" 
d="M275 320h94v170q0 18 -15.5 32t-15.5 27q0 20 28 20h216q37 0 37 -23q0 -16 -23 -27.5t-23 -37.5v-400q0 -21 23 -31t23 -26q0 -24 -37 -24h-216q-28 0 -28 21q0 12 15.5 26.5t15.5 31.5v191h-94v-191q0 -21 16 -34t16 -24q0 -21 -30 -21h-215q-38 0 -38 24q0 16 23 27
t23 37v393q0 27 -23 38t-23 27q0 23 38 23h215q30 0 30 -20q0 -14 -16 -28t-16 -31v-170z" />
    <glyph glyph-name="i" unicode="i" horiz-adv-x="344" 
d="M284 569q37 0 37 -23q0 -15 -23.5 -27.5t-23.5 -37.5v-395q0 -24 23.5 -35t23.5 -27q0 -24 -37 -24h-223q-38 0 -38 24q0 17 21 24.5t24 16.5q2 6 2 21v397q0 23 -23.5 35.5t-23.5 27.5q0 23 38 23h223z" />
    <glyph glyph-name="j" unicode="j" horiz-adv-x="491" 
d="M218 134v352q0 19 -27 32.5t-27 28.5q0 22 42 22h225q38 0 38 -23q0 -16 -23.5 -27t-23.5 -38v-296q0 -113 -56 -156q-48 -38 -165 -38q-77 0 -132 29q-69 36 -69 106q0 43 28 69t72 26q85 0 85 -83q0 -54 -66 -77q17 -17 57 -17q29 0 38 33q4 17 4 57z" />
    <glyph glyph-name="k" unicode="k" horiz-adv-x="643" 
d="M70 88v393q0 27 -23 38t-23 27q0 23 38 23h223q36 0 36 -23q0 -16 -23 -27.5t-23 -37.5v-166h26q84 0 84 75v58q0 126 116 126q111 0 111 -93q0 -28 -21.5 -48t-49.5 -20q-26 0 -45 14q-22 15 -22 40q0 18 8.5 24.5t8.5 14.5q0 19 -17 19q-29 0 -34 -47q-1 -48 -3 -96
q-5 -58 -34 -75q61 -9 103 -39q50 -37 50 -93v-66q0 -21 13 -21q11 0 18 11t21 11q25 0 25 -22q0 -13 -9 -30q-35 -64 -132 -64q-133 0 -133 140q0 66 0 58q-1 39 -12.5 55.5t-32.5 19.5q-5 1 -39 1v-187q0 -21 23 -31t23 -26q0 -24 -36 -24h-223q-38 0 -38 24q0 16 23 26
t23 38z" />
    <glyph glyph-name="l" unicode="l" horiz-adv-x="532" 
d="M61 0q-38 0 -38 24q0 15 23.5 26t23.5 38v393q0 27 -23.5 38t-23.5 27q0 23 38 23h223q36 0 36 -23q0 -16 -23 -27t-23 -38v-429h27q58 0 87 38q14 17 34 71q13 38 32 38q27 0 27 -47v-152h-420z" />
    <glyph glyph-name="m" unicode="m" horiz-adv-x="684" 
d="M410 412l-131 -412h-25l-123 344h-1v-205q0 -42 19 -64q8 -11 34 -25q19 -11 19 -24q0 -26 -38 -26h-118q-36 0 -36 26q0 15 11 20q34 15 47 35.5t13 57.5v321q0 29 -18 45q-5 4 -35 20q-18 9 -18 23q0 21 33 21h215l81 -225l72 225h214q37 0 37 -23q0 -17 -23 -27
t-23 -33v-405q0 -21 23 -31t23 -26q0 -24 -37 -24h-223q-38 0 -38 24q0 14 23.5 26.5t23.5 37.5v324h-1z" />
    <glyph glyph-name="n" unicode="n" horiz-adv-x="584" 
d="M271 569l187 -300v153q0 78 -60 105q-11 5 -11 16q0 26 35 26h120q36 0 36 -26q0 -10 -12 -17t-23 -13q-36 -26 -36 -94v-419h-120l-261 407v-261q0 -42 19 -66q9 -12 34 -29q19 -13 19 -25q0 -26 -37 -26h-117q-38 0 -38 26q0 10 19 23q25 16 35 30q19 26 19 68v339
q-8 12 -29 30q-14 5 -29 11t-15 20q0 22 34 22h231z" />
    <glyph glyph-name="o" unicode="o" horiz-adv-x="609" 
d="M32 284q0 131 70 211q74 84 203 84q128 0 202 -84q71 -81 71 -211t-71 -210q-74 -84 -202 -84q-129 0 -202 84q-71 80 -71 210zM249 456v-343q0 -41 8 -55q11 -20 48 -20q36 0 47 21q7 13 7 54v343q0 41 -7 54q-11 21 -47 21q-37 0 -48 -20q-8 -14 -8 -55z" />
    <glyph glyph-name="p" unicode="p" horiz-adv-x="582" 
d="M70 88v393q0 27 -23.5 38t-23.5 27q0 23 38 23h257q234 0 234 -176q0 -175 -234 -175h-44v-130q0 -23 27.5 -37.5t27.5 -27.5q0 -23 -43 -23h-225q-38 0 -38 24q0 14 23.5 26.5t23.5 37.5zM274 521v-254h27q54 0 54 70v112q0 72 -54 72h-27z" />
    <glyph glyph-name="q" unicode="q" horiz-adv-x="608" 
d="M302 579q132 0 205 -82q70 -79 70 -213q0 -156 -95 -231q22 -15 44 -15q10 0 23 4.5t19 4.5q20 0 20 -22q0 -7 -8 -16q-16 -18 -45.5 -29.5t-54.5 -11.5q-45 0 -86 35q-52 -13 -92 -13q-132 0 -203 82q-68 78 -68 212t68 212q72 83 203 83zM279 105q0 22 43 22
q20 0 36 -13v346q0 40 -8 53q-12 18 -48 18q-35 0 -45 -19q-8 -14 -8 -52v-351q0 -38 8 -52q11 -19 45 -19q31 0 44 13q-8 15 -27 21q-28 9 -32 11q-8 5 -8 22z" />
    <glyph glyph-name="r" unicode="r" horiz-adv-x="627" 
d="M411 286v-2q144 -18 144 -109v-72q0 -15 8 -15q5 0 13 11.5t22 11.5q10 0 18.5 -8t8.5 -18q0 -12 -8 -27q-17 -31 -52.5 -47.5t-73.5 -16.5q-133 0 -133 140q0 56 0 52q-2 31 -12.5 49t-31.5 22q-7 1 -40 1v-177q0 -21 23 -31t23 -26q0 -24 -36 -24h-223q-38 0 -38 24
q0 16 23.5 26.5t23.5 37.5v393q0 27 -23.5 38t-23.5 27q0 23 38 23h272q217 0 217 -145q0 -113 -139 -138zM274 519v-213h27q51 0 51 69v74q0 70 -51 70h-27z" />
    <glyph glyph-name="s" unicode="s" horiz-adv-x="524" 
d="M460 549v-133q0 -38 -25 -38q-21 0 -27 17t-14 42q-13 41 -45 67.5t-74 26.5q-82 0 -82 -62q0 -42 78 -72q119 -47 143 -64q78 -53 78 -151q0 -95 -74 -147q-64 -46 -163 -46q-46 0 -86 12t-56 12q-11 0 -21 -12t-23 -12q-28 0 -28 35v147q0 42 28 42q23 0 27 -18
q35 -153 149 -153q90 0 90 59q0 14 -4 25q-10 27 -88 58q-98 41 -133 68q-69 53 -69 136q0 87 58 139t146 52q47 0 95 -12t52 -12q10 0 20.5 12t23.5 12q24 0 24 -30z" />
    <glyph glyph-name="t" unicode="t" horiz-adv-x="571" 
d="M31 569h510v-170q0 -30 -31 -30q-25 0 -29 17q-16 77 -21 87q-19 46 -68 46v-441q0 -18 27 -29t27 -26q0 -23 -40 -23h-234q-39 0 -39 23q0 16 27 27t27 34v435q-51 0 -73 -44q-11 -20 -25 -89q-4 -17 -28 -17q-30 0 -30 43v157z" />
    <glyph glyph-name="u" unicode="u" horiz-adv-x="609" 
d="M30 546q0 23 36 23h227q45 0 45 -22q0 -17 -27.5 -28t-27.5 -34v-336q0 -55 17 -77t70 -22q62 0 83 38q16 28 16 96v256q0 39 -18 57q-7 7 -35 21q-18 10 -18 25q0 26 36 26h128q36 0 36 -26q0 -16 -15 -24q-19 -10 -35 -21q-22 -16 -22 -79v-240q0 -55 -9 -89
q-17 -63 -85 -85q-43 -14 -127 -14q-230 0 -230 180v310q0 27 -22.5 38t-22.5 27z" />
    <glyph glyph-name="v" unicode="v" horiz-adv-x="580" 
d="M350 -4h-123l-155 484q-9 27 -30 39.5t-21 24.5q0 25 48 25h202q47 0 47 -27q0 -13 -19 -21t-19 -21q0 -8 8 -33l72 -229l60 199q8 27 8 46q0 21 -29.5 33.5t-29.5 27.5q0 25 42 25h109q40 0 40 -24q0 -16 -14.5 -21t-28.5 -10q-27 -15 -46 -84z" />
    <glyph glyph-name="w" unicode="w" horiz-adv-x="778" 
d="M567 -4h-106l-73 242h-1l-70 -242h-106l-136 484q-2 10 -9 26q-6 8 -27 17q-16 7 -16 21q0 25 48 25h202q47 0 47 -27q0 -14 -18 -22t-18 -21v-7q0 -3 2 -10l41 -146l76 233h87l86 -286l47 158q6 20 6 36q0 21 -26 37t-26 30q0 25 38 25h104q36 0 36 -24q0 -17 -13 -21.5
t-25 -10.5t-21 -17t-17 -43z" />
    <glyph glyph-name="x" unicode="x" horiz-adv-x="580" 
d="M299 0q-44 0 -44 26q0 13 15 21t15 16q0 11 -6 22l-58 108l-46 -77q-13 -22 -13 -36q0 -11 24.5 -25.5t24.5 -29.5q0 -25 -51 -25h-98q-39 0 -39 24q0 20 21 27q30 10 42 23t36 52l72 118l-132 250q-11 21 -27.5 29.5t-16.5 21.5q0 24 36 24h216q41 0 41 -22
q0 -12 -13 -17.5t-13 -13.5t57 -116l40 62q10 16 10 33q0 13 -23.5 25.5t-23.5 26.5q0 22 36 22h131q22 0 22 -21q0 -10 -8 -16q-18 -11 -52 -35q-19 -15 -33 -36l-72 -113l142 -266q8 -14 21 -24q22 -17 25 -20t3 -13q0 -25 -44 -25h-217z" />
    <glyph glyph-name="y" unicode="y" horiz-adv-x="599" 
d="M399 265v-187q0 -18 27.5 -27.5t27.5 -27.5q0 -23 -42 -23h-233q-41 0 -41 23q0 20 27 28.5t27 33.5v154l-118 248q-8 16 -29.5 31t-21.5 26q0 25 48 25h202q46 0 46 -28q0 -12 -13.5 -20t-13.5 -15q0 -10 9 -29l74 -158l58 123q10 21 10 43q0 23 -28.5 34t-28.5 25
q0 25 40 25h109q39 0 39 -24q0 -15 -7 -18q-30 -12 -53 -35q-19 -20 -41 -67z" />
    <glyph glyph-name="z" unicode="z" horiz-adv-x="503" 
d="M477 0h-454v50l225 470h-28q-59 0 -91 -31q-16 -16 -34 -59q-14 -31 -30 -31q-26 0 -26 55v115h433v-50l-221 -466h28q60 0 94 28q31 25 52 84q8 21 24 21q28 0 28 -61v-125z" />
    <glyph glyph-name="braceleft" unicode="{" horiz-adv-x="533" 
d="M439 808v-45q-55 0 -72 -23q-10 -13 -14 -37.5t-4 -63.5q0 -11 1 -35v-36q0 -134 -54 -177q-21 -17 -57 -29v-4q37 -13 57 -28q54 -42 54 -179v-36q-1 -23 -1 -34q0 -39 4 -61q4 -27 14 -40q17 -23 72 -23v-45q-126 0 -173 41t-47 146v34q1 22 1 33q0 74 -20 111
q-29 50 -106 62v42q77 12 106 63q20 36 20 110q0 11 -1 33v32q0 107 47 148t173 41z" />
    <glyph glyph-name="bar" unicode="|" horiz-adv-x="533" 
d="M194 742h146v-771h-146v771z" />
    <glyph glyph-name="braceright" unicode="}" horiz-adv-x="533" 
d="M94 808q128 0 174 -41t46 -147v-33.5v-33.5q0 -74 20 -110q28 -50 105 -62v-42q-77 -12 -105 -62q-21 -36 -21 -109q0 -12 1 -35v-35q0 -104 -46 -145t-174 -41v45q55 0 73 23q10 13 14 40q4 23 4 65q0 9 -1 29v30q0 144 54 186q21 16 56 28v4q-34 12 -56 29
q-54 43 -54 184q0 10 1 30v30q0 43 -4 67.5t-14 37.5q-18 23 -73 23v45z" />
    <glyph glyph-name="asciitilde" unicode="~" horiz-adv-x="879" 
d="M793 419v-149q-102 -66 -193 -66q-53 0 -140 29q-102 34 -172 34q-84 0 -201 -78v149q121 71 214 71q57 0 144 -27q39 -12 77 -24q45 -13 80 -13q89 0 191 74z" />
    <glyph glyph-name="currency" unicode="&#xa4;" 
d="M113 603l99 -99q50 34 116 34q69 0 118 -34l100 99l66 -66l-99 -102q32 -51 32 -114q0 -64 -32 -115l99 -101l-66 -67l-100 100q-52 -35 -117 -35q-64 0 -117 35l-99 -100l-68 67l99 101q-31 50 -31 116q0 63 31 113l-99 102zM329 441q-49 0 -84.5 -35.5t-35.5 -84.5
q0 -50 35 -85.5t85 -35.5t85 35.5t35 85.5q0 49 -35.5 84.5t-84.5 35.5z" />
    <glyph glyph-name="brokenbar" unicode="&#xa6;" horiz-adv-x="533" 
d="M340 411h-146v331h146v-331zM194 302h146v-331h-146v331z" />
    <glyph glyph-name="section" unicode="&#xa7;" 
d="M436 588q-28 0 -50 12q-28 15 -28 40q0 26 19.5 44t19.5 23q0 25 -71 25q-69 0 -69 -52q0 -25 28.5 -51.5t189.5 -143.5q103 -75 103 -155q0 -104 -126 -147q73 -67 73 -134q0 -73 -66 -109q-53 -29 -133 -29q-74 0 -130 21q-77 30 -77 92q0 36 27 55q23 17 60 17
q29 0 53.5 -15t24.5 -42q0 -24 -20.5 -42.5t-20.5 -22.5q0 -25 83 -25q76 0 76 46q0 28 -28.5 56.5t-188.5 143.5q-106 76 -106 158q0 100 131 140q-79 64 -79 132q0 75 63 113q51 31 132 31q52 0 98 -16q55 -18 80 -54q14 -20 14 -43q0 -32 -24.5 -50t-57.5 -18zM409 219
q58 22 58 47q0 37 -82 97q-46 33 -136 100q-30 -12 -39 -18q-20 -14 -20 -35q0 -29 65 -77q51 -38 154 -114z" />
    <glyph glyph-name="copyright" unicode="&#xa9;" horiz-adv-x="836" 
d="M419 716q156 0 265.5 -110.5t109.5 -267.5q0 -154 -111 -266t-265 -112t-265 112t-111 266q0 159 109 268.5t268 109.5zM418 654q-134 0 -224.5 -91t-90.5 -225q0 -130 92.5 -223t222.5 -93q128 0 221 93.5t93 222.5q0 134 -90.5 225t-223.5 91zM562 554h27v-169h-27
q-32 134 -130 134q-104 0 -104 -178q0 -186 113 -186q72 0 131 88l27 -18q-67 -110 -182 -110q-95 0 -158.5 62.5t-63.5 157.5t64 157t159 62q44 0 81 -17.5t36 -17.5q21 0 27 35z" />
    <glyph glyph-name="guillemotleft" unicode="&#xab;" horiz-adv-x="445" 
d="M40 360q0 20 22 41t42 52q36 61 89 138q7 7 16 7q18 0 18 -21q0 -2 -31 -80q-32 -81 -32 -137t31.5 -135.5t31.5 -81.5q0 -21 -18 -21q-8 0 -16.5 8.5t-45.5 69.5q-27 45 -39 63q-23 34 -45.5 56.5t-22.5 40.5zM203 360q0 20 22 41t42 52q37 62 89 138q8 7 17 7
q17 0 17 -21q0 -2 -31 -80q-32 -81 -32 -137t31.5 -135.5t31.5 -81.5q0 -21 -17 -21q-8 0 -17.5 8.5t-43.5 63.5q-23 37 -45 73q-21 32 -42.5 53.5t-21.5 39.5z" />
    <glyph glyph-name="logicalnot" unicode="&#xac;" horiz-adv-x="889" 
d="M132 432h625v-249h-142v117h-483v132z" />
    <glyph glyph-name="registered" unicode="&#xae;" horiz-adv-x="836" 
d="M418 716q153 0 264.5 -112t111.5 -266q0 -156 -110.5 -267t-266.5 -111q-155 0 -265 111.5t-110 266.5t110.5 266.5t265.5 111.5zM418 654q-129 0 -222 -93t-93 -223t92.5 -223t221.5 -93q130 0 222.5 92.5t92.5 223.5t-92 223.5t-222 92.5zM229 549h203q164 0 164 -101
q0 -79 -117 -103v-4q96 -19 96 -118v-32q3 -23 17 -23q25 0 25 68h31v-17q0 -87 -96 -87q-55 0 -72 28q-13 21 -19 72.5t-14 68.5q-15 32 -56 32v-121q0 -38 36 -44v-29h-198v29q44 4 44 44v263q0 23 -10 31.5t-34 11.5v31zM391 362h16q72 0 72 85q0 30 -15 50.5t-43 20.5
q-30 0 -30 -29v-127z" />
    <glyph glyph-name="degree" unicode="&#xb0;" horiz-adv-x="336" 
d="M169 733q66 0 112.5 -47t46.5 -114q0 -65 -47.5 -112.5t-112.5 -47.5q-67 0 -113.5 46.5t-46.5 113.5q0 66 47.5 113.5t113.5 47.5zM168 649q-31 0 -52.5 -22.5t-21.5 -53.5q0 -32 21.5 -54t53.5 -22q31 0 53 22.5t22 53.5t-22.5 53.5t-53.5 22.5z" />
    <glyph glyph-name="plusminus" unicode="&#xb1;" horiz-adv-x="879" 
d="M366 339h-186q-20 0 -34 12.5t-14 32.5v45q0 20 14 32.5t34 12.5h186v109q0 20 14 32.5t34 12.5h51q19 0 33 -13t14 -32v-109h187q20 0 34 -12.5t14 -32.5v-45q0 -20 -14 -32.5t-34 -12.5h-187v-109q0 -19 -14 -32t-33 -13h-51q-20 0 -34 12.5t-14 32.5v109zM132 25v45
q0 20 14 32.5t34 12.5h519q20 0 34 -12.5t14 -32.5v-45q0 -20 -14 -32.5t-34 -12.5h-519q-20 0 -34 12.5t-14 32.5z" />
    <glyph glyph-name="paragraph" unicode="&#xb6;" 
d="M585 736v-70h-50v-666h-106v666h-73v-666h-106v391q-80 4 -131 47q-56 47 -56 125q0 84 61 131q56 42 142 42h319z" />
    <glyph glyph-name="guillemotright" unicode="&#xbb;" horiz-adv-x="445" 
d="M243 360q0 -19 -22 -40q-29 -28 -61 -79q-25 -43 -51 -86q-20 -33 -37 -33q-16 0 -16 21q0 8 14 39q9 20 18 41q31 78 31 137t-31 137q-9 21 -18 41q-14 31 -14 39q0 21 16 21q18 0 37 -32q26 -43 51 -86q33 -52 61 -79q22 -21 22 -41zM405 360q0 -19 -21 -40
q-35 -35 -86 -120q-17 -29 -46 -70q-8 -8 -17 -8q-18 0 -18 21q0 3 32 80t32 137t-32 137t-32 80q0 21 18 21q10 0 18 -8t45 -69q27 -45 39 -63q24 -34 46 -55.5t22 -42.5z" />
    <glyph glyph-name="mu" unicode="&#xb5;" 
d="M190 80q-9 -73 -12 -125t-6 -79q-7 -54 -19.5 -73t-40.5 -19q-55 0 -55 71q0 35 23.5 118t45.5 213l42 252h132l-46 -271q-7 -41 -7 -55q0 -50 36 -50q28 0 44 46q5 16 15 70l46 260h131l-44 -256q-3 -17 -3 -37q0 -45 30 -45q18 0 37 35.5t30 35.5q14 0 14 -20
q0 -9 -5 -30q-32 -135 -116 -135q-70 0 -75 97q-31 -95 -108 -95q-81 0 -89 92z" />
    <glyph glyph-name="mu" unicode="&#x3bc;" 
d="M190 80q-9 -73 -12 -125t-6 -79q-7 -54 -19.5 -73t-40.5 -19q-55 0 -55 71q0 35 23.5 118t45.5 213l42 252h132l-46 -271q-7 -41 -7 -55q0 -50 36 -50q28 0 44 46q5 16 15 70l46 260h131l-44 -256q-3 -17 -3 -37q0 -45 30 -45q18 0 37 35.5t30 35.5q14 0 14 -20
q0 -9 -5 -30q-32 -135 -116 -135q-70 0 -75 97q-31 -95 -108 -95q-81 0 -89 92z" />
    <glyph glyph-name="afii10023" unicode="&#x401;" horiz-adv-x="656" 
d="M168 825q0 28 21.5 48t49.5 20t50.5 -20t22.5 -48q0 -30 -21.5 -49.5t-51.5 -19.5t-50.5 19.5t-20.5 49.5zM365 825q0 28 22 48t50 20t50 -20t22 -48q0 -30 -21 -49.5t-51 -19.5t-51 19.5t-21 49.5zM337 654v-252h36q27 0 46 29q14 27 28 55t30 28q29 0 29 -55v-181
q0 -51 -29 -51q-17 0 -44 57.5t-60 57.5h-36v-276h36q72 0 110 36q29 28 57 103q9 25 33 25q25 0 33 -25q4 -13 4 -46v-159h-536q-46 0 -46 30q0 21 23 30q27 11 31 23q3 9 3 28v498q0 33 -28.5 47.5t-28.5 34.5q0 29 46 29h529v-192q0 -30 -31 -30q-23 0 -34 25
q-33 76 -71 107q-23 18 -62 22q-14 2 -68 2z" />
    <glyph glyph-name="afii10017" unicode="&#x410;" horiz-adv-x="732" 
d="M194 0h-135q-47 0 -47 31q0 17 11 22q38 17 62 44q19 21 35 71l127 392q15 46 15 76q0 15 -26 25.5t-26 29.5q0 29 46 29h238l166 -608q6 -24 36 -45q27 -19 27 -35q0 -32 -58 -32h-251q-57 0 -57 34q0 17 23 29.5t23 23.5q0 12 -27 120h-177q-24 -75 -24 -97
q0 -28 35.5 -44t35.5 -34q0 -32 -52 -32zM302 520l-82 -250h142z" />
    <glyph glyph-name="afii10018" unicode="&#x411;" horiz-adv-x="719" 
d="M629 720v-150q0 -35 -3 -47q-8 -25 -34 -25q-25 0 -38 33q-9 27 -17 54q-9 23 -21 38q-30 36 -145 36h-33v-216h55q289 0 289 -221q0 -222 -289 -222h-318q-46 0 -46 30q0 17 28.5 35.5t28.5 55.5v488q0 33 -28.5 47.5t-28.5 34.5q0 29 46 29h554zM338 383v-320h33
q67 0 67 88v141q0 91 -67 91h-33z" />
    <glyph glyph-name="afii10019" unicode="&#x412;" horiz-adv-x="749" 
d="M86 111v498q0 33 -28.5 47.5t-28.5 34.5q0 29 46 29h341q124 0 187 -29q91 -42 91 -150q0 -145 -186 -164v-3q88 -7 139 -49q58 -48 58 -132q0 -114 -96 -160q-69 -33 -198 -33h-336q-46 0 -46 30q0 16 28.5 30t28.5 51zM338 659v-251h33q45 0 63 24q15 20 15 67v69
q0 47 -15 67q-18 24 -63 24h-33zM338 347v-286h33q45 0 63 24q15 20 15 67v105q0 47 -15 67q-18 23 -63 23h-33z" />
    <glyph glyph-name="afii10020" unicode="&#x413;" horiz-adv-x="625" 
d="M75 720h529v-191q0 -32 -31 -32q-24 0 -34 25q-33 79 -71 110q-23 19 -62 23q-16 2 -68 2v-546q0 -29 39 -46.5t39 -35.5q0 -29 -51 -29h-293q-43 0 -43 30q0 21 23 30q27 11 31 23q3 9 3 28v498q0 36 -28.5 50t-28.5 32q0 29 46 29z" />
    <glyph glyph-name="afii10021" unicode="&#x414;" horiz-adv-x="749" 
d="M394 63v594h-118q-48 0 -61 -17t-13 -84v-351q0 -89 -32 -142h224zM515 0h-311q-92 0 -116 -78q-13 -43 -18 -51q-15 -31 -38 -31q-35 0 -35 32v126q0 65 54 65q91 0 91 153v319q0 72 -16 97t-41 25q-38 0 -38 30q0 33 39 33h572q45 0 45 -30q0 -21 -23 -30
q-27 -10 -30.5 -20.5t-3.5 -30.5v-498q0 -30 13 -40q10 -8 40 -8q35 0 35 -63v-128q0 -32 -34 -32q-28 0 -43 41q-22 61 -35 78q-34 41 -107 41z" />
    <glyph glyph-name="afii10022" unicode="&#x415;" horiz-adv-x="659" 
d="M338 338v-272h36q74 0 110 36q26 26 56 103q10 25 34 25q25 0 33 -25q4 -13 4 -46v-159h-536q-46 0 -46 30q0 21 23 30q27 11 31 23q3 9 3 28v498q0 33 -28.5 47.5t-28.5 34.5q0 29 46 29h529v-192q0 -30 -31 -30q-24 0 -34 25q-31 75 -70 107q-22 18 -63 23q-14 1 -68 1
v-250h36q33 0 51 29l22 52q12 29 31 29q29 0 29 -55v-181q0 -51 -29 -51q-18 0 -32 29q-12 26 -25 53q-18 29 -47 29h-36z" />
    <glyph glyph-name="afii10024" unicode="&#x416;" horiz-adv-x="1117" 
d="M436 111v228h-36q-42 0 -58 -35q-10 -23 -10 -72v-63q0 -176 -158 -176q-41 0 -73 12q-38 14 -64 40q-31 30 -31 66q0 28 32 28q11 0 23 -14t22 -14q16 0 16 27v84q0 70 57 116q48 39 123 50q-10 7 -19 21q-23 38 -23 95q0 124 -12 144q-10 16 -30 16t-20 -23
q0 -10 10 -19t10 -31q0 -31 -24 -49.5t-56 -18.5q-34 0 -58.5 25.5t-24.5 60.5q0 58 38 89q35 29 94 29q137 0 137 -160q0 -93 8 -116q18 -52 91 -52h36v210q0 33 -27.5 47.5t-27.5 34.5q0 29 43 29h270q42 0 42 -29q0 -21 -27.5 -35t-27.5 -47v-210h36q73 0 91 52
q8 23 8 116q0 160 137 160q59 0 95.5 -30t36.5 -88q0 -35 -24 -60.5t-59 -25.5q-33 0 -55 17q-25 19 -25 51q0 22 10 31t10 19q0 23 -20 23q-35 0 -41 -60q-1 -60 -3 -121q-5 -73 -40 -95q75 -11 123 -50q57 -46 57 -116v-84q0 -27 16 -27q10 0 22 14t23 14q32 0 32 -28
q0 -36 -31 -66q-25 -26 -63 -40q-32 -12 -74 -12q-158 0 -158 176q0 84 0 73q-2 50 -15 71t-40 25q-5 1 -49 1v-236q0 -27 27.5 -39.5t27.5 -33.5q0 -30 -42 -30h-270q-43 0 -43 30q0 21 27.5 33.5t27.5 47.5z" />
    <glyph glyph-name="afii10025" unicode="&#x417;" horiz-adv-x="680" 
d="M379 143v134q0 45 -29 60q-18 8 -62.5 8t-60 9t-15.5 22q0 30 59 32q71 3 89.5 23.5t18.5 49.5v100q0 52 -11 68q-15 21 -64 21q-87 0 -87 -31l15.5 -20.5t15.5 -51.5q0 -80 -88 -80q-44 0 -71.5 26.5t-27.5 70.5q0 83 93 121q67 28 164 28q298 0 298 -196
q0 -72 -52 -114q-45 -36 -121 -45v-4q84 -13 134 -55q58 -48 58 -127q0 -112 -109 -165q-83 -40 -208 -40q-107 0 -179 31q-100 43 -100 135q0 45 30 72.5t76 27.5q97 0 97 -85q0 -31 -22 -53t-22 -29q0 -36 106 -36q48 0 63 24q12 18 12 69z" />
    <glyph glyph-name="afii10026" unicode="&#x418;" horiz-adv-x="823" 
d="M750 720q43 0 43 -30q0 -21 -23 -30q-27 -10 -30.5 -20.5t-3.5 -28.5v-502q0 -30 28.5 -45t28.5 -35q0 -29 -45 -29h-267q-37 0 -37 25q0 19 20 35t20 40v308l-145 -246v-62q0 -23 19.5 -40.5t19.5 -34.5q0 -25 -36 -25h-268q-44 0 -44 29q0 21 28.5 35.5t28.5 46.5v506
q0 26 -28.5 39.5t-28.5 33.5q0 30 44 30h270q34 0 34 -26q0 -16 -19.5 -33.5t-19.5 -40.5v-310h2l143 246v61q0 31 -20 47t-20 30q0 26 37 26h269z" />
    <glyph glyph-name="afii10027" unicode="&#x419;" horiz-adv-x="823" 
d="M750 720q43 0 43 -30q0 -21 -23 -30q-27 -10 -30.5 -20.5t-3.5 -28.5v-502q0 -30 28.5 -45t28.5 -35q0 -29 -45 -29h-267q-37 0 -37 25q0 19 20 35t20 40v308l-145 -246v-62q0 -23 19.5 -40.5t19.5 -34.5q0 -25 -36 -25h-268q-44 0 -44 29q0 21 28.5 35.5t28.5 46.5v506
q0 26 -28.5 39.5t-28.5 33.5q0 30 44 30h270q34 0 34 -26q0 -16 -19.5 -33.5t-19.5 -40.5v-310h2l143 246v61q0 31 -20 47t-20 30q0 26 37 26h269zM436 750h-49q-133 0 -133 86q0 69 87 105l12 -17q-33 -17 -33 -49q0 -21 24 -32q19 -9 43 -9h49q24 0 43 9q24 11 24 32
q0 32 -33 49l12 17q87 -36 87 -105q0 -86 -133 -86z" />
    <glyph glyph-name="afii10028" unicode="&#x41a;" horiz-adv-x="794" 
d="M87 111v498q0 33 -28.5 47.5t-28.5 34.5q0 29 46 29h276q44 0 44 -29q0 -21 -28.5 -35.5t-28.5 -46.5v-210h33q103 0 103 95v73q0 160 143 160q61 0 97 -28q40 -30 40 -90q0 -35 -26 -60.5t-61 -25.5q-33 0 -56 17q-27 20 -27 51q0 22 10.5 31t10.5 19q0 23 -21 23
t-31 -16q-12 -19 -12 -144q0 -31 -10 -65q-11 -37 -34 -51q76 -10 127 -49q61 -46 61 -117v-84q0 -27 16 -27q10 0 23 14t25 14q32 0 32 -28q0 -17 -11 -38q-21 -39 -71 -61q-43 -19 -93 -19q-164 0 -164 176q0 77 0 73q-2 50 -15.5 71t-40.5 25q-6 1 -48 1v-236
q0 -26 28.5 -39.5t28.5 -33.5q0 -30 -44 -30h-276q-46 0 -46 30q0 20 28.5 33.5t28.5 47.5z" />
    <glyph glyph-name="afii10029" unicode="&#x41b;" horiz-adv-x="797" 
d="M718 0h-275q-46 0 -46 30q0 19 29 33.5t29 47.5v546h-105q-61 0 -77 -20q-12 -16 -12 -81v-403q0 -79 -28 -116q-32 -44 -108 -44q-61 0 -97 28q-40 30 -40 90q0 35 26 60.5t61 25.5q33 0 56 -17q27 -20 27 -51q0 -18 -9.5 -30.5t-9.5 -17.5q0 -25 17 -25q27 0 36 20.5
t9 84.5v375q0 104 -36 117q-22 3 -45 6q-26 4 -26 28q0 33 45 33h579q45 0 45 -29q0 -21 -28 -34t-28 -42v-512q0 -28 30 -40.5t30 -32.5q0 -30 -49 -30z" />
    <glyph glyph-name="afii10030" unicode="&#x41c;" horiz-adv-x="845" 
d="M506 521l-161 -521h-32l-151 436h-2v-259q0 -48 16 -72t59 -47q14 -7 14 -25q0 -33 -46 -33h-146q-45 0 -45 33q0 18 14 25q43 21 58.5 46t15.5 73v405q0 36 -23 57q-5 5 -42 25q-23 13 -23 30q0 26 41 26h265l101 -284l89 284h263q46 0 46 -29q0 -21 -28.5 -34
t-28.5 -42v-512q0 -28 28.5 -40.5t28.5 -32.5q0 -30 -46 -30h-275q-46 0 -46 30q0 19 29 33.5t29 47.5v410h-2z" />
    <glyph glyph-name="afii10031" unicode="&#x41d;" horiz-adv-x="794" 
d="M339 405h117v215q0 23 -19.5 40.5t-19.5 34.5q0 25 33 25h271q43 0 43 -29q0 -20 -28 -35t-28 -47v-506q0 -26 28 -39.5t28 -33.5q0 -30 -43 -30h-271q-33 0 -33 26q0 16 19.5 33.5t19.5 40.5v242h-117v-241q0 -27 20 -44.5t20 -30.5q0 -26 -35 -26h-270q-44 0 -44 30
q0 20 28.5 34t28.5 47v498q0 33 -28.5 47.5t-28.5 34.5q0 29 44 29h270q35 0 35 -25q0 -17 -20 -35t-20 -40v-215z" />
    <glyph glyph-name="afii10032" unicode="&#x41e;" horiz-adv-x="752" 
d="M39 360q0 164 85 265q91 108 252 108t252 -108q85 -101 85 -265t-85 -265q-91 -108 -252 -108q-160 0 -251 108q-86 102 -86 265zM308 577v-434q0 -52 9 -69q13 -26 59 -26q45 0 58 27q9 17 9 68v434q0 51 -9 68q-13 27 -58 27q-46 0 -59 -26q-9 -17 -9 -69z" />
    <glyph glyph-name="afii10033" unicode="&#x41f;" horiz-adv-x="794" 
d="M456 657h-117v-556q0 -27 20 -44.5t20 -30.5q0 -26 -35 -26h-270q-44 0 -44 30q0 18 28.5 33.5t28.5 47.5v498q0 33 -28.5 47.5t-28.5 34.5q0 29 44 29h647q43 0 43 -29q0 -20 -28 -35t-28 -47v-506q0 -26 28 -39.5t28 -33.5q0 -30 -43 -30h-271q-33 0 -33 26
q0 16 19.5 33.5t19.5 40.5v557z" />
    <glyph glyph-name="afii10034" unicode="&#x420;" horiz-adv-x="719" 
d="M86 111v498q0 33 -28.5 47.5t-28.5 34.5q0 29 46 29h318q289 0 289 -222t-289 -222h-55v-165q0 -29 34 -47t34 -35q0 -29 -53 -29h-278q-46 0 -46 30q0 18 28.5 33.5t28.5 47.5zM338 659v-321h33q67 0 67 89v141q0 91 -67 91h-33z" />
    <glyph glyph-name="afii10035" unicode="&#x421;" horiz-adv-x="696" 
d="M626 692v-195q0 -57 -34 -57q-16 0 -24 8q-12 12 -24 58q-19 75 -50 111q-40 45 -109 45q-47 0 -65 -21t-18 -69v-424q0 -48 18 -69t65 -21q61 0 95 24q42 29 90 107q15 24 33 24q32 0 32 -38q0 -78 -88 -136q-80 -52 -162 -52q-159 0 -252.5 93.5t-93.5 289.5
q0 168 90.5 265.5t257.5 97.5q46 0 97 -19t55 -19q11 0 24 16.5t32 16.5q31 0 31 -36z" />
    <glyph glyph-name="afii10036" unicode="&#x422;" horiz-adv-x="705" 
d="M38 720h630v-215q0 -38 -38 -38q-15 0 -25 7t-20 57q-10 59 -24 84q-25 42 -77 42v-558q0 -22 33.5 -36.5t33.5 -33.5q0 -29 -50 -29h-288q-49 0 -49 29q0 20 33.5 34.5t33.5 42.5v551q-51 0 -78 -36q-20 -26 -33 -83q-3 -17 -5 -34q-5 -22 -14 -29.5t-26 -7.5
q-37 0 -37 54v199z" />
    <glyph glyph-name="afii10037" unicode="&#x423;" horiz-adv-x="734" 
d="M484 431l58 118q19 39 19 59q0 27 -34.5 44.5t-34.5 35.5q0 32 53 32h139q40 0 40 -30q0 -24 -5.5 -28.5t-19.5 -10.5q-37 -16 -69 -79l-224 -442q-37 -73 -68 -102q-44 -41 -113 -41q-57 0 -93 30q-40 32 -40 88q0 35 27.5 59.5t63.5 24.5q33 0 55 -16q24 -19 24 -50
q0 -24 -6 -30t-6 -18q0 -16 18 -16q23 0 53 49q5 7 36 68l-279 459q-7 12 -37 25q-25 10 -25 28q0 32 60 32h272q59 0 59 -35q0 -15 -17.5 -25.5t-17.5 -18.5q0 -20 9 -35z" />
    <glyph glyph-name="afii10038" unicode="&#x424;" horiz-adv-x="1006" 
d="M662 529h-33v-323h33q67 0 67 91v141q0 91 -67 91zM365 720h277q45 0 45 -29q0 -19 -18 -29q-27 -16 -31 -20q-9 -10 -9 -52h55q289 0 289 -223q0 -222 -289 -222h-55v-34q0 -33 29 -47t29 -34q0 -30 -45 -30h-277q-45 0 -45 30q0 21 24.5 31t29.5 22q3 8 3 62h-55
q-289 0 -289 222q0 223 289 223h55v19q0 33 -28.5 47.5t-28.5 34.5q0 29 45 29zM377 206v323h-33q-67 0 -67 -91v-141q0 -91 67 -91h33z" />
    <glyph glyph-name="afii10039" unicode="&#x425;" horiz-adv-x="716" 
d="M368 0q-53 0 -53 33q0 15 18.5 26.5t18.5 20.5q0 12 -8 27l-71 137l-57 -97q-16 -27 -16 -46q0 -15 30.5 -32.5t30.5 -36.5q0 -32 -63 -32h-118q-51 0 -51 31q0 24 14 29l35 12q14 5 30 23q11 12 42 64l90 150l-163 316q-6 11 -32 34q-23 20 -23 31q0 30 45 30h267
q50 0 50 -27q0 -13 -16 -23t-16 -17q0 -11 13 -36l57 -111l50 79q12 19 12 42q0 17 -29 32t-29 34q0 27 42 27h164q27 0 27 -26q0 -13 -10 -21q-22 -14 -64 -45q-23 -18 -40 -45l-89 -142l175 -337q9 -17 21.5 -27.5t25.5 -20.5t13 -24q0 -32 -55 -32h-268z" />
    <glyph glyph-name="afii10040" unicode="&#x426;" horiz-adv-x="806" 
d="M340 63h117v554q0 30 -20 47t-20 30q0 26 37 26h266q45 0 45 -30q0 -21 -23 -30q-26 -10 -29.5 -20.5t-3.5 -27.5v-504q0 -37 27 -44q5 -1 61 -1v-191q0 -32 -35 -32q-23 0 -39 31q-4 8 -17 51q-11 34 -47 56t-81 22h-501q-46 0 -46 29q0 21 28.5 35.5t28.5 46.5v506
q0 26 -28.5 39.5t-28.5 33.5q0 30 46 30h266q36 0 36 -26q0 -16 -19.5 -33.5t-19.5 -40.5v-557z" />
    <glyph glyph-name="afii10041" unicode="&#x427;" horiz-adv-x="750" 
d="M674 0h-278q-54 0 -54 29q0 17 34.5 35.5t34.5 46.5v170q-65 -5 -72 -5q-273 0 -273 185v148q0 33 -28.5 47.5t-28.5 34.5q0 29 46 29h200q36 0 48 -25q8 -16 8 -57v-211q0 -90 67 -90h33v283q0 23 -19.5 40.5t-19.5 34.5q0 25 39 25h263q45 0 45 -29q0 -20 -28 -34
t-28 -48v-498q0 -33 28 -47.5t28 -33.5q0 -30 -45 -30z" />
    <glyph glyph-name="afii10042" unicode="&#x428;" horiz-adv-x="1161" 
d="M707 63h116v546q0 30 -20 50.5t-20 34.5q0 26 40 26h266q43 0 43 -30q0 -21 -23 -30q-27 -10 -30.5 -20.5t-3.5 -28.5v-502q0 -30 28.5 -45t28.5 -35q0 -29 -45 -29h-1014q-44 0 -44 29q0 21 28.5 35.5t28.5 46.5v506q0 26 -28.5 39.5t-28.5 33.5q0 30 44 30h268
q36 0 36 -26q0 -14 -19.5 -34.5t-19.5 -48.5v-548h117v546q0 30 -20 50.5t-20 34.5q0 26 37 26h258q35 0 35 -26q0 -14 -19 -34.5t-19 -48.5v-548z" />
    <glyph glyph-name="afii10043" unicode="&#x429;" horiz-adv-x="1172" 
d="M709 63h116v546q0 30 -20 50.5t-20 34.5q0 26 40 26h264q45 0 45 -30q0 -21 -23 -30q-27 -10 -30.5 -20.5t-3.5 -27.5v-504q0 -37 28 -44q5 -1 61 -1v-191q0 -32 -35 -32q-23 0 -39 31q-5 11 -18 51q-12 37 -51 59q-35 19 -77 19h-869q-46 0 -46 29q0 21 28.5 35.5
t28.5 46.5v506q0 26 -28.5 39.5t-28.5 33.5q0 30 46 30h263q39 0 39 -26q0 -15 -19.5 -34.5t-19.5 -50.5v-546h117v546q0 30 -20 50.5t-20 34.5q0 26 40 26h252q39 0 39 -26q0 -15 -19.5 -34.5t-19.5 -50.5v-546z" />
    <glyph glyph-name="afii10044" unicode="&#x42a;" horiz-adv-x="850" 
d="M469 381v-318h33q67 0 67 89v141q0 88 -67 88h-33zM469 609v-167h55q290 0 290 -220q0 -222 -290 -222h-318q-45 0 -45 29q0 20 28 34.5t28 47.5v549q-57 0 -80 -45q-3 -7 -24 -85q-12 -45 -42 -45q-36 0 -36 54v181h449q54 0 54 -29q0 -16 -34.5 -35t-34.5 -47z" />
    <glyph glyph-name="afii10045" unicode="&#x42b;" horiz-adv-x="1076" 
d="M339 382v-321h33q67 0 67 91v141q0 89 -67 89h-33zM339 609v-167h55q289 0 289 -220q0 -222 -289 -222h-318q-46 0 -46 29q0 20 28.5 34.5t28.5 47.5v498q0 32 -28.5 47.5t-28.5 33.5q0 30 46 30h278q53 0 53 -29q0 -17 -34 -35t-34 -47zM1001 720q45 0 45 -29
q0 -21 -29 -35t-29 -47v-500q0 -31 29 -45t29 -34q0 -30 -45 -30h-277q-45 0 -45 30q0 21 23 30q27 11 31 23q3 9 3 25v504q0 30 -28.5 44.5t-28.5 34.5q0 29 45 29h277z" />
    <glyph glyph-name="afii10046" unicode="&#x42c;" horiz-adv-x="719" 
d="M339 382v-319h33q67 0 67 89v141q0 89 -67 89h-33zM394 0h-318q-46 0 -46 29q0 20 28.5 34.5t28.5 47.5v498q0 32 -28.5 47.5t-28.5 33.5q0 30 46 30h278q53 0 53 -29q0 -17 -34 -35t-34 -47v-167h55q289 0 289 -220q0 -222 -289 -222z" />
    <glyph glyph-name="afii10047" unicode="&#x42d;" horiz-adv-x="687" 
d="M385 148v194h-32q-34 0 -59.5 -57t-44.5 -57q-29 0 -29 51v181q0 55 29 55q16 0 30 -29q27 -55 28 -55q19 -29 46 -29h32v170q0 54 -21.5 74.5t-75.5 20.5q-79 0 -115 -59q-17 -26 -38 -109q-14 -59 -40 -59q-34 0 -34 57v195q0 36 31 36q19 0 32 -16.5t24 -16.5
q5 0 65 19t106 19q159 0 247 -109q82 -101 82 -264q0 -170 -88 -269q-92 -104 -259 -104q-98 0 -167 44q-82 51 -82 144q0 38 34 38q27 0 39 -25q39 -79 57 -98q36 -37 106 -37q53 0 75 21.5t22 73.5z" />
    <glyph glyph-name="afii10048" unicode="&#x42e;" horiz-adv-x="1135" 
d="M338 406h90q12 147 98 235q90 92 236 92q161 0 251 -108q84 -101 84 -265t-84 -265q-90 -108 -251 -108q-155 0 -245 102q-85 96 -91 254h-88v-234q0 -31 29 -45t29 -34q0 -30 -45 -30h-276q-46 0 -46 30q0 21 23 30q27 11 31 23q3 9 3 28v498q0 33 -28.5 47.5
t-28.5 34.5q0 29 46 29h276q45 0 45 -29q0 -21 -29 -35t-29 -47v-203zM694 577v-434q0 -48 10 -67q15 -28 58 -28q45 0 59 27q8 17 8 68v434q0 52 -8 68q-14 27 -59 27t-59 -26q-9 -18 -9 -69z" />
    <glyph glyph-name="afii10049" unicode="&#x42f;" horiz-adv-x="774" 
d="M333 475q0 -89 68 -89h33v274h-33q-68 0 -68 -92v-93zM377 30q0 20 28.5 33.5t28.5 39.5v220h-33q-53 0 -65 -57q-3 -15 -3 -97q0 -176 -167 -176q-46 0 -88 20q-47 22 -67 60q-11 20 -11 34q0 13 10.5 23t23.5 10t25.5 -14.5t17.5 -14.5q10 0 10 20v91q0 114 178 138v2
q-178 32 -178 175q0 183 274 183h336q45 0 45 -29q0 -21 -28 -35t-28 -47v-498q0 -34 28 -47.5t28 -33.5q0 -30 -45 -30h-276q-44 0 -44 30z" />
    <glyph glyph-name="afii10065" unicode="&#x430;" horiz-adv-x="593" 
d="M157 0h-109q-38 0 -38 24q0 12 9 17q32 16 50 36q15 16 28 56l103 309q12 36 12 60q0 12 -21 20.5t-21 23.5q0 23 37 23h193l135 -481q5 -18 28 -34t23 -29q0 -25 -48 -25h-202q-47 0 -47 27q0 14 18.5 24t18.5 18q0 11 -21 95h-144q-19 -60 -19 -77q0 -21 28.5 -34.5
t28.5 -27.5q0 -25 -42 -25zM245 411l-67 -198h115z" />
    <glyph glyph-name="afii10066" unicode="&#x431;" horiz-adv-x="582" 
d="M509 569v-119q0 -28 -3 -37q-5 -20 -26 -20q-24 0 -38 49q-16 55 -49 68q-28 11 -119 11v-171h44q234 0 234 -175t-234 -175h-257q-38 0 -38 24q0 14 23.5 28t23.5 44v385q0 27 -23.5 38t-23.5 27q0 23 38 23h448zM274 303v-253h27q54 0 54 69v112q0 72 -54 72h-27z" />
    <glyph glyph-name="afii10067" unicode="&#x432;" horiz-adv-x="607" 
d="M70 88v393q0 27 -23.5 38t-23.5 27q0 23 38 23h276q100 0 151 -22q74 -33 74 -120q0 -114 -151 -129v-3q71 -5 112 -38q48 -38 48 -105q0 -152 -238 -152h-272q-38 0 -38 24q0 12 23.5 23t23.5 41zM274 521v-199h27q37 0 50 17t13 55v55q0 72 -63 72h-27zM274 274v-226
h27q63 0 63 72v83q0 37 -13.5 54t-49.5 17h-27z" />
    <glyph glyph-name="afii10068" unicode="&#x433;" horiz-adv-x="506" 
d="M61 569h428v-151q0 -25 -25 -25q-18 0 -27 20q-15 33 -24 47q-14 24 -34 40q-24 19 -105 19v-431q0 -23 31.5 -37t31.5 -28q0 -23 -41 -23h-235q-38 0 -38 24q0 17 21 24.5t24 16.5q2 6 2 23v393q0 29 -23.5 40t-23.5 25q0 23 38 23z" />
    <glyph glyph-name="afii10069" unicode="&#x434;" horiz-adv-x="607" 
d="M319 50v469h-95q-42 0 -53 -20q-7 -13 -7 -60v-277q0 -70 -26 -112h181zM417 0h-252q-73 0 -94 -62q-12 -35 -14 -40q-12 -24 -31 -24q-28 0 -28 25v99q0 52 43 52q74 0 74 117v256q0 58 -13 77q-11 16 -41 20q-23 4 -23 23q0 26 32 26h463q36 0 36 -24q0 -16 -21 -24
t-24 -24q-1 -7 -1 -16v-393q0 -31 18 -34.5t35 -5.5q19 -8 19 -48v-101q0 -25 -28 -25q-22 0 -35 33q-18 47 -29 60q-28 33 -86 33z" />
    <glyph glyph-name="afii10070" unicode="&#x435;" horiz-adv-x="534" 
d="M274 267v-215h29q58 0 88 29q24 22 47 81q8 20 27 20q21 0 27 -19q3 -10 3 -37v-126h-434q-38 0 -38 24q0 17 21 24.5t24 16.5q2 6 2 23v393q0 27 -23.5 38t-23.5 27q0 23 38 23h428v-152q0 -24 -25 -24q-19 0 -28 20q-14 33 -22 46q-14 23 -34 39q-24 19 -106 19v-198
h29q33 0 50 43.5t34 43.5q24 0 24 -43v-143q0 -41 -24 -41q-17 0 -35 44t-49 44h-29z" />
    <glyph glyph-name="afii10072" unicode="&#x436;" horiz-adv-x="905" 
d="M353 88v180h-29q-56 0 -56 -89v-24q1 -15 1 -21q0 -140 -128 -140q-94 0 -127 64q-9 18 -9 30q0 22 26 22q11 0 18 -11t18 -11q13 0 13 21v66q0 56 46 92q40 31 100 40q-28 17 -32 75q-2 48 -3 96q-5 47 -33 47q-16 0 -16 -19q0 -8 8 -14.5t8 -24.5q0 -25 -19.5 -39.5
t-45.5 -14.5q-28 0 -47.5 20t-19.5 48q0 93 107 93q111 0 111 -126q0 -74 7 -92q14 -41 73 -41h29v166q0 26 -22 37.5t-22 27.5q0 23 34 23h219q34 0 34 -23q0 -15 -22 -28t-22 -37v-166h29q59 0 73 41q7 18 7 92q0 126 111 126q107 0 107 -93q0 -28 -19.5 -48t-47.5 -20
q-26 0 -45.5 14t-19.5 40q0 18 8 24.5t8 14.5q0 19 -16 19q-29 0 -31.5 -47.5t-4.5 -95.5q-4 -58 -32 -75q60 -9 99 -40q47 -36 47 -92v-66q0 -21 13 -21q11 0 17.5 11t18.5 11q26 0 26 -22q0 -14 -8 -30q-16 -31 -55 -49q-34 -15 -73 -15q-128 0 -128 140q0 95 -12 114
q-10 16 -32 19q-4 1 -40 1v-187q0 -20 22 -31t22 -26q0 -24 -34 -24h-219q-34 0 -34 24q0 15 22 26t22 38z" />
    <glyph glyph-name="afii10073" unicode="&#x437;" horiz-adv-x="551" 
d="M307 113v106q0 36 -24 47q-14 7 -50 7t-48.5 7t-12.5 17q0 24 48 25q57 2 72 18t15 40v79q0 42 -9 55q-12 15 -52 15q-70 0 -70 -24q0 -2 12.5 -16.5t12.5 -40.5q0 -63 -71 -63q-35 0 -58 20.5t-23 55.5q0 66 76 96q55 22 133 22q241 0 241 -155q0 -109 -140 -125v-4
q66 -10 107 -43q48 -38 48 -100q0 -89 -89 -131q-66 -31 -167 -31q-86 0 -144 24q-82 33 -82 107q0 36 24 57.5t61 21.5q79 0 79 -67q0 -26 -18 -42.5t-18 -22.5q0 -28 86 -28q39 0 51 18q10 14 10 55z" />
    <glyph glyph-name="afii10074" unicode="&#x438;" horiz-adv-x="667" 
d="M606 569q36 0 36 -24q0 -16 -20 -23.5t-23 -16.5t-3 -22v-397q0 -25 23 -36t23 -27q0 -23 -36 -23h-216q-30 0 -30 20q0 13 16 27t16 32v243l-117 -194v-49q0 -17 15.5 -31.5t15.5 -27.5q0 -20 -29 -20h-215q-38 0 -38 23q0 16 23 27.5t23 37.5v399q0 22 -23 31.5
t-23 26.5q0 24 38 24h215q29 0 29 -21q0 -12 -15.5 -26t-15.5 -32v-245h1l116 194v48q0 25 -16 37.5t-16 23.5q0 21 30 21h216z" />
    <glyph glyph-name="afii10075" unicode="&#x439;" horiz-adv-x="667" 
d="M606 569q36 0 36 -24q0 -16 -20 -23.5t-23 -16.5t-3 -22v-397q0 -25 23 -36t23 -27q0 -23 -36 -23h-216q-30 0 -30 20q0 13 16 27t16 32v243l-117 -194v-49q0 -17 15.5 -31.5t15.5 -27.5q0 -20 -29 -20h-215q-38 0 -38 23q0 16 23 27.5t23 37.5v399q0 22 -23 31.5
t-23 26.5q0 24 38 24h215q29 0 29 -21q0 -12 -15.5 -26t-15.5 -32v-245h1l116 194v48q0 25 -16 37.5t-16 23.5q0 21 30 21h216zM353 592h-40q-107 0 -107 68q0 55 70 83l10 -13q-27 -14 -27 -39q0 -32 54 -32h40q54 0 54 32q0 25 -26 39l9 13q71 -28 71 -83q0 -68 -108 -68z
" />
    <glyph glyph-name="afii10076" unicode="&#x43a;" horiz-adv-x="643" 
d="M70 88v393q0 27 -23 38t-23 27q0 23 38 23h223q36 0 36 -23q0 -16 -23 -27.5t-23 -37.5v-166h26q84 0 84 75v58q0 126 116 126q111 0 111 -93q0 -28 -21.5 -48t-49.5 -20q-26 0 -45 14q-22 15 -22 40q0 18 8.5 24.5t8.5 14.5q0 19 -17 19q-29 0 -34 -47q-1 -48 -3 -96
q-5 -58 -34 -75q61 -9 103 -39q50 -37 50 -93v-66q0 -21 13 -21q11 0 18 11t21 11q25 0 25 -22q0 -13 -9 -30q-35 -64 -132 -64q-133 0 -133 140q0 66 0 58q-1 39 -12.5 55.5t-32.5 19.5q-5 1 -39 1v-187q0 -21 23 -31t23 -26q0 -24 -36 -24h-223q-38 0 -38 24q0 16 23 26
t23 38z" />
    <glyph glyph-name="afii10077" unicode="&#x43b;" horiz-adv-x="646" 
d="M582 0h-223q-37 0 -37 24q0 14 23.5 26.5t23.5 37.5v431h-86q-49 0 -60.5 -14.5t-11.5 -65.5v-318q0 -127 -110 -127q-111 0 -111 94q0 28 21.5 48t49.5 20q26 0 46.5 -14.5t20.5 -39.5q0 -18 -7.5 -24t-7.5 -14q0 -20 13 -20q26 0 34 31q3 13 3 52v298q0 80 -29 91
q-18 2 -36 5q-22 3 -22 22q0 26 37 26h469q36 0 36 -23q0 -17 -22.5 -27.5t-22.5 -32.5v-405q0 -22 24 -31.5t24 -25.5q0 -24 -39 -24z" />
    <glyph glyph-name="afii10078" unicode="&#x43c;" horiz-adv-x="684" 
d="M410 412l-131 -412h-25l-123 344h-1v-205q0 -42 19 -64q8 -11 34 -25q19 -11 19 -24q0 -26 -38 -26h-118q-36 0 -36 26q0 15 11 20q34 15 47 35.5t13 57.5v321q0 29 -18 45q-5 4 -35 20q-18 9 -18 23q0 21 33 21h215l81 -225l72 225h214q37 0 37 -23q0 -17 -23 -27
t-23 -33v-405q0 -21 23 -31t23 -26q0 -24 -37 -24h-223q-38 0 -38 24q0 14 23.5 26.5t23.5 37.5v324h-1z" />
    <glyph glyph-name="afii10079" unicode="&#x43d;" horiz-adv-x="643" 
d="M275 320h94v170q0 18 -15.5 32t-15.5 27q0 20 28 20h216q37 0 37 -23q0 -16 -23 -27.5t-23 -37.5v-400q0 -21 23 -31t23 -26q0 -24 -37 -24h-216q-28 0 -28 21q0 12 15.5 26.5t15.5 31.5v191h-94v-191q0 -21 16 -34t16 -24q0 -21 -30 -21h-215q-38 0 -38 24q0 16 23 27
t23 37v393q0 27 -23 38t-23 27q0 23 38 23h215q30 0 30 -20q0 -14 -16 -28t-16 -31v-170z" />
    <glyph glyph-name="afii10080" unicode="&#x43e;" horiz-adv-x="609" 
d="M32 284q0 131 70 211q74 84 203 84q128 0 202 -84q71 -81 71 -211t-71 -210q-74 -84 -202 -84q-129 0 -202 84q-71 80 -71 210zM249 456v-343q0 -41 8 -55q11 -20 48 -20q36 0 47 21q7 13 7 54v343q0 41 -7 54q-11 21 -47 21q-37 0 -48 -20q-8 -14 -8 -55z" />
    <glyph glyph-name="afii10081" unicode="&#x43f;" horiz-adv-x="643" 
d="M369 519h-94v-438q0 -24 16 -36.5t16 -23.5q0 -21 -30 -21h-215q-38 0 -38 24q0 15 23 26.5t23 37.5v393q0 27 -23 37.5t-23 27.5q0 23 38 23h520q37 0 37 -23q0 -16 -23 -27.5t-23 -37.5v-400q0 -21 23 -31t23 -26q0 -24 -37 -24h-216q-28 0 -28 21q0 12 15.5 26.5
t15.5 31.5v440z" />
    <glyph glyph-name="afii10082" unicode="&#x440;" horiz-adv-x="582" 
d="M70 88v393q0 27 -23.5 38t-23.5 27q0 23 38 23h257q234 0 234 -176q0 -175 -234 -175h-44v-130q0 -23 27.5 -37.5t27.5 -27.5q0 -23 -43 -23h-225q-38 0 -38 24q0 14 23.5 26.5t23.5 37.5zM274 521v-254h27q54 0 54 70v112q0 72 -54 72h-27z" />
    <glyph glyph-name="afii10083" unicode="&#x441;" horiz-adv-x="564" 
d="M507 547v-154q0 -45 -27 -45q-11 0 -19 7q-11 10 -20 45q-31 123 -129 123q-67 0 -67 -71v-335q0 -38 15 -54.5t52 -16.5q57 0 94 32q20 16 47 58q20 32 35 32q26 0 26 -30q0 -28 -18 -55q-28 -42 -80 -67.5t-104 -25.5q-141 0 -212 82q-68 77 -68 220q0 135 73.5 211
t207.5 76q40 0 78 -15t46 -15t19 13t26 13q25 0 25 -28z" />
    <glyph glyph-name="afii10084" unicode="&#x442;" horiz-adv-x="571" 
d="M31 569h510v-170q0 -30 -31 -30q-25 0 -29 17q-16 77 -21 87q-19 46 -68 46v-441q0 -18 27 -29t27 -26q0 -23 -40 -23h-234q-39 0 -39 23q0 16 27 27t27 34v435q-51 0 -73 -44q-11 -20 -25 -89q-4 -17 -28 -17q-30 0 -30 43v157z" />
    <glyph glyph-name="afii10085" unicode="&#x443;" horiz-adv-x="595" 
d="M392 340l47 94q15 30 15 46q0 21 -27.5 35.5t-27.5 28.5q0 25 42 25h113q32 0 32 -24q0 -19 -4.5 -22.5t-15.5 -8.5q-30 -13 -56 -62l-181 -349q-39 -76 -76 -97q-28 -16 -71 -16q-46 0 -75 23q-32 25 -32 70q0 28 22 47t51 19q64 0 64 -52q0 -14 -5 -23t-5 -15
q0 -12 15 -12q19 0 43 38q15 27 29 54l-226 363q-5 8 -30 19q-20 9 -20 23q0 25 49 25h220q48 0 48 -28q0 -12 -14.5 -20t-14.5 -15q0 -14 8 -27z" />
    <glyph glyph-name="afii10086" unicode="&#x444;" horiz-adv-x="815" 
d="M536 418h-27v-255h27q54 0 54 72v111q0 72 -54 72zM296 569h224q36 0 36 -23q0 -14 -14 -23q-22 -13 -25 -16q-8 -9 -8 -41h45q234 0 234 -176q0 -175 -234 -175h-45v-27q0 -25 23.5 -37t23.5 -27q0 -24 -36 -24h-224q-37 0 -37 24q0 17 20.5 24.5t23.5 16.5q2 6 2 50
h-44q-234 0 -234 175q0 176 234 176h44v15q0 27 -23 37.5t-23 27.5q0 23 37 23zM305 163v255h-26q-55 0 -55 -72v-111q0 -72 55 -72h26z" />
    <glyph glyph-name="afii10087" unicode="&#x445;" horiz-adv-x="580" 
d="M299 0q-44 0 -44 26q0 13 15 21t15 16q0 11 -6 22l-58 108l-46 -77q-13 -22 -13 -36q0 -11 24.5 -25.5t24.5 -29.5q0 -25 -51 -25h-98q-39 0 -39 24q0 20 21 27q30 10 42 23t36 52l72 118l-132 250q-11 21 -27.5 29.5t-16.5 21.5q0 24 36 24h216q41 0 41 -22
q0 -12 -13 -17.5t-13 -13.5t57 -116l40 62q10 16 10 33q0 13 -23.5 25.5t-23.5 26.5q0 22 36 22h131q22 0 22 -21q0 -10 -8 -16q-18 -11 -52 -35q-19 -15 -33 -36l-72 -113l142 -266q8 -14 21 -24q22 -17 25 -20t3 -13q0 -25 -44 -25h-217z" />
    <glyph glyph-name="afii10088" unicode="&#x446;" horiz-adv-x="653" 
d="M275 50h95v437q0 25 -16 37.5t-16 23.5q0 21 30 21h215q37 0 37 -24q0 -16 -23 -24t-23 -37v-399q0 -29 23 -34q2 -1 49 -1v-151q0 -25 -29 -25q-19 0 -31 24q-4 7 -14 40q-8 26 -38 44t-66 18h-406q-37 0 -37 23q0 16 23 27.5t23 37.5v399q0 22 -23 31.5t-23 26.5
q0 24 37 24h216q29 0 29 -21q0 -12 -16 -26t-16 -32v-440z" />
    <glyph glyph-name="afii10089" unicode="&#x447;" horiz-adv-x="608" 
d="M546 0h-225q-44 0 -44 23q0 14 28 28t28 37v134q-22 -4 -58 -4q-222 0 -222 146v117q0 27 -23 37.5t-23 27.5q0 23 38 23h162q29 0 38 -20q7 -13 7 -45v-167q0 -71 54 -71h27v224q0 19 -16 32t-16 27q0 20 32 20h213q36 0 36 -23q0 -16 -22.5 -27t-22.5 -38v-393
q0 -25 22.5 -37t22.5 -27q0 -24 -36 -24z" />
    <glyph glyph-name="afii10090" unicode="&#x448;" horiz-adv-x="940" 
d="M573 50h94v433q0 22 -16.5 38t-16.5 27q0 21 33 21h213q37 0 37 -24q0 -16 -20 -23.5t-23 -16.5t-3 -22v-397q0 -24 23 -35.5t23 -27.5q0 -23 -37 -23h-819q-38 0 -38 23q0 15 23.5 27.5t23.5 37.5v399q0 21 -23.5 31.5t-23.5 26.5q0 24 38 24h213q31 0 31 -21
q0 -10 -15.5 -27t-15.5 -38v-433h95v433q0 22 -16.5 38t-16.5 27q0 21 31 21h208q28 0 28 -21q0 -11 -15 -26.5t-15 -38.5v-433z" />
    <glyph glyph-name="afii10091" unicode="&#x449;" horiz-adv-x="949" 
d="M574 50h94v431q0 25 -16 40.5t-16 26.5q0 21 32 21h214q37 0 37 -24q0 -16 -19 -23q-22 -8 -25 -16.5t-3 -22.5v-398q0 -29 23 -34q3 -1 49 -1v-151q0 -25 -28 -25q-19 0 -31 24q-5 8 -14.5 39t-42.5 48q-28 15 -62 15h-704q-37 0 -37 23q0 16 23 27.5t23 37.5v399
q0 22 -23 31.5t-23 26.5q0 24 37 24h213q32 0 32 -21q0 -11 -16 -26.5t-16 -40.5v-431h95v431q0 25 -16 40.5t-16 26.5q0 21 32 21h204q32 0 32 -21q0 -11 -16 -26.5t-16 -40.5v-431z" />
    <glyph glyph-name="afii10092" unicode="&#x44a;" horiz-adv-x="689" 
d="M380 301v-251h27q54 0 54 70v111q0 70 -54 70h-27zM380 481v-132h44q235 0 235 -174q0 -175 -235 -175h-257q-37 0 -37 23q0 16 23 27t23 38v433q-47 0 -66 -38q-11 -39 -23 -78q-7 -22 -29 -22q-30 0 -30 43v143h364q44 0 44 -23q0 -12 -28 -27.5t-28 -37.5z" />
    <glyph glyph-name="afii10093" unicode="&#x44b;" horiz-adv-x="872" 
d="M275 302v-254h26q55 0 55 72v111q0 71 -55 71h-26zM275 481v-132h44q234 0 234 -174q0 -175 -234 -175h-257q-38 0 -38 23q0 16 23 27t23 38v393q0 26 -23 37t-23 27q0 24 38 24h225q43 0 43 -23q0 -13 -27.5 -27.5t-27.5 -37.5zM811 569q36 0 36 -23q0 -15 -23.5 -27.5
t-23.5 -37.5v-395q0 -24 23.5 -35t23.5 -27q0 -24 -36 -24h-225q-36 0 -36 24q0 17 23 25t23 37v397q0 24 -23 35.5t-23 27.5q0 23 36 23h225z" />
    <glyph glyph-name="afii10094" unicode="&#x44c;" horiz-adv-x="582" 
d="M275 302v-252h26q55 0 55 70v111q0 71 -55 71h-26zM319 0h-257q-38 0 -38 23q0 16 23 27t23 38v393q0 26 -23 37t-23 27q0 24 38 24h225q43 0 43 -23q0 -13 -27.5 -27.5t-27.5 -37.5v-132h44q234 0 234 -174q0 -175 -234 -175z" />
    <glyph glyph-name="afii10095" unicode="&#x44d;" horiz-adv-x="556" 
d="M312 117v153h-26q-29 0 -48.5 -45t-35.5 -45q-24 0 -24 40v143q0 44 24 44q14 0 34.5 -44.5t49.5 -44.5h26v134q0 43 -17.5 59t-61.5 16q-54 0 -78 -28q-27 -31 -50 -123q-7 -28 -28 -28q-28 0 -28 45v154q0 28 26 28q15 0 25.5 -13t19.5 -13q7 0 52 15t86 15
q129 0 200 -85q67 -79 67 -210q0 -136 -73 -215t-208 -79q-79 0 -135 34q-67 40 -67 114q0 30 28 30q22 0 38 -33q23 -47 35 -60q31 -33 90 -33q42 0 60.5 16.5t18.5 58.5z" />
    <glyph glyph-name="afii10096" unicode="&#x44e;" horiz-adv-x="919" 
d="M274 321h73q10 117 81.5 187.5t188.5 70.5q129 0 202 -84q70 -80 70 -211q0 -130 -70 -210q-73 -84 -202 -84q-124 0 -197 80q-71 76 -75 201h-71v-185q0 -24 23.5 -35t23.5 -27q0 -24 -37 -24h-223q-38 0 -38 24q0 17 19 24q23 8 26 17q2 5 2 23v393q0 27 -23.5 38
t-23.5 27q0 23 38 23h223q37 0 37 -23q0 -15 -23.5 -27.5t-23.5 -37.5v-160zM562 456v-343q0 -38 8 -54q12 -21 47 -21q36 0 47 21q7 13 7 54v343q0 41 -7 54q-11 21 -47 21t-47 -21q-8 -14 -8 -54z" />
    <glyph glyph-name="afii10097" unicode="&#x44f;" horiz-adv-x="627" 
d="M270 375q0 -70 55 -70h27v216h-27q-55 0 -55 -72v-74zM305 24q0 15 23.5 26t23.5 31v174h-27q-42 0 -52 -44q-3 -13 -3 -77q0 -140 -136 -140q-38 0 -71 16q-37 17 -54 48q-9 17 -9 27t9 18t19 8q13 0 20.5 -11.5t13.5 -11.5q8 0 8 15v72q0 91 145 109v2
q-145 26 -145 138q0 145 222 145h273q36 0 36 -23q0 -16 -22.5 -27t-22.5 -38v-393q0 -28 22.5 -38t22.5 -26q0 -24 -36 -24h-224q-36 0 -36 24z" />
    <glyph glyph-name="afii10071" unicode="&#x451;" horiz-adv-x="531" 
d="M136 652q0 22 18 37.5t40 15.5t40.5 -15.5t18.5 -37.5q0 -24 -17.5 -39.5t-41.5 -15.5t-41 15.5t-17 39.5zM296 652q0 22 17.5 37.5t40.5 15.5t40.5 -15.5t17.5 -37.5q0 -24 -17 -39.5t-41 -15.5t-41 15.5t-17 39.5zM273 517v-199h29q27 0 49 44t35 44q24 0 24 -43v-143
q0 -41 -24 -41q-14 0 -35 45.5t-49 45.5h-29v-218h29q57 0 88 28q26 24 47 82q7 20 27 20q30 0 30 -57v-125h-434q-37 0 -37 24q0 17 20.5 24.5t23.5 16.5q2 6 2 23v393q0 27 -23 37.5t-23 27.5q0 23 37 23h428v-152q0 -24 -25 -24q-18 0 -27 20q-15 33 -23 46
q-14 23 -35 39q-24 19 -105 19z" />
    <glyph glyph-name="endash" unicode="&#x2013;" horiz-adv-x="538" 
d="M47 279q-19 0 -33 13t-14 32v72q0 19 14 32t33 13h443q20 0 34 -12.5t14 -32.5v-72q0 -20 -14 -32.5t-34 -12.5h-443z" />
    <glyph glyph-name="emdash" unicode="&#x2014;" horiz-adv-x="1075" 
d="M47 279q-19 0 -33 13t-14 32v72q0 19 14 32t33 13h981q20 0 33.5 -12.5t13.5 -32.5v-72q0 -20 -13.5 -32.5t-33.5 -12.5h-981z" />
    <glyph glyph-name="quoteleft" unicode="&#x2018;" horiz-adv-x="339" 
d="M300 525q0 -48 -31 -78t-79 -30q-51 0 -82 43q-27 38 -27 91q0 57 29.5 102.5t82.5 67.5q36 15 57 15q34 0 34 -34q0 -17 -45 -34.5t-45 -28.5q0 -13 15 -14q40 -1 65.5 -30.5t25.5 -69.5z" />
    <glyph glyph-name="quoteright" unicode="&#x2019;" horiz-adv-x="339" 
d="M62 625q0 48 31.5 78t79.5 30q50 0 81 -43q27 -38 27 -90q0 -122 -112 -170q-37 -16 -57 -16q-14 0 -24 10.5t-10 24.5q0 13 45.5 32.5t45.5 30.5q0 14 -14 14q-39 1 -66 30t-27 69z" />
    <glyph glyph-name="quotesinglbase" unicode="&#x201a;" horiz-adv-x="339" 
d="M62 80q0 48 31.5 78t79.5 30q51 0 81 -42q27 -38 27 -91q0 -122 -112 -170q-37 -16 -57 -16q-14 0 -24 10t-10 24q0 17 45.5 34.5t45.5 29.5q0 15 -14 15q-39 1 -66 30t-27 68z" />
    <glyph glyph-name="quotedblleft" unicode="&#x201c;" horiz-adv-x="582" 
d="M277 525q0 -48 -31.5 -78t-79.5 -30q-51 0 -81 43q-27 38 -27 91q0 124 112 170q36 15 57 15q33 0 33 -34q0 -17 -45 -34.5t-45 -28.5q0 -14 15 -14q40 -1 66 -30.5t26 -69.5zM519 525q0 -48 -31 -78t-79 -30q-51 0 -81 43q-27 38 -27 91q0 124 112 170q36 15 57 15
q32 0 32 -34q0 -17 -44.5 -34.5t-44.5 -28.5q0 -14 15 -14q39 -1 65 -30.5t26 -69.5z" />
    <glyph glyph-name="quotedblright" unicode="&#x201d;" horiz-adv-x="582" 
d="M62 625q0 48 31.5 78t79.5 30q50 0 81 -43q27 -38 27 -90q0 -122 -112 -170q-37 -16 -57 -16q-14 0 -24 10.5t-10 24.5t45.5 33.5t45.5 29.5q0 14 -14 14q-39 1 -66 30t-27 69zM305 625q0 48 31 78t79 30q50 0 81 -43q28 -38 28 -90q0 -121 -113 -170q-37 -16 -56 -16
q-14 0 -24 10.5t-10 24.5t45 33.5t45 29.5q0 14 -14 14q-39 1 -65.5 30t-26.5 69z" />
    <glyph glyph-name="quotedblbase" unicode="&#x201e;" horiz-adv-x="582" 
d="M62 80q0 48 31.5 78t79.5 30q51 0 81 -42q27 -38 27 -91q0 -122 -112 -170q-37 -16 -57 -16q-14 0 -24 10t-10 24q0 17 45.5 34.5t45.5 29.5q0 15 -14 15q-39 1 -66 30t-27 68zM305 80q0 48 31 78t79 30q51 0 81 -42q28 -38 28 -91q0 -121 -113 -170q-37 -16 -56 -16
q-14 0 -24 10t-10 24q0 17 45 35t45 29q0 15 -14 15q-39 1 -65.5 29.5t-26.5 68.5z" />
    <glyph glyph-name="dagger" unicode="&#x2020;" 
d="M328 472q-37 0 -90 -25t-79 -25q-28 0 -46.5 17t-18.5 44q0 30 20.5 47.5t51.5 17.5q26 0 77 -23.5t85 -23.5q33 0 84 23.5t77 23.5q30 0 52 -17.5t22 -47.5q0 -28 -19.5 -44.5t-47.5 -16.5q-21 0 -75.5 25t-92.5 25zM342 531h-29q-14 48 -35 84t-21 60q0 28 22 44
q19 14 48 14q70 0 70 -58q0 -24 -20 -60.5t-35 -83.5zM346 442q25 -95 59 -150q-64 -188 -64 -426h-27q0 227 -65 426q38 61 64 150h33z" />
    <glyph glyph-name="bullet" unicode="&#x2022;" horiz-adv-x="600" 
d="M153 379q0 61 43 104t104 43t103.5 -43t42.5 -104t-43 -104t-104 -43t-103.5 43t-42.5 104z" />
    <glyph glyph-name="ellipsis" unicode="&#x2026;" horiz-adv-x="1024" 
d="M70 90q0 44 29.5 73.5t73.5 29.5q43 0 73 -30t30 -73t-30 -73t-73 -30q-44 0 -73.5 29.5t-29.5 73.5zM409 90q0 44 29 73.5t73 29.5q43 0 73 -30t30 -73t-30 -73t-73 -30q-44 0 -73 29.5t-29 73.5zM748 90q0 44 29.5 73.5t73.5 29.5q43 0 73 -30t30 -73t-30 -73t-73 -30
q-44 0 -73.5 29.5t-29.5 73.5z" />
    <glyph glyph-name="perthousand" unicode="&#x2030;" horiz-adv-x="1231" 
d="M228 -12h-82l444 737h83zM600 -12q-75 0 -116.5 42.5t-41.5 117.5t41.5 117.5t116.5 42.5h27q76 0 117.5 -42t41.5 -118t-41.5 -118t-117.5 -42h-27zM600 40h27q23 0 23 45v126q0 45 -23 45h-27q-22 0 -22 -45v-126q0 -45 22 -45zM192 405q-76 0 -117.5 42t-41.5 118
t41.5 118t117.5 42h27q75 0 116.5 -42.5t41.5 -117.5t-41.5 -117.5t-116.5 -42.5h-27zM192 457h27q22 0 22 45v126q0 45 -22 45h-27q-23 0 -23 -45v-126q0 -45 23 -45zM1012 -12q-75 0 -116.5 42.5t-41.5 117.5t41.5 117.5t116.5 42.5h27q76 0 117.5 -42t41.5 -118
t-41.5 -118t-117.5 -42h-27zM1012 40h27q23 0 23 45v126q0 45 -23 45h-27q-22 0 -22 -45v-126q0 -45 22 -45z" />
    <glyph glyph-name="guilsinglleft" unicode="&#x2039;" horiz-adv-x="281" 
d="M40 360q0 20 22 41t42 52q37 62 89 138q8 7 17 7q17 0 17 -21q0 -2 -31 -80q-32 -81 -32 -137t31.5 -135.5t31.5 -81.5q0 -21 -17 -21q-8 0 -17.5 8.5t-43.5 63.5q-23 37 -45 73q-21 32 -42.5 53.5t-21.5 39.5z" />
    <glyph glyph-name="guilsinglright" unicode="&#x203a;" horiz-adv-x="281" 
d="M243 360q0 -19 -22 -40q-29 -28 -61 -79q-25 -43 -51 -86q-20 -33 -37 -33q-16 0 -16 21q0 8 14 39q9 20 18 41q31 78 31 137t-31 137q-9 21 -18 41q-14 31 -14 39q0 21 16 21q18 0 37 -32q26 -43 51 -86q33 -52 61 -79q22 -21 22 -41z" />
    <glyph glyph-name="afii61352" unicode="&#x2116;" horiz-adv-x="1105" 
d="M626 0h-157l-310 517h-3v-342q0 -55 23 -84q12 -16 43 -32q23 -13 23 -26q0 -33 -46 -33h-145q-46 0 -46 33q0 16 14 23q43 20 59 45.5t16 73.5v438q-13 20 -15 23q-9 13 -20 18q-20 6 -49 21q-6 6 -6 18q0 27 42 27h286l230 -379v193q0 50 -15 78q-16 32 -58 54
q-14 7 -14 21q0 33 43 33h148q44 0 44 -33q0 -12 -13 -18q-16 -7 -30 -18q-44 -34 -44 -121v-530zM677 356q0 94 52.5 147t146.5 53q96 0 147.5 -52t51.5 -148q0 -95 -52 -149t-147 -54t-147 54t-52 149zM836 473v-235q0 -29 6 -38q8 -13 34 -13t34 13q7 10 7 38v235
q0 31 -6 40.5t-35 9.5q-28 0 -34 -9.5t-6 -40.5zM705 60q0 36 37 36h268q16 0 27 -10t11 -26v-24q0 -16 -11 -26t-27 -10h-268q-37 0 -37 36v24z" />
    <glyph glyph-name="trademark" unicode="&#x2122;" horiz-adv-x="975" 
d="M127 811h267l7 -114h-23q-8 84 -69 86v-230q0 -18 8 -24q3 -2 24 -7v-20h-161v20q20 4 24 7q8 6 8 24v230q-62 0 -70 -86h-22zM423 811h137l69 -188l64 188h129v-15q-11 -5 -22 -9q-7 -5 -7 -21v-213q0 -16 5 -20.5t24 -10.5v-20h-155v20q21 5 25 8q8 5 8 23v187
l-77 -238h-32l-93 246v-195q0 -19 10 -25q4 -2 29 -6v-20h-114v20q24 5 28 7q11 6 11 24v207q0 18 -11 24q-4 2 -28 7v20z" />
    <glyph glyph-name="periodcentered" unicode="&#xb7;" horiz-adv-x="313" 
d="M54 356q0 44 29.5 73.5t73.5 29.5q43 0 72.5 -30t29.5 -73t-29.5 -73t-72.5 -30q-44 0 -73.5 29.5t-29.5 73.5z" />
    <glyph glyph-name="periodcentered" unicode="&#x2219;" horiz-adv-x="313" 
d="M54 356q0 44 29.5 73.5t73.5 29.5q43 0 72.5 -30t29.5 -73t-29.5 -73t-72.5 -30q-44 0 -73.5 29.5t-29.5 73.5z" />
    <glyph glyph-name="u0000" horiz-adv-x="1000" 
 />
    <glyph glyph-name="u0001" horiz-adv-x="1000" 
 />
    </font>
</defs>
</svg>
