<?xml version="1.0" standalone="no"?>
<!DOCTYPE svg PUBLIC "-//W3C//DTD SVG 1.1//EN" "http://www.w3.org/Graphics/SVG/1.1/DTD/svg11.dtd" >
<svg xmlns="http://www.w3.org/2000/svg" xmlns:xlink="http://www.w3.org/1999/xlink" version="1.1">
<metadata>
Created by FontForge 20170924 at Fri Jan  1 00:00:00 1904
 By www-data
 !22! Soft 1992
</metadata>
<defs>
<font id="CaslonItalic" horiz-adv-x="775" >
  <font-face 
    font-family="Caslon"
    font-weight="400"
    font-style="italic"
    font-stretch="normal"
    units-per-em="1000"
    panose-1="2 11 6 4 2 2 2 2 2 4"
    ascent="800"
    descent="-200"
    x-height="490"
    cap-height="721"
    bbox="-179 -263 1594 982"
    underline-thickness="56"
    underline-position="-258"
    unicode-range="U+0020-2219"
  />
<missing-glyph horiz-adv-x="500" 
d="M40 667h420v-667h-420v667zM60 647v-627h380v627h-380z" />
    <glyph glyph-name=".notdef" horiz-adv-x="500" 
d="M40 667h420v-667h-420v667zM60 647v-627h380v627h-380z" />
    <glyph glyph-name="glyph1" horiz-adv-x="0" 
 />
    <glyph glyph-name="DC3" horiz-adv-x="494" 
d="M3 289l423 518l65 -518l-423 -522zM435 289l-50 399l-326 -399l50 -403z" />
    <glyph glyph-name="DC4" horiz-adv-x="790" 
d="M413 593q-3 0 -5 1q0 4 -1 7v11q0 61 47 112q45 51 115 64v-12q0 -9 1 -18q0 -64 -51 -115q-50 -50 -99 -50h-4h-3zM650 264q31 -44 85 -67q-56 -121 -100 -168q-46 -46 -100 -46q-25 0 -64 16t-60 16q-23 0 -64 -16t-62 -16q-30 0 -63 21q-32 24 -63 65q-47 65 -77 144
q-25 72 -27 147q0 107 61 174t158 67q35 0 76 -17q45 -16 60 -16q18 0 59 17q45 17 75 17q55 0 97 -19q43 -20 78 -61q-49 -31 -74 -71q-22 -36 -24 -89q0 -54 29 -98z" />
    <glyph glyph-name="space" unicode=" " horiz-adv-x="362" 
 />
    <glyph glyph-name="exclam" unicode="!" horiz-adv-x="638" 
d="M257 198q-21 0 -21 8q0 -3 11 39q5 23 13 49q20 78 37 176q23 152 31.5 190.5t31.5 60t76 21.5q66 0 66 -55q0 -22 -39 -91q-86 -152 -163 -340q-11 -24 -14 -37q-7 -23 -23 -21h-6zM136 47q0 26 23.5 47t58.5 21q36 0 59.5 -20.5t23.5 -47.5t-24.5 -47.5t-58.5 -20.5
q-33 0 -57.5 21t-24.5 47z" />
    <glyph glyph-name="quotedbl" unicode="&#x22;" horiz-adv-x="624" 
d="M89 588l121 136h116q8 0 8 -7q0 -6 -36 -32q-139 -98 -203 -105h-4q-4 0 -4 4q0 2 2 4zM308 594l121 136h116q8 0 8 -7q0 -6 -36 -32q-139 -98 -203 -105h-4q-4 0 -4 4q0 2 2 4z" />
    <glyph glyph-name="numbersign" unicode="#" horiz-adv-x="769" 
d="M320 521l89 260h66l-93 -260h156l90 260h61l-89 -260h169l-18 -52h-169l-55 -158h183l-20 -53h-182l-88 -258l-65 -4l92 262h-156l-89 -258h-61l88 258h-177l19 53h176l56 158h-192l18 52h191zM522 469h-159l-55 -159h158z" />
    <glyph glyph-name="dollar" unicode="$" horiz-adv-x="537" 
d="M404 755l45 103q2 4 4 5l4 2q16 0 18 -2q3 -6 3 -7l-1 -1l-42 -94q4 0 6 1q11 1 22 1q6 0 13 -1q12 0 16 -1l43 97q2 4 3 5q4 2 5 2q14 0 17 -1q2 -1 2 -6l-1 -3l-45 -103l3 -1q61 -36 52 -72q-5 -15 -14 -33q-4 -12 -7 -20t-4 -9q-4 -13 -10 -24q-5 -5 -11 -6
q-7 0 -2 52q5 53 -22 77l-128 -287q45 -35 60 -89q15 -50 -6 -112q-28 -79 -96 -142q-69 -63 -145 -79l-56 -129q-1 -4 -5 -5q-2 -2 -3 -2q-15 0 -18 1q-1 0 -2 6l1 2l54 124q-8 0 -12 -1h-11q-11 0 -28 4q-3 0 -3 1l-59 -130q0 -1 -4 -5l-4 -2q-16 0 -19 1q-2 0 0 5l1 3
l61 138q-44 26 -56 42q-12 17 -2 47l5 15l12 34l5 15q13 39 19 47q6 11 13 11t-5 -70q-11 -71 23 -109l148 336q-40 32 -54 72q-11 43 8 97q24 69 81 123q56 54 128 77zM307 344l-44 27l-148 -334q4 -1 11 -3.5t9 -3.5q6 -1 19 -1h9q3 0 5 1zM285 486l107 240
q-40 -8 -77 -45q-38 -37 -55 -85q-13 -38 -7 -67q5 -26 32 -43zM352 443l129 291q-10 2 -18 3q-5 2 -11 2h-10q-3 0 -4.5 -0.5t-5.5 -1t-9 -1.5l-117 -265zM368 269q-8 29 -40 59l-128 -291q48 9 93 54q48 46 65 99q16 44 10 79z" />
    <glyph glyph-name="percent" unicode="%" horiz-adv-x="923" 
d="M880 717l-802 -882q-8 -9 -21.5 -7.5l-13.5 1.5q-8 0 -9 10.5t7 18.5l717 787q-45 -39 -128 -39q-41 0 -91.5 21t-85.5 54l-3 -2q35 -36 35 -100q0 -42 -33.5 -87t-89.5 -75.5t-122 -30.5q-63 0 -106.5 35t-43.5 100q0 57 37 104.5t96.5 75.5t123.5 28q62 0 140 -44
q89 -48 143 -48q79 0 154 44q41 24 61 45q14 16 19 16q8 0 15.5 -9t0.5 -16zM164 475q0 -23 22 -43.5t67 -20.5q49 0 90 41t64 96.5t23 97.5q0 27 -22 41t-57 14q-54 0 -96.5 -41.5t-66.5 -97t-24 -87.5zM472 4q0 79 84 140.5t180 61.5q45 0 76 -17t48.5 -46.5t17.5 -65.5
q0 -38 -30 -90.5t-87.5 -90.5t-134.5 -38q-66 0 -110 40t-44 106zM553 -46q0 -29 22 -48.5t62 -19.5q65 0 120 62.5t63 140.5q2 14 0 28q-3 26 -24 42t-53 16q-76 0 -133 -75t-57 -146z" />
    <glyph glyph-name="ampersand" unicode="&#x26;" horiz-adv-x="1020" 
d="M741 457h240q12 0 12 -16q0 -13 -26 -15q-47 -2 -87.5 -22.5t-103.5 -97.5q-102 -124 -234 -217q26 -57 88 -57q57 0 153 109q4 5 10 12t14.5 16t11.5 9q7 0 14 -2.5t7 -6.5q0 -16 -44.5 -64t-106 -87t-114.5 -39q-74 0 -119 57q-48 -35 -110.5 -48.5t-102.5 -13.5
q-107 0 -161.5 58t-54.5 129q0 75 85.5 153.5t259.5 122.5q7 75 49 146.5t108.5 115t144.5 43.5q55 0 80.5 -28t25.5 -64q0 -34 -30 -73t-100 -78t-183 -67q-11 -86 3.5 -164.5t55.5 -149.5q73 51 110.5 87t87.5 91q56 60 56 93q0 27 -38 37q-16 2 -16 14q0 17 15 17z
M467 457q97 30 165 87t68 114q0 42 -51 42q-73 0 -124 -76.5t-58 -166.5zM372 410q-91 -27 -153.5 -86t-62.5 -126q0 -64 43.5 -112t131.5 -48q59 0 106 25q-84 145 -65 347z" />
    <glyph glyph-name="quotesingle" unicode="'" horiz-adv-x="408" 
d="M89 588l121 136h116q8 0 8 -7q0 -6 -36 -32q-139 -98 -203 -105h-4q-4 0 -4 4q0 2 2 4z" />
    <glyph glyph-name="parenleft" unicode="(" horiz-adv-x="584" 
d="M148 360q35 100 105.5 190.5t153.5 162.5t153 114.5t97 42.5q5 0 8 -3q2 -3 0 -8q-27 -69 -86 -94.5t-93 -51t-109 -154.5q-59 -102 -99.5 -248t-40.5 -257q0 -67 17 -97.5t42 -53.5t25 -41q0 -11 -16 -11q-24 0 -68 57t-79 148.5t-35 194.5q0 36 25 109z" />
    <glyph glyph-name="parenright" unicode=")" horiz-adv-x="584" 
d="M436 360q-33 -97 -106.5 -190.5t-153 -162.5t-151 -112.5t-98.5 -43.5q-5 0 -8 3q-2 3 0 8q19 54 36 66.5t60.5 29t88 60t103.5 144.5q59 102 99.5 248t40.5 258q0 66 -17.5 98t-42 55t-24.5 38q0 11 16 11q17 0 47.5 -32t62 -90t52 -129t20.5 -149q0 -35 -25 -110z" />
    <glyph glyph-name="asterisk" unicode="*" horiz-adv-x="603" 
d="M294 565v13q-4 -2 -21 -13q-26 -14 -42 -36q-27 -37 -62 -37q-13 0 -25 11t-12 23q0 27 44 38q4 1 7 2t9 1.5t12 0.5h5q42 0 77 20q-41 19 -77 20q-77 3 -77 42q0 12 11.5 22.5t25.5 10.5q37 0 62 -35q16 -28 64 -50q-5 45 -19 65q-17 26 -17 43q0 36 43 36
q23 0 32.5 -10.5t9.5 -25.5q0 -16 -14 -39q-9 -12 -13.5 -24.5t-7.5 -44.5q44 21 63 50q24 35 62 35q15 0 26 -10t11 -23q0 -38 -78 -42q-30 -1 -77 -20q41 -20 77 -20h7q16 1 27 -4q22 -6 33 -13t11 -26q0 -13 -12 -23t-25 -10q-36 0 -62 36q-19 25 -63 50q3 -45 20 -69
q15 -15 15 -39q0 -16 -12.5 -26t-29.5 -10q-43 0 -43 36q0 18 17 43q18 26 18 52z" />
    <glyph glyph-name="plus" unicode="+" horiz-adv-x="969" 
d="M88 381h379l108 313h50l-108 -313h378l-14 -41h-378l-108 -313h-50l108 313h-379z" />
    <glyph glyph-name="comma" unicode="," horiz-adv-x="386" 
d="M147 -39q0 24 -22 50q-19 20 -19 50q0 19 23.5 36.5t57.5 17.5q49 0 66.5 -22.5t17.5 -51.5q0 -54 -80 -124q-36 -32 -74 -57q-82 -55 -90 -55q-20 0 -20 15q0 11 2.5 13.5t11 3t13.5 4.5q7 6 43 26t53 40t17 54z" />
    <glyph glyph-name="hyphen" unicode="-" horiz-adv-x="499" 
d="M68 226l16 46h347l-17 -46h-346z" />
    <glyph glyph-name="period" unicode="." horiz-adv-x="301" 
d="M47 47q0 26 23.5 47t59.5 21t59 -20.5t23 -47.5t-23.5 -47.5t-58.5 -20.5q-34 0 -58.5 21t-24.5 47z" />
    <glyph glyph-name="slash" unicode="/" horiz-adv-x="961" 
d="M82 -99h-55l1011 920h56z" />
    <glyph glyph-name="zero" unicode="0" horiz-adv-x="718" 
d="M0 195q0 82 46 179t121.5 180.5t169 135.5t185.5 52q69 0 113.5 -31.5t63.5 -79.5t19 -100q0 -88 -36.5 -164.5t-95.5 -157.5q-78 -108 -170 -169t-214 -61q-95 0 -148.5 63t-53.5 153zM135 132q0 -123 74 -123q143 0 268 250q16 31 46.5 96.5t53 135t22.5 120.5
q0 104 -81 104q-68 0 -131.5 -56.5t-115.5 -139.5q-52 -84 -94 -194t-42 -193z" />
    <glyph glyph-name="one" unicode="1" horiz-adv-x="669" 
d="M114 0l284 651l-169 -68q-11 -4 -20 0.5t-9 10.5q0 8 20 17l280 119q26 12 34 12q17 0 20.5 -8.5t-1.5 -17.5l-310 -716h-129z" />
    <glyph glyph-name="two" unicode="2" horiz-adv-x="721" 
d="M119 93h320q54 0 77 11.5t42 35.5q12 16 28 16q11 0 11 -10q0 -3 -5 -16l-51 -130h-553q-20 0 -31.5 10t-11.5 19t35 30q122 65 221 126.5t190 125.5q84 60 131.5 119.5t47.5 128.5q0 57 -35 89t-91 32q-89 0 -198 -82q-28 -21 -34 -24.5t-12 -3.5q-23 0 -23 16
q0 17 52 55.5t124 69.5t136 31q94 0 145.5 -44.5t51.5 -111.5q0 -90 -110 -184q-16 -13 -25 -21q-71 -57 -120 -88z" />
    <glyph glyph-name="three" unicode="3" horiz-adv-x="720" 
d="M470 423v-4q37 -1 72 -22.5t54 -56t19 -72.5q0 -49 -30 -101t-87 -95t-133 -68t-158 -25q-108 0 -176.5 40.5t-68.5 80.5q0 20 17.5 33t43.5 13t39.5 -14t27.5 -40q42 -83 154 -83q52 0 105 29.5t87 81t34 113.5q0 55 -29 94t-87 39q-12 0 -22 -1.5t-17 -3.5t-10 -2
q-11 0 -11 9q0 12 16.5 21t50 19.5t44.5 15.5q173 73 173 159q0 48 -37 76t-93 28q-49 0 -99.5 -19t-88.5 -49q-23 -19 -32 -19q-8 0 -16.5 5t-8.5 12q0 10 56 45t127 57.5t132 22.5q91 0 133 -36.5t42 -82.5q0 -50 -32.5 -85.5t-73.5 -57t-117 -57.5z" />
    <glyph glyph-name="four" unicode="4" horiz-adv-x="717" 
d="M278 0l100 235h-353q-32 0 -32 26q0 16 47 47l584 409q41 29 68 26.5t17 -26.5l-176 -419h116q25 0 25 -32q0 -31 -57 -31h-109l-101 -235h-129zM554 630l-481 -337h342z" />
    <glyph glyph-name="five" unicode="5" horiz-adv-x="716" 
d="M658 640h-302l-95 -212q48 17 113 17q62 0 111 -24t77.5 -67t28.5 -100q0 -49 -26 -98t-76.5 -90t-116.5 -64t-147 -23q-78 0 -151.5 28t-73.5 70q0 22 17 37t42 15q45 0 73 -53q39 -67 112 -67q42 0 89 23t81.5 74.5t34.5 126.5q0 76 -39 101t-78 25q-49 0 -89 -13
t-43 -13q-19 0 -7 25l162 363h245q49 0 77 25q9 8 18.5 10t9.5 -4v-6z" />
    <glyph glyph-name="six" unicode="6" horiz-adv-x="696" 
d="M181 143q0 -74 30 -105t67 -31q61 0 105.5 41.5t66 102.5t21.5 113q0 51 -27.5 84t-84.5 33q-79 0 -128.5 -73.5t-49.5 -164.5zM271 393l1 -3q64 25 158 25q91 0 135 -49t44 -111q0 -56 -37.5 -121.5t-111.5 -110t-177 -44.5q-91 0 -141 34t-68.5 82.5t-18.5 100.5
q0 62 44 140.5t110 140.5q152 147 374 244q7 3 13.5 6t10.5 5q19 10 29 10q15 0 15 -18q0 -6 -11.5 -12.5t-23.5 -12.5q-61 -29 -121 -72q-72 -53 -119 -101.5t-105 -132.5z" />
    <glyph glyph-name="seven" unicode="7" horiz-adv-x="714" 
d="M722 721l-10 -28l-556 -693h-129l590 628h-286q-60 0 -90 -14.5t-54 -38.5t-41 -30h-12q-15 2 -18 5q-6 6 -1 12l128 159h479z" />
    <glyph glyph-name="eight" unicode="8" horiz-adv-x="749" 
d="M330 386q-12 14 -30 34q-64 64 -64 138q0 53 45.5 95.5t116 65.5t136.5 23q105 0 153 -43.5t48 -100.5q0 -140 -250 -210q70 -61 97 -104t27 -83q0 -57 -48 -108t-130.5 -82.5t-178.5 -31.5q-148 0 -201.5 56.5t-53.5 115.5q0 60 50.5 104t116 70.5t166.5 60.5zM454 415
q81 19 142 75t61 117q0 44 -33 74.5t-95 30.5q-79 0 -134.5 -34t-55.5 -81q0 -46 30 -87.5t85 -94.5zM356 357q-141 -39 -199.5 -97t-58.5 -117q0 -60 49 -96.5t113 -36.5q78 0 144.5 37.5t66.5 106.5q0 57 -25 97t-90 106z" />
    <glyph glyph-name="nine" unicode="9" horiz-adv-x="697" 
d="M516 579q0 75 -30 105t-68 30q-88 0 -140 -85.5t-52 -171.5q0 -51 27.5 -84t84.5 -33q59 0 99.5 41t59.5 96.5t19 101.5zM426 328l-2 3q-64 -25 -156 -25q-93 0 -136.5 50t-43.5 110q0 58 37.5 122.5t112.5 109t175 44.5q129 0 179.5 -66t50.5 -151q0 -76 -61 -169
t-189 -193q-117 -93 -278 -163q-19 -8 -24 -11q-24 -10 -29 -10q-17 0 -17 18q0 5 42 28q61 31 115 69q74 53 122 104.5t102 129.5z" />
    <glyph glyph-name="colon" unicode=":" horiz-adv-x="385" 
d="M160 436q0 26 23.5 47t58.5 21q36 0 59 -20.5t23 -47.5t-23.5 -47.5t-58.5 -20.5q-33 0 -57.5 21t-24.5 47zM61 47q0 26 23.5 47t58.5 21q33 0 58 -18.5t25 -49.5q0 -30 -24.5 -49t-58.5 -19q-33 0 -57.5 21t-24.5 47z" />
    <glyph glyph-name="semicolon" unicode=";" horiz-adv-x="445" 
d="M219 436q0 26 23.5 47t59.5 21t59 -20.5t23 -47.5t-23.5 -47.5t-58.5 -20.5q-34 0 -58.5 21t-24.5 47zM162 -39q0 21 -24 50q-19 23 -19 50q0 19 24.5 36.5t57.5 17.5q48 0 66 -22t18 -52q0 -58 -95 -138q-125 -98 -150 -98q-19 0 -19 15q0 20 16.5 32.5t53 30t54 33.5
t17.5 45z" />
    <glyph glyph-name="less" unicode="&#x3c;" horiz-adv-x="498" 
d="M526 555l-394 -226l236 -224l-37 -30l-271 255l449 255z" />
    <glyph glyph-name="equal" unicode="=" horiz-adv-x="969" 
d="M98 408l14 41h807l-14 -41h-807zM51 272l14 41h807l-14 -41h-807z" />
    <glyph glyph-name="greater" unicode="&#x3e;" horiz-adv-x="498" 
d="M379 317l-238 226l37 30l273 -255l-445 -255l-17 30z" />
    <glyph glyph-name="question" unicode="?" horiz-adv-x="849" 
d="M352 335l-86 -133q-5 -8 -21.5 -6t-14.5 6l81 219q71 -12 146.5 10t125.5 70.5t50 108.5q0 90 -126 90q-48 0 -73 -15.5t-41 -38.5q-30 -48 -70 -48q-28 0 -44 14.5t-16 34.5q0 39 72.5 67t156.5 28q103 0 162 -47t59 -125q0 -47 -30.5 -97t-111 -90t-219.5 -48zM136 47
q0 26 23.5 47t58.5 21q36 0 59.5 -20.5t23.5 -47.5t-24.5 -47.5t-58.5 -20.5q-33 0 -57.5 21t-24.5 47z" />
    <glyph glyph-name="at" unicode="@" horiz-adv-x="1223" 
d="M670 108q-19 33 0 98q-61 -66 -117 -98q-61 -32 -117 -32q-73 0 -100 55q-25 56 7 148q24 67 73 129q49 61 124 118q59 42 108 62q58 21 100 21q51 0 76 -31q23 -31 16 -89l71 110h80l-229 -367q-17 -28 -22 -37q-8 -18 -11 -26q-11 -34 -1 -50q8 -15 38 -17q29 0 72 18
q31 12 87 49q72 52 134 132q61 89 89 169q59 172 -23 276q-81 106 -273 106q-110 0 -212 -36q-101 -33 -199 -103q-107 -77 -184 -179q-76 -103 -120 -228q-36 -105 -30 -184q7 -76 59 -141q51 -60 129 -91q82 -31 184 -31q97 0 207 32q104 31 210 94l12 -21
q-112 -64 -224 -99q-114 -34 -218 -34q-115 0 -198 28q-82 28 -136 84q-66 69 -81 166q-14 95 27 216q42 124 131 231q43 50 101 100.5t116 87.5q103 67 209 100q108 34 219 34q211 0 294 -113q88 -115 24 -301q-32 -93 -97 -179q-65 -85 -150 -142q-50 -35 -91 -50
q-42 -15 -85 -17q-58 0 -79 32zM804 548q-16 39 -63 39q-30 0 -68 -19q-32 -17 -78 -62q-74 -77 -119 -143q-50 -71 -72 -134q-20 -59 -6 -93q14 -33 57 -33q40 0 87 26q47 28 101 82q46 46 97 120q45 71 62 122q20 57 2 95z" />
    <glyph glyph-name="A" unicode="A" horiz-adv-x="811" 
d="M540 265l-314 -1l-111 -130q-47 -56 -47 -78q0 -31 43 -31h4q20 0 20 -9q0 -16 -18 -16h-230q-10 0 -10 18q0 8 20 8h6q28 0 58 20q21 14 43 32t60 62l432 509l-2 28q4 2 9.5 3.5t9.5 2.5q23 5 69 37q13 9 17 13q14 9 18 9q7 0 8 -11l56 -615q4 -46 14 -60.5t27 -23.5
q14 -7 27.5 -6.5t13.5 -7.5q0 -18 -18 -18h-273q-18 0 -18 16q0 10 22 10h7q27 0 49 18t22 44q0 16 -1 28zM541 294l-30 303l-263 -303h293z" />
    <glyph glyph-name="B" unicode="B" horiz-adv-x="802" 
d="M110 143l159 459q18 54 18 57q0 19 -13 25.5t-38 10.5q-3 1 -8.5 1.5t-8 2.5t-2.5 6q0 16 15 16h333q224 0 224 -140q0 -79 -75.5 -126.5t-177.5 -55.5l-2 -17q77 -9 136.5 -42t59.5 -105q0 -42 -21.5 -82.5t-69.5 -75.5t-124 -56t-181 -21h-346q-15 0 -15 16q0 10 23 12
q45 4 64 20q25 21 50 95zM438 690l-111 -289q145 -2 231.5 44.5t86.5 135.5q0 58 -37 83.5t-130 25.5h-40zM319 368l-86 -247q-11 -33 -11 -47q0 -29 28 -36t73 -7q78 0 137.5 26t92.5 72t33 102q0 92 -73 118t-194 19z" />
    <glyph glyph-name="C" unicode="C" horiz-adv-x="923" 
d="M980 698l-77 -217q-3 -7 -18.5 -8t-18.5 8v7q0 3 0.5 5.5t0.5 6.5q0 35 -11 80t-56 86.5t-134 41.5q-120 0 -229 -73t-176.5 -186t-67.5 -220q0 -49 17 -89t48 -69.5t68.5 -43.5t82.5 -14q104 0 210.5 59t143.5 142q8 17 14 22t24 5q14 0 14 -8q0 -9 -1 -12l-72 -210
q-4 -11 -18 -11q-10 0 -15 19l-12 34q-101 -42 -161.5 -58t-136.5 -16q-154 0 -253 73.5t-99 214.5q0 79 37 161t112.5 155t185 116t246.5 43q86 0 145.5 -15t139.5 -56l43 45q3 4 9.5 5.5t12 -2t5.5 -8.5q0 2 -2 -8v-2.5t-1 -2.5z" />
    <glyph glyph-name="D" unicode="D" horiz-adv-x="957" 
d="M103 143l157 451h-1q18 50 18 65q0 16 -11.5 24t-39.5 12q-19 3 -19 10q0 16 14 16h312q110 0 200 -12.5t163.5 -68t73.5 -167.5q0 -77 -29.5 -157t-100.5 -151.5t-198.5 -118t-308.5 -46.5h-352q-15 0 -15 16q0 10 25 12q41 3 63 20q25 22 49 95zM390 597l-162 -470
q-8 -17 -12 -42q-1 -8 0 -17q6 -27 31 -31.5t88 -4.5q126 0 220.5 43t153.5 109.5t87.5 139t28.5 135.5q0 106 -48.5 156.5t-107 62.5t-123.5 12q-69 0 -100 -10.5t-47 -58.5z" />
    <glyph glyph-name="E" unicode="E" horiz-adv-x="804" 
d="M424 690l-105 -298h60q107 0 150 28t63 70q4 7 8 18.5t7.5 15t14.5 3.5q21 0 17 -13l-95 -273q0 -1 -2 -3q0 -2 -1 -3q-2 -8 -17 -8q-14 0 -16 7v5q0 6 3 13q2 9 2 26q0 40 -26.5 62t-121.5 22h-57l-76 -222q-6 -19 -9 -27t-5 -13.5t-4 -17.5q-1 -9 0 -18q4 -23 27.5 -28
t77.5 -5h41q120 0 192.5 41t130.5 104q14 15 27 15t16 -7q2 -3 0 -6q0 -2 -6 -11l-84 -147q-13 -20 -30 -20h-625q-15 0 -15 16q0 7 8 9q4 1 16 3q41 3 64 20q23 20 49 95l159 459l12 30t6 27q0 18 -9 23t-27.5 4t-26 1.5t-7.5 17.5q0 16 15 16h586q14 0 14 -12v-9l-3 -140
v-8q0 -12 -17 -12q-5 0 -10 -0.5t-8.5 4.5t-4.5 14q-24 132 -244 132h-114z" />
    <glyph glyph-name="F" unicode="F" horiz-adv-x="768" 
d="M426 690l-110 -299h44q53 0 101 7t89 35t55 82q4 12 17 12q20 0 17 -13l-95 -273q0 -1 -2 -3q0 -2 -1 -3q-2 -8 -17 -8q-14 0 -16 7v5q0 6 3 13q2 9 2 26q0 23 -6 39t-39 29t-105 13h-55l-80 -232l-12 -35q-7 -16 -7 -30q0 -18 13.5 -25t38.5 -11q18 -4 18 -10
q0 -16 -14 -16h-284q-15 0 -15 16q0 7 8 9q4 1 16 3q41 3 64 20q23 20 49 95l159 459l12 30t6 27q0 18 -9 23t-26 4t-26 2t-9 17q0 16 12 15h3q3 0 5.5 0.5t8.5 0.5h572q14 0 14 -12v-9l-3 -140v-8q0 -12 -17 -12q-5 0 -10 -0.5t-8.5 4.5t-4.5 14q-7 32 -23 59t-69 49
t-152 23z" />
    <glyph glyph-name="G" unicode="G" horiz-adv-x="972" 
d="M972 698l-76 -217q-5 -15 -21 -12t-16 19q0 3 0.5 5.5t0.5 6.5q0 66 -37 135.5t-164 69.5q-119 0 -229 -72.5t-177 -185t-67 -218.5q0 -96 62.5 -155.5t154.5 -61.5q125 -1 185.5 49t91.5 146q18 57 18 70q0 28 -51 36q-19 4 -19 9q0 17 13 16h2q3 0 5 0.5t8 0.5h270
q14 0 14 -17q0 -10 -16 -10q-29 -2 -51 -10q-26 -10 -36.5 -29t-23.5 -58l-42 -130q-4 -15 -22 -26.5t-42.5 -19t-40.5 -12.5q-147 -48 -275 -48q-153 0 -251.5 73.5t-98.5 214.5q0 120 73.5 229.5t206 177.5t301.5 68q85 0 143.5 -15t139.5 -56l45 45q7 7 16.5 4t9.5 -9
q0 -5 -4 -13z" />
    <glyph glyph-name="H" unicode="H" horiz-adv-x="997" 
d="M103 143l156 451q18 54 18 65q0 20 -13.5 26t-37.5 10q-19 3 -19 10q0 16 14 16h284q15 0 15 -15q0 -11 -27 -13q-36 -2 -59 -18.5t-44 -77.5l-66 -191h416l64 188q2 4 4.5 12.5t6.5 20.5q7 23 7 32q0 29 -52 36q-3 0 -7 1t-7.5 2.5t-3.5 6.5q0 16 14 16h285q14 0 14 -15
q0 -11 -27 -13q-36 -2 -59 -18.5t-44 -77.5l-163 -470q-18 -56 -18 -65q0 -18 13 -24.5t38 -11.5q19 -3 19 -10q0 -16 -14 -16h-284q-15 0 -15 16q0 7 8 9q7 2 16 3q41 3 63 20q24 20 50 95l80 231h-415l-85 -247q-19 -52 -19 -65q0 -25 -33 -24t35 0t68 -22q0 -16 -14 -16
h-284q-15 0 -15 16q0 7 8 9q4 1 16 3q41 3 64 20q23 20 49 95z" />
    <glyph glyph-name="I" unicode="I" horiz-adv-x="477" 
d="M116 143l160 459q7 18 13 33.5t6 23.5q0 18 -14 25.5t-38 10.5q-3 1 -8 1.5t-7.5 2.5t-2.5 6q0 16 13 16h284q16 0 16 -15q0 -8 -9 -10q-7 -2 -19 -3q-44 -3 -65 -24t-45 -91l-159 -451q-19 -59 -19 -65q0 -18 13.5 -25t38.5 -11q19 -4 19 -10q0 -16 -15 -16h-283
q-16 0 -16 16q0 6 9 9q6 2 15 3q41 2 64 20q23 20 49 95z" />
    <glyph glyph-name="J" unicode="J" horiz-adv-x="533" 
d="M97 -44l221 646q4 9 8.5 20t7.5 18.5t3 18.5q0 20 -13.5 25.5t-38.5 10.5q-3 1 -8 1.5t-7.5 2.5t-2.5 6q0 16 14 16h283q16 0 16 -15q0 -7 -7.5 -9.5t-19.5 -3.5q-30 -2 -51.5 -14t-38.5 -49q-5 -11 -11.5 -25.5t-11.5 -26.5l-137 -398q-28 -81 -58 -143t-65 -102
q-47 -55 -101 -79.5t-105 -24.5q-49 0 -73 20.5t-24 45.5q0 19 14.5 38.5t52.5 19.5q28 0 41.5 -11.5t23.5 -52.5q5 -19 20 -19q38 0 68 84z" />
    <glyph glyph-name="K" unicode="K" horiz-adv-x="855" 
d="M305 348l377 256q62 40 62 61q0 28 -41 31q-22 0 -22 11q0 14 13 14h228q14 0 14 -13t-21 -14q-13 -2 -24 -5q-37 -10 -81 -38q-32 -19 -68.5 -45.5t-60.5 -43.5l-205 -137l209 -328q27 -42 38 -52t26 -15q30 -9 30 -15q0 -15 -21 -15h-122q-24 0 -35.5 4.5t-16.5 15.5
t-8 15l-199 327l-88 -57l-61 -178q-19 -51 -19 -65q0 -18 11 -24t41 -12q18 -4 18 -10q0 -16 -14 -16h-284q-15 0 -15 16q0 10 25 12q41 3 63 20q25 22 49 95l157 451q17 60 17 65q0 19 -13.5 25.5t-37.5 10.5q-19 3 -19 10q0 16 14 16h276q13 0 18 -1.5t5 -14.5q0 -6 -8 -9
q-7 -2 -16 -3q-41 -3 -63 -20t-43 -76z" />
    <glyph glyph-name="L" unicode="L" horiz-adv-x="749" 
d="M103 143l157 451q3 9 4.5 14t5.5 19q7 23 7 32q0 16 -11.5 24t-39.5 12q-19 3 -19 10q0 16 14 16h284q15 0 15 -15q0 -11 -27 -13q-36 -2 -59 -18.5t-44 -77.5l-158 -457q-6 -19 -9 -27t-5 -13.5t-4 -17.5q-1 -9 0 -18q6 -33 59 -33h83q50 0 97.5 6.5t108.5 37.5t116 95
q18 21 32 21q17 0 17 -7q0 -5 -7 -17l-84 -147q-3 -4 -6.5 -9.5t-8.5 -8t-14 -2.5h-626q-15 0 -15 16q0 7 8 9q4 1 16 3q41 3 64 20q23 20 49 95z" />
    <glyph glyph-name="M" unicode="M" horiz-adv-x="1183" 
d="M834 143l158 452h-6l-529 -602q-13 -16 -24 -14t-13 14l-100 612h-6l-177 -513q-7 -28 -7 -30q0 -18 13 -24.5t38 -11.5q19 -3 19 -10q0 -16 -15 -16h-204q-15 0 -15 16q0 7 8 9q4 1 16 3q41 3 64 20q23 20 49 95l157 451q14 45 14 65q0 27 -54 36q-3 1 -8 1.5t-7.5 2.5
t-2.5 6q0 16 14 16h214l96 -593l520 593h190q15 0 15 -15q0 -8 -8 -10q-7 -2 -19 -3q-37 -2 -59 -19.5t-43 -76.5l-163 -470q-19 -59 -19 -65q0 -18 13.5 -25t38.5 -11q18 -4 18 -10q0 -16 -14 -16h-283q-16 0 -16 16q0 7 9 9q6 2 15 3q41 3 64 20q23 20 49 95z" />
    <glyph glyph-name="N" unicode="N" horiz-adv-x="947" 
d="M368 721l327 -560l153 441q16 43 16 57q0 27 -51 36q-19 3 -19 10q0 16 15 16h203q16 0 16 -15q0 -7 -7.5 -9.5t-19.5 -3.5q-31 -2 -46.5 -8.5t-29 -27.5t-34.5 -79l-203 -585q-6 -14 -19 -14t-22 14l-353 598l-152 -464q-18 -56 -18 -65q0 -17 9 -21.5t27.5 -4.5
t26 -2.5t7.5 -17.5q0 -16 -15 -16h-205q-15 0 -15 16q0 7 8 9q6 2 15 3q30 2 45 9q27 11 42.5 39t27.5 67l146 451q18 54 18 65q0 27 -52 36q-3 1 -8 1.5t-7.5 2.5t-2.5 6q0 16 14 16h163z" />
    <glyph glyph-name="O" unicode="O" horiz-adv-x="953" 
d="M68 362q32 92 110 180t196 144t257 56q176 0 249 -77t73 -173q0 -122 -79.5 -242t-213.5 -195.5t-291 -75.5q-169 0 -245.5 75.5t-76.5 174.5q0 69 21 133zM218 355q-30 -87 -30 -210q0 -58 52.5 -95.5t137.5 -37.5q139 0 232 84t140 189.5t61 180.5q10 62 0 109
q-14 62 -61.5 98t-129.5 36q-117 0 -227.5 -84.5t-174.5 -269.5z" />
    <glyph glyph-name="P" unicode="P" horiz-adv-x="766" 
d="M295 317l-67 -190q-19 -52 -19 -65q0 -18 13.5 -25t38.5 -11q18 -4 18 -10q0 -16 -14 -16h-284q-15 0 -15 16q0 7 8 9q4 1 16 3q41 3 64 20q23 20 49 95l157 451q3 9 4.5 14t5.5 19q7 23 7 32q0 16 -11.5 24t-39.5 12q-19 3 -19 10q0 16 14 16h356q236 0 236 -148
q0 -62 -44.5 -126.5t-160.5 -105.5t-313 -24zM402 626l-97 -279q170 -5 266 41t96 184q0 117 -144 117q-58 0 -82.5 -12.5t-38.5 -50.5z" />
    <glyph glyph-name="Q" unicode="Q" horiz-adv-x="906" 
d="M347 -32l1 11q1 13 -14 10.5t-42.5 -6.5t-62.5 3t-76 35q-62 44 -94 86t-32 122q0 93 45.5 185t127 166.5t187 118t224.5 43.5q175 0 248.5 -77t73.5 -173q0 -62 -22.5 -133.5t-82 -147t-172.5 -144t-277 -109.5q-156 -39 -228 -69l2 -3q33 9 111 9q41 0 119 -19
q78 -17 120 -17q67 0 101 19.5t62 55.5q10 10 26 10q11 0 11 -7q0 -14 -37 -55q-96 -114 -229 -114q-100 0 -199 63q-55 36 -85 36q-23 0 -54 -37q-23 -25 -48 -25q-8 0 -16 5t-8 12q0 36 70 73q39 21 117 42.5t133 30.5zM199 359q-18 -48 -27 -99q-10 -65 0 -112
q13 -58 57.5 -97t133.5 -39q106 0 185.5 51.5t129.5 126.5t75.5 145.5t34.5 124.5q10 59 0 109q-13 63 -60.5 101.5t-128.5 38.5q-129 0 -235.5 -89.5t-164.5 -260.5z" />
    <glyph glyph-name="R" unicode="R" horiz-adv-x="843" 
d="M103 143l156 451q18 53 18 65q0 18 -13.5 25.5t-37.5 10.5q-19 3 -19 10q0 16 14 16h356q236 0 236 -148q0 -56 -39 -106t-103.5 -81t-139.5 -36v-3l151 -251q23 -36 38 -46t37 -16q32 -6 36 -6.5t4 -11.5q0 -16 -14 -16h-159q-19 0 -26.5 5t-21.5 29l-121 220
q-5 10 -9.5 18t-7.5 14q-20 39 -40 51.5t-58 12.5l-35 1l-77 -224q-19 -53 -19 -65q0 -18 13.5 -25t38.5 -11q18 -4 18 -10q0 -16 -14 -16h-284q-15 0 -15 16q0 7 8 9q4 1 16 3q41 3 64 20q23 20 49 95zM402 626l-87 -241q54 -3 131 -3q67 0 118 29t77 73.5t26 87.5
q0 48 -35 83t-112 35q-64 0 -85 -15.5t-33 -48.5z" />
    <glyph glyph-name="S" unicode="S" horiz-adv-x="777" 
d="M800 699l-66 -188q-4 -12 -19 -12q-20 0 -24 7q-2 3 0 10q1 4 1.5 7.5t1 6t0.5 7.5v20q-4 65 -42.5 109t-125.5 44t-137 -47t-50 -104q0 -55 41 -89t112 -72q80 -44 116 -76.5t36 -88.5q0 -64 -40.5 -123t-120.5 -95t-194 -36q-142 0 -235 60l-35 -31q-10 -8 -22 -8
q-14 0 -10 8l69 199q2 4 3.5 8t6 6t12.5 1q22 -2 22 -17q0 -8 -0.5 -15t-1.5 -17q0 -43 23.5 -79t67 -58t101.5 -22q55 0 103.5 20.5t77 55t28.5 73.5q0 58 -33.5 92t-97.5 69q-54 30 -85.5 52t-57 56.5t-25.5 77.5q0 93 83.5 162.5t238.5 69.5q130 0 220 -58l28 24
q17 13 23 13q10 0 10 -7t-3 -15z" />
    <glyph glyph-name="T" unicode="T" horiz-adv-x="862" 
d="M616 689l-199 -589q-9 -28 -9 -38q0 -17 9 -21.5t27.5 -4.5t26 -2.5t7.5 -17.5q0 -16 -15 -16h-283q-15 0 -15 16q0 10 25 12q31 2 55.5 15.5t39.5 56.5l202 589h-33q-88 0 -150.5 -19t-94.5 -42t-61.5 -52.5t-40.5 -34.5q-5 -2 -17 0q-8 2 -12.5 5.5t-1.5 7.5l100 153
q6 9 17.5 12t26.5 3t28 -1h682q13 0 13 -9v-5l-5 -153q0 -10 -15 -13q-12 -4 -18 0q-2 1 -7 18q-16 58 -64 94t-181 36h-37z" />
    <glyph glyph-name="U" unicode="U" horiz-adv-x="902" 
d="M106 307l106 295q2 6 4 16l4 14q7 15 7 27q0 20 -13.5 25.5t-38.5 10.5q-3 1 -8 1.5t-7.5 2.5t-2.5 6q0 16 14 16h283q16 0 16 -15q0 -8 -9 -10q-6 -2 -18 -3q-45 -3 -64 -21.5t-46 -93.5l-99 -271q-38 -106 -38 -165q0 -121 175 -121q249 0 323 229l119 344
q6 15 12.5 34.5t6.5 30.5q0 27 -51 36q-20 2 -20 10q0 16 15 16h206q15 0 15 -15q0 -8 -8 -10q-7 -2 -20 -3q-43 -3 -64 -23.5t-46 -91.5l-105 -306q-59 -172 -172.5 -232.5t-273.5 -60.5q-137 0 -185 50t-48 114q0 80 31 164z" />
    <glyph glyph-name="V" unicode="V" horiz-adv-x="824" 
d="M337 133l336 411q82 100 82 120q0 22 -45 29q-28 2 -28 10q0 18 19 18h218q14 0 14 -16q0 -7 -2 -7.5t-22 -2.5q-34 -3 -60.5 -24.5t-118.5 -131.5l-453 -545q-12 -15 -30.5 -15t-20.5 15l-75 592q-1 6 -1 15t-1.5 19t-6.5 30q-5 24 -13 30t-27 10q-12 3 -19 3
q-15 0 -15 13q0 15 14 15h288q14 0 14 -16q0 -8 -3 -8.5l-27 -4.5q-50 -4 -61.5 -26t-9.5 -59z" />
    <glyph glyph-name="W" unicode="W" horiz-adv-x="1157" 
d="M335 150l263 389l-5 47q-5 53 -12.5 73t-27.5 26q-6 2 -21 4.5t-19 5t-4 10.5q0 16 14 16h288q15 0 15 -16q0 -9 -4 -12t-24 -4q-57 -5 -70.5 -25.5t-9.5 -54.5l58 -459l262 392q41 59 58 87t17 39q0 17 -44 22q-19 2 -19 15q0 16 15 16h213q15 0 15 -16q0 -10 -5 -12
t-14 -2q-65 -1 -95.5 -32t-89.5 -120l-370 -545q-8 -13 -28.5 -15t-23.5 15l-60 485l-329 -485q-11 -17 -30.5 -15t-21.5 15l-75 592q-7 60 -12.5 77t-26.5 22q-12 3 -25.5 5t-16 4t-2.5 11q0 16 14 16h288q15 0 15 -16q0 -15 -16 -15q-11 0 -27 -4q-46 -9 -53.5 -29
t-4.5 -51z" />
    <glyph glyph-name="X" unicode="X" horiz-adv-x="912" 
d="M526 424l191 145q29 20 56.5 50.5t27.5 56.5q0 21 -42 21q-27 0 -27 13q0 11 19 11h266q10 0 10 -4q0 -14 -19 -19q-65 -12 -159 -82l-294 -223l123 -242q39 -76 64 -102.5t56 -29.5q8 0 8 -9q0 -10 -14 -10h-339q-6 0 -6 9q0 10 21 12q50 5 71 11.5t21 32.5q0 31 -13 57
l-107 205l-196 -161q-49 -43 -74 -69t-25 -54q0 -14 14.5 -17.5t41.5 -3.5h5q15 0 15 -4q0 -18 -18 -18h-268q-10 0 -10 5q0 14 15 17q24 3 83 39q10 6 28.5 17.5t35 23t50.5 36.5t69 53l210 168l-123 236q-51 98 -105 102q-13 0 -13 5q0 19 24 19h319q8 0 10 -4q2 -3 0 -6
q-1 -8 -5 -9.5t-30 -5.5q-66 -11 -66 -60q0 -8 2.5 -15.5t6 -13.5t6.5 -12z" />
    <glyph glyph-name="Y" unicode="Y" horiz-adv-x="706" 
d="M385 320l212 260q14 16 22.5 25.5t15 20.5t6.5 21q0 27 -13.5 36.5t-43.5 12.5q-18 2 -18 9q0 16 18 16h242q16 0 16 -16q0 -12 -18 -12q-5 0 -7 -0.5t-6 -1t-8 -1.5l-16 -2q-35 -5 -55.5 -18t-64.5 -66l-266 -319l-65 -185q-8 -21 -8 -35q0 -28 50 -34q13 -2 16 -4.5
t3 -10.5q0 -16 -15 -16h-283q-16 0 -16 16q0 10 5 12.5t23 3.5q36 4 57.5 16t36.5 52l16 43l47 136l-100 333q-14 49 -31 63.5t-38 16.5q-16 2 -23.5 4t-7.5 10q0 15 14 15h291q23 0 23 -16q0 -4 -2 -6t-7 -3t-11 -1q-20 -2 -31 -4q-24 -4 -38 -12.5t-14 -30.5q0 -10 9 -44z
" />
    <glyph glyph-name="Z" unicode="Z" horiz-adv-x="792" 
d="M700 690l-184 -1q-94 0 -183.5 -40.5t-156.5 -110.5q-23 -27 -39 -27q-34 0 -21 18l137 182q5 7 9 14t9 12t16 5t39.5 -10.5t71.5 -10.5h466q9 0 9 -10q0 -3 -15 -17l-767 -663h175q75 0 124 6.5t117 38.5t146 104q24 23 29 26.5t20 3.5q21 0 21 -7q0 -2 -5 -10
l-122 -169q-16 -24 -42 -24h-622q-21 0 -21 11q0 3 12 15z" />
    <glyph glyph-name="bracketleft" unicode="[" horiz-adv-x="615" 
d="M488 826l-322 -931h139q14 0 14 -21q0 -19 -28 -19h-253q-7 0 -9 2.5t-2 9.5q1 2 2 5t1 4l337 969q2 5 3.5 10t5.5 8t12 3h254q14 0 14 -19q0 -21 -29 -21h-139z" />
    <glyph glyph-name="backslash" unicode="\" horiz-adv-x="654" 
d="M583 -84h-55l-457 911h56z" />
    <glyph glyph-name="bracketright" unicode="]" horiz-adv-x="615" 
d="M127 -105l323 931h-140q-14 0 -14 21q0 19 28 19h253q11 0 11 -12q0 -2 -0.5 -3t-1 -2.5t-1.5 -3.5l-336 -969q-4 -14 -8 -17.5t-13 -3.5h-254q-15 0 -15 19q0 21 29 21h139z" />
    <glyph glyph-name="asciicircum" unicode="^" horiz-adv-x="613" 
d="M485 687l-65 -42l-86 196l-230 -199l-37 42l306 269z" />
    <glyph glyph-name="underscore" unicode="_" horiz-adv-x="849" 
d="M14 -201l14 40h807l-14 -40h-807z" />
    <glyph glyph-name="underscore" unicode="&#xad;" horiz-adv-x="849" 
d="M14 -201l14 40h807l-14 -40h-807z" />
    <glyph glyph-name="grave" unicode="`" horiz-adv-x="408" 
d="M228 727l74 -136v-4q0 -4 -5 -4h-4q-63 7 -167 105q-27 26 -25 32q4 7 11 7h116z" />
    <glyph glyph-name="a" unicode="a" horiz-adv-x="653" 
d="M640 483l-185 -343q-32 -58 -32 -73q0 -17 16 -17q21 0 71 42q22 19 49 46t36 27q15 0 15 -13q0 -22 -96 -93.5t-137 -71.5q-19 0 -31 9.5t-12 17.5q0 23 13.5 66t28.5 68l-5 -1q-183 -160 -287 -160q-35 0 -59.5 22t-24.5 58q0 80 81.5 181t193 171.5t185.5 70.5
q45 0 79 -31l27 24h74zM507 426q0 40 -40 40q-57 0 -143 -74t-151.5 -167.5t-65.5 -143.5q0 -21 14.5 -30.5t30.5 -9.5q46 0 133.5 67.5t154.5 157.5t67 160z" />
    <glyph glyph-name="b" unicode="b" horiz-adv-x="542" 
d="M242 400l7 -1q34 42 80 66.5t95 24.5t79.5 -30.5t30.5 -82.5q0 -72 -42.5 -141t-111 -126t-141 -90t-126.5 -33q-39 0 -72.5 23.5t-33.5 68.5q0 36 37 109l220 427q18 36 18 43q0 8 -31 14q-29 5 -29 16q0 10 41 10q5 1 7.5 1t18.5 2l18 2q7 2 34 6q2 1 25 4q3 1 17 3
t16 2h3h3h3q2 0 2 -1v-2v-1v-1q0 -1 -2 -5q-1 -1 -3 -6zM269 383q-44 -49 -110.5 -159.5t-66.5 -163.5q0 -47 42 -47q38 0 90.5 39t104.5 103t84.5 133.5t32.5 129.5q0 45 -48 45q-59 0 -129 -80z" />
    <glyph glyph-name="c" unicode="c" horiz-adv-x="492" 
d="M415 490q28 0 54.5 -8t41.5 -21t15 -30q0 -40 -44 -40q-36 0 -57 42q-11 32 -43 32q-47 0 -107 -69.5t-102.5 -162.5t-42.5 -153q0 -53 54 -53q38 0 90 29.5t83 59.5q21 21 29 21q7 0 12 -2t5 -8q0 -12 -30 -35q-78 -62 -128.5 -83.5t-97.5 -21.5q-57 0 -90.5 31
t-33.5 85q0 84 63.5 175t156.5 151.5t172 60.5z" />
    <glyph glyph-name="d" unicode="d" horiz-adv-x="686" 
d="M544 479l87 163q19 32 19 44q0 8 -24 12q-8 2 -19 4t-15 4.5t-4 10.5q0 7 4 8t18 1q88 7 137 19q12 4 29 4q5 0 5 -3v-1v-1q0 -2 -2 -5q-1 -2 -1.5 -4.5t-1.5 -3.5l-318 -615q-16 -32 -16 -42q0 -16 17 -16q24 0 72 43q25 21 52.5 47.5t35.5 26.5q17 0 17 -12
q0 -25 -96 -98.5t-137 -73.5q-56 0 -56 66q0 10 25 71l-4 1q-46 -56 -124 -99t-140 -43q-44 0 -74 24t-30 65q0 75 77.5 179.5t186 180.5t196.5 76q42 0 84 -33zM512 439q0 23 -13 35t-33 12q-48 0 -133.5 -76t-151 -173t-65.5 -156q0 -47 48 -47q64 0 146.5 73.5t142 171.5
t59.5 160z" />
    <glyph glyph-name="e" unicode="e" horiz-adv-x="478" 
d="M143 190q-25 -67 -25 -125q0 -41 62 -41q43 0 105 47q25 19 38.5 31t18.5 12q13 0 13 -16q0 -12 -34 -40t-85.5 -49.5t-99.5 -21.5q-57 0 -90 33t-33 83q0 78 71 169t168 154.5t163 63.5q34 0 57 -16t23 -46q0 -39 -41 -83.5t-119 -84.5t-192 -70zM156 217
q103 34 184 93.5t81 115.5q0 35 -34 35q-57 0 -127.5 -81.5t-103.5 -162.5z" />
    <glyph glyph-name="f" unicode="f" horiz-adv-x="436" 
d="M336 475h119q16 0 16 -16q0 -17 -22 -17h-127l-130 -334q-36 -92 -73.5 -162t-94.5 -124t-130 -54t-73 38q0 21 15.5 30.5t32.5 9.5q9 0 40 -12q24 -11 36 -12q9 -1 16 0q27 3 44 25t38 77q6 15 16.5 44t14.5 40.5t6.5 19t4.5 14.5l142 400h-113q-10 0 -10 17q0 16 21 16
l114 1l17 34q21 42 51 91.5t87.5 98.5t127.5 49q38 0 65.5 -14t27.5 -36q0 -15 -10.5 -24.5t-26.5 -9.5q-18 0 -31.5 9.5t-24.5 18.5q-20 18 -43 18q-54 0 -90 -89z" />
    <glyph glyph-name="g" unicode="g" horiz-adv-x="519" 
d="M152 68l151 -66q48 -22 74.5 -42.5t26.5 -61.5q0 -65 -74 -97.5t-169 -32.5q-130 0 -194.5 37t-64.5 83q0 85 181 128q-52 27 -52 65q0 52 111 92q-60 42 -60 101q0 93 85.5 150.5t168.5 57.5q61 0 100 -35q76 57 124 57q20 0 36 -10t16 -24q0 -16 -12.5 -26t-33.5 -10
q-12 0 -39 9q-20 6 -24 6q-30 0 -52 -19q21 -33 21 -77q0 -57 -38 -104.5t-94 -73.5t-104 -26q-29 0 -70 13q-61 -28 -61 -51t47 -43zM338 462q-60 0 -123 -77t-63 -148q0 -32 18.5 -49t48.5 -17q74 0 130.5 85t56.5 148q0 33 -21 45.5t-47 12.5zM116 0
q-70 -13 -111.5 -45.5t-41.5 -68.5q0 -34 39.5 -63.5t151.5 -29.5q102 0 140.5 25.5t38.5 49.5q0 36 -51 62t-166 70z" />
    <glyph glyph-name="g" horiz-adv-x="519" 
d="M152 68l151 -66q48 -22 74.5 -42.5t26.5 -61.5q0 -65 -74 -97.5t-169 -32.5q-130 0 -194.5 37t-64.5 83q0 85 181 128q-52 27 -52 65q0 52 111 92q-60 42 -60 101q0 93 85.5 150.5t168.5 57.5q61 0 100 -35q76 57 124 57q20 0 36 -10t16 -24q0 -16 -12.5 -26t-33.5 -10
q-12 0 -39 9q-20 6 -24 6q-30 0 -52 -19q21 -33 21 -77q0 -57 -38 -104.5t-94 -73.5t-104 -26q-29 0 -70 13q-61 -28 -61 -51t47 -43zM338 462q-60 0 -123 -77t-63 -148q0 -32 18.5 -49t48.5 -17q74 0 130.5 85t56.5 148q0 33 -21 45.5t-47 12.5zM116 0
q-70 -13 -111.5 -45.5t-41.5 -68.5q0 -34 39.5 -63.5t151.5 -29.5q102 0 140.5 25.5t38.5 49.5q0 36 -51 62t-166 70z" />
    <glyph glyph-name="h" unicode="h" horiz-adv-x="678" 
d="M270 265l4 -2q16 14 41 40q86 89 166.5 138t124.5 49q17 0 34.5 -9.5t17.5 -31.5q0 -21 -19 -59l-144 -264q-24 -48 -24 -59q0 -17 16 -17q22 0 72 42q24 20 51.5 46.5t36.5 26.5q14 0 14 -13q0 -33 -101.5 -99t-136.5 -66q-33 0 -43 27q-5 15 0 36q6 28 45 102
q18 33 21.5 38.5t10.5 17.5l104 193q5 8 5 16q0 22 -22 22q-38 0 -108.5 -61.5t-139.5 -139.5t-89 -112l-70 -126h-112l358 641q21 35 21 45q0 8 -21 11q-13 2 -21.5 3.5t-14 4.5t-5.5 12q0 7 18 9q73 3 132 17q24 6 38 6q7 0 7 -4q0 -2 -0.5 -3.5l-1.5 -4.5q0 -2 -1.5 -3
t-3.5 -3z" />
    <glyph glyph-name="i" unicode="i" horiz-adv-x="409" 
d="M124 180l115 186q3 7 4.5 10t6.5 10q4 4 11.5 17t7.5 18q0 11 -9 11q-28 0 -134 -87q-28 -22 -30 -22q-19 0 -19 13q0 19 50.5 55.5t113.5 67.5t86 31q39 0 39 -36q0 -18 -15 -41q-2 -3 -3.5 -5t-3.5 -6l-4 -8l-3 -6l-154 -248q-8 -12 -20 -35q-15 -23 -18 -38v-7
q3 -10 15 -10q20 0 75 42q29 22 56.5 47.5t37.5 25.5q13 0 13 -13q0 -15 -51.5 -55t-112 -75t-87.5 -35q-42 0 -42 27q0 49 75 166zM327 653q0 22 19 38.5t46 16.5q28 0 47 -16.5t19 -38.5q0 -21 -18.5 -38t-47.5 -17q-28 0 -46.5 17.5t-18.5 37.5z" />
    <glyph glyph-name="i" unicode="&#xb3;" horiz-adv-x="409" 
d="M124 180l115 186q3 7 4.5 10t6.5 10q4 4 11.5 17t7.5 18q0 11 -9 11q-28 0 -134 -87q-28 -22 -30 -22q-19 0 -19 13q0 19 50.5 55.5t113.5 67.5t86 31q39 0 39 -36q0 -18 -15 -41q-2 -3 -3.5 -5t-3.5 -6l-4 -8l-3 -6l-154 -248q-8 -12 -20 -35q-15 -23 -18 -38v-7
q3 -10 15 -10q20 0 75 42q29 22 56.5 47.5t37.5 25.5q13 0 13 -13q0 -15 -51.5 -55t-112 -75t-87.5 -35q-42 0 -42 27q0 49 75 166zM327 653q0 22 19 38.5t46 16.5q28 0 47 -16.5t19 -38.5q0 -21 -18.5 -38t-47.5 -17q-28 0 -46.5 17.5t-18.5 37.5z" />
    <glyph glyph-name="j" unicode="j" horiz-adv-x="432" 
d="M70 -91l227 478q3 7 3.5 8.5t4.5 9.5q5 12 5 16q0 11 -10 11q-12 0 -31 -13.5t-55 -45t-48.5 -41t-19.5 -9.5q-20 0 -20 13q0 19 48 56t106.5 67.5t82.5 30.5q42 0 42 -36q0 -28 -83 -197.5t-108 -211.5q-50 -88 -87 -143t-88.5 -94.5t-116.5 -39.5q-28 0 -49.5 10.5
t-21.5 29.5q0 36 46 36q8 0 16.5 -4t17 -10.5t15.5 -12.5q3 -1 13 -8.5t17 -7.5q17 0 39 23.5t36 52.5q9 17 13 22t6 10zM346 653q0 23 18.5 39t47.5 16q28 0 47 -16.5t19 -38.5q0 -20 -19 -37.5t-47 -17.5q-29 0 -47.5 16t-18.5 39z" />
    <glyph glyph-name="k" unicode="k" horiz-adv-x="588" 
d="M457 732l-187 -351q45 45 106 77t116 32q48 0 70.5 -19.5t22.5 -44.5q0 -51 -69.5 -108.5t-215.5 -93.5l28 -105q1 -4 3 -11t4 -15q12 -53 41 -53q25 0 91 61q23 21 29 21q16 0 16 -16q0 -31 -78 -75t-113 -44q-29 0 -42.5 20t-25.5 60l-37 138l-43 -5l-108 -200h-92
l343 645q19 32 19 43q0 9 -32 13q-27 6 -27 17q0 9 39 10q24 2 45 6q25 4 34 6q12 1 36 5q12 4 27 4q5 0 5 -2v-2v-1v-1q0 -2 -2 -6q-1 -1 -3 -5zM224 280l-30 -52q85 11 157 42t111 68.5t39 70.5q0 20 -16.5 31t-43.5 11q-53 0 -114.5 -49.5t-102.5 -121.5z" />
    <glyph glyph-name="l" unicode="l" horiz-adv-x="374" 
d="M72 217l238 424q21 37 21 45t-21 11q-13 2 -21.5 3.5t-14 4.5t-5.5 12q0 7 18 9q70 3 132 17q24 6 38 6q6 0 6 -4q0 -2 -0.5 -3.5l-1.5 -4.5q0 -2 -1.5 -3.5l-2.5 -2.5l-344 -619q-17 -31 -17 -41q0 -17 16 -17q25 0 74 43q32 25 57 50t35 25q16 0 16 -12q0 -11 -42 -48
q-142 -125 -206 -125q-21 0 -37.5 8.5t-16.5 19.5q0 58 47 144q16 29 21 37.5t7 11.5t5 9z" />
    <glyph glyph-name="m" unicode="m" horiz-adv-x="934" 
d="M255 279l4 4q85 95 170 150t146 55q21 0 33.5 -10.5t12.5 -31.5q0 -31 -30 -84l-46 -84l4 5q73 81 163 143t153 62q25 0 36.5 -13t11.5 -29q0 -28 -30 -84l-124 -222q-37 -64 -41 -81q-1 -4 0 -9q2 -8 13 -8q15 0 31 12t42 34q32 26 57.5 51.5t35.5 25.5q16 0 16 -13
q0 -21 -47 -60.5t-106 -72t-89 -32.5q-20 0 -34 8t-14 17q0 44 75 186l100 186q12 24 12 32q0 18 -19 18q-35 0 -97 -50t-126.5 -126.5t-98.5 -142.5l-62 -116h-92l193 385q11 22 11 32q0 18 -18 18q-39 0 -101.5 -52t-125.5 -127.5t-96 -139.5l-63 -116h-90l191 367
q25 47 25 55q0 11 -9 11q-12 0 -36.5 -15.5t-50 -36t-39.5 -34.5q-26 -23 -29 -23q-19 0 -19 13q0 19 46 55.5t103.5 67.5t86.5 31q43 0 43 -36q0 -18 -25 -66z" />
    <glyph glyph-name="n" unicode="n" horiz-adv-x="657" 
d="M319 388l-75 -134q28 25 51 50q85 88 165.5 137t124.5 49q17 0 35 -9t18 -32q0 -19 -20 -59l-143 -264q-25 -50 -25 -59q0 -17 17 -17q22 0 72 42q24 20 50.5 46.5t36.5 26.5q15 0 15 -13q0 -21 -49.5 -60.5t-109.5 -72t-79 -32.5q-30 0 -44 27q-5 15 0 36q8 33 46 102
q10 18 16 29.5t8.5 15t7.5 11.5l104 193q5 8 5 16q0 22 -23 22q-30 0 -99 -55.5t-137 -128.5t-101 -129l-75 -125h-86l199 365q2 5 3.5 8l8.5 17q12 22 12 29q0 12 -10 12q-15 0 -53.5 -27.5t-62.5 -51.5q-31 -30 -38 -30q-19 0 -19 13q0 20 45 56.5t101.5 66.5t89.5 30
q42 0 42 -36q0 -23 -24 -65z" />
    <glyph glyph-name="o" unicode="o" horiz-adv-x="545" 
d="M375 490q59 0 99.5 -38.5t40.5 -101.5q0 -92 -56 -176.5t-137.5 -135.5t-149.5 -51q-56 0 -99 36t-43 106q0 85 52.5 169.5t134 138t158.5 53.5zM376 470q-61 0 -123 -78.5t-103.5 -179.5t-41.5 -147q0 -30 20.5 -44.5t42.5 -14.5q49 0 113 75t111 175t47 159
q0 22 -19.5 38.5t-46.5 16.5z" />
    <glyph glyph-name="p" unicode="p" horiz-adv-x="588" 
d="M248 443l48 87h77l-28 -59q35 7 56 7q72 0 116 -36t44 -95q0 -61 -45.5 -142t-126 -138t-181.5 -57q-46 0 -78 18v3l-66 -131q-21 -39 -21 -57q0 -43 50 -39q20 0 20 -9q0 -12 -14 -12h-237q-11 0 -11 8q0 12 18 12q46 3 66.5 23.5t39.5 58.5l254 516q-51 -23 -75 -38.5
t-36.5 -27t-22.5 -11.5q-15 0 -15 18q0 15 69.5 53.5t98.5 47.5zM324 428l-179 -369q19 -24 71 -24q70 0 126.5 52.5t88.5 127t32 133.5q0 87 -105 87q-16 0 -34 -7z" />
    <glyph glyph-name="q" unicode="q" horiz-adv-x="587" 
d="M494 434l46 43h68l-303 -591q-2 -4 -3 -6.5t-5 -10.5q-13 -20 -13 -38q0 -43 51 -40q21 0 21 -9q0 -14 -15 -14h-241q-12 0 -12 10q0 12 28 14q34 4 57 20t52 81l63 143l-7 1q-61 -50 -136 -50q-51 0 -85.5 34.5t-34.5 96.5q0 96 69.5 182t162.5 138t154 52
q29 0 53 -15.5t30 -40.5zM416 465q-42 0 -96.5 -42.5t-101.5 -105.5t-78 -134t-31 -121q0 -25 15.5 -39t34.5 -14q48 0 121 75.5t128 174.5t55 164q0 22 -15 32t-32 10z" />
    <glyph glyph-name="r" unicode="r" horiz-adv-x="515" 
d="M34 0l194 366l10 20q15 26 15 35q0 11 -10 11q-14 0 -29.5 -13.5t-40 -41t-43.5 -41t-40 -13.5t-21 13q0 21 46.5 57t104 66.5t82.5 30.5q42 0 42 -36q0 -16 -9 -33.5t-17 -31.5l-25 -40h10q55 70 115.5 105.5t103.5 35.5q72 0 72 -43q0 -38 -47 -38q-16 0 -40 15
q-23 14 -41 14q-62 0 -134.5 -87t-113.5 -163l-102 -188h-82z" />
    <glyph glyph-name="s" unicode="s" horiz-adv-x="428" 
d="M327 490q25 0 60.5 -11.5t40.5 -41.5q3 -5 0 -11q-2 -9 -12 -17t-27 -8q-31 0 -55 33q-22 27 -54 27q-25 0 -48 -15.5t-23 -45.5q0 -43 46 -112q32 -44 50 -78t18 -70q0 -61 -52 -107t-137 -46q-58 0 -107 22.5t-49 53.5q0 17 11.5 28.5t29.5 11.5q30 0 49 -36
q19 -33 32.5 -45t46.5 -12q55 0 81 27t26 55q0 31 -52 105q-36 53 -50 78.5t-14 57.5q0 48 28 83.5t71.5 54.5t89.5 19z" />
    <glyph glyph-name="s" horiz-adv-x="428" 
d="M327 490q25 0 60.5 -11.5t40.5 -41.5q3 -5 0 -11q-2 -9 -12 -17t-27 -8q-31 0 -55 33q-22 27 -54 27q-25 0 -48 -15.5t-23 -45.5q0 -43 46 -112q32 -44 50 -78t18 -70q0 -61 -52 -107t-137 -46q-58 0 -107 22.5t-49 53.5q0 17 11.5 28.5t29.5 11.5q30 0 49 -36
q19 -33 32.5 -45t46.5 -12q55 0 81 27t26 55q0 31 -52 105q-36 53 -50 78.5t-14 57.5q0 48 28 83.5t71.5 54.5t89.5 19z" />
    <glyph glyph-name="t" unicode="t" horiz-adv-x="383" 
d="M291 423l-148 -283q-32 -61 -32 -73q0 -17 17 -17q20 0 70 42q22 19 49 46t36 27q15 0 15 -13q0 -14 -48.5 -55.5t-104.5 -75.5t-84 -34q-31 0 -45 27q-5 15 0 36q5 20 17 46t29.5 58t28.5 52l111 217h-91q-9 0 -9 8q0 21 11 21h103l61 118l105 30l-75 -147l83 -1
q8 0 10 -7t-4 -14q-7 -8 -26 -8h-79z" />
    <glyph glyph-name="u" unicode="u" horiz-adv-x="643" 
d="M626 476l-178 -336q-32 -60 -32 -73q0 -17 17 -17q24 0 71 43q29 24 54 48t33 24q15 0 15 -13t-50 -55.5t-105.5 -76t-82.5 -33.5q-17 0 -30.5 8.5t-13.5 18.5q0 4 -0.5 14t4.5 30.5t18 48.5t32 60q6 10 11.5 19.5t12.5 21.5l-6 2q-78 -88 -167 -155.5t-154 -67.5
q-48 0 -48 43q0 29 30 78l137 258l10 20q15 26 15 35q0 11 -10 11q-12 0 -31 -13.5t-55 -45t-47.5 -41t-19.5 -9.5q-21 0 -21 13q0 19 47 56t104.5 67.5t85.5 30.5q42 0 42 -36q0 -21 -24 -66l-134 -258q-31 -56 -31 -69q0 -17 21 -17q53 0 192 143q55 59 73 80.5t30.5 39.5
t18.5 29t13 24l64 115z" />
    <glyph glyph-name="v" unicode="v" horiz-adv-x="574" 
d="M285 382q39 45 90.5 76.5t96.5 31.5q31 0 53 -11.5t34 -31.5t12 -44q0 -37 -46.5 -105t-120 -142.5t-142 -121.5t-110.5 -47q-22 0 -22 14q0 17 7 37q68 222 68 330q0 62 -29 62q-23 0 -70.5 -52.5t-55.5 -52.5q-15 0 -15 15q0 22 72 85.5t114 63.5q41 0 52.5 -26
t11.5 -81zM285 344q-7 -97 -20 -158.5t-26.5 -93.5l-13.5 -32q0 -29 66.5 33t130 150.5t63.5 136.5q0 63 -66 63q-55 0 -134 -99z" />
    <glyph glyph-name="w" unicode="w" horiz-adv-x="805" 
d="M274 380q42 45 94 77t88 32q32 0 57.5 -24t26.5 -75l11 11l13 13q77 75 149 75q51 0 73.5 -27t22.5 -52q0 -61 -81 -159.5t-182 -180.5t-138 -82q-14 0 -14 7q0 10 15.5 53t28.5 93t19 113q-19 -27 -62.5 -72t-95 -90.5t-93 -75t-61.5 -29.5q-10 0 -12 4.5t-2 22.5
q0 43 19.5 103t28.5 95t9 106q0 112 -30 112q-13 0 -32.5 -19.5t-49.5 -59.5q-19 -24 -26 -24q-15 0 -15 10q0 11 30.5 50t70.5 71t72 32q28 0 47 -30.5t19 -79.5zM272 344q-1 -16 -1.5 -27.5t-1.5 -23.5q-5 -64 -13.5 -121.5t-13.5 -74l-5 -16.5q0 -14 86.5 71t133.5 151
q10 131 -54 131q-21 0 -41 -12t-45 -35t-45 -43zM541 350q-1 -7 -1.5 -17t-0.5 -14.5t-1 -11.5q-3 -51 -13 -109q-7 -45 -13 -74q-6 -26 -6 -43q0 -21 56.5 33.5t107.5 131t51 125.5q0 65 -56 65q-47 0 -124 -86z" />
    <glyph glyph-name="x" unicode="x" horiz-adv-x="628" 
d="M335 442l10 -161q15 16 25.5 27.5t20.5 22t19 20.5q55 63 99.5 100.5t89.5 37.5q48 0 48 -56q0 -31 -15.5 -65t-33.5 -34q-9 0 -9 15q0 5 7 28.5t7 37.5q0 19 -25 19q-34 0 -59 -16.5t-62 -50.5q-80 -78 -108 -111l17 -163q3 -45 14 -45q16 0 27 11.5t31 41.5t35 43.5
t35 13.5q9 0 9 -13q0 -32 -73 -95t-109 -63q-29 0 -36.5 17t-10.5 45l-13 145q-14 -16 -22 -25t-19 -22q-71 -81 -122.5 -120.5t-92.5 -39.5q-52 0 -52 58q0 22 14 58.5t29 36.5q5 0 8 -3q2 -3 0 -11q-11 -40 -11 -52q0 -13 10 -23t27 -10q36 0 116.5 66.5t113.5 118.5
l-18 182q0 7 -4 12.5t-10 5.5q-19 0 -78 -69q-19 -21 -23 -21q-15 0 -15 10q0 14 29.5 49t69 65t64.5 30q43 0 46 -48z" />
    <glyph glyph-name="y" unicode="y" horiz-adv-x="585" 
d="M297 41q60 57 133.5 157t73.5 154q0 19 -4.5 40t-4.5 44q0 54 48 54q47 0 47 -49q0 -56 -81 -174.5t-150 -195.5q-118 -135 -217 -219t-208 -84q-73 0 -73 40q0 14 12.5 27t24.5 14h11q17 -1 23 -5l30 -20q19 -14 37 -14q101 0 152 66t64.5 145t18.5 184q4 84 4 151
q0 68 -12 72q-6 3 -10 0q-23 -5 -80 -68q-20 -21 -36 -41q-13 -15 -18 -15q-16 0 -16 7q0 18 38.5 62.5t86.5 80.5t72 36q54 0 56 -63q2 -9 1 -19t-1 -20v-31v-28q0 -50 -7 -141t-15 -147z" />
    <glyph glyph-name="z" unicode="z" horiz-adv-x="547" 
d="M47 49l6 -2q45 34 101 34q42 0 115 -21q49 -16 68 -16q57 0 69 55q5 22 9.5 28t16.5 6q16 0 16 -19q0 -52 -57.5 -89.5t-120.5 -37.5q-65 0 -93 16.5t-127 16.5q-9 0 -17.5 -3.5t-12 -7.5t-7.5 -8q-7 -12 -18 -14h-5q-12 2 -12 14q0 25 51 71.5t115.5 92.5t215.5 150
q93 63 118.5 83t43.5 42l-6 1q-62 -48 -123 -48q-22 0 -102 20q-38 12 -61 12q-36 0 -51.5 -15.5t-24.5 -38.5q-3 -12 -9.5 -21t-19.5 -9q-16 0 -16 10q0 36 65 85t115 49q28 0 106.5 -15t95.5 -15q19 0 44 19q21 16 26 16q16 0 16 -15q0 -27 -80 -94t-169.5 -129.5
t-180.5 -120.5q-36 -23 -56 -38t-44 -44z" />
    <glyph glyph-name="braceleft" unicode="{" horiz-adv-x="522" 
d="M278 474l45 130q40 117 100 164q58 43 165 45q14 0 18 -3q5 -5 2 -11q-3 -12 -34 -15q-12 0 -15 -2q-61 -9 -92 -40q-33 -31 -63 -117l-30 -88q-47 -136 -100 -186q-51 -48 -155 -68q91 -20 108 -68q19 -49 -28 -188l-31 -88q-28 -83 -19 -114q9 -32 58 -42q2 0 7.5 -1
t15.5 -3q26 -3 23 -13q-3 -9 -10 -12t-20 -3q-105 0 -135 46q-28 44 13 163l46 132q23 68 20 103q-3 31 -37 49q-18 9 -50 15q-30 6 -24 22q6 17 40 23q12 2 28 6q62 16 94 50q32 32 60 114z" />
    <glyph glyph-name="bar" unicode="|" horiz-adv-x="375" 
d="M80 -159h-56l316 921h57z" />
    <glyph glyph-name="bar" unicode="&#xa6;" horiz-adv-x="375" 
d="M80 -159h-56l316 921h57z" />
    <glyph glyph-name="braceright" unicode="}" horiz-adv-x="513" 
d="M447 777q30 -46 -11 -164l-45 -130q-28 -81 -21 -112q9 -30 53 -48q2 -1 14 -4t19 -5q31 -6 25 -22q-6 -18 -38 -23q-31 -4 -41 -8q-55 -16 -86 -50q-29 -30 -56 -110l-46 -132q-40 -115 -101 -163q-58 -46 -164 -46q-12 0 -19 3q-3 3 0 13q3 9 31 12q10 2 26 4
q53 10 87 42q31 31 59 114l30 88q48 139 101 188q49 46 155 68q-92 18 -108 68q-19 46 28 186l30 88q28 83 19 114q-7 32 -57 42q-3 1 -6.5 1.5t-7.5 1t-10 1.5q-27 1 -23 12q3 9 10 13q5 3 21 3q107 0 132 -45z" />
    <glyph glyph-name="asciitilde" unicode="~" horiz-adv-x="620" 
d="M420 756q14 14 29 41h21q-29 -55 -60 -83q-30 -27 -63 -27q-7 0 -12 1q-4 1 -22 8l-50 21q-3 2 -6.5 4t-6.5 2t-6 0.5t-6 0.5q-20 0 -35 -12q-14 -11 -33 -42h-20q26 52 58 81q32 30 63 30q1 0 19 -2q16 -5 22 -8l49 -21q6 -2 8.5 -3t5.5 -2q7 0 11 -1q17 0 34 12z" />
    <glyph glyph-name="Adieresis" unicode="&#xc0;" horiz-adv-x="811" 
d="M540 265l-314 -1l-111 -130q-47 -56 -47 -78q0 -31 43 -31h4q20 0 20 -9q0 -16 -18 -16h-230q-10 0 -10 18q0 8 20 8h6q28 0 58 20q21 14 43 32t60 62l432 509l-2 28q4 2 9.5 3.5t9.5 2.5q23 5 69 37q13 9 17 13q14 9 18 9q7 0 8 -11l56 -615q4 -46 14 -60.5t27 -23.5
q14 -7 27.5 -6.5t13.5 -7.5q0 -18 -18 -18h-273q-18 0 -18 16q0 10 22 10h7q27 0 49 18t22 44q0 16 -1 28zM541 294l-30 303l-263 -303h293z" />
    <glyph glyph-name="Adieresis" unicode="&#x410;" horiz-adv-x="811" 
d="M540 265l-314 -1l-111 -130q-47 -56 -47 -78q0 -31 43 -31h4q20 0 20 -9q0 -16 -18 -16h-230q-10 0 -10 18q0 8 20 8h6q28 0 58 20q21 14 43 32t60 62l432 509l-2 28q4 2 9.5 3.5t9.5 2.5q23 5 69 37q13 9 17 13q14 9 18 9q7 0 8 -11l56 -615q4 -46 14 -60.5t27 -23.5
q14 -7 27.5 -6.5t13.5 -7.5q0 -18 -18 -18h-273q-18 0 -18 16q0 10 22 10h7q27 0 49 18t22 44q0 16 -1 28zM541 294l-30 303l-263 -303h293z" />
    <glyph glyph-name="Aring" unicode="&#xc1;" horiz-adv-x="793" 
d="M432 690l-109 -283q47 3 118 3q163 0 224 -53t61 -119q0 -54 -31 -108t-109 -92t-208 -38h-390q-15 0 -15 16q0 10 23 12q45 4 64 20q25 21 50 95l156 451q17 60 17 65q0 19 -13.5 25.5t-37.5 10.5q-19 3 -19 10q0 16 15 16h563q13 0 13 -12v-9l-3 -145v-6q0 -7 -12 -7
q-11 0 -13 2.5t-9 24.5q-13 54 -32 77q-21 30 -50 36.5t-78 6.5h-20q-16 0 -28.5 0.5t-31.5 0.5h-95zM313 375l-75 -224q-21 -65 -21 -71q0 -29 25 -39.5t68 -10.5q128 0 200 65.5t72 144.5q0 155 -269 135z" />
    <glyph glyph-name="Aring" unicode="&#x411;" horiz-adv-x="793" 
d="M432 690l-109 -283q47 3 118 3q163 0 224 -53t61 -119q0 -54 -31 -108t-109 -92t-208 -38h-390q-15 0 -15 16q0 10 23 12q45 4 64 20q25 21 50 95l156 451q17 60 17 65q0 19 -13.5 25.5t-37.5 10.5q-19 3 -19 10q0 16 15 16h563q13 0 13 -12v-9l-3 -145v-6q0 -7 -12 -7
q-11 0 -13 2.5t-9 24.5q-13 54 -32 77q-21 30 -50 36.5t-78 6.5h-20q-16 0 -28.5 0.5t-31.5 0.5h-95zM313 375l-75 -224q-21 -65 -21 -71q0 -29 25 -39.5t68 -10.5q128 0 200 65.5t72 144.5q0 155 -269 135z" />
    <glyph glyph-name="Ccedilla" unicode="&#xc2;" horiz-adv-x="802" 
d="M110 143l159 459q18 54 18 57q0 19 -13 25.5t-38 10.5q-3 1 -8.5 1.5t-8 2.5t-2.5 6q0 16 15 16h333q224 0 224 -140q0 -79 -75.5 -126.5t-177.5 -55.5l-2 -17q77 -9 136.5 -42t59.5 -105q0 -42 -21.5 -82.5t-69.5 -75.5t-124 -56t-181 -21h-346q-15 0 -15 16q0 10 23 12
q45 4 64 20q25 21 50 95zM438 690l-111 -289q145 -2 231.5 44.5t86.5 135.5q0 58 -37 83.5t-130 25.5h-40zM319 368l-86 -247q-11 -33 -11 -47q0 -29 28 -36t73 -7q78 0 137.5 26t92.5 72t33 102q0 92 -73 118t-194 19z" />
    <glyph glyph-name="Ccedilla" unicode="&#x412;" horiz-adv-x="802" 
d="M110 143l159 459q18 54 18 57q0 19 -13 25.5t-38 10.5q-3 1 -8.5 1.5t-8 2.5t-2.5 6q0 16 15 16h333q224 0 224 -140q0 -79 -75.5 -126.5t-177.5 -55.5l-2 -17q77 -9 136.5 -42t59.5 -105q0 -42 -21.5 -82.5t-69.5 -75.5t-124 -56t-181 -21h-346q-15 0 -15 16q0 10 23 12
q45 4 64 20q25 21 50 95zM438 690l-111 -289q145 -2 231.5 44.5t86.5 135.5q0 58 -37 83.5t-130 25.5h-40zM319 368l-86 -247q-11 -33 -11 -47q0 -29 28 -36t73 -7q78 0 137.5 26t92.5 72t33 102q0 92 -73 118t-194 19z" />
    <glyph glyph-name="Eacute" unicode="&#xc3;" horiz-adv-x="742" 
d="M442 690l-201 -563q-19 -60 -19 -65q0 -18 13.5 -25t38.5 -11q19 -4 19 -10q0 -16 -15 -16h-283q-16 0 -16 16q0 6 9 9q6 2 15 3q41 2 64 20q23 20 49 95l160 459q18 52 18 57q0 18 -9 23t-26 4t-26 2t-9 17q0 16 14 16h571q14 0 14 -12v-4q-1 -2 -1 -5l-3 -145v-7
q0 -6 -13 -8q-15 -2 -17 15q0 1 -2 13t-4 17q-20 69 -85 86.5t-146 17.5z" />
    <glyph glyph-name="Eacute" unicode="&#x413;" horiz-adv-x="742" 
d="M442 690l-201 -563q-19 -60 -19 -65q0 -18 13.5 -25t38.5 -11q19 -4 19 -10q0 -16 -15 -16h-283q-16 0 -16 16q0 6 9 9q6 2 15 3q41 2 64 20q23 20 49 95l160 459q18 52 18 57q0 18 -9 23t-26 4t-26 2t-9 17q0 16 14 16h571q14 0 14 -12v-4q-1 -2 -1 -5l-3 -145v-7
q0 -6 -13 -8q-15 -2 -17 15q0 1 -2 13t-4 17q-20 69 -85 86.5t-146 17.5z" />
    <glyph glyph-name="Ntilde" unicode="&#xc4;" horiz-adv-x="930" 
d="M602 0h-464q-99 0 -157 -63.5t-86 -129.5q-5 -11 -7 -15t-4 -10q-9 -19 -28 -19q-17 0 -19.5 6t2.5 20l91 216l4 9l4.5 13.5t8.5 10.5t22 3h5q51 0 103 30t108 90t134 168q18 25 62 91t78 130t34 92q0 22 -11 30.5t-32 12.5q-13 3 -23 3q-16 1 -19 4.5t-3 12.5
q0 16 13 16h568q15 0 15 -15q0 -7 -7.5 -9.5t-19.5 -3.5q-26 -2 -41.5 -7t-31.5 -27.5t-37 -80.5l-159 -451q-15 -36 -15 -59q0 -27 55 -27h51q27 0 18 -28l-74 -221q-7 -21 -9.5 -25t-15.5 -4q-16 0 -19 7q-2 3 0 10q1 6 4.5 22t5 27t1.5 21q0 150 -105 150zM570 107
l178 513q3 8 6.5 16.5t3.5 17.5q0 22 -11 29t-63 7q-49 0 -78.5 -14t-46 -37t-53.5 -86q-105 -186 -188 -292.5t-156 -179.5q-22 -20 -22 -39q0 -11 22 -11h292q41 0 64.5 9t33 26t18.5 41z" />
    <glyph glyph-name="Ntilde" unicode="&#x414;" horiz-adv-x="930" 
d="M602 0h-464q-99 0 -157 -63.5t-86 -129.5q-5 -11 -7 -15t-4 -10q-9 -19 -28 -19q-17 0 -19.5 6t2.5 20l91 216l4 9l4.5 13.5t8.5 10.5t22 3h5q51 0 103 30t108 90t134 168q18 25 62 91t78 130t34 92q0 22 -11 30.5t-32 12.5q-13 3 -23 3q-16 1 -19 4.5t-3 12.5
q0 16 13 16h568q15 0 15 -15q0 -7 -7.5 -9.5t-19.5 -3.5q-26 -2 -41.5 -7t-31.5 -27.5t-37 -80.5l-159 -451q-15 -36 -15 -59q0 -27 55 -27h51q27 0 18 -28l-74 -221q-7 -21 -9.5 -25t-15.5 -4q-16 0 -19 7q-2 3 0 10q1 6 4.5 22t5 27t1.5 21q0 150 -105 150zM570 107
l178 513q3 8 6.5 16.5t3.5 17.5q0 22 -11 29t-63 7q-49 0 -78.5 -14t-46 -37t-53.5 -86q-105 -186 -188 -292.5t-156 -179.5q-22 -20 -22 -39q0 -11 22 -11h292q41 0 64.5 9t33 26t18.5 41z" />
    <glyph glyph-name="Odieresis" unicode="&#xc5;" horiz-adv-x="804" 
d="M424 690l-105 -298h60q107 0 150 28t63 70q4 7 8 18.5t7.5 15t14.5 3.5q21 0 17 -13l-95 -273q0 -1 -2 -3q0 -2 -1 -3q-2 -8 -17 -8q-14 0 -16 7v5q0 6 3 13q2 9 2 26q0 40 -26.5 62t-121.5 22h-57l-76 -222q-6 -19 -9 -27t-5 -13.5t-4 -17.5q-1 -9 0 -18q4 -23 27.5 -28
t77.5 -5h41q120 0 192.5 41t130.5 104q14 15 27 15t16 -7q2 -3 0 -6q0 -2 -6 -11l-84 -147q-13 -20 -30 -20h-625q-15 0 -15 16q0 7 8 9q4 1 16 3q41 3 64 20q23 20 49 95l159 459l12 30t6 27q0 18 -9 23t-27.5 4t-26 1.5t-7.5 17.5q0 16 15 16h586q14 0 14 -12v-9l-3 -140
v-8q0 -12 -17 -12q-5 0 -10 -0.5t-8.5 4.5t-4.5 14q-24 132 -244 132h-114z" />
    <glyph glyph-name="Odieresis" unicode="&#x415;" horiz-adv-x="804" 
d="M424 690l-105 -298h60q107 0 150 28t63 70q4 7 8 18.5t7.5 15t14.5 3.5q21 0 17 -13l-95 -273q0 -1 -2 -3q0 -2 -1 -3q-2 -8 -17 -8q-14 0 -16 7v5q0 6 3 13q2 9 2 26q0 40 -26.5 62t-121.5 22h-57l-76 -222q-6 -19 -9 -27t-5 -13.5t-4 -17.5q-1 -9 0 -18q4 -23 27.5 -28
t77.5 -5h41q120 0 192.5 41t130.5 104q14 15 27 15t16 -7q2 -3 0 -6q0 -2 -6 -11l-84 -147q-13 -20 -30 -20h-625q-15 0 -15 16q0 7 8 9q4 1 16 3q41 3 64 20q23 20 49 95l159 459l12 30t6 27q0 18 -9 23t-27.5 4t-26 1.5t-7.5 17.5q0 16 15 16h586q14 0 14 -12v-9l-3 -140
v-8q0 -12 -17 -12q-5 0 -10 -0.5t-8.5 4.5t-4.5 14q-24 132 -244 132h-114z" />
    <glyph glyph-name="Udieresis" unicode="&#xc6;" horiz-adv-x="1281" 
d="M604 356h-65q-55 0 -94 -13t-76 -51t-79 -112q-48 -87 -90.5 -132t-76.5 -57t-77 -12q-87 0 -87 93q0 23 19 23q21 0 21 -17q0 -11 5 -23q7 -21 28 -21q32 0 84 101q71 132 148 183q80 52 207 54v7q-73 4 -73 117q0 44 5 106q3 15 -3 36.5t-31 21.5q-12 0 -38 -13
q-28 -13 -49 -13q-24 0 -38.5 14.5t-14.5 31.5q0 26 23.5 44t67.5 18q55 0 94.5 -25t39.5 -85q0 -46 -5 -84q-5 -37 -5 -61q0 -63 39 -87t130 -13l80 215q19 48 19 59q0 27 -52 36q-5 1 -11.5 3t-6.5 7q0 16 14 16h283q16 0 16 -16q0 -7 -8 -9q-6 -1 -16 -3q-41 -3 -64 -20
q-21 -18 -49 -95l-72 -195q109 2 157 22q48 19 72.5 47.5t49.5 72.5q66 119 123 164q64 51 137 51q80 0 80 -54q0 -23 -17.5 -36t-40.5 -13q-31 0 -61 16q-20 11 -37 11q-38 0 -65 -36t-77 -124q-30 -54 -64.5 -86.5t-96.5 -40.5v-7q116 -12 145.5 -56t27.5 -112
q-1 -20 -1 -60q0 -26 -1 -46t-2 -35q0 -28 28 -28q21 0 40 21q6 4 17 17q20 26 24 26q9 0 17.5 -3t8.5 -11t-9 -17q-6 -8 -8 -11q-53 -78 -130 -78q-123 0 -130 128q-1 22 0 42l3 48t1 27q0 86 -28 109t-90 23h-80l-80 -229q-3 -9 -7 -20t-7.5 -22t-3.5 -23q0 -17 11.5 -24
t38.5 -12q19 -4 19 -10q0 -16 -15 -16h-283q-14 0 -14 16q0 10 22 12q45 4 64 20q27 22 51 95z" />
    <glyph glyph-name="Udieresis" unicode="&#x416;" horiz-adv-x="1281" 
d="M604 356h-65q-55 0 -94 -13t-76 -51t-79 -112q-48 -87 -90.5 -132t-76.5 -57t-77 -12q-87 0 -87 93q0 23 19 23q21 0 21 -17q0 -11 5 -23q7 -21 28 -21q32 0 84 101q71 132 148 183q80 52 207 54v7q-73 4 -73 117q0 44 5 106q3 15 -3 36.5t-31 21.5q-12 0 -38 -13
q-28 -13 -49 -13q-24 0 -38.5 14.5t-14.5 31.5q0 26 23.5 44t67.5 18q55 0 94.5 -25t39.5 -85q0 -46 -5 -84q-5 -37 -5 -61q0 -63 39 -87t130 -13l80 215q19 48 19 59q0 27 -52 36q-5 1 -11.5 3t-6.5 7q0 16 14 16h283q16 0 16 -16q0 -7 -8 -9q-6 -1 -16 -3q-41 -3 -64 -20
q-21 -18 -49 -95l-72 -195q109 2 157 22q48 19 72.5 47.5t49.5 72.5q66 119 123 164q64 51 137 51q80 0 80 -54q0 -23 -17.5 -36t-40.5 -13q-31 0 -61 16q-20 11 -37 11q-38 0 -65 -36t-77 -124q-30 -54 -64.5 -86.5t-96.5 -40.5v-7q116 -12 145.5 -56t27.5 -112
q-1 -20 -1 -60q0 -26 -1 -46t-2 -35q0 -28 28 -28q21 0 40 21q6 4 17 17q20 26 24 26q9 0 17.5 -3t8.5 -11t-9 -17q-6 -8 -8 -11q-53 -78 -130 -78q-123 0 -130 128q-1 22 0 42l3 48t1 27q0 86 -28 109t-90 23h-80l-80 -229q-3 -9 -7 -20t-7.5 -22t-3.5 -23q0 -17 11.5 -24
t38.5 -12q19 -4 19 -10q0 -16 -15 -16h-283q-14 0 -14 16q0 10 22 12q45 4 64 20q27 22 51 95z" />
    <glyph glyph-name="aacute" unicode="&#xc7;" horiz-adv-x="747" 
d="M194 536l59 172q6 13 24 13q13 0 24 -10l12 -13q59 24 108 34t105 10q130 0 175.5 -48.5t45.5 -104.5q0 -170 -313 -203l-3 -9q116 -3 172 -42t56 -107q0 -67 -53.5 -125t-149 -91t-218.5 -33q-90 0 -148.5 21t-84.5 50t-26 52t15 39.5t46 16.5q29 0 48 -23q5 -11 15 -42
q11 -40 40 -61t105 -21q81 0 141.5 29t92.5 78t32 103q0 91 -63.5 114.5t-154.5 23.5h-39q-13 0 -13 21q0 15 5.5 18t19.5 3h36q77 0 149.5 26t116.5 73t44 107q0 48 -37 76t-88 28q-65 0 -132.5 -42.5t-107.5 -105.5l-12 -20l-7 -15q-14 0 -26 0.5t-11 7.5z" />
    <glyph glyph-name="aacute" unicode="&#x417;" horiz-adv-x="747" 
d="M194 536l59 172q6 13 24 13q13 0 24 -10l12 -13q59 24 108 34t105 10q130 0 175.5 -48.5t45.5 -104.5q0 -170 -313 -203l-3 -9q116 -3 172 -42t56 -107q0 -67 -53.5 -125t-149 -91t-218.5 -33q-90 0 -148.5 21t-84.5 50t-26 52t15 39.5t46 16.5q29 0 48 -23q5 -11 15 -42
q11 -40 40 -61t105 -21q81 0 141.5 29t92.5 78t32 103q0 91 -63.5 114.5t-154.5 23.5h-39q-13 0 -13 21q0 15 5.5 18t19.5 3h36q77 0 149.5 26t116.5 73t44 107q0 48 -37 76t-88 28q-65 0 -132.5 -42.5t-107.5 -105.5l-12 -20l-7 -15q-14 0 -26 0.5t-11 7.5z" />
    <glyph glyph-name="agrave" unicode="&#xc8;" horiz-adv-x="1005" 
d="M239 160l587 471q8 19 8 28q0 18 -13.5 25.5t-37.5 10.5q-19 3 -19 10q0 16 14 16h281q14 0 14 -15q0 -11 -27 -13q-39 -3 -60.5 -20.5t-42.5 -75.5l-162 -470q-19 -53 -19 -65q0 -18 13.5 -25t38.5 -11q18 -4 18 -10q0 -16 -14 -16h-275q-24 -6 -24 16q0 7 8 9q6 1 16 3
q41 3 64 20q23 20 49 95l147 427l-587 -475q-7 -17 -7 -33q0 -18 13.5 -25t38.5 -11q18 -4 18 -10q0 -16 -14 -16h-284q-15 0 -15 16q0 7 8 9q4 1 16 3q41 3 64 20q23 20 49 95l156 451q18 54 18 65q0 20 -13.5 26t-37.5 10q-19 3 -19 10q0 16 14 16h284q15 0 15 -15
q0 -7 -7.5 -9.5t-19.5 -3.5q-38 -2 -59 -17t-44 -79z" />
    <glyph glyph-name="agrave" unicode="&#x418;" horiz-adv-x="1005" 
d="M239 160l587 471q8 19 8 28q0 18 -13.5 25.5t-37.5 10.5q-19 3 -19 10q0 16 14 16h281q14 0 14 -15q0 -11 -27 -13q-39 -3 -60.5 -20.5t-42.5 -75.5l-162 -470q-19 -53 -19 -65q0 -18 13.5 -25t38.5 -11q18 -4 18 -10q0 -16 -14 -16h-275q-24 -6 -24 16q0 7 8 9q6 1 16 3
q41 3 64 20q23 20 49 95l147 427l-587 -475q-7 -17 -7 -33q0 -18 13.5 -25t38.5 -11q18 -4 18 -10q0 -16 -14 -16h-284q-15 0 -15 16q0 7 8 9q4 1 16 3q41 3 64 20q23 20 49 95l156 451q18 54 18 65q0 20 -13.5 26t-37.5 10q-19 3 -19 10q0 16 14 16h284q15 0 15 -15
q0 -7 -7.5 -9.5t-19.5 -3.5q-38 -2 -59 -17t-44 -79z" />
    <glyph glyph-name="acircumflex" unicode="&#xc9;" horiz-adv-x="1005" 
d="M470 857q0 22 23.5 42.5t60.5 20.5q25 0 39.5 -10.5t14.5 -24.5q0 -16 -8.5 -24.5t-36.5 -26.5q-13 -8 -13 -18q0 -32 71 -32q58 0 124.5 34t109.5 85q18 22 29 22q8 0 16 -5t8 -11q0 -19 -73 -72q-109 -76 -232 -76q-74 0 -103.5 30t-29.5 66zM239 160l587 471
q8 19 8 28q0 18 -13.5 25.5t-37.5 10.5q-19 3 -19 10q0 16 14 16h281q14 0 14 -15q0 -11 -27 -13q-39 -4 -60.5 -20t-42.5 -76l-162 -470q-19 -53 -19 -65q0 -18 13.5 -25t38.5 -11q18 -4 18 -10q0 -16 -14 -16h-275q-11 -3 -17.5 2t-6.5 14q0 7 8 9q6 1 16 3q41 3 64 20
q23 20 49 95l147 427l-587 -475q-7 -17 -7 -33q0 -18 9 -23t27.5 -3t26 0t7.5 -20q0 -16 -14 -16h-284q-15 0 -15 16q0 7 8 9q4 1 16 3q41 3 64 20q23 20 49 95l156 451q18 56 18 65q0 16 -11.5 24t-39.5 12q-19 3 -19 10q0 16 14 16h285q14 0 14 -15q0 -11 -27 -13
q-36 -2 -59 -18.5t-44 -77.5z" />
    <glyph glyph-name="acircumflex" unicode="&#x419;" horiz-adv-x="1005" 
d="M470 857q0 22 23.5 42.5t60.5 20.5q25 0 39.5 -10.5t14.5 -24.5q0 -16 -8.5 -24.5t-36.5 -26.5q-13 -8 -13 -18q0 -32 71 -32q58 0 124.5 34t109.5 85q18 22 29 22q8 0 16 -5t8 -11q0 -19 -73 -72q-109 -76 -232 -76q-74 0 -103.5 30t-29.5 66zM239 160l587 471
q8 19 8 28q0 18 -13.5 25.5t-37.5 10.5q-19 3 -19 10q0 16 14 16h281q14 0 14 -15q0 -11 -27 -13q-39 -4 -60.5 -20t-42.5 -76l-162 -470q-19 -53 -19 -65q0 -18 13.5 -25t38.5 -11q18 -4 18 -10q0 -16 -14 -16h-275q-11 -3 -17.5 2t-6.5 14q0 7 8 9q6 1 16 3q41 3 64 20
q23 20 49 95l147 427l-587 -475q-7 -17 -7 -33q0 -18 9 -23t27.5 -3t26 0t7.5 -20q0 -16 -14 -16h-284q-15 0 -15 16q0 7 8 9q4 1 16 3q41 3 64 20q23 20 49 95l156 451q18 56 18 65q0 16 -11.5 24t-39.5 12q-19 3 -19 10q0 16 14 16h285q14 0 14 -15q0 -11 -27 -13
q-36 -2 -59 -18.5t-44 -77.5z" />
    <glyph glyph-name="adieresis" unicode="&#xca;" horiz-adv-x="906" 
d="M383 578l-69 -193q142 -2 200 22q45 18 69.5 46.5t59.5 87.5q43 73 70.5 105.5t58.5 54.5q58 41 123 41q80 0 80 -54q0 -20 -16.5 -34.5t-41.5 -14.5q-36 0 -60 16q-18 11 -38 11q-32 0 -58 -29.5t-63 -94.5q-32 -58 -50.5 -85.5t-51 -50t-80.5 -27.5v-7q79 -9 117 -33
t47.5 -54t9.5 -81q0 -43 -1 -58t-3 -51q-2 -17 0 -32q3 -28 27 -28q26 0 45 26l3 3l6 6q7 6 13 15q9 14 14 14q6 0 16 -4.5t10 -9.5q0 -12 -35 -49q-25 -27 -49 -42t-63 -15q-48 0 -87 26.5t-42 101.5v42q2 44 2.5 52t0.5 23q1 21 0 43q-5 89 -119 89h-121l-79 -229
q-19 -53 -19 -65q0 -25 -33 -24t35 0t68 -22q0 -16 -14 -16h-284q-15 0 -15 16q0 7 8 9q4 1 16 3q41 3 64 20q23 20 49 95l159 459q17 50 17 57q0 19 -9.5 23.5t-27.5 3.5t-25.5 1.5t-7.5 17.5q0 16 15 16h282q15 0 15 -16q0 -6 -8 -9q-7 -2 -16 -3q-41 -3 -63 -20
q-24 -19 -51 -95z" />
    <glyph glyph-name="adieresis" unicode="&#x41a;" horiz-adv-x="906" 
d="M383 578l-69 -193q142 -2 200 22q45 18 69.5 46.5t59.5 87.5q43 73 70.5 105.5t58.5 54.5q58 41 123 41q80 0 80 -54q0 -20 -16.5 -34.5t-41.5 -14.5q-36 0 -60 16q-18 11 -38 11q-32 0 -58 -29.5t-63 -94.5q-32 -58 -50.5 -85.5t-51 -50t-80.5 -27.5v-7q79 -9 117 -33
t47.5 -54t9.5 -81q0 -43 -1 -58t-3 -51q-2 -17 0 -32q3 -28 27 -28q26 0 45 26l3 3l6 6q7 6 13 15q9 14 14 14q6 0 16 -4.5t10 -9.5q0 -12 -35 -49q-25 -27 -49 -42t-63 -15q-48 0 -87 26.5t-42 101.5v42q2 44 2.5 52t0.5 23q1 21 0 43q-5 89 -119 89h-121l-79 -229
q-19 -53 -19 -65q0 -25 -33 -24t35 0t68 -22q0 -16 -14 -16h-284q-15 0 -15 16q0 7 8 9q4 1 16 3q41 3 64 20q23 20 49 95l159 459q17 50 17 57q0 19 -9.5 23.5t-27.5 3.5t-25.5 1.5t-7.5 17.5q0 16 15 16h282q15 0 15 -16q0 -6 -8 -9q-7 -2 -16 -3q-41 -3 -63 -20
q-24 -19 -51 -95z" />
    <glyph glyph-name="atilde" unicode="&#xcb;" horiz-adv-x="932" 
d="M776 689h-111q-65 0 -102 -46q-28 -36 -73 -129q-48 -101 -125 -229.5t-132 -194.5q-47 -55 -91.5 -83t-104.5 -28q-43 0 -67.5 20t-24.5 45q0 24 19.5 41t55.5 17q25 0 48 -17q33 -21 55 -21q48 0 120 105t153 247q93 173 93 217q0 43 -50 54q-15 3 -22 4.5t-9.5 4
t-2.5 9.5q0 16 14 16h566q15 0 15 -15q0 -8 -8 -10q-7 -2 -20 -3q-37 -2 -59.5 -20t-42.5 -76l-162 -470q-19 -53 -19 -65q0 -18 13.5 -25t38.5 -11q18 -4 18 -10q0 -16 -14 -16h-284q-15 0 -15 16q0 6 8 9q7 2 16 3q41 3 64 20q21 17 49 95z" />
    <glyph glyph-name="atilde" unicode="&#x41b;" horiz-adv-x="932" 
d="M776 689h-111q-65 0 -102 -46q-28 -36 -73 -129q-48 -101 -125 -229.5t-132 -194.5q-47 -55 -91.5 -83t-104.5 -28q-43 0 -67.5 20t-24.5 45q0 24 19.5 41t55.5 17q25 0 48 -17q33 -21 55 -21q48 0 120 105t153 247q93 173 93 217q0 43 -50 54q-15 3 -22 4.5t-9.5 4
t-2.5 9.5q0 16 14 16h566q15 0 15 -15q0 -8 -8 -10q-7 -2 -20 -3q-37 -2 -59.5 -20t-42.5 -76l-162 -470q-19 -53 -19 -65q0 -18 13.5 -25t38.5 -11q18 -4 18 -10q0 -16 -14 -16h-284q-15 0 -15 16q0 6 8 9q7 2 16 3q41 3 64 20q21 17 49 95z" />
    <glyph glyph-name="aring" unicode="&#xcc;" horiz-adv-x="1183" 
d="M834 143l158 452h-6l-529 -602q-13 -16 -24 -14t-13 14l-100 612h-6l-177 -513q-7 -28 -7 -30q0 -18 13 -24.5t38 -11.5q19 -3 19 -10q0 -16 -15 -16h-204q-15 0 -15 16q0 7 8 9q4 1 16 3q41 3 64 20q23 20 49 95l157 451q14 45 14 65q0 27 -54 36q-3 1 -8 1.5t-7.5 2.5
t-2.5 6q0 16 14 16h214l96 -593l520 593h190q15 0 15 -15q0 -8 -8 -10q-7 -2 -19 -3q-37 -2 -59 -19.5t-43 -76.5l-163 -470q-19 -59 -19 -65q0 -18 13.5 -25t38.5 -11q18 -4 18 -10q0 -16 -14 -16h-283q-16 0 -16 16q0 7 9 9q6 2 15 3q41 3 64 20q23 20 49 95z" />
    <glyph glyph-name="aring" unicode="&#x41c;" horiz-adv-x="1183" 
d="M834 143l158 452h-6l-529 -602q-13 -16 -24 -14t-13 14l-100 612h-6l-177 -513q-7 -28 -7 -30q0 -18 13 -24.5t38 -11.5q19 -3 19 -10q0 -16 -15 -16h-204q-15 0 -15 16q0 7 8 9q4 1 16 3q41 3 64 20q23 20 49 95l157 451q14 45 14 65q0 27 -54 36q-3 1 -8 1.5t-7.5 2.5
t-2.5 6q0 16 14 16h214l96 -593l520 593h190q15 0 15 -15q0 -8 -8 -10q-7 -2 -19 -3q-37 -2 -59 -19.5t-43 -76.5l-163 -470q-19 -59 -19 -65q0 -18 13.5 -25t38.5 -11q18 -4 18 -10q0 -16 -14 -16h-283q-16 0 -16 16q0 7 9 9q6 2 15 3q41 3 64 20q23 20 49 95z" />
    <glyph glyph-name="ccedilla" unicode="&#xcd;" horiz-adv-x="997" 
d="M103 143l156 451q18 54 18 65q0 20 -13.5 26t-37.5 10q-19 3 -19 10q0 16 14 16h284q15 0 15 -15q0 -11 -27 -13q-36 -2 -59 -18.5t-44 -77.5l-66 -191h416l64 188q2 4 4.5 12.5t6.5 20.5q7 23 7 32q0 29 -52 36q-3 0 -7 1t-7.5 2.5t-3.5 6.5q0 16 14 16h285q14 0 14 -15
q0 -11 -27 -13q-36 -2 -59 -18.5t-44 -77.5l-163 -470q-18 -56 -18 -65q0 -18 13 -24.5t38 -11.5q19 -3 19 -10q0 -16 -14 -16h-284q-15 0 -15 16q0 7 8 9q7 2 16 3q41 3 63 20q24 20 50 95l80 231h-415l-85 -247q-19 -52 -19 -65q0 -25 -33 -24t35 0t68 -22q0 -16 -14 -16
h-284q-15 0 -15 16q0 7 8 9q4 1 16 3q41 3 64 20q23 20 49 95z" />
    <glyph glyph-name="ccedilla" unicode="&#x41d;" horiz-adv-x="997" 
d="M103 143l156 451q18 54 18 65q0 20 -13.5 26t-37.5 10q-19 3 -19 10q0 16 14 16h284q15 0 15 -15q0 -11 -27 -13q-36 -2 -59 -18.5t-44 -77.5l-66 -191h416l64 188q2 4 4.5 12.5t6.5 20.5q7 23 7 32q0 29 -52 36q-3 0 -7 1t-7.5 2.5t-3.5 6.5q0 16 14 16h285q14 0 14 -15
q0 -11 -27 -13q-36 -2 -59 -18.5t-44 -77.5l-163 -470q-18 -56 -18 -65q0 -18 13 -24.5t38 -11.5q19 -3 19 -10q0 -16 -14 -16h-284q-15 0 -15 16q0 7 8 9q7 2 16 3q41 3 63 20q24 20 50 95l80 231h-415l-85 -247q-19 -52 -19 -65q0 -25 -33 -24t35 0t68 -22q0 -16 -14 -16
h-284q-15 0 -15 16q0 7 8 9q4 1 16 3q41 3 64 20q23 20 49 95z" />
    <glyph glyph-name="eacute" unicode="&#xce;" horiz-adv-x="953" 
d="M68 362q32 92 110 180t196 144t257 56q176 0 249 -77t73 -173q0 -122 -79.5 -242t-213.5 -195.5t-291 -75.5q-169 0 -245.5 75.5t-76.5 174.5q0 69 21 133zM218 355q-30 -87 -30 -210q0 -58 52.5 -95.5t137.5 -37.5q139 0 232 84t140 189.5t61 180.5q10 62 0 109
q-14 62 -61.5 98t-129.5 36q-117 0 -227.5 -84.5t-174.5 -269.5z" />
    <glyph glyph-name="eacute" unicode="&#x41e;" horiz-adv-x="953" 
d="M68 362q32 92 110 180t196 144t257 56q176 0 249 -77t73 -173q0 -122 -79.5 -242t-213.5 -195.5t-291 -75.5q-169 0 -245.5 75.5t-76.5 174.5q0 69 21 133zM218 355q-30 -87 -30 -210q0 -58 52.5 -95.5t137.5 -37.5q139 0 232 84t140 189.5t61 180.5q10 62 0 109
q-14 62 -61.5 98t-129.5 36q-117 0 -227.5 -84.5t-174.5 -269.5z" />
    <glyph glyph-name="egrave" unicode="&#xcf;" horiz-adv-x="1009" 
d="M103 143l154 451q5 12 11 26t9.5 23.5t3.5 15.5q0 19 -11.5 23.5t-35 8.5t-23.5 14q0 16 15 16h836q15 0 15 -15q0 -8 -8 -10q-6 -2 -18 -3q-38 -2 -61.5 -19.5t-43.5 -78.5l-162 -468q-19 -59 -19 -65q0 -18 13.5 -25t38.5 -11q18 -4 18 -10q0 -16 -14 -16h-283
q-16 0 -16 16q0 7 8 9q6 1 16 3q41 3 64 20q25 22 49 95l160 459q3 11 3.5 13.5t4.5 13.5q5 15 5 27q0 25 -21 29t-67 4h-251q-48 0 -67 -22t-36 -70l-162 -470q-19 -53 -19 -65q0 -18 13.5 -25t38.5 -11q18 -4 18 -10q0 -16 -14 -16h-284q-15 0 -15 16q0 7 8 9q4 1 16 3
q41 3 64 20q22 18 49 95z" />
    <glyph glyph-name="egrave" unicode="&#x41f;" horiz-adv-x="1009" 
d="M103 143l154 451q5 12 11 26t9.5 23.5t3.5 15.5q0 19 -11.5 23.5t-35 8.5t-23.5 14q0 16 15 16h836q15 0 15 -15q0 -8 -8 -10q-6 -2 -18 -3q-38 -2 -61.5 -19.5t-43.5 -78.5l-162 -468q-19 -59 -19 -65q0 -18 13.5 -25t38.5 -11q18 -4 18 -10q0 -16 -14 -16h-283
q-16 0 -16 16q0 7 8 9q6 1 16 3q41 3 64 20q25 22 49 95l160 459q3 11 3.5 13.5t4.5 13.5q5 15 5 27q0 25 -21 29t-67 4h-251q-48 0 -67 -22t-36 -70l-162 -470q-19 -53 -19 -65q0 -18 13.5 -25t38.5 -11q18 -4 18 -10q0 -16 -14 -16h-284q-15 0 -15 16q0 7 8 9q4 1 16 3
q41 3 64 20q22 18 49 95z" />
    <glyph glyph-name="ecircumflex" unicode="&#xd0;" horiz-adv-x="766" 
d="M295 317l-67 -190q-19 -52 -19 -65q0 -18 13.5 -25t38.5 -11q18 -4 18 -10q0 -16 -14 -16h-284q-15 0 -15 16q0 7 8 9q4 1 16 3q41 3 64 20q23 20 49 95l157 451q3 9 4.5 14t5.5 19q7 23 7 32q0 16 -11.5 24t-39.5 12q-19 3 -19 10q0 16 14 16h356q236 0 236 -148
q0 -62 -44.5 -126.5t-160.5 -105.5t-313 -24zM402 626l-97 -279q170 -5 266 41t96 184q0 117 -144 117q-58 0 -82.5 -12.5t-38.5 -50.5z" />
    <glyph glyph-name="ecircumflex" unicode="&#x420;" horiz-adv-x="766" 
d="M295 317l-67 -190q-19 -52 -19 -65q0 -18 13.5 -25t38.5 -11q18 -4 18 -10q0 -16 -14 -16h-284q-15 0 -15 16q0 7 8 9q4 1 16 3q41 3 64 20q23 20 49 95l157 451q3 9 4.5 14t5.5 19q7 23 7 32q0 16 -11.5 24t-39.5 12q-19 3 -19 10q0 16 14 16h356q236 0 236 -148
q0 -62 -44.5 -126.5t-160.5 -105.5t-313 -24zM402 626l-97 -279q170 -5 266 41t96 184q0 117 -144 117q-58 0 -82.5 -12.5t-38.5 -50.5z" />
    <glyph glyph-name="edieresis" unicode="&#xd1;" horiz-adv-x="923" 
d="M980 698l-77 -217q-3 -7 -18.5 -8t-18.5 8v7q0 3 0.5 5.5t0.5 6.5q0 35 -11 80t-56 86.5t-134 41.5q-120 0 -229 -73t-176.5 -186t-67.5 -220q0 -49 17 -89t48 -69.5t68.5 -43.5t82.5 -14q104 0 210.5 59t143.5 142q8 17 14 22t24 5q14 0 14 -8q0 -9 -1 -12l-72 -210
q-4 -11 -18 -11q-10 0 -15 19l-12 34q-101 -42 -161.5 -58t-136.5 -16q-154 0 -253 73.5t-99 214.5q0 79 37 161t112.5 155t185 116t246.5 43q86 0 145.5 -15t139.5 -56l43 45q3 4 9.5 5.5t12 -2t5.5 -8.5q0 2 -2 -8v-2.5t-1 -2.5z" />
    <glyph glyph-name="edieresis" unicode="&#x421;" horiz-adv-x="923" 
d="M980 698l-77 -217q-3 -7 -18.5 -8t-18.5 8v7q0 3 0.5 5.5t0.5 6.5q0 35 -11 80t-56 86.5t-134 41.5q-120 0 -229 -73t-176.5 -186t-67.5 -220q0 -49 17 -89t48 -69.5t68.5 -43.5t82.5 -14q104 0 210.5 59t143.5 142q8 17 14 22t24 5q14 0 14 -8q0 -9 -1 -12l-72 -210
q-4 -11 -18 -11q-10 0 -15 19l-12 34q-101 -42 -161.5 -58t-136.5 -16q-154 0 -253 73.5t-99 214.5q0 79 37 161t112.5 155t185 116t246.5 43q86 0 145.5 -15t139.5 -56l43 45q3 4 9.5 5.5t12 -2t5.5 -8.5q0 2 -2 -8v-2.5t-1 -2.5z" />
    <glyph glyph-name="iacute" unicode="&#xd2;" horiz-adv-x="862" 
d="M616 689l-199 -589q-9 -28 -9 -38q0 -17 9 -21.5t27.5 -4.5t26 -2.5t7.5 -17.5q0 -16 -15 -16h-283q-15 0 -15 16q0 10 25 12q31 2 55.5 15.5t39.5 56.5l202 589h-33q-88 0 -150.5 -19t-94.5 -42t-61.5 -52.5t-40.5 -34.5q-5 -2 -17 0q-8 2 -12.5 5.5t-1.5 7.5l100 153
q6 9 17.5 12t26.5 3t28 -1h682q13 0 13 -9v-5l-5 -153q0 -10 -15 -13q-12 -4 -18 0q-2 1 -7 18q-16 58 -64 94t-181 36h-37z" />
    <glyph glyph-name="iacute" unicode="&#x422;" horiz-adv-x="862" 
d="M616 689l-199 -589q-9 -28 -9 -38q0 -17 9 -21.5t27.5 -4.5t26 -2.5t7.5 -17.5q0 -16 -15 -16h-283q-15 0 -15 16q0 10 25 12q31 2 55.5 15.5t39.5 56.5l202 589h-33q-88 0 -150.5 -19t-94.5 -42t-61.5 -52.5t-40.5 -34.5q-5 -2 -17 0q-8 2 -12.5 5.5t-1.5 7.5l100 153
q6 9 17.5 12t26.5 3t28 -1h682q13 0 13 -9v-5l-5 -153q0 -10 -15 -13q-12 -4 -18 0q-2 1 -7 18q-16 58 -64 94t-181 36h-37z" />
    <glyph glyph-name="igrave" unicode="&#xd3;" horiz-adv-x="832" 
d="M457 271l232 270q67 76 67 114q0 16 -7.5 21.5t-24.5 10.5q-3 1 -13.5 4t-14 5.5t-3.5 9.5q0 15 14 15h247q14 0 14 -16q0 -11 -18 -12q-35 -1 -66 -16t-52 -33t-42.5 -43.5t-47.5 -57.5l-343 -407q-134 -157 -288 -157q-49 0 -73.5 20.5t-24.5 44.5q0 23 20 40.5
t55 17.5q29 0 59 -24q31 -21 41 -25.5t30 -4.5q52 0 130 95l-115 478q-9 37 -22.5 50.5t-50.5 20.5q-21 3 -21 14q0 15 13 15h297q14 0 14 -16q0 -10 -25 -12q-38 -2 -49.5 -10.5t-11.5 -29.5q0 -12 3 -26z" />
    <glyph glyph-name="igrave" unicode="&#x423;" horiz-adv-x="832" 
d="M457 271l232 270q67 76 67 114q0 16 -7.5 21.5t-24.5 10.5q-3 1 -13.5 4t-14 5.5t-3.5 9.5q0 15 14 15h247q14 0 14 -16q0 -11 -18 -12q-35 -1 -66 -16t-52 -33t-42.5 -43.5t-47.5 -57.5l-343 -407q-134 -157 -288 -157q-49 0 -73.5 20.5t-24.5 44.5q0 23 20 40.5
t55 17.5q29 0 59 -24q31 -21 41 -25.5t30 -4.5q52 0 130 95l-115 478q-9 37 -22.5 50.5t-50.5 20.5q-21 3 -21 14q0 15 13 15h297q14 0 14 -16q0 -10 -25 -12q-38 -2 -49.5 -10.5t-11.5 -29.5q0 -12 3 -26z" />
    <glyph glyph-name="icircumflex" unicode="&#xd4;" horiz-adv-x="983" 
d="M514 -21h-253q-16 0 -16 17q0 10 18 10q32 1 52 11t29.5 23t15.5 28q5 10 8 15q-185 8 -253 80.5t-68 149.5q0 78 59 154t172.5 124.5t268.5 47.5v1q10 20 10 40q0 19 -13 25.5t-38 10.5q-4 1 -9 1.5t-7.5 2.5t-2.5 5q0 17 15 17h266q15 0 15 -17q0 -7 -7 -8
q-10 -2 -11.5 -2t-4.5 -1q-9 0 -21 -3q-58 -11 -78 -72h11q45 0 96 -10.5t102 -36t85.5 -71t34.5 -113.5q0 -57 -33 -114.5t-96.5 -106t-159 -77t-218.5 -27.5l-3 -9q-7 -17 -7 -33q0 -27 44 -35q26 -3 26 -10q0 -17 -13 -16h-2q-4 0 -7 -0.5t-7 -0.5zM655 597l-151 -473
q109 6 188 54.5t119.5 120.5t40.5 148q0 55 -30.5 88t-74 47.5t-80.5 14.5h-12zM374 124l152 472q-109 -6 -187 -57t-117 -124.5t-39 -142.5q0 -78 60.5 -113t120.5 -35h10z" />
    <glyph glyph-name="icircumflex" unicode="&#x424;" horiz-adv-x="983" 
d="M514 -21h-253q-16 0 -16 17q0 10 18 10q32 1 52 11t29.5 23t15.5 28q5 10 8 15q-185 8 -253 80.5t-68 149.5q0 78 59 154t172.5 124.5t268.5 47.5v1q10 20 10 40q0 19 -13 25.5t-38 10.5q-4 1 -9 1.5t-7.5 2.5t-2.5 5q0 17 15 17h266q15 0 15 -17q0 -7 -7 -8
q-10 -2 -11.5 -2t-4.5 -1q-9 0 -21 -3q-58 -11 -78 -72h11q45 0 96 -10.5t102 -36t85.5 -71t34.5 -113.5q0 -57 -33 -114.5t-96.5 -106t-159 -77t-218.5 -27.5l-3 -9q-7 -17 -7 -33q0 -27 44 -35q26 -3 26 -10q0 -17 -13 -16h-2q-4 0 -7 -0.5t-7 -0.5zM655 597l-151 -473
q109 6 188 54.5t119.5 120.5t40.5 148q0 55 -30.5 88t-74 47.5t-80.5 14.5h-12zM374 124l152 472q-109 -6 -187 -57t-117 -124.5t-39 -142.5q0 -78 60.5 -113t120.5 -35h10z" />
    <glyph glyph-name="idieresis" unicode="&#xd5;" horiz-adv-x="912" 
d="M526 424l191 145q29 20 56.5 50.5t27.5 56.5q0 21 -42 21q-27 0 -27 13q0 11 19 11h266q10 0 10 -4q0 -14 -19 -19q-65 -12 -159 -82l-294 -223l123 -242q39 -76 64 -102.5t56 -29.5q8 0 8 -9q0 -10 -14 -10h-339q-6 0 -6 9q0 10 21 12q50 5 71 11.5t21 32.5q0 31 -13 57
l-107 205l-196 -161q-49 -43 -74 -69t-25 -54q0 -14 14.5 -17.5t41.5 -3.5h5q15 0 15 -4q0 -18 -18 -18h-268q-10 0 -10 5q0 14 15 17q24 3 83 39q10 6 28.5 17.5t35 23t50.5 36.5t69 53l210 168l-123 236q-51 98 -105 102q-13 0 -13 5q0 19 24 19h319q8 0 10 -4q2 -3 0 -6
q-1 -8 -5 -9.5t-30 -5.5q-66 -11 -66 -60q0 -8 2.5 -15.5t6 -13.5t6.5 -12z" />
    <glyph glyph-name="idieresis" unicode="&#x425;" horiz-adv-x="912" 
d="M526 424l191 145q29 20 56.5 50.5t27.5 56.5q0 21 -42 21q-27 0 -27 13q0 11 19 11h266q10 0 10 -4q0 -14 -19 -19q-65 -12 -159 -82l-294 -223l123 -242q39 -76 64 -102.5t56 -29.5q8 0 8 -9q0 -10 -14 -10h-339q-6 0 -6 9q0 10 21 12q50 5 71 11.5t21 32.5q0 31 -13 57
l-107 205l-196 -161q-49 -43 -74 -69t-25 -54q0 -14 14.5 -17.5t41.5 -3.5h5q15 0 15 -4q0 -18 -18 -18h-268q-10 0 -10 5q0 14 15 17q24 3 83 39q10 6 28.5 17.5t35 23t50.5 36.5t69 53l210 168l-123 236q-51 98 -105 102q-13 0 -13 5q0 19 24 19h319q8 0 10 -4q2 -3 0 -6
q-1 -8 -5 -9.5t-30 -5.5q-66 -11 -66 -60q0 -8 2.5 -15.5t6 -13.5t6.5 -12z" />
    <glyph glyph-name="ntilde" unicode="&#xd6;" horiz-adv-x="1020" 
d="M96 124l163 470q18 54 18 65q0 26 -41 34q-12 2 -16.5 2.5t-8.5 3t-4 6.5q0 16 14 16h285q14 0 14 -15q0 -11 -27 -13q-43 -3 -64.5 -23t-45.5 -92l-156 -451h1l-3 -6v-2l-7 -19q-8 -27 -8 -35q0 -24 21.5 -29t63.5 -5h210q84 0 104 14.5t35 54.5l171 494q3 8 10.5 28.5
t7.5 36.5q0 18 -13 25.5t-37 10.5q-19 3 -19 10q0 16 14 16h284q14 0 14 -15q0 -8 -7 -10t-19 -3q-44 -3 -65 -23.5t-46 -91.5l-158 -459l-6 -19q-7 -16 -7 -31q0 -9 10.5 -18.5t22.5 -9.5h54q19 0 19 -9q0 -1 -2 -7l-77 -242q-2 -10 -5.5 -15t-17.5 -5q-22 0 -22 15
q0 3 5 23.5t7.5 36t2.5 34.5q0 71 -25 100t-55 29h-11q-3 -1 -11 -1h-677q-20 0 -20 16q0 10 25 12q41 3 63 20q19 16 41 74z" />
    <glyph glyph-name="ntilde" unicode="&#x426;" horiz-adv-x="1020" 
d="M96 124l163 470q18 54 18 65q0 26 -41 34q-12 2 -16.5 2.5t-8.5 3t-4 6.5q0 16 14 16h285q14 0 14 -15q0 -11 -27 -13q-43 -3 -64.5 -23t-45.5 -92l-156 -451h1l-3 -6v-2l-7 -19q-8 -27 -8 -35q0 -24 21.5 -29t63.5 -5h210q84 0 104 14.5t35 54.5l171 494q3 8 10.5 28.5
t7.5 36.5q0 18 -13 25.5t-37 10.5q-19 3 -19 10q0 16 14 16h284q14 0 14 -15q0 -8 -7 -10t-19 -3q-44 -3 -65 -23.5t-46 -91.5l-158 -459l-6 -19q-7 -16 -7 -31q0 -9 10.5 -18.5t22.5 -9.5h54q19 0 19 -9q0 -1 -2 -7l-77 -242q-2 -10 -5.5 -15t-17.5 -5q-22 0 -22 15
q0 3 5 23.5t7.5 36t2.5 34.5q0 71 -25 100t-55 29h-11q-3 -1 -11 -1h-677q-20 0 -20 16q0 10 25 12q41 3 63 20q19 16 41 74z" />
    <glyph glyph-name="oacute" unicode="&#xd7;" horiz-adv-x="848" 
d="M497 143l72 206q-100 -33 -184 -33q-142 0 -194.5 38.5t-52.5 85.5q0 23 21 87l23 75q3 8 8 21t7 20t2 16q0 28 -50 35q-10 2 -15 2.5t-8 2.5t-3 6q0 16 14 16h280q16 0 16 -15q0 -8 -9 -10q-10 -2 -12.5 -2t-6.5 -1q-31 -1 -48 -10.5t-26 -23.5t-14.5 -35t-13.5 -46
l-17 -51q-19 -62 -19 -82q0 -88 134 -88q93 0 182 34l73 211q17 48 17 57q0 18 -12 24.5t-39 11.5q-19 2 -19 10q0 16 14 16h284q15 0 15 -15q0 -11 -27 -13q-28 -2 -44 -8.5t-31.5 -28.5t-35.5 -78l-156 -451q-3 -9 -7 -20t-7.5 -22t-3.5 -23q0 -17 11.5 -24t38.5 -12
q19 -4 19 -10q0 -16 -15 -16h-283q-15 0 -15 16q0 10 23 12q45 4 64 20q24 19 50 95z" />
    <glyph glyph-name="oacute" unicode="&#x427;" horiz-adv-x="848" 
d="M497 143l72 206q-100 -33 -184 -33q-142 0 -194.5 38.5t-52.5 85.5q0 23 21 87l23 75q3 8 8 21t7 20t2 16q0 28 -50 35q-10 2 -15 2.5t-8 2.5t-3 6q0 16 14 16h280q16 0 16 -15q0 -8 -9 -10q-10 -2 -12.5 -2t-6.5 -1q-31 -1 -48 -10.5t-26 -23.5t-14.5 -35t-13.5 -46
l-17 -51q-19 -62 -19 -82q0 -88 134 -88q93 0 182 34l73 211q17 48 17 57q0 18 -12 24.5t-39 11.5q-19 2 -19 10q0 16 14 16h284q15 0 15 -15q0 -11 -27 -13q-28 -2 -44 -8.5t-31.5 -28.5t-35.5 -78l-156 -451q-3 -9 -7 -20t-7.5 -22t-3.5 -23q0 -17 11.5 -24t38.5 -12
q19 -4 19 -10q0 -16 -15 -16h-283q-15 0 -15 16q0 10 23 12q45 4 64 20q24 19 50 95z" />
    <glyph glyph-name="ograve" unicode="&#xd8;" horiz-adv-x="1319" 
d="M103 143l157 451q18 57 18 65q0 27 -51 36q-19 3 -19 10q0 16 14 16h284q15 0 15 -15q0 -8 -8 -10q-6 -2 -19 -3q-31 -2 -46.5 -8.5t-29 -27.5t-34.5 -79l-158 -459q-16 -45 -16 -61q0 -19 19 -23t66 -4h84q57 0 84.5 7.5t40 26t25.5 59.5l163 470q19 53 19 65
q0 18 -12 24.5t-39 11.5q-19 2 -19 10q0 16 14 16h284q15 0 15 -15q0 -11 -27 -13q-42 -4 -63.5 -22.5t-46.5 -92.5l-159 -459q-14 -41 -14 -54q0 -34 87 -34h78q62 0 90 9t37 23.5t26 60.5l164 470q18 57 18 65q0 18 -14.5 25.5t-36.5 10.5q-3 1 -8.5 1.5t-8 2.5t-2.5 6
q0 16 15 16h283q15 0 15 -15q0 -8 -8 -10q-7 -2 -19 -3q-29 -2 -47.5 -10.5t-32.5 -32.5t-30 -72l-159 -459q-19 -53 -19 -57q0 -18 8 -22t26.5 -3t27 -1.5t8.5 -19.5q0 -16 -14 -16h-1147q-15 0 -15 16q0 10 25 12q41 3 63 20q25 22 49 95z" />
    <glyph glyph-name="ograve" unicode="&#x428;" horiz-adv-x="1319" 
d="M103 143l157 451q18 57 18 65q0 27 -51 36q-19 3 -19 10q0 16 14 16h284q15 0 15 -15q0 -8 -8 -10q-6 -2 -19 -3q-31 -2 -46.5 -8.5t-29 -27.5t-34.5 -79l-158 -459q-16 -45 -16 -61q0 -19 19 -23t66 -4h84q57 0 84.5 7.5t40 26t25.5 59.5l163 470q19 53 19 65
q0 18 -12 24.5t-39 11.5q-19 2 -19 10q0 16 14 16h284q15 0 15 -15q0 -11 -27 -13q-42 -4 -63.5 -22.5t-46.5 -92.5l-159 -459q-14 -41 -14 -54q0 -34 87 -34h78q62 0 90 9t37 23.5t26 60.5l164 470q18 57 18 65q0 18 -14.5 25.5t-36.5 10.5q-3 1 -8.5 1.5t-8 2.5t-2.5 6
q0 16 15 16h283q15 0 15 -15q0 -8 -8 -10q-7 -2 -19 -3q-29 -2 -47.5 -10.5t-32.5 -32.5t-30 -72l-159 -459q-19 -53 -19 -57q0 -18 8 -22t26.5 -3t27 -1.5t8.5 -19.5q0 -16 -14 -16h-1147q-15 0 -15 16q0 10 25 12q41 3 63 20q25 22 49 95z" />
    <glyph glyph-name="ocircumflex" unicode="&#xd9;" horiz-adv-x="1331" 
d="M103 143l157 451q18 57 18 65q0 27 -51 36q-19 3 -19 10q0 16 14 16h284q15 0 15 -15q0 -8 -8 -10q-6 -2 -19 -3q-31 -2 -46.5 -8.5t-29 -27.5t-34.5 -79l-158 -459q-16 -45 -16 -61q0 -19 19 -23t66 -4h84q57 0 84.5 7.5t40 26t25.5 59.5l163 470q3 8 11 28t8 37
q0 19 -13.5 26t-37.5 10q-19 2 -19 10q0 16 14 16h284q15 0 15 -15q0 -11 -27 -13q-42 -4 -63.5 -22.5t-46.5 -92.5l-159 -459q-14 -41 -14 -54q0 -34 87 -34h78q62 0 90 9t37 23.5t26 60.5l164 470q18 57 18 65q0 18 -14.5 25.5t-36.5 10.5q-3 1 -8.5 1.5t-8 2.5t-2.5 6
q0 16 15 16h283q15 0 15 -15q0 -8 -8 -10q-7 -2 -19 -3q-27 -1 -46 -10t-33.5 -33t-30.5 -72l-158 -478q-6 -21 -6 -31q0 -11 11.5 -19.5t22.5 -8.5h53q23 0 18 -16l-78 -242q-6 -20 -22 -20q-24 0 -24 15q0 2 8.5 27.5t8.5 66.5q0 83 -29 105.5t-73 22.5h-1001
q-15 0 -15 16q0 10 25 12q41 3 63 20q25 22 49 95z" />
    <glyph glyph-name="ocircumflex" unicode="&#x429;" horiz-adv-x="1331" 
d="M103 143l157 451q18 57 18 65q0 27 -51 36q-19 3 -19 10q0 16 14 16h284q15 0 15 -15q0 -8 -8 -10q-6 -2 -19 -3q-31 -2 -46.5 -8.5t-29 -27.5t-34.5 -79l-158 -459q-16 -45 -16 -61q0 -19 19 -23t66 -4h84q57 0 84.5 7.5t40 26t25.5 59.5l163 470q3 8 11 28t8 37
q0 19 -13.5 26t-37.5 10q-19 2 -19 10q0 16 14 16h284q15 0 15 -15q0 -11 -27 -13q-42 -4 -63.5 -22.5t-46.5 -92.5l-159 -459q-14 -41 -14 -54q0 -34 87 -34h78q62 0 90 9t37 23.5t26 60.5l164 470q18 57 18 65q0 18 -14.5 25.5t-36.5 10.5q-3 1 -8.5 1.5t-8 2.5t-2.5 6
q0 16 15 16h283q15 0 15 -15q0 -8 -8 -10q-7 -2 -19 -3q-27 -1 -46 -10t-33.5 -33t-30.5 -72l-158 -478q-6 -21 -6 -31q0 -11 11.5 -19.5t22.5 -8.5h53q23 0 18 -16l-78 -242q-6 -20 -22 -20q-24 0 -24 15q0 2 8.5 27.5t8.5 66.5q0 83 -29 105.5t-73 22.5h-1001
q-15 0 -15 16q0 10 25 12q41 3 63 20q25 22 49 95z" />
    <glyph glyph-name="odieresis" unicode="&#xda;" horiz-adv-x="849" 
d="M467 578l-60 -171q47 3 110 3q114 0 177.5 -28t85.5 -66.5t22 -77.5q0 -54 -31 -108t-109 -92t-208 -38h-390q-16 0 -16 16q0 6 9 9q6 2 15 3q41 2 64 20q24 21 49 95l160 459q14 40 14 54q0 34 -55 34q-155 0 -276 -126q-12 -14 -39 -14q-8 0 -10 7q-1 3 0 5q0 1 2 3
l94 135q12 21 29 21h485q15 0 15 -15q0 -8 -8 -10q-7 -2 -19 -3q-44 -3 -65 -24t-45 -91zM400 375l-81 -224q-21 -59 -21 -72q0 -29 23.5 -39t70.5 -10q125 0 195.5 66t70.5 144q0 52 -43 95t-149 43q-37 0 -66 -3z" />
    <glyph glyph-name="odieresis" unicode="&#x42a;" horiz-adv-x="849" 
d="M467 578l-60 -171q47 3 110 3q114 0 177.5 -28t85.5 -66.5t22 -77.5q0 -54 -31 -108t-109 -92t-208 -38h-390q-16 0 -16 16q0 6 9 9q6 2 15 3q41 2 64 20q24 21 49 95l160 459q14 40 14 54q0 34 -55 34q-155 0 -276 -126q-12 -14 -39 -14q-8 0 -10 7q-1 3 0 5q0 1 2 3
l94 135q12 21 29 21h485q15 0 15 -15q0 -8 -8 -10q-7 -2 -19 -3q-44 -3 -65 -24t-45 -91zM400 375l-81 -224q-21 -59 -21 -72q0 -29 23.5 -39t70.5 -10q125 0 195.5 66t70.5 144q0 52 -43 95t-149 43q-37 0 -66 -3z" />
    <glyph glyph-name="otilde" unicode="&#xdb;" horiz-adv-x="1146" 
d="M384 578l-60 -171q45 3 110 3q152 0 219 -49.5t67 -122.5q0 -54 -31 -108t-109 -92t-208 -38h-391q-15 0 -15 16q0 7 8 9q4 1 16 3q41 3 64 20q23 20 49 95l159 459l8.5 21.5t8.5 35.5q0 19 -13.5 25.5t-37.5 10.5q-19 3 -19 10q0 16 15 16h283q15 0 15 -16q0 -7 -8 -9
q-6 -1 -15 -3q-30 -2 -45 -9q-27 -11 -40 -35t-30 -71zM312 372l-75 -221q-4 -13 -9 -24l-1 -1q-12 -32 -12 -47q0 -30 21.5 -39.5t68.5 -9.5q86 0 147.5 31.5t92 80t30.5 98.5q0 87 -65 111t-141 24q-13 0 -19.5 -0.5t-17.5 -1t-20 -1.5zM798 143l159 459l6 19q7 19 7 35
q0 15 -9.5 21.5t-32.5 11.5q-12 2 -18 3.5t-7.5 3.5t-1.5 9q0 16 15 16h283q15 0 15 -16q0 -8 -5 -11.5t-22 -4.5q-47 -4 -65 -21t-28 -47l-171 -494l-10 -27q-9 -18 -9 -35q0 -28 51 -34q14 -2 16 -4.5t2 -10.5q0 -16 -14 -16h-283q-15 0 -15 16q0 9 4.5 12t23.5 4
q36 4 57 16t36 52z" />
    <glyph glyph-name="otilde" unicode="&#x42b;" horiz-adv-x="1146" 
d="M384 578l-60 -171q45 3 110 3q152 0 219 -49.5t67 -122.5q0 -54 -31 -108t-109 -92t-208 -38h-391q-15 0 -15 16q0 7 8 9q4 1 16 3q41 3 64 20q23 20 49 95l159 459l8.5 21.5t8.5 35.5q0 19 -13.5 25.5t-37.5 10.5q-19 3 -19 10q0 16 15 16h283q15 0 15 -16q0 -7 -8 -9
q-6 -1 -15 -3q-30 -2 -45 -9q-27 -11 -40 -35t-30 -71zM312 372l-75 -221q-4 -13 -9 -24l-1 -1q-12 -32 -12 -47q0 -30 21.5 -39.5t68.5 -9.5q86 0 147.5 31.5t92 80t30.5 98.5q0 87 -65 111t-141 24q-13 0 -19.5 -0.5t-17.5 -1t-20 -1.5zM798 143l159 459l6 19q7 19 7 35
q0 15 -9.5 21.5t-32.5 11.5q-12 2 -18 3.5t-7.5 3.5t-1.5 9q0 16 15 16h283q15 0 15 -16q0 -8 -5 -11.5t-22 -4.5q-47 -4 -65 -21t-28 -47l-171 -494l-10 -27q-9 -18 -9 -35q0 -28 51 -34q14 -2 16 -4.5t2 -10.5q0 -16 -14 -16h-283q-15 0 -15 16q0 9 4.5 12t23.5 4
q36 4 57 16t36 52z" />
    <glyph glyph-name="uacute" unicode="&#xdc;" horiz-adv-x="766" 
d="M384 578l-60 -171q45 3 110 3q152 0 219 -49.5t67 -122.5q0 -54 -31 -108t-109 -92t-209 -38h-390q-15 0 -15 16q0 10 25 12q41 3 63 20q25 22 49 95l159 459q8 18 12.5 30.5t4.5 26.5q0 18 -13.5 25t-37.5 11q-19 3 -19 10q0 16 15 16h283q15 0 15 -15q0 -8 -8 -10
q-7 -2 -20 -3q-43 -3 -64.5 -24t-45.5 -91zM312 372l-75 -221q0 -2 -3 -8t-6 -16l-1 -1q-12 -32 -12 -47q0 -30 21.5 -39.5t68.5 -9.5q86 0 148 32t92.5 81t30.5 97q0 55 -45.5 95t-161.5 40q-13 0 -19.5 -0.5t-17.5 -1t-20 -1.5z" />
    <glyph glyph-name="uacute" unicode="&#x42c;" horiz-adv-x="766" 
d="M384 578l-60 -171q45 3 110 3q152 0 219 -49.5t67 -122.5q0 -54 -31 -108t-109 -92t-209 -38h-390q-15 0 -15 16q0 10 25 12q41 3 63 20q25 22 49 95l159 459q8 18 12.5 30.5t4.5 26.5q0 18 -13.5 25t-37.5 11q-19 3 -19 10q0 16 15 16h283q15 0 15 -15q0 -8 -8 -10
q-7 -2 -20 -3q-43 -3 -64.5 -24t-45.5 -91zM312 372l-75 -221q0 -2 -3 -8t-6 -16l-1 -1q-12 -32 -12 -47q0 -30 21.5 -39.5t68.5 -9.5q86 0 148 32t92.5 81t30.5 97q0 55 -45.5 95t-161.5 40q-13 0 -19.5 -0.5t-17.5 -1t-20 -1.5z" />
    <glyph glyph-name="ugrave" unicode="&#xdd;" horiz-adv-x="906" 
d="M754 354h-362q-13 0 -13 21t26 21h357q16 59 16 134q0 83 -52 130t-134 47q-88 0 -190.5 -42.5t-168.5 -127.5q-12 -17 -30 -17q-15 0 -15 5q0 9 2 11l76 176q4 8 14.5 8t15.5 -8l20 -37q161 67 296 67q294 0 294 -324q0 -84 -42 -162.5t-121 -141t-189.5 -99
t-237.5 -36.5q-138 0 -220.5 55t-82.5 122q0 27 20.5 43.5t54.5 16.5q25 0 36 -11.5t11 -51.5q0 -142 192 -142q174 0 279.5 107t147.5 236z" />
    <glyph glyph-name="ugrave" unicode="&#x42d;" horiz-adv-x="906" 
d="M754 354h-362q-13 0 -13 21t26 21h357q16 59 16 134q0 83 -52 130t-134 47q-88 0 -190.5 -42.5t-168.5 -127.5q-12 -17 -30 -17q-15 0 -15 5q0 9 2 11l76 176q4 8 14.5 8t15.5 -8l20 -37q161 67 296 67q294 0 294 -324q0 -84 -42 -162.5t-121 -141t-189.5 -99
t-237.5 -36.5q-138 0 -220.5 55t-82.5 122q0 27 20.5 43.5t54.5 16.5q25 0 36 -11.5t11 -51.5q0 -142 192 -142q174 0 279.5 107t147.5 236z" />
    <glyph glyph-name="ucircumflex" unicode="&#xde;" horiz-adv-x="1271" 
d="M304 406h127q42 84 101.5 146.5t132.5 105t152 63.5t159 21q117 0 189.5 -37.5t102.5 -94.5t30 -118q0 -122 -79.5 -242t-214 -195.5t-290.5 -75.5q-137 0 -229.5 58.5t-92.5 191.5q0 95 24 141h-125l-84 -243q-19 -59 -19 -65q0 -18 13.5 -25t38.5 -11q19 -4 19 -10
q0 -16 -15 -16h-283q-16 0 -16 16q0 7 9 9q6 2 15 3q41 2 64 20q25 22 49 95l159 459q4 11 11.5 28t7.5 29q0 18 -12 24.5t-39 11.5q-3 1 -8 1.5t-7.5 2.5t-2.5 6q0 16 13 16h284q15 0 15 -15q0 -8 -8 -10q-7 -2 -19 -3q-44 -3 -63.5 -22.5t-46.5 -92.5zM562 355
q-22 -66 -28 -101q-12 -61 0 -109q29 -133 188 -133q123 0 216.5 73.5t146 178t70.5 202.5q10 62 0 109q-15 67 -65 100.5t-126 33.5q-117 0 -226.5 -84.5t-175.5 -269.5z" />
    <glyph glyph-name="ucircumflex" unicode="&#x42e;" horiz-adv-x="1271" 
d="M304 406h127q42 84 101.5 146.5t132.5 105t152 63.5t159 21q117 0 189.5 -37.5t102.5 -94.5t30 -118q0 -122 -79.5 -242t-214 -195.5t-290.5 -75.5q-137 0 -229.5 58.5t-92.5 191.5q0 95 24 141h-125l-84 -243q-19 -59 -19 -65q0 -18 13.5 -25t38.5 -11q19 -4 19 -10
q0 -16 -15 -16h-283q-16 0 -16 16q0 7 9 9q6 2 15 3q41 2 64 20q25 22 49 95l159 459q4 11 11.5 28t7.5 29q0 18 -12 24.5t-39 11.5q-3 1 -8 1.5t-7.5 2.5t-2.5 6q0 16 13 16h284q15 0 15 -15q0 -8 -8 -10q-7 -2 -19 -3q-44 -3 -63.5 -22.5t-46.5 -92.5zM562 355
q-22 -66 -28 -101q-12 -61 0 -109q29 -133 188 -133q123 0 216.5 73.5t146 178t70.5 202.5q10 62 0 109q-15 67 -65 100.5t-126 33.5q-117 0 -226.5 -84.5t-175.5 -269.5z" />
    <glyph glyph-name="udieresis" unicode="&#xdf;" horiz-adv-x="889" 
d="M617 346h-51q-62 0 -109.5 -25t-81.5 -63t-91 -115q-62 -83 -110.5 -123.5t-126.5 -40.5q-36 0 -62 25t-26 70q0 23 18 23q14 0 18 -18q7 -44 42 -44q18 0 29.5 13.5t32.5 44.5q82 121 149 175.5t213 82.5l1 11q-142 8 -181.5 56t-39.5 112q0 191 412 191h288
q16 0 16 -15q0 -8 -8 -10q-6 -2 -19 -3q-38 -2 -61.5 -20t-48.5 -94l-147 -450q-19 -54 -19 -65q0 -25 -8.5 -25t35 1.5t43.5 -21.5q0 -17 -12 -16h-2q-4 0 -7.5 -0.5t-7.5 -0.5h-269q-14 0 -14 17q0 10 18 10q7 0 26 4q23 4 35.5 10.5t25 27t31.5 74.5zM625 378l83 233
q1 5 4 12q2 4 2.5 5.5t0.5 3.5q4 14 4 22q0 24 -15 29.5t-54 5.5q-87 0 -146.5 -25.5t-90 -64.5t-30.5 -81q0 -67 43 -103.5t152 -36.5h47z" />
    <glyph glyph-name="udieresis" unicode="&#x42f;" horiz-adv-x="889" 
d="M617 346h-51q-62 0 -109.5 -25t-81.5 -63t-91 -115q-62 -83 -110.5 -123.5t-126.5 -40.5q-36 0 -62 25t-26 70q0 23 18 23q14 0 18 -18q7 -44 42 -44q18 0 29.5 13.5t32.5 44.5q82 121 149 175.5t213 82.5l1 11q-142 8 -181.5 56t-39.5 112q0 191 412 191h288
q16 0 16 -15q0 -8 -8 -10q-6 -2 -19 -3q-38 -2 -61.5 -20t-48.5 -94l-147 -450q-19 -54 -19 -65q0 -25 -8.5 -25t35 1.5t43.5 -21.5q0 -17 -12 -16h-2q-4 0 -7.5 -0.5t-7.5 -0.5h-269q-14 0 -14 17q0 10 18 10q7 0 26 4q23 4 35.5 10.5t25 27t31.5 74.5zM625 378l83 233
q1 5 4 12q2 4 2.5 5.5t0.5 3.5q4 14 4 22q0 24 -15 29.5t-54 5.5q-87 0 -146.5 -25.5t-90 -64.5t-30.5 -81q0 -67 43 -103.5t152 -36.5h47z" />
    <glyph glyph-name="dagger" unicode="&#x2020;" horiz-adv-x="496" 
d="M301 549l-5 -14h4q39 0 94 19q47 20 59 20q20 0 27 -14q9 -12 0 -36q-7 -21 -25 -36q-15 -12 -36 -12q-15 0 -48 20q-34 20 -69 20h-12l-9 -24q-24 -69 -31 -118q-7 -45 2 -83q-52 -99 -96 -192q-40 -91 -81 -212l-11 -32l-30 -88h-16l36 105q33 99 62 210q29 117 42 209
q29 32 60 88q19 36 50 114l8 24q-43 0 -92 -20q-48 -21 -61 -21q-21 0 -32 12q-8 12 -1 34t25 37t39 15q14 0 45 -19q33 -18 70 -18h12q3 9 4 11q2 9 8 18q18 51 23 121q6 63 8 68q6 19 25 40q13 12 35 15q18 0 25 -15q4 -18 -3 -40q-2 -6 -40 -66q-34 -54 -61 -126l-3 -9
q-3 -3 -1 -5z" />
    <glyph glyph-name="degree" unicode="&#xb0;" horiz-adv-x="263" 
d="M46 674q14 33 47 50.5t66 17.5q30 0 46 -13.5t16 -35.5q0 -31 -35.5 -59t-82.5 -28q-62 0 -62 47q0 4 5 21zM82 674q-7 -17 -7 -31q0 -31 31 -31q33 0 57 31q25 32 25 62q0 29 -31 29q-49 0 -75 -60z" />
    <glyph glyph-name="cent" horiz-adv-x="498" 
d="M310 459l50 146q1 3 4 6q4 2 10 2t8 -2q2 -4 2 -6l-49 -143q59 -1 82 -16q22 -14 13 -42q-11 -33 -20 -46q-5 -12 -14 -14q-6 0 -16 50q-12 48 -51 51l-140 -406q4 0 6 -1h10q49 0 104 43q11 9 13 9q3 0 3 -1q1 -1 1 -2.5v-2.5q-4 -11 -17 -21q-16 -14 -33 -24
q-22 -14 -48 -22q-17 -4 -48 -6l-59 -170q-1 -3 -6 -8q-1 -1 -10 -1q-6 0 -8 1v8l59 170q-70 9 -96 69q-24 54 7 148q32 93 96 152q64 61 147 79zM167 45l137 397q-55 -16 -100 -67q-39 -48 -70 -134q-28 -81 -18 -129q9 -50 51 -67z" />
    <glyph glyph-name="sterling" horiz-adv-x="624" 
d="M399 449q5 -22 6 -29l8 -32h112q6 0 7 -2q2 -4 0 -9l-2 -5q-3 -10 -7 -12q-1 -1 -9 -3h-100q2 -17 -1 -42q0 -15 -9 -42q-13 -36 -32 -63q-20 -35 -55 -80q43 -46 55 -56q20 -12 36 -12q27 0 55 24q29 26 38 52q4 14 0 23q0 11 -21 18q-13 3 -17 16t1 26q8 20 21 32
q15 11 31 12q26 0 33 -23q9 -23 -5 -61q-22 -65 -87 -126q-63 -58 -109 -60q-30 0 -49 16q-22 20 -41 61q-48 -39 -89 -58q-37 -18 -74 -20q-43 0 -61 28q-17 28 -2 72q17 47 58 78q43 31 92 31q25 0 53 -15q23 -11 61 -44q9 14 13 19.5t8 10.5l6 14l6 14q12 36 12 73
q-2 42 -15 82h-119q-5 0 -7 3q-1 1 0 10q5 11 8 14q3 4 12 4h100q-16 39 -19 94q0 46 16 97q31 88 108 155q76 67 151 67q43 0 70 -17q28 -15 20 -39q-9 -23 -26 -44q-17 -24 -28 -24q-6 0 -23 47q-15 49 -48 49q-39 0 -83 -41q-44 -39 -64 -98q-23 -66 5 -185zM186 42
q27 15 59 51q-15 47 -31 64q-15 18 -37 18t-42 -20q-19 -21 -32 -52q-11 -33 -3 -57q9 -22 34 -22q22 0 52 18z" />
    <glyph glyph-name="section" unicode="&#xa7;" horiz-adv-x="888" 
d="M537 497l96 -132q50 -68 50 -121q0 -56 -51 -94t-137 -71q39 -72 39 -107q0 -36 -27.5 -75t-85.5 -65.5t-143 -26.5q-60 0 -133.5 28.5t-73.5 70.5q0 19 16 33.5t42 14.5q28 0 41.5 -16t20.5 -35q22 -64 98 -64q50 0 99.5 19t49.5 77q0 45 -32 92l-119 166
q-23 33 -35 57.5t-12 57.5q0 116 194 176q-7 11 -16.5 24t-16.5 27t-10 24.5t-3 26.5q0 68 62 114.5t166 46.5q58 0 102.5 -13.5t68.5 -32.5t24 -39q0 -14 -11 -25.5t-33 -11.5q-29 0 -45 13.5t-31 37.5q-29 43 -91 43q-52 0 -81.5 -26.5t-35.5 -53.5q-4 -13 0 -36
q6 -36 54 -104zM564 293l-127 161q-109 -35 -109 -109q0 -47 40 -100l115 -140q51 24 79 47.5t28 56.5q0 24 -7 47t-19 37z" />
    <glyph glyph-name="bullet" unicode="&#xb7;" horiz-adv-x="330" 
d="M86 360q0 26 23.5 47t59.5 21t59 -20.5t23 -47.5q0 -26 -23.5 -46.5t-58.5 -20.5q-34 0 -58.5 21t-24.5 46z" />
    <glyph glyph-name="bullet" unicode="&#x2022;" horiz-adv-x="330" 
d="M86 360q0 26 23.5 47t59.5 21t59 -20.5t23 -47.5q0 -26 -23.5 -46.5t-58.5 -20.5q-34 0 -58.5 21t-24.5 46z" />
    <glyph glyph-name="paragraph" unicode="&#xb6;" horiz-adv-x="481" 
d="M26 -200l204 593q-87 0 -129 51.5t-18 118.5t100.5 119t163.5 51h49l-321 -933h-49zM190 -200l321 933h49l-321 -933h-49z" />
    <glyph glyph-name="germandbls" unicode="&#xb2;" horiz-adv-x="477" 
d="M116 143l160 459q7 18 13 33.5t6 23.5q0 18 -14 25.5t-38 10.5q-3 1 -8 1.5t-7.5 2.5t-2.5 6q0 16 13 16h284q16 0 16 -15q0 -8 -9 -10q-7 -2 -19 -3q-44 -3 -65 -24t-45 -91l-159 -451q-19 -59 -19 -65q0 -18 13.5 -25t38.5 -11q19 -4 19 -10q0 -16 -15 -16h-283
q-16 0 -16 16q0 6 9 9q6 2 15 3q41 2 64 20q23 20 49 95zM348 836q0 22 19 38.5t46 16.5q28 0 47 -16.5t19 -38.5q0 -21 -18.5 -38t-47.5 -17q-28 0 -46.5 17.5t-18.5 37.5z" />
    <glyph glyph-name="registered" unicode="&#xae;" horiz-adv-x="1019" 
d="M472 766q91 38 193 41q72 0 129 -25q60 -24 100 -70q50 -55 61 -142q11 -85 -21 -178q-24 -71 -72 -137q-47 -66 -114 -124q-84 -72 -179 -112q-97 -38 -192 -38q-73 0 -129 23t-98 68q-54 64 -64 143t23 179q25 73 70 137q47 68 112 123q80 70 181 112zM869 653
q-68 107 -220 109q-150 0 -295 -109q-141 -104 -196 -259q-53 -154 17 -261q67 -105 220 -108q150 0 295 108q145 111 196 261q52 152 -17 259zM376 613l8 24h233q89 0 125 -33q38 -28 21 -85q-16 -42 -66 -73q-50 -27 -146 -45q53 -19 68 -47q21 -25 15 -78q0 -9 -5 -37
q-10 -52 17 -52q19 0 38 19q19 23 31 59h23l-5 -16q-16 -45 -49 -70q-34 -26 -75 -26q-26 0 -45 11q-14 13 -17 30q-1 23 12 66q14 38 14 58q2 42 -24 58q-18 18 -73 20h-11q-3 0 -5 -1h-8l-51 -148q-12 -33 0 -46q11 -11 57 -13l-9 -24h-228l9 24q46 2 67 15q19 10 31 44
l105 305q12 35 -1 45q-11 13 -56 16zM513 572l-54 -156q21 0 34 -1h5q74 0 118 27q47 25 65 77q15 45 -8 71t-80 26q-32 0 -53 -12q-20 -11 -27 -32z" />
    <glyph glyph-name="copyright" unicode="&#xa9;" horiz-adv-x="1019" 
d="M469 760q91 38 193 41q82 0 144 -33q71 -34 104 -88q37 -57 43 -135q5 -81 -21 -157q-29 -85 -88 -158q-59 -80 -135 -135q-74 -55 -166 -91q-93 -31 -167 -31q-83 0 -148 31q-66 35 -102 91q-39 59 -43 135q-6 70 23 158q25 73 70 137q47 68 112 123q80 70 181 112z
M866 648q-68 106 -220 108q-150 0 -295 -109q-141 -104 -196 -259q-53 -154 17 -261q67 -105 220 -108q150 0 295 108q144 111 196 261q51 151 -17 260zM745 605q12 9 23 28h18l-63 -183h-22q8 82 -20 120q-27 42 -92 42q-73 0 -132 -57q-53 -51 -95 -166q-38 -110 -17 -169
q23 -57 102 -57q47 0 101 26q51 27 102 78l15 -15q-56 -60 -117 -91q-60 -30 -128 -30q-98 0 -140 73q-45 72 -10 174q37 109 133 184q93 75 192 75q44 0 80 -20q36 -21 41 -21q19 0 29 9z" />
    <glyph glyph-name="trademark" horiz-adv-x="1019" 
d="M558 771l6 16h107l2 -247l178 247h101l-5 -15l-19 -1q-12 0 -24 -9q-11 -9 -16 -23l-77 -225q-5 -12 0 -24q3 -9 18 -9h18l-6 -16h-141l6 16h20q13 0 23 10q7 5 16 23l83 242l-210 -292h-8l-5 292l-83 -242q-5 -12 -1 -23q8 -10 19 -10h19l-6 -16h-120l5 15l21 1
q13 0 23 9q8 7 16 23l77 225q5 16 0 23q-5 10 -18 10h-19zM197 681l43 106h266l-32 -106h-14q13 45 0 70q-12 21 -52 21h-14l-89 -258q-5 -13 0 -23q7 -10 18 -10h20l-6 -16h-149l6 16h20q10 0 22 9q9 9 16 24l89 258h-14q-38 0 -66 -22q-26 -21 -49 -69h-15z" />
    <glyph glyph-name="trademark" unicode="&#x2122;" horiz-adv-x="1019" 
d="M558 771l6 16h107l2 -247l178 247h101l-5 -15l-19 -1q-12 0 -24 -9q-11 -9 -16 -23l-77 -225q-5 -12 0 -24q3 -9 18 -9h18l-6 -16h-141l6 16h20q13 0 23 10q7 5 16 23l83 242l-210 -292h-8l-5 292l-83 -242q-5 -12 -1 -23q8 -10 19 -10h19l-6 -16h-120l5 15l21 1
q13 0 23 9q8 7 16 23l77 225q5 16 0 23q-5 10 -18 10h-19zM197 681l43 106h266l-32 -106h-14q13 45 0 70q-12 21 -52 21h-14l-89 -258q-5 -13 0 -23q7 -10 18 -10h20l-6 -16h-149l6 16h20q10 0 22 9q9 9 16 24l89 258h-14q-38 0 -66 -22q-26 -21 -49 -69h-15z" />
    <glyph glyph-name="acute" horiz-adv-x="1446" 
d="M880 717l-802 -882q-8 -9 -21.5 -7.5l-13.5 1.5q-8 0 -9 10.5t7 18.5l717 787q-45 -39 -128 -39q-41 0 -91.5 21t-85.5 54l-3 -2q35 -36 35 -100q0 -42 -33.5 -87t-89.5 -75.5t-122 -30.5q-63 0 -106.5 35t-43.5 100q0 57 37 104.5t96.5 75.5t123.5 28q62 0 140 -44
q89 -48 143 -48q79 0 154 44q41 24 61 45q14 16 19 16q8 0 15.5 -9t0.5 -16zM164 475q0 -23 22 -43.5t67 -20.5q49 0 90 41t64 96.5t23 97.5q0 27 -22 41t-57 14q-54 0 -96.5 -41.5t-66.5 -97t-24 -87.5zM472 4q0 79 84 140.5t180 61.5q45 0 76 -17t48.5 -46.5t17.5 -65.5
q0 -38 -30 -90.5t-87.5 -90.5t-134.5 -38q-66 0 -110 40t-44 106zM553 -46q0 -29 22 -48.5t62 -19.5q65 0 120 62.5t63 140.5q2 14 0 28q-3 26 -24 42t-53 16q-76 0 -133 -75t-57 -146zM994 4q0 79 84 140.5t180 61.5q45 0 76 -17t48.5 -46.5t17.5 -65.5q0 -38 -30 -90.5
t-87.5 -90.5t-134.5 -38q-66 0 -110 40t-44 106zM1075 -46q0 -29 22 -48.5t62 -19.5q65 0 120 62.5t63 140.5q2 14 0 28q-3 26 -24 42t-53 16q-76 0 -133 -75t-57 -146z" />
    <glyph glyph-name="dieresis" unicode="&#xbd;" 
d="M355 391l-130 198l57 43l131 -199l266 198l28 -42l-266 -198l131 -200l-57 -42l-132 199l-268 -199l-27 42z" />
    <glyph glyph-name="notequal" 
d="M523 530l181 164l35 -37l-143 -127h175l-21 -59h-214l-188 -168h344l-20 -59h-381l-173 -155l-35 36l135 119h-170l20 59h206l189 168h-337l21 59h376z" />
    <glyph glyph-name="AE" horiz-adv-x="742" 
d="M442 690l-201 -563q-19 -60 -19 -65q0 -18 13.5 -25t38.5 -11q19 -4 19 -10q0 -16 -15 -16h-283q-16 0 -16 16q0 6 9 9q6 2 15 3q41 2 64 20q23 20 49 95l160 459q18 52 18 57q0 18 -9 23t-26 4t-26 2t-9 17q0 16 14 16h571q14 0 14 -12v-4q-1 -2 -1 -5l-3 -145v-7
q0 -6 -13 -8q-15 -2 -17 15q0 1 -2 13t-4 17q-20 69 -85 86.5t-146 17.5z" />
    <glyph glyph-name="Oslash" horiz-adv-x="390" 
d="M319 98q-21 -25 -95.5 -68t-128.5 -43q-31 0 -45.5 15t-14.5 34q0 27 33.5 78.5t150.5 212.5q41 56 52 73t11 30q0 20 -20 20q-34 0 -133 -74q-26 -21 -34 -21q-12 0 -12 13q0 14 42.5 43.5t98.5 54t89 24.5q22 0 41 -11t19 -39q0 -23 -36.5 -81.5t-148.5 -209.5
q-62 -85 -62 -102q0 -21 20 -21q26 0 115 62q47 34 52 34q11 0 11 -14q0 -2 -5 -10z" />
    <glyph glyph-name="infinity" 
d="M444 227q-29 32 -42 108q-63 -72 -117 -105q-56 -34 -106 -34q-71 0 -102 56q-29 54 -1 140q30 89 93 143q66 55 135 55q50 0 79 -34q27 -29 40 -108q65 76 118 108q56 34 112 34q70 0 97 -58q29 -56 2 -137q-30 -88 -93 -143q-65 -56 -136 -56q-49 0 -79 31zM274 288
q52 39 125 133q-8 47 -41 77q-28 26 -76 26q-58 0 -109 -39q-50 -41 -70 -99q-20 -57 0 -98q22 -36 72 -38q48 0 99 38zM553 497q-49 -35 -126 -132q12 -55 40 -78q29 -26 77 -26q57 0 107 38t71 100q21 57 1 98q-19 39 -72 39q-47 0 -98 -39z" />
    <glyph glyph-name="plusminus" unicode="&#xb1;" 
d="M435 283h-61l62 178h-281l20 59h281l61 178h61l-61 -178h281l-20 -59h-281zM22 75l21 61h623l-21 -61h-623z" />
    <glyph glyph-name="lessequal" 
d="M247 471l477 -158l-23 -66l-556 200l17 49l694 200l-23 -66zM16 72l21 60h625l-21 -60h-625z" />
    <glyph glyph-name="greaterequal" 
d="M683 474l-475 159l23 66l556 -200l-17 -49l-694 -200l23 66zM16 75l21 60h625l-21 -60h-625z" />
    <glyph glyph-name="yen" horiz-adv-x="629" 
d="M275 692q2 -21 4 -31l49 -254q1 -1 1.5 -2.5t0.5 -2.5q1 -1 5 -1q3 0 6 3q1 1 2.5 2t4.5 4l201 224q9 10 43 52q21 32 22 34q3 10 -2 18q-4 7 -26 10q-22 6 -24 8q-3 5 0 13q1 7 8 11t16 4q4 0 31 -4q27 -3 53 -3q14 0 44 2q12 2 18.5 3t7.5 1q8 0 9 -5q2 -2 1 -11
q-6 -18 -33 -21q-3 0 -8 -1.5t-10 -2.5q-27 -6 -62 -46l-7 -7l-154 -175h162q8 0 8 -3q2 -2 -1 -8l-2 -5q-1 -7 -5 -11q-1 -2 -12 -4h-180l-85 -97h233q8 0 8 -2q0 -6 -1 -9l-2 -5q-1 -7 -5 -11q-1 -2 -12 -4h-248l-81 -235l-7 -22q-9 -24 -7 -37q4 -9 19 -16q2 0 7 -1
t13 -3q6 0 7 -1q17 0 21 -5q4 -4 0 -15q-2 -5 -12 -12q-9 -5 -22 -5q-17 0 -38 2q-8 1 -58 4q-27 0 -56 -4q-44 -2 -41 -2q-13 0 -18 5q-4 6 -1 15t8 12t14 5q41 0 60 13q20 12 38 67l77 224l-1 11h-242q-4 0 -9 3q0 3 2 10q1 5 6 14q4 4 12 4h224l-19 97h-172q-3 0 -9 2
q0 4 1 10q4 11 8 15q3 4 11 4h155l-33 176q-7 28 -12 38q-6 15 -17 20q-9 3 -16 3q-22 1 -17 15q2 9 10 12q8 6 18 6q9 0 20 -1q43 -5 101 -5q37 0 58 2q6 0 7 2q7 0 9 -4q3 -3 0 -12q-6 -16 -35 -23q-28 -4 -38 -25q-4 -12 -4 -26z" />
    <glyph glyph-name="mu" horiz-adv-x="741" 
d="M145 25q-22 33 -7 104q-56 -100 -118 -244q-58 -135 -104 -135q-20 0 -24 13q-6 14 1 36q10 27 94 163q80 130 151 260l159 291q10 21 22 28q9 4 29 6q11 0 23 -5q3 -7 2 -17q-1 -4 -4 -8v-1t-1 -3l-156 -285q-9 -13 -17 -32q-4 -8 -12 -27q-20 -57 -1 -87q19 -31 72 -31
q61 0 123 49q60 46 112 137l152 276q8 19 21 28q10 4 29 6q9 0 24 -5q5 -7 2 -17q0 -2 -0.5 -3l-2.5 -5v-0.5t-3 -3.5l-162 -296q-21 -37 -28 -55q-2 -3 -5.5 -12t-6.5 -16t-7 -15q-11 -33 -4 -51q8 -16 33 -17q28 0 56 18q24 17 58 61q14 18 22 34q25 34 35 34q7 0 8 -5
q1 -2 -2 -13q-21 -63 -92 -128q-69 -63 -131 -63q-43 0 -59 28q-14 26 5 83l6 17q-49 -66 -100 -97q-53 -31 -109 -31q-61 0 -83 36z" />
    <glyph glyph-name="partialdiff" horiz-adv-x="708" 
d="M470 451q27 -26 27 -90q27 54 45 97q23 54 35 91q34 96 25 146q-5 51 -51 51q-28 0 -81 -42q-44 -39 -76 -41q-19 0 -28 12t-3 29q13 36 61 64q45 27 104 27q102 0 128 -91q29 -88 -24 -246q-69 -200 -198 -337q-129 -134 -249 -134q-86 0 -119 64q-32 66 4 169
q37 107 128 184q93 76 185 76q60 0 87 -29zM336 92q72 80 109 191q28 81 14 117q-12 39 -68 39q-68 0 -140 -75q-69 -77 -110 -195q-25 -76 -13 -114q14 -36 69 -38q68 0 139 75z" />
    <glyph glyph-name="summation" horiz-adv-x="533" 
d="M97 -44l221 646q4 9 8.5 20t7.5 18.5t3 18.5q0 20 -13.5 25.5t-38.5 10.5q-3 1 -8 1.5t-7.5 2.5t-2.5 6q0 16 14 16h283q16 0 16 -15q0 -7 -7.5 -9.5t-19.5 -3.5q-30 -2 -51.5 -14t-38.5 -49q-5 -11 -11.5 -25.5t-11.5 -26.5l-137 -398q-28 -81 -58 -143t-65 -102
q-47 -55 -101 -79.5t-105 -24.5q-49 0 -73 20.5t-24 45.5q0 19 14.5 38.5t52.5 19.5q28 0 41.5 -11.5t23.5 -52.5q5 -19 20 -19q38 0 68 84z" />
    <glyph glyph-name="product" horiz-adv-x="906" 
d="M187 373h362q13 0 13 -21t-26 -21h-357q-16 -59 -16 -134q0 -83 52.5 -130t133.5 -47q89 0 191 42.5t168 127.5q12 17 30 17q15 0 15 -5q0 -9 -2 -11l-76 -176q-3 -8 -13.5 -8t-16.5 8l-20 37q-88 -36 -156 -51.5t-140 -15.5q-294 0 -294 324q0 112 74.5 213.5t210 163.5
t305.5 62q95 0 163.5 -26.5t104 -67.5t35.5 -83q0 -26 -20.5 -43t-54.5 -17q-25 0 -35.5 12t-11.5 51q0 142 -192 142q-174 0 -278.5 -106t-148.5 -237z" />
    <glyph glyph-name="pi" horiz-adv-x="556" 
d="M330 221h-151q-12 -24 -30.5 -74t-18.5 -74q0 -47 58 -47q47 0 125 61q23 18 40 31t22 13q20 0 20 -6q0 -24 -44 -57.5t-103 -58.5t-96 -25q-42 0 -80 26.5t-38 88.5q0 52 31 121t85.5 129.5t128 99t159.5 38.5q52 0 92 -19.5t40 -51.5q0 -15 -12 -26t-32 -11
q-22 0 -32.5 12t-17.5 30q-16 41 -53 41q-53 0 -118 -45.5t-115 -168.5l132 1q6 0 9.5 0.5t14.5 0.5h4h7q38 0 38 -17q0 -13 -29 -13q-10 0 -17.5 0.5t-18.5 0.5z" />
    <glyph glyph-name="integral" unicode="&#xaf;" horiz-adv-x="477" 
d="M116 143l160 459q7 18 13 33.5t6 23.5q0 18 -14 25.5t-38 10.5q-3 1 -8 1.5t-7.5 2.5t-2.5 6q0 16 13 16h284q16 0 16 -15q0 -8 -9 -10q-7 -2 -19 -3q-44 -3 -65 -24t-45 -91l-159 -451q-19 -59 -19 -65q0 -18 13.5 -25t38.5 -11q19 -4 19 -10q0 -16 -15 -16h-283
q-16 0 -16 16q0 6 9 9q6 2 15 3q41 2 64 20q23 20 49 95zM213 843q0 27 21.5 43t50.5 16q32 0 52.5 -18t20.5 -41q0 -22 -19 -41t-54 -19q-32 0 -52 17.5t-20 42.5zM507 843q0 27 21.5 43t50.5 16q30 0 51 -16t21 -43q0 -25 -20 -42.5t-52 -17.5t-52 17.5t-20 42.5z" />
    <glyph glyph-name="ordfeminine" unicode="&#xbf;" horiz-adv-x="409" 
d="M124 180l115 186q3 7 4.5 10t6.5 10q4 4 11.5 17t7.5 18q0 11 -9 11q-28 0 -134 -87q-28 -22 -30 -22q-19 0 -19 13q0 19 50.5 55.5t113.5 67.5t86 31q39 0 39 -36q0 -18 -15 -41q-2 -3 -3.5 -5t-3.5 -6l-4 -8l-3 -6l-154 -248q-8 -12 -20 -35q-15 -23 -18 -38v-7
q3 -10 15 -10q20 0 75 42q29 22 56.5 47.5t37.5 25.5q13 0 13 -13q0 -15 -51.5 -55t-112 -75t-87.5 -35q-42 0 -42 27q0 49 75 166zM228 653q0 22 19 38.5t47 16.5q27 0 46 -16.5t19 -38.5q0 -21 -18.5 -38t-46.5 -17t-47 17.5t-19 37.5zM465 653q0 22 19 38.5t46 16.5
q28 0 47 -16.5t19 -38.5q0 -21 -18.5 -38t-47.5 -17q-28 0 -46.5 17.5t-18.5 37.5z" />
    <glyph glyph-name="ordmasculine" horiz-adv-x="932" 
d="M776 689h-111q-65 0 -102 -46q-28 -36 -73 -129q-48 -101 -125 -229.5t-132 -194.5q-47 -55 -91.5 -83t-104.5 -28q-43 0 -67.5 20t-24.5 45q0 24 19.5 41t55.5 17q25 0 48 -17q33 -21 55 -21q48 0 120 105t153 247q93 173 93 217q0 43 -50 54q-15 3 -22 4.5t-9.5 4
t-2.5 9.5q0 16 14 16h566q15 0 15 -15q0 -8 -8 -10q-7 -2 -20 -3q-37 -2 -59.5 -20t-42.5 -76l-162 -470q-19 -53 -19 -65q0 -18 13.5 -25t38.5 -11q18 -4 18 -10q0 -16 -14 -16h-284q-15 0 -15 16q0 6 8 9q7 2 16 3q41 3 64 20q21 17 49 95z" />
    <glyph glyph-name="Omega" horiz-adv-x="633" 
d="M522 452h-57q-41 0 -59.5 -8t-27.5 -22t-36 -64q-27 -46 -61 -97q-102 -153 -168.5 -213.5t-145.5 -60.5q-25 0 -45 13t-20 31q0 17 13.5 26.5t31.5 9.5q14 0 44 -14q24 -15 41 -15q41 0 111.5 83.5t131.5 184.5t61 124q0 28 -42 28q-39 0 -39 11q0 7 13 7h349l-181 -336
q-32 -59 -32 -73q0 -17 16 -17q13 0 36.5 16t34.5 27q20 16 38 33t25.5 24.5t12.5 11t12 3.5q14 0 14 -13q0 -14 -48 -55t-105 -75.5t-84 -34.5q-17 0 -30.5 8.5t-13.5 18.5q0 21 18.5 73.5t37.5 82.5q7 11 21 38z" />
    <glyph glyph-name="ae" horiz-adv-x="997" 
d="M103 143l156 451q18 54 18 65q0 20 -13.5 26t-37.5 10q-19 3 -19 10q0 16 14 16h284q15 0 15 -15q0 -11 -27 -13q-36 -2 -59 -18.5t-44 -77.5l-66 -191h416l64 188q2 4 4.5 12.5t6.5 20.5q7 23 7 32q0 29 -52 36q-3 0 -7 1t-7.5 2.5t-3.5 6.5q0 16 14 16h285q14 0 14 -15
q0 -11 -27 -13q-36 -2 -59 -18.5t-44 -77.5l-163 -470q-18 -56 -18 -65q0 -18 13 -24.5t38 -11.5q19 -3 19 -10q0 -16 -14 -16h-284q-15 0 -15 16q0 7 8 9q7 2 16 3q41 3 63 20q24 20 50 95l80 231h-415l-85 -247q-19 -52 -19 -65q0 -25 -33 -24t35 0t68 -22q0 -16 -14 -16
h-284q-15 0 -15 16q0 7 8 9q4 1 16 3q41 3 64 20q23 20 49 95z" />
    <glyph glyph-name="oslash" horiz-adv-x="658" 
d="M25 0l193 366q3 5 4 7t6 11q16 21 16 37q0 11 -10 11q-15 0 -26 -10t-40 -41t-47 -44.5t-41 -13.5q-20 0 -20 13q0 19 47 56t104.5 67.5t84.5 30.5q43 0 43 -36q0 -21 -24 -66l-64 -119h198l111 207h82l-121 -227l-59 -109q-32 -61 -32 -73q0 -17 16 -17q24 0 72 42
q24 20 51.5 46.5t36.5 26.5q14 0 14 -13t-49.5 -55.5t-104.5 -76t-84 -33.5q-34 0 -43 27q-5 15 0 36q12 52 77 158l21 38h-198l-132 -246h-82z" />
    <glyph glyph-name="questiondown" horiz-adv-x="432" 
d="M70 -91l227 478q3 7 3.5 8.5t4.5 9.5q5 12 5 16q0 11 -10 11q-12 0 -31 -13.5t-55 -45t-48.5 -41t-19.5 -9.5q-20 0 -20 13q0 19 48 56t106.5 67.5t82.5 30.5q42 0 42 -36q0 -28 -83 -197.5t-108 -211.5q-50 -88 -87 -143t-88.5 -94.5t-116.5 -39.5q-28 0 -49.5 10.5
t-21.5 29.5q0 36 46 36q8 0 16.5 -4t17 -10.5t15.5 -12.5q3 -1 13 -8.5t17 -7.5q17 0 39 23.5t36 52.5q9 17 13 22t6 10zM346 653q0 23 18.5 39t47.5 16q28 0 47 -16.5t19 -38.5q0 -20 -19 -37.5t-47 -17.5q-29 0 -47.5 16t-18.5 39z" />
    <glyph glyph-name="exclamdown" horiz-adv-x="777" 
d="M800 699l-66 -188q-4 -12 -19 -12q-20 0 -24 7q-2 3 0 10q1 4 1.5 7.5t1 6t0.5 7.5v20q-4 65 -42.5 109t-125.5 44t-137 -47t-50 -104q0 -55 41 -89t112 -72q80 -44 116 -76.5t36 -88.5q0 -64 -40.5 -123t-120.5 -95t-194 -36q-142 0 -235 60l-35 -31q-10 -8 -22 -8
q-14 0 -10 8l69 199q2 4 3.5 8t6 6t12.5 1q22 -2 22 -17q0 -8 -0.5 -15t-1.5 -17q0 -43 23.5 -79t67 -58t101.5 -22q55 0 103.5 20.5t77 55t28.5 73.5q0 58 -33.5 92t-97.5 69q-54 30 -85.5 52t-57 56.5t-25.5 77.5q0 93 83.5 162.5t238.5 69.5q130 0 220 -58l28 24
q17 13 23 13q10 0 10 -7t-3 -15z" />
    <glyph glyph-name="logicalnot" unicode="&#xac;" 
d="M101 476l21 60h622l-90 -259h-58l69 199h-564z" />
    <glyph glyph-name="radical" horiz-adv-x="773" 
d="M296 122l614 860h108l-15 -44h-76l-695 -972h-25l-10 545l-77 -24v35l167 52z" />
    <glyph glyph-name="florin" unicode="&#x192;" horiz-adv-x="681" 
d="M610 768q-32 -51 -74 -154l-37 -99q-2 -6 -2 -12q0 -3 8 -3h77q9 0 11 -2q2 -3 -2 -13l-2 -5q-2 -9 -8 -16q-6 -4 -13 -4h-77q-8 0 -12 -5q-5 -2 -10 -13l-10 -23q-181 -451 -265 -566q-81 -116 -171 -116q-35 0 -52 23q-16 22 -4 58q6 19 24 37q14 14 30 14q20 0 27 -14
q10 -10 3 -38q0 2 -5 -23q-8 -28 9 -29q26 0 57 37q26 28 65 105q36 75 103 250q50 130 100 250l14 35l1 3q2 9 2 10q-2 3 -7 5h-77q-8 0 -10 3q-1 1 1 15q6 15 11 18q3 4 12 4h78q7 0 14 6q7 7 11 16l10 25q71 155 145 238q72 77 148 77q33 0 46 -20q14 -20 3 -53
q-9 -25 -26 -40q-19 -15 -38 -15q-14 0 -23 12q-5 9 -5 31v0q7 45 -17 45t-63 -54z" />
    <glyph glyph-name="approxequal" 
d="M588 293q46 18 97 49l-23 -67q-42 -24 -91 -41q-40 -12 -85 -14q-51 0 -144 37q-90 38 -139 38q-39 0 -82 -17q-37 -11 -96 -47l23 67q50 28 97 41q47 14 85 14q52 0 139 -39q87 -35 138 -37q34 0 81 16zM657 494q39 14 97 49l-23 -67q-55 -31 -91 -41q-45 -14 -85 -14
q-55 0 -144 37q-84 35 -140 37q-41 0 -81 -16q-42 -14 -96 -47l23 67q44 25 97 41q47 14 85 14q52 0 139 -39q87 -35 139 -37q30 0 80 16z" />
    <glyph glyph-name="Delta" horiz-adv-x="655" 
d="M27 29l563 763q6 7 8 9l9 3q2 0 5 -3t3 -9l33 -766q0 -6 -1 -9q1 -1 -1 -5q-2 -6 -8 -10q-6 -2 -13 -2h-592q-10 0 -13 4q-2 3 -1 10q0 2 3 6l1.5 2.5t3.5 6.5zM532 655q-4 -4 -6 -8l-411 -556q-3 -7 -6 -10q0 -1 -0.5 -2l-0.5 -1q-2 -3 1 -6q2 0 3 -0.5l5 -2.5h425l6 2
t5 1q3 1 6 5q0 2 0.5 3t0.5 3v5v4l-16 555q0 2 -2 8q0 1 -2 1.5t-4 0.5z" />
    <glyph glyph-name="guillemotleft" unicode="&#xab;" horiz-adv-x="731" 
d="M55 259q39 38 112 91q267 191 298 191q11 0 11 -14q0 -3 -25.5 -17t-71.5 -51q-172 -135 -172 -256q0 -124 72 -198q10 -11 10 -15q0 -3 -7 -8t-11 -5q-25 0 -73 59t-91.5 130t-51.5 93zM315 259q83 72 218 160q20 14 33 22.5t28 18.5q43 29 59 29q10 0 10 -13
q0 -4 -49 -36q-70 -46 -122 -108.5t-52 -124.5q0 -68 50 -133q23 -29 23 -33q0 -11 -18 -11q-14 0 -59 52q-13 14 -19 22q-32 36 -57 73.5t-45 81.5z" />
    <glyph glyph-name="guillemotright" unicode="&#xbb;" horiz-adv-x="731" 
d="M677 260q-24 -24 -48 -43t-65 -49q-27 -20 -96 -67.5t-128 -85.5t-73 -38q-2 0 -7 6t-5 8t26 16.5t71 51.5q84 68 128 126.5t44 129.5q0 69 -22 122t-49 76q-11 11 -11 15q0 5 5.5 9t12.5 4q21 0 69 -55t92 -123t56 -103zM416 260q-45 -40 -181 -135.5t-157 -95.5
q-13 0 -10 13q7 22 21.5 28.5t17.5 10.5q12 14 53.5 38t67 43.5t44.5 55t19 93.5q0 74 -61 148q-11 15 -11 18q0 11 18 11q15 0 58 -51q3 -4 24 -28q26 -26 54 -68.5t43 -80.5z" />
    <glyph glyph-name="ellipsis" unicode="&#xbe;" horiz-adv-x="1192" 
d="M102 47q0 26 23.5 47t58.5 21q36 0 59.5 -20.5t23.5 -47.5t-24.5 -47.5t-58.5 -20.5q-33 0 -57.5 21t-24.5 47zM514 47q0 26 23.5 47t58.5 21q36 0 59.5 -20.5t23.5 -47.5t-24.5 -47.5t-58.5 -20.5q-33 0 -57.5 21t-24.5 47zM925 47q0 26 23.5 47t58.5 21
q36 0 59.5 -20.5t23.5 -47.5t-24.5 -47.5t-58.5 -20.5q-33 0 -57.5 21t-24.5 47z" />
    <glyph glyph-name="ellipsis" unicode="&#x2026;" horiz-adv-x="1192" 
d="M102 47q0 26 23.5 47t58.5 21q36 0 59.5 -20.5t23.5 -47.5t-24.5 -47.5t-58.5 -20.5q-33 0 -57.5 21t-24.5 47zM514 47q0 26 23.5 47t58.5 21q36 0 59.5 -20.5t23.5 -47.5t-24.5 -47.5t-58.5 -20.5q-33 0 -57.5 21t-24.5 47zM925 47q0 26 23.5 47t58.5 21
q36 0 59.5 -20.5t23.5 -47.5t-24.5 -47.5t-58.5 -20.5q-33 0 -57.5 21t-24.5 47z" />
    <glyph glyph-name="Agrave" horiz-adv-x="534" 
d="M55 259q39 38 112 91q267 191 298 191q11 0 11 -14q0 -3 -25.5 -17t-71.5 -51q-172 -135 -172 -256q0 -124 72 -198q10 -11 10 -15q0 -3 -7 -8t-11 -5q-25 0 -73 59t-91.5 130t-51.5 93z" />
    <glyph glyph-name="Atilde" horiz-adv-x="534" 
d="M470 263q-24 -24 -48 -43t-65 -49q-27 -20 -96 -67.5t-128 -85.5t-73 -38q-2 0 -7 6t-5 8t26 16.5t71 51.5q84 68 128 126.5t44 129.5q0 69 -22 122t-49 76q-11 11 -11 15q0 5 5.5 9t12.5 4q21 0 69 -55t92 -123t56 -103z" />
    <glyph glyph-name="Otilde" unicode="&#x152;" horiz-adv-x="906" 
d="M383 578l-69 -193q142 -2 200 22q45 18 69.5 46.5t59.5 87.5q43 73 70.5 105.5t58.5 54.5q58 41 123 41q80 0 80 -54q0 -20 -16.5 -34.5t-41.5 -14.5q-36 0 -60 16q-18 11 -38 11q-32 0 -58 -29.5t-63 -94.5q-32 -58 -50.5 -85.5t-51 -50t-80.5 -27.5v-7q79 -9 117 -33
t47.5 -54t9.5 -81q0 -43 -1 -58t-3 -51q-2 -17 0 -32q3 -28 27 -28q26 0 45 26l3 3l6 6q7 6 13 15q9 14 14 14q6 0 16 -4.5t10 -9.5q0 -12 -35 -49q-25 -27 -49 -42t-63 -15q-48 0 -87 26.5t-42 101.5v42q2 44 2.5 52t0.5 23q1 21 0 43q-5 89 -119 89h-121l-79 -229
q-19 -53 -19 -65q0 -25 -33 -24t35 0t68 -22q0 -16 -14 -16h-284q-15 0 -15 16q0 7 8 9q4 1 16 3q41 3 64 20q23 20 49 95l159 459q17 50 17 57q0 19 -9.5 23.5t-27.5 3.5t-25.5 1.5t-7.5 17.5q0 16 15 16h282q15 0 15 -16q0 -6 -8 -9q-7 -2 -16 -3q-41 -3 -63 -20
q-24 -19 -51 -95z" />
    <glyph glyph-name="OE" horiz-adv-x="665" 
d="M256 279h27q50 0 88 18t78 76q36 53 71 85t82 32q38 0 52 -13.5t14 -27.5q0 -13 -13.5 -25.5t-29.5 -12.5q-23 0 -45 16q-13 11 -25 11q-26 0 -55 -44q-37 -52 -52.5 -71t-42 -36.5t-63.5 -18.5v-8q89 -9 89 -125q0 -9 -1.5 -22t-3 -27t-1.5 -24q0 -28 19 -28q13 0 23 8
t30.5 29.5t32 31.5t20.5 10q19 0 19 -9q0 -26 -62.5 -71.5t-112.5 -45.5q-30 0 -46.5 16.5t-16.5 39.5q0 10 9 69.5t9 82.5q0 30 -16.5 45t-43.5 15h-46l-136 -255h-82l193 366q25 47 25 55q0 11 -9 11q-15 0 -26 -10t-40 -41t-48 -44.5t-41 -13.5q-19 0 -19 13
q0 21 46.5 57t104.5 66.5t85 30.5q43 0 43 -36q0 -22 -24 -66z" />
    <glyph glyph-name="oe" unicode="&#x153;" horiz-adv-x="428" 
d="M327 490q25 0 60.5 -11.5t40.5 -41.5q3 -5 0 -11q-2 -9 -12 -17t-27 -8q-31 0 -55 33q-22 27 -54 27q-25 0 -48 -15.5t-23 -45.5q0 -43 46 -112q32 -44 50 -78t18 -70q0 -61 -52 -107t-137 -46q-58 0 -107 22.5t-49 53.5q0 17 11.5 28.5t29.5 11.5q30 0 49 -36
q19 -33 32.5 -45t46.5 -12q55 0 81 27t26 55q0 31 -52 105q-36 53 -50 78.5t-14 57.5q0 48 28 83.5t71.5 54.5t89.5 19z" />
    <glyph glyph-name="endash" horiz-adv-x="855" 
d="M61 391l20 59h717l-20 -59h-717z" />
    <glyph glyph-name="endash" unicode="&#x2013;" horiz-adv-x="855" 
d="M61 391l20 59h717l-20 -59h-717z" />
    <glyph glyph-name="emdash" horiz-adv-x="997" 
d="M88 340l14 41h807l-14 -41h-807z" />
    <glyph glyph-name="emdash" unicode="&#x2014;" horiz-adv-x="997" 
d="M88 340l14 41h807l-14 -41h-807z" />
    <glyph glyph-name="quotedblleft" horiz-adv-x="783" 
d="M573 589q0 -25 23 -50q21 -23 21 -52q0 -20 -23 -37.5t-58 -17.5q-84 0 -84 74q0 50 64 110q37 35 97.5 80.5t82.5 45.5q19 0 19 -13q0 -4 -27 -20q-55 -34 -85 -59t-30 -61zM243 589q0 -27 19 -44q26 -27 26 -58q0 -20 -23.5 -37.5t-58.5 -17.5q-83 0 -83 74
q0 34 23.5 65t71.5 73q127 98 150 98q18 0 18 -13q0 -4 -5.5 -8t-45.5 -28q-27 -13 -59.5 -41.5t-32.5 -62.5z" />
    <glyph glyph-name="quotedblleft" unicode="&#x201c;" horiz-adv-x="783" 
d="M573 589q0 -25 23 -50q21 -23 21 -52q0 -20 -23 -37.5t-58 -17.5q-84 0 -84 74q0 50 64 110q37 35 97.5 80.5t82.5 45.5q19 0 19 -13q0 -4 -27 -20q-55 -34 -85 -59t-30 -61zM243 589q0 -27 19 -44q26 -27 26 -58q0 -20 -23.5 -37.5t-58.5 -17.5q-83 0 -83 74
q0 34 23.5 65t71.5 73q127 98 150 98q18 0 18 -13q0 -4 -5.5 -8t-45.5 -28q-27 -13 -59.5 -41.5t-32.5 -62.5z" />
    <glyph glyph-name="quotedblright" horiz-adv-x="618" 
d="M225 618q0 24 -22 50q-19 20 -19 50q0 19 23.5 36.5t57.5 17.5q49 0 66.5 -22.5t17.5 -51.5q0 -54 -80 -124q-36 -32 -74 -57q-82 -55 -90 -55q-20 0 -20 15q0 11 15 18t19 11q14 17 46 31.5t46 29t14 51.5zM498 618q0 24 -22 50q-19 20 -19 50q0 19 23.5 36.5t57.5 17.5
q49 0 66.5 -22.5t17.5 -51.5q0 -54 -80 -124q-36 -32 -74 -57q-82 -55 -90 -55q-20 0 -20 15q0 9 14 15.5t15 9.5q12 19 46.5 35t49.5 29.5t15 51.5z" />
    <glyph glyph-name="quotedblright" unicode="&#x201d;" horiz-adv-x="618" 
d="M225 618q0 24 -22 50q-19 20 -19 50q0 19 23.5 36.5t57.5 17.5q49 0 66.5 -22.5t17.5 -51.5q0 -54 -80 -124q-36 -32 -74 -57q-82 -55 -90 -55q-20 0 -20 15q0 11 15 18t19 11q14 17 46 31.5t46 29t14 51.5zM498 618q0 24 -22 50q-19 20 -19 50q0 19 23.5 36.5t57.5 17.5
q49 0 66.5 -22.5t17.5 -51.5q0 -54 -80 -124q-36 -32 -74 -57q-82 -55 -90 -55q-20 0 -20 15q0 9 14 15.5t15 9.5q12 19 46.5 35t49.5 29.5t15 51.5z" />
    <glyph glyph-name="quoteleft" horiz-adv-x="453" 
d="M216 589q0 -24 24 -50q21 -24 21 -52q0 -22 -22 -38.5t-60 -16.5q-47 0 -65.5 24t-18.5 50q0 50 81 124q44 38 94 75t70 37q18 0 18 -13q0 -5 -27 -21q-52 -30 -83.5 -57t-31.5 -62z" />
    <glyph glyph-name="quoteleft" unicode="&#x2018;" horiz-adv-x="453" 
d="M216 589q0 -24 24 -50q21 -24 21 -52q0 -22 -22 -38.5t-60 -16.5q-47 0 -65.5 24t-18.5 50q0 50 81 124q44 38 94 75t70 37q18 0 18 -13q0 -5 -27 -21q-52 -30 -83.5 -57t-31.5 -62z" />
    <glyph glyph-name="quoteright" horiz-adv-x="454" 
d="M210 583q1 26 -24 51q-20 24 -20 52q0 18 21.5 37t59.5 19q40 0 62.5 -22t22.5 -53q0 -34 -25 -67.5t-57.5 -60t-72.5 -53.5q-72 -50 -90 -54q-7 -1 -13 0q-6 2 -6 12q0 14 15 19.5t16 7.5q14 18 46.5 33.5t48 29.5t16.5 49z" />
    <glyph glyph-name="quoteright" unicode="&#x2019;" horiz-adv-x="454" 
d="M210 583q1 26 -24 51q-20 24 -20 52q0 18 21.5 37t59.5 19q40 0 62.5 -22t22.5 -53q0 -34 -25 -67.5t-57.5 -60t-72.5 -53.5q-72 -50 -90 -54q-7 -1 -13 0q-6 2 -6 12q0 14 15 19.5t16 7.5q14 18 46.5 33.5t48 29.5t16.5 49z" />
    <glyph glyph-name="quoteright" unicode="&#xb4;" horiz-adv-x="454" 
d="M210 583q1 26 -24 51q-20 24 -20 52q0 18 21.5 37t59.5 19q40 0 62.5 -22t22.5 -53q0 -34 -25 -67.5t-57.5 -60t-72.5 -53.5q-72 -50 -90 -54q-7 -1 -13 0q-6 2 -6 12q0 14 15 19.5t16 7.5q14 18 46.5 33.5t48 29.5t16.5 49z" />
    <glyph glyph-name="divide" unicode="&#xbc;" 
d="M294 204q29 19 53 20q26 0 39 -20q14 -18 5 -46q-9 -24 -35 -46q-27 -18 -53 -18q-27 0 -41 17q-12 20 -2 47q6 22 34 46zM441 631q25 19 53 19q26 0 41 -18q11 -21 3 -46q-9 -24 -35 -46q-21 -16 -53 -19q-27 0 -40 19q-13 18 -3 46q9 24 34 45zM699 343h-622l21 59h622
z" />
    <glyph glyph-name="lozenge" unicode="&#xa3;" horiz-adv-x="618" 
d="M147 -39q0 24 -22 50q-19 20 -19 50q0 19 23.5 36.5t57.5 17.5q49 0 66.5 -22.5t17.5 -51.5q0 -54 -80 -124q-36 -32 -74 -57q-82 -55 -90 -55q-20 0 -20 15q0 11 5 15t13.5 6t14.5 6q10 9 42.5 25.5t48.5 34.5t16 54zM420 -39q0 24 -22 50q-19 20 -19 50q0 19 23.5 36.5
t57.5 17.5q49 0 66.5 -22.5t17.5 -51.5q0 -54 -80 -124q-36 -32 -74 -57q-82 -55 -90 -55q-20 0 -20 15q0 14 14.5 19t15.5 6q14 13 45.5 29t48 34t16.5 53z" />
    <glyph glyph-name="ydieresis" unicode="&#xa1;" horiz-adv-x="832" 
d="M457 271l232 270q67 76 67 114q0 16 -7.5 21.5t-24.5 10.5q-3 1 -13.5 4t-14 5.5t-3.5 9.5q0 15 14 15h247q14 0 14 -16q0 -11 -18 -12q-35 -1 -66 -16t-52 -33t-42.5 -43.5t-47.5 -57.5l-343 -407q-134 -157 -288 -157q-49 0 -73.5 20.5t-24.5 44.5q0 23 20 40.5
t55 17.5q29 0 59 -24q31 -21 41 -25.5t30 -4.5q52 0 130 95l-115 478q-9 37 -22.5 50.5t-50.5 20.5q-21 3 -21 14q0 15 13 15h297q14 0 14 -16q0 -10 -25 -12q-38 -2 -49.5 -10.5t-11.5 -29.5q0 -12 3 -26zM470 857q0 22 23.5 42.5t60.5 20.5q25 0 39.5 -10.5t14.5 -24.5
q0 -16 -8.5 -24.5t-36.5 -26.5q-13 -8 -13 -18q0 -32 71 -32q58 0 124.5 34t109.5 85q18 22 29 22q8 0 16 -5t8 -11q0 -19 -73 -72q-109 -76 -232 -76q-74 0 -103.5 30t-29.5 66z" />
    <glyph glyph-name="Ydieresis" unicode="&#xa2;" horiz-adv-x="585" 
d="M297 41q60 57 133.5 157t73.5 154q0 19 -4.5 40t-4.5 44q0 54 48 54q47 0 47 -49q0 -56 -81 -174.5t-150 -195.5q-118 -135 -217 -219t-208 -84q-73 0 -73 40q0 14 12.5 27t24.5 14h11q17 -1 23 -5l30 -20q19 -14 37 -14q101 0 152 66t64.5 145t18.5 184q4 84 4 151
q0 68 -12 72q-6 3 -10 0q-23 -5 -80 -68q-20 -21 -36 -41q-13 -15 -18 -15q-16 0 -16 7q0 18 38.5 62.5t86.5 80.5t72 36q54 0 56 -63q2 -9 1 -19t-1 -20v-31v-28q0 -50 -7 -141t-15 -147zM686 708q13 0 13 -16q0 -18 -40 -47.5t-97 -51.5t-110 -22t-84 21t-31 51
q0 26 19.5 45.5t47.5 19.5q21 0 34.5 -8t13.5 -25q0 -25 -31 -39q-17 -10 -17 -19q0 -23 47 -23q113 0 200 92q20 22 35 22z" />
    <glyph glyph-name="Ydieresis" unicode="&#x178;" horiz-adv-x="585" 
d="M297 41q60 57 133.5 157t73.5 154q0 19 -4.5 40t-4.5 44q0 54 48 54q47 0 47 -49q0 -56 -81 -174.5t-150 -195.5q-118 -135 -217 -219t-208 -84q-73 0 -73 40q0 14 12.5 27t24.5 14h11q17 -1 23 -5l30 -20q19 -14 37 -14q101 0 152 66t64.5 145t18.5 184q4 84 4 151
q0 68 -12 72q-6 3 -10 0q-23 -5 -80 -68q-20 -21 -36 -41q-13 -15 -18 -15q-16 0 -16 7q0 18 38.5 62.5t86.5 80.5t72 36q54 0 56 -63q2 -9 1 -19t-1 -20v-31v-28q0 -50 -7 -141t-15 -147zM686 708q13 0 13 -16q0 -18 -40 -47.5t-97 -51.5t-110 -22t-84 21t-31 51
q0 26 19.5 45.5t47.5 19.5q21 0 34.5 -8t13.5 -25q0 -25 -31 -39q-17 -10 -17 -19q0 -23 47 -23q113 0 200 92q20 22 35 22z" />
    <glyph glyph-name="fraction" horiz-adv-x="902" 
d="M106 307l106 295q2 6 4 16l4 14q7 15 7 27q0 20 -13.5 25.5t-38.5 10.5q-3 1 -8 1.5t-7.5 2.5t-2.5 6q0 16 14 16h283q16 0 16 -15q0 -8 -9 -10q-6 -2 -18 -3q-45 -3 -64 -21.5t-46 -93.5l-99 -271q-38 -106 -38 -165q0 -121 175 -121q249 0 323 229l119 344
q6 15 12.5 34.5t6.5 30.5q0 27 -51 36q-20 2 -20 10q0 16 15 16h206q15 0 15 -15q0 -8 -8 -10q-7 -2 -20 -3q-43 -3 -64 -23.5t-46 -91.5l-105 -306q-59 -172 -172.5 -232.5t-273.5 -60.5q-137 0 -185 50t-48 114q0 80 31 164z" />
    <glyph glyph-name="currency" unicode="&#x2219;" horiz-adv-x="643" 
d="M626 476l-178 -336q-32 -60 -32 -73q0 -17 17 -17q24 0 71 43q29 24 54 48t33 24q15 0 15 -13t-50 -55.5t-105.5 -76t-82.5 -33.5q-17 0 -30.5 8.5t-13.5 18.5q0 4 -0.5 14t4.5 30.5t18 48.5t32 60q6 10 11.5 19.5t12.5 21.5l-6 2q-78 -88 -167 -155.5t-154 -67.5
q-48 0 -48 43q0 29 30 78l137 258l10 20q15 26 15 35q0 11 -10 11q-12 0 -31 -13.5t-55 -45t-47.5 -41t-19.5 -9.5q-21 0 -21 13q0 19 47 56t104.5 67.5t85.5 30.5q42 0 42 -36q0 -21 -24 -66l-134 -258q-31 -56 -31 -69q0 -17 21 -17q53 0 192 143q55 59 73 80.5t30.5 39.5
t18.5 29t13 24l64 115z" />
    <glyph glyph-name="guilsinglleft" unicode="&#xb9;" horiz-adv-x="1689" 
d="M621 721l286 -575l138 399q41 119 105.5 158t143.5 39q61 0 99 -20.5t38 -49.5q0 -21 -18.5 -38t-49.5 -17q-39 0 -64 45q-11 20 -18.5 27.5t-23.5 7.5q-109 0 -165 -161l-190 -546q-4 -9 -24 -11t-27 11l-309 606l-150 -429q-65 -188 -247 -188q-71 0 -101.5 25.5
t-30.5 48.5q0 22 17.5 37t47.5 15q41 0 54 -40q12 -37 47 -37q118 0 189 208l138 397q-13 20 -39 43t-45 29q-8 3 -8 11q0 5 14 5h193zM1157 376q29 81 108.5 129.5t166.5 48.5q82 0 122 -38.5t40 -87.5q0 -51 -38 -105t-104.5 -89t-142.5 -35q-82 0 -122.5 37.5t-40.5 87.5
q0 21 11 52zM1249 376q-15 -43 -15 -80q0 -19 16.5 -44t65.5 -25q80 0 134 73q21 28 39 78.5t18 77.5q0 34 -23 52t-56 18q-61 0 -108.5 -42t-70.5 -108zM1439 81h-334q-16 0 -16 24q0 22 32 22h325q13 0 17 -3t4 -19q0 -10 -9.5 -17t-18.5 -7z" />
    <glyph glyph-name="guilsinglleft" unicode="&#x2039;" horiz-adv-x="1689" 
d="M621 721l286 -575l138 399q41 119 105.5 158t143.5 39q61 0 99 -20.5t38 -49.5q0 -21 -18.5 -38t-49.5 -17q-39 0 -64 45q-11 20 -18.5 27.5t-23.5 7.5q-109 0 -165 -161l-190 -546q-4 -9 -24 -11t-27 11l-309 606l-150 -429q-65 -188 -247 -188q-71 0 -101.5 25.5
t-30.5 48.5q0 22 17.5 37t47.5 15q41 0 54 -40q12 -37 47 -37q118 0 189 208l138 397q-13 20 -39 43t-45 29q-8 3 -8 11q0 5 14 5h193zM1157 376q29 81 108.5 129.5t166.5 48.5q82 0 122 -38.5t40 -87.5q0 -51 -38 -105t-104.5 -89t-142.5 -35q-82 0 -122.5 37.5t-40.5 87.5
q0 21 11 52zM1249 376q-15 -43 -15 -80q0 -19 16.5 -44t65.5 -25q80 0 134 73q21 28 39 78.5t18 77.5q0 34 -23 52t-56 18q-61 0 -108.5 -42t-70.5 -108zM1439 81h-334q-16 0 -16 24q0 22 32 22h325q13 0 17 -3t4 -19q0 -10 -9.5 -17t-18.5 -7z" />
    <glyph glyph-name="guilsinglright" unicode="&#xa8;" horiz-adv-x="791" 
d="M351 843q0 27 21.5 43t50.5 16q32 0 52.5 -18t20.5 -41q0 -22 -19 -41t-54 -19q-32 0 -52 17.5t-20 42.5zM645 843q0 27 21.5 43t50.5 16q30 0 51 -16t21 -43q0 -25 -20 -42.5t-52 -17.5t-52 17.5t-20 42.5zM424 690l-105 -298h60q99 0 143 25.5t71 74.5q5 9 8.5 19
t7.5 13t13 3q21 0 17 -13l-95 -273q0 -1 -2 -3q0 -2 -1 -3q-2 -9 -17 -8q-14 0 -16 7v5q1 3 1 4.5t2 9.5t2 25q0 40 -26.5 62t-121.5 22h-57l-76 -222q-6 -19 -9 -27t-5 -13.5t-4 -17.5q-1 -9 0 -18q4 -23 27.5 -28t77.5 -5h41q120 0 192.5 41t130.5 104q14 15 27 15t16 -7
q2 -3 0 -6q0 -2 -6 -11l-84 -147q-13 -20 -30 -20h-625q-15 0 -15 16q0 7 8 9q4 1 16 3q41 3 64 20q23 20 49 95l159 459l12 30t6 27q0 18 -9 23t-27.5 4t-26 1.5t-7.5 17.5q0 16 15 16h586q14 0 14 -12v-9l-3 -140v-8q0 -12 -17 -12q-5 0 -10 -0.5t-8.5 4.5t-4.5 14
q-24 132 -244 132h-114z" />
    <glyph glyph-name="guilsinglright" unicode="&#x203a;" horiz-adv-x="791" 
d="M351 843q0 27 21.5 43t50.5 16q32 0 52.5 -18t20.5 -41q0 -22 -19 -41t-54 -19q-32 0 -52 17.5t-20 42.5zM645 843q0 27 21.5 43t50.5 16q30 0 51 -16t21 -43q0 -25 -20 -42.5t-52 -17.5t-52 17.5t-20 42.5zM424 690l-105 -298h60q99 0 143 25.5t71 74.5q5 9 8.5 19
t7.5 13t13 3q21 0 17 -13l-95 -273q0 -1 -2 -3q0 -2 -1 -3q-2 -9 -17 -8q-14 0 -16 7v5q1 3 1 4.5t2 9.5t2 25q0 40 -26.5 62t-121.5 22h-57l-76 -222q-6 -19 -9 -27t-5 -13.5t-4 -17.5q-1 -9 0 -18q4 -23 27.5 -28t77.5 -5h41q120 0 192.5 41t130.5 104q14 15 27 15t16 -7
q2 -3 0 -6q0 -2 -6 -11l-84 -147q-13 -20 -30 -20h-625q-15 0 -15 16q0 7 8 9q4 1 16 3q41 3 64 20q23 20 49 95l159 459l12 30t6 27q0 18 -9 23t-27.5 4t-26 1.5t-7.5 17.5q0 16 15 16h586q14 0 14 -12v-9l-3 -140v-8q0 -12 -17 -12q-5 0 -10 -0.5t-8.5 4.5t-4.5 14
q-24 132 -244 132h-114z" />
    <glyph glyph-name="fi" unicode="&#xb8;" horiz-adv-x="533" 
d="M143 190q-25 -67 -25 -125q0 -41 62 -41q43 0 105 47q25 19 38.5 31t18.5 12q13 0 13 -16q0 -12 -34 -40t-85.5 -49.5t-99.5 -21.5q-57 0 -90 33t-33 83q0 78 71 169t168 154.5t163 63.5q34 0 57 -16t23 -46q0 -39 -41 -83.5t-119 -84.5t-192 -70zM156 217
q103 34 184 93.5t81 115.5q0 35 -34 35q-57 0 -127.5 -81.5t-103.5 -162.5zM228 653q0 22 19 38.5t47 16.5q27 0 46 -16.5t19 -38.5q0 -21 -18.5 -38t-46.5 -17t-47 17.5t-19 37.5zM465 653q0 22 19 38.5t46 16.5q28 0 47 -16.5t19 -38.5q0 -21 -18.5 -38t-47.5 -17
q-28 0 -46.5 17.5t-18.5 37.5z" />
    <glyph glyph-name="fl" unicode="&#xff;" horiz-adv-x="678" 
d="M359 239v7q-67 7 -105.5 37t-38.5 68q0 53 74 96t226 43q11 0 56.5 -2.5t92.5 -9.5q-11 -20 -14 -25q-16 -24 -25 -42l-144 -265q-36 -68 -36 -79q0 -17 16 -17q20 0 73 42q18 15 47 44t39 29q16 0 16 -13t-50.5 -55.5t-105 -76t-82.5 -33.5q-18 0 -31.5 9.5t-13.5 17.5
q0 56 78 193l12 22h-13q-63 0 -102.5 -18.5t-87.5 -84.5q-50 -70 -85.5 -104.5t-82.5 -34.5q-77 0 -99 100q-4 13 0 20q4 10 12 10q18 0 24 -20q13 -35 20 -48t20 -13q11 0 18.5 9t24.5 32q62 92 127.5 127t119.5 35h20zM454 249l112 220h-8q-25 3 -56 1q-104 -7 -146 -51
t-42 -94q0 -76 124 -76h16z" />
    <glyph glyph-name="fl" unicode="&#x44f;" horiz-adv-x="678" 
d="M359 239v7q-67 7 -105.5 37t-38.5 68q0 53 74 96t226 43q11 0 56.5 -2.5t92.5 -9.5q-11 -20 -14 -25q-16 -24 -25 -42l-144 -265q-36 -68 -36 -79q0 -17 16 -17q20 0 73 42q18 15 47 44t39 29q16 0 16 -13t-50.5 -55.5t-105 -76t-82.5 -33.5q-18 0 -31.5 9.5t-13.5 17.5
q0 56 78 193l12 22h-13q-63 0 -102.5 -18.5t-87.5 -84.5q-50 -70 -85.5 -104.5t-82.5 -34.5q-77 0 -99 100q-4 13 0 20q4 10 12 10q18 0 24 -20q13 -35 20 -48t20 -13q11 0 18.5 9t24.5 32q62 92 127.5 127t119.5 35h20zM454 249l112 220h-8q-25 3 -56 1q-104 -7 -146 -51
t-42 -94q0 -76 124 -76h16z" />
    <glyph glyph-name="daggerdbl" unicode="&#xe0;" horiz-adv-x="653" 
d="M640 483l-185 -343q-32 -58 -32 -73q0 -17 16 -17q21 0 71 42q22 19 49 46t36 27q15 0 15 -13q0 -22 -96 -93.5t-137 -71.5q-19 0 -31 9.5t-12 17.5q0 23 13.5 66t28.5 68l-5 -1q-183 -160 -287 -160q-35 0 -59.5 22t-24.5 58q0 80 81.5 181t193 171.5t185.5 70.5
q45 0 79 -31l27 24h74zM507 426q0 40 -40 40q-57 0 -143 -74t-151.5 -167.5t-65.5 -143.5q0 -21 14.5 -30.5t30.5 -9.5q46 0 133.5 67.5t154.5 157.5t67 160z" />
    <glyph glyph-name="daggerdbl" unicode="&#x2021;" horiz-adv-x="653" 
d="M640 483l-185 -343q-32 -58 -32 -73q0 -17 16 -17q21 0 71 42q22 19 49 46t36 27q15 0 15 -13q0 -22 -96 -93.5t-137 -71.5q-19 0 -31 9.5t-12 17.5q0 23 13.5 66t28.5 68l-5 -1q-183 -160 -287 -160q-35 0 -59.5 22t-24.5 58q0 80 81.5 181t193 171.5t185.5 70.5
q45 0 79 -31l27 24h74zM507 426q0 40 -40 40q-57 0 -143 -74t-151.5 -167.5t-65.5 -143.5q0 -21 14.5 -30.5t30.5 -9.5q46 0 133.5 67.5t154.5 157.5t67 160z" />
    <glyph glyph-name="daggerdbl" unicode="&#x430;" horiz-adv-x="653" 
d="M640 483l-185 -343q-32 -58 -32 -73q0 -17 16 -17q21 0 71 42q22 19 49 46t36 27q15 0 15 -13q0 -22 -96 -93.5t-137 -71.5q-19 0 -31 9.5t-12 17.5q0 23 13.5 66t28.5 68l-5 -1q-183 -160 -287 -160q-35 0 -59.5 22t-24.5 58q0 80 81.5 181t193 171.5t185.5 70.5
q45 0 79 -31l27 24h74zM507 426q0 40 -40 40q-57 0 -143 -74t-151.5 -167.5t-65.5 -143.5q0 -21 14.5 -30.5t30.5 -9.5q46 0 133.5 67.5t154.5 157.5t67 160z" />
    <glyph glyph-name="periodcentered" unicode="&#xe1;" horiz-adv-x="552" 
d="M146 380l17 -7q14 13 25 25q76 76 165 76q80 0 109.5 -45.5t29.5 -91.5q0 -61 -46.5 -146t-124 -144.5t-165.5 -59.5q-64 0 -95 41t-31 105q0 93 67.5 219.5t148.5 200.5q60 54 128 80.5t174 46.5q50 10 70.5 21.5t38.5 31.5q14 16 23 16q11 0 11 -13q0 -11 -24 -36
q-26 -29 -47.5 -46.5t-60 -33.5t-117.5 -36q-87 -21 -132 -37.5t-85.5 -54t-78.5 -112.5zM357 448q-49 0 -109 -70.5t-103.5 -161t-43.5 -145.5q0 -29 17 -45t44 -16q68 0 117 74.5t98 190.5q38 87 38 122q0 51 -58 51z" />
    <glyph glyph-name="periodcentered" unicode="&#x431;" horiz-adv-x="552" 
d="M146 380l17 -7q14 13 25 25q76 76 165 76q80 0 109.5 -45.5t29.5 -91.5q0 -61 -46.5 -146t-124 -144.5t-165.5 -59.5q-64 0 -95 41t-31 105q0 93 67.5 219.5t148.5 200.5q60 54 128 80.5t174 46.5q50 10 70.5 21.5t38.5 31.5q14 16 23 16q11 0 11 -13q0 -11 -24 -36
q-26 -29 -47.5 -46.5t-60 -33.5t-117.5 -36q-87 -21 -132 -37.5t-85.5 -54t-78.5 -112.5zM357 448q-49 0 -109 -70.5t-103.5 -161t-43.5 -145.5q0 -29 17 -45t44 -16q68 0 117 74.5t98 190.5q38 87 38 122q0 51 -58 51z" />
    <glyph glyph-name="quotesinglbase" unicode="&#xe2;" horiz-adv-x="512" 
d="M282 257v-3q139 -2 139 -88q0 -43 -38 -84.5t-99 -68t-126 -26.5q-74 0 -108 39.5t-34 87.5q0 62 38.5 128.5t105.5 124.5t138.5 90.5t135.5 32.5q40 0 67 -18.5t27 -52.5q0 -44 -51 -84.5t-155 -66.5q-28 -7 -40 -11zM172 251q280 58 280 180q0 35 -44 35
q-54 0 -123.5 -68.5t-112.5 -146.5zM158 227q-61 -96 -61 -159q0 -58 63 -58q53 0 108 57.5t55 112.5q0 27 -20.5 44t-68.5 17q-42 0 -76 -14z" />
    <glyph glyph-name="quotesinglbase" unicode="&#x201a;" horiz-adv-x="512" 
d="M282 257v-3q139 -2 139 -88q0 -43 -38 -84.5t-99 -68t-126 -26.5q-74 0 -108 39.5t-34 87.5q0 62 38.5 128.5t105.5 124.5t138.5 90.5t135.5 32.5q40 0 67 -18.5t27 -52.5q0 -44 -51 -84.5t-155 -66.5q-28 -7 -40 -11zM172 251q280 58 280 180q0 35 -44 35
q-54 0 -123.5 -68.5t-112.5 -146.5zM158 227q-61 -96 -61 -159q0 -58 63 -58q53 0 108 57.5t55 112.5q0 27 -20.5 44t-68.5 17q-42 0 -76 -14z" />
    <glyph glyph-name="quotesinglbase" unicode="&#x432;" horiz-adv-x="512" 
d="M282 257v-3q139 -2 139 -88q0 -43 -38 -84.5t-99 -68t-126 -26.5q-74 0 -108 39.5t-34 87.5q0 62 38.5 128.5t105.5 124.5t138.5 90.5t135.5 32.5q40 0 67 -18.5t27 -52.5q0 -44 -51 -84.5t-155 -66.5q-28 -7 -40 -11zM172 251q280 58 280 180q0 35 -44 35
q-54 0 -123.5 -68.5t-112.5 -146.5zM158 227q-61 -96 -61 -159q0 -58 63 -58q53 0 108 57.5t55 112.5q0 27 -20.5 44t-68.5 17q-42 0 -76 -14z" />
    <glyph glyph-name="quotedblbase" unicode="&#xe3;" horiz-adv-x="390" 
d="M319 98q-21 -25 -95.5 -68t-128.5 -43q-31 0 -45.5 15t-14.5 34q0 27 33.5 78.5t150.5 212.5q41 56 52 73t11 30q0 20 -20 20q-34 0 -133 -74q-26 -21 -34 -21q-12 0 -12 13q0 14 42.5 43.5t98.5 54t89 24.5q22 0 41 -11t19 -39q0 -23 -36.5 -81.5t-148.5 -209.5
q-62 -85 -62 -102q0 -21 20 -21q26 0 115 62q47 34 52 34q11 0 11 -14q0 -2 -5 -10z" />
    <glyph glyph-name="quotedblbase" unicode="&#x201e;" horiz-adv-x="390" 
d="M319 98q-21 -25 -95.5 -68t-128.5 -43q-31 0 -45.5 15t-14.5 34q0 27 33.5 78.5t150.5 212.5q41 56 52 73t11 30q0 20 -20 20q-34 0 -133 -74q-26 -21 -34 -21q-12 0 -12 13q0 14 42.5 43.5t98.5 54t89 24.5q22 0 41 -11t19 -39q0 -23 -36.5 -81.5t-148.5 -209.5
q-62 -85 -62 -102q0 -21 20 -21q26 0 115 62q47 34 52 34q11 0 11 -14q0 -2 -5 -10z" />
    <glyph glyph-name="quotedblbase" unicode="&#x433;" horiz-adv-x="390" 
d="M319 98q-21 -25 -95.5 -68t-128.5 -43q-31 0 -45.5 15t-14.5 34q0 27 33.5 78.5t150.5 212.5q41 56 52 73t11 30q0 20 -20 20q-34 0 -133 -74q-26 -21 -34 -21q-12 0 -12 13q0 14 42.5 43.5t98.5 54t89 24.5q22 0 41 -11t19 -39q0 -23 -36.5 -81.5t-148.5 -209.5
q-62 -85 -62 -102q0 -21 20 -21q26 0 115 62q47 34 52 34q11 0 11 -14q0 -2 -5 -10z" />
    <glyph glyph-name="perthousand" unicode="&#xe4;" horiz-adv-x="551" 
d="M451 387l6 -1q26 69 26 138q0 81 -24.5 107t-69 47t-44.5 53q0 18 11 18q31 0 77.5 -33.5t80.5 -92.5t34 -131q0 -108 -56.5 -228.5t-146.5 -198.5t-184 -78q-53 0 -92 38t-39 97q0 96 55.5 177t136 129.5t146.5 48.5q42 0 64 -26t19 -64zM420 398q0 55 -46 55
q-51 0 -114.5 -74t-109 -170.5t-45.5 -144.5q0 -57 53 -57q50 0 112 72t106 167.5t44 151.5z" />
    <glyph glyph-name="perthousand" unicode="&#x2030;" horiz-adv-x="551" 
d="M451 387l6 -1q26 69 26 138q0 81 -24.5 107t-69 47t-44.5 53q0 18 11 18q31 0 77.5 -33.5t80.5 -92.5t34 -131q0 -108 -56.5 -228.5t-146.5 -198.5t-184 -78q-53 0 -92 38t-39 97q0 96 55.5 177t136 129.5t146.5 48.5q42 0 64 -26t19 -64zM420 398q0 55 -46 55
q-51 0 -114.5 -74t-109 -170.5t-45.5 -144.5q0 -57 53 -57q50 0 112 72t106 167.5t44 151.5z" />
    <glyph glyph-name="perthousand" unicode="&#x434;" horiz-adv-x="551" 
d="M451 387l6 -1q26 69 26 138q0 81 -24.5 107t-69 47t-44.5 53q0 18 11 18q31 0 77.5 -33.5t80.5 -92.5t34 -131q0 -108 -56.5 -228.5t-146.5 -198.5t-184 -78q-53 0 -92 38t-39 97q0 96 55.5 177t136 129.5t146.5 48.5q42 0 64 -26t19 -64zM420 398q0 55 -46 55
q-51 0 -114.5 -74t-109 -170.5t-45.5 -144.5q0 -57 53 -57q50 0 112 72t106 167.5t44 151.5z" />
    <glyph glyph-name="Acircumflex" unicode="&#xe5;" horiz-adv-x="478" 
d="M143 190q-25 -67 -25 -125q0 -41 62 -41q43 0 105 47q25 19 38.5 31t18.5 12q13 0 13 -16q0 -12 -34 -40t-85.5 -49.5t-99.5 -21.5q-57 0 -90 33t-33 83q0 78 71 169t168 154.5t163 63.5q34 0 57 -16t23 -46q0 -39 -41 -83.5t-119 -84.5t-192 -70zM156 217
q103 34 184 93.5t81 115.5q0 35 -34 35q-57 0 -127.5 -81.5t-103.5 -162.5z" />
    <glyph glyph-name="Acircumflex" unicode="&#x435;" horiz-adv-x="478" 
d="M143 190q-25 -67 -25 -125q0 -41 62 -41q43 0 105 47q25 19 38.5 31t18.5 12q13 0 13 -16q0 -12 -34 -40t-85.5 -49.5t-99.5 -21.5q-57 0 -90 33t-33 83q0 78 71 169t168 154.5t163 63.5q34 0 57 -16t23 -46q0 -39 -41 -83.5t-119 -84.5t-192 -70zM156 217
q103 34 184 93.5t81 115.5q0 35 -34 35q-57 0 -127.5 -81.5t-103.5 -162.5z" />
    <glyph glyph-name="Ecircumflex" unicode="&#xe6;" horiz-adv-x="1017" 
d="M588 253l88 -1q52 87 153 161t194 74q55 0 75.5 -17t20.5 -31t-11 -25t-30 -11q-28 0 -47 28q-20 32 -54 32q-43 0 -89 -42.5t-86.5 -108.5t-65.5 -128.5t-25 -93.5q0 -66 67 -66q34 0 54.5 14t45 43.5t41 42t44.5 12.5q14 0 14 -11q0 -10 -46 -48q-57 -45 -100 -67.5
t-101 -22.5q-51 0 -77.5 29t-26.5 77q0 61 42 141h-89l-125 -235h-85l123 235h-84q-74 -128 -170.5 -187.5t-182.5 -59.5q-62 0 -89 18.5t-27 38.5q0 16 12.5 26t29.5 10q33 0 54 -36q19 -31 53 -31q63 0 126.5 70t106 162t42.5 141q0 29 -14.5 49.5t-46.5 20.5
q-20 0 -42.5 -9t-41 -21.5t-41 -31.5t-34.5 -30q-25 -25 -32 -25q-12 0 -12 11q0 16 40.5 51t95 62t99.5 27q60 0 89 -33t29 -84q0 -34 -38 -120h88l121 226h80z" />
    <glyph glyph-name="Ecircumflex" unicode="&#x436;" horiz-adv-x="1017" 
d="M588 253l88 -1q52 87 153 161t194 74q55 0 75.5 -17t20.5 -31t-11 -25t-30 -11q-28 0 -47 28q-20 32 -54 32q-43 0 -89 -42.5t-86.5 -108.5t-65.5 -128.5t-25 -93.5q0 -66 67 -66q34 0 54.5 14t45 43.5t41 42t44.5 12.5q14 0 14 -11q0 -10 -46 -48q-57 -45 -100 -67.5
t-101 -22.5q-51 0 -77.5 29t-26.5 77q0 61 42 141h-89l-125 -235h-85l123 235h-84q-74 -128 -170.5 -187.5t-182.5 -59.5q-62 0 -89 18.5t-27 38.5q0 16 12.5 26t29.5 10q33 0 54 -36q19 -31 53 -31q63 0 126.5 70t106 162t42.5 141q0 29 -14.5 49.5t-46.5 20.5
q-20 0 -42.5 -9t-41 -21.5t-41 -31.5t-34.5 -30q-25 -25 -32 -25q-12 0 -12 11q0 16 40.5 51t95 62t99.5 27q60 0 89 -33t29 -84q0 -34 -38 -120h88l121 226h80z" />
    <glyph glyph-name="Aacute" unicode="&#xe7;" horiz-adv-x="489" 
d="M282 260l1 -8q50 -2 86.5 -29t36.5 -73q0 -41 -34.5 -79t-97.5 -61t-142 -23q-89 0 -127 27t-38 55q0 18 14.5 28t27.5 10q35 0 54 -50q12 -31 30 -40.5t43 -9.5q80 0 126 58t46 118q0 55 -83 60q-9 2 -19.5 1t-20.5 -1q-18 0 -18 12q0 14 37 14q61 0 104.5 23t65.5 56
t22 60q0 16 -16 30.5t-55 14.5q-51 0 -141 -57q-26 -19 -35 -21t-13 0q-5 3 -5 7q0 17 43.5 42.5t100 45.5t91.5 20q64 0 93.5 -27t29.5 -65q0 -41 -43 -83t-164 -55z" />
    <glyph glyph-name="Aacute" unicode="&#x437;" horiz-adv-x="489" 
d="M282 260l1 -8q50 -2 86.5 -29t36.5 -73q0 -41 -34.5 -79t-97.5 -61t-142 -23q-89 0 -127 27t-38 55q0 18 14.5 28t27.5 10q35 0 54 -50q12 -31 30 -40.5t43 -9.5q80 0 126 58t46 118q0 55 -83 60q-9 2 -19.5 1t-20.5 -1q-18 0 -18 12q0 14 37 14q61 0 104.5 23t65.5 56
t22 60q0 16 -16 30.5t-55 14.5q-51 0 -141 -57q-26 -19 -35 -21t-13 0q-5 3 -5 7q0 17 43.5 42.5t100 45.5t91.5 20q64 0 93.5 -27t29.5 -65q0 -41 -43 -83t-164 -55z" />
    <glyph glyph-name="Edieresis" unicode="&#xe8;" horiz-adv-x="643" 
d="M626 476l-178 -336q-32 -60 -32 -73q0 -17 17 -17q24 0 71 43q29 24 54 48t33 24q15 0 15 -13t-50 -55.5t-105.5 -76t-82.5 -33.5q-17 0 -30.5 8.5t-13.5 18.5q0 4 -0.5 14t4.5 30.5t18 48.5t32 60q6 10 11.5 19.5t12.5 21.5l-6 2q-78 -88 -167 -155.5t-154 -67.5
q-48 0 -48 43q0 29 30 78l137 258l10 20q15 26 15 35q0 11 -10 11q-12 0 -31 -13.5t-55 -45t-47.5 -41t-19.5 -9.5q-21 0 -21 13q0 19 47 56t104.5 67.5t85.5 30.5q42 0 42 -36q0 -21 -24 -66l-134 -258q-31 -56 -31 -69q0 -17 21 -17q53 0 192 143q55 59 73 80.5t30.5 39.5
t18.5 29t13 24l64 115z" />
    <glyph glyph-name="Edieresis" unicode="&#x438;" horiz-adv-x="643" 
d="M626 476l-178 -336q-32 -60 -32 -73q0 -17 17 -17q24 0 71 43q29 24 54 48t33 24q15 0 15 -13t-50 -55.5t-105.5 -76t-82.5 -33.5q-17 0 -30.5 8.5t-13.5 18.5q0 4 -0.5 14t4.5 30.5t18 48.5t32 60q6 10 11.5 19.5t12.5 21.5l-6 2q-78 -88 -167 -155.5t-154 -67.5
q-48 0 -48 43q0 29 30 78l137 258l10 20q15 26 15 35q0 11 -10 11q-12 0 -31 -13.5t-55 -45t-47.5 -41t-19.5 -9.5q-21 0 -21 13q0 19 47 56t104.5 67.5t85.5 30.5q42 0 42 -36q0 -21 -24 -66l-134 -258q-31 -56 -31 -69q0 -17 21 -17q53 0 192 143q55 59 73 80.5t30.5 39.5
t18.5 29t13 24l64 115z" />
    <glyph glyph-name="Egrave" unicode="&#xe9;" horiz-adv-x="688" 
d="M686 708q13 0 13 -16q0 -18 -40 -47.5t-97 -51.5t-110 -22t-84 21t-31 51q0 26 19.5 45.5t47.5 19.5q21 0 34.5 -8t13.5 -25q0 -25 -31 -39q-17 -10 -17 -19q0 -23 47 -23q113 0 200 92q20 22 35 22zM627 476l-179 -336q-32 -60 -32 -73q0 -17 17 -17q24 0 71 43
q29 24 54 48t33 24q15 0 15 -13q0 -14 -48.5 -55t-105.5 -75.5t-83 -34.5q-18 0 -31.5 8.5t-13.5 18.5q0 21 18.5 73.5t37.5 82.5q9 15 22 38l-6 2q-74 -83 -165 -153t-156 -70q-48 0 -48 43q0 29 30 78l137 258l10 20q15 26 15 35q0 11 -10 11q-12 0 -31 -13.5t-55 -45
t-47.5 -41t-19.5 -9.5q-21 0 -21 13q0 19 48 56t106.5 67.5t82.5 30.5q42 0 42 -36q0 -21 -24 -66l-134 -258q-31 -60 -31 -69q0 -17 21 -17q24 0 68 30.5t119 107.5q26 27 32 33q44 44 68.5 81t39.5 64l64 115z" />
    <glyph glyph-name="Egrave" unicode="&#x439;" horiz-adv-x="688" 
d="M686 708q13 0 13 -16q0 -18 -40 -47.5t-97 -51.5t-110 -22t-84 21t-31 51q0 26 19.5 45.5t47.5 19.5q21 0 34.5 -8t13.5 -25q0 -25 -31 -39q-17 -10 -17 -19q0 -23 47 -23q113 0 200 92q20 22 35 22zM627 476l-179 -336q-32 -60 -32 -73q0 -17 17 -17q24 0 71 43
q29 24 54 48t33 24q15 0 15 -13q0 -14 -48.5 -55t-105.5 -75.5t-83 -34.5q-18 0 -31.5 8.5t-13.5 18.5q0 21 18.5 73.5t37.5 82.5q9 15 22 38l-6 2q-74 -83 -165 -153t-156 -70q-48 0 -48 43q0 29 30 78l137 258l10 20q15 26 15 35q0 11 -10 11q-12 0 -31 -13.5t-55 -45
t-47.5 -41t-19.5 -9.5q-21 0 -21 13q0 19 48 56t106.5 67.5t82.5 30.5q42 0 42 -36q0 -21 -24 -66l-134 -258q-31 -60 -31 -69q0 -17 21 -17q24 0 68 30.5t119 107.5q26 27 32 33q44 44 68.5 81t39.5 64l64 115z" />
    <glyph glyph-name="Iacute" unicode="&#xea;" horiz-adv-x="665" 
d="M256 279h27q50 0 88 18t78 76q36 53 71 85t82 32q38 0 52 -13.5t14 -27.5q0 -13 -13.5 -25.5t-29.5 -12.5q-23 0 -45 16q-13 11 -25 11q-26 0 -55 -44q-37 -52 -52.5 -71t-42 -36.5t-63.5 -18.5v-8q89 -9 89 -125q0 -9 -1.5 -22t-3 -27t-1.5 -24q0 -28 19 -28q13 0 23 8
t30.5 29.5t32 31.5t20.5 10q19 0 19 -9q0 -26 -62.5 -71.5t-112.5 -45.5q-30 0 -46.5 16.5t-16.5 39.5q0 10 9 69.5t9 82.5q0 30 -16.5 45t-43.5 15h-46l-136 -255h-82l193 366q25 47 25 55q0 11 -9 11q-15 0 -26 -10t-40 -41t-48 -44.5t-41 -13.5q-19 0 -19 13
q0 21 46.5 57t104.5 66.5t85 30.5q43 0 43 -36q0 -22 -24 -66z" />
    <glyph glyph-name="Iacute" unicode="&#x43a;" horiz-adv-x="665" 
d="M256 279h27q50 0 88 18t78 76q36 53 71 85t82 32q38 0 52 -13.5t14 -27.5q0 -13 -13.5 -25.5t-29.5 -12.5q-23 0 -45 16q-13 11 -25 11q-26 0 -55 -44q-37 -52 -52.5 -71t-42 -36.5t-63.5 -18.5v-8q89 -9 89 -125q0 -9 -1.5 -22t-3 -27t-1.5 -24q0 -28 19 -28q13 0 23 8
t30.5 29.5t32 31.5t20.5 10q19 0 19 -9q0 -26 -62.5 -71.5t-112.5 -45.5q-30 0 -46.5 16.5t-16.5 39.5q0 10 9 69.5t9 82.5q0 30 -16.5 45t-43.5 15h-46l-136 -255h-82l193 366q25 47 25 55q0 11 -9 11q-15 0 -26 -10t-40 -41t-48 -44.5t-41 -13.5q-19 0 -19 13
q0 21 46.5 57t104.5 66.5t85 30.5q43 0 43 -36q0 -22 -24 -66z" />
    <glyph glyph-name="Icircumflex" unicode="&#xeb;" horiz-adv-x="633" 
d="M522 452h-57q-41 0 -59.5 -8t-27.5 -22t-36 -64q-27 -46 -61 -97q-102 -153 -168.5 -213.5t-145.5 -60.5q-25 0 -45 13t-20 31q0 17 13.5 26.5t31.5 9.5q14 0 44 -14q24 -15 41 -15q41 0 111.5 83.5t131.5 184.5t61 124q0 28 -42 28q-39 0 -39 11q0 7 13 7h349l-181 -336
q-32 -59 -32 -73q0 -17 16 -17q13 0 36.5 16t34.5 27q20 16 38 33t25.5 24.5t12.5 11t12 3.5q14 0 14 -13q0 -14 -48 -55t-105 -75.5t-84 -34.5q-17 0 -30.5 8.5t-13.5 18.5q0 21 18.5 73.5t37.5 82.5q7 11 21 38z" />
    <glyph glyph-name="Icircumflex" unicode="&#x43b;" horiz-adv-x="633" 
d="M522 452h-57q-41 0 -59.5 -8t-27.5 -22t-36 -64q-27 -46 -61 -97q-102 -153 -168.5 -213.5t-145.5 -60.5q-25 0 -45 13t-20 31q0 17 13.5 26.5t31.5 9.5q14 0 44 -14q24 -15 41 -15q41 0 111.5 83.5t131.5 184.5t61 124q0 28 -42 28q-39 0 -39 11q0 7 13 7h349l-181 -336
q-32 -59 -32 -73q0 -17 16 -17q13 0 36.5 16t34.5 27q20 16 38 33t25.5 24.5t12.5 11t12 3.5q14 0 14 -13q0 -14 -48 -55t-105 -75.5t-84 -34.5q-17 0 -30.5 8.5t-13.5 18.5q0 21 18.5 73.5t37.5 82.5q7 11 21 38z" />
    <glyph glyph-name="Idieresis" unicode="&#xec;" horiz-adv-x="835" 
d="M347 446h-19q-17 -35 -30 -69q-18 -45 -48 -103q-59 -113 -99.5 -172t-83 -87t-92.5 -28q-73 0 -73 39q0 15 14.5 26t32.5 11q16 0 41 -14q24 -12 38 -12q25 0 68 47t85.5 114.5t72.5 135.5t30 99q0 21 -41 24q-13 1 -29 0q-18 -1 -18 12q0 7 23 7h200l-33 -335l298 335
h133l-46 -66l-147 -270q-32 -59 -32 -73q0 -17 16 -17q20 0 72 43q25 20 44 39t28 26t15 7q15 0 15 -13q0 -14 -48 -55t-105 -75.5t-84 -34.5q-18 0 -31 9t-13 18q0 27 16 72t38 83q15 25 23 39l134 238h-19l-395 -444h-14z" />
    <glyph glyph-name="Idieresis" unicode="&#x43c;" horiz-adv-x="835" 
d="M347 446h-19q-17 -35 -30 -69q-18 -45 -48 -103q-59 -113 -99.5 -172t-83 -87t-92.5 -28q-73 0 -73 39q0 15 14.5 26t32.5 11q16 0 41 -14q24 -12 38 -12q25 0 68 47t85.5 114.5t72.5 135.5t30 99q0 21 -41 24q-13 1 -29 0q-18 -1 -18 12q0 7 23 7h200l-33 -335l298 335
h133l-46 -66l-147 -270q-32 -59 -32 -73q0 -17 16 -17q20 0 72 43q25 20 44 39t28 26t15 7q15 0 15 -13q0 -14 -48 -55t-105 -75.5t-84 -34.5q-18 0 -31 9t-13 18q0 27 16 72t38 83q15 25 23 39l134 238h-19l-395 -444h-14z" />
    <glyph glyph-name="Igrave" unicode="&#xed;" horiz-adv-x="658" 
d="M25 0l193 366q3 5 4 7t6 11q16 21 16 37q0 11 -10 11q-15 0 -26 -10t-40 -41t-47 -44.5t-41 -13.5q-20 0 -20 13q0 19 47 56t104.5 67.5t84.5 30.5q43 0 43 -36q0 -21 -24 -66l-64 -119h198l111 207h82l-121 -227l-59 -109q-32 -61 -32 -73q0 -17 16 -17q24 0 72 42
q24 20 51.5 46.5t36.5 26.5q14 0 14 -13t-49.5 -55.5t-104.5 -76t-84 -33.5q-34 0 -43 27q-5 15 0 36q12 52 77 158l21 38h-198l-132 -246h-82z" />
    <glyph glyph-name="Igrave" unicode="&#x43d;" horiz-adv-x="658" 
d="M25 0l193 366q3 5 4 7t6 11q16 21 16 37q0 11 -10 11q-15 0 -26 -10t-40 -41t-47 -44.5t-41 -13.5q-20 0 -20 13q0 19 47 56t104.5 67.5t84.5 30.5q43 0 43 -36q0 -21 -24 -66l-64 -119h198l111 207h82l-121 -227l-59 -109q-32 -61 -32 -73q0 -17 16 -17q24 0 72 42
q24 20 51.5 46.5t36.5 26.5q14 0 14 -13t-49.5 -55.5t-104.5 -76t-84 -33.5q-34 0 -43 27q-5 15 0 36q12 52 77 158l21 38h-198l-132 -246h-82z" />
    <glyph glyph-name="Oacute" unicode="&#xee;" horiz-adv-x="545" 
d="M375 490q59 0 99.5 -38.5t40.5 -101.5q0 -92 -56 -176.5t-137.5 -135.5t-149.5 -51q-56 0 -99 36t-43 106q0 85 52.5 169.5t134 138t158.5 53.5zM376 470q-61 0 -123 -78.5t-103.5 -179.5t-41.5 -147q0 -30 20.5 -44.5t42.5 -14.5q49 0 113 75t111 175t47 159
q0 22 -19.5 38.5t-46.5 16.5z" />
    <glyph glyph-name="Oacute" unicode="&#x43e;" horiz-adv-x="545" 
d="M375 490q59 0 99.5 -38.5t40.5 -101.5q0 -92 -56 -176.5t-137.5 -135.5t-149.5 -51q-56 0 -99 36t-43 106q0 85 52.5 169.5t134 138t158.5 53.5zM376 470q-61 0 -123 -78.5t-103.5 -179.5t-41.5 -147q0 -30 20.5 -44.5t42.5 -14.5q49 0 113 75t111 175t47 159
q0 22 -19.5 38.5t-46.5 16.5z" />
    <glyph glyph-name="Ocircumflex" unicode="&#xef;" horiz-adv-x="657" 
d="M319 388l-75 -134q28 25 51 50q85 88 165.5 137t124.5 49q17 0 35 -9t18 -32q0 -19 -20 -59l-143 -264q-25 -50 -25 -59q0 -17 17 -17q22 0 72 42q24 20 50.5 46.5t36.5 26.5q15 0 15 -13q0 -21 -49.5 -60.5t-109.5 -72t-79 -32.5q-30 0 -44 27q-5 15 0 36q8 33 46 102
q10 18 16 29.5t8.5 15t7.5 11.5l104 193q5 8 5 16q0 22 -23 22q-30 0 -99 -55.5t-137 -128.5t-101 -129l-75 -125h-86l199 365q2 5 3.5 8l8.5 17q12 22 12 29q0 12 -10 12q-15 0 -53.5 -27.5t-62.5 -51.5q-31 -30 -38 -30q-19 0 -19 13q0 20 45 56.5t101.5 66.5t89.5 30
q42 0 42 -36q0 -23 -24 -65z" />
    <glyph glyph-name="Ocircumflex" unicode="&#x43f;" horiz-adv-x="657" 
d="M319 388l-75 -134q28 25 51 50q85 88 165.5 137t124.5 49q17 0 35 -9t18 -32q0 -19 -20 -59l-143 -264q-25 -50 -25 -59q0 -17 17 -17q22 0 72 42q24 20 50.5 46.5t36.5 26.5q15 0 15 -13q0 -21 -49.5 -60.5t-109.5 -72t-79 -32.5q-30 0 -44 27q-5 15 0 36q8 33 46 102
q10 18 16 29.5t8.5 15t7.5 11.5l104 193q5 8 5 16q0 22 -23 22q-30 0 -99 -55.5t-137 -128.5t-101 -129l-75 -125h-86l199 365q2 5 3.5 8l8.5 17q12 22 12 29q0 12 -10 12q-15 0 -53.5 -27.5t-62.5 -51.5q-31 -30 -38 -30q-19 0 -19 13q0 20 45 56.5t101.5 66.5t89.5 30
q42 0 42 -36q0 -23 -24 -65z" />
    <glyph glyph-name="apple" unicode="&#xf0;" horiz-adv-x="588" 
d="M248 443l48 87h77l-28 -59q35 7 56 7q72 0 116 -36t44 -95q0 -61 -45.5 -142t-126 -138t-181.5 -57q-46 0 -78 18v3l-66 -131q-21 -39 -21 -57q0 -43 50 -39q20 0 20 -9q0 -12 -14 -12h-237q-11 0 -11 8q0 12 18 12q46 3 66.5 23.5t39.5 58.5l254 516q-51 -23 -75 -38.5
t-36.5 -27t-22.5 -11.5q-15 0 -15 18q0 15 69.5 53.5t98.5 47.5zM324 428l-179 -369q19 -24 71 -24q70 0 126.5 52.5t88.5 127t32 133.5q0 87 -105 87q-16 0 -34 -7z" />
    <glyph glyph-name="apple" unicode="&#x440;" horiz-adv-x="588" 
d="M248 443l48 87h77l-28 -59q35 7 56 7q72 0 116 -36t44 -95q0 -61 -45.5 -142t-126 -138t-181.5 -57q-46 0 -78 18v3l-66 -131q-21 -39 -21 -57q0 -43 50 -39q20 0 20 -9q0 -12 -14 -12h-237q-11 0 -11 8q0 12 18 12q46 3 66.5 23.5t39.5 58.5l254 516q-51 -23 -75 -38.5
t-36.5 -27t-22.5 -11.5q-15 0 -15 18q0 15 69.5 53.5t98.5 47.5zM324 428l-179 -369q19 -24 71 -24q70 0 126.5 52.5t88.5 127t32 133.5q0 87 -105 87q-16 0 -34 -7z" />
    <glyph glyph-name="Ograve" unicode="&#xf1;" horiz-adv-x="492" 
d="M415 490q28 0 54.5 -8t41.5 -21t15 -30q0 -40 -44 -40q-36 0 -57 42q-11 32 -43 32q-47 0 -107 -69.5t-102.5 -162.5t-42.5 -153q0 -53 54 -53q38 0 90 29.5t83 59.5q21 21 29 21q7 0 12 -2t5 -8q0 -12 -30 -35q-78 -62 -128.5 -83.5t-97.5 -21.5q-57 0 -90.5 31
t-33.5 85q0 84 63.5 175t156.5 151.5t172 60.5z" />
    <glyph glyph-name="Ograve" unicode="&#x441;" horiz-adv-x="492" 
d="M415 490q28 0 54.5 -8t41.5 -21t15 -30q0 -40 -44 -40q-36 0 -57 42q-11 32 -43 32q-47 0 -107 -69.5t-102.5 -162.5t-42.5 -153q0 -53 54 -53q38 0 90 29.5t83 59.5q21 21 29 21q7 0 12 -2t5 -8q0 -12 -30 -35q-78 -62 -128.5 -83.5t-97.5 -21.5q-57 0 -90.5 31
t-33.5 85q0 84 63.5 175t156.5 151.5t172 60.5z" />
    <glyph glyph-name="Uacute" unicode="&#xf2;" horiz-adv-x="934" 
d="M255 279l4 4q85 95 170 150t146 55q21 0 33.5 -10.5t12.5 -31.5q0 -31 -30 -84l-46 -84l4 5q73 81 163 143t153 62q25 0 36.5 -13t11.5 -29q0 -28 -30 -84l-124 -222q-37 -64 -41 -81q-1 -4 0 -9q2 -8 13 -8q15 0 31 12t42 34q32 26 57.5 51.5t35.5 25.5q16 0 16 -13
q0 -21 -47 -60.5t-106 -72t-89 -32.5q-20 0 -34 8t-14 17q0 44 75 186l100 186q12 24 12 32q0 18 -19 18q-35 0 -97 -50t-126.5 -126.5t-98.5 -142.5l-62 -116h-92l193 385q11 22 11 32q0 18 -18 18q-39 0 -101.5 -52t-125.5 -127.5t-96 -139.5l-63 -116h-90l191 367
q25 47 25 55q0 11 -9 11q-12 0 -36.5 -15.5t-50 -36t-39.5 -34.5q-26 -23 -29 -23q-19 0 -19 13q0 19 46 55.5t103.5 67.5t86.5 31q43 0 43 -36q0 -18 -25 -66z" />
    <glyph glyph-name="Uacute" unicode="&#x442;" horiz-adv-x="934" 
d="M255 279l4 4q85 95 170 150t146 55q21 0 33.5 -10.5t12.5 -31.5q0 -31 -30 -84l-46 -84l4 5q73 81 163 143t153 62q25 0 36.5 -13t11.5 -29q0 -28 -30 -84l-124 -222q-37 -64 -41 -81q-1 -4 0 -9q2 -8 13 -8q15 0 31 12t42 34q32 26 57.5 51.5t35.5 25.5q16 0 16 -13
q0 -21 -47 -60.5t-106 -72t-89 -32.5q-20 0 -34 8t-14 17q0 44 75 186l100 186q12 24 12 32q0 18 -19 18q-35 0 -97 -50t-126.5 -126.5t-98.5 -142.5l-62 -116h-92l193 385q11 22 11 32q0 18 -18 18q-39 0 -101.5 -52t-125.5 -127.5t-96 -139.5l-63 -116h-90l191 367
q25 47 25 55q0 11 -9 11q-12 0 -36.5 -15.5t-50 -36t-39.5 -34.5q-26 -23 -29 -23q-19 0 -19 13q0 19 46 55.5t103.5 67.5t86.5 31q43 0 43 -36q0 -18 -25 -66z" />
    <glyph glyph-name="Ucircumflex" unicode="&#xf3;" horiz-adv-x="585" 
d="M297 41q60 57 133.5 157t73.5 154q0 19 -4.5 40t-4.5 44q0 54 48 54q47 0 47 -49q0 -56 -81 -174.5t-150 -195.5q-118 -135 -217 -219t-208 -84q-73 0 -73 40q0 14 12.5 27t24.5 14h11q17 -1 23 -5l30 -20q19 -14 37 -14q101 0 152 66t64.5 145t18.5 184q4 84 4 151
q0 68 -12 72q-6 3 -10 0q-23 -5 -80 -68q-20 -21 -36 -41q-13 -15 -18 -15q-16 0 -16 7q0 18 38.5 62.5t86.5 80.5t72 36q54 0 56 -63q2 -9 1 -19t-1 -20v-31v-28q0 -50 -7 -141t-15 -147z" />
    <glyph glyph-name="Ucircumflex" unicode="&#x443;" horiz-adv-x="585" 
d="M297 41q60 57 133.5 157t73.5 154q0 19 -4.5 40t-4.5 44q0 54 48 54q47 0 47 -49q0 -56 -81 -174.5t-150 -195.5q-118 -135 -217 -219t-208 -84q-73 0 -73 40q0 14 12.5 27t24.5 14h11q17 -1 23 -5l30 -20q19 -14 37 -14q101 0 152 66t64.5 145t18.5 184q4 84 4 151
q0 68 -12 72q-6 3 -10 0q-23 -5 -80 -68q-20 -21 -36 -41q-13 -15 -18 -15q-16 0 -16 7q0 18 38.5 62.5t86.5 80.5t72 36q54 0 56 -63q2 -9 1 -19t-1 -20v-31v-28q0 -50 -7 -141t-15 -147z" />
    <glyph glyph-name="Ugrave" unicode="&#xf4;" horiz-adv-x="866" 
d="M561 408q34 41 81 62.5t83 21.5q42 0 76 -27.5t34 -98.5q0 -68 -34.5 -134.5t-90.5 -120t-117 -85t-112 -31.5q-33 0 -59.5 18.5t-33.5 52.5q-55 -136 -131.5 -217t-192.5 -81q-99 0 -99 53q0 16 11.5 26t30.5 10q15 0 24 -6.5t26 -20.5q32 -32 65 -32q23 0 44 17
t40.5 49t42 76.5t64.5 128.5q-41 -32 -82 -53t-85 -21q-51 0 -84.5 31t-33.5 84q0 84 56.5 173t140.5 149t159 60q40 0 67 -17t39 -49q27 86 87.5 161.5t132.5 118.5t135 43q28 0 48.5 -6t32 -17t11.5 -24q0 -17 -14 -25t-27 -8q-21 0 -47 22q-14 11 -26 19t-29 8
q-32 0 -63.5 -29t-60 -74.5t-60 -108t-49.5 -98.5zM685 447q-48 0 -109.5 -61.5t-106.5 -147.5t-45 -149q0 -71 66 -71q58 0 118 70.5t100 161t40 135.5q0 31 -18.5 46.5t-44.5 15.5zM382 463q-53 0 -114.5 -63.5t-105 -151.5t-43.5 -144q0 -31 17.5 -49.5t46.5 -18.5
q65 0 126.5 68.5t101.5 156.5t40 129q0 39 -21.5 56t-47.5 17z" />
    <glyph glyph-name="Ugrave" unicode="&#x444;" horiz-adv-x="866" 
d="M561 408q34 41 81 62.5t83 21.5q42 0 76 -27.5t34 -98.5q0 -68 -34.5 -134.5t-90.5 -120t-117 -85t-112 -31.5q-33 0 -59.5 18.5t-33.5 52.5q-55 -136 -131.5 -217t-192.5 -81q-99 0 -99 53q0 16 11.5 26t30.5 10q15 0 24 -6.5t26 -20.5q32 -32 65 -32q23 0 44 17
t40.5 49t42 76.5t64.5 128.5q-41 -32 -82 -53t-85 -21q-51 0 -84.5 31t-33.5 84q0 84 56.5 173t140.5 149t159 60q40 0 67 -17t39 -49q27 86 87.5 161.5t132.5 118.5t135 43q28 0 48.5 -6t32 -17t11.5 -24q0 -17 -14 -25t-27 -8q-21 0 -47 22q-14 11 -26 19t-29 8
q-32 0 -63.5 -29t-60 -74.5t-60 -108t-49.5 -98.5zM685 447q-48 0 -109.5 -61.5t-106.5 -147.5t-45 -149q0 -71 66 -71q58 0 118 70.5t100 161t40 135.5q0 31 -18.5 46.5t-44.5 15.5zM382 463q-53 0 -114.5 -63.5t-105 -151.5t-43.5 -144q0 -31 17.5 -49.5t46.5 -18.5
q65 0 126.5 68.5t101.5 156.5t40 129q0 39 -21.5 56t-47.5 17z" />
    <glyph glyph-name="dotlessi" unicode="&#xf5;" horiz-adv-x="628" 
d="M335 442l10 -161q15 16 25.5 27.5t20.5 22t19 20.5q55 63 99.5 100.5t89.5 37.5q48 0 48 -56q0 -31 -15.5 -65t-33.5 -34q-9 0 -9 15q0 5 7 28.5t7 37.5q0 19 -25 19q-34 0 -59 -16.5t-62 -50.5q-80 -78 -108 -111l17 -163q3 -45 14 -45q16 0 27 11.5t31 41.5t35 43.5
t35 13.5q9 0 9 -13q0 -32 -73 -95t-109 -63q-29 0 -36.5 17t-10.5 45l-13 145q-14 -16 -22 -25t-19 -22q-71 -81 -122.5 -120.5t-92.5 -39.5q-52 0 -52 58q0 22 14 58.5t29 36.5q5 0 8 -3q2 -3 0 -11q-11 -40 -11 -52q0 -13 10 -23t27 -10q36 0 116.5 66.5t113.5 118.5
l-18 182q0 7 -4 12.5t-10 5.5q-19 0 -78 -69q-19 -21 -23 -21q-15 0 -15 10q0 14 29.5 49t69 65t64.5 30q43 0 46 -48z" />
    <glyph glyph-name="dotlessi" unicode="&#x445;" horiz-adv-x="628" 
d="M335 442l10 -161q15 16 25.5 27.5t20.5 22t19 20.5q55 63 99.5 100.5t89.5 37.5q48 0 48 -56q0 -31 -15.5 -65t-33.5 -34q-9 0 -9 15q0 5 7 28.5t7 37.5q0 19 -25 19q-34 0 -59 -16.5t-62 -50.5q-80 -78 -108 -111l17 -163q3 -45 14 -45q16 0 27 11.5t31 41.5t35 43.5
t35 13.5q9 0 9 -13q0 -32 -73 -95t-109 -63q-29 0 -36.5 17t-10.5 45l-13 145q-14 -16 -22 -25t-19 -22q-71 -81 -122.5 -120.5t-92.5 -39.5q-52 0 -52 58q0 22 14 58.5t29 36.5q5 0 8 -3q2 -3 0 -11q-11 -40 -11 -52q0 -13 10 -23t27 -10q36 0 116.5 66.5t113.5 118.5
l-18 182q0 7 -4 12.5t-10 5.5q-19 0 -78 -69q-19 -21 -23 -21q-15 0 -15 10q0 14 29.5 49t69 65t64.5 30q43 0 46 -48z" />
    <glyph glyph-name="circumflex" unicode="&#xf6;" horiz-adv-x="644" 
d="M627 476l-179 -336q-32 -60 -32 -73q0 -17 17 -17q21 0 71 42q30 25 54 49t33 24q15 0 15 -13q0 -10 -66 -67q-66 -54 -83 -77.5t-39 -84.5q-23 -61 -57.5 -108t-107.5 -47q-14 0 -14 16q0 5 18 8.5t33.5 14.5t24.5 45q29 102 127 151l-5 6q-33 -22 -68 -22
q-21 0 -33 10.5t-12 16.5q0 56 56 154q11 22 22 40l-6 2q-78 -88 -166.5 -155.5t-153.5 -67.5q-49 0 -49 43q0 29 30 78l138 258q2 4 3.5 7.5t7.5 15.5q13 26 13 32q0 11 -10 11q-14 0 -47 -23t-77 -62q-8 -7 -14.5 -13.5t-9 -8.5t-5.5 -2q-21 0 -21 13q0 19 48 56
t106.5 67.5t82.5 30.5q42 0 42 -36q0 -21 -24 -66l-134 -258q-30 -56 -30 -69q0 -17 21 -17q52 0 186 138q24 25 32 32q42 42 67.5 80.5t40.5 65.5l64 115z" />
    <glyph glyph-name="circumflex" unicode="&#x446;" horiz-adv-x="644" 
d="M627 476l-179 -336q-32 -60 -32 -73q0 -17 17 -17q21 0 71 42q30 25 54 49t33 24q15 0 15 -13q0 -10 -66 -67q-66 -54 -83 -77.5t-39 -84.5q-23 -61 -57.5 -108t-107.5 -47q-14 0 -14 16q0 5 18 8.5t33.5 14.5t24.5 45q29 102 127 151l-5 6q-33 -22 -68 -22
q-21 0 -33 10.5t-12 16.5q0 56 56 154q11 22 22 40l-6 2q-78 -88 -166.5 -155.5t-153.5 -67.5q-49 0 -49 43q0 29 30 78l138 258q2 4 3.5 7.5t7.5 15.5q13 26 13 32q0 11 -10 11q-14 0 -47 -23t-77 -62q-8 -7 -14.5 -13.5t-9 -8.5t-5.5 -2q-21 0 -21 13q0 19 48 56
t106.5 67.5t82.5 30.5q42 0 42 -36q0 -21 -24 -66l-134 -258q-30 -56 -30 -69q0 -17 21 -17q52 0 186 138q24 25 32 32q42 42 67.5 80.5t40.5 65.5l64 115z" />
    <glyph glyph-name="circumflex" unicode="&#x2c6;" horiz-adv-x="644" 
d="M627 476l-179 -336q-32 -60 -32 -73q0 -17 17 -17q21 0 71 42q30 25 54 49t33 24q15 0 15 -13q0 -10 -66 -67q-66 -54 -83 -77.5t-39 -84.5q-23 -61 -57.5 -108t-107.5 -47q-14 0 -14 16q0 5 18 8.5t33.5 14.5t24.5 45q29 102 127 151l-5 6q-33 -22 -68 -22
q-21 0 -33 10.5t-12 16.5q0 56 56 154q11 22 22 40l-6 2q-78 -88 -166.5 -155.5t-153.5 -67.5q-49 0 -49 43q0 29 30 78l138 258q2 4 3.5 7.5t7.5 15.5q13 26 13 32q0 11 -10 11q-14 0 -47 -23t-77 -62q-8 -7 -14.5 -13.5t-9 -8.5t-5.5 -2q-21 0 -21 13q0 19 48 56
t106.5 67.5t82.5 30.5q42 0 42 -36q0 -21 -24 -66l-134 -258q-30 -56 -30 -69q0 -17 21 -17q52 0 186 138q24 25 32 32q42 42 67.5 80.5t40.5 65.5l64 115z" />
    <glyph glyph-name="tilde" unicode="&#xf7;" horiz-adv-x="606" 
d="M408 266l-5 2q-128 -87 -213 -87q-32 0 -52 15t-20 35q0 25 19 58l41 75q2 3 9 15q16 23 16 37q0 11 -9 11q-27 0 -116 -77q-29 -26 -34 -28q-9 -4 -14 0q-5 3 -5 12q0 28 95 92t134 64q20 0 31 -10t11 -31q0 -20 -15 -48l-55 -106q-21 -39 -21 -50q0 -26 40 -26
q41 0 106.5 44t88.5 85l63 115h86l-174 -327q-5 -10 -5 -12t-7 -14q-19 -38 -19 -45q0 -16 16 -16q19 0 70 41q24 20 42.5 38.5t26.5 25t16 6.5q15 0 15 -12q0 -8 -40 -44q-129 -117 -192 -117q-31 0 -42 26q-6 14 0 35q7 38 57 124q4 7 7 11t12 21q19 35 36 62z" />
    <glyph glyph-name="tilde" unicode="&#x447;" horiz-adv-x="606" 
d="M408 266l-5 2q-128 -87 -213 -87q-32 0 -52 15t-20 35q0 25 19 58l41 75q2 3 9 15q16 23 16 37q0 11 -9 11q-27 0 -116 -77q-29 -26 -34 -28q-9 -4 -14 0q-5 3 -5 12q0 28 95 92t134 64q20 0 31 -10t11 -31q0 -20 -15 -48l-55 -106q-21 -39 -21 -50q0 -26 40 -26
q41 0 106.5 44t88.5 85l63 115h86l-174 -327q-5 -10 -5 -12t-7 -14q-19 -38 -19 -45q0 -16 16 -16q19 0 70 41q24 20 42.5 38.5t26.5 25t16 6.5q15 0 15 -12q0 -8 -40 -44q-129 -117 -192 -117q-31 0 -42 26q-6 14 0 35q7 38 57 124q4 7 7 11t12 21q19 35 36 62z" />
    <glyph glyph-name="tilde" unicode="&#x2dc;" horiz-adv-x="606" 
d="M408 266l-5 2q-128 -87 -213 -87q-32 0 -52 15t-20 35q0 25 19 58l41 75q2 3 9 15q16 23 16 37q0 11 -9 11q-27 0 -116 -77q-29 -26 -34 -28q-9 -4 -14 0q-5 3 -5 12q0 28 95 92t134 64q20 0 31 -10t11 -31q0 -20 -15 -48l-55 -106q-21 -39 -21 -50q0 -26 40 -26
q41 0 106.5 44t88.5 85l63 115h86l-174 -327q-5 -10 -5 -12t-7 -14q-19 -38 -19 -45q0 -16 16 -16q19 0 70 41q24 20 42.5 38.5t26.5 25t16 6.5q15 0 15 -12q0 -8 -40 -44q-129 -117 -192 -117q-31 0 -42 26q-6 14 0 35q7 38 57 124q4 7 7 11t12 21q19 35 36 62z" />
    <glyph glyph-name="macron" unicode="&#xf8;" horiz-adv-x="935" 
d="M919 476l-179 -336q-6 -9 -19 -37t-13 -36q0 -17 16 -17q25 0 71 42q26 21 52 47t36 26q14 0 14 -13t-49.5 -55.5t-104.5 -76t-83 -33.5q-19 0 -31.5 9.5t-12.5 17.5q0 24 8.5 54t37.5 84q6 11 12 21t8 14t12 21l-7 2q-78 -88 -166 -155.5t-153 -67.5q-15 0 -32 8t-17 35
q0 16 15 46q3 6 7.5 16.5t6.5 15.5l54 101l-8 1q-69 -83 -161.5 -153t-157.5 -70q-48 0 -48 43q0 29 30 78l137 258l10 20q15 26 15 35q0 11 -10 11q-12 0 -31 -13.5t-55 -45t-47.5 -41t-19.5 -9.5q-21 0 -21 13q0 19 47 56t104.5 67.5t85.5 30.5q42 0 42 -36q0 -21 -24 -66
l-134 -258q-31 -56 -31 -69q0 -17 21 -17q53 0 192 143q55 59 73 80.5t30.5 39.5t18.5 29t13 24l64 115l89 1l-179 -346q-12 -23 -21 -42.5t-9 -26.5q0 -17 22 -17q23 0 54.5 21t59.5 47.5t93 91.5q35 35 80 94q9 12 17.5 24.5t12 20t8.5 17.5l64 115z" />
    <glyph glyph-name="macron" unicode="&#x448;" horiz-adv-x="935" 
d="M919 476l-179 -336q-6 -9 -19 -37t-13 -36q0 -17 16 -17q25 0 71 42q26 21 52 47t36 26q14 0 14 -13t-49.5 -55.5t-104.5 -76t-83 -33.5q-19 0 -31.5 9.5t-12.5 17.5q0 24 8.5 54t37.5 84q6 11 12 21t8 14t12 21l-7 2q-78 -88 -166 -155.5t-153 -67.5q-15 0 -32 8t-17 35
q0 16 15 46q3 6 7.5 16.5t6.5 15.5l54 101l-8 1q-69 -83 -161.5 -153t-157.5 -70q-48 0 -48 43q0 29 30 78l137 258l10 20q15 26 15 35q0 11 -10 11q-12 0 -31 -13.5t-55 -45t-47.5 -41t-19.5 -9.5q-21 0 -21 13q0 19 47 56t104.5 67.5t85.5 30.5q42 0 42 -36q0 -21 -24 -66
l-134 -258q-31 -56 -31 -69q0 -17 21 -17q53 0 192 143q55 59 73 80.5t30.5 39.5t18.5 29t13 24l64 115l89 1l-179 -346q-12 -23 -21 -42.5t-9 -26.5q0 -17 22 -17q23 0 54.5 21t59.5 47.5t93 91.5q35 35 80 94q9 12 17.5 24.5t12 20t8.5 17.5l64 115z" />
    <glyph glyph-name="breve" unicode="&#xf9;" horiz-adv-x="932" 
d="M919 476l-179 -336q-6 -9 -19 -37t-13 -36q0 -17 16 -17q25 0 71 42q26 21 52 47t36 26q14 0 14 -13q0 -29 -46.5 -57.5t-78 -58.5t-60.5 -112q-58 -156 -167 -156q-14 0 -14 16q0 3 16.5 7t33.5 16.5t27 43.5q16 46 42.5 83.5t83.5 68.5l-5 6q-31 -22 -69 -22
q-33 0 -43 27q-5 15 0 36q12 52 77 158l-7 2q-78 -88 -166 -155.5t-153 -67.5q-15 0 -32 8t-17 35q0 18 30 78l53 101l-6 1q-78 -88 -166.5 -155.5t-153.5 -67.5q-49 0 -49 43q0 29 30 78l137 258l10 20q15 26 15 35q0 11 -10 11q-14 0 -47 -23t-77 -62q-8 -7 -14.5 -13.5
t-9 -8.5t-5.5 -2q-21 0 -21 13q0 19 48 56t106.5 67.5t82.5 30.5q42 0 42 -36q0 -21 -24 -66l-134 -258q-30 -56 -30 -69q0 -17 21 -17q52 0 186 138q26 27 32 33q44 44 68.5 81t39.5 64l64 115l90 1l-179 -346q-3 -7 -10 -18t-14 -26.5t-7 -24.5q0 -17 22 -17
q31 0 75.5 36.5t131.5 123.5q35 35 80 94q9 12 17.5 24.5t12 20t8.5 17.5l64 115z" />
    <glyph glyph-name="breve" unicode="&#x449;" horiz-adv-x="932" 
d="M919 476l-179 -336q-6 -9 -19 -37t-13 -36q0 -17 16 -17q25 0 71 42q26 21 52 47t36 26q14 0 14 -13q0 -29 -46.5 -57.5t-78 -58.5t-60.5 -112q-58 -156 -167 -156q-14 0 -14 16q0 3 16.5 7t33.5 16.5t27 43.5q16 46 42.5 83.5t83.5 68.5l-5 6q-31 -22 -69 -22
q-33 0 -43 27q-5 15 0 36q12 52 77 158l-7 2q-78 -88 -166 -155.5t-153 -67.5q-15 0 -32 8t-17 35q0 18 30 78l53 101l-6 1q-78 -88 -166.5 -155.5t-153.5 -67.5q-49 0 -49 43q0 29 30 78l137 258l10 20q15 26 15 35q0 11 -10 11q-14 0 -47 -23t-77 -62q-8 -7 -14.5 -13.5
t-9 -8.5t-5.5 -2q-21 0 -21 13q0 19 48 56t106.5 67.5t82.5 30.5q42 0 42 -36q0 -21 -24 -66l-134 -258q-30 -56 -30 -69q0 -17 21 -17q52 0 186 138q26 27 32 33q44 44 68.5 81t39.5 64l64 115l90 1l-179 -346q-3 -7 -10 -18t-14 -26.5t-7 -24.5q0 -17 22 -17
q31 0 75.5 36.5t131.5 123.5q35 35 80 94q9 12 17.5 24.5t12 20t8.5 17.5l64 115z" />
    <glyph glyph-name="dotaccent" unicode="&#xfa;" horiz-adv-x="526" 
d="M459 452l-3 2q-55 -41 -114 -41q-30 0 -69 7q-22 7 -44.5 14t-40.5 7q-25 0 -54 -31q-16 -18 -24 -18q-10 0 -10 10q0 22 50.5 55t94.5 33q23 0 78 -9q75 -14 93 -14q22 0 52 13q17 9 26 9q10 0 10 -9q0 -8 -23 -31q-52 -50 -75 -69.5t-84 -61.5q-26 -18 -90 -67
q50 20 90 20q64 0 94 -31.5t30 -69.5q0 -36 -33 -79.5t-95 -73.5t-141 -30q-60 0 -102 30t-42 82q0 74 64.5 125t174.5 110q128 67 187 118zM222 225q-35 -24 -72 -79t-37 -91q0 -51 53 -51q35 0 79.5 33t76.5 80.5t32 85.5q0 23 -15.5 35.5t-39.5 12.5q-38 0 -77 -26z" />
    <glyph glyph-name="dotaccent" unicode="&#x44a;" horiz-adv-x="526" 
d="M459 452l-3 2q-55 -41 -114 -41q-30 0 -69 7q-22 7 -44.5 14t-40.5 7q-25 0 -54 -31q-16 -18 -24 -18q-10 0 -10 10q0 22 50.5 55t94.5 33q23 0 78 -9q75 -14 93 -14q22 0 52 13q17 9 26 9q10 0 10 -9q0 -8 -23 -31q-52 -50 -75 -69.5t-84 -61.5q-26 -18 -90 -67
q50 20 90 20q64 0 94 -31.5t30 -69.5q0 -36 -33 -79.5t-95 -73.5t-141 -30q-60 0 -102 30t-42 82q0 74 64.5 125t174.5 110q128 67 187 118zM222 225q-35 -24 -72 -79t-37 -91q0 -51 53 -51q35 0 79.5 33t76.5 80.5t32 85.5q0 23 -15.5 35.5t-39.5 12.5q-38 0 -77 -26z" />
    <glyph glyph-name="ring" unicode="&#xfb;" horiz-adv-x="781" 
d="M764 476l-178 -336q-32 -58 -32 -73q0 -17 16 -17q20 0 72 43q29 24 54 48t33 24q15 0 15 -13q0 -14 -48.5 -55.5t-105 -75.5t-83.5 -34q-18 0 -31.5 8.5t-13.5 18.5q0 45 78 194l136 267zM227 250h4q54 37 122 37q36 0 59 -13.5t34 -34t11 -45.5q0 -45 -44 -93.5
t-116 -81t-145 -32.5q-48 0 -79.5 22t-31.5 64q0 19 6.5 33.5t33.5 59.5l144 225q14 23 14 30q0 11 -8 11q-16 0 -63 -33t-68 -52q-11 -9 -19.5 -16.5t-13.5 -7.5q-19 0 -19 13q0 19 50 55.5t112.5 67.5t87.5 31q39 0 39 -36q0 -17 -29 -66zM226 215q-33 -27 -70.5 -81.5
t-37.5 -88.5q0 -37 46 -37q37 0 85 36t82 87.5t34 93.5q0 35 -42 35q-20 0 -48.5 -13.5t-48.5 -31.5z" />
    <glyph glyph-name="ring" unicode="&#x44b;" horiz-adv-x="781" 
d="M764 476l-178 -336q-32 -58 -32 -73q0 -17 16 -17q20 0 72 43q29 24 54 48t33 24q15 0 15 -13q0 -14 -48.5 -55.5t-105 -75.5t-83.5 -34q-18 0 -31.5 8.5t-13.5 18.5q0 45 78 194l136 267zM227 250h4q54 37 122 37q36 0 59 -13.5t34 -34t11 -45.5q0 -45 -44 -93.5
t-116 -81t-145 -32.5q-48 0 -79.5 22t-31.5 64q0 19 6.5 33.5t33.5 59.5l144 225q14 23 14 30q0 11 -8 11q-16 0 -63 -33t-68 -52q-11 -9 -19.5 -16.5t-13.5 -7.5q-19 0 -19 13q0 19 50 55.5t112.5 67.5t87.5 31q39 0 39 -36q0 -17 -29 -66zM226 215q-33 -27 -70.5 -81.5
t-37.5 -88.5q0 -37 46 -37q37 0 85 36t82 87.5t34 93.5q0 35 -42 35q-20 0 -48.5 -13.5t-48.5 -31.5z" />
    <glyph glyph-name="cedilla" unicode="&#xfc;" horiz-adv-x="480" 
d="M227 250h4q53 37 122 37q58 0 81 -29t23 -64q0 -45 -44 -93.5t-116 -81t-145 -32.5q-48 0 -79.5 22t-31.5 64q0 19 6.5 33.5t33.5 59.5l144 225q14 23 14 30q0 11 -8 11q-16 0 -63 -33t-68 -52q-11 -9 -19.5 -16.5t-13.5 -7.5q-19 0 -19 13q0 19 50 55.5t112.5 67.5
t87.5 31q39 0 39 -36q0 -20 -15 -41q-8 -14 -9.5 -17t-4.5 -8zM226 215q-33 -27 -70.5 -81.5t-37.5 -88.5q0 -37 46 -37q37 0 85 36t82 87.5t34 93.5q0 35 -42 35q-24 0 -51.5 -14t-45.5 -31z" />
    <glyph glyph-name="cedilla" unicode="&#x44c;" horiz-adv-x="480" 
d="M227 250h4q53 37 122 37q58 0 81 -29t23 -64q0 -45 -44 -93.5t-116 -81t-145 -32.5q-48 0 -79.5 22t-31.5 64q0 19 6.5 33.5t33.5 59.5l144 225q14 23 14 30q0 11 -8 11q-16 0 -63 -33t-68 -52q-11 -9 -19.5 -16.5t-13.5 -7.5q-19 0 -19 13q0 19 50 55.5t112.5 67.5
t87.5 31q39 0 39 -36q0 -20 -15 -41q-8 -14 -9.5 -17t-4.5 -8zM226 215q-33 -27 -70.5 -81.5t-37.5 -88.5q0 -37 46 -37q37 0 85 36t82 87.5t34 93.5q0 35 -42 35q-24 0 -51.5 -14t-45.5 -31z" />
    <glyph glyph-name="hungarumlaut" unicode="&#xfd;" horiz-adv-x="556" 
d="M252 253h151q49 101 49 148t-58 47q-47 0 -125 -61q-32 -24 -44.5 -34t-17.5 -10q-20 0 -20 6q0 24 44 57.5t103 58.5t96 25q43 0 80.5 -26.5t37.5 -88.5q0 -72 -54 -165t-147 -158t-203 -65q-50 0 -91 19.5t-41 51.5q0 15 12 26t32 11q34 0 50 -42q16 -41 53 -41
q54 0 119 46t114 168l-132 -1q-9 0 -13 -0.5t-11 -0.5h-4h-7q-38 0 -38 17q0 13 29 13q18 0 23.5 -0.5t12.5 -0.5z" />
    <glyph glyph-name="hungarumlaut" unicode="&#x44d;" horiz-adv-x="556" 
d="M252 253h151q49 101 49 148t-58 47q-47 0 -125 -61q-32 -24 -44.5 -34t-17.5 -10q-20 0 -20 6q0 24 44 57.5t103 58.5t96 25q43 0 80.5 -26.5t37.5 -88.5q0 -72 -54 -165t-147 -158t-203 -65q-50 0 -91 19.5t-41 51.5q0 15 12 26t32 11q34 0 50 -42q16 -41 53 -41
q54 0 119 46t114 168l-132 -1q-9 0 -13 -0.5t-11 -0.5h-4h-7q-38 0 -38 17q0 13 29 13q18 0 23.5 -0.5t12.5 -0.5z" />
    <glyph glyph-name="ogonek" unicode="&#xfe;" horiz-adv-x="817" 
d="M25 0l194 366q2 4 4.5 9.5t7.5 13.5q13 26 13 32q0 11 -10 11q-30 0 -125 -86q-8 -7 -16 -15t-13 -8q-19 0 -19 13q0 20 46.5 56t105.5 67t84 31q42 0 42 -36q0 -22 -24 -66l-70 -133h94q30 66 85.5 120.5t118 84.5t116.5 30q45 0 74.5 -21t43 -53t13.5 -66
q0 -92 -57.5 -176t-140.5 -135.5t-149 -51.5q-84 0 -117.5 75t5.5 170h-98l-122 -232h-86zM660 470q-55 0 -118 -77t-107.5 -177.5t-44.5 -151.5q0 -24 14.5 -41t37.5 -17q45 0 110 77t113 177t48 157q0 23 -15 38t-38 15z" />
    <glyph glyph-name="ogonek" unicode="&#x44e;" horiz-adv-x="817" 
d="M25 0l194 366q2 4 4.5 9.5t7.5 13.5q13 26 13 32q0 11 -10 11q-30 0 -125 -86q-8 -7 -16 -15t-13 -8q-19 0 -19 13q0 20 46.5 56t105.5 67t84 31q42 0 42 -36q0 -22 -24 -66l-70 -133h94q30 66 85.5 120.5t118 84.5t116.5 30q45 0 74.5 -21t43 -53t13.5 -66
q0 -92 -57.5 -176t-140.5 -135.5t-149 -51.5q-84 0 -117.5 75t5.5 170h-98l-122 -232h-86zM660 470q-55 0 -118 -77t-107.5 -177.5t-44.5 -151.5q0 -24 14.5 -41t37.5 -17q45 0 110 77t113 177t48 157q0 23 -15 38t-38 15z" />
    <glyph glyph-name="caron" unicode="&#xa4;" horiz-adv-x="751" 
d="M207 793l53 40l81 -125q44 27 89 42q42 11 88 13q40 0 79 -13q36 -15 60 -42l167 125l26 -40l-167 -124q13 -31 15 -75q-3 -40 -15 -82q-15 -41 -42 -82q-24 -35 -67 -75l82 -125l-53 -39l-81 125q-34 -23 -88 -41q-45 -14 -89 -14t-78 14q-38 16 -61 41l-167 -125
l-26 39l168 125q-13 32 -15 75q0 34 15 82q14 45 42 82q28 41 67 75zM619 651q-35 54 -119 57q-80 0 -158 -57q-78 -59 -104 -138q-27 -79 9 -139q39 -57 118 -57q80 0 159 57q75 57 105 139q27 81 -10 138z" />
  </font>
</defs>
</svg>
