<?xml version="1.0" standalone="no"?>
<!DOCTYPE svg PUBLIC "-//W3C//DTD SVG 1.1//EN" "http://www.w3.org/Graphics/SVG/1.1/DTD/svg11.dtd" >
<svg xmlns="http://www.w3.org/2000/svg" xmlns:xlink="http://www.w3.org/1999/xlink" version="1.1">
<metadata>
Created by FontForge 20170924 at Fri Jan  1 00:00:00 1904
 By www-data
Generated by Fontographer 3.5
</metadata>
<defs>
<font id="FlashBold" horiz-adv-x="2232" >
  <font-face 
    font-family="Flash"
    font-weight="700"
    font-stretch="normal"
    units-per-em="4096"
    panose-1="2 11 -30 0 0 0 0 0 0 0"
    ascent="3276"
    descent="-820"
    x-height="2036"
    cap-height="2998"
    bbox="-463 -1040 4051 3731"
    underline-thickness="50"
    underline-position="-125"
    unicode-range="U+0020-2044"
  />
<missing-glyph horiz-adv-x="3072" 
d="M512 0v2560h2048v-2560h-2048zM2494 66v2428h-1916v-2428h1916z" />
    <glyph glyph-name=".notdef" horiz-adv-x="3072" 
d="M512 0v2560h2048v-2560h-2048zM2494 66v2428h-1916v-2428h1916z" />
    <glyph glyph-name=".null" horiz-adv-x="0" 
 />
    <glyph glyph-name="nonmarkingreturn" horiz-adv-x="0" 
 />
    <glyph glyph-name="space" unicode=" " horiz-adv-x="1249" 
 />
    <glyph glyph-name="exclam" unicode="!" horiz-adv-x="1401" 
d="M1393 1237q-26 -73 -43 -102t-60 -37q-38 -5 -80.5 -23t-62.5 -18q-70 0 -119 94q-27 61 -94.5 127t-69.5 111q0 78 21 122q141 385 310 781t321 669q76 123 163 123q81 0 144.5 -44.5t253.5 -221.5q98 -105 98 -168q0 -70 -61 -164q-503 -671 -721 -1249zM975 106
q-7 -28 -27.5 -40.5t-95.5 -18.5t-234 -6q-58 0 -93 29t-111 139q-70 91 -70 217q0 77 67.5 247t116.5 249q34 50 50.5 63.5t64.5 13.5q56 0 132 -33t306 -159q86 -51 86 -160q0 -29 -8.5 -56.5t-20.5 -53t-20 -41.5q-75 -163 -143 -390z" />
    <glyph glyph-name="quotedbl" unicode="&#x22;" horiz-adv-x="2126" 
d="M1282 2961q20 67 100 93t285 26q48 0 90 -36t115 -160q53 -82 53 -177q0 -74 -50.5 -210.5t-149.5 -363t-144 -339.5q-21 -56 -43.5 -79t-67.5 -23q-144 0 -442 209q-82 65 -82 151q0 73 74 189q57 87 99 192t65.5 184.5t97.5 343.5zM2593 1810q-18 -67 -96 -92.5
t-281 -25.5q-55 0 -96.5 35t-112.5 161q-53 72 -53 176q0 75 51.5 214.5t154 375t138.5 324.5q25 62 44 82t62 20q150 0 443 -209q82 -60 82 -155q0 -83 -74 -185q-55 -88 -97 -192t-73 -207t-92 -322z" />
    <glyph glyph-name="numbersign" unicode="#" horiz-adv-x="2875" 
d="M2314 111q-50 -82 -131 -82q-44 0 -93 23.5t-124.5 75.5t-163.5 114q-139 88 -139 213q0 59 5.5 137.5t17.5 218.5t19 253t7 202q-109 -183 -187 -321t-221 -395t-214 -382q-60 -107 -172 -107q-175 0 -242 58q-43 35 -63 64.5t-45 78.5t-44 78q-20 32 -62 86.5
t-55.5 79.5t-13.5 59q0 104 53 180q246 340 446.5 632.5t366.5 555.5t296 489.5t231 424.5q64 119 201 119q66 0 136.5 -41.5t256.5 -180.5q65 -45 65 -155q0 -17 -30 -169.5t-53 -341.5t-23 -411q85 142 147 275t109 258.5t119.5 341t91.5 272.5q28 69 97.5 126.5
t184.5 57.5q82 0 120 -22t151 -113q87 -74 125.5 -130t38.5 -132q0 -93 -29 -160q-108 -217 -274 -574t-281.5 -597.5t-274 -540t-350.5 -618.5z" />
    <glyph glyph-name="percent" unicode="%" horiz-adv-x="3015" 
d="M1520 2019q-122 0 -211.5 74.5t-136 176t-46.5 171.5q0 237 185 438q85 92 173.5 146.5t153.5 54.5q24 0 44 -11t49.5 -38t37.5 -33q14 7 38 23t43 23.5t51 7.5q36 0 80 -47.5t76 -146.5t32 -249q0 -132 -88.5 -270.5t-222 -229t-258.5 -90.5zM2925 2544
q0 -71 -78.5 -230t-139.5 -246q-131 -182 -282.5 -423.5t-291.5 -492t-263 -498t-223 -482.5q-30 -74 -104 -125t-146 -51q-36 1 -70 25.5t-68 68t-76.5 114t-56.5 91.5q-44 73 -49 197q0 69 10 93t56 103q205 333 290.5 473.5t321.5 531.5t355.5 589t371.5 614
q69 106 172 106q79 0 128 -64.5t97 -164.5q46 -76 46 -229zM1507 2482q0 -69 17 -69q14 0 32 12q154 102 177 254q0 135 -21 135q-12 0 -41 -29q-48 -51 -102 -150t-62 -153zM2257 -90q-110 0 -291 110q-123 89 -123 291q0 63 56.5 209.5t95.5 204.5q67 95 175 158t193 63
q56 0 103 -57q69 45 98 59.5t82 14.5q83 0 129.5 -121t46.5 -260q0 -142 -66 -298.5t-193.5 -263t-305.5 -110.5zM2454 614q0 54 -21 54q-12 0 -25 -13q-144 -186 -163 -303q0 -65 24 -65q11 0 29 12q98 88 156 315z" />
    <glyph glyph-name="quotesingle" unicode="'" horiz-adv-x="1069" 
d="M1298 2961q20 70 98.5 96.5t282.5 26.5q52 0 93 -35.5t112 -160.5q32 -51 42.5 -77t10.5 -99t-50.5 -210.5t-149.5 -364t-144 -339.5q-22 -61 -42 -81.5t-64 -20.5q-150 0 -443 209q-81 60 -81 151q0 69 73 189q79 122 127 264.5t135 451.5z" />
    <glyph glyph-name="parenleft" unicode="(" horiz-adv-x="1499" 
d="M1978 2630q0 -66 -49 -90q-100 -68 -219 -240t-228 -424.5t-177 -556t-68 -619.5q0 -95 15 -198.5t35 -208t20 -121.5q0 -31 -30.5 -69t-67.5 -72t-70 -64q-85 -90 -123 -90q-91 0 -139 90q-234 383 -234 1053q0 214 60.5 454.5t180.5 492t301 502t408 468.5
q72 65 107 65q74 0 164 -151q21 -34 53.5 -66.5t40.5 -44.5q20 -50 20 -110z" />
    <glyph glyph-name="parenright" unicode=")" horiz-adv-x="1360" 
d="M922 12q-122 -135 -201 -135q-58 0 -96 19.5t-84 78.5q-60 74 -85.5 127t-25.5 127q0 80 18 123.5t72 85.5q140 114 267 365.5t219.5 557t145 601t52.5 487.5q0 45 -14 112t-14 101q0 38 27 70t77.5 73t58.5 50q29 37 53 67t58 49t86 19q85 0 123 -98q28 -66 61 -276.5
t33 -440.5q0 -453 -110.5 -856.5t-297.5 -730t-423 -576.5z" />
    <glyph glyph-name="comma" unicode="," horiz-adv-x="1053" 
d="M696 -414q-18 -68 -96 -93t-285 -25q-51 0 -92 35t-117 161q-49 92 -49 176q0 74 50 211.5t153 377t137 325.5q27 59 47 78.5t64 19.5q156 0 442 -209q82 -54 82 -151q0 -69 -74 -185q-56 -91 -96.5 -191t-72.5 -205.5t-93 -324.5z" />
    <glyph glyph-name="hyphen" unicode="-" horiz-adv-x="2855" 
d="M3068 1380q0 -80 -45.5 -115.5t-196.5 -35.5q-34 0 -237.5 25.5t-338.5 39t-251 13.5q-292 0 -461.5 -20t-281.5 -47.5t-146 -27.5q-219 0 -233 181q-2 32 -40 151.5t-38 175.5q0 66 30 137t72 89q96 43 339.5 56t672.5 13h606q284 0 332 -102q217 -387 217 -533z" />
    <glyph glyph-name="period" unicode="." horiz-adv-x="1057" 
d="M905 82q-13 -43 -66.5 -54.5t-293.5 -11.5q-56 0 -92 31t-109 137q-74 91 -74 213q0 79 69 252.5t120 243.5q22 46 41 64t69 18q57 0 131 -33.5t308 -163.5q90 -44 90 -155q0 -27 -9.5 -56.5t-21.5 -52t-23 -43.5q-83 -202 -139 -389z" />
    <glyph glyph-name="zero" unicode="0" horiz-adv-x="2322" 
d="M2687 2060q0 -382 -167.5 -786.5t-428 -725.5t-514.5 -470q-128 -78 -270 -78q-199 0 -426 221q-128 119 -193 215.5t-87.5 195.5t-22.5 245q0 140 32 299q91 402 282.5 800t397.5 656.5t328 263.5q42 0 90 -35t135 -121q170 136 232.5 185.5t95.5 63t94 13.5
q53 0 125 -78.5t141.5 -216t112.5 -306t43 -341.5zM1933 1954q17 64 17 127q0 90 -41 90q-35 0 -82 -70q-86 -124 -178 -312t-177 -415.5t-145 -439.5q-16 -42 -16 -86q0 -41 20 -41q27 0 86 86q134 201 229.5 365t169.5 339.5t117 356.5z" />
    <glyph glyph-name="one" unicode="1" horiz-adv-x="1589" 
d="M2343 2617q0 -82 -33 -151q-127 -311 -246 -585t-241.5 -546t-277.5 -612.5t-279 -620.5q-37 -90 -127 -90q-43 0 -85 32t-55 38q-55 31 -112.5 41t-108.5 41q-147 90 -147 299q0 121 45 221q60 133 123.5 259.5t185.5 365.5t193.5 380.5t136.5 276.5q-77 36 -98 57
q-32 30 -88 173t-56 237q0 73 32.5 110.5t98.5 69.5q148 80 387.5 187.5t296.5 144.5q20 13 41.5 27.5t40.5 20t49 5.5q56 0 106.5 -44.5t172.5 -196.5q45 -50 45 -140z" />
    <glyph glyph-name="two" unicode="2" horiz-adv-x="2789" 
d="M1950 823q104 0 207 12.5t149 12.5q135 0 172 -49q46 -65 94.5 -172t48.5 -164q0 -59 -46.5 -172.5t-100.5 -159.5q-54 -49 -176 -49q-25 0 -92 2t-109 2q-334 0 -546.5 -25.5t-377 -61.5t-210.5 -36q-75 0 -104 30.5t-105 149.5q-127 226 -127 324q0 119 69 184
q392 340 644 592.5t385.5 420.5t221 315t138.5 237q12 24 12 41q0 29 -21.5 47t-52.5 18q-34 0 -61 -16q-44 -23 -144 -84t-178.5 -95t-152.5 -34q-67 0 -104.5 37t-75.5 115q-25 44 -74.5 124t-71.5 133t-22 107q0 79 143 160q241 136 433.5 209.5t389.5 73.5
q153 0 335 -86t310.5 -266t128.5 -443q0 -167 -60.5 -349t-181.5 -370t-293.5 -367.5t-393.5 -347.5z" />
    <glyph glyph-name="three" unicode="3" horiz-adv-x="2507" 
d="M2777 2269q0 -147 -82.5 -286.5t-318.5 -409.5q32 -52 73 -119t72 -159.5t31 -204.5q0 -162 -91.5 -348t-355.5 -406q-169 -142 -349 -230t-329 -125.5t-239 -37.5q-142 0 -270.5 56.5t-311.5 172.5q-58 40 -119 125t-61 162q0 143 164 364q69 107 111.5 129.5
t142.5 22.5q153 0 204 -29t58 -94q4 -45 39.5 -98.5t87.5 -53.5q68 0 214 89.5t228 218.5q58 90 58 155q0 45 -45 45q-24 0 -65 -16t-103 -16q-92 0 -152 106q-81 142 -112 236.5t-31 234.5q0 78 86 115q70 24 190.5 39.5t132.5 21.5q194 143 369 328q12 12 12 24
q-6 21 -37 21q-155 0 -237.5 -30.5t-179.5 -86t-156 -55.5q-53 0 -74.5 23.5t-33 75.5t-15.5 65q-18 52 -46 117.5t-42 112.5t-14 102q0 93 62 173.5t147 112.5q101 45 318.5 82t344.5 37q209 0 374.5 -106t258 -282.5t92.5 -373.5z" />
    <glyph glyph-name="four" unicode="4" horiz-adv-x="2658" 
d="M2294 868q-32 -47 -68.5 -155.5t-99.5 -318t-94 -296.5q-59 -159 -291 -159q-94 0 -148 26t-131 113q-14 15 -68 51t-79 67.5t-25 90.5q0 99 72 295t76 213q-42 0 -147.5 -10.5t-209.5 -10.5q-72 0 -123.5 40t-134.5 202q-82 177 -106.5 264.5t-24.5 198.5q0 122 119 295
q108 154 256 328.5t330 359.5t367 342.5t341 255.5q92 57 152 57q47 0 125 -60.5t121 -119.5q21 -32 57.5 -130.5t36.5 -135.5q0 -52 -39 -100t-125 -134q33 -30 130.5 -103.5t147.5 -136.5t50 -145q0 -66 -29 -123q-111 -211 -156 -327q75 20 144 20q31 0 41.5 -29
t13 -121.5t2.5 -361.5q0 -77 -78 -123q-135 -67 -405 -119zM1589 1597q-16 -27 -16 -45q0 -16 33 -16q76 0 147 20q124 267 250 500q-88 -80 -223.5 -231.5t-190.5 -227.5z" />
    <glyph glyph-name="five" unicode="5" horiz-adv-x="2400" 
d="M2540 1225q0 -330 -220.5 -626.5t-563 -476t-679.5 -179.5q-217 0 -442 176q-96 67 -167 174t-71 203q0 91 67 237t126 201q99 94 319 94q165 0 213 -164q1 -4 10 -55t31 -75.5t74 -24.5q115 0 248 137.5t219 267.5q45 67 45 119q0 35 -19 54.5t-42 19.5
q-103 0 -230 -53.5t-188 -53.5q-38 0 -63.5 28t-87 138.5t-120.5 210.5q-28 46 -28 94q0 64 45 131q261 469 475 967q44 102 192 102q27 0 126 -8t173 -8q153 0 271 14.5t258.5 39t179.5 24.5q58 0 100.5 -30.5t51.5 -72.5q14 -45 20.5 -120t7.5 -80q3 -23 8.5 -51t8.5 -48
q0 -149 -90 -233q-71 -64 -259 -124t-376 -60q-100 0 -176 16q-87 -110 -119 -238q133 21 196 21q88 0 198 -66t192.5 -221t85.5 -401z" />
    <glyph glyph-name="six" unicode="6" horiz-adv-x="2429" 
d="M2658 2626q0 -45 -17.5 -67t-68.5 -52q-482 -220 -704 -561q218 0 296.5 -19t141.5 -100q91 -121 127.5 -182.5t60.5 -167.5t25 -289q0 -234 -108.5 -460t-287 -405t-382.5 -281.5t-385 -102.5q-290 0 -619 380q-63 71 -115.5 208t-52.5 280q0 202 86 541
q74 285 257.5 589.5t422 565t471 417t389.5 156.5q80 0 149.5 -48.5t244.5 -238.5q69 -82 69 -163zM1430 737q194 184 299 418q8 12 8 41q0 61 -58 61q-85 0 -213 -81q-118 -201 -118 -410q0 -61 24 -61q18 0 58 32z" />
    <glyph glyph-name="seven" unicode="7" horiz-adv-x="2486" 
d="M2261 1221q-81 -112 -165 -242t-197 -312.5t-238 -386t-150 -243.5q-39 -61 -70.5 -90t-105.5 -29q-83 0 -159 57q-33 22 -50.5 43t-41.5 61t-40 64q-22 30 -41.5 47t-53 34.5t-40.5 21.5q-78 49 -78 164q0 90 58 172q274 367 500 655q-138 0 -204.5 19.5t-66.5 95.5
q0 44 11.5 84.5t38 101t40.5 104.5q24 80 46.5 112t93.5 32q278 0 409 20q97 113 184.5 252.5t126.5 182.5q-38 -2 -273 -48.5t-304 -46.5q-110 0 -145 25t-56 106q-4 15 -34 124.5t-45 180t-15 121.5q0 99 49 156t144 57q397 0 580 29t321.5 74t236.5 45q135 0 231 -111
t203 -405q17 -38 17 -86q0 -66 -37 -123q-47 -85 -189 -312.5t-147 -236.5q39 -2 79.5 -4t67.5 -10.5t42.5 -33t15.5 -71.5q0 -37 -8 -75t-24 -96.5t-17 -61.5q-20 -121 -45 -156q-22 -36 -93 -48.5t-362 -12.5z" />
    <glyph glyph-name="eight" unicode="8" horiz-adv-x="2564" 
d="M3162 2462q0 -149 -87 -295t-248 -295.5t-419 -343.5q115 -216 115 -455q0 -286 -180 -541.5t-474 -410t-612 -154.5q-148 0 -319 84t-292.5 264t-121.5 451q0 199 94 373.5t248.5 313t358.5 255.5q-82 90 -125 189t-43 278q0 196 147.5 401.5t405.5 342t569 137.5
q82 0 124 -9.5t81 -52.5q46 -48 88 -142.5t84 -148.5q90 74 180 230q23 45 66 45q37 0 65 -29q126 -93 210.5 -205.5t84.5 -281.5zM2220 2322q-49 9 -135 9q-122 0 -186 -31.5t-64 -79.5q0 -62 107 -119q48 22 132.5 90.5t145.5 130.5zM1262 774q-13 -17 -13 -33
q0 -32 41 -32q23 0 53 12q138 48 218 94.5t172 138.5q16 17 16 50q0 71 -74 94q-96 -41 -223.5 -132.5t-189.5 -191.5z" />
    <glyph glyph-name="nine" unicode="9" horiz-adv-x="2363" 
d="M1384 -94q-58 -45 -88.5 -61.5t-91.5 -16.5q-47 0 -80.5 18t-83.5 63t-86 71q-50 35 -84.5 54t-80.5 40t-60 28q-90 46 -90 201q0 126 90 180q16 10 161.5 90.5t268.5 169t271 232.5q-42 -8 -62 -8q-131 0 -252.5 107.5t-194.5 282t-73 359.5q0 199 99.5 433t266 441
t369.5 336.5t399 129.5q190 0 380 -109.5t313 -311t123 -460.5q0 -344 -115 -673.5t-315 -622t-452 -536.5t-532 -437zM1901 1794q51 60 95 175t44 202q0 82 -29 82q-24 0 -49 -21q-54 -34 -150 -147.5t-137 -200.5q-24 -49 -24 -82q0 -53 45 -53q61 0 93 5.5t70.5 22
t41.5 17.5z" />
    <glyph glyph-name="colon" unicode=":" horiz-adv-x="1225" 
d="M1561 1479q-53 -92 -160 -344q-19 -48 -74.5 -63t-253.5 -15q-55 0 -90 31.5t-123 148.5q-69 91 -69 217q0 76 67 245.5t117 250.5q34 49 50.5 63.5t68.5 14.5q54 0 138 -36t308 -157q107 -63 107 -156q0 -58 -86 -200zM971 94q-10 -30 -31.5 -43.5t-97 -19.5t-236.5 -6
q-53 0 -87 29.5t-113 138.5q-74 100 -74 217q0 74 68.5 243t119.5 252q34 50 50 64t65 14q59 0 135.5 -33t302.5 -159q86 -48 86 -156q0 -29 -9.5 -58.5t-24.5 -58t-19 -39.5q-81 -189 -135 -385z" />
    <glyph glyph-name="semicolon" unicode=";" horiz-adv-x="1225" 
d="M1520 1380q-47 -84 -160 -348q-19 -45 -76 -59.5t-256 -14.5q-53 0 -89.5 32.5t-119.5 148.5q-74 96 -74 213q0 77 68 245t121 250q34 50 50 64t65 14q59 0 144 -34.5t306 -157.5q107 -59 107 -156q0 -31 -14 -64.5t-40.5 -78t-31.5 -54.5zM745 -434q-15 -67 -95 -93
t-285 -26q-52 0 -92.5 36t-112.5 165q-18 25 -30.5 44t-20 47t-7.5 81q0 74 52 215.5t153.5 370.5t143.5 331q19 56 40.5 77.5t65.5 21.5q148 0 447 -209q77 -65 77 -152q0 -71 -73 -188q-55 -84 -98 -188.5t-73.5 -208t-91.5 -324.5z" />
    <glyph glyph-name="less" unicode="&#x3c;" horiz-adv-x="2294" 
d="M1442 680q20 -62 20 -94q0 -64 -41 -90q-36 -21 -99.5 -69t-109.5 -79q-12 -12 -53 -12q-105 8 -143 86q-182 322 -414 704q-16 34 -16 62q0 66 41 106q78 88 258 301.5t262.5 311t122.5 137.5q35 29 90 29q86 0 110 -50q31 -60 111.5 -119t93.5 -94q0 -5 2.5 -17
t4.5 -20l6 -24q0 -39 -25 -70q-57 -75 -138.5 -161t-164.5 -174.5t-119 -139.5q-29 -44 -29 -65q0 -29 41 -107q160 -284 189 -352zM1421 1110q-16 27 -16 70q0 53 41 94q99 91 221.5 208.5t212 203t188.5 177.5t197 177q27 20 78 20q87 0 123 -53q31 -48 54 -76.5t47 -51
t46 -44.5q41 -35 41 -102q0 -51 -28 -95q-88 -108 -189 -183t-340 -238q-65 -45 -65 -91q0 -16 8 -32q46 -93 96 -190t76 -154q29 -74 29 -115q0 -40 -21 -62q-55 -60 -117.5 -100.5t-103.5 -66.5q-46 -33 -98 -33q-96 0 -140 94q-120 252 -340 643z" />
    <glyph glyph-name="greater" unicode="&#x3e;" horiz-adv-x="2339" 
d="M1634 1724q-20 46 -20 95q0 62 41 90q38 24 115 80t94 67q12 12 53 12q100 -8 143 -86q125 -228 414 -704q16 -32 16 -61q0 -66 -41 -107q-67 -74 -140.5 -160t-199.5 -235.5t-202.5 -238t-104.5 -116.5t-90 -28q-80 0 -110 49q-28 59 -108 119.5t-93 93.5q-12 24 -12 57
q0 39 24 74q42 58 130 152.5l176 189t116 133.5q29 45 29 66q0 28 -41 106q-165 295 -189 352zM1655 1294q16 -40 16 -65q0 -58 -41 -99q-125 -115 -199.5 -186t-215 -204.5t-227.5 -213.5t-181 -161q-26 -21 -74 -21q-87 0 -123 53q-43 68 -147 172q-41 35 -41 103
q0 51 29 94q59 74 140.5 143.5t179 137.5t204.5 141q69 50 69 94q0 13 -8 29q-112 215 -172 344q-33 85 -33 123q0 25 21 53q58 61 139.5 113t85.5 55q48 33 99 33q90 0 135 -95q133 -267 344 -643z" />
    <glyph glyph-name="question" unicode="?" horiz-adv-x="2032" 
d="M1622 983q-60 0 -133 60t-232 219q-77 77 -77 168q0 87 69.5 204t217.5 285t417 444q29 36 29 58q0 37 -45 37q-36 0 -74 -17q-46 -16 -125 -59.5t-125.5 -63.5t-109.5 -20q-73 0 -115 86q-102 249 -102 389q0 102 90 160q69 41 289 96t354 55q169 0 262 -25t161.5 -89.5
t170.5 -204.5q100 -150 106 -365q0 -180 -88 -333.5t-197 -254t-280 -231.5q-57 -43 -57 -86q0 -31 24 -45q45 -31 45 -127q0 -101 -196 -209q-136 -82 -183.5 -106.5t-95.5 -24.5zM1487 102q-10 -31 -30 -44t-95 -19t-236 -6q-56 0 -90 29.5t-110 138.5q-78 93 -78 217
q0 74 68.5 243t119.5 252q29 48 47.5 63t67.5 15q59 0 135.5 -33t302.5 -159q90 -58 90 -156q0 -31 -10 -59.5t-25 -57.5t-18 -39q-67 -144 -139 -385z" />
    <glyph glyph-name="A" unicode="A" horiz-adv-x="2580" 
d="M2318 209q-84 -299 -266 -299q-76 0 -184 53q-46 25 -105.5 71t-62.5 48q-12 8 -74 37.5t-90.5 60.5t-28.5 86q0 59 80.5 257.5t91.5 250.5q-158 0 -315 -53q-41 -78 -126 -296.5t-136 -305.5q-34 -62 -63 -88.5t-105 -26.5q-49 0 -111.5 19t-97.5 47q-72 54 -193 213
q-18 25 -42.5 57t-40 69t-15.5 83q0 43 16.5 85t43 89.5t30.5 58.5q58 89 58 156q0 120 -6.5 200.5t-6.5 85.5q0 36 58.5 75.5t109.5 55.5q66 20 144 164q235 415 352.5 607.5t288.5 412.5t420 463q63 57 139 57q53 0 125 -39.5t227 -140.5q95 -58 129.5 -85t34.5 -83
q0 -85 -66 -172q80 -47 138 -99t63 -134q0 -123 -4 -160q-13 -216 -91 -591t-172.5 -743t-146.5 -546zM1855 1417q93 242 160 574q-227 -280 -360 -586q16 -8 69 -8q108 9 131 20z" />
    <glyph glyph-name="B" unicode="B" horiz-adv-x="2613" 
d="M2564 1458q32 -30 71.5 -115.5t39.5 -207.5q0 -229 -262 -578q-227 -296 -423 -441t-335 -145q-102 0 -215 87.5t-178 166.5q-24 -35 -49 -69.5t-52 -66t-60 -52.5t-65 -21q-46 0 -88 31t-95.5 94t-61.5 72q-14 16 -79 64t-97.5 97t-32.5 130q0 74 53 180
q308 618 672 1421q-69 56 -92.5 99t-29 136.5t-5.5 362.5q0 74 73 115q113 65 374 124.5t548 59.5q271 0 466 -85.5t300.5 -260t105.5 -436.5q0 -224 -141.5 -412t-341.5 -350zM2327 2261q0 57 -111 57q-52 0 -102 -20q-80 -176 -144 -373q98 34 227.5 156.5t129.5 179.5z
M1921 1188q0 90 -98 90q-54 0 -94 -21q-13 -25 -213 -471q155 0 315 197q29 35 59.5 101t30.5 104z" />
    <glyph glyph-name="C" unicode="C" horiz-adv-x="2339" 
d="M2097 2298q-49 0 -82 -33q-213 -243 -358 -522t-213 -500.5t-68 -304.5q0 -188 119 -188q75 0 184.5 48t175.5 95q100 78 197 78q95 0 127 -82q3 -6 29 -46.5t39.5 -84t13.5 -103.5q0 -91 -60.5 -213t-107.5 -155q-114 -79 -286 -168.5t-205 -110.5q-113 -69 -291 -69
q-154 0 -274.5 83.5t-331.5 296.5q-148 158 -148 431q0 222 53.5 468t148.5 482.5t225 448.5t278 366q215 223 484 355t400 132q179 0 443 -176q66 -42 139.5 -131t73.5 -221q0 -149 -49.5 -331t-90.5 -226q-48 -52 -210.5 -108t-235.5 -56q-67 0 -152.5 69.5t-85.5 159.5
q0 36 50 148q46 78 69 168z" />
    <glyph glyph-name="D" unicode="D" horiz-adv-x="2732" 
d="M1528 0q-81 0 -133 27t-106 79t-68 62q-6 -6 -53.5 -62t-82 -81t-73.5 -25q-89 0 -144 61q-53 58 -150 150t-131 148t-34 141q0 52 57 184q58 113 216.5 380t233 400.5t156 332.5t111.5 386q-78 37 -98.5 92t-20.5 199v205q0 108 70 184q56 49 275 92t536 43
q244 0 354.5 -36.5t198.5 -98.5q110 -79 216.5 -225t174.5 -316.5t68 -314.5q0 -213 -110.5 -503t-267.5 -558t-282 -405q-192 -209 -484 -375t-429 -166zM2376 2159q0 71 -73.5 115t-176.5 44q-100 0 -176 -32q127 -47 127 -168q0 -122 -78 -353t-190 -480.5t-220 -453.5
q155 74 305 263.5t267 420.5t178 418q37 102 37 226z" />
    <glyph glyph-name="E" unicode="E" horiz-adv-x="2208" 
d="M2048 2327q-142 -148 -262 -467q36 0 149 4t166 4q86 0 107 -8q28 -8 46 -31.5t27 -54t18 -75.5t15 -81q13 -54 13 -94q0 -75 -37 -119q-112 -139 -258 -139q-263 0 -484 -49q-108 -128 -213 -492q178 0 365 28.5t242 28.5q75 0 129.5 -48t54.5 -132q0 -29 -7 -54.5
t-19 -56t-19 -49.5q-3 -8 -16 -71.5t-28.5 -107.5t-45.5 -70q-107 -88 -488 -152q-367 -70 -524 -70q-83 0 -199 138t-194 260q-78 132 -78 241q0 147 274 824q-32 114 -32 184q0 101 73 143q66 31 123 41q105 197 320 565q-86 221 -86 320q0 42 31 92.5t79 67.5
q111 46 361 98.5t409 52.5q181 0 365 -41q65 -14 94 -61q48 -71 118 -223t70 -183q0 -77 -43 -120t-104 -43q-62 0 -152 22.5t-118 22.5q-111 0 -242 -45z" />
    <glyph glyph-name="F" unicode="F" horiz-adv-x="2064" 
d="M2732 2429q0 -50 -46 -76t-97 -26q-81 0 -153 6t-134 6q-77 0 -136.5 -5.5t-103 -12t-80.5 -11.5q0 -175 -98 -500q101 0 160 6.5t90 6.5q110 0 143 -49q16 -21 33 -58t35 -83.5t31 -80.5q0 -98 -17 -131q-122 -227 -250 -233q-69 -2 -232.5 -13.5t-225.5 -11.5
q-52 -102 -149 -307.5t-200.5 -426t-162.5 -339.5q-20 -44 -43 -67t-76 -23q-52 0 -73.5 16t-70 63.5t-102.5 76.5q-44 26 -95.5 28t-113.5 33q-90 46 -90 197q0 94 21 139q64 142 182.5 372t173.5 353q-12 246 -12 328q7 49 42 76t84.5 44t90.5 31q111 229 229 524
q-18 54 -41.5 120t-44 150.5t-20.5 160.5q0 18 21.5 67t43.5 60q38 23 145 55t183 43q124 21 324.5 41t244.5 20h180q88 -6 132 -32q159 -88 237 -193q23 -34 32 -82t9 -262z" />
    <glyph glyph-name="G" unicode="G" horiz-adv-x="2515" 
d="M2134 2310q-160 -101 -333.5 -371t-306 -581t-179.5 -522q0 -103 33 -103q28 0 57 29q47 45 105 108.5t100.5 113t97.5 114.5q-12 103 -12 192q0 110 7 152.5t24.5 59.5t74.5 50q36 23 210 48.5t343 25.5q132 0 213 -16q44 -9 96 -88.5t52 -214.5q0 -98 -64 -219.5
t-149 -124.5q-160 -7 -160 -50q0 -30 12 -49t12 -57q0 -103 -57 -193q-53 -85 -197.5 -235.5t-306 -271.5t-274.5 -136q-33 -7 -71.5 -15.5t-80.5 -8.5q-69 0 -155 33q-197 81 -420.5 284.5t-226.5 554.5q3 439 159 838t407 703t536 473t536 169q139 0 304.5 -78t278.5 -225
t113 -344q0 -138 -55 -231.5t-174 -190.5q-59 -41 -160 -41q-95 0 -236 58.5t-141 175.5q0 22 22.5 83.5t22.5 76.5q0 36 -24 36q-15 0 -33 -12z" />
    <glyph glyph-name="H" unicode="H" horiz-adv-x="2580" 
d="M2384 672q-19 -69 -58.5 -311.5t-92.5 -352.5t-169 -110q-57 0 -87 15t-117 71q-48 33 -153 81.5t-150.5 92t-45.5 125.5q0 83 113 459l113 376q0 17 -33 17q-25 0 -45 -13q-8 -5 -94 -19.5t-111 -53.5q-2 -3 -89 -326t-164 -553.5t-120 -230.5q-50 0 -137 27.5
t-163.5 58.5t-121.5 49q-36 10 -110 156t-74 237q0 48 48.5 198.5t109 315t100.5 272.5q12 29 12 78q0 33 -16 122t-16 157q0 46 25.5 68t64 34t84.5 30t59 48q60 152 125.5 305.5t149.5 343.5t180 408q35 72 74.5 113.5t126.5 41.5q81 0 270 -159q213 -175 213 -271
q0 -59 -49 -151q-147 -266 -238 -484q0 -3 -6 -17t-6 -24q0 -32 41 -32q114 0 169.5 19.5t80.5 74.5q342 708 438 917q2 5 18 33.5t42.5 51t66.5 22.5q46 0 148.5 -86t138.5 -143q9 -15 26 -74t35 -90q66 -119 66 -226q0 -110 -66 -200q-138 -282 -234.5 -492.5t-197.5 -473
t-174 -525.5z" />
    <glyph glyph-name="I" unicode="I" horiz-adv-x="1286" 
d="M2023 2490q0 -40 -27.5 -96.5t-29.5 -62.5q-140 -265 -259 -511t-227 -502.5t-214 -553.5t-209 -641q-27 -73 -145.5 -118.5t-227.5 -45.5q-17 0 -89 111t-112 135q-143 83 -143 201q0 45 4 91.5t11 71t18 54t20 53.5q154 387 276.5 680t208.5 480t216.5 453t289.5 590
q12 33 55 76t77 43q22 0 147 -61q187 -95 250 -144q40 -30 75 -122.5t35 -180.5z" />
    <glyph glyph-name="J" unicode="J" horiz-adv-x="2171" 
d="M2142 729q-144 -262 -319.5 -422.5t-409.5 -277.5q-140 -58 -287 -58q-143 0 -229 37q-80 30 -226 137t-229 211q-61 111 -61 217q0 126 45 238q45 120 125 282.5t162 249.5q22 27 155.5 63t212.5 36q53 0 107 -29t82 -65q32 -31 42.5 -54.5t10.5 -93.5q0 -15 -29 -98
q-76 -203 -114 -365q24 0 85.5 78.5t86.5 122.5q94 172 209.5 430.5t214 513.5t179.5 495.5t130 424.5q63 200 303 200q111 0 225 -139q22 -26 67.5 -68.5t51.5 -50.5q66 -75 66 -155q0 -48 -25 -123q-251 -1020 -631 -1737z" />
    <glyph glyph-name="K" unicode="K" horiz-adv-x="2720" 
d="M2671 2998q55 0 117.5 -43.5t90.5 -95.5q127 -218 127 -393q0 -61 -49 -164q-60 -120 -195.5 -322.5t-297.5 -379t-289 -216.5q0 -466 53 -703.5t139 -385.5q54 -104 54 -164t-47 -104t-142 -47q-108 0 -245 -74q-22 -12 -53 -30.5t-48 -23t-55 -4.5q-56 0 -127.5 34
t-118.5 85q-96 111 -134.5 362t-41.5 650q-51 -118 -161 -423.5t-138 -367.5q-92 -208 -176 -208q-26 0 -44.5 7.5t-43.5 22.5t-39 19q-26 8 -102.5 14.5t-155.5 54.5q-36 21 -77 84t-75 97q-45 60 -45 180q0 38 12.5 71t33.5 71.5t28 53.5q75 182 182 442t253.5 625
t265.5 683.5t163 478.5q15 58 65.5 84t106.5 26q60 0 212.5 -63t221.5 -109q111 -66 111 -192q0 -51 -20 -99q-151 -415 -238 -606q302 256 737 963q65 110 185 110z" />
    <glyph glyph-name="L" unicode="L" horiz-adv-x="2105" 
d="M2015 541q0 -152 -90 -291q-68 -117 -164 -148q-35 -10 -209 -45t-366 -70.5t-223 -35.5q-147 0 -349 225q-51 57 -117.5 183t-66.5 202q0 100 45 258q168 464 307 802.5t286.5 641.5t336.5 657q42 78 135 78q58 0 172.5 -74.5t241.5 -203.5q82 -85 82 -160
q0 -52 -66 -164q-167 -312 -269 -524t-203 -490t-187 -624q306 0 381 12q74 21 127 21q75 0 135.5 -55.5t60.5 -194.5z" />
    <glyph glyph-name="M" unicode="M" horiz-adv-x="3502" 
d="M3092 57q0 -78 -81 -118q-149 -82 -242 -82q-40 0 -94.5 28.5t-141.5 90t-112 77.5q-123 69 -123 230q0 67 56 392t100 488q-99 -169 -255.5 -527t-207.5 -521q-32 -90 -107 -90q-60 0 -104.5 21t-125.5 78t-143 97q-122 82 -122 275q0 59 49.5 425t64.5 558
q-52 -128 -105 -308t-131 -467t-126.5 -452t-104.5 -313q-9 -27 -48.5 -59t-90.5 -32q-21 0 -79 29t-118 29q-141 0 -237 86q-46 40 -95 133.5t-49 181.5q0 35 9 78t24 94.5t29 98.5q306 785 515.5 1260.5t496.5 975.5q115 143 241 143q34 0 71 -14.5t79 -39.5t55 -32
q63 -29 117.5 -53.5t75.5 -44.5q80 -70 102.5 -100t45 -161.5t32.5 -434.5q36 41 237 318t349.5 441.5t240.5 165.5q153 0 414 -336q57 -82 57 -204q0 -36 -10.5 -84.5t-26 -108t-20.5 -78.5q-154 -599 -246 -1100t-115 -1034z" />
    <glyph glyph-name="N" unicode="N" horiz-adv-x="2519" 
d="M2023 1884q37 77 131 307t150.5 358.5t112.5 219.5q38 67 98 119.5t111 52.5q61 0 155.5 -79.5t253.5 -256.5q70 -83 70 -147q0 -34 -6 -55t-22 -47.5t-21 -37.5q-114 -215 -294.5 -617t-346.5 -839.5t-240 -746.5q0 -31 -40.5 -99.5t-111.5 -68.5q-90 0 -170.5 38.5
t-226.5 129.5q-77 49 -98 93.5t-21 205.5q0 594 -16 827q-64 -97 -107.5 -223t-153.5 -466.5t-173 -481.5q-8 -34 -46.5 -60t-76.5 -26q-125 0 -189 102q-45 72 -147 172q-51 43 -95 80.5t-73 89t-29 121.5q0 108 33 209q97 236 197.5 446.5t230.5 488t227.5 538.5
t192.5 612q24 60 83 105.5t130 45.5q111 0 352 -151q77 -34 106 -87.5t29 -183.5q0 -173 41 -688z" />
    <glyph glyph-name="O" unicode="O" horiz-adv-x="2425" 
d="M2228 2716q132 77 246 77q31 0 98 -87t121.5 -275t54.5 -473q0 -185 -32 -369q-63 -266 -170 -508.5t-258 -451.5t-345.5 -368t-431.5 -253q-121 -49 -196 -49q-83 0 -180 49q-157 83 -305.5 231.5t-202.5 272.5q-58 116 -58 279q0 107 33 303q76 374 201 665.5t267 492
t273.5 335.5t315.5 301q45 36 113.5 75t119.5 39q54 0 112.5 -47t223.5 -239zM1380 766q126 129 263.5 334t236.5 407.5t115 323.5q16 82 16 151q0 85 -33 111q-16 8 -24 8q-54 0 -111 -94q-188 -308 -328.5 -613t-199.5 -550q-8 -33 -8 -78q0 -37 16 -37q21 0 57 37z" />
    <glyph glyph-name="P" unicode="P" horiz-adv-x="2396" 
d="M2879 2093q0 -163 -72 -312t-181 -306q-65 -94 -240.5 -266.5t-343 -301.5t-227.5 -129q-106 0 -201 132.5t-119 215.5q-99 -185 -224.5 -558t-176.5 -494q-16 -26 -32 -53t-33 -40.5t-46 -13.5q-35 0 -49.5 3.5t-28 12.5l-37.5 25q-37 28 -67 68t-76 76
q-43 31 -103.5 56t-105.5 58q-70 52 -70 168q0 78 17 119q4 9 129.5 321.5t236 571t227.5 499.5t210 365q-30 57 -66.5 157.5t-36.5 153.5q0 26 31.5 78.5t87.5 81.5q125 67 313.5 115.5t386.5 48.5q449 0 693 -315q117 -150 160.5 -262t43.5 -275zM2175 2056q25 52 25 78
q0 43 -50 61q-16 9 -57 9q-88 0 -139 -37q-55 -70 -234 -508q138 24 276.5 171t178.5 226z" />
    <glyph glyph-name="Q" unicode="Q" horiz-adv-x="2732" 
d="M2232 680q65 -195 213 -369q33 -38 33 -106q0 -65 -33 -111q-37 -52 -158.5 -177t-172.5 -150q-43 -33 -74 -33q-52 0 -107 78q-102 153 -192 327q-197 -164 -389 -164q-123 0 -267 95t-256.5 221t-144.5 209q-24 53 -40.5 160.5t-16.5 224.5q0 401 123 749
q82 245 243.5 484t357 431.5t380.5 307t305 117.5q72 0 195 -93.5t243 -271.5q12 -16 12 -53q0 -48 -20 -70q-38 -43 -119 -106q103 -39 172 -119q78 -106 78 -328q0 -236 -36.5 -437.5t-118 -401.5t-210.5 -414zM1368 688q60 49 88 88.5t60 112.5q-13 86 -13 254
q0 43 72.5 75t148.5 44q85 191 138 341t63 306q0 159 -33 159q-29 0 -69 -40q-146 -136 -293.5 -470t-226.5 -739q-9 -36 -9 -57q0 -86 45 -86q17 0 29 12z" />
    <glyph glyph-name="R" unicode="R" horiz-adv-x="2601" 
d="M2339 250q0 -107 -58 -144q-133 -77 -220 -110t-214 -33q-37 0 -126.5 93.5t-168.5 242.5q-25 49 -52.5 268.5t-37.5 571.5q-65 -143 -139 -371t-132.5 -410t-92.5 -231q-43 -74 -82 -74q-26 0 -43.5 9t-48.5 33.5t-57 39t-60 17.5q-130 11 -217 110q-21 26 -64 125
t-43 129q0 33 21 86q132 346 255.5 644t241 559t244.5 526q-61 248 -61 376q0 60 67 109.5t146 62.5q77 14 317.5 44t300.5 30q219 0 415.5 -70.5t327 -248t130.5 -475.5q0 -178 -84 -329t-211 -266.5t-269.5 -204.5t-209.5 -130q0 -262 41 -441t118 -337q66 -132 66 -201z
M1745 1831q76 12 200 83.5t220 157t96 136.5q0 32 -42 57t-130 25q-85 0 -123 -9q-60 -74 -123.5 -209.5t-97.5 -240.5z" />
    <glyph glyph-name="S" unicode="S" horiz-adv-x="2146" 
d="M2171 1098q0 -238 -106.5 -425t-285.5 -322t-377.5 -213t-406.5 -113q-22 0 -114 -9q-76 0 -127 33q-111 76 -209 198.5t-152 219.5q-20 33 -20 86q0 62 28 127q30 56 205 291q41 49 197 49q113 0 142.5 -16.5t53.5 -57.5q2 -3 24 -66t39.5 -94.5t39.5 -31.5q30 0 180 73
q74 35 111 61.5t37 82.5q0 41 -51 106t-123.5 138.5t-75.5 78.5q-152 165 -201 281.5t-49 267.5q0 260 129 466.5t341.5 347.5t456 212.5t470.5 71.5q83 0 173.5 -84.5t151 -241.5t60.5 -358q0 -37 -17.5 -72.5t-45 -73.5t-56.5 -79q-37 -56 -68.5 -117t-38.5 -72
q-30 -41 -90 -41q-93 0 -226.5 41.5t-195.5 69.5q-49 24 -49 94q0 58 11.5 87t31 58t19.5 48q0 32 -33 32q-34 0 -148.5 -72t-171.5 -132q-32 -23 -32 -54q0 -24 20 -45q113 -107 230.5 -218t183 -195.5t100.5 -183.5t35 -234z" />
    <glyph glyph-name="T" unicode="T" horiz-adv-x="2073" 
d="M1593 61q-24 -98 -118 -98q-72 0 -181 70q-113 79 -173.5 138.5t-86.5 128t-26 167.5q0 62 32 176q69 259 122 409.5t134.5 340t143.5 350.5t149 436q-58 -2 -159.5 -29.5t-135.5 -27.5q-61 0 -65 57q-6 92 -38 268t-32 228q0 83 94 123q40 18 238 51t440 58.5t400 25.5
q69 0 120 -21t118 -88.5t175 -214.5q49 -76 49 -143q0 -47 -57 -131q-69 -90 -172 -90q-20 0 -73 4t-87 4q-81 0 -151 -21q0 -60 8 -93t8 -58q0 -71 -28 -127q-506 -1305 -648 -1893z" />
    <glyph glyph-name="U" unicode="U" horiz-adv-x="2433" 
d="M2007 2720q0 -42 -29 -94q-28 -70 -172 -428.5t-230.5 -588t-153 -445.5t-83.5 -357q0 -123 58 -123q19 0 52 29t54 61q151 254 259.5 471.5t190.5 433t158 457t211 694.5q44 156 160 156q48 0 113 -40.5t219 -156.5q115 -92 115 -258q0 -281 -109 -661.5t-292.5 -760.5
t-393.5 -660t-405 -383q-188 -95 -353 -95q-122 0 -272 76t-252 162q-217 197 -217 639q0 201 61.5 464.5t158.5 533t214.5 525t224.5 439.5q20 34 106.5 78t182 79t117.5 35q37 0 57 -20q1 -1 35.5 -46t67.5 -73q29 -22 62.5 -40.5t47.5 -29.5q37 -26 37 -73z" />
    <glyph glyph-name="V" unicode="V" horiz-adv-x="2441" 
d="M1397 -45q-94 0 -279 147q-4 3 -85.5 66.5t-103.5 89t-33 65.5t-11 111q0 81 54.5 458.5t150 983t151.5 942.5q8 41 113.5 96.5t238.5 55.5q50 0 83.5 -11.5t74 -38.5t64.5 -41q20 -8 67 -28t82 -65t35 -124q0 -118 -29 -208q-11 -48 -83.5 -363.5t-124 -528
t-128.5 -497.5q140 239 302.5 569t296 657.5t192.5 555.5q46 151 196 151q36 0 99.5 -30.5t109.5 -88.5q21 -26 51 -81.5t39 -69.5q10 -17 55 -75.5t64 -88.5q33 -51 33 -106q0 -18 -6.5 -50t-14.5 -63.5t-12 -46.5q-102 -295 -241.5 -555t-388.5 -613t-738 -991
q-141 -184 -274 -184z" />
    <glyph glyph-name="W" unicode="W" horiz-adv-x="3506" 
d="M2249 1257q-114 -177 -201.5 -328.5t-234 -411t-240.5 -415.5q-67 -102 -156 -102q-56 0 -127 44t-192 140q-68 48 -105.5 74t-58.5 51.5t-21 59.5q0 33 9.5 92.5t11.5 79.5q18 130 61.5 479t77 628.5t68.5 572.5t59 474q28 172 123 242q30 25 100 45t121 20
q67 0 107 -25t94 -98q29 -37 57.5 -53t60 -24.5t46.5 -16.5q57 -37 57 -168q0 -87 -20 -155q-29 -103 -71 -242.5t-76.5 -273.5t-63.5 -273t-60 -330q129 197 279 486.5t272.5 574t165.5 447.5q8 35 41.5 56.5t73.5 21.5q93 0 409 -246q45 -32 45 -143q0 -31 -6.5 -70
t-19.5 -101t-15 -79q-23 -135 -39.5 -235t-29 -216t-12.5 -262q0 -123 4 -188q64 130 135 311.5t122 325t128.5 373t134.5 399.5q17 59 74 90q34 20 104 46.5t92 26.5q84 0 221 -122q197 -155 197 -287q0 -98 -16 -135q-148 -316 -294.5 -625t-277.5 -570t-292.5 -559
t-344.5 -602q-64 -90 -139 -90q-87 0 -303 152q-15 11 -73 51.5t-81.5 67t-35 65.5t-11.5 107q0 11 33 346t33 497z" />
    <glyph glyph-name="X" unicode="X" horiz-adv-x="2499" 
d="M2204 1569q94 -581 94 -1168q0 -166 -41 -184q-90 -54 -193 -143q-11 -9 -55 -53t-74 -63t-71 -19q-33 0 -113 23.5t-100 37.5q-62 42 -86.5 75.5t-24.5 149.5q0 83 16.5 258t16.5 328q0 98 -4 156q-114 -138 -193 -266.5t-175.5 -307t-168.5 -291.5q-57 -90 -131 -90
q-52 0 -94 49q-24 27 -47 79.5t-60 88.5q-28 31 -84 42.5t-92 39.5q-61 52 -61 197q0 112 7.5 141t41.5 96q157 219 357 466.5t540 619.5q-115 457 -188 672q-33 103 -33 155q0 69 94 140q104 67 332 159q113 41 164 41q52 0 71 -24t35 -74q132 -443 148 -504
q90 99 159 163.5t210 189.5t200 184q55 53 115 53q52 0 91.5 -49.5t112.5 -200.5q82 -173 82 -295q0 -88 -41 -138t-269 -259.5t-488 -474.5z" />
    <glyph glyph-name="Y" unicode="Y" horiz-adv-x="2343" 
d="M2953 2224q-94 -222 -348.5 -629.5t-598 -856t-683.5 -783.5q-29 -29 -102 -29q-53 2 -99 27.5t-49 26.5q-8 2 -47.5 6.5t-82.5 18t-95 40.5q-45 28 -100.5 131.5t-55.5 175.5q0 68 20.5 98.5t73.5 69.5q510 406 648 623q-29 17 -71 41t-93 69q-59 49 -85 169t-26 380
q0 595 90 1016q25 117 90 148q61 36 213 36q80 0 172 -49q124 -66 238 -180q45 -56 45 -115q0 -61 -12 -86q-140 -316 -140 -594q0 -87 50 -159q436 692 585 1089q12 25 53.5 53.5t82.5 28.5q35 0 86 -24q49 -27 132.5 -100.5t133.5 -137.5q61 -84 61 -172q0 -111 -86 -332z
" />
    <glyph glyph-name="Z" unicode="Z" horiz-adv-x="2445" 
d="M1606 782q51 3 216 28.5t283 25.5q82 0 160 -140q50 -78 62 -102.5t12 -85.5q0 -122 -152 -320q-80 -86 -159 -86q-121 0 -249.5 4.5t-213.5 4.5q-14 0 -262 -9q-104 -4 -180 -18.5t-156.5 -40t-119.5 -34.5t-97 -9q-51 0 -85 21t-55.5 53t-33 62.5t-15.5 43.5
q-46 76 -70.5 118.5t-48.5 97t-24 96.5q0 90 57 163q98 148 230 303.5t310.5 348.5t422 457t450.5 505q-114 -16 -344 -69q-99 -37 -155 -37q-97 0 -144 237q-13 66 -43.5 160.5t-30.5 130.5q0 65 36 112.5t100 59.5q170 34 419.5 67.5t461.5 54.5t282 21q145 0 242 -163
q172 -262 172 -373q0 -73 -37 -127q-84 -133 -297 -400.5t-520.5 -641.5t-423.5 -519z" />
    <glyph glyph-name="underscore" unicode="_" horiz-adv-x="1982" 
d="M1589 1335q-160 0 -237 -4t-122.5 -10t-62.5 -6q-99 0 -165.5 43t-112.5 178q-11 32 -32.5 81t-31.5 85.5t-10 83.5q0 42 35.5 95t83.5 73q55 24 310 40.5t517 16.5q120 0 198.5 -23.5t119.5 -58.5t66 -82t38 -73q7 -13 43 -70t54 -101t18 -92q0 -196 -205 -196
q-43 0 -101 6t-137 10t-266 4z" />
    <glyph glyph-name="a" unicode="a" horiz-adv-x="2372" 
d="M2093 82q-15 -143 -180 -143q-205 0 -443 143q-73 40 -73 111q-84 -35 -167 -92t-125.5 -77t-125.5 -20q-151 0 -307 184q-132 158 -170.5 269.5t-38.5 251.5q0 198 64 391.5t156.5 347.5t188.5 264q125 139 288.5 261.5t311 197t211.5 74.5q45 0 71.5 -30.5
t113.5 -166.5q52 125 91.5 171t129.5 46q133 0 303 -147q64 -50 109.5 -85t76.5 -72t31 -77q0 -60 -37 -94q-75 -128 -154 -303t-151 -394.5t-119 -475.5t-55 -535zM1233 745q37 0 121.5 58t144.5 135q139 433 160 528q-109 -17 -217 -144.5t-181 -280t-73 -222.5
q0 -74 45 -74z" />
    <glyph glyph-name="b" unicode="b" horiz-adv-x="2249" 
d="M1552 -25q-47 -41 -118 -41q-87 0 -164 58q-46 37 -79 72.5t-70 84.5t-77 101q-7 -12 -33.5 -65t-50.5 -90t-63 -79q-35 -45 -86 -45q-53 0 -111 49q-114 95 -266 267q-65 71 -65 176q0 81 32 151q234 508 312 679.5t179 416t211 562t208 669.5q34 106 119 106
q130 0 393 -208q50 -40 72 -95t22 -176q-26 -197 -160 -536q57 46 140 78t147 32q40 0 109 -34.5t112 -92.5q73 -93 102 -150.5t70 -172.5q53 -143 53 -271q0 -110 -45 -233q-107 -271 -207 -448.5t-254 -349t-432 -415.5zM1720 1253q49 114 49 119q0 37 -36 37
q-31 0 -230 -115q-43 -85 -143.5 -303t-130.5 -278q73 0 177 103t195.5 238t118.5 199z" />
    <glyph glyph-name="c" unicode="c" horiz-adv-x="1937" 
d="M1696 840q54 0 121 -72t67 -137q0 -280 -180 -430q-82 -67 -257.5 -140t-324.5 -73q-168 0 -283 76.5t-221 205.5q-151 196 -151 455q0 249 98.5 481.5t239 410.5t264.5 279q54 45 155 106.5t223 106.5t241 45q104 0 244 -52t247 -179t107 -334q0 -79 -47 -190.5
t-97 -161.5q-37 -37 -107.5 -74t-113.5 -37q-55 0 -209 54q-106 43 -106 114q0 38 30.5 100t30.5 85q0 32 -33 32q-24 0 -57 -32q-129 -123 -212 -263.5t-122 -254.5t-39 -154q0 -53 40 -88t91 -35q61 0 121 39t119.5 78t120.5 39z" />
    <glyph glyph-name="d" unicode="d" horiz-adv-x="2359" 
d="M1360 188q-30 -21 -97.5 -67t-136.5 -92q-77 -45 -143 -45q-146 0 -348 241q-160 189 -160 434q0 283 103 539t286 453q98 109 275.5 238t341.5 218.5t227 92.5q44 0 75 -33.5t122 -167.5q199 459 434 909q21 48 48 69.5t95 24.5q103 0 160 -57q21 -20 48 -67.5t58 -79.5
q20 -22 55.5 -48t55.5 -51q57 -65 57 -147q0 -65 -28 -123q-61 -124 -211 -432.5t-284 -636.5t-237.5 -678.5t-148.5 -697.5q0 -21 -36.5 -39.5t-90.5 -18.5q-146 0 -287 58q-184 81 -233 204zM1470 864q3 9 90.5 248t131.5 342q-85 -44 -200 -180t-201.5 -280.5
t-86.5 -198.5q0 -78 49 -78q29 0 97 37.5t120 109.5z" />
    <glyph glyph-name="e" unicode="e" horiz-adv-x="2097" 
d="M2376 1520q0 -55 -52 -207.5t-116 -231.5q-96 -115 -200.5 -178t-340.5 -137q-61 -21 -192 -21q-66 0 -91 21q-116 100 -159 164q-41 -88 -41 -156q0 -116 102 -172q57 -37 115 -37q29 0 79.5 10.5t109 23.5t107.5 20.5t89 7.5q69 0 98 -29q12 -17 24 -38t34 -60
q12 -24 12 -58q0 -11 -37 -94q-19 -42 -36.5 -93.5t-33.5 -74.5q-42 -69 -80.5 -86t-185.5 -57q-220 -57 -393 -57q-219 0 -344 81q-385 258 -385 644q0 229 100.5 477t270 460t366.5 336q335 205 512 205q124 0 280 -68.5t224 -136.5q85 -85 124.5 -182.5t39.5 -275.5z
M1360 1208q128 18 195 34.5t112 64.5q47 50 79 138t32 132q0 33 -33 33q-21 0 -37 -17q-193 -140 -348 -385z" />
    <glyph glyph-name="f" unicode="f" horiz-adv-x="1778" 
d="M2535 2556q0 -65 -27.5 -139.5t-49.5 -106.5q-74 -94 -209 -94q-148 0 -168 61q-8 25 -16.5 64t-18.5 57.5t-31 18.5q-53 0 -121.5 -126.5t-87.5 -201.5q85 0 106 -6t38 -39q33 -79 57 -160q16 -32 16 -65q0 -34 -28 -90q-89 -172 -99 -189q-27 -48 -49 -59.5t-86 -14.5
q-73 -8 -229 -8q-253 -541 -471 -1372q-13 -57 -65 -94t-83 -37q-40 0 -106 25q-22 11 -49.5 30t-52.5 27q-23 10 -57.5 11.5t-56.5 10t-59 43.5q-41 43 -79.5 113.5t-38.5 124.5q0 70 16 127q53 185 106.5 337.5t113 298.5t118 279.5t113.5 264.5q-9 73 -9 204q0 99 62 127
q48 25 127 45q44 138 187.5 373t346.5 418.5t420 183.5q189 0 297 -75t178 -187q45 -67 45 -180z" />
    <glyph glyph-name="g" unicode="g" horiz-adv-x="2179" 
d="M1262 -745q-158 -109 -315.5 -167.5t-381.5 -58.5q-87 0 -129.5 29.5t-128.5 138.5q-74 103 -74 340q0 89 119 103q334 24 475 106q56 31 105 86t98 130t64 99q-44 -15 -90.5 -31.5t-102.5 -31t-94 -14.5q-64 0 -102 17t-77 64t-120 164q-98 148 -98 312
q0 252 108.5 513.5t299 483.5t423.5 358q140 85 392 178.5t374 96.5q69 0 159 -106.5t132 -180.5q61 -111 61 -176q0 -54 -45.5 -88t-179.5 -76q80 -75 113 -111.5t42 -63.5t9 -75q0 -76 -21 -176q-23 -103 -131 -373t-260.5 -579.5t-318.5 -563t-305 -347.5zM1384 762
q167 278 263 586q-124 -58 -245 -193.5t-200.5 -276.5t-79.5 -198q0 -41 21 -41q31 0 102 34.5t139 88.5z" />
    <glyph glyph-name="h" unicode="h" horiz-adv-x="2241" 
d="M1593 1348q-114 0 -213 -127q-66 -173 -133 -345.5t-134.5 -355t-166.5 -459.5q-33 -93 -63.5 -122t-75.5 -29q-57 0 -86 33q-11 11 -26.5 30.5t-34.5 38t-58 45.5q-10 9 -72.5 25t-128.5 74q-23 23 -52.5 98.5t-29.5 130.5q0 54 17 123q122 302 237 567.5t248.5 559
t261 563.5t326.5 694q65 98 135 98q59 0 206 -98.5t212 -192.5q5 -11 11.5 -24t12 -34t5.5 -44q0 -45 -21 -86q-91 -201 -270 -541q28 8 117.5 49t141 59.5t105.5 18.5q63 0 144 -52t140.5 -165t59.5 -287q0 -148 -49 -278q-81 -223 -164.5 -439.5t-139 -363t-86 -249
t-44.5 -197.5q-6 -77 -71 -133t-154 -56q-184 6 -434 270q-37 51 -37 99q0 45 24 119q59 181 115 317.5t145 328t101 218.5q20 30 20 78q0 41 -41 41z" />
    <glyph glyph-name="i" unicode="i" horiz-adv-x="1253" 
d="M1966 2642q0 -50 -17.5 -92.5t-62 -115t-71.5 -123t-54 -128.5q-37 -119 -119 -119q-52 0 -143 66q-121 84 -188 131.5t-101 94t-34 118.5q0 77 23.5 147.5t65 149t78.5 149.5q49 78 127 78q43 0 82 -23t146 -98t198 -124q70 -36 70 -111zM1016 90q-55 -147 -172 -147
q-47 0 -86 28q-23 17 -48.5 47.5t-74.5 55.5q-3 2 -66.5 17.5t-113.5 60.5q-95 89 -95 229q0 20 65.5 212.5t135.5 373.5q43 114 93.5 225.5t127.5 272.5t133.5 284t100.5 229q21 55 56.5 93t66.5 38q143 0 434 -319q20 -29 20 -119q0 -78 -37 -135q-98 -184 -173.5 -369.5
t-128 -344t-123.5 -385.5t-115 -347z" />
    <glyph glyph-name="j" unicode="j" horiz-adv-x="1368" 
d="M1405 2105q-91 0 -307 234q-41 40 -41 119q0 84 123 491q57 160 127 160q78 0 144.5 -46.5t285.5 -256.5q32 -33 32 -123q0 -35 -42.5 -188t-59.5 -222q-7 -30 -57 -67.5l-90 -67.5q-37 -33 -115 -33zM352 -922q-81 -106 -205 -106q-77 0 -147 49q-35 27 -59.5 47
t-71.5 39q-36 12 -95 13t-89 8q-54 12 -101 61.5t-47 101.5q0 30 25.5 57t62.5 52.5t56 38.5q113 74 271.5 342.5t327.5 637t305.5 720.5t188.5 532q63 205 90.5 272.5t63.5 89t121 23.5q56 0 96 -14.5t72 -44t94.5 -106t89.5 -109.5q49 -54 49 -127q0 -47 -20 -144
q-33 -180 -217 -658.5t-425 -987t-436 -787.5z" />
    <glyph glyph-name="k" unicode="k" horiz-adv-x="2376" 
d="M1585 1479q77 12 181.5 121.5t233 287t134.5 185.5q59 73 184 73q141 0 222 -180q57 -125 57 -221q0 -92 -45 -164q-62 -111 -176 -251.5t-172 -182.5q-5 -3 -115.5 -70.5t-146.5 -93.5q0 -122 7 -216.5t19 -148t43.5 -138.5t32.5 -87q3 -9 22.5 -54.5t29 -89t9.5 -97.5
q0 -40 -15.5 -63t-48 -37.5t-82 -25.5t-116.5 -26q-53 -11 -143.5 -42.5t-138.5 -31.5q-71 0 -111 90q-43 79 -71.5 132t-48 129.5t-32.5 220.5t-20 403q-42 -72 -79.5 -167.5t-108.5 -286t-111 -279.5q-26 -61 -111 -102t-131 -41q-26 0 -62 18t-57 47q-19 26 -42.5 77.5
t-51.5 78.5q-26 20 -66.5 50t-75 74.5t-34.5 100.5q0 78 37 156q74 151 267.5 535.5t294.5 589.5t231 493t272 634q20 51 93.5 85t164.5 34q186 0 324 -180q65 -105 69 -176q0 -55 -24 -123q-339 -751 -492 -1040z" />
    <glyph glyph-name="l" unicode="l" horiz-adv-x="1229" 
d="M995 74q-22 -85 -56 -110t-140 -25q-100 0 -169.5 52.5t-170.5 180.5q-115 148 -115 234q0 36 16 102q102 298 234 650t278 710.5t266 617.5t185 353q65 96 105 125.5t83 29.5t82 -27t121 -96.5t146 -109.5q102 -58 102 -111q0 -22 -6.5 -43.5t-24 -60.5t-22.5 -52
q-104 -227 -228.5 -499.5t-240 -559.5t-226 -618t-219.5 -743z" />
    <glyph glyph-name="m" unicode="m" horiz-adv-x="3232" 
d="M2634 -70q-119 0 -418 283q-33 21 -33 94q0 44 12 86q9 24 135 338t177 494l8 34t8 56q0 61 -49 61q-67 0 -180 -119q-168 -577 -410 -1208q-22 -61 -106 -61q-47 0 -172 61q-26 13 -85.5 19t-82.5 18q-26 14 -49 52.5t-53.5 106.5t-45.5 95q-20 33 -20 70q0 47 37 127
q132 281 303 733q20 47 20 78q0 41 -33 41q-29 0 -92 -36t-100 -83q-109 -292 -217.5 -578t-229.5 -598q-24 -51 -57 -72.5t-115 -21.5q-54 0 -108.5 36.5t-101 86t-60.5 65.5q-85 102 -114 156.5t-29 118.5q0 54 20 94q36 82 173.5 389t195.5 449t120 324.5t134 430.5
q36 66 102 66q96 0 198 -64t281 -210q96 72 231.5 132t223.5 60q156 0 315 -233q45 48 187 105.5t227 57.5q87 0 193.5 -73t180 -203.5t73.5 -288.5q0 -162 -99.5 -482.5t-228.5 -647.5q-20 -54 -47.5 -181t-42.5 -155q-61 -103 -176 -103z" />
    <glyph glyph-name="n" unicode="n" horiz-adv-x="2216" 
d="M1528 1970q320 160 397 160q91 0 184 -111q120 -139 181 -245.5t61 -262.5q-3 -109 -42 -270t-103 -355.5t-135 -389.5l-142 -390q-28 -83 -94 -110q-44 -14 -78 -25t-86 -28q-42 -13 -74 -13q-38 0 -110 41q-33 23 -125 108.5t-125 129.5q-25 31 -25 70q0 38 29 98
q36 74 106.5 234t147 342t135.5 317q21 41 21 82q0 45 -49 45q-94 0 -193 -127q-49 -119 -159.5 -427t-149 -415t-117.5 -289q-42 -119 -123 -119q-35 0 -99 25t-110 57q-67 48 -144 103.5t-124 111t-47 113.5q0 30 16 94q92 247 251 585t236.5 534t135.5 479q9 34 48 70
t75 36q21 0 55 -13t129.5 -58t110.5 -52q103 -43 135 -135z" />
    <glyph glyph-name="o" unicode="o" horiz-adv-x="2150" 
d="M1892 324q-173 -177 -319.5 -279t-302.5 -102q-125 0 -270.5 50.5t-249.5 129.5q-271 211 -271 557q0 438 203 822.5t629 705.5q86 49 147 49q57 0 97 -17.5t72 -51t80.5 -102.5t86.5 -124q305 -43 360 -94q115 -108 115 -561q0 -259 -91.5 -524.5t-285.5 -458.5z
M1262 643q118 121 243 365t125 352q0 127 -61 127q-31 0 -62 -37q-243 -295 -336 -709q-8 -28 -8 -69q0 -66 37 -66q25 0 62 37z" />
    <glyph glyph-name="p" unicode="p" horiz-adv-x="2339" 
d="M2105 496q-147 -189 -288.5 -314.5t-248 -182t-159.5 -56.5q-37 0 -66.5 12t-61 39.5t-77 74.5t-135.5 140q-48 -92 -126.5 -273t-158.5 -363t-141 -298q-33 -94 -106 -94q-25 0 -89.5 43.5t-74.5 46.5q-40 15 -86.5 21.5t-72.5 16.5t-71 48q-50 51 -66 99.5t-16 133.5
q0 130 29 189q64 144 191 410t216 457t195.5 444t208.5 536q-5 43 -19 115t-14 139q0 34 22.5 56.5t90.5 64t76 47.5q43 166 86 240.5t123 74.5q56 0 91 -23t121 -100.5t169 -130.5l70 24t82 19t126 7q102 0 165 -52.5t200 -226.5q72 -91 124 -238.5t52 -273.5
q0 -207 -112 -451t-249 -421zM1802 1417q0 99 -114 99q-51 0 -103 -37q-147 -364 -319 -766q130 51 252.5 196.5t203 301.5t80.5 206z" />
    <glyph glyph-name="q" unicode="q" horiz-adv-x="2277" 
d="M2134 1954q50 -6 127 -32.5t106 -45.5q40 -27 90 -100.5t50 -128.5q0 -84 -49 -172q-64 -106 -177 -351t-237 -566.5t-231.5 -683t-157.5 -681.5q-19 -119 -148 -119q-74 0 -249 78t-214 115q-45 39 -45 147q0 55 29 167t80 280t68 229q-123 -58 -171.5 -76t-127.5 -18
q-107 0 -221 119.5t-181 244.5q-41 94 -41 246q0 157 74 402q110 356 330.5 597.5t458.5 368t429 176.5t261 50q74 0 110.5 -72.5t36.5 -173.5zM1196 717q42 0 109.5 39.5t128.5 103.5q57 121 94.5 199.5t105 223t86.5 187.5q-118 -34 -254.5 -168.5t-229.5 -290t-93 -237.5
q0 -57 53 -57z" />
    <glyph glyph-name="r" unicode="r" horiz-adv-x="1556" 
d="M1548 1323q-69 0 -112.5 -44t-59.5 -87q-131 -344 -463 -1135q-31 -57 -90 -57q-42 0 -115.5 50.5t-76.5 51.5q-27 14 -72 15t-78.5 13t-74.5 63q-78 90 -78 233q0 51 5 77t14.5 51t12.5 36q62 161 198 434t229 490.5t188 545.5q15 54 54.5 86.5t84.5 32.5
q79 0 203.5 -62.5t206.5 -162.5q48 7 155.5 73t155.5 66q72 0 119 -65q20 -33 55 -121t35 -109q0 -52 -88 -232.5t-96 -201.5q-37 -82 -78 -82q-12 0 -90 20.5t-144 20.5z" />
    <glyph glyph-name="s" unicode="s" horiz-adv-x="1950" 
d="M2322 1815v77q0 -101 -32.5 -243t-69.5 -174q-30 -27 -144 -54.5t-192 -27.5q-127 0 -127 114q0 111 -37 111q-38 0 -127.5 -57.5t-89.5 -94.5q0 -31 121 -105.5t195 -139.5q70 -57 103 -144t36 -258q0 -211 -144 -377.5t-298.5 -258.5t-262.5 -138q-190 -78 -307 -78
q-181 0 -397 176q-230 177 -230 349q0 87 33 155q56 101 137 194t154 93q55 0 91 -44t81 -128q66 -119 168 -119q68 0 143 82q25 24 25 49q0 29 -41 57q-85 61 -144.5 104.5t-104 96t-70 131.5t-25.5 197q0 279 168 463q115 130 299.5 214t353 121t240.5 37q55 0 133.5 -21
t155.5 -62t129 -97q77 -85 77 -200z" />
    <glyph glyph-name="t" unicode="t" horiz-adv-x="1618" 
d="M1573 1458q-166 -319 -230.5 -540t-64.5 -320q0 -61 20 -106.5t58 -92t56 -76t18 -73.5q0 -80 -168 -180q-144 -82 -226 -82q-83 0 -151 50.5t-254 215.5q-115 95 -115 242q0 105 25 176q44 170 85.5 302.5t82 235t74 173.5t85.5 182q-20 8 -20 282q0 86 65 119
q45 24 94.5 44t90.5 42q82 201 245 557q55 123 152 123q33 0 90.5 -24t171 -81.5t123.5 -62.5q61 -30 84 -55t23 -84q0 -66 -103 -287q70 -14 123 -53q19 -18 55.5 -104t38.5 -89q17 -26 17 -57q0 -47 -41 -102q-97 -131 -135 -213q-23 -50 -119 -50q-18 0 -57 2.5t-74 2.5
q-78 0 -119 -17z" />
    <glyph glyph-name="u" unicode="u" horiz-adv-x="2245" 
d="M1434 897q298 792 508 1159q30 62 151 62q85 0 143 -58q22 -23 38.5 -57t31.5 -49q34 -37 98 -67t78 -44q41 -35 41 -123q0 -59 -29 -127q-60 -124 -135.5 -280t-155.5 -348t-153 -415t-125 -456q-20 -100 -45.5 -142t-81.5 -42q-35 0 -77 13t-118 44t-190 74
q-107 41 -127 192q-101 -66 -177 -116t-144.5 -83.5t-120.5 -33.5q-140 0 -258 147q-43 58 -95.5 202.5t-52.5 277.5q0 88 63 282t188 491.5t298 663.5q60 131 152 131q49 0 160.5 -58.5t203.5 -149.5q90 -90 90 -177q0 -22 -8 -44.5t-20 -47t-21 -43.5q-192 -352 -340 -807
q-12 -36 -12 -57q0 -37 33 -37q60 0 209 123z" />
    <glyph glyph-name="v" unicode="v" horiz-adv-x="2224" 
d="M1634 1827q0 -50 -20 -137t-62.5 -255t-64 -275t-21.5 -165q94 148 174 306.5t127 268.5t108 262t99 232q25 49 72 84t96 35q57 0 119 -29q88 -38 131 -90q18 -19 30 -64.5t36 -82.5q20 -31 61.5 -80.5t55.5 -77.5t14 -80q0 -69 -33 -123q-46 -70 -122 -211t-162.5 -274
t-267.5 -353.5t-501 -565.5q-136 -112 -180.5 -142t-105.5 -30q-50 0 -137 42.5t-162 104.5q-136 103 -136 250q0 115 9 160q62 547 110 1437q22 242 172 242q146 0 483 -180q43 -22 60.5 -65t17.5 -144z" />
    <glyph glyph-name="w" unicode="w" horiz-adv-x="3043" 
d="M2339 25q-57 -86 -139 -86q-48 0 -176 64.5t-193 123.5q-35 34 -46 86.5t-11 200.5q0 88 16 246t16 200q-254 -387 -487 -684q-62 -81 -113 -130.5t-116 -49.5q-80 0 -242 135q-86 75 -121 116t-35 85q0 50 7 105t16 108t10 65q32 203 49.5 370.5t26.5 293.5t23.5 297.5
t39.5 349.5q40 233 275 233q80 0 128.5 -31t121.5 -104q21 -20 69.5 -42.5t69 -49t20.5 -96.5q0 -42 -15 -112t-47.5 -206.5t-54.5 -244.5t-26 -170q115 168 201.5 318t151.5 284t159 328q16 40 41 54.5t94 14.5q90 0 205 -74q180 -125 180 -241q0 -45 -69.5 -348
t-69.5 -422q206 331 459 921q35 80 70.5 114t125.5 34q144 0 238 -131q33 -42 78 -142.5t45 -177.5q0 -111 -62 -200q-130 -184 -237 -348t-237 -371.5t-234 -371t-205 -314.5z" />
    <glyph glyph-name="x" unicode="x" horiz-adv-x="2171" 
d="M1802 1073q8 -86 52 -304t66 -345t22 -248q0 -63 -18 -82.5t-64 -32.5q-14 -5 -61 -12t-79 -20q-39 -12 -65 -31.5t-74 -54.5q-88 -49 -192 -49q-49 0 -92.5 25t-43.5 61q0 413 -20 626q-116 -118 -221.5 -280.5t-163.5 -255.5q-30 -40 -75.5 -69.5t-76.5 -29.5
q-29 0 -94 41t-106 90q-189 247 -189 316q0 66 16.5 109.5t65.5 95.5q66 79 143 159.5t153 156t175.5 171t171.5 164.5q-37 100 -116.5 257.5t-79.5 242.5q0 91 34 137.5t97 91.5q6 5 73 59t99 67t82 13q67 0 133 -37t92 -94q18 -34 139 -311q230 205 393 336q73 53 111 53
q61 0 111 -82q121 -194 151 -328q16 -64 16 -98q0 -99 -102 -168q-48 -38 -161.5 -114t-174.5 -119.5t-127 -106.5z" />
    <glyph glyph-name="y" unicode="y" horiz-adv-x="2109" 
d="M1565 1712q-19 -67 -79.5 -253.5t-89 -317t-28.5 -269.5q159 219 306.5 516.5t299.5 684.5q45 94 107 94q137 0 299 -201q65 -78 65 -270q0 -227 -118 -451q-162 -297 -291 -514t-311 -472t-415.5 -510t-518.5 -486q-148 -115 -271 -115q-104 0 -155 90
q-45 88 -67.5 124.5t-84.5 92.5q-26 25 -41.5 77.5t-15.5 82.5q0 91 73 123q74 36 160 78t159.5 91t163 130.5t206.5 208.5q-138 89 -188 164t-50 172q0 103 23.5 308.5t59.5 439.5t70 410.5t56 241.5q68 197 188 197q148 0 406 -209q102 -80 102 -147q0 -49 -20 -111z" />
    <glyph glyph-name="z" unicode="z" horiz-adv-x="2167" 
d="M1393 598q44 0 175 14.5t222 14.5q133 0 147 -29q82 -152 82 -205t-18 -91t-117 -232q-31 -62 -217 -62q-78 0 -244 6t-284 6t-308 -53t-233 -53q-128 0 -176 164q-74 211 -74 282q0 132 90 230q121 130 318 292t399 325.5t262 234.5q-91 -8 -250.5 -59.5t-216.5 -51.5
q-62 0 -88.5 73.5t-54.5 332.5q0 132 78 159q118 47 442 93.5t512 46.5q217 0 254 -54q193 -279 193 -393q0 -68 -62 -139q-93 -118 -380.5 -410.5t-450.5 -441.5z" />
    <glyph glyph-name="Ydagger" horiz-adv-x="2429" 
d="M2122 82q-15 -143 -180 -143q-100 0 -227.5 45.5t-215.5 97.5q-69 38 -69 111q-83 -34 -169.5 -92t-127.5 -77.5t-121 -19.5q-154 0 -312 184q-128 157 -168 270.5t-40 250.5q0 203 64.5 395.5t156.5 345t188 262.5q127 139 291 261.5t312.5 197t211.5 74.5q42 0 66 -28
t114 -169q56 126 94.5 171.5t127.5 45.5q133 0 307 -147q62 -50 106.5 -85t75.5 -72t31 -77q0 -57 -37 -94q-456 -806 -479 -1708zM1262 745q37 0 121.5 58t144.5 135q10 33 50.5 157.5t72 231t37.5 139.5q-82 -13 -166 -94t-150.5 -188.5t-108.5 -212t-42 -152.5
q0 -74 41 -74z" />
    <glyph glyph-name="exclamdown" unicode="&#xa1;" horiz-adv-x="2142" 
d="M2335 1761q0 -571 -153.5 -949.5t-377 -574t-440 -267.5t-369.5 -72q-143 0 -277 113.5t-217 273t-83 276.5q0 472 364 991q82 113 259 258t343.5 249t208.5 104q23 0 39.5 -7t34.5 -19t37 -23q0 157 -38 237.5t-117 200.5t-79 192q0 38 20.5 90.5t45.5 77.5
q81 82 252 173.5t349 156.5t259 68q75 0 108 -23.5t62.5 -73.5t59.5 -71q98 -70 135 -122.5t37 -115.5q0 -111 -69.5 -161.5t-238.5 -96.5q-111 -27 -155 -42.5t-61 -39t-17 -74.5q0 -68 27 -229.5t39 -256t12 -243.5zM1237 664q72 0 158 68t160 242.5t100 459.5
q-97 -66 -209 -206t-187 -282t-75 -221q0 -61 53 -61z" />
    <glyph glyph-name="exclamdown" unicode="&#x40e;" horiz-adv-x="2142" 
d="M2335 1761q0 -571 -153.5 -949.5t-377 -574t-440 -267.5t-369.5 -72q-143 0 -277 113.5t-217 273t-83 276.5q0 472 364 991q82 113 259 258t343.5 249t208.5 104q23 0 39.5 -7t34.5 -19t37 -23q0 157 -38 237.5t-117 200.5t-79 192q0 38 20.5 90.5t45.5 77.5
q81 82 252 173.5t349 156.5t259 68q75 0 108 -23.5t62.5 -73.5t59.5 -71q98 -70 135 -122.5t37 -115.5q0 -111 -69.5 -161.5t-238.5 -96.5q-111 -27 -155 -42.5t-61 -39t-17 -74.5q0 -68 27 -229.5t39 -256t12 -243.5zM1237 664q72 0 158 68t160 242.5t100 459.5
q-97 -66 -209 -206t-187 -282t-75 -221q0 -61 53 -61z" />
    <glyph glyph-name="cent" unicode="&#xa2;" horiz-adv-x="2351" 
d="M2257 1683q209 -104 209 -454q0 -218 -166 -548.5t-449 -573t-614 -242.5q-263 0 -417 163t-161 562q0 254 148 618q-17 5 -25 27t-12 106.5t-4 292.5q0 130 81.5 190.5t229.5 84.5q182 550 420 860t460 419t406 109q109 0 231 -90.5t206 -263t84 -399.5
q0 -181 -92.5 -348t-236 -297.5t-298.5 -215.5zM2245 2666q-79 0 -179.5 -161t-242.5 -486q238 151 344 312t106 270q0 65 -28 65zM1364 659q57 0 162.5 132.5t194.5 293.5t89 209q0 70 -69 70q-67 0 -164 -57q-234 -475 -234 -611q0 -37 21 -37z" />
    <glyph glyph-name="cent" unicode="&#x45e;" horiz-adv-x="2351" 
d="M2257 1683q209 -104 209 -454q0 -218 -166 -548.5t-449 -573t-614 -242.5q-263 0 -417 163t-161 562q0 254 148 618q-17 5 -25 27t-12 106.5t-4 292.5q0 130 81.5 190.5t229.5 84.5q182 550 420 860t460 419t406 109q109 0 231 -90.5t206 -263t84 -399.5
q0 -181 -92.5 -348t-236 -297.5t-298.5 -215.5zM2245 2666q-79 0 -179.5 -161t-242.5 -486q238 151 344 312t106 270q0 65 -28 65zM1364 659q57 0 162.5 132.5t194.5 293.5t89 209q0 70 -69 70q-67 0 -164 -57q-234 -475 -234 -611q0 -37 21 -37z" />
    <glyph glyph-name="sterling" unicode="&#xa3;" horiz-adv-x="2195" 
d="M2105 545q0 -157 -126 -296.5t-351.5 -224t-501.5 -85.5q-286 0 -456 137t-170 424q3 178 102 351.5t291 287.5q59 35 259 150t290 174.5t131 113.5q29 36 29 61t-25 25q-57 0 -137.5 -39.5t-209 -117.5t-185 -108t-95.5 -30q-159 0 -159 340q0 117 157 248.5t404.5 220
t498.5 88.5q144 0 244.5 -72.5t149.5 -189.5t49 -250q0 -246 -59.5 -371.5t-174.5 -201.5q-86 -56 -186.5 -120.5t-203 -135.5t-185.5 -137t-142 -128q-40 -40 -40 -65q0 -33 73 -33q59 0 175 50.5t165 88.5q15 11 54 44.5t66.5 48t64.5 14.5q66 0 135 -57t69 -205z" />
    <glyph glyph-name="sterling" unicode="&#x408;" horiz-adv-x="2195" 
d="M2105 545q0 -157 -126 -296.5t-351.5 -224t-501.5 -85.5q-286 0 -456 137t-170 424q3 178 102 351.5t291 287.5q59 35 259 150t290 174.5t131 113.5q29 36 29 61t-25 25q-57 0 -137.5 -39.5t-209 -117.5t-185 -108t-95.5 -30q-159 0 -159 340q0 117 157 248.5t404.5 220
t498.5 88.5q144 0 244.5 -72.5t149.5 -189.5t49 -250q0 -246 -59.5 -371.5t-174.5 -201.5q-86 -56 -186.5 -120.5t-203 -135.5t-185.5 -137t-142 -128q-40 -40 -40 -65q0 -33 73 -33q59 0 175 50.5t165 88.5q15 11 54 44.5t66.5 48t64.5 14.5q66 0 135 -57t69 -205z" />
    <glyph glyph-name="currency" unicode="&#xa4;" 
d="M2208 1307q0 -115 -13 -172q-22 -111 -113.5 -360.5t-230.5 -537.5t-327 -565.5t-398 -457.5q-119 -103 -353.5 -178.5t-420.5 -75.5q-163 0 -243.5 36.5t-223.5 139.5q-159 112 -159 196q0 104 65 201q63 86 154.5 180t136.5 94q28 0 117 -51t170 -51q222 0 368 74
q83 43 136.5 111t130.5 188q-30 -10 -83.5 -29.5t-109.5 -34t-94 -14.5q-66 0 -103 16.5t-75.5 62.5t-120.5 167q-99 147 -99 311q0 247 109 510t298 484.5t425 361.5q154 88 399 177.5t367 92.5q70 0 161 -106t130 -176q61 -126 61 -181q0 -51 -46 -85t-179 -79
q74 -66 110 -106t45 -67t9 -76zM1294 774q164 274 262 586q-124 -58 -245.5 -193t-200 -275.5t-78.5 -199.5q0 -41 25 -41q69 0 237 123z" />
    <glyph glyph-name="yen" unicode="&#xa5;" horiz-adv-x="2097" 
d="M2376 1520q0 -55 -52 -207.5t-116 -231.5q-96 -115 -200.5 -178t-340.5 -137q-61 -21 -192 -21q-66 0 -91 21q-116 100 -159 164q-41 -88 -41 -156q0 -116 102 -172q57 -37 115 -37q29 0 79.5 10.5t109 23.5t107.5 20.5t89 7.5q69 0 98 -29q12 -17 24 -38t34 -60
q12 -24 12 -58q0 -11 -37 -94q-19 -42 -36.5 -93.5t-33.5 -74.5q-42 -69 -80.5 -86t-185.5 -57q-220 -57 -393 -57q-219 0 -344 81q-385 258 -385 644q0 229 100.5 477t270 460t366.5 336q335 205 512 205q124 0 280 -68.5t224 -136.5q85 -85 124.5 -182.5t39.5 -275.5z
M1360 1208q128 18 195 34.5t112 64.5q47 50 79 138t32 132q0 33 -33 33q-21 0 -37 -17q-193 -140 -348 -385z" />
    <glyph glyph-name="yen" unicode="&#x490;" horiz-adv-x="2097" 
d="M2376 1520q0 -55 -52 -207.5t-116 -231.5q-96 -115 -200.5 -178t-340.5 -137q-61 -21 -192 -21q-66 0 -91 21q-116 100 -159 164q-41 -88 -41 -156q0 -116 102 -172q57 -37 115 -37q29 0 79.5 10.5t109 23.5t107.5 20.5t89 7.5q69 0 98 -29q12 -17 24 -38t34 -60
q12 -24 12 -58q0 -11 -37 -94q-19 -42 -36.5 -93.5t-33.5 -74.5q-42 -69 -80.5 -86t-185.5 -57q-220 -57 -393 -57q-219 0 -344 81q-385 258 -385 644q0 229 100.5 477t270 460t366.5 336q335 205 512 205q124 0 280 -68.5t224 -136.5q85 -85 124.5 -182.5t39.5 -275.5z
M1360 1208q128 18 195 34.5t112 64.5q47 50 79 138t32 132q0 33 -33 33q-21 0 -37 -17q-193 -140 -348 -385z" />
    <glyph glyph-name="brokenbar" unicode="&#xa6;" horiz-adv-x="3461" 
d="M2650 1569q33 25 160.5 204.5t229 290.5t188.5 111q112 0 159.5 -44t94.5 -124q94 -135 94 -254q0 -61 -77.5 -187t-229.5 -275.5t-365 -282.5q0 -181 25.5 -290.5t77 -223t73 -178t21.5 -181.5q0 -30 -26.5 -52.5t-66.5 -35t-95.5 -22.5t-82.5 -17q-34 -8 -129 -47
t-170 -39q-70 0 -124 52.5t-97.5 241t-56.5 562.5q-48 -74 -84 -171.5t-88.5 -256t-77.5 -198.5q-32 -54 -104 -86.5t-138 -32.5q-52 0 -99 37t-69 45q-37 14 -92 17t-80 15q-114 65 -114 156q0 52 97 281t112 272q-136 -140 -404.5 -401t-312.5 -287q-188 -107 -271 -107
q-102 0 -157.5 58.5t-55.5 245.5q0 216 36.5 315.5t102 148.5t309.5 200t458 319v356q0 237 112 372t246.5 182.5t218.5 47.5q127 0 127 -192q0 -78 -10.5 -148t-35.5 -184.5t-32.5 -157t-7.5 -100.5q241 468 586 1319q65 155 274 155q125 0 258 -127q127 -126 127 -241
q0 -45 -54 -176.5t-186 -428.5t-194 -456z" />
    <glyph glyph-name="section" unicode="&#xa7;" horiz-adv-x="2109" 
d="M1847 401q0 -135 -78 -336t-218.5 -403.5t-338 -360t-430.5 -214.5q-173 -40 -233 -51t-205 -11q-57 0 -178 58.5t-217 153t-96 202.5q0 190 84.5 342.5t205.5 152.5q94 0 131.5 -27.5t70 -81.5t75 -81t141.5 -27q346 0 537 549q37 102 37 168q0 90 -45 90q-43 0 -82 -14
t-99 -14q-67 0 -113 121t-46 223q0 105 65 148.5t242 43.5q140 0 243 68.5t155 168t52 185.5q0 70 -7.5 96.5t-41.5 26.5q-62 0 -99 -33t-91 -106t-107 -110.5t-137 -37.5q-59 0 -109 78.5t-79 188.5t-29 192q0 79 96 201t289.5 212.5t466.5 90.5q173 0 350 -140t182 -573
q-1 -140 -71 -288t-189 -266t-260 -171q176 -160 176 -414z" />
    <glyph glyph-name="dieresis" unicode="&#xa8;" 
d="M1430 877q106 280 174.5 450t152 351.5t180.5 357.5q37 57 152 57q90 0 143 -53q23 -24 39.5 -59t30.5 -52q37 -36 100.5 -65.5t75.5 -40.5q41 -36 41 -127q0 -59 -29 -123q-65 -135 -137 -285.5t-151 -339t-151.5 -411.5t-125.5 -467q-23 -98 -49.5 -139.5t-81.5 -41.5
q-35 0 -77 13t-118 44t-190 74q-108 41 -127 193q-58 -40 -118 -80t-117.5 -74.5t-112 -56.5t-94.5 -22q-145 0 -258 147q-44 59 -96 200.5t-52 274.5q0 132 143 508.5t406 933.5q63 131 156 131q45 0 157 -61t203 -148q90 -90 90 -176q0 -23 -8 -46.5t-20.5 -50
t-20.5 -42.5q-180 -333 -340 -803q-12 -37 -12 -57q0 -37 33 -37q67 0 209 123z" />
    <glyph glyph-name="dieresis" unicode="&#x401;" 
d="M1430 877q106 280 174.5 450t152 351.5t180.5 357.5q37 57 152 57q90 0 143 -53q23 -24 39.5 -59t30.5 -52q37 -36 100.5 -65.5t75.5 -40.5q41 -36 41 -127q0 -59 -29 -123q-65 -135 -137 -285.5t-151 -339t-151.5 -411.5t-125.5 -467q-23 -98 -49.5 -139.5t-81.5 -41.5
q-35 0 -77 13t-118 44t-190 74q-108 41 -127 193q-58 -40 -118 -80t-117.5 -74.5t-112 -56.5t-94.5 -22q-145 0 -258 147q-44 59 -96 200.5t-52 274.5q0 132 143 508.5t406 933.5q63 131 156 131q45 0 157 -61t203 -148q90 -90 90 -176q0 -23 -8 -46.5t-20.5 -50
t-20.5 -42.5q-180 -333 -340 -803q-12 -37 -12 -57q0 -37 33 -37q67 0 209 123z" />
    <glyph glyph-name="copyright" unicode="&#xa9;" horiz-adv-x="2191" 
d="M2175 2494q41 -69 41 -131q0 -81 -123.5 -106t-372.5 -25q-123 0 -193 7.5t-116 37t-67 90.5t-21 168q0 105 27.5 147t119.5 42q219 0 525 -25q48 -4 72.5 -29.5t57 -87.5t50.5 -88zM1409 877q278 751 508 1159q8 19 46.5 38t100.5 19q95 0 148 -53q23 -24 40.5 -60.5
t28.5 -50.5q34 -35 99.5 -65t77.5 -41q41 -37 41 -127q0 -40 -33 -123q-69 -143 -141.5 -295.5t-151 -340.5t-149.5 -408.5t-123 -458.5q-19 -96 -47.5 -138.5t-84.5 -42.5q-34 0 -74.5 12.5t-118 45t-187.5 73.5q-114 44 -127 193q-13 -8 -132.5 -86.5t-189.5 -112.5
t-125 -34q-140 0 -254 147q-45 55 -96 198.5t-51 276.5q0 64 35 192t101 303.5t179 435t234 511.5q63 131 151 131q48 0 159 -60.5t202 -148.5q90 -84 90 -176q0 -53 -49 -139q-198 -378 -336 -803q-13 -36 -13 -57q0 -37 33 -37q67 0 209 123z" />
    <glyph glyph-name="ordfeminine" unicode="&#xaa;" horiz-adv-x="2343" 
d="M1573 1479q79 12 183.5 121.5t227.5 279.5t142 193q59 73 180 73q140 0 221 -180q58 -110 58 -225q0 -88 -41 -160q-67 -113 -180 -251.5t-173 -182.5q-24 -16 -125 -77t-137 -87q0 -122 7 -216.5t19.5 -150.5t33 -110t43.5 -113q3 -9 22.5 -54.5t29 -89t9.5 -97.5
q0 -40 -15.5 -63t-48 -37.5t-82 -25.5t-116.5 -26q-59 -12 -146.5 -43t-132.5 -31q-66 0 -114 90q-43 79 -71.5 132t-47.5 125t-32.5 220.5t-20.5 407.5q-56 -99 -156.5 -372t-138.5 -361q-26 -61 -112.5 -102t-133.5 -41q-68 0 -119 65q-19 29 -40.5 78t-49.5 78
q-25 18 -68 49t-77.5 75.5t-34.5 100.5q0 78 37 156q116 237 310 620.5t274.5 546.5t207.5 444t273 641q21 50 94.5 84.5t163.5 34.5q185 0 323 -180q66 -102 70 -176q0 -57 -25 -123q-57 -127 -115 -256.5t-128 -283t-127.5 -268.5t-120.5 -232z" />
    <glyph glyph-name="ordfeminine" unicode="&#x404;" horiz-adv-x="2343" 
d="M1573 1479q79 12 183.5 121.5t227.5 279.5t142 193q59 73 180 73q140 0 221 -180q58 -110 58 -225q0 -88 -41 -160q-67 -113 -180 -251.5t-173 -182.5q-24 -16 -125 -77t-137 -87q0 -122 7 -216.5t19.5 -150.5t33 -110t43.5 -113q3 -9 22.5 -54.5t29 -89t9.5 -97.5
q0 -40 -15.5 -63t-48 -37.5t-82 -25.5t-116.5 -26q-59 -12 -146.5 -43t-132.5 -31q-66 0 -114 90q-43 79 -71.5 132t-47.5 125t-32.5 220.5t-20.5 407.5q-56 -99 -156.5 -372t-138.5 -361q-26 -61 -112.5 -102t-133.5 -41q-68 0 -119 65q-19 29 -40.5 78t-49.5 78
q-25 18 -68 49t-77.5 75.5t-34.5 100.5q0 78 37 156q116 237 310 620.5t274.5 546.5t207.5 444t273 641q21 50 94.5 84.5t163.5 34.5q185 0 323 -180q66 -102 70 -176q0 -57 -25 -123q-57 -127 -115 -256.5t-128 -283t-127.5 -268.5t-120.5 -232z" />
    <glyph glyph-name="guillemotleft" unicode="&#xab;" horiz-adv-x="2249" 
d="M1794 -70q-58 0 -109 27.5t-106.5 71t-71.5 49.5q-113 30 -185.5 83.5t-72.5 174.5q0 58 21.5 147t70 256t74 260.5t35.5 180.5q-114 -179 -192.5 -333t-179 -372.5t-140.5 -298.5q-28 -62 -88.5 -113t-132.5 -51q-133 0 -246 140q-21 25 -82 59.5t-90 66t-29 99.5
q0 164 142.5 426.5t435 608t700.5 722.5q89 74 201 74q93 0 246 -119q76 -59 122 -120t46 -167q0 -72 -17 -243t-45 -415t-51 -447t-43 -414q-10 -116 -24.5 -186.5t-58 -118.5t-130.5 -48z" />
    <glyph glyph-name="logicalnot" unicode="&#xac;" horiz-adv-x="3146" 
d="M1909 1343q117 164 471 623q118 160 237 160q76 0 122 -31.5t87 -75.5q127 -111 158 -154t31 -108q0 -24 -57 -449.5t-89.5 -684t-46.5 -443.5q-4 -65 -67.5 -145t-153.5 -80q-104 0 -303 115q-62 36 -110.5 65t-67.5 62t-19 98q0 61 14 127t49 197.5t49.5 194.5
t14.5 112q-102 -134 -178 -262.5t-139 -256t-113 -227.5q-40 -78 -74.5 -116.5t-97.5 -38.5q-131 0 -242 94q-89 72 -113.5 95.5t-39 67t-14.5 128.5q0 56 42.5 205.5t60.5 225.5t19 187q-75 -106 -134 -215t-150 -293t-174 -340q-28 -58 -66 -84t-115 -26q-64 3 -111.5 29
t-113.5 89q-59 45 -94.5 71.5t-56.5 65.5t-21 117q0 201 117 410.5t391 595.5t414 633q78 131 225 131q77 0 126 -22t185 -97q97 -56 132.5 -107t35.5 -143q0 -106 -10 -248t-10 -252z" />
    <glyph glyph-name="Ynotequal" horiz-adv-x="2286" 
d="M1794 -33q-54 0 -90.5 18t-93.5 60.5t-99 65.5q-176 95 -176 233q0 73 25 139.5t81.5 198.5t65.5 186h-168q-55 -109 -101.5 -223t-121 -312t-96.5 -255q-30 -82 -107 -82q-49 0 -74.5 19.5t-94 83.5t-109.5 77q-201 54 -201 275q0 104 37 203.5t102.5 230t81.5 184.5
q-16 82 -16 123q0 231 55 308t178 77q37 79 133.5 276t145.5 310q42 98 192 98q45 0 73 -10.5t81 -51.5t80 -61q92 -63 126 -98.5t34 -122.5q0 -60 -22 -114t-73 -152.5t-69 -155.5h156q88 141 266 537q31 68 66.5 103.5t105.5 35.5q103 0 165.5 -39.5t121.5 -128.5
q16 -27 56 -77.5t53 -87t13 -114.5q0 -69 -41 -180q-57 -158 -125.5 -304.5t-149 -319.5t-139 -338t-110.5 -398q-18 -108 -54.5 -162.5t-162.5 -54.5z" />
    <glyph glyph-name="registered" unicode="&#xae;" horiz-adv-x="2134" 
d="M1905 324q-370 -381 -623 -381q-126 0 -272.5 51t-247.5 129q-270 206 -270 557q0 439 202.5 823t628.5 705q77 49 147 49q57 0 96 -17t70 -49.5t61 -75.5t105 -153q149 -21 235 -38t130 -56q114 -109 114 -561q0 -256 -92.5 -522.5t-283.5 -460.5zM1270 643
q118 121 243 365t125 352q0 127 -61 127q-31 0 -61 -37q-114 -141 -201.5 -328t-134.5 -381q-9 -28 -9 -69q0 -66 37 -66q31 0 62 37z" />
    <glyph glyph-name="Yoslash" horiz-adv-x="2195" 
d="M1532 1970q320 160 393 160q94 0 189 -111q121 -143 181 -247.5t60 -260.5q-3 -109 -42 -270t-103 -355.5t-135 -389.5l-142 -390q-28 -83 -94 -110q-44 -14 -78 -25t-86 -28q-40 -13 -73 -13q-39 0 -111 41q-33 23 -125 108.5t-125 129.5q-24 30 -24 70t28 98
q36 74 106.5 234t147 342t135.5 317q21 41 21 82q0 45 -49 45q-92 0 -193 -127q-49 -119 -159.5 -427t-149 -415t-117.5 -289q-42 -119 -123 -119q-35 0 -99 25t-110 57q-34 25 -103.5 73.5t-114 87.5t-71 80.5t-26.5 86.5q0 30 16 94q92 247 251 585t236.5 534t135.5 479
q9 33 47.5 69.5t71.5 36.5q23 0 56 -12.5t93 -40.5l150 -70q94 -38 135 -135z" />
    <glyph glyph-name="fraction" unicode="&#x2044;" horiz-adv-x="2875" 
d="M2314 111q-50 -82 -131 -82q-44 0 -93 23.5t-124.5 75.5t-163.5 114q-139 88 -139 213q0 59 5.5 137.5t17.5 218.5t19 253t7 202q-109 -183 -187 -321t-221 -395t-214 -382q-60 -107 -172 -107q-175 0 -242 58q-43 35 -63 64.5t-45 78.5t-44 78q-20 32 -62 86.5
t-55.5 79.5t-13.5 59q0 104 53 180q246 340 446.5 632.5t366.5 555.5t296 489.5t231 424.5q64 119 201 119q66 0 136.5 -41.5t256.5 -180.5q65 -45 65 -155q0 -17 -30 -169.5t-53 -341.5t-23 -411q85 142 147 275t109 258.5t119.5 341t91.5 272.5q28 69 97.5 126.5
t184.5 57.5q82 0 120 -22t151 -113q87 -74 125.5 -130t38.5 -132q0 -93 -29 -160q-108 -217 -274 -574t-281.5 -597.5t-274 -540t-350.5 -618.5z" />
    <glyph glyph-name="Agrave" unicode="&#xc0;" horiz-adv-x="2564" 
d="M2306 209q-85 -299 -266 -299q-75 0 -185 53q-44 25 -98.5 67.5t-68.5 51.5q-12 8 -74 37.5t-90.5 60.5t-28.5 86q0 56 80 253t92 255q-158 0 -315 -53q-30 -55 -80.5 -183t-92.5 -235t-85 -184q-40 -64 -68 -89.5t-104 -25.5q-122 0 -209 66q-78 58 -193 213
q-24 32 -45 60.5t-37 65.5t-16 83q0 58 33.5 121.5t60.5 111.5q3 7 17.5 36.5t25 61t10.5 58.5q0 109 -4 195t-4 91q0 36 57 75t107 56q50 15 76 51t67 113q176 311 269.5 470t203 320t255.5 335.5t333 357.5q73 57 139 57q52 0 125 -39.5t232 -140.5q41 -25 76.5 -47
t61.5 -51.5t26 -69.5q0 -79 -70 -172q80 -47 138 -99t63 -134q0 -123 -4 -160q-13 -216 -91 -591t-172.5 -743t-146.5 -546zM1843 1417q101 264 164 574q-229 -273 -365 -586q17 -8 70 -8q109 9 131 20z" />
    <glyph glyph-name="Agrave" unicode="&#x410;" horiz-adv-x="2564" 
d="M2306 209q-85 -299 -266 -299q-75 0 -185 53q-44 25 -98.5 67.5t-68.5 51.5q-12 8 -74 37.5t-90.5 60.5t-28.5 86q0 56 80 253t92 255q-158 0 -315 -53q-30 -55 -80.5 -183t-92.5 -235t-85 -184q-40 -64 -68 -89.5t-104 -25.5q-122 0 -209 66q-78 58 -193 213
q-24 32 -45 60.5t-37 65.5t-16 83q0 58 33.5 121.5t60.5 111.5q3 7 17.5 36.5t25 61t10.5 58.5q0 109 -4 195t-4 91q0 36 57 75t107 56q50 15 76 51t67 113q176 311 269.5 470t203 320t255.5 335.5t333 357.5q73 57 139 57q52 0 125 -39.5t232 -140.5q41 -25 76.5 -47
t61.5 -51.5t26 -69.5q0 -79 -70 -172q80 -47 138 -99t63 -134q0 -123 -4 -160q-13 -216 -91 -591t-172.5 -743t-146.5 -546zM1843 1417q101 264 164 574q-229 -273 -365 -586q17 -8 70 -8q109 9 131 20z" />
    <glyph glyph-name="Aacute" unicode="&#xc1;" horiz-adv-x="2585" 
d="M2793 2662q3 -22 34.5 -73.5t31.5 -122.5q0 -42 -42 -76.5t-101 -34.5q-31 0 -78.5 8.5t-85.5 8.5q-207 0 -382 -26t-175 -69q0 -34 10 -52t10 -50q0 -85 -37 -213q-12 -60 -12 -61q0 -46 74 -46h205q77 0 182 -76t182.5 -221.5t77.5 -340.5q0 -158 -45.5 -301
t-183.5 -331.5t-398 -437.5q-59 -56 -173 -111.5t-183 -55.5q-77 0 -161.5 41.5t-264.5 175.5q-106 -120 -144 -150.5t-90 -30.5q-38 0 -92 46t-288 266q-41 41 -53.5 71t-12.5 84q0 82 37 156q176 368 305.5 655t353.5 807q-83 39 -113 156.5t-30 359.5q0 137 90 197
q48 32 191 76.5t368 78t494 33.5q381 0 454 -159q17 -39 24 -67t11 -54t10 -60zM1552 786q111 4 201.5 106.5t138.5 205.5q29 48 29 94q0 37 -25 61q-31 33 -127 33q-121 -244 -217 -500z" />
    <glyph glyph-name="Aacute" unicode="&#x411;" horiz-adv-x="2585" 
d="M2793 2662q3 -22 34.5 -73.5t31.5 -122.5q0 -42 -42 -76.5t-101 -34.5q-31 0 -78.5 8.5t-85.5 8.5q-207 0 -382 -26t-175 -69q0 -34 10 -52t10 -50q0 -85 -37 -213q-12 -60 -12 -61q0 -46 74 -46h205q77 0 182 -76t182.5 -221.5t77.5 -340.5q0 -158 -45.5 -301
t-183.5 -331.5t-398 -437.5q-59 -56 -173 -111.5t-183 -55.5q-77 0 -161.5 41.5t-264.5 175.5q-106 -120 -144 -150.5t-90 -30.5q-38 0 -92 46t-288 266q-41 41 -53.5 71t-12.5 84q0 82 37 156q176 368 305.5 655t353.5 807q-83 39 -113 156.5t-30 359.5q0 137 90 197
q48 32 191 76.5t368 78t494 33.5q381 0 454 -159q17 -39 24 -67t11 -54t10 -60zM1552 786q111 4 201.5 106.5t138.5 205.5q29 48 29 94q0 37 -25 61q-31 33 -127 33q-121 -244 -217 -500z" />
    <glyph glyph-name="Acircumflex" unicode="&#xc2;" horiz-adv-x="2613" 
d="M2564 1458q32 -30 71.5 -115.5t39.5 -207.5q0 -229 -262 -578q-227 -296 -423 -441t-335 -145q-102 0 -215 87.5t-178 166.5q-24 -35 -49 -69.5t-52 -66t-60 -52.5t-65 -21q-46 0 -88 31t-95.5 94t-61.5 72q-14 16 -79 64t-97.5 97t-32.5 130q0 74 53 180
q308 618 672 1421q-69 56 -92.5 99t-29 136.5t-5.5 362.5q0 74 73 115q113 65 374 124.5t548 59.5q271 0 466 -85.5t300.5 -260t105.5 -436.5q0 -224 -141.5 -412t-341.5 -350zM2327 2261q0 57 -111 57q-52 0 -102 -20q-80 -176 -144 -373q98 34 227.5 156.5t129.5 179.5z
M1921 1188q0 90 -98 90q-54 0 -94 -21q-13 -25 -213 -471q155 0 315 197q29 35 59.5 101t30.5 104z" />
    <glyph glyph-name="Acircumflex" unicode="&#x412;" horiz-adv-x="2613" 
d="M2564 1458q32 -30 71.5 -115.5t39.5 -207.5q0 -229 -262 -578q-227 -296 -423 -441t-335 -145q-102 0 -215 87.5t-178 166.5q-24 -35 -49 -69.5t-52 -66t-60 -52.5t-65 -21q-46 0 -88 31t-95.5 94t-61.5 72q-14 16 -79 64t-97.5 97t-32.5 130q0 74 53 180
q308 618 672 1421q-69 56 -92.5 99t-29 136.5t-5.5 362.5q0 74 73 115q113 65 374 124.5t548 59.5q271 0 466 -85.5t300.5 -260t105.5 -436.5q0 -224 -141.5 -412t-341.5 -350zM2327 2261q0 57 -111 57q-52 0 -102 -20q-80 -176 -144 -373q98 34 227.5 156.5t129.5 179.5z
M1921 1188q0 90 -98 90q-54 0 -94 -21q-13 -25 -213 -471q155 0 315 197q29 35 59.5 101t30.5 104z" />
    <glyph glyph-name="Atilde" unicode="&#xc3;" horiz-adv-x="2052" 
d="M2736 2429q0 -50 -46 -76t-97 -26q-81 0 -153 6t-134 6q-118 0 -319 -29q0 -233 -161.5 -673.5t-338 -824t-344.5 -722.5q-20 -44 -43 -67t-76 -23q-52 0 -73.5 16t-70 63.5t-102.5 76.5q-45 26 -97 28t-112 33q-94 48 -94 197q0 94 21 139q181 348 351.5 714t275.5 613
t167 401q-18 54 -41.5 120t-44 150.5t-20.5 160.5q0 18 22.5 67.5t42.5 59.5q109 64 328 98q124 21 324.5 41t244.5 20h181q88 -7 131 -32q159 -88 237 -193q23 -34 32 -82t9 -262z" />
    <glyph glyph-name="Atilde" unicode="&#x413;" horiz-adv-x="2052" 
d="M2736 2429q0 -50 -46 -76t-97 -26q-81 0 -153 6t-134 6q-118 0 -319 -29q0 -233 -161.5 -673.5t-338 -824t-344.5 -722.5q-20 -44 -43 -67t-76 -23q-52 0 -73.5 16t-70 63.5t-102.5 76.5q-45 26 -97 28t-112 33q-94 48 -94 197q0 94 21 139q181 348 351.5 714t275.5 613
t167 401q-18 54 -41.5 120t-44 150.5t-20.5 160.5q0 18 22.5 67.5t42.5 59.5q109 64 328 98q124 21 324.5 41t244.5 20h181q88 -7 131 -32q159 -88 237 -193q23 -34 32 -82t9 -262z" />
    <glyph glyph-name="Adieresis" unicode="&#xc4;" horiz-adv-x="2961" 
d="M2507 668q-8 -58 -8 -78q0 -74 45 -74q36 0 77 -84t41 -186q0 -124 -67.5 -286.5t-140.5 -229.5q-131 -131 -316 -131q-78 0 -78 131q0 77 -39.5 127.5t-91.5 64.5q-42 14 -459 29.5t-884 15.5q-23 0 -39 -7.5t-27.5 -19.5t-19.5 -18q-122 -105 -166.5 -130t-112.5 -25
q-55 0 -87 54t-32 130q0 98 66 266q133 333 307 352q64 11 82 21t33 45q642 1623 1315 2310q46 53 118 53q71 0 146 -35.5t325 -177.5q31 -18 52.5 -56t21.5 -75q0 -45 -13 -68t-69 -79q146 -77 188 -153.5t42 -219.5q0 -579 -209 -1466zM2019 1982q-67 -79 -197 -326.5
t-242.5 -526.5t-149.5 -478q204 0 307 -4q44 116 108 384t113.5 537t60.5 414z" />
    <glyph glyph-name="Adieresis" unicode="&#x414;" horiz-adv-x="2961" 
d="M2507 668q-8 -58 -8 -78q0 -74 45 -74q36 0 77 -84t41 -186q0 -124 -67.5 -286.5t-140.5 -229.5q-131 -131 -316 -131q-78 0 -78 131q0 77 -39.5 127.5t-91.5 64.5q-42 14 -459 29.5t-884 15.5q-23 0 -39 -7.5t-27.5 -19.5t-19.5 -18q-122 -105 -166.5 -130t-112.5 -25
q-55 0 -87 54t-32 130q0 98 66 266q133 333 307 352q64 11 82 21t33 45q642 1623 1315 2310q46 53 118 53q71 0 146 -35.5t325 -177.5q31 -18 52.5 -56t21.5 -75q0 -45 -13 -68t-69 -79q146 -77 188 -153.5t42 -219.5q0 -579 -209 -1466zM2019 1982q-67 -79 -197 -326.5
t-242.5 -526.5t-149.5 -478q204 0 307 -4q44 116 108 384t113.5 537t60.5 414z" />
    <glyph glyph-name="Aring" unicode="&#xc5;" horiz-adv-x="2208" 
d="M2032 2327q-126 -131 -263 -467q35 0 148 4t168 4q86 0 106 -8q51 -16 66.5 -65t40.5 -177q12 -49 12 -94q0 -77 -37 -119q-108 -139 -258 -139q-258 0 -483 -49q-111 -132 -213 -492q180 0 368 28.5t238 28.5q75 0 129.5 -48t54.5 -132q0 -29 -8.5 -58.5t-22 -63.5
t-14.5 -38q-2 -10 -13 -71.5t-28 -106t-49 -71.5q-100 -87 -487 -152q-357 -70 -520 -70q-86 0 -203 138t-195 260q-77 135 -77 241q0 91 69 283t205 541q-33 118 -33 184q0 102 74 143q64 30 127 41q108 212 319 565q-86 227 -86 320q0 42 30 92.5t77 67.5q114 46 364 98.5
t410 52.5q172 0 365 -41q62 -15 94 -61q48 -75 116 -227t68 -179q0 -77 -42 -120t-101 -43q-64 0 -154 22.5t-121 22.5q-112 0 -241 -45z" />
    <glyph glyph-name="Aring" unicode="&#x415;" horiz-adv-x="2208" 
d="M2032 2327q-126 -131 -263 -467q35 0 148 4t168 4q86 0 106 -8q51 -16 66.5 -65t40.5 -177q12 -49 12 -94q0 -77 -37 -119q-108 -139 -258 -139q-258 0 -483 -49q-111 -132 -213 -492q180 0 368 28.5t238 28.5q75 0 129.5 -48t54.5 -132q0 -29 -8.5 -58.5t-22 -63.5
t-14.5 -38q-2 -10 -13 -71.5t-28 -106t-49 -71.5q-100 -87 -487 -152q-357 -70 -520 -70q-86 0 -203 138t-195 260q-77 135 -77 241q0 91 69 283t205 541q-33 118 -33 184q0 102 74 143q64 30 127 41q108 212 319 565q-86 227 -86 320q0 42 30 92.5t77 67.5q114 46 364 98.5
t410 52.5q172 0 365 -41q62 -15 94 -61q48 -75 116 -227t68 -179q0 -77 -42 -120t-101 -43q-64 0 -154 22.5t-121 22.5q-112 0 -241 -45z" />
    <glyph glyph-name="AE" unicode="&#xc6;" horiz-adv-x="3965" 
d="M2859 1909q84 71 175.5 185.5t177.5 244t163.5 256.5t167.5 276q66 107 164 107q53 0 118 -55t95 -113q123 -208 123 -361q0 -39 -6 -64.5t-17.5 -48.5t-25.5 -50q-42 -87 -123.5 -223.5t-188 -286t-221 -264.5t-213.5 -148q0 -325 37 -538t85 -329t112 -227
q32 -48 32 -155q0 -126 -180 -131q-114 -4 -229 -74q-71 -40 -88 -46.5t-72 -6.5q-56 0 -127 40.5t-119 98.5q-65 75 -96 203t-40 306t-11 453q-31 -73 -94 -244.5t-117.5 -324.5t-83.5 -221q-38 -77 -74 -128.5t-86 -51.5q-49 0 -139 32q-41 12 -79 25.5t-59.5 19
t-70.5 9.5q-59 3 -98 26t-86 84q-9 7 -22 18.5t-22.5 39.5t-9.5 73q0 70 71.5 248.5t105.5 317.5q-53 -59 -162 -199.5t-212.5 -274t-201.5 -248t-178 -184.5q-104 -90 -250 -90q-205 0 -250 140q-8 29 -50 65.5t-65.5 85.5t-23.5 152q0 145 30.5 199t116.5 116
q122 87 281.5 233t341.5 343.5t373 439.5q-99 136 -99 713q0 253 54 340q63 109 201 197.5t241 88.5q164 0 164 -286q0 -634 94 -836q66 116 120.5 262t123 371t108.5 346q25 98 148 98q66 0 206 -57.5t207 -97.5q115 -76 115 -181q0 -36 -24 -102q-188 -497 -238 -606z" />
    <glyph glyph-name="AE" unicode="&#x416;" horiz-adv-x="3965" 
d="M2859 1909q84 71 175.5 185.5t177.5 244t163.5 256.5t167.5 276q66 107 164 107q53 0 118 -55t95 -113q123 -208 123 -361q0 -39 -6 -64.5t-17.5 -48.5t-25.5 -50q-42 -87 -123.5 -223.5t-188 -286t-221 -264.5t-213.5 -148q0 -325 37 -538t85 -329t112 -227
q32 -48 32 -155q0 -126 -180 -131q-114 -4 -229 -74q-71 -40 -88 -46.5t-72 -6.5q-56 0 -127 40.5t-119 98.5q-65 75 -96 203t-40 306t-11 453q-31 -73 -94 -244.5t-117.5 -324.5t-83.5 -221q-38 -77 -74 -128.5t-86 -51.5q-49 0 -139 32q-41 12 -79 25.5t-59.5 19
t-70.5 9.5q-59 3 -98 26t-86 84q-9 7 -22 18.5t-22.5 39.5t-9.5 73q0 70 71.5 248.5t105.5 317.5q-53 -59 -162 -199.5t-212.5 -274t-201.5 -248t-178 -184.5q-104 -90 -250 -90q-205 0 -250 140q-8 29 -50 65.5t-65.5 85.5t-23.5 152q0 145 30.5 199t116.5 116
q122 87 281.5 233t341.5 343.5t373 439.5q-99 136 -99 713q0 253 54 340q63 109 201 197.5t241 88.5q164 0 164 -286q0 -634 94 -836q66 116 120.5 262t123 371t108.5 346q25 98 148 98q66 0 206 -57.5t207 -97.5q115 -76 115 -181q0 -36 -24 -102q-188 -497 -238 -606z" />
    <glyph glyph-name="Ccedilla" unicode="&#xc7;" horiz-adv-x="2552" 
d="M2404 1536q83 -69 144 -202.5t61 -280.5q0 -178 -130 -374t-343.5 -366.5t-452 -272t-438.5 -101.5q-96 0 -231.5 41.5t-268.5 129t-220 227.5t-87 327q0 141 21.5 190.5t85.5 95.5q173 127 311 127q68 0 138.5 -55t86.5 -158t54 -149.5t143 -46.5q77 0 202 74.5
t220.5 178.5t101.5 189q0 74 -65 74q-38 0 -83 -22.5t-77 -22.5q-80 0 -164 139q-68 125 -99.5 211.5t-31.5 206.5q0 93 70.5 129.5t310.5 50.5q166 120 236.5 177.5t152.5 146.5q45 51 45 94q0 61 -106 61q-157 0 -234.5 -41t-200 -129t-200.5 -88q-51 0 -79 30.5
t-73 117.5q-8 15 -39 40.5t-49 58.5t-18 97q0 45 23.5 95.5t45.5 72.5q206 211 458.5 304t467.5 93q211 0 379.5 -105t263 -286t94.5 -399q0 -92 -59.5 -212t-157 -242t-209.5 -226z" />
    <glyph glyph-name="Ccedilla" unicode="&#x417;" horiz-adv-x="2552" 
d="M2404 1536q83 -69 144 -202.5t61 -280.5q0 -178 -130 -374t-343.5 -366.5t-452 -272t-438.5 -101.5q-96 0 -231.5 41.5t-268.5 129t-220 227.5t-87 327q0 141 21.5 190.5t85.5 95.5q173 127 311 127q68 0 138.5 -55t86.5 -158t54 -149.5t143 -46.5q77 0 202 74.5
t220.5 178.5t101.5 189q0 74 -65 74q-38 0 -83 -22.5t-77 -22.5q-80 0 -164 139q-68 125 -99.5 211.5t-31.5 206.5q0 93 70.5 129.5t310.5 50.5q166 120 236.5 177.5t152.5 146.5q45 51 45 94q0 61 -106 61q-157 0 -234.5 -41t-200 -129t-200.5 -88q-51 0 -79 30.5
t-73 117.5q-8 15 -39 40.5t-49 58.5t-18 97q0 45 23.5 95.5t45.5 72.5q206 211 458.5 304t467.5 93q211 0 379.5 -105t263 -286t94.5 -399q0 -92 -59.5 -212t-157 -242t-209.5 -226z" />
    <glyph glyph-name="Egrave" unicode="&#xc8;" horiz-adv-x="2503" 
d="M1872 2515q-13 -32 -101.5 -235t-138.5 -334.5t-100 -303.5q88 145 229.5 343.5t320.5 435t372 483.5q57 82 118 82q45 0 75 -21.5t106 -89.5q174 -156 224 -226t50 -138q0 -28 -57 -156q-89 -198 -202 -448.5t-215 -514.5t-181 -540.5t-115 -548.5q-43 -307 -270 -307
q-55 0 -102 14.5t-115.5 49t-86.5 42.5q-176 77 -176 230q0 66 35.5 187.5t86.5 257.5t121 312.5t97 253.5q-141 -189 -264 -367.5t-209 -315t-161.5 -261t-159.5 -264.5q-32 -60 -64 -89.5t-88 -29.5q-109 0 -176 111q-38 57 -118 127t-114 111.5t-34 105.5q0 81 28 197
q139 448 283 872.5t278.5 772.5t245.5 575q58 114 168 114q79 0 336 -139q57 -31 82 -67.5t25 -116.5q0 -51 -33 -164z" />
    <glyph glyph-name="Egrave" unicode="&#x418;" horiz-adv-x="2503" 
d="M1872 2515q-13 -32 -101.5 -235t-138.5 -334.5t-100 -303.5q88 145 229.5 343.5t320.5 435t372 483.5q57 82 118 82q45 0 75 -21.5t106 -89.5q174 -156 224 -226t50 -138q0 -28 -57 -156q-89 -198 -202 -448.5t-215 -514.5t-181 -540.5t-115 -548.5q-43 -307 -270 -307
q-55 0 -102 14.5t-115.5 49t-86.5 42.5q-176 77 -176 230q0 66 35.5 187.5t86.5 257.5t121 312.5t97 253.5q-141 -189 -264 -367.5t-209 -315t-161.5 -261t-159.5 -264.5q-32 -60 -64 -89.5t-88 -29.5q-109 0 -176 111q-38 57 -118 127t-114 111.5t-34 105.5q0 81 28 197
q139 448 283 872.5t278.5 772.5t245.5 575q58 114 168 114q79 0 336 -139q57 -31 82 -67.5t25 -116.5q0 -51 -33 -164z" />
    <glyph glyph-name="Eacute" unicode="&#xc9;" horiz-adv-x="2503" 
d="M1872 2515q-13 -32 -101.5 -235t-138.5 -334.5t-100 -303.5q88 145 229.5 343.5t320.5 435t372 483.5q57 82 118 82q45 0 75 -21.5t106 -89.5q174 -156 224 -226t50 -138q0 -28 -57 -156q-89 -198 -202 -448.5t-215 -514.5t-181 -540.5t-115 -548.5q-43 -307 -270 -307
q-55 0 -102 14.5t-115.5 49t-86.5 42.5q-176 77 -176 230q0 66 35.5 187.5t86.5 257.5t121 312.5t97 253.5q-141 -189 -264 -367.5t-209 -315t-161.5 -261t-159.5 -264.5q-32 -60 -64 -89.5t-88 -29.5q-109 0 -176 111q-38 57 -118 127t-114 111.5t-34 105.5q0 81 28 197
q139 448 283 872.5t278.5 772.5t245.5 575q58 114 168 114q79 0 336 -139q57 -31 82 -67.5t25 -116.5q0 -51 -33 -164zM2789 3502q0 -22 30 -91.5t32 -129.5q0 -48 -64 -85.5t-116 -37.5q-86 0 -123 12q-48 17 -119 17q-52 0 -136.5 -8.5t-129.5 -8.5q-110 0 -197 33
q-62 26 -87 86.5t-44 249.5q0 93 156 156q81 36 303 36h90q81 0 282 -65q55 -21 89 -67t34 -97z" />
    <glyph glyph-name="Eacute" unicode="&#x419;" horiz-adv-x="2503" 
d="M1872 2515q-13 -32 -101.5 -235t-138.5 -334.5t-100 -303.5q88 145 229.5 343.5t320.5 435t372 483.5q57 82 118 82q45 0 75 -21.5t106 -89.5q174 -156 224 -226t50 -138q0 -28 -57 -156q-89 -198 -202 -448.5t-215 -514.5t-181 -540.5t-115 -548.5q-43 -307 -270 -307
q-55 0 -102 14.5t-115.5 49t-86.5 42.5q-176 77 -176 230q0 66 35.5 187.5t86.5 257.5t121 312.5t97 253.5q-141 -189 -264 -367.5t-209 -315t-161.5 -261t-159.5 -264.5q-32 -60 -64 -89.5t-88 -29.5q-109 0 -176 111q-38 57 -118 127t-114 111.5t-34 105.5q0 81 28 197
q139 448 283 872.5t278.5 772.5t245.5 575q58 114 168 114q79 0 336 -139q57 -31 82 -67.5t25 -116.5q0 -51 -33 -164zM2789 3502q0 -22 30 -91.5t32 -129.5q0 -48 -64 -85.5t-116 -37.5q-86 0 -123 12q-48 17 -119 17q-52 0 -136.5 -8.5t-129.5 -8.5q-110 0 -197 33
q-62 26 -87 86.5t-44 249.5q0 93 156 156q81 36 303 36h90q81 0 282 -65q55 -21 89 -67t34 -97z" />
    <glyph glyph-name="Ecircumflex" unicode="&#xca;" horiz-adv-x="2724" 
d="M2662 2998q54 0 119.5 -44t93.5 -95q127 -230 127 -393q0 -35 -6 -59.5t-25 -61.5t-22 -43q-60 -120 -196 -323t-297.5 -379t-288.5 -216q0 -466 53 -703.5t139 -385.5q54 -79 54 -164q0 -60 -47 -104t-142 -47q-107 0 -246 -74q-22 -12 -53 -30.5t-48 -23t-54 -4.5
q-55 0 -127.5 34t-118.5 85q-96 111 -134.5 362t-41.5 650q-34 -80 -103.5 -269.5t-119.5 -327t-76 -194.5q-97 -208 -172 -208q-36 0 -79.5 23.5t-51.5 25.5q-26 8 -102.5 14.5t-155.5 54.5q-37 21 -78.5 86t-69.5 95q-45 45 -45 180q0 39 11 70t26.5 61.5t32.5 64.5
q75 182 182 442t253.5 625t265.5 683.5t163 478.5q34 110 172 110q60 0 211 -63t223 -109q115 -69 115 -192q0 -43 -25 -99q-36 -102 -119.5 -317t-117.5 -289q165 140 369 415.5t368 547.5q65 110 184 110z" />
    <glyph glyph-name="Ecircumflex" unicode="&#x41a;" horiz-adv-x="2724" 
d="M2662 2998q54 0 119.5 -44t93.5 -95q127 -230 127 -393q0 -35 -6 -59.5t-25 -61.5t-22 -43q-60 -120 -196 -323t-297.5 -379t-288.5 -216q0 -466 53 -703.5t139 -385.5q54 -79 54 -164q0 -60 -47 -104t-142 -47q-107 0 -246 -74q-22 -12 -53 -30.5t-48 -23t-54 -4.5
q-55 0 -127.5 34t-118.5 85q-96 111 -134.5 362t-41.5 650q-34 -80 -103.5 -269.5t-119.5 -327t-76 -194.5q-97 -208 -172 -208q-36 0 -79.5 23.5t-51.5 25.5q-26 8 -102.5 14.5t-155.5 54.5q-37 21 -78.5 86t-69.5 95q-45 45 -45 180q0 39 11 70t26.5 61.5t32.5 64.5
q75 182 182 442t253.5 625t265.5 683.5t163 478.5q34 110 172 110q60 0 211 -63t223 -109q115 -69 115 -192q0 -43 -25 -99q-36 -102 -119.5 -317t-117.5 -289q165 140 369 415.5t368 547.5q65 110 184 110z" />
    <glyph glyph-name="Edieresis" unicode="&#xcb;" horiz-adv-x="2384" 
d="M2339 2490q119 -111 119 -254q0 -197 -36 -461.5t-97 -590t-109.5 -584t-69.5 -416.5q-10 -75 -99 -139.5t-232 -64.5q-124 0 -205 65q-43 28 -100.5 52.5t-79.5 49.5q-46 52 -46 164q0 117 96 498t257 960q-165 -258 -320.5 -563.5t-267 -583.5t-174.5 -516
q-33 -106 -127 -106q-129 0 -209 33q-104 44 -160 164q-31 67 -95.5 157.5t-64.5 169.5q0 75 33 168q96 251 259.5 543.5t364.5 589t427.5 583t439.5 517.5q68 73 164 73q69 0 127.5 -33t183.5 -135q111 -90 111 -176q0 -55 -90 -164z" />
    <glyph glyph-name="Edieresis" unicode="&#x41b;" horiz-adv-x="2384" 
d="M2339 2490q119 -111 119 -254q0 -197 -36 -461.5t-97 -590t-109.5 -584t-69.5 -416.5q-10 -75 -99 -139.5t-232 -64.5q-124 0 -205 65q-43 28 -100.5 52.5t-79.5 49.5q-46 52 -46 164q0 117 96 498t257 960q-165 -258 -320.5 -563.5t-267 -583.5t-174.5 -516
q-33 -106 -127 -106q-129 0 -209 33q-104 44 -160 164q-31 67 -95.5 157.5t-64.5 169.5q0 75 33 168q96 251 259.5 543.5t364.5 589t427.5 583t439.5 517.5q68 73 164 73q69 0 127.5 -33t183.5 -135q111 -90 111 -176q0 -55 -90 -164z" />
    <glyph glyph-name="Igrave" unicode="&#xcc;" horiz-adv-x="3527" 
d="M3072 57q0 -27 -23 -63t-59 -55q-148 -82 -242 -82q-41 0 -95 28t-151 95t-106 73q-123 69 -123 230q0 65 57 388t99 492q-104 -186 -260.5 -543.5t-202.5 -504.5q-7 -33 -34.5 -61.5t-67.5 -28.5q-62 0 -107 21t-125 78.5t-141 96.5q-127 85 -127 275q0 52 51 422
t64 561q-68 -163 -141 -430.5t-164.5 -601t-157.5 -508.5q-9 -27 -49 -59t-90 -32q-25 0 -83 29t-114 29q-140 0 -242 86q-45 43 -92 135.5t-47 179.5q0 51 28 159t29 112q225 570 358.5 891.5t297.5 663.5t360 681q115 143 242 143q32 0 71.5 -15.5t82 -42t47.5 -28.5
q183 -90 192 -98q26 -21 63.5 -54t59.5 -91.5t36.5 -189t20.5 -361.5q36 41 236 316.5t350 441.5t242 167q157 0 413 -336q62 -81 62 -204q0 -95 -62 -271q-66 -255 -124.5 -510.5t-107 -528t-80 -545.5t-44.5 -550z" />
    <glyph glyph-name="Igrave" unicode="&#x41c;" horiz-adv-x="3527" 
d="M3072 57q0 -27 -23 -63t-59 -55q-148 -82 -242 -82q-41 0 -95 28t-151 95t-106 73q-123 69 -123 230q0 65 57 388t99 492q-104 -186 -260.5 -543.5t-202.5 -504.5q-7 -33 -34.5 -61.5t-67.5 -28.5q-62 0 -107 21t-125 78.5t-141 96.5q-127 85 -127 275q0 52 51 422
t64 561q-68 -163 -141 -430.5t-164.5 -601t-157.5 -508.5q-9 -27 -49 -59t-90 -32q-25 0 -83 29t-114 29q-140 0 -242 86q-45 43 -92 135.5t-47 179.5q0 51 28 159t29 112q225 570 358.5 891.5t297.5 663.5t360 681q115 143 242 143q32 0 71.5 -15.5t82 -42t47.5 -28.5
q183 -90 192 -98q26 -21 63.5 -54t59.5 -91.5t36.5 -189t20.5 -361.5q36 41 236 316.5t350 441.5t242 167q157 0 413 -336q62 -81 62 -204q0 -95 -62 -271q-66 -255 -124.5 -510.5t-107 -528t-80 -545.5t-44.5 -550z" />
    <glyph glyph-name="Iacute" unicode="&#xcd;" horiz-adv-x="2589" 
d="M2376 672q-24 -90 -51 -260t-52.5 -272.5t-78 -172t-142.5 -69.5q-56 0 -88 15.5t-117 70.5q-42 29 -148.5 79.5t-151 94.5t-44.5 125q0 66 43.5 225.5t110.5 380t67 229.5q0 17 -32 17q-25 0 -45 -13q-8 -5 -94 -19.5t-111 -53.5q-18 -70 -68 -257.5t-100 -362.5
t-110 -332.5t-95 -157.5q-51 0 -134 27t-180 66t-108 42q-36 10 -110 156t-74 237q0 92 262 786q12 37 12 74q0 40 -18.5 128t-18.5 155q0 57 25.5 71.5t108.5 42.5t100 66q64 164 135.5 330.5t147.5 337.5t172 389q31 69 73 112t131 43q78 0 267 -159q213 -175 213 -271
q0 -73 -50 -151q-189 -368 -237 -484q0 -3 -6 -17t-6 -24q0 -32 41 -32q116 0 169.5 19t79.5 75q48 97 128.5 261t180 371t134.5 285q0 17 35.5 62t87.5 45q47 0 150.5 -86t139.5 -143q8 -14 25 -72t33 -92q65 -122 65 -226q0 -117 -65 -200q-214 -440 -355 -770.5
t-247 -720.5z" />
    <glyph glyph-name="Iacute" unicode="&#x41d;" horiz-adv-x="2589" 
d="M2376 672q-24 -90 -51 -260t-52.5 -272.5t-78 -172t-142.5 -69.5q-56 0 -88 15.5t-117 70.5q-42 29 -148.5 79.5t-151 94.5t-44.5 125q0 66 43.5 225.5t110.5 380t67 229.5q0 17 -32 17q-25 0 -45 -13q-8 -5 -94 -19.5t-111 -53.5q-18 -70 -68 -257.5t-100 -362.5
t-110 -332.5t-95 -157.5q-51 0 -134 27t-180 66t-108 42q-36 10 -110 156t-74 237q0 92 262 786q12 37 12 74q0 40 -18.5 128t-18.5 155q0 57 25.5 71.5t108.5 42.5t100 66q64 164 135.5 330.5t147.5 337.5t172 389q31 69 73 112t131 43q78 0 267 -159q213 -175 213 -271
q0 -73 -50 -151q-189 -368 -237 -484q0 -3 -6 -17t-6 -24q0 -32 41 -32q116 0 169.5 19t79.5 75q48 97 128.5 261t180 371t134.5 285q0 17 35.5 62t87.5 45q47 0 150.5 -86t139.5 -143q8 -14 25 -72t33 -92q65 -122 65 -226q0 -117 -65 -200q-214 -440 -355 -770.5
t-247 -720.5z" />
    <glyph glyph-name="Icircumflex" unicode="&#xce;" horiz-adv-x="2437" 
d="M2220 2716q132 77 246 77q31 0 98 -87t121.5 -275t54.5 -473q0 -168 -28 -369q-64 -268 -171 -510t-259.5 -451t-347.5 -368t-431 -252q-121 -49 -196 -49q-83 0 -181 49q-157 83 -306 232.5t-202 271.5q-57 123 -57 274q0 132 37 308q94 482 271.5 828t352.5 540.5
t429 425.5q38 33 109.5 73.5t123.5 40.5q54 0 112.5 -47t223.5 -239zM1372 766q126 129 263.5 334t236.5 407.5t115 323.5q16 82 16 151q0 85 -33 111q-16 8 -24 8q-50 0 -107 -94q-409 -654 -532 -1163q-9 -33 -9 -78q0 -37 17 -37q21 0 57 37z" />
    <glyph glyph-name="Icircumflex" unicode="&#x41e;" horiz-adv-x="2437" 
d="M2220 2716q132 77 246 77q31 0 98 -87t121.5 -275t54.5 -473q0 -168 -28 -369q-64 -268 -171 -510t-259.5 -451t-347.5 -368t-431 -252q-121 -49 -196 -49q-83 0 -181 49q-157 83 -306 232.5t-202 271.5q-57 123 -57 274q0 132 37 308q94 482 271.5 828t352.5 540.5
t429 425.5q38 33 109.5 73.5t123.5 40.5q54 0 112.5 -47t223.5 -239zM1372 766q126 129 263.5 334t236.5 407.5t115 323.5q16 82 16 151q0 85 -33 111q-16 8 -24 8q-50 0 -107 -94q-409 -654 -532 -1163q-9 -33 -9 -78q0 -37 17 -37q21 0 57 37z" />
    <glyph glyph-name="Idieresis" unicode="&#xcf;" horiz-adv-x="2654" 
d="M2363 283q-19 -143 -79 -231.5t-154 -88.5q-90 0 -488 234q-73 43 -73 155q0 29 45 205q187 684 643 1745q-17 0 -65 4t-74 4q-54 0 -90 -12q-136 -250 -228 -448t-173.5 -425t-170 -530t-207.5 -760q-17 -62 -45 -90.5t-90 -28.5t-224 56t-198 84q-45 46 -94 162.5
t-49 213.5q0 96 33 181q123 343 230 628t212.5 550t212.5 517q-33 120 -33 332q0 98 40.5 138t111.5 59q158 49 688 49q279 0 526 -15.5t350 -45.5q54 -14 72 -46.5t33.5 -109.5t34.5 -123q43 -94 54 -121t11 -92q0 -49 -6 -80t-14.5 -52t-21 -42t-23.5 -39
q-606 -1188 -697 -1937z" />
    <glyph glyph-name="Idieresis" unicode="&#x41f;" horiz-adv-x="2654" 
d="M2363 283q-19 -143 -79 -231.5t-154 -88.5q-90 0 -488 234q-73 43 -73 155q0 29 45 205q187 684 643 1745q-17 0 -65 4t-74 4q-54 0 -90 -12q-136 -250 -228 -448t-173.5 -425t-170 -530t-207.5 -760q-17 -62 -45 -90.5t-90 -28.5t-224 56t-198 84q-45 46 -94 162.5
t-49 213.5q0 96 33 181q123 343 230 628t212.5 550t212.5 517q-33 120 -33 332q0 98 40.5 138t111.5 59q158 49 688 49q279 0 526 -15.5t350 -45.5q54 -14 72 -46.5t33.5 -109.5t34.5 -123q43 -94 54 -121t11 -92q0 -49 -6 -80t-14.5 -52t-21 -42t-23.5 -39
q-606 -1188 -697 -1937z" />
    <glyph glyph-name="Eth" unicode="&#xd0;" horiz-adv-x="2380" 
d="M2871 2093q0 -257 -254 -618q-62 -92 -237 -263.5t-344.5 -302.5t-229.5 -131q-105 0 -195.5 128t-123.5 220q-99 -185 -222.5 -552.5t-179.5 -499.5q-36 -66 -53 -86.5t-57 -20.5q-35 0 -49.5 3.5t-28 12.5l-37.5 25q-34 25 -65.5 67.5t-77.5 76.5q-43 31 -101.5 56
t-103.5 58q-74 50 -74 168q0 78 17 119q4 9 129.5 321.5t232.5 563t229 499.5t216 373q-29 48 -68 152t-39 159q0 26 31.5 78.5t87.5 81.5q129 68 316 116t384 48q453 0 697 -315q114 -151 157 -262.5t43 -274.5zM2167 2056q24 49 24 78q0 43 -49 61q-16 9 -57 9
q-90 0 -139 -37q-54 -67 -234 -508q138 24 276.5 171t178.5 226z" />
    <glyph glyph-name="Eth" unicode="&#x420;" horiz-adv-x="2380" 
d="M2871 2093q0 -257 -254 -618q-62 -92 -237 -263.5t-344.5 -302.5t-229.5 -131q-105 0 -195.5 128t-123.5 220q-99 -185 -222.5 -552.5t-179.5 -499.5q-36 -66 -53 -86.5t-57 -20.5q-35 0 -49.5 3.5t-28 12.5l-37.5 25q-34 25 -65.5 67.5t-77.5 76.5q-43 31 -101.5 56
t-103.5 58q-74 50 -74 168q0 78 17 119q4 9 129.5 321.5t232.5 563t229 499.5t216 373q-29 48 -68 152t-39 159q0 26 31.5 78.5t87.5 81.5q129 68 316 116t384 48q453 0 697 -315q114 -151 157 -262.5t43 -274.5zM2167 2056q24 49 24 78q0 43 -49 61q-16 9 -57 9
q-90 0 -139 -37q-54 -67 -234 -508q138 24 276.5 171t178.5 226z" />
    <glyph glyph-name="Ntilde" unicode="&#xd1;" horiz-adv-x="2376" 
d="M2097 2298q-49 0 -82 -33q-213 -243 -358 -522t-213 -500.5t-68 -304.5q0 -188 119 -188q75 0 184.5 48t175.5 95q100 78 197 78q95 0 127 -82q3 -6 29 -46.5t39.5 -84t13.5 -103.5q0 -91 -60.5 -213t-107.5 -155q-114 -79 -286 -168.5t-205 -110.5q-113 -69 -291 -69
q-154 0 -274.5 83.5t-331.5 296.5q-148 158 -148 431q0 222 53.5 468t148.5 482.5t225 448.5t278 366q215 223 484 355t400 132q179 0 443 -176q66 -42 139.5 -131t73.5 -221q0 -149 -49.5 -331t-90.5 -226q-48 -52 -210.5 -108t-235.5 -56q-67 0 -152.5 69.5t-85.5 159.5
q0 36 50 148q46 78 69 168z" />
    <glyph glyph-name="Ntilde" unicode="&#x421;" horiz-adv-x="2376" 
d="M2097 2298q-49 0 -82 -33q-213 -243 -358 -522t-213 -500.5t-68 -304.5q0 -188 119 -188q75 0 184.5 48t175.5 95q100 78 197 78q95 0 127 -82q3 -6 29 -46.5t39.5 -84t13.5 -103.5q0 -91 -60.5 -213t-107.5 -155q-114 -79 -286 -168.5t-205 -110.5q-113 -69 -291 -69
q-154 0 -274.5 83.5t-331.5 296.5q-148 158 -148 431q0 222 53.5 468t148.5 482.5t225 448.5t278 366q215 223 484 355t400 132q179 0 443 -176q66 -42 139.5 -131t73.5 -221q0 -149 -49.5 -331t-90.5 -226q-48 -52 -210.5 -108t-235.5 -56q-67 0 -152.5 69.5t-85.5 159.5
q0 36 50 148q46 78 69 168z" />
    <glyph glyph-name="Ograve" unicode="&#xd2;" horiz-adv-x="2114" 
d="M1622 61q-24 -98 -119 -98q-71 0 -180 70q-170 119 -228.5 204.5t-58.5 229.5q0 19 33 176q69 259 123 410.5t125.5 316.5t143.5 351t157 458q-60 -2 -160.5 -29.5t-134.5 -27.5q-61 0 -61 57q-6 71 -40 252.5t-34 243.5q0 81 94 123q40 18 237.5 51t439.5 58.5t400 25.5
q69 0 120 -21t118.5 -88.5t175.5 -214.5q49 -76 49 -143q0 -56 -57 -131q-71 -90 -172 -90q-20 0 -74 4t-86 4q-80 0 -152 -21q0 -60 8.5 -91.5t8.5 -59.5q0 -69 -29 -127q-494 -1275 -647 -1893z" />
    <glyph glyph-name="Ograve" unicode="&#x422;" horiz-adv-x="2114" 
d="M1622 61q-24 -98 -119 -98q-71 0 -180 70q-170 119 -228.5 204.5t-58.5 229.5q0 19 33 176q69 259 123 410.5t125.5 316.5t143.5 351t157 458q-60 -2 -160.5 -29.5t-134.5 -27.5q-61 0 -61 57q-6 71 -40 252.5t-34 243.5q0 81 94 123q40 18 237.5 51t439.5 58.5t400 25.5
q69 0 120 -21t118.5 -88.5t175.5 -214.5q49 -76 49 -143q0 -56 -57 -131q-71 -90 -172 -90q-20 0 -74 4t-86 4q-80 0 -152 -21q0 -60 8.5 -91.5t8.5 -59.5q0 -69 -29 -127q-494 -1275 -647 -1893z" />
    <glyph glyph-name="Oacute" unicode="&#xd3;" horiz-adv-x="2327" 
d="M2920 2224q-64 -159 -227 -436t-382.5 -595.5t-484.5 -646.5t-532 -591q-36 -29 -106 -29q-51 2 -93 27t-51 27t-48 6.5t-81.5 17t-95.5 41.5q-45 28 -100 132t-55 175q0 69 20.5 101t73.5 67q510 408 647 623q-29 17 -71 41t-93 69q-59 49 -85 169t-26 380q0 399 26 617
t65 399q15 112 86 148q61 36 213 36q81 0 176 -49q115 -62 233 -180q49 -47 49 -115q0 -48 -12 -86q-139 -319 -139 -594q0 -89 49 -159q436 689 586 1089q6 23 49.5 52.5t81.5 29.5q47 0 86 -24q50 -26 135 -100t135 -138q57 -75 57 -172q0 -111 -86 -332z" />
    <glyph glyph-name="Oacute" unicode="&#x423;" horiz-adv-x="2327" 
d="M2920 2224q-64 -159 -227 -436t-382.5 -595.5t-484.5 -646.5t-532 -591q-36 -29 -106 -29q-51 2 -93 27t-51 27t-48 6.5t-81.5 17t-95.5 41.5q-45 28 -100 132t-55 175q0 69 20.5 101t73.5 67q510 408 647 623q-29 17 -71 41t-93 69q-59 49 -85 169t-26 380q0 399 26 617
t65 399q15 112 86 148q61 36 213 36q81 0 176 -49q115 -62 233 -180q49 -47 49 -115q0 -48 -12 -86q-139 -319 -139 -594q0 -89 49 -159q436 689 586 1089q6 23 49.5 52.5t81.5 29.5q47 0 86 -24q50 -26 135 -100t135 -138q57 -75 57 -172q0 -111 -86 -332z" />
    <glyph glyph-name="Ocircumflex" unicode="&#xd4;" horiz-adv-x="3461" 
d="M2617 348q-61 0 -110.5 47.5t-113 136t-95.5 119.5q-46 -86 -250 -712q-25 -66 -61 -86.5t-107 -20.5q-67 0 -107 16.5t-72 44.5t-67 58q-45 39 -67 53.5t-80 24.5q-75 15 -103 61t-28 156q0 64 12.5 116.5t34.5 109.5t55 142q-87 -75 -237 -144t-226 -69
q-108 0 -258 168q-109 161 -134 224t-25 206q0 242 143 525t371 527.5t491 397t490 152.5q36 0 68 -30.5t62 -74.5t38 -51q45 92 76.5 161t74 168.5t57.5 133.5q42 90 140 90q57 0 114.5 -24.5t253.5 -122.5q103 -51 103 -144q0 -24 -11.5 -54t-25 -58.5t-25.5 -54.5
q114 -4 280.5 -102t293.5 -300.5t127 -495.5q0 -158 -125 -375.5t-313.5 -430.5t-368 -350.5t-275.5 -137.5zM2519 1229q106 47 223 143t195 205.5t78 196.5q0 101 -119 155q-96 0 -107 -28q-28 -66 -86 -198t-106.5 -255.5t-77.5 -218.5zM1720 1323q220 429 262 557
q-96 -10 -236.5 -119t-244.5 -247.5t-104 -227.5q0 -73 82 -90q142 0 241 127z" />
    <glyph glyph-name="Ocircumflex" unicode="&#x424;" horiz-adv-x="3461" 
d="M2617 348q-61 0 -110.5 47.5t-113 136t-95.5 119.5q-46 -86 -250 -712q-25 -66 -61 -86.5t-107 -20.5q-67 0 -107 16.5t-72 44.5t-67 58q-45 39 -67 53.5t-80 24.5q-75 15 -103 61t-28 156q0 64 12.5 116.5t34.5 109.5t55 142q-87 -75 -237 -144t-226 -69
q-108 0 -258 168q-109 161 -134 224t-25 206q0 242 143 525t371 527.5t491 397t490 152.5q36 0 68 -30.5t62 -74.5t38 -51q45 92 76.5 161t74 168.5t57.5 133.5q42 90 140 90q57 0 114.5 -24.5t253.5 -122.5q103 -51 103 -144q0 -24 -11.5 -54t-25 -58.5t-25.5 -54.5
q114 -4 280.5 -102t293.5 -300.5t127 -495.5q0 -158 -125 -375.5t-313.5 -430.5t-368 -350.5t-275.5 -137.5zM2519 1229q106 47 223 143t195 205.5t78 196.5q0 101 -119 155q-96 0 -107 -28q-28 -66 -86 -198t-106.5 -255.5t-77.5 -218.5zM1720 1323q220 429 262 557
q-96 -10 -236.5 -119t-244.5 -247.5t-104 -227.5q0 -73 82 -90q142 0 241 127z" />
    <glyph glyph-name="Otilde" unicode="&#xd5;" horiz-adv-x="2470" 
d="M2171 1569q94 -581 94 -1168q0 -164 -41 -184q-90 -55 -192 -143q-17 -14 -58.5 -55.5t-72 -60.5t-70.5 -19q-31 0 -111.5 23.5t-101.5 37.5q-62 42 -86.5 75.5t-24.5 149.5q0 83 16.5 258t16.5 328q0 98 -4 156q-114 -138 -190.5 -262.5t-178 -311t-168.5 -291.5
q-57 -90 -131 -90q-50 0 -94 49q-24 27 -47 80t-59 88q-31 31 -85 42.5t-91 39.5q-62 48 -62 197q0 112 7 139.5t38 97.5q63 87 142.5 192t189 240t245 292t324.5 362q-128 485 -188 672q-33 116 -33 155q0 69 94 140q96 63 332 159q115 41 164 41q78 0 102 -98
q103 -313 152 -504q90 99 174 177.5t215 195t180 164.5q46 53 115 53q53 0 92 -49.5t109 -200.5q82 -178 82 -295q0 -87 -42 -139.5t-263.5 -255.5t-489.5 -477z" />
    <glyph glyph-name="Otilde" unicode="&#x425;" horiz-adv-x="2470" 
d="M2171 1569q94 -581 94 -1168q0 -164 -41 -184q-90 -55 -192 -143q-17 -14 -58.5 -55.5t-72 -60.5t-70.5 -19q-31 0 -111.5 23.5t-101.5 37.5q-62 42 -86.5 75.5t-24.5 149.5q0 83 16.5 258t16.5 328q0 98 -4 156q-114 -138 -190.5 -262.5t-178 -311t-168.5 -291.5
q-57 -90 -131 -90q-50 0 -94 49q-24 27 -47 80t-59 88q-31 31 -85 42.5t-91 39.5q-62 48 -62 197q0 112 7 139.5t38 97.5q63 87 142.5 192t189 240t245 292t324.5 362q-128 485 -188 672q-33 116 -33 155q0 69 94 140q96 63 332 159q115 41 164 41q78 0 102 -98
q103 -313 152 -504q90 99 174 177.5t215 195t180 164.5q46 53 115 53q53 0 92 -49.5t109 -200.5q82 -178 82 -295q0 -87 -42 -139.5t-263.5 -255.5t-489.5 -477z" />
    <glyph glyph-name="Odieresis" unicode="&#xd6;" horiz-adv-x="2810" 
d="M1606 684q116 375 204.5 642t190 541.5t206.5 514.5t222 461q74 136 217 147q63 0 143.5 -62t266.5 -257q36 -43 36 -103q0 -44 -24 -94q-170 -304 -297.5 -648.5t-370.5 -1063.5q-12 -31 -12 -62q0 -40 29 -57q72 -46 122 -96.5t50 -132.5q0 -143 -123 -353
q-180 -278 -303 -278q-116 0 -135 111q-10 48 -62.5 97.5t-122.5 49.5t-266 -27.5t-272.5 -37t-194.5 -9.5q-227 0 -352 32t-202 167t-77 428q0 126 37 242q96 293 194 558.5t201 518.5t208.5 489.5t215.5 456.5q34 69 87.5 106t109.5 37q84 0 143.5 -22t245.5 -121
q86 -48 86 -172q0 -45 -7 -74.5t-27 -69.5t-31 -65q-90 -185 -193.5 -420.5t-201 -487t-168 -485.5t-93.5 -405q67 -12 148 -12q100 0 172 16z" />
    <glyph glyph-name="Odieresis" unicode="&#x426;" horiz-adv-x="2810" 
d="M1606 684q116 375 204.5 642t190 541.5t206.5 514.5t222 461q74 136 217 147q63 0 143.5 -62t266.5 -257q36 -43 36 -103q0 -44 -24 -94q-170 -304 -297.5 -648.5t-370.5 -1063.5q-12 -31 -12 -62q0 -40 29 -57q72 -46 122 -96.5t50 -132.5q0 -143 -123 -353
q-180 -278 -303 -278q-116 0 -135 111q-10 48 -62.5 97.5t-122.5 49.5t-266 -27.5t-272.5 -37t-194.5 -9.5q-227 0 -352 32t-202 167t-77 428q0 126 37 242q96 293 194 558.5t201 518.5t208.5 489.5t215.5 456.5q34 69 87.5 106t109.5 37q84 0 143.5 -22t245.5 -121
q86 -48 86 -172q0 -45 -7 -74.5t-27 -69.5t-31 -65q-90 -185 -193.5 -420.5t-201 -487t-168 -485.5t-93.5 -405q67 -12 148 -12q100 0 172 16z" />
    <glyph glyph-name="multiply" unicode="&#xd7;" horiz-adv-x="2445" 
d="M1749 1827q116 0 288 316.5t314 670.5q22 48 76.5 77t116.5 29q132 0 331 -290q70 -113 70 -209q0 -88 -53 -168q-198 -361 -322 -626.5t-227.5 -560t-257.5 -808.5q-19 -61 -21.5 -161t-30 -137.5t-132.5 -37.5q-88 0 -147 19t-112 88q-27 37 -99 74.5t-85 48.5
q-94 72 -94 188q0 57 104.5 364.5t186.5 503.5q-33 -14 -104 -54.5t-123 -58.5t-121 -18q-63 0 -163 76.5t-175.5 219t-75.5 331.5q0 169 81.5 429.5t200 492t214.5 315.5q71 57 151 57q70 0 134.5 -29t226.5 -155q34 -23 64 -65t30 -83q0 -64 -29 -110
q-64 -78 -179.5 -314.5t-115.5 -312.5q0 -60 13.5 -81t64.5 -21z" />
    <glyph glyph-name="multiply" unicode="&#x427;" horiz-adv-x="2445" 
d="M1749 1827q116 0 288 316.5t314 670.5q22 48 76.5 77t116.5 29q132 0 331 -290q70 -113 70 -209q0 -88 -53 -168q-198 -361 -322 -626.5t-227.5 -560t-257.5 -808.5q-19 -61 -21.5 -161t-30 -137.5t-132.5 -37.5q-88 0 -147 19t-112 88q-27 37 -99 74.5t-85 48.5
q-94 72 -94 188q0 57 104.5 364.5t186.5 503.5q-33 -14 -104 -54.5t-123 -58.5t-121 -18q-63 0 -163 76.5t-175.5 219t-75.5 331.5q0 169 81.5 429.5t200 492t214.5 315.5q71 57 151 57q70 0 134.5 -29t226.5 -155q34 -23 64 -65t30 -83q0 -64 -29 -110
q-64 -78 -179.5 -314.5t-115.5 -312.5q0 -60 13.5 -81t64.5 -21z" />
    <glyph glyph-name="Oslash" unicode="&#xd8;" horiz-adv-x="3457" 
d="M2200 672q64 -8 86 -8q136 0 208 155q218 470 327 707.5t248 553.5t286 673q47 135 147 135q78 0 135 -37t197 -160q143 -121 143 -262q0 -106 -49 -225q-443 -1058 -836 -1872q-31 -61 -95 -145t-154 -130q-86 -44 -341.5 -79t-781.5 -35q-793 0 -913 90
q-145 107 -242.5 284t-97.5 273q0 131 41 246q95 283 202 549.5t221 514.5t240 503t234 472q9 20 22.5 47t46 51.5t82.5 24.5q61 0 109 -27t186 -141q189 -152 189 -225q0 -81 -29 -127q-148 -267 -265.5 -508t-202 -436.5t-245.5 -575.5q-32 -71 -32 -131q0 -94 102 -94
q51 0 98 17q105 302 262 678.5t339 774t325 685.5q17 32 57.5 63t69.5 31q65 0 99 -24.5t229 -180.5q100 -76 136 -123.5t36 -113.5q0 -57 -58 -160q-137 -264 -293.5 -597t-280 -625t-187.5 -486z" />
    <glyph glyph-name="Oslash" unicode="&#x428;" horiz-adv-x="3457" 
d="M2200 672q64 -8 86 -8q136 0 208 155q218 470 327 707.5t248 553.5t286 673q47 135 147 135q78 0 135 -37t197 -160q143 -121 143 -262q0 -106 -49 -225q-443 -1058 -836 -1872q-31 -61 -95 -145t-154 -130q-86 -44 -341.5 -79t-781.5 -35q-793 0 -913 90
q-145 107 -242.5 284t-97.5 273q0 131 41 246q95 283 202 549.5t221 514.5t240 503t234 472q9 20 22.5 47t46 51.5t82.5 24.5q61 0 109 -27t186 -141q189 -152 189 -225q0 -81 -29 -127q-148 -267 -265.5 -508t-202 -436.5t-245.5 -575.5q-32 -71 -32 -131q0 -94 102 -94
q51 0 98 17q105 302 262 678.5t339 774t325 685.5q17 32 57.5 63t69.5 31q65 0 99 -24.5t229 -180.5q100 -76 136 -123.5t36 -113.5q0 -57 -58 -160q-137 -264 -293.5 -597t-280 -625t-187.5 -486z" />
    <glyph glyph-name="Ugrave" unicode="&#xd9;" horiz-adv-x="3936" 
d="M2318 725q156 6 223.5 51.5t116.5 165.5q575 1426 746 1856q29 73 58.5 97.5t84.5 24.5q71 0 102 -15.5t89 -77t116 -111.5q160 -135 160 -287q0 -37 -8 -75t-21 -80.5t-16 -53.5q-224 -658 -565 -1327q-33 -59 -33 -98q0 -18 9.5 -35.5t27.5 -39.5t45 -52
q60 -76 116 -190t56 -195q0 -75 -69.5 -193t-151.5 -188q-75 -57 -183.5 -110.5t-168.5 -53.5q-65 0 -92 23.5t-27 91.5q0 24 8 58t8 52q0 59 -38.5 85t-145.5 26q-76 0 -352.5 -33t-581 -55.5t-758.5 -22.5q-169 0 -262 49q-160 78 -280.5 209t-120.5 283q0 161 65 315
q355 855 511.5 1214t377.5 781q99 188 278 188q37 -2 120.5 -67t109.5 -80q66 -35 123 -103.5t57 -142.5q0 -41 -49 -188q-50 -111 -179.5 -385t-194.5 -417.5t-147 -351.5t-167 -460q-21 -65 -21 -82q0 -27 36 -34t149 -7q74 180 206 511t239 598t213.5 518t234.5 532
q55 139 168 139q49 0 82 -21.5t96 -77t104 -73.5q105 -45 165 -97t60 -141q0 -110 -41 -184q-284 -528 -688 -1663z" />
    <glyph glyph-name="Ugrave" unicode="&#x429;" horiz-adv-x="3936" 
d="M2318 725q156 6 223.5 51.5t116.5 165.5q575 1426 746 1856q29 73 58.5 97.5t84.5 24.5q71 0 102 -15.5t89 -77t116 -111.5q160 -135 160 -287q0 -37 -8 -75t-21 -80.5t-16 -53.5q-224 -658 -565 -1327q-33 -59 -33 -98q0 -18 9.5 -35.5t27.5 -39.5t45 -52
q60 -76 116 -190t56 -195q0 -75 -69.5 -193t-151.5 -188q-75 -57 -183.5 -110.5t-168.5 -53.5q-65 0 -92 23.5t-27 91.5q0 24 8 58t8 52q0 59 -38.5 85t-145.5 26q-76 0 -352.5 -33t-581 -55.5t-758.5 -22.5q-169 0 -262 49q-160 78 -280.5 209t-120.5 283q0 161 65 315
q355 855 511.5 1214t377.5 781q99 188 278 188q37 -2 120.5 -67t109.5 -80q66 -35 123 -103.5t57 -142.5q0 -41 -49 -188q-50 -111 -179.5 -385t-194.5 -417.5t-147 -351.5t-167 -460q-21 -65 -21 -82q0 -27 36 -34t149 -7q74 180 206 511t239 598t213.5 518t234.5 532
q55 139 168 139q49 0 82 -21.5t96 -77t104 -73.5q105 -45 165 -97t60 -141q0 -110 -41 -184q-284 -528 -688 -1663z" />
    <glyph glyph-name="Uacute" unicode="&#xda;" horiz-adv-x="2867" 
d="M2179 1913q35 19 81.5 44t102.5 41.5t119 16.5q120 0 231 -91t179.5 -250.5t68.5 -350.5q0 -174 -96.5 -383t-267 -413.5t-390 -368.5t-458.5 -252q-86 -29 -283 -29q-281 0 -402.5 235t-121.5 564q0 225 153.5 635t362.5 721q74 117 74 147q0 29 -37 29
q-30 0 -62.5 -24.5t-72.5 -24.5q-42 0 -65 14t-46 68q-15 32 -48.5 104t-58 147t-24.5 138q0 52 36.5 104t90.5 80q352 184 701 184q172 0 237 -82q131 -168 170 -263t39 -187q0 -94 -36.5 -188.5t-99.5 -211t-77 -153.5zM1778 729q68 0 183 118.5t205.5 269t90.5 222.5
q0 58 -111 58q-41 0 -73 37q-44 55 -66 110q-105 -175 -204 -411t-99 -310q0 -94 74 -94z" />
    <glyph glyph-name="Uacute" unicode="&#x42a;" horiz-adv-x="2867" 
d="M2179 1913q35 19 81.5 44t102.5 41.5t119 16.5q120 0 231 -91t179.5 -250.5t68.5 -350.5q0 -174 -96.5 -383t-267 -413.5t-390 -368.5t-458.5 -252q-86 -29 -283 -29q-281 0 -402.5 235t-121.5 564q0 225 153.5 635t362.5 721q74 117 74 147q0 29 -37 29
q-30 0 -62.5 -24.5t-72.5 -24.5q-42 0 -65 14t-46 68q-15 32 -48.5 104t-58 147t-24.5 138q0 52 36.5 104t90.5 80q352 184 701 184q172 0 237 -82q131 -168 170 -263t39 -187q0 -94 -36.5 -188.5t-99.5 -211t-77 -153.5zM1778 729q68 0 183 118.5t205.5 269t90.5 222.5
q0 58 -111 58q-41 0 -73 37q-44 55 -66 110q-105 -175 -204 -411t-99 -310q0 -94 74 -94z" />
    <glyph glyph-name="Ucircumflex" unicode="&#xdb;" horiz-adv-x="3613" 
d="M1712 1929q251 139 410 139q133 0 251 -137.5t189.5 -332t71.5 -341.5q0 -137 -96 -360.5t-275.5 -442.5t-440.5 -367t-577 -148q-214 0 -405 254q-116 151 -150.5 202t-57 140t-22.5 243q0 215 121 616.5t288 811t300 653.5q34 62 104 129.5t125 67.5q48 0 85 -24
t89.5 -77t71.5 -67q37 -27 99.5 -58t82 -55.5t19.5 -83.5q0 -57 -58 -192q-32 -88 -111 -269t-114 -301zM3273 348q-21 -196 -103 -300.5t-204 -104.5q-124 0 -232.5 67.5t-174 196.5t-65.5 305q0 25 42 139.5t106 323.5q64 197 143.5 445t163 491t154 435.5t166.5 434.5
q66 179 225 185q48 0 75 -13t51.5 -36.5t164.5 -163.5q21 -24 77 -39t81.5 -31t25.5 -66q0 -75 -53 -184q-83 -156 -186 -433.5t-201.5 -601t-166.5 -602t-89 -448.5zM1847 1307q0 94 -69 94q-35 0 -77 -16.5t-54 -16.5q-24 0 -39 19.5t-68 107.5q-133 -257 -188 -524
q0 -209 82 -209q57 0 157.5 96.5t178 227t77.5 221.5z" />
    <glyph glyph-name="Ucircumflex" unicode="&#x42b;" horiz-adv-x="3613" 
d="M1712 1929q251 139 410 139q133 0 251 -137.5t189.5 -332t71.5 -341.5q0 -137 -96 -360.5t-275.5 -442.5t-440.5 -367t-577 -148q-214 0 -405 254q-116 151 -150.5 202t-57 140t-22.5 243q0 215 121 616.5t288 811t300 653.5q34 62 104 129.5t125 67.5q48 0 85 -24
t89.5 -77t71.5 -67q37 -27 99.5 -58t82 -55.5t19.5 -83.5q0 -57 -58 -192q-32 -88 -111 -269t-114 -301zM3273 348q-21 -196 -103 -300.5t-204 -104.5q-124 0 -232.5 67.5t-174 196.5t-65.5 305q0 25 42 139.5t106 323.5q64 197 143.5 445t163 491t154 435.5t166.5 434.5
q66 179 225 185q48 0 75 -13t51.5 -36.5t164.5 -163.5q21 -24 77 -39t81.5 -31t25.5 -66q0 -75 -53 -184q-83 -156 -186 -433.5t-201.5 -601t-166.5 -602t-89 -448.5zM1847 1307q0 94 -69 94q-35 0 -77 -16.5t-54 -16.5q-24 0 -39 19.5t-68 107.5q-133 -257 -188 -524
q0 -209 82 -209q57 0 157.5 96.5t178 227t77.5 221.5z" />
    <glyph glyph-name="Udieresis" unicode="&#xdc;" horiz-adv-x="2482" 
d="M1679 1929q258 139 414 139q135 0 253 -138t188.5 -333t70.5 -340q0 -137 -96 -360.5t-276 -443t-440 -367t-576 -147.5q-214 0 -410 254q-112 146 -146.5 199t-56.5 141t-22 245q0 165 72.5 439t185.5 588t237 602.5t213 451.5q33 61 102 129t124 68q51 0 87 -24t85 -75
t73 -69q35 -26 100 -58t85 -55.5t20 -83.5q0 -17 -57 -192q-32 -88 -111.5 -265.5t-118.5 -304.5zM1819 1307q0 94 -70 94q-34 0 -77 -16.5t-54 -16.5q-24 0 -39 19.5t-68 107.5q-133 -257 -188 -524q0 -209 82 -209q56 0 156.5 96.5t179 226.5t78.5 222z" />
    <glyph glyph-name="Udieresis" unicode="&#x42c;" horiz-adv-x="2482" 
d="M1679 1929q258 139 414 139q135 0 253 -138t188.5 -333t70.5 -340q0 -137 -96 -360.5t-276 -443t-440 -367t-576 -147.5q-214 0 -410 254q-112 146 -146.5 199t-56.5 141t-22 245q0 165 72.5 439t185.5 588t237 602.5t213 451.5q33 61 102 129t124 68q51 0 87 -24t85 -75
t73 -69q35 -26 100 -58t85 -55.5t20 -83.5q0 -17 -57 -192q-32 -88 -111.5 -265.5t-118.5 -304.5zM1819 1307q0 94 -70 94q-34 0 -77 -16.5t-54 -16.5q-24 0 -39 19.5t-68 107.5q-133 -257 -188 -524q0 -209 82 -209q56 0 156.5 96.5t179 226.5t78.5 222z" />
    <glyph glyph-name="Yacute" unicode="&#xdd;" horiz-adv-x="2359" 
d="M2712 2118q0 -247 -89.5 -619.5t-276 -741t-485.5 -616t-698 -247.5q-139 0 -329.5 68t-334 215.5t-143.5 367.5q0 111 29.5 180.5t89.5 138.5q76 90 191 158t170 68q67 0 99.5 -25.5t43.5 -61.5t45 -180q16 -67 77.5 -142t115.5 -75q113 0 252 198t219 396
q-35 0 -125.5 -18.5t-112.5 -18.5q-80 0 -123 57.5t-60.5 159.5t-25.5 254q0 65 43.5 116.5t104.5 51.5h266q174 0 246 29q41 126 41 266q0 279 -58 279q-40 -1 -104 -114t-115 -173.5t-149 -60.5q-61 0 -133.5 43t-104.5 88q-148 206 -148 303q0 94 127 221
q192 201 348.5 283.5t360.5 85.5q217 0 387 -146.5t264.5 -366t94.5 -421.5z" />
    <glyph glyph-name="Yacute" unicode="&#x42d;" horiz-adv-x="2359" 
d="M2712 2118q0 -247 -89.5 -619.5t-276 -741t-485.5 -616t-698 -247.5q-139 0 -329.5 68t-334 215.5t-143.5 367.5q0 111 29.5 180.5t89.5 138.5q76 90 191 158t170 68q67 0 99.5 -25.5t43.5 -61.5t45 -180q16 -67 77.5 -142t115.5 -75q113 0 252 198t219 396
q-35 0 -125.5 -18.5t-112.5 -18.5q-80 0 -123 57.5t-60.5 159.5t-25.5 254q0 65 43.5 116.5t104.5 51.5h266q174 0 246 29q41 126 41 266q0 279 -58 279q-40 -1 -104 -114t-115 -173.5t-149 -60.5q-61 0 -133.5 43t-104.5 88q-148 206 -148 303q0 94 127 221
q192 201 348.5 283.5t360.5 85.5q217 0 387 -146.5t264.5 -366t94.5 -421.5z" />
    <glyph glyph-name="Thorn" unicode="&#xde;" horiz-adv-x="3613" 
d="M3297 2699q144 74 246 74q31 0 98 -86.5t121.5 -274.5t54.5 -475q0 -168 -28 -368q-83 -351 -248.5 -666.5t-409.5 -554.5t-551 -360q-107 -45 -200 -45t-176 45q-156 84 -305 234t-203 270q-58 127 -58 274q0 124 37 307q-24 8 -53 8q-93 -8 -131 -41
q-173 -465 -315 -942q-21 -69 -50.5 -100t-105.5 -31q-72 0 -128 30t-134.5 95t-102.5 80q-163 106 -163 291q0 66 45 188q60 161 121.5 316t123.5 311q-20 41 -20 356q0 59 29.5 114.5t68.5 70.5q45 17 107.5 48.5t89.5 41.5q58 125 130 290t152 343t127 276
q78 164 238 164q46 0 78.5 -25t83 -79.5t84.5 -75.5q22 -12 58.5 -33.5t60 -43t38.5 -54t15 -82.5q0 -106 -29 -168q-49 -94 -129 -273.5t-88 -214.5q69 0 102 33q69 152 168.5 292.5t206.5 254t207.5 205.5t167.5 153q153 111 233 111q54 0 115.5 -49.5t220.5 -233.5z
M2449 745q125 130 262 334.5t237 407t116 323.5q16 82 16 152q0 83 -33 111q-16 8 -24 8q-49 0 -107 -90q-414 -672 -532 -1168q-8 -32 -8 -78q0 -36 16 -36q21 0 57 36z" />
    <glyph glyph-name="Thorn" unicode="&#x42e;" horiz-adv-x="3613" 
d="M3297 2699q144 74 246 74q31 0 98 -86.5t121.5 -274.5t54.5 -475q0 -168 -28 -368q-83 -351 -248.5 -666.5t-409.5 -554.5t-551 -360q-107 -45 -200 -45t-176 45q-156 84 -305 234t-203 270q-58 127 -58 274q0 124 37 307q-24 8 -53 8q-93 -8 -131 -41
q-173 -465 -315 -942q-21 -69 -50.5 -100t-105.5 -31q-72 0 -128 30t-134.5 95t-102.5 80q-163 106 -163 291q0 66 45 188q60 161 121.5 316t123.5 311q-20 41 -20 356q0 59 29.5 114.5t68.5 70.5q45 17 107.5 48.5t89.5 41.5q58 125 130 290t152 343t127 276
q78 164 238 164q46 0 78.5 -25t83 -79.5t84.5 -75.5q22 -12 58.5 -33.5t60 -43t38.5 -54t15 -82.5q0 -106 -29 -168q-49 -94 -129 -273.5t-88 -214.5q69 0 102 33q69 152 168.5 292.5t206.5 254t207.5 205.5t167.5 153q153 111 233 111q54 0 115.5 -49.5t220.5 -233.5z
M2449 745q125 130 262 334.5t237 407t116 323.5q16 82 16 152q0 83 -33 111q-16 8 -24 8q-49 0 -107 -90q-414 -672 -532 -1168q-8 -32 -8 -78q0 -36 16 -36q21 0 57 36z" />
    <glyph glyph-name="germandbls" unicode="&#xdf;" horiz-adv-x="2863" 
d="M2494 176q-14 -148 -87 -217.5t-162 -69.5q-111 0 -250 111q-34 26 -121 52.5t-130.5 65.5t-43.5 132q0 80 33 166.5t109.5 261t94.5 260.5q-112 -168 -335.5 -389t-606.5 -557q-97 -86 -162.5 -110.5t-140.5 -24.5q-113 0 -165.5 54t-68 127.5t-24.5 117.5
q-15 58 -66 144.5t-53 154.5q0 154 140 188q77 20 201 101t303 221.5t301.5 239t222.5 171.5q-136 62 -210.5 114t-124.5 161.5t-50 298.5q0 229 175 442t444 374.5t545.5 252t461.5 90.5q173 0 260 -26t116.5 -60t86.5 -131q23 -38 82 -88t84.5 -82.5t25.5 -91.5
q0 -57 -23.5 -125t-95.5 -232q-75 -176 -196.5 -463.5t-246 -603.5t-216.5 -597.5t-107 -432.5zM2109 1696q62 0 119 45q40 90 104.5 226.5t109.5 240.5t89 225q-181 -52 -313 -160.5t-201 -221t-71 -167.5q0 -86 50.5 -137t112.5 -51z" />
    <glyph glyph-name="germandbls" unicode="&#x42f;" horiz-adv-x="2863" 
d="M2494 176q-14 -148 -87 -217.5t-162 -69.5q-111 0 -250 111q-34 26 -121 52.5t-130.5 65.5t-43.5 132q0 80 33 166.5t109.5 261t94.5 260.5q-112 -168 -335.5 -389t-606.5 -557q-97 -86 -162.5 -110.5t-140.5 -24.5q-113 0 -165.5 54t-68 127.5t-24.5 117.5
q-15 58 -66 144.5t-53 154.5q0 154 140 188q77 20 201 101t303 221.5t301.5 239t222.5 171.5q-136 62 -210.5 114t-124.5 161.5t-50 298.5q0 229 175 442t444 374.5t545.5 252t461.5 90.5q173 0 260 -26t116.5 -60t86.5 -131q23 -38 82 -88t84.5 -82.5t25.5 -91.5
q0 -57 -23.5 -125t-95.5 -232q-75 -176 -196.5 -463.5t-246 -603.5t-216.5 -597.5t-107 -432.5zM2109 1696q62 0 119 45q40 90 104.5 226.5t109.5 240.5t89 225q-181 -52 -313 -160.5t-201 -221t-71 -167.5q0 -86 50.5 -137t112.5 -51z" />
    <glyph glyph-name="agrave" unicode="&#xe0;" horiz-adv-x="2429" 
d="M2122 82q-15 -143 -180 -143q-100 0 -227.5 45.5t-215.5 97.5q-69 38 -69 111q-83 -34 -169.5 -92t-127.5 -77.5t-121 -19.5q-154 0 -312 184q-128 157 -168 270.5t-40 250.5q0 203 64.5 395.5t156.5 345t188 262.5q127 139 291 261.5t312.5 197t211.5 74.5q42 0 66 -28
t114 -169q56 126 94.5 171.5t127.5 45.5q133 0 307 -147q62 -50 106.5 -85t75.5 -72t31 -77q0 -57 -37 -94q-456 -806 -479 -1708zM1262 745q37 0 121.5 58t144.5 135q10 33 50.5 157.5t72 231t37.5 139.5q-82 -13 -166 -94t-150.5 -188.5t-108.5 -212t-42 -152.5
q0 -74 41 -74z" />
    <glyph glyph-name="agrave" unicode="&#x430;" horiz-adv-x="2429" 
d="M2122 82q-15 -143 -180 -143q-100 0 -227.5 45.5t-215.5 97.5q-69 38 -69 111q-83 -34 -169.5 -92t-127.5 -77.5t-121 -19.5q-154 0 -312 184q-128 157 -168 270.5t-40 250.5q0 203 64.5 395.5t156.5 345t188 262.5q127 139 291 261.5t312.5 197t211.5 74.5q42 0 66 -28
t114 -169q56 126 94.5 171.5t127.5 45.5q133 0 307 -147q62 -50 106.5 -85t75.5 -72t31 -77q0 -57 -37 -94q-456 -806 -479 -1708zM1262 745q37 0 121.5 58t144.5 135q10 33 50.5 157.5t72 231t37.5 139.5q-82 -13 -166 -94t-150.5 -188.5t-108.5 -212t-42 -152.5
q0 -74 41 -74z" />
    <glyph glyph-name="aacute" unicode="&#xe1;" horiz-adv-x="2142" 
d="M2335 1761q0 -571 -153.5 -949.5t-377 -574t-440 -267.5t-369.5 -72q-143 0 -277 113.5t-217 273t-83 276.5q0 472 364 991q82 113 259 258t343.5 249t208.5 104q23 0 39.5 -7t34.5 -19t37 -23q0 157 -38 237.5t-117 200.5t-79 192q0 38 20.5 90.5t45.5 77.5
q81 82 252 173.5t349 156.5t259 68q75 0 108 -23.5t62.5 -73.5t59.5 -71q98 -70 135 -122.5t37 -115.5q0 -111 -69.5 -161.5t-238.5 -96.5q-111 -27 -155 -42.5t-61 -39t-17 -74.5q0 -68 27 -229.5t39 -256t12 -243.5zM1237 664q72 0 158 68t160 242.5t100 459.5
q-97 -66 -209 -206t-187 -282t-75 -221q0 -61 53 -61z" />
    <glyph glyph-name="aacute" unicode="&#x431;" horiz-adv-x="2142" 
d="M2335 1761q0 -571 -153.5 -949.5t-377 -574t-440 -267.5t-369.5 -72q-143 0 -277 113.5t-217 273t-83 276.5q0 472 364 991q82 113 259 258t343.5 249t208.5 104q23 0 39.5 -7t34.5 -19t37 -23q0 157 -38 237.5t-117 200.5t-79 192q0 38 20.5 90.5t45.5 77.5
q81 82 252 173.5t349 156.5t259 68q75 0 108 -23.5t62.5 -73.5t59.5 -71q98 -70 135 -122.5t37 -115.5q0 -111 -69.5 -161.5t-238.5 -96.5q-111 -27 -155 -42.5t-61 -39t-17 -74.5q0 -68 27 -229.5t39 -256t12 -243.5zM1237 664q72 0 158 68t160 242.5t100 459.5
q-97 -66 -209 -206t-187 -282t-75 -221q0 -61 53 -61z" />
    <glyph glyph-name="acircumflex" unicode="&#xe2;" horiz-adv-x="2351" 
d="M2257 1683q209 -104 209 -454q0 -218 -166 -548.5t-449 -573t-614 -242.5q-263 0 -417 163t-161 562q0 254 148 618q-17 5 -25 27t-12 106.5t-4 292.5q0 130 81.5 190.5t229.5 84.5q182 550 420 860t460 419t406 109q109 0 231 -90.5t206 -263t84 -399.5
q0 -181 -92.5 -348t-236 -297.5t-298.5 -215.5zM2245 2666q-79 0 -179.5 -161t-242.5 -486q238 151 344 312t106 270q0 65 -28 65zM1364 659q57 0 162.5 132.5t194.5 293.5t89 209q0 70 -69 70q-67 0 -164 -57q-234 -475 -234 -611q0 -37 21 -37z" />
    <glyph glyph-name="acircumflex" unicode="&#x432;" horiz-adv-x="2351" 
d="M2257 1683q209 -104 209 -454q0 -218 -166 -548.5t-449 -573t-614 -242.5q-263 0 -417 163t-161 562q0 254 148 618q-17 5 -25 27t-12 106.5t-4 292.5q0 130 81.5 190.5t229.5 84.5q182 550 420 860t460 419t406 109q109 0 231 -90.5t206 -263t84 -399.5
q0 -181 -92.5 -348t-236 -297.5t-298.5 -215.5zM2245 2666q-79 0 -179.5 -161t-242.5 -486q238 151 344 312t106 270q0 65 -28 65zM1364 659q57 0 162.5 132.5t194.5 293.5t89 209q0 70 -69 70q-67 0 -164 -57q-234 -475 -234 -611q0 -37 21 -37z" />
    <glyph glyph-name="atilde" unicode="&#xe3;" horiz-adv-x="2195" 
d="M2105 545q0 -157 -126 -296.5t-351.5 -224t-501.5 -85.5q-286 0 -456 137t-170 424q3 178 102 351.5t291 287.5q59 35 259 150t290 174.5t131 113.5q29 36 29 61t-25 25q-57 0 -137.5 -39.5t-209 -117.5t-185 -108t-95.5 -30q-159 0 -159 340q0 117 157 248.5t404.5 220
t498.5 88.5q144 0 244.5 -72.5t149.5 -189.5t49 -250q0 -246 -59.5 -371.5t-174.5 -201.5q-86 -56 -186.5 -120.5t-203 -135.5t-185.5 -137t-142 -128q-40 -40 -40 -65q0 -33 73 -33q59 0 175 50.5t165 88.5q15 11 54 44.5t66.5 48t64.5 14.5q66 0 135 -57t69 -205z" />
    <glyph glyph-name="atilde" unicode="&#x433;" horiz-adv-x="2195" 
d="M2105 545q0 -157 -126 -296.5t-351.5 -224t-501.5 -85.5q-286 0 -456 137t-170 424q3 178 102 351.5t291 287.5q59 35 259 150t290 174.5t131 113.5q29 36 29 61t-25 25q-57 0 -137.5 -39.5t-209 -117.5t-185 -108t-95.5 -30q-159 0 -159 340q0 117 157 248.5t404.5 220
t498.5 88.5q144 0 244.5 -72.5t149.5 -189.5t49 -250q0 -246 -59.5 -371.5t-174.5 -201.5q-86 -56 -186.5 -120.5t-203 -135.5t-185.5 -137t-142 -128q-40 -40 -40 -65q0 -33 73 -33q59 0 175 50.5t165 88.5q15 11 54 44.5t66.5 48t64.5 14.5q66 0 135 -57t69 -205z" />
    <glyph glyph-name="adieresis" unicode="&#xe4;" 
d="M2208 1307q0 -115 -13 -172q-22 -111 -113.5 -360.5t-230.5 -537.5t-327 -565.5t-398 -457.5q-119 -103 -353.5 -178.5t-420.5 -75.5q-163 0 -243.5 36.5t-223.5 139.5q-159 112 -159 196q0 104 65 201q63 86 154.5 180t136.5 94q28 0 117 -51t170 -51q222 0 368 74
q83 43 136.5 111t130.5 188q-30 -10 -83.5 -29.5t-109.5 -34t-94 -14.5q-66 0 -103 16.5t-75.5 62.5t-120.5 167q-99 147 -99 311q0 247 109 510t298 484.5t425 361.5q154 88 399 177.5t367 92.5q70 0 161 -106t130 -176q61 -126 61 -181q0 -51 -46 -85t-179 -79
q74 -66 110 -106t45 -67t9 -76zM1294 774q164 274 262 586q-124 -58 -245.5 -193t-200 -275.5t-78.5 -199.5q0 -41 25 -41q69 0 237 123z" />
    <glyph glyph-name="adieresis" unicode="&#x434;" 
d="M2208 1307q0 -115 -13 -172q-22 -111 -113.5 -360.5t-230.5 -537.5t-327 -565.5t-398 -457.5q-119 -103 -353.5 -178.5t-420.5 -75.5q-163 0 -243.5 36.5t-223.5 139.5q-159 112 -159 196q0 104 65 201q63 86 154.5 180t136.5 94q28 0 117 -51t170 -51q222 0 368 74
q83 43 136.5 111t130.5 188q-30 -10 -83.5 -29.5t-109.5 -34t-94 -14.5q-66 0 -103 16.5t-75.5 62.5t-120.5 167q-99 147 -99 311q0 247 109 510t298 484.5t425 361.5q154 88 399 177.5t367 92.5q70 0 161 -106t130 -176q61 -126 61 -181q0 -51 -46 -85t-179 -79
q74 -66 110 -106t45 -67t9 -76zM1294 774q164 274 262 586q-124 -58 -245.5 -193t-200 -275.5t-78.5 -199.5q0 -41 25 -41q69 0 237 123z" />
    <glyph glyph-name="aring" unicode="&#xe5;" horiz-adv-x="2097" 
d="M2376 1520q0 -55 -52 -207.5t-116 -231.5q-96 -115 -200.5 -178t-340.5 -137q-61 -21 -192 -21q-66 0 -91 21q-116 100 -159 164q-41 -88 -41 -156q0 -116 102 -172q57 -37 115 -37q29 0 79.5 10.5t109 23.5t107.5 20.5t89 7.5q69 0 98 -29q12 -17 24 -38t34 -60
q12 -24 12 -58q0 -11 -37 -94q-19 -42 -36.5 -93.5t-33.5 -74.5q-42 -69 -80.5 -86t-185.5 -57q-220 -57 -393 -57q-219 0 -344 81q-385 258 -385 644q0 229 100.5 477t270 460t366.5 336q335 205 512 205q124 0 280 -68.5t224 -136.5q85 -85 124.5 -182.5t39.5 -275.5z
M1360 1208q128 18 195 34.5t112 64.5q47 50 79 138t32 132q0 33 -33 33q-21 0 -37 -17q-193 -140 -348 -385z" />
    <glyph glyph-name="aring" unicode="&#x435;" horiz-adv-x="2097" 
d="M2376 1520q0 -55 -52 -207.5t-116 -231.5q-96 -115 -200.5 -178t-340.5 -137q-61 -21 -192 -21q-66 0 -91 21q-116 100 -159 164q-41 -88 -41 -156q0 -116 102 -172q57 -37 115 -37q29 0 79.5 10.5t109 23.5t107.5 20.5t89 7.5q69 0 98 -29q12 -17 24 -38t34 -60
q12 -24 12 -58q0 -11 -37 -94q-19 -42 -36.5 -93.5t-33.5 -74.5q-42 -69 -80.5 -86t-185.5 -57q-220 -57 -393 -57q-219 0 -344 81q-385 258 -385 644q0 229 100.5 477t270 460t366.5 336q335 205 512 205q124 0 280 -68.5t224 -136.5q85 -85 124.5 -182.5t39.5 -275.5z
M1360 1208q128 18 195 34.5t112 64.5q47 50 79 138t32 132q0 33 -33 33q-21 0 -37 -17q-193 -140 -348 -385z" />
    <glyph glyph-name="ae" unicode="&#xe6;" horiz-adv-x="3461" 
d="M2650 1569q33 25 160.5 204.5t229 290.5t188.5 111q112 0 159.5 -44t94.5 -124q94 -135 94 -254q0 -61 -77.5 -187t-229.5 -275.5t-365 -282.5q0 -181 25.5 -290.5t77 -223t73 -178t21.5 -181.5q0 -30 -26.5 -52.5t-66.5 -35t-95.5 -22.5t-82.5 -17q-34 -8 -129 -47
t-170 -39q-70 0 -124 52.5t-97.5 241t-56.5 562.5q-48 -74 -84 -171.5t-88.5 -256t-77.5 -198.5q-32 -54 -104 -86.5t-138 -32.5q-52 0 -99 37t-69 45q-37 14 -92 17t-80 15q-114 65 -114 156q0 52 97 281t112 272q-136 -140 -404.5 -401t-312.5 -287q-188 -107 -271 -107
q-102 0 -157.5 58.5t-55.5 245.5q0 216 36.5 315.5t102 148.5t309.5 200t458 319v356q0 237 112 372t246.5 182.5t218.5 47.5q127 0 127 -192q0 -78 -10.5 -148t-35.5 -184.5t-32.5 -157t-7.5 -100.5q241 468 586 1319q65 155 274 155q125 0 258 -127q127 -126 127 -241
q0 -45 -54 -176.5t-186 -428.5t-194 -456z" />
    <glyph glyph-name="ae" unicode="&#x436;" horiz-adv-x="3461" 
d="M2650 1569q33 25 160.5 204.5t229 290.5t188.5 111q112 0 159.5 -44t94.5 -124q94 -135 94 -254q0 -61 -77.5 -187t-229.5 -275.5t-365 -282.5q0 -181 25.5 -290.5t77 -223t73 -178t21.5 -181.5q0 -30 -26.5 -52.5t-66.5 -35t-95.5 -22.5t-82.5 -17q-34 -8 -129 -47
t-170 -39q-70 0 -124 52.5t-97.5 241t-56.5 562.5q-48 -74 -84 -171.5t-88.5 -256t-77.5 -198.5q-32 -54 -104 -86.5t-138 -32.5q-52 0 -99 37t-69 45q-37 14 -92 17t-80 15q-114 65 -114 156q0 52 97 281t112 272q-136 -140 -404.5 -401t-312.5 -287q-188 -107 -271 -107
q-102 0 -157.5 58.5t-55.5 245.5q0 216 36.5 315.5t102 148.5t309.5 200t458 319v356q0 237 112 372t246.5 182.5t218.5 47.5q127 0 127 -192q0 -78 -10.5 -148t-35.5 -184.5t-32.5 -157t-7.5 -100.5q241 468 586 1319q65 155 274 155q125 0 258 -127q127 -126 127 -241
q0 -45 -54 -176.5t-186 -428.5t-194 -456z" />
    <glyph glyph-name="ccedilla" unicode="&#xe7;" horiz-adv-x="2109" 
d="M1847 401q0 -135 -78 -336t-218.5 -403.5t-338 -360t-430.5 -214.5q-173 -40 -233 -51t-205 -11q-57 0 -178 58.5t-217 153t-96 202.5q0 190 84.5 342.5t205.5 152.5q94 0 131.5 -27.5t70 -81.5t75 -81t141.5 -27q346 0 537 549q37 102 37 168q0 90 -45 90q-43 0 -82 -14
t-99 -14q-67 0 -113 121t-46 223q0 105 65 148.5t242 43.5q140 0 243 68.5t155 168t52 185.5q0 70 -7.5 96.5t-41.5 26.5q-62 0 -99 -33t-91 -106t-107 -110.5t-137 -37.5q-59 0 -109 78.5t-79 188.5t-29 192q0 79 96 201t289.5 212.5t466.5 90.5q173 0 350 -140t182 -573
q-1 -140 -71 -288t-189 -266t-260 -171q176 -160 176 -414z" />
    <glyph glyph-name="ccedilla" unicode="&#x437;" horiz-adv-x="2109" 
d="M1847 401q0 -135 -78 -336t-218.5 -403.5t-338 -360t-430.5 -214.5q-173 -40 -233 -51t-205 -11q-57 0 -178 58.5t-217 153t-96 202.5q0 190 84.5 342.5t205.5 152.5q94 0 131.5 -27.5t70 -81.5t75 -81t141.5 -27q346 0 537 549q37 102 37 168q0 90 -45 90q-43 0 -82 -14
t-99 -14q-67 0 -113 121t-46 223q0 105 65 148.5t242 43.5q140 0 243 68.5t155 168t52 185.5q0 70 -7.5 96.5t-41.5 26.5q-62 0 -99 -33t-91 -106t-107 -110.5t-137 -37.5q-59 0 -109 78.5t-79 188.5t-29 192q0 79 96 201t289.5 212.5t466.5 90.5q173 0 350 -140t182 -573
q-1 -140 -71 -288t-189 -266t-260 -171q176 -160 176 -414z" />
    <glyph glyph-name="egrave" unicode="&#xe8;" 
d="M1430 877q106 280 174.5 450t152 351.5t180.5 357.5q37 57 152 57q90 0 143 -53q23 -24 39.5 -59t30.5 -52q37 -36 100.5 -65.5t75.5 -40.5q41 -36 41 -127q0 -59 -29 -123q-65 -135 -137 -285.5t-151 -339t-151.5 -411.5t-125.5 -467q-23 -98 -49.5 -139.5t-81.5 -41.5
q-35 0 -77 13t-118 44t-190 74q-108 41 -127 193q-58 -40 -118 -80t-117.5 -74.5t-112 -56.5t-94.5 -22q-145 0 -258 147q-44 59 -96 200.5t-52 274.5q0 132 143 508.5t406 933.5q63 131 156 131q45 0 157 -61t203 -148q90 -90 90 -176q0 -23 -8 -46.5t-20.5 -50
t-20.5 -42.5q-180 -333 -340 -803q-12 -37 -12 -57q0 -37 33 -37q67 0 209 123z" />
    <glyph glyph-name="egrave" unicode="&#x438;" 
d="M1430 877q106 280 174.5 450t152 351.5t180.5 357.5q37 57 152 57q90 0 143 -53q23 -24 39.5 -59t30.5 -52q37 -36 100.5 -65.5t75.5 -40.5q41 -36 41 -127q0 -59 -29 -123q-65 -135 -137 -285.5t-151 -339t-151.5 -411.5t-125.5 -467q-23 -98 -49.5 -139.5t-81.5 -41.5
q-35 0 -77 13t-118 44t-190 74q-108 41 -127 193q-58 -40 -118 -80t-117.5 -74.5t-112 -56.5t-94.5 -22q-145 0 -258 147q-44 59 -96 200.5t-52 274.5q0 132 143 508.5t406 933.5q63 131 156 131q45 0 157 -61t203 -148q90 -90 90 -176q0 -23 -8 -46.5t-20.5 -50
t-20.5 -42.5q-180 -333 -340 -803q-12 -37 -12 -57q0 -37 33 -37q67 0 209 123z" />
    <glyph glyph-name="eacute" unicode="&#xe9;" horiz-adv-x="2191" 
d="M2175 2494q41 -69 41 -131q0 -81 -123.5 -106t-372.5 -25q-123 0 -193 7.5t-116 37t-67 90.5t-21 168q0 105 27.5 147t119.5 42q219 0 525 -25q48 -4 72.5 -29.5t57 -87.5t50.5 -88zM1409 877q278 751 508 1159q8 19 46.5 38t100.5 19q95 0 148 -53q23 -24 40.5 -60.5
t28.5 -50.5q34 -35 99.5 -65t77.5 -41q41 -37 41 -127q0 -40 -33 -123q-69 -143 -141.5 -295.5t-151 -340.5t-149.5 -408.5t-123 -458.5q-19 -96 -47.5 -138.5t-84.5 -42.5q-34 0 -74.5 12.5t-118 45t-187.5 73.5q-114 44 -127 193q-13 -8 -132.5 -86.5t-189.5 -112.5
t-125 -34q-140 0 -254 147q-45 55 -96 198.5t-51 276.5q0 64 35 192t101 303.5t179 435t234 511.5q63 131 151 131q48 0 159 -60.5t202 -148.5q90 -84 90 -176q0 -53 -49 -139q-198 -378 -336 -803q-13 -36 -13 -57q0 -37 33 -37q67 0 209 123z" />
    <glyph glyph-name="eacute" unicode="&#x439;" horiz-adv-x="2191" 
d="M2175 2494q41 -69 41 -131q0 -81 -123.5 -106t-372.5 -25q-123 0 -193 7.5t-116 37t-67 90.5t-21 168q0 105 27.5 147t119.5 42q219 0 525 -25q48 -4 72.5 -29.5t57 -87.5t50.5 -88zM1409 877q278 751 508 1159q8 19 46.5 38t100.5 19q95 0 148 -53q23 -24 40.5 -60.5
t28.5 -50.5q34 -35 99.5 -65t77.5 -41q41 -37 41 -127q0 -40 -33 -123q-69 -143 -141.5 -295.5t-151 -340.5t-149.5 -408.5t-123 -458.5q-19 -96 -47.5 -138.5t-84.5 -42.5q-34 0 -74.5 12.5t-118 45t-187.5 73.5q-114 44 -127 193q-13 -8 -132.5 -86.5t-189.5 -112.5
t-125 -34q-140 0 -254 147q-45 55 -96 198.5t-51 276.5q0 64 35 192t101 303.5t179 435t234 511.5q63 131 151 131q48 0 159 -60.5t202 -148.5q90 -84 90 -176q0 -53 -49 -139q-198 -378 -336 -803q-13 -36 -13 -57q0 -37 33 -37q67 0 209 123z" />
    <glyph glyph-name="ecircumflex" unicode="&#xea;" horiz-adv-x="2343" 
d="M1573 1479q79 12 183.5 121.5t227.5 279.5t142 193q59 73 180 73q140 0 221 -180q58 -110 58 -225q0 -88 -41 -160q-67 -113 -180 -251.5t-173 -182.5q-24 -16 -125 -77t-137 -87q0 -122 7 -216.5t19.5 -150.5t33 -110t43.5 -113q3 -9 22.5 -54.5t29 -89t9.5 -97.5
q0 -40 -15.5 -63t-48 -37.5t-82 -25.5t-116.5 -26q-59 -12 -146.5 -43t-132.5 -31q-66 0 -114 90q-43 79 -71.5 132t-47.5 125t-32.5 220.5t-20.5 407.5q-56 -99 -156.5 -372t-138.5 -361q-26 -61 -112.5 -102t-133.5 -41q-68 0 -119 65q-19 29 -40.5 78t-49.5 78
q-25 18 -68 49t-77.5 75.5t-34.5 100.5q0 78 37 156q116 237 310 620.5t274.5 546.5t207.5 444t273 641q21 50 94.5 84.5t163.5 34.5q185 0 323 -180q66 -102 70 -176q0 -57 -25 -123q-57 -127 -115 -256.5t-128 -283t-127.5 -268.5t-120.5 -232z" />
    <glyph glyph-name="ecircumflex" unicode="&#x43a;" horiz-adv-x="2343" 
d="M1573 1479q79 12 183.5 121.5t227.5 279.5t142 193q59 73 180 73q140 0 221 -180q58 -110 58 -225q0 -88 -41 -160q-67 -113 -180 -251.5t-173 -182.5q-24 -16 -125 -77t-137 -87q0 -122 7 -216.5t19.5 -150.5t33 -110t43.5 -113q3 -9 22.5 -54.5t29 -89t9.5 -97.5
q0 -40 -15.5 -63t-48 -37.5t-82 -25.5t-116.5 -26q-59 -12 -146.5 -43t-132.5 -31q-66 0 -114 90q-43 79 -71.5 132t-47.5 125t-32.5 220.5t-20.5 407.5q-56 -99 -156.5 -372t-138.5 -361q-26 -61 -112.5 -102t-133.5 -41q-68 0 -119 65q-19 29 -40.5 78t-49.5 78
q-25 18 -68 49t-77.5 75.5t-34.5 100.5q0 78 37 156q116 237 310 620.5t274.5 546.5t207.5 444t273 641q21 50 94.5 84.5t163.5 34.5q185 0 323 -180q66 -102 70 -176q0 -57 -25 -123q-57 -127 -115 -256.5t-128 -283t-127.5 -268.5t-120.5 -232z" />
    <glyph glyph-name="edieresis" unicode="&#xeb;" horiz-adv-x="2249" 
d="M1794 -70q-58 0 -109 27.5t-106.5 71t-71.5 49.5q-113 30 -185.5 83.5t-72.5 174.5q0 58 21.5 147t70 256t74 260.5t35.5 180.5q-114 -179 -192.5 -333t-179 -372.5t-140.5 -298.5q-28 -62 -88.5 -113t-132.5 -51q-133 0 -246 140q-21 25 -82 59.5t-90 66t-29 99.5
q0 164 142.5 426.5t435 608t700.5 722.5q89 74 201 74q93 0 246 -119q76 -59 122 -120t46 -167q0 -72 -17 -243t-45 -415t-51 -447t-43 -414q-10 -116 -24.5 -186.5t-58 -118.5t-130.5 -48z" />
    <glyph glyph-name="edieresis" unicode="&#x43b;" horiz-adv-x="2249" 
d="M1794 -70q-58 0 -109 27.5t-106.5 71t-71.5 49.5q-113 30 -185.5 83.5t-72.5 174.5q0 58 21.5 147t70 256t74 260.5t35.5 180.5q-114 -179 -192.5 -333t-179 -372.5t-140.5 -298.5q-28 -62 -88.5 -113t-132.5 -51q-133 0 -246 140q-21 25 -82 59.5t-90 66t-29 99.5
q0 164 142.5 426.5t435 608t700.5 722.5q89 74 201 74q93 0 246 -119q76 -59 122 -120t46 -167q0 -72 -17 -243t-45 -415t-51 -447t-43 -414q-10 -116 -24.5 -186.5t-58 -118.5t-130.5 -48z" />
    <glyph glyph-name="igrave" unicode="&#xec;" horiz-adv-x="3146" 
d="M1909 1343q117 164 471 623q118 160 237 160q76 0 122 -31.5t87 -75.5q127 -111 158 -154t31 -108q0 -24 -57 -449.5t-89.5 -684t-46.5 -443.5q-4 -65 -67.5 -145t-153.5 -80q-104 0 -303 115q-62 36 -110.5 65t-67.5 62t-19 98q0 61 14 127t49 197.5t49.5 194.5
t14.5 112q-102 -134 -178 -262.5t-139 -256t-113 -227.5q-40 -78 -74.5 -116.5t-97.5 -38.5q-131 0 -242 94q-89 72 -113.5 95.5t-39 67t-14.5 128.5q0 56 42.5 205.5t60.5 225.5t19 187q-75 -106 -134 -215t-150 -293t-174 -340q-28 -58 -66 -84t-115 -26q-64 3 -111.5 29
t-113.5 89q-59 45 -94.5 71.5t-56.5 65.5t-21 117q0 201 117 410.5t391 595.5t414 633q78 131 225 131q77 0 126 -22t185 -97q97 -56 132.5 -107t35.5 -143q0 -106 -10 -248t-10 -252z" />
    <glyph glyph-name="igrave" unicode="&#x43c;" horiz-adv-x="3146" 
d="M1909 1343q117 164 471 623q118 160 237 160q76 0 122 -31.5t87 -75.5q127 -111 158 -154t31 -108q0 -24 -57 -449.5t-89.5 -684t-46.5 -443.5q-4 -65 -67.5 -145t-153.5 -80q-104 0 -303 115q-62 36 -110.5 65t-67.5 62t-19 98q0 61 14 127t49 197.5t49.5 194.5
t14.5 112q-102 -134 -178 -262.5t-139 -256t-113 -227.5q-40 -78 -74.5 -116.5t-97.5 -38.5q-131 0 -242 94q-89 72 -113.5 95.5t-39 67t-14.5 128.5q0 56 42.5 205.5t60.5 225.5t19 187q-75 -106 -134 -215t-150 -293t-174 -340q-28 -58 -66 -84t-115 -26q-64 3 -111.5 29
t-113.5 89q-59 45 -94.5 71.5t-56.5 65.5t-21 117q0 201 117 410.5t391 595.5t414 633q78 131 225 131q77 0 126 -22t185 -97q97 -56 132.5 -107t35.5 -143q0 -106 -10 -248t-10 -252z" />
    <glyph glyph-name="iacute" unicode="&#xed;" horiz-adv-x="2286" 
d="M1794 -33q-54 0 -90.5 18t-93.5 60.5t-99 65.5q-176 95 -176 233q0 73 25 139.5t81.5 198.5t65.5 186h-168q-55 -109 -101.5 -223t-121 -312t-96.5 -255q-30 -82 -107 -82q-49 0 -74.5 19.5t-94 83.5t-109.5 77q-201 54 -201 275q0 104 37 203.5t102.5 230t81.5 184.5
q-16 82 -16 123q0 231 55 308t178 77q37 79 133.5 276t145.5 310q42 98 192 98q45 0 73 -10.5t81 -51.5t80 -61q92 -63 126 -98.5t34 -122.5q0 -60 -22 -114t-73 -152.5t-69 -155.5h156q88 141 266 537q31 68 66.5 103.5t105.5 35.5q103 0 165.5 -39.5t121.5 -128.5
q16 -27 56 -77.5t53 -87t13 -114.5q0 -69 -41 -180q-57 -158 -125.5 -304.5t-149 -319.5t-139 -338t-110.5 -398q-18 -108 -54.5 -162.5t-162.5 -54.5z" />
    <glyph glyph-name="iacute" unicode="&#x43d;" horiz-adv-x="2286" 
d="M1794 -33q-54 0 -90.5 18t-93.5 60.5t-99 65.5q-176 95 -176 233q0 73 25 139.5t81.5 198.5t65.5 186h-168q-55 -109 -101.5 -223t-121 -312t-96.5 -255q-30 -82 -107 -82q-49 0 -74.5 19.5t-94 83.5t-109.5 77q-201 54 -201 275q0 104 37 203.5t102.5 230t81.5 184.5
q-16 82 -16 123q0 231 55 308t178 77q37 79 133.5 276t145.5 310q42 98 192 98q45 0 73 -10.5t81 -51.5t80 -61q92 -63 126 -98.5t34 -122.5q0 -60 -22 -114t-73 -152.5t-69 -155.5h156q88 141 266 537q31 68 66.5 103.5t105.5 35.5q103 0 165.5 -39.5t121.5 -128.5
q16 -27 56 -77.5t53 -87t13 -114.5q0 -69 -41 -180q-57 -158 -125.5 -304.5t-149 -319.5t-139 -338t-110.5 -398q-18 -108 -54.5 -162.5t-162.5 -54.5z" />
    <glyph glyph-name="icircumflex" unicode="&#xee;" horiz-adv-x="2134" 
d="M1905 324q-370 -381 -623 -381q-126 0 -272.5 51t-247.5 129q-270 206 -270 557q0 439 202.5 823t628.5 705q77 49 147 49q57 0 96 -17t70 -49.5t61 -75.5t105 -153q149 -21 235 -38t130 -56q114 -109 114 -561q0 -256 -92.5 -522.5t-283.5 -460.5zM1270 643
q118 121 243 365t125 352q0 127 -61 127q-31 0 -61 -37q-114 -141 -201.5 -328t-134.5 -381q-9 -28 -9 -69q0 -66 37 -66q31 0 62 37z" />
    <glyph glyph-name="icircumflex" unicode="&#x43e;" horiz-adv-x="2134" 
d="M1905 324q-370 -381 -623 -381q-126 0 -272.5 51t-247.5 129q-270 206 -270 557q0 439 202.5 823t628.5 705q77 49 147 49q57 0 96 -17t70 -49.5t61 -75.5t105 -153q149 -21 235 -38t130 -56q114 -109 114 -561q0 -256 -92.5 -522.5t-283.5 -460.5zM1270 643
q118 121 243 365t125 352q0 127 -61 127q-31 0 -61 -37q-114 -141 -201.5 -328t-134.5 -381q-9 -28 -9 -69q0 -66 37 -66q31 0 62 37z" />
    <glyph glyph-name="idieresis" unicode="&#xef;" horiz-adv-x="2195" 
d="M1532 1970q320 160 393 160q94 0 189 -111q121 -143 181 -247.5t60 -260.5q-3 -109 -42 -270t-103 -355.5t-135 -389.5l-142 -390q-28 -83 -94 -110q-44 -14 -78 -25t-86 -28q-40 -13 -73 -13q-39 0 -111 41q-33 23 -125 108.5t-125 129.5q-24 30 -24 70t28 98
q36 74 106.5 234t147 342t135.5 317q21 41 21 82q0 45 -49 45q-92 0 -193 -127q-49 -119 -159.5 -427t-149 -415t-117.5 -289q-42 -119 -123 -119q-35 0 -99 25t-110 57q-34 25 -103.5 73.5t-114 87.5t-71 80.5t-26.5 86.5q0 30 16 94q92 247 251 585t236.5 534t135.5 479
q9 33 47.5 69.5t71.5 36.5q23 0 56 -12.5t93 -40.5l150 -70q94 -38 135 -135z" />
    <glyph glyph-name="idieresis" unicode="&#x43f;" horiz-adv-x="2195" 
d="M1532 1970q320 160 393 160q94 0 189 -111q121 -143 181 -247.5t60 -260.5q-3 -109 -42 -270t-103 -355.5t-135 -389.5l-142 -390q-28 -83 -94 -110q-44 -14 -78 -25t-86 -28q-40 -13 -73 -13q-39 0 -111 41q-33 23 -125 108.5t-125 129.5q-24 30 -24 70t28 98
q36 74 106.5 234t147 342t135.5 317q21 41 21 82q0 45 -49 45q-92 0 -193 -127q-49 -119 -159.5 -427t-149 -415t-117.5 -289q-42 -119 -123 -119q-35 0 -99 25t-110 57q-34 25 -103.5 73.5t-114 87.5t-71 80.5t-26.5 86.5q0 30 16 94q92 247 251 585t236.5 534t135.5 479
q9 33 47.5 69.5t71.5 36.5q23 0 56 -12.5t93 -40.5l150 -70q94 -38 135 -135z" />
    <glyph glyph-name="eth" unicode="&#xf0;" horiz-adv-x="2290" 
d="M2077 496q-146 -188 -289 -313.5t-250 -182.5t-158 -57q-52 0 -88 21.5t-91 78t-161 166.5q-48 -92 -123 -264t-155.5 -355.5t-147.5 -314.5q-33 -94 -106 -94q-25 0 -89.5 43.5t-74.5 46.5q-40 15 -86.5 21.5t-72.5 16.5t-70 48q-49 49 -65.5 98.5t-16.5 134.5
q0 132 28 189q83 190 175.5 383t206 434t219 489t210.5 541q-11 64 -17 97t-10.5 70t-4.5 87q0 34 22 56.5t81.5 59t80.5 52.5q47 167 90.5 241t122.5 74q56 0 86.5 -20t117.5 -98.5t177 -135.5q33 12 67 24t81 19t126 7q105 0 168.5 -52.5t196.5 -226.5q74 -89 127 -237.5
t53 -274.5q0 -206 -111.5 -450.5t-248.5 -421.5zM1774 1417q0 99 -115 99q-55 0 -107 -37q-115 -298 -315 -766q132 51 254 196.5t202.5 301.5t80.5 206z" />
    <glyph glyph-name="eth" unicode="&#x440;" horiz-adv-x="2290" 
d="M2077 496q-146 -188 -289 -313.5t-250 -182.5t-158 -57q-52 0 -88 21.5t-91 78t-161 166.5q-48 -92 -123 -264t-155.5 -355.5t-147.5 -314.5q-33 -94 -106 -94q-25 0 -89.5 43.5t-74.5 46.5q-40 15 -86.5 21.5t-72.5 16.5t-70 48q-49 49 -65.5 98.5t-16.5 134.5
q0 132 28 189q83 190 175.5 383t206 434t219 489t210.5 541q-11 64 -17 97t-10.5 70t-4.5 87q0 34 22 56.5t81.5 59t80.5 52.5q47 167 90.5 241t122.5 74q56 0 86.5 -20t117.5 -98.5t177 -135.5q33 12 67 24t81 19t126 7q105 0 168.5 -52.5t196.5 -226.5q74 -89 127 -237.5
t53 -274.5q0 -206 -111.5 -450.5t-248.5 -421.5zM1774 1417q0 99 -115 99q-55 0 -107 -37q-115 -298 -315 -766q132 51 254 196.5t202.5 301.5t80.5 206z" />
    <glyph glyph-name="ntilde" unicode="&#xf1;" horiz-adv-x="1987" 
d="M1708 840q54 0 121 -71t67 -138q0 -280 -180 -430q-82 -67 -257.5 -140t-323.5 -73q-286 0 -504 282q-156 201 -156 455q0 250 100 482.5t242 410.5t264 278q54 45 155 106.5t223 106.5t241 45q105 0 244.5 -52t246.5 -179t107 -334q0 -78 -47.5 -189t-96.5 -163
q-37 -37 -108 -74t-117 -37q-39 0 -209 54q-102 45 -102 114q0 38 30.5 100t30.5 85q0 32 -37 32q-20 0 -53 -32q-181 -174 -276.5 -384t-95.5 -288q0 -55 39 -89t92 -34q46 0 85 19t91 57.5t94.5 59t89.5 20.5z" />
    <glyph glyph-name="ntilde" unicode="&#x441;" horiz-adv-x="1987" 
d="M1708 840q54 0 121 -71t67 -138q0 -280 -180 -430q-82 -67 -257.5 -140t-323.5 -73q-286 0 -504 282q-156 201 -156 455q0 250 100 482.5t242 410.5t264 278q54 45 155 106.5t223 106.5t241 45q105 0 244.5 -52t246.5 -179t107 -334q0 -78 -47.5 -189t-96.5 -163
q-37 -37 -108 -74t-117 -37q-39 0 -209 54q-102 45 -102 114q0 38 30.5 100t30.5 85q0 32 -37 32q-20 0 -53 -32q-181 -174 -276.5 -384t-95.5 -288q0 -55 39 -89t92 -34q46 0 85 19t91 57.5t94.5 59t89.5 20.5z" />
    <glyph glyph-name="ograve" unicode="&#xf2;" horiz-adv-x="3228" 
d="M2626 -70q-76 0 -173.5 71t-248.5 212q-33 25 -33 98q0 40 12 82q9 24 135.5 336.5t180.5 495.5q0 4 7.5 40.5t8.5 49.5q0 61 -49 61q-72 0 -185 -119q-171 -588 -409 -1208q-22 -61 -107 -61q-47 0 -172 61q-25 13 -84 19t-79 18q-27 13 -50.5 50t-55 107t-46.5 97
q-21 35 -21 70q0 44 37 127q154 317 303 733q21 45 21 82t-29 37q-31 0 -94 -35t-102 -84q-258 -703 -447 -1176q-24 -51 -57 -72.5t-115 -21.5q-109 0 -266 188q-87 101 -117.5 156t-30.5 119q0 52 21 94q36 82 163.5 365t194 442.5t131 344t138.5 441.5q29 66 98 66
q97 0 195.5 -61.5t287.5 -212.5q91 71 228 131.5t223 60.5q156 0 315 -233q49 49 189 106t225 57q87 0 193.5 -73.5t179.5 -203.5t73 -288q0 -109 -51.5 -308t-120 -397t-155.5 -425q-17 -47 -45.5 -177.5t-44.5 -158.5q-61 -103 -172 -103z" />
    <glyph glyph-name="ograve" unicode="&#x442;" horiz-adv-x="3228" 
d="M2626 -70q-76 0 -173.5 71t-248.5 212q-33 25 -33 98q0 40 12 82q9 24 135.5 336.5t180.5 495.5q0 4 7.5 40.5t8.5 49.5q0 61 -49 61q-72 0 -185 -119q-171 -588 -409 -1208q-22 -61 -107 -61q-47 0 -172 61q-25 13 -84 19t-79 18q-27 13 -50.5 50t-55 107t-46.5 97
q-21 35 -21 70q0 44 37 127q154 317 303 733q21 45 21 82t-29 37q-31 0 -94 -35t-102 -84q-258 -703 -447 -1176q-24 -51 -57 -72.5t-115 -21.5q-109 0 -266 188q-87 101 -117.5 156t-30.5 119q0 52 21 94q36 82 163.5 365t194 442.5t131 344t138.5 441.5q29 66 98 66
q97 0 195.5 -61.5t287.5 -212.5q91 71 228 131.5t223 60.5q156 0 315 -233q49 49 189 106t225 57q87 0 193.5 -73.5t179.5 -203.5t73 -288q0 -109 -51.5 -308t-120 -397t-155.5 -425q-17 -47 -45.5 -177.5t-44.5 -158.5q-61 -103 -172 -103z" />
    <glyph glyph-name="oacute" unicode="&#xf3;" horiz-adv-x="2126" 
d="M1581 1712q-19 -67 -79.5 -253.5t-89 -317t-28.5 -269.5q280 387 607 1201q37 94 102 94q137 0 299 -201q70 -84 70 -270q0 -233 -123 -451q-140 -263 -276.5 -494.5t-320.5 -489t-417 -512t-518 -486.5q-146 -115 -270 -115q-105 0 -156 90q-76 144 -152 217
q-28 24 -42.5 76.5t-14.5 83.5q0 91 70 123q74 36 160 77t159.5 90t163 130t209.5 211q-139 90 -190.5 165.5t-51.5 170.5q0 126 38.5 422t91 596.5t79.5 381.5q68 197 193 197q148 0 405 -209q98 -75 98 -147q0 -62 -16 -111z" />
    <glyph glyph-name="oacute" unicode="&#x443;" horiz-adv-x="2126" 
d="M1581 1712q-19 -67 -79.5 -253.5t-89 -317t-28.5 -269.5q280 387 607 1201q37 94 102 94q137 0 299 -201q70 -84 70 -270q0 -233 -123 -451q-140 -263 -276.5 -494.5t-320.5 -489t-417 -512t-518 -486.5q-146 -115 -270 -115q-105 0 -156 90q-76 144 -152 217
q-28 24 -42.5 76.5t-14.5 83.5q0 91 70 123q74 36 160 77t159.5 90t163 130t209.5 211q-139 90 -190.5 165.5t-51.5 170.5q0 126 38.5 422t91 596.5t79.5 381.5q68 197 193 197q148 0 405 -209q98 -75 98 -147q0 -62 -16 -111z" />
    <glyph glyph-name="ocircumflex" unicode="&#xf4;" horiz-adv-x="3318" 
d="M2007 180q-41 -89 -118 -283t-135 -340t-91 -204q-4 -6 -29 -69t-52.5 -97.5t-70.5 -34.5q-42 0 -65 11t-56 36.5t-63 38.5q-35 17 -82 18t-86 19q-172 86 -172 217q0 77 13.5 124t46.5 110t106 206.5t154 337.5q-23 -12 -110.5 -83.5t-163 -112.5t-161.5 -41
q-190 0 -291.5 215t-101.5 522q0 284 135 542.5t333.5 456.5t384.5 311t270 115q107 0 183.5 -57.5t147.5 -146.5q90 262 156 475q28 114 143 114q48 0 99.5 -29.5t150.5 -109.5q49 -38 92.5 -70t70 -56.5t26.5 -41.5q0 -36 -9.5 -76t-20 -68.5t-20.5 -55.5q95 36 263 36
q67 0 157.5 -53.5t174 -152.5t138 -244t54.5 -320q0 -196 -112.5 -440t-285.5 -464.5t-349.5 -360.5t-288.5 -140q-80 0 -145.5 41.5t-142 122.5t-77.5 82zM1823 1647q-78 -4 -218.5 -152.5t-250 -334t-109.5 -288.5q0 -86 86 -86q80 0 142 59.5t92 112.5q91 216 258 689z
M2630 1569q-96 0 -164 -78q-111 -334 -283 -786q165 91 285 228t177.5 275.5t57.5 237.5q0 123 -73 123z" />
    <glyph glyph-name="ocircumflex" unicode="&#x444;" horiz-adv-x="3318" 
d="M2007 180q-41 -89 -118 -283t-135 -340t-91 -204q-4 -6 -29 -69t-52.5 -97.5t-70.5 -34.5q-42 0 -65 11t-56 36.5t-63 38.5q-35 17 -82 18t-86 19q-172 86 -172 217q0 77 13.5 124t46.5 110t106 206.5t154 337.5q-23 -12 -110.5 -83.5t-163 -112.5t-161.5 -41
q-190 0 -291.5 215t-101.5 522q0 284 135 542.5t333.5 456.5t384.5 311t270 115q107 0 183.5 -57.5t147.5 -146.5q90 262 156 475q28 114 143 114q48 0 99.5 -29.5t150.5 -109.5q49 -38 92.5 -70t70 -56.5t26.5 -41.5q0 -36 -9.5 -76t-20 -68.5t-20.5 -55.5q95 36 263 36
q67 0 157.5 -53.5t174 -152.5t138 -244t54.5 -320q0 -196 -112.5 -440t-285.5 -464.5t-349.5 -360.5t-288.5 -140q-80 0 -145.5 41.5t-142 122.5t-77.5 82zM1823 1647q-78 -4 -218.5 -152.5t-250 -334t-109.5 -288.5q0 -86 86 -86q80 0 142 59.5t92 112.5q91 216 258 689z
M2630 1569q-96 0 -164 -78q-111 -334 -283 -786q165 91 285 228t177.5 275.5t57.5 237.5q0 123 -73 123z" />
    <glyph glyph-name="otilde" unicode="&#xf5;" horiz-adv-x="2154" 
d="M1794 1073q10 -102 74.5 -417.5t64.5 -479.5q0 -63 -17.5 -82.5t-64.5 -32.5q-14 -5 -60.5 -12t-78.5 -20q-37 -11 -81 -44t-58 -42q-88 -49 -189 -49q-51 0 -95 24.5t-44 61.5q0 151 4 237q0 237 -24 389q-85 -86 -160.5 -192t-130 -195.5t-90.5 -148.5
q-30 -40 -77.5 -69.5t-78.5 -29.5q-29 0 -95 42t-106 89q-188 248 -188 316q0 66 16.5 109.5t65.5 95.5q66 79 143 159.5t153 156t175.5 171t171.5 164.5q-40 112 -118.5 263.5t-78.5 236.5q0 90 34 136.5t97 92.5q74 57 108.5 85t66.5 41t84 13q66 0 130.5 -37t90.5 -94
q18 -34 139 -311q230 205 393 336q73 53 111 53q60 0 110 -82q115 -171 152 -328q16 -74 16 -98q0 -99 -102 -168q-48 -38 -161.5 -114t-174.5 -119.5t-127 -106.5z" />
    <glyph glyph-name="otilde" unicode="&#x445;" horiz-adv-x="2154" 
d="M1794 1073q10 -102 74.5 -417.5t64.5 -479.5q0 -63 -17.5 -82.5t-64.5 -32.5q-14 -5 -60.5 -12t-78.5 -20q-37 -11 -81 -44t-58 -42q-88 -49 -189 -49q-51 0 -95 24.5t-44 61.5q0 151 4 237q0 237 -24 389q-85 -86 -160.5 -192t-130 -195.5t-90.5 -148.5
q-30 -40 -77.5 -69.5t-78.5 -29.5q-29 0 -95 42t-106 89q-188 248 -188 316q0 66 16.5 109.5t65.5 95.5q66 79 143 159.5t153 156t175.5 171t171.5 164.5q-40 112 -118.5 263.5t-78.5 236.5q0 90 34 136.5t97 92.5q74 57 108.5 85t66.5 41t84 13q66 0 130.5 -37t90.5 -94
q18 -34 139 -311q230 205 393 336q73 53 111 53q60 0 110 -82q115 -171 152 -328q16 -74 16 -98q0 -99 -102 -168q-48 -38 -161.5 -114t-174.5 -119.5t-127 -106.5z" />
    <glyph glyph-name="odieresis" unicode="&#xf6;" horiz-adv-x="2425" 
d="M1438 905q277 755 508 1159q30 62 147 62q90 0 148 -58q19 -20 36 -54.5t33 -51.5q33 -35 98 -67t78 -44q41 -35 41 -127q0 -52 -28 -122q-46 -95 -98 -202t-113.5 -238.5t-108.5 -244.5t-70 -188q-16 -74 -16 -90q0 -23 12 -41q119 -133 119 -233q0 -162 -102 -321.5
t-235 -263.5t-199 -104q-82 0 -133.5 25.5t-51.5 60.5q0 26 28 84t45 108.5t17 127.5q0 97 -60 136.5t-128 39.5q-77 0 -141.5 -33t-146.5 -93.5t-142 -92t-127 -31.5q-145 0 -258 148q-43 59 -95.5 202.5t-52.5 276.5q0 88 63 282.5t191.5 499t294.5 656.5q60 131 152 131
q49 0 161.5 -60t202.5 -149q86 -86 86 -176q0 -26 -45 -140q-188 -338 -340 -802q-12 -37 -12 -58q0 -37 33 -37q60 0 209 123z" />
    <glyph glyph-name="odieresis" unicode="&#x446;" horiz-adv-x="2425" 
d="M1438 905q277 755 508 1159q30 62 147 62q90 0 148 -58q19 -20 36 -54.5t33 -51.5q33 -35 98 -67t78 -44q41 -35 41 -127q0 -52 -28 -122q-46 -95 -98 -202t-113.5 -238.5t-108.5 -244.5t-70 -188q-16 -74 -16 -90q0 -23 12 -41q119 -133 119 -233q0 -162 -102 -321.5
t-235 -263.5t-199 -104q-82 0 -133.5 25.5t-51.5 60.5q0 26 28 84t45 108.5t17 127.5q0 97 -60 136.5t-128 39.5q-77 0 -141.5 -33t-146.5 -93.5t-142 -92t-127 -31.5q-145 0 -258 148q-43 59 -95.5 202.5t-52.5 276.5q0 88 63 282.5t191.5 499t294.5 656.5q60 131 152 131
q49 0 161.5 -60t202.5 -149q86 -86 86 -176q0 -26 -45 -140q-188 -338 -340 -802q-12 -37 -12 -58q0 -37 33 -37q60 0 209 123z" />
    <glyph glyph-name="divide" unicode="&#xf7;" horiz-adv-x="2286" 
d="M1475 807q-13 -3 -80 -49t-142 -78.5t-159 -32.5q-71 0 -168.5 97.5t-167.5 246t-70 295.5q0 214 137.5 501t247.5 413q44 49 115 49q77 0 149.5 -41.5t178.5 -130.5q79 -64 96.5 -98t17.5 -95q0 -51 -78.5 -198t-101.5 -216q-8 -24 -8 -45q0 -57 49 -57q36 0 128.5 94.5
t125.5 155.5q35 64 128.5 256t144 252.5t132.5 60.5q58 0 100 -23.5t97.5 -75.5t89.5 -81q75 -50 121.5 -95t46.5 -102q0 -26 -9.5 -52.5t-27.5 -61.5t-24 -49q-89 -188 -149.5 -314t-126 -284t-133 -368.5t-132.5 -487.5q-30 -114 -59 -166t-89 -52q-64 0 -303 95
q-62 25 -100 41t-64 39.5t-39.5 66t-13.5 115.5q0 50 20.5 124t50 157.5t69.5 193.5z" />
    <glyph glyph-name="divide" unicode="&#x447;" horiz-adv-x="2286" 
d="M1475 807q-13 -3 -80 -49t-142 -78.5t-159 -32.5q-71 0 -168.5 97.5t-167.5 246t-70 295.5q0 214 137.5 501t247.5 413q44 49 115 49q77 0 149.5 -41.5t178.5 -130.5q79 -64 96.5 -98t17.5 -95q0 -51 -78.5 -198t-101.5 -216q-8 -24 -8 -45q0 -57 49 -57q36 0 128.5 94.5
t125.5 155.5q35 64 128.5 256t144 252.5t132.5 60.5q58 0 100 -23.5t97.5 -75.5t89.5 -81q75 -50 121.5 -95t46.5 -102q0 -26 -9.5 -52.5t-27.5 -61.5t-24 -49q-89 -188 -149.5 -314t-126 -284t-133 -368.5t-132.5 -487.5q-30 -114 -59 -166t-89 -52q-64 0 -303 95
q-62 25 -100 41t-64 39.5t-39.5 66t-13.5 115.5q0 50 20.5 124t50 157.5t69.5 193.5z" />
    <glyph glyph-name="oslash" unicode="&#xf8;" horiz-adv-x="3281" 
d="M2175 197q-297 -181 -442 -181q-102 0 -161.5 37.5t-182.5 175.5q-69 -34 -137.5 -67t-144 -56.5t-157.5 -23.5q-59 0 -166 63t-193.5 198t-86.5 341q0 80 51.5 273t141 451t175 462t144.5 301q52 82 127 82q59 0 92 -17.5t125 -85.5q139 -104 188 -158.5t49 -107.5
q0 -51 -73 -219t-128.5 -312.5t-121.5 -402.5q-17 -96 -17 -102q0 -41 25 -41q74 0 168 98q57 185 94.5 297t88.5 258t116 327t98 277q27 68 55.5 106t96.5 38q30 0 83.5 -27t118 -66.5t85.5 -50.5q217 -105 217 -241q0 -63 -53 -213.5t-147.5 -389.5t-127.5 -331
q-8 -42 -8 -49q0 -33 33 -33q67 0 159 111q54 133 144.5 364.5t134 345t180.5 465.5q51 94 152 94q61 0 108 -31.5t104.5 -95t69.5 -73.5q135 -111 135 -213q0 -71 -32 -168q-34 -94 -143.5 -372.5t-170 -444.5t-103 -328.5t-42.5 -276.5q0 -144 -45 -194.5t-139 -50.5
q-131 0 -305.5 51.5t-231.5 206.5z" />
    <glyph glyph-name="oslash" unicode="&#x448;" horiz-adv-x="3281" 
d="M2175 197q-297 -181 -442 -181q-102 0 -161.5 37.5t-182.5 175.5q-69 -34 -137.5 -67t-144 -56.5t-157.5 -23.5q-59 0 -166 63t-193.5 198t-86.5 341q0 80 51.5 273t141 451t175 462t144.5 301q52 82 127 82q59 0 92 -17.5t125 -85.5q139 -104 188 -158.5t49 -107.5
q0 -51 -73 -219t-128.5 -312.5t-121.5 -402.5q-17 -96 -17 -102q0 -41 25 -41q74 0 168 98q57 185 94.5 297t88.5 258t116 327t98 277q27 68 55.5 106t96.5 38q30 0 83.5 -27t118 -66.5t85.5 -50.5q217 -105 217 -241q0 -63 -53 -213.5t-147.5 -389.5t-127.5 -331
q-8 -42 -8 -49q0 -33 33 -33q67 0 159 111q54 133 144.5 364.5t134 345t180.5 465.5q51 94 152 94q61 0 108 -31.5t104.5 -95t69.5 -73.5q135 -111 135 -213q0 -71 -32 -168q-34 -94 -143.5 -372.5t-170 -444.5t-103 -328.5t-42.5 -276.5q0 -144 -45 -194.5t-139 -50.5
q-131 0 -305.5 51.5t-231.5 206.5z" />
    <glyph glyph-name="ugrave" unicode="&#xf9;" horiz-adv-x="3432" 
d="M1380 254q-102 -51 -168 -85t-125.5 -56.5t-111.5 -22.5q-59 0 -170 87t-198 239.5t-87 341.5q0 113 90.5 403t214 589.5t207.5 420.5q72 98 144 98q62 0 94 -15t83.5 -56.5t104.5 -67.5q213 -112 213 -225q0 -50 -110 -262t-161.5 -320t-109.5 -307q-16 -49 -16 -90
q0 -58 33 -58q35 0 89.5 36.5t78.5 70.5q66 149 146 364t147.5 396.5t132.5 320.5q20 57 67.5 114.5t112.5 57.5q41 0 157 -79t121 -81q120 -56 164.5 -104.5t44.5 -120.5q0 -58 -52 -189t-157 -372.5t-147 -363.5q0 -91 29 -91q36 0 95.5 38.5t104.5 92.5q64 162 146 391
t135.5 369.5t128.5 304.5q76 164 201 164q63 0 106.5 -28t93.5 -84.5t74 -75.5q16 -14 68 -49.5t70 -61.5t18 -73q0 -102 -62 -226q-207 -424 -311 -700q-21 -65 -21 -82q0 -42 58 -123q65 -111 65 -168q0 -86 -74.5 -219t-193.5 -265t-251.5 -218.5t-242.5 -87.5
q-62 0 -110.5 24t-48.5 62q0 70 69.5 198t69.5 150q0 94 -66 94q-40 0 -171.5 -74t-237.5 -119t-230 -45t-189 47.5t-155 190.5z" />
    <glyph glyph-name="ugrave" unicode="&#x449;" horiz-adv-x="3432" 
d="M1380 254q-102 -51 -168 -85t-125.5 -56.5t-111.5 -22.5q-59 0 -170 87t-198 239.5t-87 341.5q0 113 90.5 403t214 589.5t207.5 420.5q72 98 144 98q62 0 94 -15t83.5 -56.5t104.5 -67.5q213 -112 213 -225q0 -50 -110 -262t-161.5 -320t-109.5 -307q-16 -49 -16 -90
q0 -58 33 -58q35 0 89.5 36.5t78.5 70.5q66 149 146 364t147.5 396.5t132.5 320.5q20 57 67.5 114.5t112.5 57.5q41 0 157 -79t121 -81q120 -56 164.5 -104.5t44.5 -120.5q0 -58 -52 -189t-157 -372.5t-147 -363.5q0 -91 29 -91q36 0 95.5 38.5t104.5 92.5q64 162 146 391
t135.5 369.5t128.5 304.5q76 164 201 164q63 0 106.5 -28t93.5 -84.5t74 -75.5q16 -14 68 -49.5t70 -61.5t18 -73q0 -102 -62 -226q-207 -424 -311 -700q-21 -65 -21 -82q0 -42 58 -123q65 -111 65 -168q0 -86 -74.5 -219t-193.5 -265t-251.5 -218.5t-242.5 -87.5
q-62 0 -110.5 24t-48.5 62q0 70 69.5 198t69.5 150q0 94 -66 94q-40 0 -171.5 -74t-237.5 -119t-230 -45t-189 47.5t-155 190.5z" />
    <glyph glyph-name="uacute" unicode="&#xfa;" horiz-adv-x="2490" 
d="M1348 -61q-170 0 -308.5 93.5t-216.5 243t-78 302.5q0 109 62 277.5t154.5 343.5t185.5 304q24 24 24 45q0 13 -24 13q-14 0 -60 -22.5t-124 -22.5q-42 0 -70.5 57t-28.5 168q0 32 -10 92t-10 92q0 85 31 135t116 99q73 40 275.5 89.5t298.5 49.5q89 0 123 -35t94 -125
q16 -22 77.5 -78t92 -94.5t30.5 -81.5q0 -33 -24.5 -84t-94 -166.5t-73.5 -122.5q234 82 356 82q121 0 197 -86q213 -237 213 -446q0 -171 -120 -368.5t-310.5 -369t-400 -278t-377.5 -106.5zM1647 1151q-168 -317 -168 -463q0 -86 69 -86q55 0 135.5 84t144.5 184.5
t64 128.5q0 54 -32 54q-1 0 -119 -33q-47 0 -94 131z" />
    <glyph glyph-name="uacute" unicode="&#x44a;" horiz-adv-x="2490" 
d="M1348 -61q-170 0 -308.5 93.5t-216.5 243t-78 302.5q0 109 62 277.5t154.5 343.5t185.5 304q24 24 24 45q0 13 -24 13q-14 0 -60 -22.5t-124 -22.5q-42 0 -70.5 57t-28.5 168q0 32 -10 92t-10 92q0 85 31 135t116 99q73 40 275.5 89.5t298.5 49.5q89 0 123 -35t94 -125
q16 -22 77.5 -78t92 -94.5t30.5 -81.5q0 -33 -24.5 -84t-94 -166.5t-73.5 -122.5q234 82 356 82q121 0 197 -86q213 -237 213 -446q0 -171 -120 -368.5t-310.5 -369t-400 -278t-377.5 -106.5zM1647 1151q-168 -317 -168 -463q0 -86 69 -86q55 0 135.5 84t144.5 184.5
t64 128.5q0 54 -32 54q-1 0 -119 -33q-47 0 -94 131z" />
    <glyph glyph-name="ucircumflex" unicode="&#xfb;" horiz-adv-x="3224" 
d="M1126 2191q40 64 63 79.5t109 15.5q47 0 77.5 -26t51 -62t43.5 -76q16 -22 71.5 -75.5t82.5 -90.5t27 -80q0 -95 -213 -451q211 74 348 74q132 0 201 -78q80 -86 148.5 -225.5t68.5 -220.5q0 -201 -123.5 -400.5t-317 -362t-404.5 -259t-368 -96.5q-275 0 -430 201
t-155 483q0 111 115 408.5t288 650.5t317 591zM3379 1630q-58 -169 -135.5 -352.5t-152.5 -359.5t-139 -366.5t-126 -449.5q-21 -84 -58.5 -119.5t-109.5 -35.5q-104 0 -168 23t-118 91l-112 140t-68.5 110t-24.5 123q0 87 49 205q113 287 212.5 519t261 597t185.5 420
q50 111 115 111q35 0 70.5 -24t95.5 -79t96 -82q115 -82 141.5 -113t26.5 -124q0 -116 -41 -234zM1311 1094q-64 -118 -132.5 -282.5t-68.5 -246.5q0 -61 45 -61q55 0 139.5 76t153 168.5t68.5 119.5q0 53 -15.5 63.5t-75.5 10.5q-35 0 -68.5 51.5t-45.5 100.5z" />
    <glyph glyph-name="ucircumflex" unicode="&#x44b;" horiz-adv-x="3224" 
d="M1126 2191q40 64 63 79.5t109 15.5q47 0 77.5 -26t51 -62t43.5 -76q16 -22 71.5 -75.5t82.5 -90.5t27 -80q0 -95 -213 -451q211 74 348 74q132 0 201 -78q80 -86 148.5 -225.5t68.5 -220.5q0 -201 -123.5 -400.5t-317 -362t-404.5 -259t-368 -96.5q-275 0 -430 201
t-155 483q0 111 115 408.5t288 650.5t317 591zM3379 1630q-58 -169 -135.5 -352.5t-152.5 -359.5t-139 -366.5t-126 -449.5q-21 -84 -58.5 -119.5t-109.5 -35.5q-104 0 -168 23t-118 91l-112 140t-68.5 110t-24.5 123q0 87 49 205q113 287 212.5 519t261 597t185.5 420
q50 111 115 111q35 0 70.5 -24t95.5 -79t96 -82q115 -82 141.5 -113t26.5 -124q0 -116 -41 -234zM1311 1094q-64 -118 -132.5 -282.5t-68.5 -246.5q0 -61 45 -61q55 0 139.5 76t153 168.5t68.5 119.5q0 53 -15.5 63.5t-75.5 10.5q-35 0 -68.5 51.5t-45.5 100.5z" />
    <glyph glyph-name="udieresis" unicode="&#xfc;" horiz-adv-x="2150" 
d="M1106 2191q40 64 63 79.5t109 15.5q48 0 77.5 -24.5t60 -77t38.5 -62.5q18 -25 72 -77t81 -89t27 -80q0 -83 -213 -451q202 74 344 74q133 0 201 -78q80 -85 148.5 -224t68.5 -222q0 -201 -122.5 -400t-317 -362.5t-403.5 -259.5t-365 -96q-184 0 -317 94.5t-201 251
t-68 338.5q0 109 114.5 408.5t285 649t317.5 592.5zM1294 1094q-204 -385 -204 -525q0 -65 49 -65q55 0 139 76t152.5 168.5t68.5 119.5q0 53 -16.5 63.5t-77.5 10.5q-35 0 -65.5 49.5t-45.5 102.5z" />
    <glyph glyph-name="udieresis" unicode="&#x44c;" horiz-adv-x="2150" 
d="M1106 2191q40 64 63 79.5t109 15.5q48 0 77.5 -24.5t60 -77t38.5 -62.5q18 -25 72 -77t81 -89t27 -80q0 -83 -213 -451q202 74 344 74q133 0 201 -78q80 -85 148.5 -224t68.5 -222q0 -201 -122.5 -400t-317 -362.5t-403.5 -259.5t-365 -96q-184 0 -317 94.5t-201 251
t-68 338.5q0 109 114.5 408.5t285 649t317.5 592.5zM1294 1094q-204 -385 -204 -525q0 -65 49 -65q55 0 139 76t152.5 168.5t68.5 119.5q0 53 -16.5 63.5t-77.5 10.5q-35 0 -65.5 49.5t-45.5 102.5z" />
    <glyph glyph-name="yacute" unicode="&#xfd;" horiz-adv-x="2073" 
d="M971 -90q-191 0 -344 78.5t-236.5 204.5t-83.5 258q0 168 88.5 299t231.5 131q92 0 138 -48t82.5 -143t64 -134.5t92.5 -39.5q53 0 102.5 36.5t89 89.5t68.5 105t51 93q-175 -9 -266 -9q-58 0 -78.5 72t-20.5 277q0 151 189 151q302 0 393 25q78 175 78 270q0 90 -58 90
q-39 0 -92.5 -57.5t-105.5 -91.5t-162 -35q-59 0 -109.5 110.5t-50.5 245.5q0 134 98.5 228.5t265 144t365.5 49.5q193 0 314 -132t172 -315t51 -339q0 -103 -67 -362t-219.5 -549.5t-413.5 -496.5t-627 -206z" />
    <glyph glyph-name="yacute" unicode="&#x44d;" horiz-adv-x="2073" 
d="M971 -90q-191 0 -344 78.5t-236.5 204.5t-83.5 258q0 168 88.5 299t231.5 131q92 0 138 -48t82.5 -143t64 -134.5t92.5 -39.5q53 0 102.5 36.5t89 89.5t68.5 105t51 93q-175 -9 -266 -9q-58 0 -78.5 72t-20.5 277q0 151 189 151q302 0 393 25q78 175 78 270q0 90 -58 90
q-39 0 -92.5 -57.5t-105.5 -91.5t-162 -35q-59 0 -109.5 110.5t-50.5 245.5q0 134 98.5 228.5t265 144t365.5 49.5q193 0 314 -132t172 -315t51 -339q0 -103 -67 -362t-219.5 -549.5t-413.5 -496.5t-627 -206z" />
    <glyph glyph-name="thorn" unicode="&#xfe;" horiz-adv-x="3355" 
d="M2974 315q-173 -173 -319.5 -274.5t-303.5 -101.5q-127 0 -273.5 49t-246.5 127q-291 220 -291 635q-147 0 -217 -25q-144 -285 -283 -631q-46 -119 -114 -119q-23 0 -49 10.5t-78.5 43.5t-65.5 41q-30 20 -102 23t-94 30q-79 105 -103 161.5t-24 141.5t32.5 172
t97.5 220t87 190q-33 65 -33 217q3 81 41 104t168 51q87 184 165 420.5t115 307t117 71.5q67 0 135 -49t181 -148q8 -7 66.5 -47.5t82 -81t23.5 -116.5q0 -53 -95 -328q75 0 115 21q136 251 328 476t356 310q91 33 148 33q59 0 98 -18t70.5 -51t69.5 -87.5t97 -138.5
q25 -3 85.5 -11t113.5 -18t97 -26.5t65 -38.5q115 -110 115 -557q0 -163 -37.5 -338.5t-122 -344.5t-217.5 -305zM2339 635q79 79 166.5 221.5t147 283.5t59.5 212q0 127 -62 127q-30 0 -61 -37q-243 -288 -336 -709q-8 -33 -8 -78q0 -57 32 -57q31 0 62 37z" />
    <glyph glyph-name="thorn" unicode="&#x44e;" horiz-adv-x="3355" 
d="M2974 315q-173 -173 -319.5 -274.5t-303.5 -101.5q-127 0 -273.5 49t-246.5 127q-291 220 -291 635q-147 0 -217 -25q-144 -285 -283 -631q-46 -119 -114 -119q-23 0 -49 10.5t-78.5 43.5t-65.5 41q-30 20 -102 23t-94 30q-79 105 -103 161.5t-24 141.5t32.5 172
t97.5 220t87 190q-33 65 -33 217q3 81 41 104t168 51q87 184 165 420.5t115 307t117 71.5q67 0 135 -49t181 -148q8 -7 66.5 -47.5t82 -81t23.5 -116.5q0 -53 -95 -328q75 0 115 21q136 251 328 476t356 310q91 33 148 33q59 0 98 -18t70.5 -51t69.5 -87.5t97 -138.5
q25 -3 85.5 -11t113.5 -18t97 -26.5t65 -38.5q115 -110 115 -557q0 -163 -37.5 -338.5t-122 -344.5t-217.5 -305zM2339 635q79 79 166.5 221.5t147 283.5t59.5 212q0 127 -62 127q-30 0 -61 -37q-243 -288 -336 -709q-8 -33 -8 -78q0 -57 32 -57q31 0 62 37z" />
    <glyph glyph-name="ydieresis" unicode="&#xff;" horiz-adv-x="2286" 
d="M1446 537q-230 -205 -372 -318.5t-251 -170t-200 -56.5q-93 0 -165.5 74.5t-72.5 216.5q0 35 -20.5 82.5t-30.5 77t-10 94.5q0 133 151 155q91 16 162.5 39.5t182.5 68.5t184 72q-134 48 -196.5 174t-62.5 261q0 178 154 354t392.5 316.5t484.5 222t415 81.5
q91 0 143.5 -51t91.5 -144t40 -95q14 -23 62.5 -63t73 -74.5t24.5 -92.5q0 -109 -58 -213q-122 -224 -243.5 -509t-231.5 -605q-25 -103 -51.5 -211.5t-79.5 -184t-152 -75.5q-91 0 -137 24.5t-121 86.5q-13 10 -78 45.5t-89.5 60.5t-24.5 70q0 43 39 143t47 144zM1942 1696
q-43 0 -148 -76t-191.5 -180t-86.5 -183q0 -90 131 -118q23 46 82.5 176t104 211.5t108.5 169.5z" />
    <glyph glyph-name="ydieresis" unicode="&#x44f;" horiz-adv-x="2286" 
d="M1446 537q-230 -205 -372 -318.5t-251 -170t-200 -56.5q-93 0 -165.5 74.5t-72.5 216.5q0 35 -20.5 82.5t-30.5 77t-10 94.5q0 133 151 155q91 16 162.5 39.5t182.5 68.5t184 72q-134 48 -196.5 174t-62.5 261q0 178 154 354t392.5 316.5t484.5 222t415 81.5
q91 0 143.5 -51t91.5 -144t40 -95q14 -23 62.5 -63t73 -74.5t24.5 -92.5q0 -109 -58 -213q-122 -224 -243.5 -509t-231.5 -605q-25 -103 -51.5 -211.5t-79.5 -184t-152 -75.5q-91 0 -137 24.5t-121 86.5q-13 10 -78 45.5t-89.5 60.5t-24.5 70q0 43 39 143t47 144zM1942 1696
q-43 0 -148 -76t-191.5 -180t-86.5 -183q0 -90 131 -118q23 46 82.5 176t104 211.5t108.5 169.5z" />
    <glyph glyph-name="nonbreakingspace" unicode="&#xa0;" horiz-adv-x="2048" 
 />
  </font>
</defs>
</svg>
