<?xml version="1.0" standalone="no"?>
<!DOCTYPE svg PUBLIC "-//W3C//DTD SVG 1.1//EN" "http://www.w3.org/Graphics/SVG/1.1/DTD/svg11.dtd" >
<svg xmlns="http://www.w3.org/2000/svg" xmlns:xlink="http://www.w3.org/1999/xlink" version="1.1">
<metadata>
Created by FontForge 20170924 at Wed Dec 10 17:57:26 1997
 By www-data
a_AlbionicTitulCameoWebbed *Arsenal Company (c) 1997* FAX: (095)924-3775; e-Mail: arsenal@itco.msk.su; Phone: (095)924-5811 (Design and Featuring W.Chufarofsky &#38; M.Slutsker)
</metadata>
<defs>
<font id="AAlbionicTitulCmWb" horiz-adv-x="656" >
  <font-face 
    font-family="a_AlbionicTitulCmWb"
    font-weight="400"
    font-stretch="normal"
    units-per-em="1000"
    panose-1="5 11 8 4 7 3 8 4 6 4"
    ascent="800"
    descent="-200"
    x-height="821"
    cap-height="821"
    bbox="0 -162 1102 821"
    underline-thickness="0"
    underline-position="0"
    unicode-range="U+0020-2122"
  />
<missing-glyph horiz-adv-x="500" 
d="M63 0v821h375v-821h-375zM125 63h250v696h-250v-696z" />
    <glyph glyph-name=".notdef" horiz-adv-x="500" 
d="M63 0v821h375v-821h-375zM125 63h250v696h-250v-696z" />
    <glyph glyph-name=".null" horiz-adv-x="0" 
 />
    <glyph glyph-name="nonmarkingreturn" horiz-adv-x="387" 
 />
    <glyph glyph-name="space" unicode=" " horiz-adv-x="387" 
 />
    <glyph glyph-name="exclam" unicode="!" horiz-adv-x="326" 
d="M302 821v-3l-32 3h32zM302 605l-43 13q-4 31 -43 44l51 143l35 -3v-197zM302 472l-64 9l8 37q18 81 13 81l43 -10v-117zM113 310l-19 3l14 33zM302 302l-91 6l27 159l64 -8v-157zM302 211l-232 24l22 65l21 -3l14 -67h73l8 64l94 -5v-78zM302 94l-59 6q-8 56 -76 61
q-67 5 -86 -45l-51 3l38 105l234 -24v-106zM302 -49l-278 54v89l3 14l54 -5q-7 -20 -7 -36q0 -32 24 -53.5t57 -23.5q37 -3 64 17t27 56q0 10 -3 23l59 -5v-130zM302 -162h-278v151l278 -54v-97zM186 821h65l-24 -70zM194 664h-59l-86 108l35 49h89l46 -84zM119 664
q-46 -11 -53 -42q-3 -13 -1 -26t3 -21l-44 8v157l16 21zM24 362v205l46 -11q2 -13 6 -38l18 -105l-29 -75zM24 243v103l35 -22l-32 -86zM24 761v54l14 6h32z" />
    <glyph glyph-name="quotedbl" unicode="&#x22;" horiz-adv-x="383" 
d="M359 713h-8l8 24v-24zM359 672l-19 3l11 27h8v-30zM359 513l-62 13l43 138l19 -2v-149zM359 343l-108 16l24 78h6l16 71l62 -14v-151zM359 151l-165 14l54 175l111 -16v-173zM359 57l-197 -3l30 97l167 -11v-83zM359 -59l-219 29l22 73l197 3v-105zM359 -162h-256l35 119
l221 -33v-86zM359 821v-19l-30 19h30zM238 659l70 162l51 -33l-40 -129h-81zM248 443l-81 59l49 103h5zM103 354l59 132l86 -59l-37 -119zM70 281l27 65l108 -49l-16 -49zM24 105v71l41 91l121 -32l-59 -192zM24 -70v156l95 -59l-33 -108zM24 -162v78l57 -8l-19 -70h-38z
M227 821h70l-16 -38zM167 648l6 11h-22l-127 65v5l81 92h95l70 -54l-49 -108h-8l3 -14l-8 -13zM65 659l21 -146l-62 62v127l92 -43h-51zM167 632l33 -16l-57 -125zM24 448v108l68 -62l8 -57h19l-11 -19zM24 327v110l79 -27l-46 -102zM24 310l25 -13l-25 -59v72zM24 821h52
l-52 -60v60z" />
    <glyph glyph-name="numbersign" unicode="#" horiz-adv-x="617" 
d="M379 501l31 181h115l-30 -181h102l-11 -60h-100l-29 -159h101l-8 -60h-102l-29 -180h-116l30 180h-97l-29 -180h-115l30 180h-102l9 60h102l27 159h-102l11 60h100l30 181h115l-30 -181h97zM246 282h97l28 159h-100z" />
    <glyph glyph-name="dollar" unicode="$" horiz-adv-x="588" 
d="M564 -62l-27 -3l27 119v-116zM564 -162h-46l17 78l29 3v-81zM564 362l-40 -11l40 124v-113zM564 194l-43 6q0 59 -16 94l13 38l46 14v-152zM513 132q8 28 8 54l43 -5v-49l-8 -24zM429 22q62 40 81 102l46 -27l-35 -156zM356 -162l160 86l-19 -86h-141zM564 821v-27
l-156 21l2 6h154zM564 578l-218 167l54 60l164 -22v-205zM251 616q8 0 8 -6v-32l-32 27l11 11h13zM297 548v68q84 -4 113 -52q13 -22 12 -50t-12 -58l87 19q0 195 -200 195v10l43 49l224 -173v-11l-56 -172zM259 448q-75 32 -75 97l35 44l40 -35v-106zM486 324
q-37 49 -103 76l-86 35v89l200 -168zM297 230q16 -5 26.5 -14t21.5 -18l-48 26v6zM356 192q-8 4 -11 6zM76 413q7 -32 26 -62q22 -36 49 -51l-124 67l43 49zM259 62l-113 73q-2 8 -2 34q0 25 13 66l-87 -22q19 55 33 75q2 -4 4 -9q-10 -30 -40 -79q-4 -14 -2 -16l-41 24v148
l235 -126v-168zM370 173q9 -23 11 -45q7 -74 -84 -85v168zM367 -3q4 1 8 3l-2 -8zM259 43q-84 4 -108 70zM302 -162l-278 200v151l41 -24q5 -155 194 -176v-75h38v75h11q2 0 27 5q5 1 8 1l24 -17l-48 -140h-17zM24 -162v181l251 -181h-251zM297 821h86l-54 -60zM238 664
q-40 -5 -68 -19l-146 154v22h251l41 -70l-24 -27h-33v-36zM154 637q-70 -41 -78 -127l-52 73v189zM24 556l46 -70l-46 -54v124z" />
    <glyph glyph-name="percent" unicode="%" horiz-adv-x="807" 
d="M783 580l-46 17l46 73v-90zM783 356l-127 103l76 124l51 -21v-206zM562 205q2 28 9 58q12 46 29 44q32 -4 32 -131zM783 113l-43 19q5 40 5 77q0 77 -64 107q-34 16 -98 16l65 105l135 -108v-216zM459 124q0 -36 5 -38l-21 11zM632 157q0 -37 -6 -75q-9 -61 -29 -59
q-35 4 -35 161zM783 -86l-157 83q95 12 111 116l46 -21v-178zM783 -162h-113l-311 119l78 129l38 -21q29 -70 122 -70l186 -98v-59zM289 -162l65 105l272 -105h-337zM783 821v-57l-135 57h135zM548 756l68 59l167 -70v-27l-59 -97zM524 535l56 124h-67l-38 -92l-75 54
l137 121l176 -137l-87 -141zM381 356l-46 46q16 39 16 86t-8 79l40 38l81 -57zM535 324q-47 -22 -63 -65l-45 49l91 205l95 -65zM243 472q0 -41 -11 -91l-43 46zM343 270l-68 68q35 14 54 51l44 -49zM389 221l32 71l43 -49v-20q-1 -17 -5 -23l-22 -30zM227 367
q-4 -7 -17 -10q-16 -3 -29 4.5t-13 23.5q0 10 8 25l2 6zM248 49l-186 261l51 46q30 -28 78 -32q36 -3 68 8l79 -78zM284 0h8l91 208l49 -49l-122 -197zM24 32v241l25 24l189 -267l-11 -30h32l38 -54l-49 -76zM24 -162v173l214 -154l-11 -19h-203zM502 821h97l-48 -43z
M319 767l86 54h76l56 -51l-159 -141zM335 591q-11 21 -65 52q-57 32 -93 32l125 81l60 -140zM152 659q3 16 25 16zM152 659v-1q-1 -1 -1 -2v3h1zM176 572q3 19 10 38q12 29 26 24q29 -9 31 -124l-41 -35zM108 626q-39 -35 -43 -118l-41 40v27zM173 529l16 -65l-16 -16v81z
M24 526l41 -40q0 -60 27 -105l-68 -62v207zM243 821h119l-97 -60zM70 821h157l21 -68l-124 -78zM24 821h25l59 -154l-84 -54v208z" />
    <glyph glyph-name="ampersand" unicode="&#x26;" horiz-adv-x="661" 
d="M637 213l-11 3l11 32v-35zM637 119l-35 13l22 68h13v-81zM637 -92h-102l29 92h30l-19 35l24 84l38 -14v-197zM637 -162h-119l17 54h102v-54zM637 572l-70 -13l59 121l11 3v-111zM637 351l-59 38q5 16 5 27v24h-43l-5 -19l-27 22l51 100l78 16v-208zM532 405
q-14 -86 -46 -157l-32 6l-22 38l70 135zM540 238q31 76 38 135l51 -41l-30 -105zM481 232l-5.5 -3.5t-3.5 -9.5l-10 19zM502 167q11 19 33 60l59 -11l-43 -135zM370 92q-25 -33 -51 -35l32 67zM356 16q19 11 38 27l27 -43h103l-14 -49zM400 -162l-149 84l35 67q28 5 54 16
l165 -67l-30 -100h-75zM211 -162l32 68l121 -68h-153zM524 821h113v-81l-11 -22zM437 621q-10 14 -23 22q-19 11 -25 16l-141 119l60 43h192l113 -119l-81 -157zM292 564q0 34 25 44q32 13 62 -11t30 -58q0 -24 -15 -53l-102 70v8zM327 670q-78 0 -127 -54l-87 59l122 86
l116 -91h-24zM437 459q19 37 19 71t-8 59l70 -60l-48 -94zM194 608q-18 -29 -21 -52l-108 78l43 30zM389 475q-10 -16 -38 -35l-43 73q-3 9 -11 27zM383 397q28 20 49 51l32 -21l-32 -65zM216 308q5 5 14.5 11t9.5 5l22 -38zM167 540q-2 -8 -3 -15q-5 -29 15 -83
q11 -30 37 -72q-16 -6 -59 -35l-133 67v197l35 27zM383 378l38 -27l-11 -22zM140 324q-75 -58 -75 -146l-41 27v178zM273 68q-49 31 -70 116q-8 34 -7 64q2 31 12 44l70 -36l46 -86zM135 -162l-111 132v214l41 -25q17 -159 167 -170l-75 -151h-22zM24 -162v108l92 -108h-92z
M151 821h114l-76 -57zM24 732v89h108l44 -65l-125 -92zM24 683l11 -30l-11 -8v38z" />
    <glyph glyph-name="quotesingle" unicode="'" horiz-adv-x="237" 
d="M213 -130l-13 -5l13 154v-149zM213 -162h-13v11l13 5v-16zM213 572l-51 25l11 62h-33l44 159l29 -8v-238zM213 432l-67 81l11 67l56 -24v-124zM213 332l-162 -16l41 159l8 -38h35l11 63l67 -84v-84zM43 281l6 24l164 14v-52l-5 -59zM24 59v146l16 65l165 -76l-5 -86z
M24 -92v135l170 46l-16 -219zM24 -162v54l152 -35l-3 -19h-149zM24 799v8l8 14h138l-3 -11zM65 659l5 -38l-46 30v135l138 10l-38 -137h-59zM24 478v154l52 -33l10 -75l-16 -65zM24 370v94l41 -16l-22 -86zM24 356l14 -5l-14 -54v59z" />
    <glyph glyph-name="parenleft" unicode="(" horiz-adv-x="402" 
d="M378 545h-16l16 49v-49zM378 405h-49l33 121l16 3v-124zM378 275l-81 -5l32 119h49v-114zM378 224l-86 14l5 21l81 8v-43zM378 59l-113 11q0 3 -5.5 12t-5.5 10l38 135l86 -16v-152zM378 -151l-178 16l32 124q48 -31 103 -54v41q-29 28 -60 75l103 -11v-191zM194 -162
l6 11l124 -11h-130zM378 821v-54l-40 54h40zM294 610q13 17 41 49v54q-59 -22 -119 -65l92 173h13l57 -79v-72l-24 -87zM230 459q21 85 56 135l60 -27l-44 -162zM213 346q3 34 14 100l70 -54l-11 -52zM65 324q0 -44 8 -92l-49 22v11l41 78v-19zM230 167q-17 71 -17 168
l68 -6l-43 -162h-8zM76 216q28 -99 75 -151l-127 21v152zM24 -27v103l138 -27q11 -11 32 -33l-18 -75zM24 -162v124l149 -35l-27 -89h-122zM81 680l108 141h92l5 -6l-62 -124zM189 626q-41 -41 -67 -83l-57 110l8 17l143 8zM113 532q-25 -45 -32 -86l-57 13v140l33 44z
M24 443l52 -11q0 -18 -6 -30l-46 -92v133zM84 821h83l-32 -43zM24 821h33l67 -54l-100 -133v187z" />
    <glyph glyph-name="parenright" unicode=")" horiz-adv-x="402" 
d="M378 821v-60l-78 49l8 11h70zM378 599l-157 54l76 141l81 -52v-143zM378 491l-100 38q-18 32 -73 87l14 27l159 -54v-98zM154 513q26 -77 30 -162h-114zM378 348l-46 3q-9 95 -46 157l92 -30v-130zM184 335v-16v-33q0 -11 -3 -32l-127 59l11 25zM378 157l-59 27
q16 56 16 94v57h43v-178zM178 238q-8 -79 -35 -141l-119 49v108l25 48zM378 0l-127 51q46 58 62 122l65 -33v-140zM286 -162l-262 76v210l111 -43q-29 -64 -70 -105v-57q106 45 173 119l140 -54v-97l-5 -49h-87zM24 -162v59l208 -59h-208zM197 815l3 6h92l-8 -14zM116 702
l73 100l86 -8l-62 -119zM189 626q-10 10 -43 33q-39 27 -43 21l5 8l97 -26zM24 554v18l52 73q41 -49 58 -80q8 -15 6 -22l-5 -17zM24 443v97l103 -27l-46 -86zM24 427l49 -11l-49 -97v108zM81 691l-35 130h143l-100 -135zM24 821h8l33 -133v-29l-41 -60v222z" />
    <glyph glyph-name="asterisk" unicode="*" horiz-adv-x="440" 
d="M416 292l-33 5l33 140v-145zM416 202l-52 9l17 70l35 -3v-76zM416 -27l-111 -11l57 232l54 -5v-216zM416 -146l-130 11l16 81l114 11v-103zM416 -162h-135l5 14l130 -9v-5zM416 537l-38 89l35 103h3v-192zM316 448l27 76l35 5q-25 31 -22 38l17 46l43 -95l-16 -64z
M270 319l27 78q29 29 42 25l-15 15h70l-48 -197zM216 157l51 145l73 -78l-27 -111zM159 -8l52 154l97 -46l-19 -78zM146 -49l11 27l129 33l-38 -154zM108 -162l35 103l100 -98v-5h-135zM248 821h168v-35l-30 -89zM89 772l51 49h92l146 -130v-11zM221 489l11 -25l-16 14z
M194 513l-13 -11l-24 16zM238 540l21 130q-30 -10 -38 -10q-9 0 -37 10l24 -130l-114 59q-4 -14 -10 -32l-60 38v97l57 57l286 -89l-21 -71zM248 513l71 8l-22 -57zM119 437l-95 65v87l52 -38l-11 -22l59 -8l46 -30zM178 400l30 64l35 -27l27 -48l-16 -38zM24 338v151
l89 -57l-10 -11q21 -11 58 -35q8 -7 6 -13l6 19l75 -49l-51 -154zM24 122v197l165 -141l-46 -129zM24 -16v119l111 -71l-32 -89zM24 -162v130l70 -36l-32 -94h-38zM111 821l-60 -33l35 33h25zM24 761l19 17l70 43l-89 -92v32zM24 821h35l-35 -33v33z" />
    <glyph glyph-name="plus" unicode="+" horiz-adv-x="594" 
d="M570 -162h-8l8 38v-38zM570 632l-25 21l22 46h3v-67zM570 397l-111 62l81 178l30 -24v-216zM570 256l-200 6l13 30h146v72h-113l38 79l116 -65v-122zM332 146v30l32 72l206 -5v-132l-6 -19zM259 11l33 75h40v44l230 -54l-27 -125zM194 -124l60 124l275 -62l-21 -100z
M181 -162l8 22l184 -22h-192zM562 821h8v-92l-19 -43zM462 643l94 164l-16 -137l-54 -119zM362 472l92 154l24 -91l-62 -135zM332 364v52l24 40l54 -70l-10 -22h-68zM332 286v6h35l-8 -11zM265 124l-71 52l65 110h6v-162zM332 270l19 -5l-19 -44v49zM151 100l38 65l76 -57
v-22h5l-14 -27zM65 -51l81 140l102 -43l-83 -184zM24 -162v35l35 59l98 -86l-6 -8h-127zM481 821h64l-19 -35zM286 821h168l64 -49l-86 -146zM332 464v106h-67v-25l-160 184l122 92h40l154 -205l-86 -154zM265 421l-241 243l73 54l168 -194v-103zM265 364h-146l-95 76v208
l241 -243v-41zM211 292h21l-8 -11zM24 184v232l65 -52h-24v-72h113l33 -22l-89 -157zM24 35v127l87 -62l-52 -89zM24 16l27 -16l-27 -46v62zM167 821h19l-13 -11zM32 821h114l11 -22l-114 -83zM24 821l11 -111l-11 -8v119z" />
    <glyph glyph-name="comma" unicode="," horiz-adv-x="289" 
d="M265 705l-3 -3l3 16v-13zM265 634l-14 3l11 49l3 2v-54zM265 491l-44 -8l30 143l14 -5v-130zM265 319l-81 -22l37 173l44 8v-159zM265 186l-103 8l22 87l81 21v-116zM265 97l-44 8q-4 15 -31 42q-2 2 -15 11.5t-13 8.5v11l103 -5v-76zM127 0h11q-8 -15 -19 -43zM265 -116
l-162 -14q87 33 112 93q12 28 11 61q0 27 -5 68l44 -11v-197zM265 -162h-171l3 16l168 16v-32zM265 821v-19l-87 -30l22 49h65zM124 626l49 130l92 32l-35 -167zM76 502l43 108l108 -5l-33 -146zM24 364l49 127l116 -45l-16 -68zM24 221v130l146 16l-24 -108zM124 165
q-51 -11 -59 -62l-41 24v84l119 35zM24 -73v186l41 -27v-5q0 -45 27 -67l-27 -127zM24 -162v70l35 -38l-5 -32h-30zM97 821h89l-35 -87zM24 686v135h57l65 -100l-38 -100zM24 505v165l76 -60l-51 -135zM24 486l19 -22l-19 -46v68z" />
    <glyph glyph-name="hyphen" unicode="-" horiz-adv-x="351" 
d="M327 427l-35 -6l35 157v-151zM327 319l-57 -6l19 89l38 8v-91zM327 211l-41 -3v94l41 3v-94zM327 0l-127 -16l46 205h40v3l41 2v-194zM327 -132l-154 -25l27 125l127 16v-116zM327 -162h-111l111 16v-16zM327 821v-62l-68 56v6h68zM184 648l70 151l73 -59v-65l-8 -38z
M140 545l38 87l135 -11l-43 -194zM192 313l-106 108l49 111l130 -122l-22 -97h-51zM65 313v-21l-33 13l49 105l97 -97h-113zM24 143v138l6 11l35 -17v-86h146l-33 -151zM24 -19v143l149 -100l-16 -59zM24 -162v130l127 -17l-24 -113h-103zM194 821h54l-21 -49zM51 783l33 38
h100l37 -60l-43 -89zM24 578v167l19 25l127 -111l-46 -103zM24 424v138l89 -22l-59 -135zM24 410l25 -16l-25 -51v67zM24 783v38h35l-32 -41z" />
    <glyph glyph-name="hyphen" unicode="&#x2010;" horiz-adv-x="351" 
d="M327 427l-35 -6l35 157v-151zM327 319l-57 -6l19 89l38 8v-91zM327 211l-41 -3v94l41 3v-94zM327 0l-127 -16l46 205h40v3l41 2v-194zM327 -132l-154 -25l27 125l127 16v-116zM327 -162h-111l111 16v-16zM327 821v-62l-68 56v6h68zM184 648l70 151l73 -59v-65l-8 -38z
M140 545l38 87l135 -11l-43 -194zM192 313l-106 108l49 111l130 -122l-22 -97h-51zM65 313v-21l-33 13l49 105l97 -97h-113zM24 143v138l6 11l35 -17v-86h146l-33 -151zM24 -19v143l149 -100l-16 -59zM24 -162v130l127 -17l-24 -113h-103zM194 821h54l-21 -49zM51 783l33 38
h100l37 -60l-43 -89zM24 578v167l19 25l127 -111l-46 -103zM24 424v138l89 -22l-59 -135zM24 410l25 -16l-25 -51v67zM24 783v38h35l-32 -41z" />
    <glyph glyph-name="period" unicode="." horiz-adv-x="289" 
d="M265 11h-22l22 175v-175zM265 -43l-27 5l5 33l22 5v-43zM265 -162h-41l14 111l27 -3v-108zM265 821v-33l-41 19l6 14h35zM265 616l-87 43l43 135l44 -22v-156zM265 486l-125 49l33 108l92 -41v-116zM92 386l43 135l130 -51l-17 -151zM200 146q-5 3 -43 16l-125 43l54 162
l157 -65l-22 -164zM116 157q-29 -7 -43 -38q-12 -27 -9 -59q2 -16 6 -17l-46 11v116l6 19zM24 -81v119l52 -11q12 -29 28 -34q15 -5 33 0q14 5 29 10q19 6 28 2l6 -2l-16 -125zM24 -162v68l157 -41l-3 -27h-154zM135 821h81l-24 -73zM24 713v105l3 3h92l67 -87l-19 -56z
M24 562v137l135 -35l-43 -129zM24 364v181l84 -27l-54 -167zM24 281v70l25 -11l-22 -59h-3z" />
    <glyph glyph-name="slash" unicode="/" horiz-adv-x="472" 
d="M448 0l-32 5l32 162v-167zM448 -130l-54 17l22 105l32 -8v-114zM448 -162h-62l8 32l54 -16v-16zM448 821v-54l-189 27l22 27h167zM448 610l-51 22l8 27h-62l-138 65l46 54l197 -25v-143zM297 540l-200 43l103 127l135 -62zM448 508l-92 21l38 92l54 -27v-86zM230 356
l-206 103v24l68 87l200 -46zM286 329l65 184l97 -22v-151l-16 -84zM184 230l-160 67v146l200 -103zM238 205l43 108l143 -70l-19 -103zM135 94l-111 57v130l154 -65zM189 65l46 129l165 -70l-30 -151zM92 -27l-68 24v138l106 -54zM146 -46l38 100l178 -92l-14 -78zM24 -162
v146l62 -22l-21 -56h65l10 35l203 -71l-8 -32h-311zM70 821h184l-49 -60zM24 680v141h6l164 -70l-116 -146zM24 653l44 -59l-44 -54v113z" />
    <glyph glyph-name="zero" unicode="0" horiz-adv-x="645" 
d="M621 84l-19 2l19 71v-73zM621 -59l-57 5l35 130l22 -6v-129zM621 -162h-84l25 92l59 -6v-86zM621 580l-51 65l51 92v-157zM621 389l-43 16q-12 100 -49 159l33 65l59 -73v-167zM578 259q0 3 1 33l1 29v31q0 16 -2 37l43 -16v-79l-16 -59zM392 305q0 -156 -30 -227l-76 30
zM475 32q82 66 97 206l27 -22l-59 -208zM356 62q-12 -17 -27 -16q-27 2 -46 29q-8 11 -5 14l3 3zM324 -11q80 0 132 33l76 -30l-24 -84zM389 -162l-205 73l48 92q19 -2 60 -14l213 -92l-19 -59h-97zM146 -162l32 59l162 -59h-194zM621 821v-22l-105 -46l51 68h54zM470 688
l38 52l113 48v-18l-73 -138zM373 554q5 -33 16 -100l-70 27zM518 580q-32 46 -78 63l19 29l78 -56zM389 437l3 -51l-117 35l35 43zM259 173q-3 26 -4 89l-1 127l16 16l122 -32v-22l-100 -189zM270 124l-5 27l16 -5zM59 119l27 38q38 -103 122 -146l-14 -19zM24 -49v117
l30 40l135 -130l-35 -64zM24 -162v97l122 -32l-35 -65h-87zM319 821h226l-118 -162zM405 659q-32 8 -81 8t-81 -8l-173 73l138 89h92zM216 648q-82 -31 -124 -135l-68 81v103l35 21zM256 437q9 150 52 173l51 -21q0 -1 1.5 -3t1.5 -3zM86 494q-21 -71 -21 -181l-41 46v208z
M24 338l41 -49q2 -31 11 -89l-52 -76v214zM24 821h133l-103 -68zM24 783l16 -38l-16 -11v49z" />
    <glyph glyph-name="one" unicode="1" horiz-adv-x="434" 
d="M410 591l-43 -5v73h-19l62 146v-214zM410 451l-43 13v106l43 5v-124zM410 319l-43 10v125l43 -17v-118zM194 162l-37 3l37 83v-86zM410 143l-43 3v167l43 -11v-159zM194 59l-75 6l35 86l40 -5v-87zM410 38l-43 5v89l43 -2v-92zM410 -124l-321 108l30 70l75 -5v-49h173v30
l43 -3v-151zM410 -162h-378l54 130l324 -108v-22zM332 821h68l-44 -103zM281 659h-25l-2 -6l-33 -5l98 173l32 -116l-16 -41zM248 643q-23 -34 -45 -54q-9 -8 -14 -6l-5 3l32 51zM116 464q39 12 78 33v-173l-129 54zM32 321l27 46l127 -54l-21 -57zM24 49v253l3 6l130 -65
l-87 -216zM24 27l38 -16l-38 -95v111zM24 821h273l-86 -149zM140 556l-21 -5l-95 124v127l176 -138zM108 548q-14 -2 -43 -8v-70l-41 43v143zM24 491l44 -43l-44 -75v118z" />
    <glyph glyph-name="two" unicode="2" horiz-adv-x="594" 
d="M570 308l-19 5l19 57v-62zM570 73h-46v84h-16l43 140l19 -8v-216zM570 -81l-124 32l13 49h65v54h46v-135zM570 -162h-157l30 97l127 -32v-65zM570 821v-22l-25 22h25zM570 545l-62 33q-28 47 -78 60q-25 6 -51.5 12t-49.5 17l-10 5l124 149h81l46 -43v-233zM270 610
q68 0 86 -54q8 -25 7 -51q-1 -25 -7 -51l-151 81zM491 378q37 55 37 98t-10 75l52 -27v-35l-41 -133zM351 437q-10 -34 -54 -91l-130 97v3q-2 18 -2 25t2 10l33 40zM392 275q64 52 89 92l43 -21l-43 -138zM289 335q-12 -16 -54 -62q-24 -26 -41 -43l-2 -3l-168 70v11l73 86
l87 -24q-6 19 -17 57zM359 157l-67 29l91 79l89 -71l-10 -37h-103zM146 178l-122 65v43l160 -67zM259 157l22 21l48 -21h-70zM273 -162l-249 135v254l108 -62l-67 -71v-94h343l-52 -162h-83zM24 -162v113l208 -113h-208zM324 794l27 27h70l-75 -92zM292 667q-64 0 -95 -10
q-13 -4 -21 -12l134 133l25 -60zM200 583q5 5 19 10t19 12l-22 -27zM89 559q-5 -17 -13 -51l-44 -6zM173 529q0 5 7.5 24.5t8.5 18.5l13 -8zM24 491l3 3l49 6q-2 -10 -2 -32t4 -50l-54 -64v137zM216 821h113l-83 -84zM105 821h97l30 -92l-54 -54zM24 626v195h65l78 -151
l-102 -103zM24 594l25 -38l-25 -27v65z" />
    <glyph glyph-name="three" unicode="3" horiz-adv-x="599" 
d="M575 429l-38 3l38 103v-106zM575 292l-59 16q-14 28 -14 27l33 86l40 -5v-124zM575 59l-78 27q34 50 37 110q3 47 -10 90l51 -16v-211zM575 -70l-205 32l13 43q64 20 103 68l89 -30v-113zM575 -162h-148l-87 43l27 70l208 -32v-81zM327 -162l13 30l54 -30h-67zM524 643
l51 108v-179l-13 -35zM440 397l-30 16l44 89l24 16l8 49l27 59l41 -108l-49 -135zM354 278l-14 -5l11 19zM491 351q-10 13 -24 27l30 -8zM356 270q4 -20 3 -36t-3 -34l-43 16l22 49zM356 184q-7 -93 -37 -122q-15 -14 -37 -16q-24 -2 -52 3l78 151zM127 -162l78 157
q34 -7 70 -1q37 6 57 1l24 -6l-54 -151h-175zM489 821h86v-33l-13 -24zM502 659h-73l-175 162h210l92 -68l-59 -116zM148 659l-62 27l157 124l165 -151h-260zM389 518l-135 -81l-92 81h227zM94 659l9 -89l-73 67l46 38l37 -16h-19zM383 421q-28 8 -37 6l62 45zM24 410v211
l84 -73l3 -30h27l105 -89l-81 -51l32 -49l17 9q26 14 61 13t57 -27l-43 -86zM143 130v16q0 27 8 73l-81 -19q-1 -2 -3 -14l-2 -13l-41 21v195l251 -165l-64 -132zM189 59q-28 13 -41 49l52 -32zM24 -57v235l41 -27q0 -67 10 -86q19 -37 90 -60l-68 -135zM24 -162v86l65 -64
l-13 -22h-52zM68 810l18 11h119l6 -6l-114 -91zM24 780l30 19l32 -83l-62 -52v116zM24 821h19l-19 -11v11z" />
    <glyph glyph-name="four" unicode="4" horiz-adv-x="604" 
d="M580 605l-51 5l51 106v-111zM580 427l-110 5v51l54 114l56 -8v-162zM580 259l-110 19v138l110 -8v-149zM580 54l-110 30v54h70v75h-70v46l110 -19v-186zM297 54l-24 5l24 46v-51zM580 -16l-110 27v59l110 -32v-54zM580 -162h-205l-194 30l89 181l27 -9v-40h165l118 -27
v-135zM170 -162l8 11l81 -11h-89zM580 821v-22l-89 6l11 16h78zM470 645v14h-6l-27 70l46 59l97 -5v-22l-89 -181zM389 659l38 54l21 -54h-59zM470 599l11 -35l-11 -27v62zM297 462v-143l-65 32zM297 213h-41l-78 57l46 73l73 -38v-92zM146 213l27 41l59 -41h-86zM24 140v11
l41 57v-70h205l-65 -133zM24 -5v127l170 -127l-27 -65zM24 -162v143l133 -62l-38 -81h-95zM418 821h68l-38 -54zM235 821h170l32 -65l-70 -97zM313 597l-229 159l94 65h41l132 -168zM24 637v73l52 35l229 -162l-103 -140zM24 389v227l168 -184l-98 -130zM24 356l57 -67
l-57 -78v145zM65 821h75l-64 -46zM24 821h25l10 -54l-35 -27v81z" />
    <glyph glyph-name="five" unicode="5" horiz-adv-x="599" 
d="M575 821v-111l-78 8l65 103h13zM575 583l-78 49l5 27h-35l27 43l81 -5v-114zM575 416l-224 48l35 54h89l16 98l84 -49v-151zM286 351q15 -4 24 -13q11 -12 18 -15l-47 20zM332 321q-1 0 -4 2zM575 224l-43 19q-8 80 -62 130.5t-135 58.5l11 19l229 -51v-176zM346 302
q14 -34 14 -68t-4 -58l-159 24l78 129zM575 143l-51 8q8 31 10 53q2 21 -2 23l43 -16v-68zM354 162q-11 -88 -71 -111q-20 -8 -43 -2l-67 16q-20 20 -27 48l46 76zM575 -43l-186 48q103 38 129 133l57 -8v-173zM575 -162h-329l-222 59v6l84 135q45 -42 133 -49q60 -5 115 8
l219 -62v-97zM24 -162v43l160 -43h-160zM389 821h151l-22 -38zM378 659l-108 102l65 60l170 -54l-68 -108h-59zM184 659l-6 11l81 81l97 -92h-172zM275 518h76l-38 -59zM111 486l-81 46l102 94zM297 432q-6 -1 -17 -4l-21 -6q-26 -7 -27 -6l-59 35l11 67h72l49 -72zM86 340
l-62 49v129l84 -48zM216 410q-35 -13 -54 -32l8 59zM157 292q35 51 86 59l-51 -86zM24 130v237l62 -43l-5 -22l49 -10l54 -38l-38 -60q5 10 5 25l-81 -19q0 20 5 -52q1 -14 2 -42q1 -20 -1 -25l-6 -11zM24 108l35 -51l-35 -62v113zM289 821h21l-8 -6zM38 783l59 38h159
l36 -16l-141 -130zM24 667h116l-64 -59zM24 645l41 -46l-41 -37v83zM24 821h35l-35 -22v22z" />
    <glyph glyph-name="six" unicode="6" horiz-adv-x="618" 
d="M594 535l-19 5l19 46v-51zM594 413l-57 27l35 84l22 -6v-105zM594 216l-40 5v6q0 84 -46 140l27 60l59 -30v-181zM594 84l-76 8q33 48 33 113l43 -5v-116zM594 -27l-184 32q65 16 103 76l81 -8v-100zM594 -162h-154l-127 32l49 122q3 0 8 1.5t8 1.5l216 -35v-122z
M302 -162l8 16l60 -16h-68zM594 821v-84l-130 84h130zM383 761l57 60l154 -97v-76l-16 -38zM270 540q13 38 45 61t70 14q40 -9 55 -45q13 -32 3 -73zM502 486h16q12 60 1 99q-23 80 -117 89q-43 4 -100 -7l73 81l192 -151l-46 -116zM338 362q4 0 12 -10zM353 349q-1 2 -3 3z
M483 394q-47 43 -102 42q-56 -1 -95 -26l-38 33q3 29 17 81l172 -43v-9l22 6l54 -14zM275 405q-12 -8 -27 -25v49zM367 319q14 -53 13 -93q0 -10 -2 -26q-1 -10 0 -11l-127 92q11 82 62 86zM70 394q-4 -36 -4 -92t12 -113l-54 43v122l41 46zM340 51q-29 -20 -48 -14
q-35 10 -43 78q-4 31 -4 61q0 16 1.5 45.5t1.5 43.5l130 -95q0 5 -5 -35zM24 -32v240l62 -54q50 -144 192 -159l24 -22l-48 -119zM24 -162v111l219 -108v-3h-219zM286 821h124l-94 -103zM254 659q-46 -17 -81 -49l-146 149l97 62h146l32 -114zM24 516v216l135 -138
q-16 -16 -35 -53q-20 -40 -32 -55l-22 -27zM24 500l38 -46l-38 -44v90zM54 821h38l-33 -22zM24 821h16l6 -27l-22 -16v43z" />
    <glyph glyph-name="seven" unicode="7" horiz-adv-x="591" 
d="M567 400l-38 5l35 105h3v-110zM567 265l-97 -33l54 160l43 -6v-121zM567 97h-146l43 122l103 29v-151zM359 -89l59 170h149v-119l-5 -27zM410 -162l-70 14l16 45l200 27l-16 -86h-130zM567 821v-105l-119 105h119zM567 632l-43 21v6h-6l-162 83l211 -43v-67zM286 659
l65 75l140 -75h-205zM486 500q16 26 38 56v87l43 -25v-38l-38 -108zM383 508q-61 -67 -108 -146l-156 97l40 49h224zM400 286q27 111 78 195l40 -25l-70 -202zM265 346q-36 -65 -60 -138l-178 143l81 92zM367 78q4 109 27 187l43 -27l-56 -170zM200 194q-7 -22 -19 -81
l-157 92v133zM367 38v24l6 -5zM219 -162l-195 100v251l154 -95q-6 -31 -11 -94h168l11 -8l-54 -154h-73zM24 -162v81l160 -81h-160zM221 821h173l-119 -141zM140 659l-91 121l62 41h94l54 -151l-11 -11h-108zM89 659l-19 -124l-46 75v151l14 11l84 -113h-33zM86 508h30
l-19 -22zM24 427v156l41 -70v-5h5l19 -30l-54 -62zM49 821h21l-16 -11zM24 821h8l6 -16l-14 -11v27z" />
    <glyph glyph-name="eight" unicode="8" horiz-adv-x="634" 
d="M610 529l-11 3l11 22v-25zM610 362l-70 16l54 135l16 -3v-148zM610 221l-48 22q-9 49 -38 84l13 37l73 -18v-125zM610 54l-73 43q27 44 31 83q1 13 0 28q-1 12 -1 19l43 -22v-151zM610 -124l-229 86l16 38q89 22 132 86l81 -48v-162zM610 -162h-275l43 103l232 -87v-16z
M610 713l-30 38l30 48v-86zM491 597l81 137l38 -43v-97l-30 -68zM437 502q3 -5 3 -21q0 -17 -22 -46l-13 8zM470 410q49 43 49 102q0 26 -11 55l64 -54l-48 -130zM400 410l-11 3l11 16l10 -5zM508 346q-45 30 -58 54q0 2 9 0l59 -27zM240 151l57 103q32 -12 65 -24
q39 -17 54 -40q10 -15 11 -39l-30 -75zM381 65q-32 -23 -84 -23q-53 0 -100 34l35 59zM162 14l5 8q70 -36 143 -36q30 0 52 6l-16 -35zM219 -162l-97 103l35 59l183 -59l-40 -103h-81zM62 -162l51 92l87 -92h-138zM535 821h73l-44 -73zM319 756l70 65h129l38 -87l-65 -105z
M478 608q-50 53 -137 59q-70 5 -130 -16l97 91l173 -126zM238 599q23 13 53 17q49 7 89 -13q45 -22 55 -68l-41 -71zM89 535q-8 -30 -8 -71l-38 27zM297 443q-99 31 -99 94q0 31 23 52l162 -138l-16 -30zM81 448q3 -30 34 -80q28 -45 25 -66l-116 135v33l11 11zM176 259
l14 16q11 13 15 11l68 -24l-41 -68zM130 294q-53 -35 -63 -92q-4 -21 0 -43q2 -13 6 -35l-49 38v254zM173 97q-31 34 -30 80q1 45 24 74l57 -67zM24 22v124l62 -49q18 -34 52 -59l-41 -70zM24 5l65 -48l-65 -114v162zM238 821h116l-89 -81zM108 821h111l29 -92l-10 -11z
M24 821h62l138 -114l-200 -186v300z" />
    <glyph glyph-name="nine" unicode="9" horiz-adv-x="618" 
d="M594 572l-81 -5l81 159v-154zM594 437l-54 22q-7 57 -32 95l86 5v-122zM594 278l-43 14q2 30 2 66t-8 85l49 -22v-143zM367 267q0 -12 1 -30t-1 -32l-24 11zM594 113l-81 33q29 61 38 129l43 -13v-149zM367 189q-7 -67 -25 -98q-26 -46 -83 -48l79 157zM594 -22l-200 38
q74 36 114 116l86 -35v-119zM594 -162h-437l78 154q4 0 14 -1q8 -1 30 0q51 1 83 12l232 -43v-122zM594 821v-16l-11 10l3 6h8zM481 648l94 154l19 -19v-22l-86 -164zM497 575q-9 18 -35 38l13 19l25 -49zM367 456q0 -1 1.5 -6t1.5 -10q0 -68 -16 -111l-25 60zM346 313
q-19 -26 -38 -26t-33 10l44 76zM224 213l6 8h18q41 0 76 19l-49 -89zM221 46q-48 16 -48 81l43 73l54 -65zM113 -162l-29 138l40 67q11 -14 34 -22t36 -21l3 -3l-81 -159h-3zM24 -162v38l52 86l27 -124h-79zM510 821h62l-27 -49zM251 786l46 35h194l44 -60l-44 -70zM448 626
q-67 46 -154 45q-91 -1 -148 -50l-49 35l141 116l243 -94zM248 545q13 74 53 74q26 0 47 -42q16 -31 19 -86l-16 -27zM130 610q-30 -34 -49 -75l-49 62l54 46zM254 324q-13 27 -14 96q-1 38 0 56q1 28 3 48l97 -70l-81 -138zM173 184l-149 170v229l54 -65q-12 -27 -13 -72
q-2 -100 58 -171q32 -37 82 -48l-27 -43h-5zM100 167q-1 -1 -2 -11l-1 -10l-73 43v143l133 -151zM24 49v129l73 -43v-5q0 -36 11 -54l-38 -60zM24 30l35 -27l-35 -62v89zM43 821h195l5 -11l-97 -78zM24 821l111 -97l-111 -92v189z" />
    <glyph glyph-name="colon" unicode=":" horiz-adv-x="289" 
d="M265 821v-95l-111 19l35 76h76zM265 594l-162 16l48 116l114 -19v-113zM265 475l-187 76l22 48l165 -16v-108zM265 308l-52 16q21 36 18 64q-6 55 -60 69q-25 6 -49 0q-57 -15 -57 -79l-41 14v21l52 124l189 -75v-154zM265 200l-241 97v81l41 -16q5 -32 27 -52t54 -20
q34 0 59 23l60 -21v-92zM265 27l-44 19q10 38 -4 69t-50 44q-32 12 -60.5 -1.5t-36.5 -46.5l-46 19v156l241 -97v-162zM265 -94l-241 37v170l41 -19v-18q0 -36 20 -57t46 -28q28 -7 51.5 3.5t33.5 37.5l49 -21v-105zM265 -162h-241v92l241 -38v-54zM92 813l5 8h76l-14 -33z
M24 675v22l62 102l65 -27l-38 -92zM24 548v116l84 3l-54 -122zM24 535l25 -6l-25 -54v60zM59 821h22l-11 -19zM24 821h14l21 -33l-35 -59v92z" />
    <glyph glyph-name="semicolon" unicode=";" horiz-adv-x="289" 
d="M265 821v-76l-125 33l22 43h103zM265 629l-149 92l24 46l125 -38v-100zM265 443l-238 81l86 183l152 -91v-173zM167 459q-24 5 -41 5q-61 -2 -61 -91l-41 2v133zM265 367h-38v11q0 61 -33 73l71 -24v-60zM265 224l-241 84v59l41 -3q4 -31 26 -50t53 -21t53 15.5t27 47.5
h41v-132zM265 86l-41 11q-6 31 -30 51.5t-56 20.5q-37 0 -57 -29l-57 17v140l241 -86v-125zM73 124q-13 -25 -10 -46q4 -32 35 -61t28 -49q-2 -12 -23 -27l-79 32v167zM265 -130l-98 44q32 29 47 68q18 46 16 81q-1 17 -3 18l38 -11v-200zM265 -162h-241v119l65 -27v-65
q25 10 68 35l108 -46v-16zM81 818l3 3h62l-33 -65zM27 724l49 81l32 -65l-27 -60zM24 597v116l52 -41l-38 -75h-14zM24 583h8l-8 -13v13zM54 821h16l-5 -8zM24 821h8l22 -22l-30 -43v65z" />
    <glyph glyph-name="less" unicode="&#x3c;" horiz-adv-x="429" 
d="M405 551l-24 -3l24 84v-81zM405 456l-41 3v22l14 51l27 5v-81zM405 367l-41 6v75h41v-81zM405 140l-41 -5v38l-72 43l37 127l22 13l54 -5v-211zM405 14l-178 -19l32 102l105 -65v87l41 5v-110zM405 -146l-213 8l35 119l178 19v-146zM405 -162h-216v11zM405 821v-54
l-132 -16l40 70h92zM216 651l51 89l138 19v-54l-11 -38zM284 459l-106 121l33 57l178 16l-49 -159zM189 405l-86 46l70 116l100 -113zM65 329v-43l-41 16v11l73 124l79 -43zM208 270l78 49l-27 -81zM24 76v208l41 -19v-54l156 -95l-37 -130zM24 -38v97l154 -86l-32 -108z
M24 -162v108l116 -94l-5 -14h-111zM248 821h54l-21 -38zM140 807l14 14h78l38 -49l-84 -146zM24 653v25l111 118l43 -180l-24 -41zM24 524v116l122 -73l-54 -92zM24 508l60 -44l-60 -102v146zM113 821h17l-6 -6zM24 821h46l41 -16l-87 -95v111z" />
    <glyph glyph-name="equal" unicode="=" horiz-adv-x="515" 
d="M491 821v-76l-59 33l22 43h37zM491 626l-108 62l44 76l64 -35v-103zM491 437l-229 38l116 200l113 -65v-173zM491 275l-167 54h127v76h-227l32 54l235 -38v-146zM491 173l-40 5v65h-316l49 86h97l210 -67v-89zM491 -32l-437 135l40 64h324l73 -10v-189zM491 -162
l-467 116v86l27 46l440 -135v-113zM24 -162v103l403 -103h-403zM359 821h76l-19 -27zM224 729l78 92h17l89 -43l-95 -162zM135 626l81 92l86 -113l-46 -84zM176 405l-152 70v22l103 119l121 -108l-62 -103h-10zM65 243v-11l-41 43v179l111 -49h-70v-76h75l-48 -86h-27z
M24 178v81l41 -48v-11l-19 -33zM24 159l14 -5l-14 -22v27zM130 821h145l-70 -81zM24 751v70h87l83 -89l-75 -89zM24 594v140l84 -97l-59 -65zM24 572l14 -10l-14 -17v27z" />
    <glyph glyph-name="greater" unicode="&#x3e;" horiz-adv-x="429" 
d="M405 400h-16l16 62v-62zM405 259h-41v16l25 108l16 3v-127zM405 176h-65l8 26l16 9v35l41 2v-72zM405 59l-84 17l22 86l62 3v-106zM405 -162h-140l56 221l84 -16v-205zM405 653h-24l24 68v-68zM329 502l49 138h27v-92l-11 -48zM292 373l32 110l65 -2l-38 -146zM248 140
l65 41l-11 -51zM192 73l13 43l27 16l65 -13l-16 -65zM157 -38l32 100l92 -19l-41 -159zM113 -162l38 108l84 -78l-8 -30h-114zM211 821h194v-46l-24 -76zM108 799l22 22h54l189 -135l-38 -122zM24 637v76l79 78l224 -235l-22 -67zM65 508v-44l-41 27v130l273 -146l-30 -86z
M65 364l156 -94l-91 -59l-106 91v173l41 -27v-84zM65 173v-57l-41 27v141l95 -79zM132 70l30 22l-11 -33zM24 -16v140l41 -27v-65l54 33l24 -19l-35 -103zM24 -162v130l79 -38l-33 -92h-46zM24 783v38h68l-54 -54zM24 761l3 -5l-3 -3v8z" />
    <glyph glyph-name="question" unicode="?" horiz-adv-x="526" 
d="M502 729l-21 8l21 43v-51zM502 535l-56 21q-13 26 -25 46l54 122l27 -14v-175zM502 429l-43 25v13q0 40 -11 73l54 -19v-92zM502 238l-151 43q43 20 71 63t34 93l46 -24v-175zM502 127l-240 119l8 21q8 0 32 5q10 2 17 3q8 1 10 0l173 -51v-97zM502 -49l-300 52
q32 20 34 69q2 46 -20 68l43 92l243 -121v-160zM502 -162h-189l-194 92l27 59h21l335 -54v-97zM81 -162l35 78l165 -78h-200zM448 821h54v-14l-48 -102zM410 616q-8 8 -23 15q-21 9 -25 12q-8 5 -11 10l-8 14l94 154h6l3 -130zM281 567q16 -28 16 -81l-73 -11zM281 340
q-9 -12 -35 -21l-52 102l22 41l84 13q1 5 4 -37q3 -35 -12 -71zM232 319q-16 2 -44 52q-5 8 -10 18h-2l10 21zM157 230h27v72q32 -24 64 -32l-48 -97zM192 154q-21 10 -41 11q-38 3 -60.5 -19t-25.5 -60l-41 11v49l81 129h3v-45h32l54 -73zM24 -27v108l41 -11
q0 -12 22 -49.5t29 -25.5l-5 -11zM24 -162v124l79 8l-60 -132h-19zM324 659q-10 5 -38 5l-38 130l27 27h152zM248 667q-59 0 -100 -16l-10 27l100 100l35 -111h-25zM173 589q17 28 49 27q33 -1 53 -33l-62 -102zM138 645q-44 -25 -51 -69q-3 -19 -1 -40t3 -42l-65 22v40
l106 111zM167 470q-3 13 -5 46q-2 32 5 56l38 -100l-5 -10zM108 389v-60l-84 46v127l165 -51l-38 -62h-43zM24 356l79 -43l-79 -127v170zM167 821h76l-38 -38zM24 772v49h122l46 -49l-100 -100zM24 608v148l62 -92l-59 -59z" />
    <glyph glyph-name="at" unicode="@" horiz-adv-x="789" 
d="M595 533l-49 -284v-3q0 -2 -1 -5q0 -26 26 -26q59 0 92 74q27 60 27 131q0 110 -81 185q-79 72 -189 72q-135 0 -219 -98q-81 -94 -81 -233q0 -130 80 -218q82 -91 209 -91q93 0 218 58l21 -49q-125 -61 -242 -61q-164 0 -275 98q-116 103 -116 261q0 167 123 280
q120 110 286 110q100 0 187.5 -49t132.5 -135q30 -57 30 -126q0 -122 -73.5 -194.5t-196.5 -72.5q-75 0 -84 39l-6 -5q-40 -33 -76 -33q-108 0 -108 128q0 89 39 162q46 86 123 86q52 0 77 -55l8 44q56 0 118 10zM425 481q-34 0 -53 -101q-15 -79 -15 -131q0 -38 25 -38
q40 0 60 89q14 63 14 126q0 55 -31 55z" />
    <glyph glyph-name="A" unicode="A" 
d="M632 375l-16 -5l16 54v-49zM632 289l-38 13l16 54l22 6v-73zM632 38l-60 24l-27 105l44 119l43 -16v-232zM632 -148l-160 99l19 49h100l-11 38l52 -22v-164zM432 -162l38 100l156 -100h-194zM632 821v-95l-106 57l30 38h76zM632 616l-176 75l62 79l114 -60v-94zM437 567
l-19 76l33 37l181 -78v-113l-11 -30zM297 421l-30 27l19 19zM446 540l167 -97l-78 -227zM367 140l11 -35l-54 35h43zM143 270l-8 5l13 17zM351 208h-119l-32 22l54 191l5 6l46 -44zM108 151l-43 30l65 84l10 -9zM194 208l3 8l8 -8h-11zM167 113l11 27h124l81 -59l22 -81h49
l-22 -54zM262 -162l-238 178v108l35 43l46 -27l-40 -140h73l27 103l262 -168l-35 -97h-130zM24 -162v159l208 -159h-208zM516 821h24l-22 -22zM297 745l86 76h119l6 -35l-54 -68zM254 659l-22 -79l-59 54l108 98l159 -30l-35 -43h-151zM178 397l-97 157l78 67l68 -59z
M24 324v178l46 41l103 -165v-8l-97 -122zM24 297l41 -59l-41 -49v108zM240 821h111l-78 -68zM100 821h121l38 -76l-73 -62zM24 637v184h57l92 -146l-108 -92zM24 618l30 -43l-30 -27v70z" />
    <glyph glyph-name="B" unicode="B" 
d="M632 202l-22 6l22 76v-82zM632 43l-70 8l10 30l19 65l14 48l27 -5v-146zM632 -122l-111 36l41 121l70 -8v-149zM632 -162h-130l16 59l114 -35v-24zM632 821v-6l-8 6h8zM632 513l-76 49q-15 38 -59 64l119 179l16 -11v-281zM524 392q38 35 43 81q2 21 0 34q-1 6 -5 22
l70 -43v-103l-11 -35zM308 319q21 -1 38 -12q7 -6 27 -18zM378 437q-2 -10 -14 -26q-19 -26 -24 -33zM583 238q-29 87 -148 110q45 12 73 33l108 -46zM389 270q14 -27 18 -66q1 -15 1 -26q0 -10 -3 -11l-157 46v19l49 78zM405 154q-12 -100 -113 -100l-44 38v108zM348 0h30
q81 0 135 27l-43 -138zM248 54v14l17 -14h-17zM243 -162l-205 70l62 92h224l140 -127l-10 -35h-211zM24 -162v43l8 11l160 -54h-168zM508 761l43 60h59l-11 -16zM486 632q-22 11 -65 21l76 98l94 43zM362 578q6 -13 13 -27h-35zM248 405v27l84 108h46q6 -20 8 -36
q2 -17 -3 -23l-48 -79zM313 373q-2 0 -3 -1l-2 -2h-60v19h76zM248 319h27l-27 -44v44zM65 146l-38 5l38 49v-54zM24 -22v157h41v-135l-19 -30zM24 -40l14 -3l-14 -22v25zM518 821h22l-5 -8zM275 778l57 43h154l38 -19l-70 -84zM405 653q-30 7 -57 7h-38q-45 -1 -62 -1
l-54 51l71 57l181 -60zM310 602q15 0 28.5 -5.5t12.5 -7.5l-11 -17zM135 659l49 38l43 -38h-92zM248 602h38l43 -40l-81 -103v143zM65 402l-41 62v103l41 32v-197zM24 435l41 -62v-141l-41 -51v254zM108 821h173v-8l-122 -97zM24 821h62l57 -114l-62 -48h-16v-14l-41 -35
v211z" />
    <glyph glyph-name="C" unicode="C" 
d="M632 440l-11 11l11 30v-41zM632 227l-92 11l76 199l16 -16v-194zM516 167q-2 -29 -11.5 -45.5t-18.5 -37.5zM632 38l-89 24q48 48 48 154l41 -5v-173zM632 -103l-222 -16l49 127q39 13 70 41l103 -27v-125zM632 -162h-238l11 27l227 16v-43zM632 821v-97l-114 62l27 35
h87zM632 562l-97 27q-40 60 -114 75l87 108l124 -65v-145zM300 513l143 86q38 -10 46 -82q3 -27 1 -48q-2 -22 -4 -23l81 29q0 61 -22 95l84 -25l-67 -170zM259 405l8 65l25 30l264 -138l-38 -97zM256 265v43q0 52 3 81l254 -135l-70 -184zM73 221q13 -82 51 -135l-100 49
v27zM432 49q-43 -13 -75 -11q-61 3 -82 87q-11 44 -16 113l176 -181zM329 -11h17q16 0 32 2l32 4l-13 -38zM221 -162l-197 151v127l127 -62q22 -17 60 -33l64 -26l114 -54l-41 -103h-127zM24 -162v132l173 -132h-173zM367 821h151l-94 -116zM392 670q-5 0 -20 1
q-36 2 -88 -11q-28 -7 -57 -23l-87 168l22 16h184l64 -130zM289 545q10 21 45 53zM211 629q-53 -34 -84 -84l-103 135v54l100 60zM119 529q-41 -65 -49 -156l-46 32v248zM24 248v141l41 -33v-70l-35 -43zM49 821h78l-30 -16zM24 818l62 -22l-62 -37v59z" />
    <glyph glyph-name="D" unicode="D" horiz-adv-x="672" 
d="M648 540l-54 27l54 108v-135zM648 408l-49 32q-12 48 -27 78l17 33l59 -27v-116zM648 205l-49 22q5 29 9 77t-9 117l49 -32v-184zM410 194q-8 -71 -27 -97h-24zM648 86l-108 3q41 50 57 122l51 -22v-103zM375 81q-4 -4 -15.5 -9t-13.5 -7l10 19zM648 -116l-227 132
q58 14 108 60l119 -6v-186zM648 -162h-416l87 162q37 0 81 8l248 -143v-27zM648 778l-5 10l5 8v-18zM526 583q-2 3 -2 6l113 186l11 -35v-27l-43 -81zM559 540q-10 18 -26 38l66 38zM413 405q0 9 1 -22v-31v-27q0 -11 -1 -12l-59 -5zM308 232l38 65h67v-38l-35 -65zM308 59
h-60v76l54 86l71 -37zM113 -86l54 86h108l-37 -81zM70 -162l35 59l122 9l-33 -68h-124zM516 821h132l-38 -62zM324 780l54 41h113l111 -70l-78 -130zM348 591q9 -3 41 -46zM508 599q-70 60 -222 60l-43 48l73 63l200 -160zM184 659l48 38l38 -38h-86zM248 472v125h76l78 -89
q4 -8 8 -29q3 -14 3 -21q0 -9 -3 -15l-62 -103zM65 448l-41 38v38l41 32v-108zM248 292v156l92 -119l-48 -75zM65 205l-41 22v235l41 -35v-222zM248 270l33 -27l-33 -54v81zM65 16l-41 38v157l41 -27v-168zM81 0h49l-17 -27zM24 -162v194l79 -72l-76 -122h-3zM265 821h73
l-68 -54zM140 821h114l5 -60l-97 -81zM97 659l-73 135v27h106l21 -146l-21 -16h-33zM24 756l54 -97h-13v-49l-41 -32v178z" />
    <glyph glyph-name="E" unicode="E" horiz-adv-x="580" 
d="M556 408l-2 2l2 6v-8zM556 319l-27 8l22 67l5 -2v-73zM556 51l-43 3v11h-59l72 245l30 -8v-251zM556 -73l-151 -13l27 86h81v38l43 -6v-105zM556 -162h-173l22 59l151 17v-76zM556 821v-51l-135 5l35 46h100zM556 634l-78 3v22h-143l78 102l143 -8v-119zM324 591h154v33
h78v-122l-8 -27zM432 359v30h-65l-119 57v89l44 56l251 -127l-43 -140zM248 389v38l84 -38h-84zM248 292v35h184v13l59 -27l-35 -119zM65 205l-38 33l38 48v-81zM248 65v205l200 -92l-32 -113h-168zM300 0h94l-21 -65zM24 5v211l41 -35v-181h210l92 -81l-16 -49zM24 -162
v151l319 -132l-5 -19h-314zM373 821h64l-32 -43zM270 821h86l44 -49l-49 -65zM103 659l-14 11l170 145l81 -118l-30 -38h-207zM248 591h11l-11 -13v13zM65 505l-41 40v65l41 38v-143zM24 351v173l41 -38v-143l-14 -19zM24 332l19 -19l-19 -21v40zM224 821h8l-5 -3zM97 821
h108l11 -11l-70 -59zM24 821h54l52 -81l-106 -92v173z" />
    <glyph glyph-name="F" unicode="F" horiz-adv-x="542" 
d="M518 -38l-10 6l10 48v-54zM518 -162h-16l-16 5l22 108l10 -5v-108zM518 624l-37 5l37 89v-94zM518 400l-97 97l43 94h17v25l37 -8v-208zM518 238l-102 89v62h-38l38 92l102 -103v-140zM265 124l89 203h35l129 -111v-86l-5 -33zM248 81l14 30l246 -25l-22 -124zM146 -162
l70 162h32v62l233 -116l-22 -108h-313zM362 788l27 33h129v-60l-5 -10zM329 659l-43 32l68 84l154 -41l-36 -75h-143zM410 591h33l-8 -19zM265 659l16 21l27 -21h-43zM248 551v40h141l38 -32l-33 -73zM302 389l-54 32v119l141 -65l-38 -86h-49zM65 346l-22 27l22 27v-54z
M248 389v13l22 -13h-22zM248 327h76l-76 -176v176zM65 127l-41 8v208l11 13l30 -37v-192zM24 22v102l41 -8v-116h113l-30 -65zM24 -162v167l116 -86l-35 -81h-81zM122 783l45 38h200l-92 -119zM65 659v-6l-41 30v19l84 70l151 -84l-21 -29h-173zM65 562l-41 35v73l41 -33
v-75zM24 405v175l41 -35v-99l-35 -46zM24 821h106l-106 -87v87z" />
    <glyph glyph-name="G" unicode="G" horiz-adv-x="667" 
d="M643 81h-38l38 119v-119zM643 -43l-65 19l5 24h16v49l6 16h38v-108zM643 -162h-103l38 122l65 -19v-103zM643 721l-46 5l46 70v-75zM643 626l-73 52l21 35l52 -6v-81zM643 329l-44 25v35h-62l-105 59l54 87q11 -39 11 -89l81 29q0 70 -54 124l38 63l81 -57v-276zM432 327
v-14l-70 14h70zM400 389l24 43l78 -43h-102zM599 270v65l38 -22l-13 -48zM432 135l-124 100l48 78l76 -16v-162zM599 259l19 -5l-19 -68v73zM429 113q-4 -35 -23 -55q-22 -22 -55 -11q-34 11 -57 50q-19 33 -24 73l30 49zM356 -11h6q11 0 84 22q9 3 39 15q35 15 33 17l8 -8
l14 -35h3l-41 -135zM332 -162l-213 81l70 119q61 -40 146 -49l162 -140l-6 -11h-159zM70 -162l43 68l173 -68h-216zM551 821h86l-24 -38zM289 767l67 54h162l84 -49l-59 -97zM508 621q-53 46 -131 49q-67 3 -129 -27l-48 48l78 65l254 -92zM308 589q23 24 65 24q66 0 99 -46
l-51 -86zM232 637q-47 -25 -78 -59l-46 38l81 64zM270 481q9 72 27 97l113 -108l-43 -70zM146 567q-47 -54 -68 -135l-54 51v60l76 62zM265 254v65q0 105 5 145l70 -75v-33l-67 -108zM24 116v338l49 -49q-9 -37 -11 -82q-7 -161 95 -258l-27 -41zM24 -70v156l95 -75
l-65 -105zM24 -86l22 -17l-22 -37v54zM248 821h79l-52 -43zM54 818l5 3h165l35 -54l-102 -81zM24 680v119l19 11l100 -132l-40 -30zM24 667l68 -30l-68 -54v84z" />
    <glyph glyph-name="H" unicode="H" horiz-adv-x="650" 
d="M626 421l-10 3l10 19v-22zM626 292l-43 21v11l33 89l10 -5v-116zM626 76l-43 -6v224l43 -21v-197zM626 -122l-186 36l30 86h113v49l43 8v-179zM626 -162h-210l21 59l189 -37v-22zM626 821v-49l-81 38l9 11h72zM583 524v135l-48 135l91 -43v-243l-5 -17zM400 483l-90 17
l90 116v-133zM583 454v48l27 -24l-11 -30zM400 389h-27l-98 59l30 41l95 -17v-83zM583 443l11 -6l-11 -32v38zM248 327h152v-246l-152 130v116zM248 389v21l19 22l73 -43h-92zM248 59v130l152 -130v-59h32l-24 -73zM24 -49v162l41 54v-167h183v43l152 -129l-19 -54zM24 -162
v97l349 -89l-6 -8h-343zM505 821h30l-17 -16zM297 821h184l27 -30l-103 -132h-5v-6l-11 -10zM248 594v65h-70l-65 62l141 100h21l103 -189l-70 -95zM65 659v-11l-16 22l54 43l59 -54h-97zM248 575l49 -46l-49 -65v111zM65 321l-41 41v291l11 6l30 -35v-303zM24 340l41 -43
v-59l-41 -54v156zM173 821h38l-27 -19zM24 821h127l16 -27l-143 -103v130zM557 659h-130l89 106z" />
    <glyph glyph-name="I" unicode="I" horiz-adv-x="316" 
d="M292 821v-70l-44 8l22 62h22zM292 597l-41 21v41h-35l27 86l49 -11v-137zM292 472l-41 17v116l41 -22v-111zM292 305l-41 3v164l41 -13v-154zM292 189l-41 16v87h41v-103zM65 40l-41 3v19l41 124v-146zM292 27h-41v165l41 -19v-146zM292 -124l-268 24v127l41 -3v-24h186
v11h41v-135zM292 -162h-268v49l268 -22v-27zM151 821h103l-6 -16zM27 748l54 73l162 -27l-35 -97zM65 659v-127l-41 35v167l176 -54l-6 -21h-129zM65 329l-41 44v172l41 -35v-181zM24 186v162l41 -40v-16l-35 -108zM24 799v22h35l-21 -30zM24 783l3 -3l-3 -8v11z" />
    <glyph glyph-name="J" unicode="J" horiz-adv-x="478" 
d="M454 616l-22 16l22 56v-72zM454 421l-44 -3v146l17 49l27 -16v-176zM454 286l-44 11v108l44 5v-124zM454 103l-54 13q10 47 10 165l44 -11v-167zM454 -5l-103 32q31 31 43 76l60 -14v-94zM454 -162h-108l-170 43l37 108q13 -1 53 -2q35 -1 74 29l114 -38v-140zM162 -162
l11 30l111 -30h-122zM454 821v-54l-65 24l16 30h49zM375 659h-56l64 121l71 -27v-24l-22 -59zM230 470l-14 -3l14 19v-16zM410 653l17 3l-17 -40v37zM230 362l-36 56l17 36h19v-92zM230 243l-125 11l84 151l41 -59v-103zM70 184q-5 -15 -5 -41q0 -30 5 -35l-27 27zM97 235
l3 5l11 -2zM205 49q-22 -22 -35 -18q-26 8 -30 73q-2 30 -1 58q2 67 7 76l84 -8v-87v-14q0 -4 -3 -18zM176 0l10 -5l-2 -6zM24 8v89l14 27l40 -43q9 -20 31 -38q35 -30 37 -32l32 -33l-5 -21zM24 -162v157l143 -49l-37 -108h-106zM302 821h90l-44 -81zM119 794l27 27h146
l48 -92l-21 -35zM230 659v-76l-168 159l46 44l205 -100l-16 -27h-67zM24 537v165l30 30l176 -168v-29l-57 -106zM24 232v281l138 -100l-111 -202zM24 211l16 -11l-16 -33v44zM54 821h62l-57 -49zM24 821h14l11 -60l-25 -21v81z" />
    <glyph glyph-name="K" unicode="K" horiz-adv-x="696" 
d="M672 616l-13 5l13 27v-32zM672 373l-127 21l108 211l19 -11v-221zM672 173l-181 108l49 97l132 -22v-183zM672 65l-92 32l-89 168l181 -108v-92zM605 -162l-259 143l43 87l32 -68h211l-38 76l78 -30v-89l-29 -119h-38zM275 -162l65 127l230 -127h-295zM672 821v-124
l-64 124h64zM540 643l14 16h-68l-46 13l132 149h17l75 -143l-30 -62zM378 540l-22 32l73 87l33 -11zM421 486l108 140l95 -27l-116 -226zM297 432l-43 27l92 103l27 -33zM454 340l-54 111l13 21l87 -116l-17 -32zM248 256l27 30l92 -178l-119 65v83zM248 364v79l38 -25z
M470 313l2 -3l-2 -2v5zM65 167l-33 33l33 38v-71zM216 0h32v151l111 -62l-78 -159zM24 -32v218l3 3l38 -43v-146h132l73 -81l-30 -62zM24 -162v113l208 -108l-5 -5h-203zM508 821h40l-24 -27zM410 821h81l22 -38l-22 -24zM205 805l27 16h160l89 -70l-103 -114zM248 659h-183
v-43l-41 37v33l165 102l173 -164l-114 -133v168zM65 400l-41 43v183l41 -37v-189zM24 416l41 -43v-79l-41 -46v168zM113 821h87l-108 -68zM24 761v60h84l-27 -76l-27 -16zM24 740l16 -16l-16 -11v27z" />
    <glyph glyph-name="L" unicode="L" horiz-adv-x="575" 
d="M551 821v-65h-43l37 65h6zM551 556l-124 49l75 135l49 -3v-181zM551 378l-187 111l57 97l130 -49v-159zM551 273l-270 62l78 140l192 -113v-89zM551 43l-303 178v52l27 48l276 -62v-216zM248 65v135l227 -135h-227zM551 -92l-241 92h198v49l43 -25v-116zM367 -162
l-316 76l46 86h173l281 -108v-54h-184zM24 -162v24l22 41l262 -65h-284zM413 818l3 3h113l-38 -65zM310 688l95 117l76 -65l-60 -108zM248 580v30l54 68l108 -57l-40 -76zM248 389v175l114 -29l-89 -157zM65 278l-41 19v38l41 48v-105zM248 367l14 -5l-14 -27v32zM65 119
l-41 19v143l41 -22v-140zM24 5v119l41 -21v-81l-14 -27zM24 -11l19 -5l-19 -35v40zM394 821h11l-11 -11v11zM216 805l19 16h148v-22l-54 -65zM248 659h-156l-41 8l151 127l117 -73l-71 -84v22zM65 562l-41 35v46l19 13l22 -5v-89zM24 578l41 -35v-127l-41 -49v211zM167 821
h44l-27 -22zM59 821h92l22 -30l-81 -67zM24 821h25l32 -103l-57 -48v151z" />
    <glyph glyph-name="M" unicode="M" horiz-adv-x="721" 
d="M697 0l-17 3l17 56v-59zM697 -162h-60l41 143l19 -3v-140zM697 529h-38v6l38 78v-84zM697 316l-38 19v175l38 3v-197zM697 238l-38 18v63l38 -19v-62zM481 86l-33 11l33 65v-76zM659 49v191l38 -19v-70l-33 -108zM572 -162l-194 111l62 127l41 -8v-68h172l-48 -162h-33z
M324 -162l49 94l167 -94h-216zM697 821v-92l-92 54l32 38h60zM659 659h-135l-11 11l81 97l103 -60v-59l-38 -81v92zM478 451h3v-19l-6 5zM432 478l-40 40l72 90zM402 373l-83 54l64 78l44 -41zM481 321l-33 19l22 81l11 -8v-92zM367 240l-46 165l76 -49zM378 86l65 238
l38 -22v-83l-79 -160zM127 124v60l57 70l70 -254h102l17 65l19 -22l-68 -135zM194 -162l-170 162v59l41 49v-108h62v103l192 -206l-30 -59h-95zM24 -162v140l149 -140h-149zM602 821h8l-5 -6zM459 821h124l11 -11l-65 -81zM200 821h237l79 -103l-108 -129zM251 659h-113
l-87 162h122l221 -246l-92 -111zM127 443h3l37 -138l-40 73v65zM65 659v-176l-41 73v265h11l84 -162h-54zM127 343l27 -49l-27 -32v81zM24 200v321l41 -73v-259l-16 -24zM24 162l6 -11l-6 -5v16z" />
    <glyph glyph-name="N" unicode="N" horiz-adv-x="599" 
d="M575 373l-40 2v60l40 110v-172zM472 259h-2l2 6v-6zM575 254l-40 2v100l40 -2v-100zM472 208l-13 19l8 16h5v-35zM575 124l-40 16v103h40v-119zM575 -68l-224 -5l32 84l6 -11h146v124l40 -16v-176zM575 -162h-256l27 70l229 6v-76zM575 821v-33l-13 11l10 22h3zM535 605
v54h-54l75 127l19 -19v-162l-8 -22zM472 470l-113 -27l108 186l5 -3v-156zM535 586l24 -19l-24 -67v86zM432 270l-89 140l8 17l121 32v-113l-29 -81zM289 159l-89 -8l43 81zM130 11v16l59 108l108 11l59 -95l-46 -124zM49 -113l64 113l189 -86l-24 -65zM24 -162l19 38
l227 -38h-246zM429 813l8 8h125l-57 -100zM356 724l65 78l76 -92l-27 -46zM278 508l-46 70l114 135l116 -65l-108 -189zM300 475l46 -27l-14 -21zM65 305l-33 35l33 38v-73zM130 238v178l102 -162l-46 -81zM65 140l-41 11v176l41 -46v-141zM130 124v87l48 -52l-27 -43z
M130 108l16 -3l-16 -27v30zM24 -27v167l41 -13v-127h19l-27 -49zM24 -46l25 -13l-25 -44v57zM292 821h118l-75 -89zM184 659h-62l-98 146v16h246l49 -100l-103 -116zM65 659v-127l-41 57v183l76 -113h-35zM24 440v130l41 -57v-76l-19 -24zM24 421l11 -16l-11 -11v27z" />
    <glyph glyph-name="O" unicode="O" horiz-adv-x="694" 
d="M670 232l-25 22l25 70v-92zM670 -22l-108 25l75 229l33 -27v-227zM670 -162h-17l-108 113l14 35l111 -24v-124zM510 -162l33 97l94 -97h-127zM670 821v-92l-114 16l60 76h54zM670 602l-141 14q-15 12 -48 29l64 84l125 -19v-108zM626 392q-15 141 -81 210l125 -13v-195
l-11 -35zM421 556q9 -39 14 -141q1 -25 3 -71q0 -29 -1 -36l-164 65zM626 270v97l22 -21zM437 292q0 -87 -8 -133l-170 68q0 -17 -8 47q-3 20 -2 41q1 22 7 31l9 10zM97 140q22 -45 49 -75l-87 29zM427 140q-7 -58 -52 -92q-21 -16 -44 -13q-23 2 -45.5 35.5t-26.5 137.5z
M356 -11q125 4 195 79l-43 -133zM308 -162l-284 140v65l30 38l127 -46q22 -15 58 -25q30 -9 61 -18l197 -70l-27 -84h-162zM24 -162v124l251 -124h-251zM356 764l65 57h173l-92 -116zM459 653q-49 17 -116 17q-72 0 -122 -22l119 103l146 -60zM284 589q12 30 61 30t63 -30
l-35 -46zM259 475l9 57q4 28 7 40l87 -40l-60 -78zM105 540q-27 -53 -35 -124l-46 43v16zM256 400q0 33 3 62l33 -16zM24 189v243l44 -40q0 -141 16 -208l-25 -27zM24 167l25 -24l-25 -32v56zM356 821h38l-27 -22zM167 821h173l11 -30l-76 -65zM24 724v97h116l119 -103
l-124 -108zM24 532v170l98 -100l-92 -78z" />
    <glyph glyph-name="P" unicode="P" horiz-adv-x="640" 
d="M616 5h-8l8 25v-25zM616 -151l-46 -11l35 151l11 3v-143zM616 734l-54 -10l54 86v-76zM616 591l-103 49l43 67l60 11v-127zM616 389l-49 27q7 34 7 61q0 48 -22 88q-16 29 -50 53l6 6l108 -52v-183zM389 421q-9 -57 -49 -81zM616 184l-227 91q139 16 173 119l54 -27v-183
zM281 240l16 30h16q5 0 19 2t24 -2l260 -103v-16l-27 -105zM248 81v103l27 46l308 -195l-11 -54zM362 -162l-232 146l10 16h108v65l319 -97l-32 -130h-173zM43 -162l81 130l200 -130h-281zM475 821h122l-33 -54zM286 821h162l106 -62l-41 -68zM475 634q-54 25 -114 27
q-42 1 -81 0q-63 -2 -121 -2l-70 65l143 97h22l248 -141zM248 578v19h44q86 0 100 -100l-19 -33zM65 659v-92l-41 49v54l52 37l54 -48h-65zM265 329l-17 19v203l111 -103l-73 -119h-21zM65 394l-41 38v165l41 -52v-151zM65 154l-41 54v208l41 -38v-224zM65 16l-41 27v138
l41 -54v-111zM24 22l46 -27l-46 -76v103zM65 813l13 8h116l-126 -87zM24 788l25 17l5 -81l-30 -22v86z" />
    <glyph glyph-name="Q" unicode="Q" horiz-adv-x="694" 
d="M329 122q19 0 41 -39q8 -15 5 -27q-3 -13 -29 -13q-52 0 -65 38q24 41 48 41zM670 821v-119l-119 32l70 87h49zM670 567l-138 46q-15 12 -46 30l59 75l125 -32v-119zM418 556q0 -26 8 -38l-29 11zM670 443l-54 19q-22 84 -65 132l119 -38v-113zM427 502q5 -30 5 -66v-96
l-108 87l68 86zM670 162l-54 40q12 62 12 124t-10 117l52 -16v-265zM432 319q0 8 1 -28v-39v-44q0 -23 -1 -41l-176 135v33l60 75zM670 -19l-116 89q40 51 56 114l60 -44v-159zM343 -11q4 0 13 1q13 1 22.5 -2t4.5 -15zM100 132q9 -21 28 -50l-50 21zM429 146q-4 -23 -8 -19
l-5 8q-26 53 -63 59q-30 5 -56 -21q-9 -12 -27 -30l-5 -5q-6 63 -9 143zM575 22q9 -28 1 -44q-9 -17 -25 -19q-22 -3 -42 17q-17 17 -26 40q36 19 57 43l65 -48zM591 -116q38 36 35 78l-1 15q-1 15 -3 19l42 -34l-21 -100zM297 -162l-273 138v54l46 56l92 -37q21 -18 60 -31
q32 -12 64 -23l106 -44q34 -97 116 -97q33 0 67 19l62 -27l-5 -8h-335zM24 -162v119l241 -119h-241zM562 821h37l-27 -33zM389 742l86 79h70l17 -43l-90 -114zM459 653q-52 19 -128 19q-16 0 -18 -2l65 59zM286 589q12 29 60 29t64 -32l-37 -49zM259 459q5 42 8 59
q6 41 14 57l81 -49l-60 -75zM76 443q-11 -55 -11 -92l-33 54zM259 400q0 8 -1 20q-1 11 1 23l30 -6zM24 194v195l41 -73q0 -20 6 -79t13 -59h-3zM24 181l46 -14l-46 -62v76zM267 821h176l-111 -103zM270 664q-20 -5 -35 -11l-95 168h108l71 -114zM221 648q-35 -15 -59 -32
l-138 126v79h100zM24 718l127 -116q-37 -33 -65 -102l-62 -63v281z" />
    <glyph glyph-name="R" unicode="R" 
d="M632 184l-60 5l60 167v-172zM632 89l-76 8q-2 8 -3 17q-1 8 1 10l18 52l60 -9v-78zM632 -49l-124 33l5 16h76q-20 28 -33 86l76 -10v-125zM632 -162h-170l43 127l127 -30v-97zM632 551l-22 65l22 40v-105zM513 367q50 36 58 91q3 23 1 38q-2 12 -5 25l38 76l27 -95v-59
l-38 -108zM548 232q-12 55 -73 87l16 32l6 5l89 -37l-30 -92zM329 0l38 86q2 -21 22 -86h86l-21 -59zM254 -162l67 148l127 -62l-30 -86h-164zM632 821v-70l-146 24l38 46h108zM432 707l46 57l154 -24v-52l-22 -43zM332 589q51 -16 60 -84l-111 21zM562 545q-37 93 -173 108
l32 44l178 -65zM392 491q2 -6 1 -26t-15 -47l-124 76l16 19zM248 313h33q48 0 67 -24q17 -20 19 -70l-119 35v59zM370 405q-25 -35 -122 -35v111zM454 324q-13 8 -17 8l22 8zM65 111l-41 29v76l41 49v-154zM213 0h35v232l119 -38v-48l-92 -195zM24 -24v143l41 -30v-89h119
l83 -59l-32 -71zM24 -162v122l203 -100l-11 -22h-192zM481 821h24l-19 -25zM310 821h157l8 -33l-57 -64zM270 659l-81 124l54 38h46l119 -108l-46 -54h-92zM65 659h30l-30 -41v41zM251 659h-156l83 113zM248 597h44l5 -8l-49 -60v68zM24 335v299l41 -45v-270l-16 -22z
M24 297l8 -16l-8 -11v27zM92 821h110l-89 -62zM24 821h46l24 -70l-70 -49v119z" />
    <glyph glyph-name="S" unicode="S" horiz-adv-x="599" 
d="M575 440l-21 3l21 59v-62zM575 194l-43 3q0 56 -27 100l46 130l24 -6v-227zM575 70l-75 11q32 41 32 97l43 -2v-106zM575 -49l-194 -13l24 67q56 24 86 65l84 -11v-108zM575 -162h-229l32 81l197 13v-94zM575 821v-41l-40 -5l27 46h13zM491 567q-14 34 -43 59l78 130
l49 8v-200l-8 -19zM416 564q11 -28 11 -64v-14l-38 32zM454 464l54 8q0 23 -11 73l65 -16l-44 -121zM475 338q-50 50 -143 89l51 81l41 -33v-8q0 -9 -2 -11l18 3l73 -59l-22 -65zM259 243q78 -32 105 -59l-180 -14l48 84zM375 170q19 -26 19 -51q0 -61 -84 -76l-153 81
l19 33zM273 43q-31 0 -63 13q-41 16 -56 47zM159 -162l-135 51v8l89 149q63 -59 173 -59q37 0 76 8l-54 -157h-149zM24 -162v32l84 -32h-84zM483 821h68l-49 -81zM310 729l84 92h78l19 -92l-32 -59zM435 637q-55 35 -133 35q-26 0 -48 -5l46 51l148 -59zM197 578
q23 40 101 39q73 -1 104 -37l-24 -37zM308 435q-56 18 -78 31q-47 26 -47 62q0 15 6 34l178 -33l-54 -97zM24 356v62l46 52q5 -138 141 -205l-27 -49zM65 216v-43l-41 21v146l122 -108zM143 162q0 13 11 65l19 -22l-30 -51v8zM24 27v151l41 -19q9 -56 27 -89l-38 -62zM24 8
l19 -13l-19 -35v48zM238 821h129l-73 -76zM205 653l-19 -5l-116 173h146l65 -81zM24 564v257h30l119 -178q-34 -19 -55 -56q-10 -21 -42 -63l-22 -22zM24 524l16 -33l-16 -16v49z" />
    <glyph glyph-name="T" unicode="T" horiz-adv-x="634" 
d="M610 521l-75 19l27 51h10v19l38 81v-170zM610 432l-113 24l32 68l81 -19v-73zM610 254l-194 27l78 162l116 -25v-164zM610 32l-194 125v108l194 -30v-203zM610 -65l-270 65h76v138l194 -122v-81zM610 -162h-329l-65 22l68 140l326 -81v-81zM205 -162l6 5l13 -5h-19z
M610 821v-60l-164 44l16 16h148zM535 659l-149 75l49 54l175 -43v-5l-40 -81h-35zM319 659l59 65l127 -65h-186zM416 554v37h119l-38 -78zM221 470l-37 40l37 38v-78zM416 535l70 -35l-70 -149v184zM221 256l-170 106l125 135l45 -51v-190zM221 86l-197 76v167l19 17
l178 -108v-152zM24 0v146l197 -78v-68h11l-54 -108zM24 -162v140l146 -102l-19 -38h-127zM432 821h5v-3zM354 821h64l9 -11l-27 -27zM135 821h200l54 -46l-105 -116zM65 659v-27l-41 38v151h89l149 -162h-197zM108 591h108l-49 -51zM24 643l41 -38v-14h16l70 -65l-127 -140
v257z" />
    <glyph glyph-name="U" unicode="U" horiz-adv-x="613" 
d="M589 443l-27 16l27 65v-81zM589 297l-41 11v102l14 36l27 -17v-132zM486 216v-8q-1 -18 -3 -31q-1 -7 -2 -7l-17 8l22 60v-22zM589 119l-49 24q8 35 8 149l41 -11v-162zM478 151q-12 -56 -51 -75l32 83zM589 -119l-222 38l33 81q107 29 135 124l54 -27v-216zM589 -162
h-249l24 62l225 -40v-22zM589 821v-22l-33 19l3 3h30zM548 562v97h-62v-27l-27 32l89 138l41 -24v-195l-19 -48zM486 446l-97 102l65 100l32 -38v-164zM548 535l14 -17l-14 -40v57zM486 335l-194 59l89 141l105 -108v-92zM248 286v43l36 54l202 -59l-49 -135zM386 59
q-91 -15 -118 40q-20 40 -20 166l179 -89zM308 -11q35 0 54 6l-16 -44zM35 -11l62 95q47 -85 184 -95l57 -54l-22 -54zM24 -162v132l3 6l281 -111l-11 -27h-273zM265 794l32 27h221l17 -11l-103 -154zM248 653v6h-5l-43 75l54 49l167 -140l-86 -135zM65 608l-6 8l6 5v-13z
M111 659l78 65l41 -65h-119zM248 437v189l76 -129l-51 -81zM65 308l-41 48v227l22 16l19 -16v-275zM248 416l11 -14l-11 -19v33zM24 167v162l41 -48v-65q0 -39 8 -79q3 -13 5 -13h-2zM24 148l44 -35l-44 -70v105zM54 821h184l5 -11l-111 -92zM24 664v157h11l84 -108l-81 -70
z" />
    <glyph glyph-name="V" unicode="V" horiz-adv-x="645" 
d="M621 567l-43 -5l43 97v-92zM621 410l-103 17l3 10l51 108l49 11v-146zM621 243h-157l49 167l108 -16v-151zM621 49l-205 21l43 157h162v-178zM621 -162h-30l-289 116l22 46h76l10 51l211 -21v-192zM275 -162l-21 11l43 92l254 -103h-276zM621 821v-8l-43 8h43zM580 651
l3 8h-43l-132 24l113 138l100 -22v-100l-24 -51zM454 454l-160 91l103 122l111 -22zM575 632h11l-30 -65zM394 235l-54 73l-56 218l2 3l162 -97zM162 275l-65 22l46 59zM362 216l-16 59l43 -54l-6 -10zM211 94l-187 117l62 75l81 -21zM367 205l11 -5l-8 -16zM24 27v165
l192 -122l19 -70h46l-65 -135zM24 -162v165l184 -154l-6 -11h-178zM464 821h33l-16 -19zM278 821h165l27 -30l-76 -89zM81 821h178l124 -127l-62 -76zM251 659h-186l5 -22l-46 65v92l41 21zM251 659l59 -49l-35 -43zM24 340v327l62 -84l46 -183l-78 -92zM24 316l19 -19
l-19 -22v41z" />
    <glyph glyph-name="W" unicode="W" horiz-adv-x="883" 
d="M859 108l-76 -5l76 181v-176zM859 -38l-111 54l30 70l81 6v-130zM859 -162h-184l67 162l117 -57v-105zM859 821v-87l-157 27l65 60h92zM859 475l-71 65l30 119h-73l-16 -70l-108 91l70 65l168 -29v-241zM678 392l-84 72l-32 152l48 48l114 -97zM734 340l49 178l76 -67
v-78l-44 -103zM392 448l-3 6l5 5zM643 256l-44 181l76 -64zM702 213l27 111l76 -68l-38 -94zM440 356l41 -178l-71 62zM351 286l-16 16l-19 81l62 60l11 -8zM653 35l44 162l62 -46l-62 -151zM205 86l-119 76l81 76zM346 256l-6 14l6 -3v-11zM605 -162l-257 162l57 219
l84 -71l35 -148h124v16l38 -32l-65 -146h-16zM275 -162l-251 216v46l52 46l135 -87l16 -59h81l259 -162h-292zM24 -162v194l224 -194h-224zM559 737l103 84h80l-148 -135zM551 659h-62l2 21l54 46l38 -51l-29 -30zM462 659l13 11v-11h-13zM284 516l153 121l-32 -127l-97 -92
zM24 227v81l106 86l27 -113l-79 -73zM24 211l41 -17l-41 -37v54zM605 821h27v-6l-11 -10zM329 821h254l22 -22l-146 -119zM251 659h-78l-122 162h249l140 -151l-162 -127zM24 707v114h6l121 -162h-86l59 -238l-8 -5zM24 664l79 -254l-79 -64v318z" />
    <glyph glyph-name="X" unicode="X" horiz-adv-x="688" 
d="M664 740h-16l16 27v-27zM664 562l-124 -6l103 170l21 -2v-162zM664 416h-210l78 124l132 5v-129zM664 189l-227 189l14 22h213v-211zM329 165l-13 8l5 5zM664 5l-59 27l-176 327l3 3l232 -195v-162zM256 68l52 89l32 -17l76 -140h205l-3 8l46 -24v-16l-24 -108zM364 -162
l-218 43l105 173l383 -208l-2 -8h-268zM122 -162l18 27l141 -27h-159zM610 821h54v-27l-48 -81zM502 659l-13 -27l-19 32l124 157h3l8 -124l-25 -38h-78zM421 518l-51 19l89 111l22 -30zM383 443l-37 65l16 16l54 -22zM297 230l5 -14l-10 11zM256 302l-8 -13l-37 49l16 18z
M151 127l-48 73l102 124l35 -49zM194 59l92 157l11 -16l-92 -154zM24 -40v137l68 87l48 -76l-64 -108h86l22 43l10 -13l-51 -84zM24 -162v105l108 -13l-56 -92h-52zM321 821h251l-148 -189zM292 610l-22 49h-27l-97 89l110 73h44l110 -200l-54 -67zM92 659l-30 32l73 49
l86 -81h-129zM310 578l36 -33l-11 -16zM24 416v248l27 16l19 -21h-5l148 -276l-81 -102zM24 389l95 -119l-95 -119v238zM170 821h32l-21 -14zM24 764v57h124l14 -22l-108 -70zM24 734l11 -16l-11 -5v21z" />
    <glyph glyph-name="Y" unicode="Y" horiz-adv-x="640" 
d="M616 189l-44 -5l38 124h6v-119zM616 43l-87 -3l41 127l46 11v-135zM616 -113h-130l43 137l87 3v-140zM616 -162h-144l9 32l135 -2v-30zM616 821v-60l-71 17l30 43h41zM616 610l-60 6l19 43h-73l-16 -41l-49 3l98 140l81 -16v-135zM446 505l-71 24l57 79l51 -3zM616 448
l-108 38l43 113l65 -2v-149zM383 340l-48 124l32 46l70 -24zM421 243l81 221l114 -35v-19l-76 -232zM235 243v-8l-46 19l27 35zM421 165v56l114 -59l-11 -38zM235 51l-165 30l114 162l51 -22v-170zM421 16v135l97 -35l-35 -111zM265 -162l-241 135v32l41 60l170 -33v-32h178
l62 -11l-46 -151h-164zM24 -162v116l208 -116h-208zM502 821h49l-27 -41zM265 821h224l24 -49l-41 -59zM130 794l43 27h59l230 -116l-100 -143zM65 659l32 -76l-73 81v60l95 59l127 -124h-181zM265 643l86 -92l-32 -49zM24 416v221l89 -97l84 -205l-54 -79zM24 194v192
l106 -140l-60 -84zM24 176l35 -28l-35 -51v79zM86 821h33l-27 -16zM24 821h49l5 -22l-54 -35v57z" />
    <glyph glyph-name="Z" unicode="Z" horiz-adv-x="640" 
d="M616 59h-22l22 81v-81zM616 -162l-76 11l49 189h27v-200zM616 821v-76l-95 33l33 43h62zM616 556l-54 22l10 19v62h-140l81 108l103 -38v-173zM616 454l-103 37l41 76l62 -22v-91zM267 418l-5 3l30 38zM432 354l73 127l111 -44v-151l-3 -5zM157 227l-30 8l127 170l5 -3z
M324 167l97 171l184 -73l-49 -176zM76 86l-38 22l81 108l27 -8zM270 65l46 86l232 -81l-3 -5h-275zM232 0h297l-38 -146zM65 65v-35l-41 27v29l8 11l38 -21zM367 -162l-254 162h92l281 -157l-3 -5h-116zM24 -162v205l41 -27v-16h21l257 -162h-319zM502 821h33l-30 -38z
M356 659l-62 70l98 92h97l2 -54l-81 -108h-54zM219 659l62 57l51 -57h-113zM232 591h124l-75 -100zM73 521l78 70h70l52 -110l-8 -9zM24 343v129l38 36l192 -46l-130 -173zM24 184v140l89 -49l-75 -102zM24 162l3 -3l-3 -2v5zM300 821h75l-105 -97zM197 778l62 43h33
l-33 -108l-16 -16zM24 626v19l160 122l48 -81l-32 -27h-89v-68h19l-30 -24zM24 599l60 -48l-60 -54v102zM70 821h157l-122 -92zM24 821h30l38 -97l-68 -52v149z" />
    <glyph glyph-name="bracketleft" unicode="[" horiz-adv-x="375" 
d="M351 821v-81l-43 16l27 65h16zM351 591l-43 19v49h-35l32 81l46 -16v-133zM351 472l-130 46l33 84h38l59 -24v-106zM351 321l-146 71v78l14 35l132 -46v-138zM351 140l-146 19v214l146 -71v-162zM65 32h-27l27 65v-65zM351 49l-146 -9v103l146 -19v-75zM65 -8l-33 13
l6 17h27v-30zM351 -113l-43 16v43h-103v84l146 8v-151zM351 -162h-327v138l6 13l35 -11v-89h232l54 -19v-32zM181 775l30 46h108l-14 -33zM157 659l-38 16l54 86l124 11l-43 -113h-97zM113 659v5l17 -5h-17zM205 602h27l-27 -67v67zM65 389l-41 59v65l35 59l6 -5v-178z
M65 254l-41 35v138l41 -60v-113zM24 108v162l41 -35v-46l-33 -86zM24 92l3 -3l-3 -5v8zM24 810v11h168l-52 -84zM24 788l106 -64l-44 -65h-21v-35l-41 -68v232z" />
    <glyph glyph-name="backslash" unicode="\" horiz-adv-x="472" 
d="M448 429l-27 3l27 94v-97zM448 300l-62 2l32 114l30 -3v-113zM448 132l-108 -2l43 156h65v-154zM448 -24l-78 29l-35 98v10l113 3v-140zM448 -151l-81 -11h-108l49 162l35 -94h62l-27 80l70 -26v-111zM448 821v-92l-59 92h59zM286 637l95 165l67 -100v-111l-11 -37z
M200 481l81 140l148 -84l-40 -145zM178 351l-40 11l21 40zM248 329l-48 135l183 -86l-21 -81zM256 140l-162 144l38 67l52 -16zM254 313l102 -27l-37 -140zM32 170l57 100l176 -157l24 -59l-19 -65zM24 -46v197l3 6l238 -184l-33 -119zM24 -162v97l200 -97h-200zM319 821h48
l-16 -33zM178 821h124l38 -43l-32 -62zM140 632l-10 27h-44l-62 32v130h130l143 -114l-70 -124zM146 608l70 -36l-32 -59zM24 470v200l46 -22l76 -205l-49 -79zM24 367v81l68 -94l-16 -27zM24 351l41 -32l-41 -76v108z" />
    <glyph glyph-name="bracketright" unicode="]" horiz-adv-x="375" 
d="M351 605h-5l5 19v-19zM351 505l-27 8l22 81l5 3v-92zM351 297l-43 -5v151l13 54l30 -8v-192zM351 154l-43 35v86l43 3v-124zM351 38l-43 19v116l43 -33v-102zM351 -159l-111 48h68v151l43 -18v-181zM167 -162l11 51h27l114 -51h-152zM351 821v-103l-92 76l11 27h81z
M308 594v65h-95l-16 11l57 113l97 -86v-17l-24 -97zM167 602v-135l-64 14l62 121h2zM308 575l11 -8l-11 -49v57zM167 335l-102 65l32 70l70 -19v-116zM167 235l-143 -14v98l35 70l108 -70v-84zM167 92l-143 32v87l143 13v-132zM119 -54l-95 49v116l143 -30v-108l-5 -27h-43z
M24 -162v138l62 -30h-21v-57h81l-11 -51h-111zM189 821h70l-29 -54zM159 659l-105 135l24 27h95l48 -65l-48 -97h-14zM65 659v-43l-41 16v127l22 24l100 -124h-81zM108 602h32l-5 -8zM24 405v211l103 -38l-89 -178zM24 389l3 -3l-3 -8v11zM24 821h25l-25 -27v27z" />
    <glyph glyph-name="asciicircum" unicode="^" horiz-adv-x="470" 
d="M446 567h-30l30 86v-86zM446 405l-46 19l-17 40l30 87h33v-146zM446 332l-90 43l11 35h38l41 -18v-60zM446 162l-154 16l62 184l92 -43v-157zM446 27l-214 -38l57 173l157 -19v-116zM184 -162l43 135l219 35v-57l-19 -113h-243zM446 821v-76l-79 76h79zM316 640l-8 19
h-54l-84 24l111 138h59l106 -103v-11l-33 -97zM162 659l-11 -19l-5 5l19 25l46 -11h-49zM321 626l84 -27l-32 -102zM97 494l-51 24l94 119l8 -8zM194 448l41 114l51 -152h54l-5 -27zM24 335v151l14 16l54 -24l-27 -68h119l5 22l138 -59l-62 -189zM24 146v170l232 -146
l-24 -78zM24 -11v141l200 -49l-51 -157zM24 -162v135l143 -65l-24 -70h-119zM243 821h11l-6 -11zM38 821h183l11 -22l-70 -89zM24 705v110l127 -113l-32 -43zM24 691l87 -38l-87 -110v148z" />
    <glyph glyph-name="underscore" unicode="_" horiz-adv-x="610" 
d="M586 578l-19 11l19 48v-59zM586 472l-60 25l36 81l24 -14v-92zM586 221l-149 63l87 197l62 -25v-235zM586 130l-189 56l35 84l154 -65v-75zM586 -16l-251 56l59 136l192 -57v-135zM586 -162h-135l-173 65l54 121l254 -56v-130zM254 -162l21 46l125 -46h-146zM586 821v-87
l-68 87h68zM362 688l110 133h30l84 -108v-19l-49 -111zM248 551l106 124l175 -108l-54 -113zM140 413l103 124l227 -100l-38 -86zM32 281l98 119l291 -62l-86 -198zM24 165l305 -38l-75 -173zM24 22v126l224 -202l-13 -27zM24 -162v167l203 -97l-30 -70h-173zM308 756l65 65
h81l-116 -141zM219 667l78 78l30 -75l-100 -119zM59 508l146 145l11 -118l-92 -111zM24 418v52l25 27l64 -81l-48 -62zM24 389l30 -49l-30 -32v81zM221 821h127l-83 -81zM32 821h173l49 -89l-68 -65zM24 572v235l149 -148l-124 -124zM24 545l14 -19l-14 -13v32z" />
    <glyph glyph-name="grave" unicode="`" horiz-adv-x="326" 
d="M302 562l-32 -3l32 121v-118zM302 448l-59 -16l27 113l32 6v-103zM302 281l-91 5l32 130l59 16v-151zM302 216l-97 32l6 22l91 -3v-51zM302 54l-140 3l43 181l97 -33v-151zM302 -86l-172 -11l32 140l140 -5v-124zM302 -162h-186l14 51l172 8v-59zM302 821v-41l-78 -51
l35 92h43zM208 640l-8 19l21 54l81 59v-21l-18 -76zM213 632l68 32l-27 -110zM154 535l19 48l46 -43h32l-8 -27zM86 348l65 170l87 -21l-38 -168zM59 270l22 65l113 -22l-32 -140zM24 113v63l30 80l103 -97l-27 -124zM24 -70v167l100 -75l-35 -149zM24 -162v73l60 -51
l-6 -22h-54zM178 821h70l-13 -38zM151 670l-102 48l70 103h32l76 -51l-35 -100h-41zM24 529v151l16 25l73 -35h-48l94 -79l-46 -127zM24 432v81l84 -59l-11 -27zM24 421l68 -5l-68 -184v189zM24 729v92h73l-67 -100z" />
    <glyph glyph-name="a" unicode="a" 
d="M632 375l-16 -5l16 54v-49zM632 289l-38 13l16 54l22 6v-73zM632 38l-60 24l-27 105l44 119l43 -16v-232zM632 -148l-160 99l19 49h100l-11 38l52 -22v-164zM432 -162l38 100l156 -100h-194zM632 821v-95l-106 57l30 38h76zM632 616l-176 75l62 79l114 -60v-94zM437 567
l-19 76l33 37l181 -78v-113l-11 -30zM297 421l-30 27l19 19zM446 540l167 -97l-78 -227zM367 140l11 -35l-54 35h43zM143 270l-8 5l13 17zM351 208h-119l-32 22l54 191l5 6l46 -44zM108 151l-43 30l65 84l10 -9zM194 208l3 8l8 -8h-11zM167 113l11 27h124l81 -59l22 -81h49
l-22 -54zM262 -162l-238 178v108l35 43l46 -27l-40 -140h73l27 103l262 -168l-35 -97h-130zM24 -162v159l208 -159h-208zM516 821h24l-22 -22zM297 745l86 76h119l6 -35l-54 -68zM254 659l-22 -79l-59 54l108 98l159 -30l-35 -43h-151zM178 397l-97 157l78 67l68 -59z
M24 324v178l46 41l103 -165v-8l-97 -122zM24 297l41 -59l-41 -49v108zM240 821h111l-78 -68zM100 821h121l38 -76l-73 -62zM24 637v184h57l92 -146l-108 -92zM24 618l30 -43l-30 -27v70z" />
    <glyph glyph-name="b" unicode="b" 
d="M632 202l-22 6l22 76v-82zM632 43l-70 8l10 30l19 65l14 48l27 -5v-146zM632 -122l-111 36l41 121l70 -8v-149zM632 -162h-130l16 59l114 -35v-24zM632 821v-6l-8 6h8zM632 513l-76 49q-15 38 -59 64l119 179l16 -11v-281zM524 392q38 35 43 81q2 21 0 34q-1 6 -5 22
l70 -43v-103l-11 -35zM308 319q21 -1 38 -12q7 -6 27 -18zM378 437q-2 -10 -14 -26q-19 -26 -24 -33zM583 238q-29 87 -148 110q45 12 73 33l108 -46zM389 270q14 -27 18 -66q1 -15 1 -26q0 -10 -3 -11l-157 46v19l49 78zM405 154q-12 -100 -113 -100l-44 38v108zM348 0h30
q81 0 135 27l-43 -138zM248 54v14l17 -14h-17zM243 -162l-205 70l62 92h224l140 -127l-10 -35h-211zM24 -162v43l8 11l160 -54h-168zM508 761l43 60h59l-11 -16zM486 632q-22 11 -65 21l76 98l94 43zM362 578q6 -13 13 -27h-35zM248 405v27l84 108h46q6 -20 8 -36
q2 -17 -3 -23l-48 -79zM313 373q-2 0 -3 -1l-2 -2h-60v19h76zM248 319h27l-27 -44v44zM65 146l-38 5l38 49v-54zM24 -22v157h41v-135l-19 -30zM24 -40l14 -3l-14 -22v25zM518 821h22l-5 -8zM275 778l57 43h154l38 -19l-70 -84zM405 653q-30 7 -57 7h-38q-45 -1 -62 -1
l-54 51l71 57l181 -60zM310 602q15 0 28.5 -5.5t12.5 -7.5l-11 -17zM135 659l49 38l43 -38h-92zM248 602h38l43 -40l-81 -103v143zM65 402l-41 62v103l41 32v-197zM24 435l41 -62v-141l-41 -51v254zM108 821h173v-8l-122 -97zM24 821h62l57 -114l-62 -48h-16v-14l-41 -35
v211z" />
    <glyph glyph-name="c" unicode="c" 
d="M632 440l-11 11l11 30v-41zM632 227l-92 11l76 199l16 -16v-194zM516 167q-2 -29 -11.5 -45.5t-18.5 -37.5zM632 38l-89 24q48 48 48 154l41 -5v-173zM632 -103l-222 -16l49 127q39 13 70 41l103 -27v-125zM632 -162h-238l11 27l227 16v-43zM632 821v-97l-114 62l27 35
h87zM632 562l-97 27q-40 60 -114 75l87 108l124 -65v-145zM300 513l143 86q38 -10 46 -82q3 -27 1 -48q-2 -22 -4 -23l81 29q0 61 -22 95l84 -25l-67 -170zM259 405l8 65l25 30l264 -138l-38 -97zM256 265v43q0 52 3 81l254 -135l-70 -184zM73 221q13 -82 51 -135l-100 49
v27zM432 49q-43 -13 -75 -11q-61 3 -82 87q-11 44 -16 113l176 -181zM329 -11h17q16 0 32 2l32 4l-13 -38zM221 -162l-197 151v127l127 -62q22 -17 60 -33l64 -26l114 -54l-41 -103h-127zM24 -162v132l173 -132h-173zM367 821h151l-94 -116zM392 670q-5 0 -20 1
q-36 2 -88 -11q-28 -7 -57 -23l-87 168l22 16h184l64 -130zM289 545q10 21 45 53zM211 629q-53 -34 -84 -84l-103 135v54l100 60zM119 529q-41 -65 -49 -156l-46 32v248zM24 248v141l41 -33v-70l-35 -43zM49 821h78l-30 -16zM24 818l62 -22l-62 -37v59z" />
    <glyph glyph-name="d" unicode="d" horiz-adv-x="672" 
d="M648 540l-54 27l54 108v-135zM648 408l-49 32q-12 48 -27 78l17 33l59 -27v-116zM648 205l-49 22q5 29 9 77t-9 117l49 -32v-184zM410 194q-8 -71 -27 -97h-24zM648 86l-108 3q41 50 57 122l51 -22v-103zM375 81q-4 -4 -15.5 -9t-13.5 -7l10 19zM648 -116l-227 132
q58 14 108 60l119 -6v-186zM648 -162h-416l87 162q37 0 81 8l248 -143v-27zM648 778l-5 10l5 8v-18zM526 583q-2 3 -2 6l113 186l11 -35v-27l-43 -81zM559 540q-10 18 -26 38l66 38zM413 405q0 9 1 -22v-31v-27q0 -11 -1 -12l-59 -5zM308 232l38 65h67v-38l-35 -65zM308 59
h-60v76l54 86l71 -37zM113 -86l54 86h108l-37 -81zM70 -162l35 59l122 9l-33 -68h-124zM516 821h132l-38 -62zM324 780l54 41h113l111 -70l-78 -130zM348 591q9 -3 41 -46zM508 599q-70 60 -222 60l-43 48l73 63l200 -160zM184 659l48 38l38 -38h-86zM248 472v125h76l78 -89
q4 -8 8 -29q3 -14 3 -21q0 -9 -3 -15l-62 -103zM65 448l-41 38v38l41 32v-108zM248 292v156l92 -119l-48 -75zM65 205l-41 22v235l41 -35v-222zM248 270l33 -27l-33 -54v81zM65 16l-41 38v157l41 -27v-168zM81 0h49l-17 -27zM24 -162v194l79 -72l-76 -122h-3zM265 821h73
l-68 -54zM140 821h114l5 -60l-97 -81zM97 659l-73 135v27h106l21 -146l-21 -16h-33zM24 756l54 -97h-13v-49l-41 -32v178z" />
    <glyph glyph-name="e" unicode="e" horiz-adv-x="580" 
d="M556 408l-2 2l2 6v-8zM556 319l-27 8l22 67l5 -2v-73zM556 51l-43 3v11h-59l72 245l30 -8v-251zM556 -73l-151 -13l27 86h81v38l43 -6v-105zM556 -162h-173l22 59l151 17v-76zM556 821v-51l-135 5l35 46h100zM556 634l-78 3v22h-143l78 102l143 -8v-119zM324 591h154v33
h78v-122l-8 -27zM432 359v30h-65l-119 57v89l44 56l251 -127l-43 -140zM248 389v38l84 -38h-84zM248 292v35h184v13l59 -27l-35 -119zM65 205l-38 33l38 48v-81zM248 65v205l200 -92l-32 -113h-168zM300 0h94l-21 -65zM24 5v211l41 -35v-181h210l92 -81l-16 -49zM24 -162
v151l319 -132l-5 -19h-314zM373 821h64l-32 -43zM270 821h86l44 -49l-49 -65zM103 659l-14 11l170 145l81 -118l-30 -38h-207zM248 591h11l-11 -13v13zM65 505l-41 40v65l41 38v-143zM24 351v173l41 -38v-143l-14 -19zM24 332l19 -19l-19 -21v40zM224 821h8l-5 -3zM97 821
h108l11 -11l-70 -59zM24 821h54l52 -81l-106 -92v173z" />
    <glyph glyph-name="f" unicode="f" horiz-adv-x="542" 
d="M518 -38l-10 6l10 48v-54zM518 -162h-16l-16 5l22 108l10 -5v-108zM518 624l-37 5l37 89v-94zM518 400l-97 97l43 94h17v25l37 -8v-208zM518 238l-102 89v62h-38l38 92l102 -103v-140zM265 124l89 203h35l129 -111v-86l-5 -33zM248 81l14 30l246 -25l-22 -124zM146 -162
l70 162h32v62l233 -116l-22 -108h-313zM362 788l27 33h129v-60l-5 -10zM329 659l-43 32l68 84l154 -41l-36 -75h-143zM410 591h33l-8 -19zM265 659l16 21l27 -21h-43zM248 551v40h141l38 -32l-33 -73zM302 389l-54 32v119l141 -65l-38 -86h-49zM65 346l-22 27l22 27v-54z
M248 389v13l22 -13h-22zM248 327h76l-76 -176v176zM65 127l-41 8v208l11 13l30 -37v-192zM24 22v102l41 -8v-116h113l-30 -65zM24 -162v167l116 -86l-35 -81h-81zM122 783l45 38h200l-92 -119zM65 659v-6l-41 30v19l84 70l151 -84l-21 -29h-173zM65 562l-41 35v73l41 -33
v-75zM24 405v175l41 -35v-99l-35 -46zM24 821h106l-106 -87v87z" />
    <glyph glyph-name="g" unicode="g" horiz-adv-x="667" 
d="M643 81h-38l38 119v-119zM643 -43l-65 19l5 24h16v49l6 16h38v-108zM643 -162h-103l38 122l65 -19v-103zM643 721l-46 5l46 70v-75zM643 626l-73 52l21 35l52 -6v-81zM643 329l-44 25v35h-62l-105 59l54 87q11 -39 11 -89l81 29q0 70 -54 124l38 63l81 -57v-276zM432 327
v-14l-70 14h70zM400 389l24 43l78 -43h-102zM599 270v65l38 -22l-13 -48zM432 135l-124 100l48 78l76 -16v-162zM599 259l19 -5l-19 -68v73zM429 113q-4 -35 -23 -55q-22 -22 -55 -11q-34 11 -57 50q-19 33 -24 73l30 49zM356 -11h6q11 0 84 22q9 3 39 15q35 15 33 17l8 -8
l14 -35h3l-41 -135zM332 -162l-213 81l70 119q61 -40 146 -49l162 -140l-6 -11h-159zM70 -162l43 68l173 -68h-216zM551 821h86l-24 -38zM289 767l67 54h162l84 -49l-59 -97zM508 621q-53 46 -131 49q-67 3 -129 -27l-48 48l78 65l254 -92zM308 589q23 24 65 24q66 0 99 -46
l-51 -86zM232 637q-47 -25 -78 -59l-46 38l81 64zM270 481q9 72 27 97l113 -108l-43 -70zM146 567q-47 -54 -68 -135l-54 51v60l76 62zM265 254v65q0 105 5 145l70 -75v-33l-67 -108zM24 116v338l49 -49q-9 -37 -11 -82q-7 -161 95 -258l-27 -41zM24 -70v156l95 -75
l-65 -105zM24 -86l22 -17l-22 -37v54zM248 821h79l-52 -43zM54 818l5 3h165l35 -54l-102 -81zM24 680v119l19 11l100 -132l-40 -30zM24 667l68 -30l-68 -54v84z" />
    <glyph glyph-name="h" unicode="h" horiz-adv-x="650" 
d="M626 421l-10 3l10 19v-22zM626 292l-43 21v11l33 89l10 -5v-116zM626 76l-43 -6v224l43 -21v-197zM626 -122l-186 36l30 86h113v49l43 8v-179zM626 -162h-210l21 59l189 -37v-22zM626 821v-49l-81 38l9 11h72zM583 524v135l-48 135l91 -43v-243l-5 -17zM400 483l-90 17
l90 116v-133zM583 454v48l27 -24l-11 -30zM400 389h-27l-98 59l30 41l95 -17v-83zM583 443l11 -6l-11 -32v38zM248 327h152v-246l-152 130v116zM248 389v21l19 22l73 -43h-92zM248 59v130l152 -130v-59h32l-24 -73zM24 -49v162l41 54v-167h183v43l152 -129l-19 -54zM24 -162
v97l349 -89l-6 -8h-343zM505 821h30l-17 -16zM297 821h184l27 -30l-103 -132h-5v-6l-11 -10zM248 594v65h-70l-65 62l141 100h21l103 -189l-70 -95zM65 659v-11l-16 22l54 43l59 -54h-97zM248 575l49 -46l-49 -65v111zM65 321l-41 41v291l11 6l30 -35v-303zM24 340l41 -43
v-59l-41 -54v156zM173 821h38l-27 -19zM24 821h127l16 -27l-143 -103v130zM557 659h-130l89 106z" />
    <glyph glyph-name="i" unicode="i" horiz-adv-x="316" 
d="M292 821v-70l-44 8l22 62h22zM292 597l-41 21v41h-35l27 86l49 -11v-137zM292 472l-41 17v116l41 -22v-111zM292 305l-41 3v164l41 -13v-154zM292 189l-41 16v87h41v-103zM65 40l-41 3v19l41 124v-146zM292 27h-41v165l41 -19v-146zM292 -124l-268 24v127l41 -3v-24h186
v11h41v-135zM292 -162h-268v49l268 -22v-27zM151 821h103l-6 -16zM27 748l54 73l162 -27l-35 -97zM65 659v-127l-41 35v167l176 -54l-6 -21h-129zM65 329l-41 44v172l41 -35v-181zM24 186v162l41 -40v-16l-35 -108zM24 799v22h35l-21 -30zM24 783l3 -3l-3 -8v11z" />
    <glyph glyph-name="j" unicode="j" horiz-adv-x="478" 
d="M454 616l-22 16l22 56v-72zM454 421l-44 -3v146l17 49l27 -16v-176zM454 286l-44 11v108l44 5v-124zM454 103l-54 13q10 47 10 165l44 -11v-167zM454 -5l-103 32q31 31 43 76l60 -14v-94zM454 -162h-108l-170 43l37 108q13 -1 53 -2q35 -1 74 29l114 -38v-140zM162 -162
l11 30l111 -30h-122zM454 821v-54l-65 24l16 30h49zM375 659h-56l64 121l71 -27v-24l-22 -59zM230 470l-14 -3l14 19v-16zM410 653l17 3l-17 -40v37zM230 362l-36 56l17 36h19v-92zM230 243l-125 11l84 151l41 -59v-103zM70 184q-5 -15 -5 -41q0 -30 5 -35l-27 27zM97 235
l3 5l11 -2zM205 49q-22 -22 -35 -18q-26 8 -30 73q-2 30 -1 58q2 67 7 76l84 -8v-87v-14q0 -4 -3 -18zM176 0l10 -5l-2 -6zM24 8v89l14 27l40 -43q9 -20 31 -38q35 -30 37 -32l32 -33l-5 -21zM24 -162v157l143 -49l-37 -108h-106zM302 821h90l-44 -81zM119 794l27 27h146
l48 -92l-21 -35zM230 659v-76l-168 159l46 44l205 -100l-16 -27h-67zM24 537v165l30 30l176 -168v-29l-57 -106zM24 232v281l138 -100l-111 -202zM24 211l16 -11l-16 -33v44zM54 821h62l-57 -49zM24 821h14l11 -60l-25 -21v81z" />
    <glyph glyph-name="k" unicode="k" horiz-adv-x="696" 
d="M672 616l-13 5l13 27v-32zM672 373l-127 21l108 211l19 -11v-221zM672 173l-181 108l49 97l132 -22v-183zM672 65l-92 32l-89 168l181 -108v-92zM605 -162l-259 143l43 87l32 -68h211l-38 76l78 -30v-89l-29 -119h-38zM275 -162l65 127l230 -127h-295zM672 821v-124
l-64 124h64zM540 643l14 16h-68l-46 13l132 149h17l75 -143l-30 -62zM378 540l-22 32l73 87l33 -11zM421 486l108 140l95 -27l-116 -226zM297 432l-43 27l92 103l27 -33zM454 340l-54 111l13 21l87 -116l-17 -32zM248 256l27 30l92 -178l-119 65v83zM248 364v79l38 -25z
M470 313l2 -3l-2 -2v5zM65 167l-33 33l33 38v-71zM216 0h32v151l111 -62l-78 -159zM24 -32v218l3 3l38 -43v-146h132l73 -81l-30 -62zM24 -162v113l208 -108l-5 -5h-203zM508 821h40l-24 -27zM410 821h81l22 -38l-22 -24zM205 805l27 16h160l89 -70l-103 -114zM248 659h-183
v-43l-41 37v33l165 102l173 -164l-114 -133v168zM65 400l-41 43v183l41 -37v-189zM24 416l41 -43v-79l-41 -46v168zM113 821h87l-108 -68zM24 761v60h84l-27 -76l-27 -16zM24 740l16 -16l-16 -11v27z" />
    <glyph glyph-name="l" unicode="l" horiz-adv-x="575" 
d="M551 821v-65h-43l37 65h6zM551 556l-124 49l75 135l49 -3v-181zM551 378l-187 111l57 97l130 -49v-159zM551 273l-270 62l78 140l192 -113v-89zM551 43l-303 178v52l27 48l276 -62v-216zM248 65v135l227 -135h-227zM551 -92l-241 92h198v49l43 -25v-116zM367 -162
l-316 76l46 86h173l281 -108v-54h-184zM24 -162v24l22 41l262 -65h-284zM413 818l3 3h113l-38 -65zM310 688l95 117l76 -65l-60 -108zM248 580v30l54 68l108 -57l-40 -76zM248 389v175l114 -29l-89 -157zM65 278l-41 19v38l41 48v-105zM248 367l14 -5l-14 -27v32zM65 119
l-41 19v143l41 -22v-140zM24 5v119l41 -21v-81l-14 -27zM24 -11l19 -5l-19 -35v40zM394 821h11l-11 -11v11zM216 805l19 16h148v-22l-54 -65zM248 659h-156l-41 8l151 127l117 -73l-71 -84v22zM65 562l-41 35v46l19 13l22 -5v-89zM24 578l41 -35v-127l-41 -49v211zM167 821
h44l-27 -22zM59 821h92l22 -30l-81 -67zM24 821h25l32 -103l-57 -48v151z" />
    <glyph glyph-name="m" unicode="m" horiz-adv-x="721" 
d="M697 0l-17 3l17 56v-59zM697 -162h-60l41 143l19 -3v-140zM697 529h-38v6l38 78v-84zM697 316l-38 19v175l38 3v-197zM697 238l-38 18v63l38 -19v-62zM481 86l-33 11l33 65v-76zM659 49v191l38 -19v-70l-33 -108zM572 -162l-194 111l62 127l41 -8v-68h172l-48 -162h-33z
M324 -162l49 94l167 -94h-216zM697 821v-92l-92 54l32 38h60zM659 659h-135l-11 11l81 97l103 -60v-59l-38 -81v92zM478 451h3v-19l-6 5zM432 478l-40 40l72 90zM402 373l-83 54l64 78l44 -41zM481 321l-33 19l22 81l11 -8v-92zM367 240l-46 165l76 -49zM378 86l65 238
l38 -22v-83l-79 -160zM127 124v60l57 70l70 -254h102l17 65l19 -22l-68 -135zM194 -162l-170 162v59l41 49v-108h62v103l192 -206l-30 -59h-95zM24 -162v140l149 -140h-149zM602 821h8l-5 -6zM459 821h124l11 -11l-65 -81zM200 821h237l79 -103l-108 -129zM251 659h-113
l-87 162h122l221 -246l-92 -111zM127 443h3l37 -138l-40 73v65zM65 659v-176l-41 73v265h11l84 -162h-54zM127 343l27 -49l-27 -32v81zM24 200v321l41 -73v-259l-16 -24zM24 162l6 -11l-6 -5v16z" />
    <glyph glyph-name="n" unicode="n" horiz-adv-x="599" 
d="M575 373l-40 2v60l40 110v-172zM472 259h-2l2 6v-6zM575 254l-40 2v100l40 -2v-100zM472 208l-13 19l8 16h5v-35zM575 124l-40 16v103h40v-119zM575 -68l-224 -5l32 84l6 -11h146v124l40 -16v-176zM575 -162h-256l27 70l229 6v-76zM575 821v-33l-13 11l10 22h3zM535 605
v54h-54l75 127l19 -19v-162l-8 -22zM472 470l-113 -27l108 186l5 -3v-156zM535 586l24 -19l-24 -67v86zM432 270l-89 140l8 17l121 32v-113l-29 -81zM289 159l-89 -8l43 81zM130 11v16l59 108l108 11l59 -95l-46 -124zM49 -113l64 113l189 -86l-24 -65zM24 -162l19 38
l227 -38h-246zM429 813l8 8h125l-57 -100zM356 724l65 78l76 -92l-27 -46zM278 508l-46 70l114 135l116 -65l-108 -189zM300 475l46 -27l-14 -21zM65 305l-33 35l33 38v-73zM130 238v178l102 -162l-46 -81zM65 140l-41 11v176l41 -46v-141zM130 124v87l48 -52l-27 -43z
M130 108l16 -3l-16 -27v30zM24 -27v167l41 -13v-127h19l-27 -49zM24 -46l25 -13l-25 -44v57zM292 821h118l-75 -89zM184 659h-62l-98 146v16h246l49 -100l-103 -116zM65 659v-127l-41 57v183l76 -113h-35zM24 440v130l41 -57v-76l-19 -24zM24 421l11 -16l-11 -11v27z" />
    <glyph glyph-name="o" unicode="o" horiz-adv-x="694" 
d="M670 232l-25 22l25 70v-92zM670 -22l-108 25l75 229l33 -27v-227zM670 -162h-17l-108 113l14 35l111 -24v-124zM510 -162l33 97l94 -97h-127zM670 821v-92l-114 16l60 76h54zM670 602l-141 14q-15 12 -48 29l64 84l125 -19v-108zM626 392q-15 141 -81 210l125 -13v-195
l-11 -35zM421 556q9 -39 14 -141q1 -25 3 -71q0 -29 -1 -36l-164 65zM626 270v97l22 -21zM437 292q0 -87 -8 -133l-170 68q0 -17 -8 47q-3 20 -2 41q1 22 7 31l9 10zM97 140q22 -45 49 -75l-87 29zM427 140q-7 -58 -52 -92q-21 -16 -44 -13q-23 2 -45.5 35.5t-26.5 137.5z
M356 -11q125 4 195 79l-43 -133zM308 -162l-284 140v65l30 38l127 -46q22 -15 58 -25q30 -9 61 -18l197 -70l-27 -84h-162zM24 -162v124l251 -124h-251zM356 764l65 57h173l-92 -116zM459 653q-49 17 -116 17q-72 0 -122 -22l119 103l146 -60zM284 589q12 30 61 30t63 -30
l-35 -46zM259 475l9 57q4 28 7 40l87 -40l-60 -78zM105 540q-27 -53 -35 -124l-46 43v16zM256 400q0 33 3 62l33 -16zM24 189v243l44 -40q0 -141 16 -208l-25 -27zM24 167l25 -24l-25 -32v56zM356 821h38l-27 -22zM167 821h173l11 -30l-76 -65zM24 724v97h116l119 -103
l-124 -108zM24 532v170l98 -100l-92 -78z" />
    <glyph glyph-name="p" unicode="p" horiz-adv-x="640" 
d="M616 5h-8l8 25v-25zM616 -151l-46 -11l35 151l11 3v-143zM616 734l-54 -10l54 86v-76zM616 591l-103 49l43 67l60 11v-127zM616 389l-49 27q7 34 7 61q0 48 -22 88q-16 29 -50 53l6 6l108 -52v-183zM389 421q-9 -57 -49 -81zM616 184l-227 91q139 16 173 119l54 -27v-183
zM281 240l16 30h16q5 0 19 2t24 -2l260 -103v-16l-27 -105zM248 81v103l27 46l308 -195l-11 -54zM362 -162l-232 146l10 16h108v65l319 -97l-32 -130h-173zM43 -162l81 130l200 -130h-281zM475 821h122l-33 -54zM286 821h162l106 -62l-41 -68zM475 634q-54 25 -114 27
q-42 1 -81 0q-63 -2 -121 -2l-70 65l143 97h22l248 -141zM248 578v19h44q86 0 100 -100l-19 -33zM65 659v-92l-41 49v54l52 37l54 -48h-65zM265 329l-17 19v203l111 -103l-73 -119h-21zM65 394l-41 38v165l41 -52v-151zM65 154l-41 54v208l41 -38v-224zM65 16l-41 27v138
l41 -54v-111zM24 22l46 -27l-46 -76v103zM65 813l13 8h116l-126 -87zM24 788l25 17l5 -81l-30 -22v86z" />
    <glyph glyph-name="q" unicode="q" horiz-adv-x="694" 
d="M329 122q19 0 41 -39q8 -15 5 -27q-3 -13 -29 -13q-52 0 -65 38q24 41 48 41zM670 821v-119l-119 32l70 87h49zM670 567l-138 46q-15 12 -46 30l59 75l125 -32v-119zM418 556q0 -26 8 -38l-29 11zM670 443l-54 19q-22 84 -65 132l119 -38v-113zM427 502q5 -30 5 -66v-96
l-108 87l68 86zM670 162l-54 40q12 62 12 124t-10 117l52 -16v-265zM432 319q0 8 1 -28v-39v-44q0 -23 -1 -41l-176 135v33l60 75zM670 -19l-116 89q40 51 56 114l60 -44v-159zM343 -11q4 0 13 1q13 1 22.5 -2t4.5 -15zM100 132q9 -21 28 -50l-50 21zM429 146q-4 -23 -8 -19
l-5 8q-26 53 -63 59q-30 5 -56 -21q-9 -12 -27 -30l-5 -5q-6 63 -9 143zM575 22q9 -28 1 -44q-9 -17 -25 -19q-22 -3 -42 17q-17 17 -26 40q36 19 57 43l65 -48zM591 -116q38 36 35 78l-1 15q-1 15 -3 19l42 -34l-21 -100zM297 -162l-273 138v54l46 56l92 -37q21 -18 60 -31
q32 -12 64 -23l106 -44q34 -97 116 -97q33 0 67 19l62 -27l-5 -8h-335zM24 -162v119l241 -119h-241zM562 821h37l-27 -33zM389 742l86 79h70l17 -43l-90 -114zM459 653q-52 19 -128 19q-16 0 -18 -2l65 59zM286 589q12 29 60 29t64 -32l-37 -49zM259 459q5 42 8 59
q6 41 14 57l81 -49l-60 -75zM76 443q-11 -55 -11 -92l-33 54zM259 400q0 8 -1 20q-1 11 1 23l30 -6zM24 194v195l41 -73q0 -20 6 -79t13 -59h-3zM24 181l46 -14l-46 -62v76zM267 821h176l-111 -103zM270 664q-20 -5 -35 -11l-95 168h108l71 -114zM221 648q-35 -15 -59 -32
l-138 126v79h100zM24 718l127 -116q-37 -33 -65 -102l-62 -63v281z" />
    <glyph glyph-name="r" unicode="r" 
d="M632 184l-60 5l60 167v-172zM632 89l-76 8q-2 8 -3 17q-1 8 1 10l18 52l60 -9v-78zM632 -49l-124 33l5 16h76q-20 28 -33 86l76 -10v-125zM632 -162h-170l43 127l127 -30v-97zM632 551l-22 65l22 40v-105zM513 367q50 36 58 91q3 23 1 38q-2 12 -5 25l38 76l27 -95v-59
l-38 -108zM548 232q-12 55 -73 87l16 32l6 5l89 -37l-30 -92zM329 0l38 86q2 -21 22 -86h86l-21 -59zM254 -162l67 148l127 -62l-30 -86h-164zM632 821v-70l-146 24l38 46h108zM432 707l46 57l154 -24v-52l-22 -43zM332 589q51 -16 60 -84l-111 21zM562 545q-37 93 -173 108
l32 44l178 -65zM392 491q2 -6 1 -26t-15 -47l-124 76l16 19zM248 313h33q48 0 67 -24q17 -20 19 -70l-119 35v59zM370 405q-25 -35 -122 -35v111zM454 324q-13 8 -17 8l22 8zM65 111l-41 29v76l41 49v-154zM213 0h35v232l119 -38v-48l-92 -195zM24 -24v143l41 -30v-89h119
l83 -59l-32 -71zM24 -162v122l203 -100l-11 -22h-192zM481 821h24l-19 -25zM310 821h157l8 -33l-57 -64zM270 659l-81 124l54 38h46l119 -108l-46 -54h-92zM65 659h30l-30 -41v41zM251 659h-156l83 113zM248 597h44l5 -8l-49 -60v68zM24 335v299l41 -45v-270l-16 -22z
M24 297l8 -16l-8 -11v27zM92 821h110l-89 -62zM24 821h46l24 -70l-70 -49v119z" />
    <glyph glyph-name="s" unicode="s" horiz-adv-x="599" 
d="M575 440l-21 3l21 59v-62zM575 194l-43 3q0 56 -27 100l46 130l24 -6v-227zM575 70l-75 11q32 41 32 97l43 -2v-106zM575 -49l-194 -13l24 67q56 24 86 65l84 -11v-108zM575 -162h-229l32 81l197 13v-94zM575 821v-41l-40 -5l27 46h13zM491 567q-14 34 -43 59l78 130
l49 8v-200l-8 -19zM416 564q11 -28 11 -64v-14l-38 32zM454 464l54 8q0 23 -11 73l65 -16l-44 -121zM475 338q-50 50 -143 89l51 81l41 -33v-8q0 -9 -2 -11l18 3l73 -59l-22 -65zM259 243q78 -32 105 -59l-180 -14l48 84zM375 170q19 -26 19 -51q0 -61 -84 -76l-153 81
l19 33zM273 43q-31 0 -63 13q-41 16 -56 47zM159 -162l-135 51v8l89 149q63 -59 173 -59q37 0 76 8l-54 -157h-149zM24 -162v32l84 -32h-84zM483 821h68l-49 -81zM310 729l84 92h78l19 -92l-32 -59zM435 637q-55 35 -133 35q-26 0 -48 -5l46 51l148 -59zM197 578
q23 40 101 39q73 -1 104 -37l-24 -37zM308 435q-56 18 -78 31q-47 26 -47 62q0 15 6 34l178 -33l-54 -97zM24 356v62l46 52q5 -138 141 -205l-27 -49zM65 216v-43l-41 21v146l122 -108zM143 162q0 13 11 65l19 -22l-30 -51v8zM24 27v151l41 -19q9 -56 27 -89l-38 -62zM24 8
l19 -13l-19 -35v48zM238 821h129l-73 -76zM205 653l-19 -5l-116 173h146l65 -81zM24 564v257h30l119 -178q-34 -19 -55 -56q-10 -21 -42 -63l-22 -22zM24 524l16 -33l-16 -16v49z" />
    <glyph glyph-name="t" unicode="t" horiz-adv-x="634" 
d="M610 521l-75 19l27 51h10v19l38 81v-170zM610 432l-113 24l32 68l81 -19v-73zM610 254l-194 27l78 162l116 -25v-164zM610 32l-194 125v108l194 -30v-203zM610 -65l-270 65h76v138l194 -122v-81zM610 -162h-329l-65 22l68 140l326 -81v-81zM205 -162l6 5l13 -5h-19z
M610 821v-60l-164 44l16 16h148zM535 659l-149 75l49 54l175 -43v-5l-40 -81h-35zM319 659l59 65l127 -65h-186zM416 554v37h119l-38 -78zM221 470l-37 40l37 38v-78zM416 535l70 -35l-70 -149v184zM221 256l-170 106l125 135l45 -51v-190zM221 86l-197 76v167l19 17
l178 -108v-152zM24 0v146l197 -78v-68h11l-54 -108zM24 -162v140l146 -102l-19 -38h-127zM432 821h5v-3zM354 821h64l9 -11l-27 -27zM135 821h200l54 -46l-105 -116zM65 659v-27l-41 38v151h89l149 -162h-197zM108 591h108l-49 -51zM24 643l41 -38v-14h16l70 -65l-127 -140
v257z" />
    <glyph glyph-name="u" unicode="u" horiz-adv-x="613" 
d="M589 443l-27 16l27 65v-81zM589 297l-41 11v102l14 36l27 -17v-132zM486 216v-8q-1 -18 -3 -31q-1 -7 -2 -7l-17 8l22 60v-22zM589 119l-49 24q8 35 8 149l41 -11v-162zM478 151q-12 -56 -51 -75l32 83zM589 -119l-222 38l33 81q107 29 135 124l54 -27v-216zM589 -162
h-249l24 62l225 -40v-22zM589 821v-22l-33 19l3 3h30zM548 562v97h-62v-27l-27 32l89 138l41 -24v-195l-19 -48zM486 446l-97 102l65 100l32 -38v-164zM548 535l14 -17l-14 -40v57zM486 335l-194 59l89 141l105 -108v-92zM248 286v43l36 54l202 -59l-49 -135zM386 59
q-91 -15 -118 40q-20 40 -20 166l179 -89zM308 -11q35 0 54 6l-16 -44zM35 -11l62 95q47 -85 184 -95l57 -54l-22 -54zM24 -162v132l3 6l281 -111l-11 -27h-273zM265 794l32 27h221l17 -11l-103 -154zM248 653v6h-5l-43 75l54 49l167 -140l-86 -135zM65 608l-6 8l6 5v-13z
M111 659l78 65l41 -65h-119zM248 437v189l76 -129l-51 -81zM65 308l-41 48v227l22 16l19 -16v-275zM248 416l11 -14l-11 -19v33zM24 167v162l41 -48v-65q0 -39 8 -79q3 -13 5 -13h-2zM24 148l44 -35l-44 -70v105zM54 821h184l5 -11l-111 -92zM24 664v157h11l84 -108l-81 -70
z" />
    <glyph glyph-name="v" unicode="v" horiz-adv-x="645" 
d="M621 567l-43 -5l43 97v-92zM621 410l-103 17l3 10l51 108l49 11v-146zM621 243h-157l49 167l108 -16v-151zM621 49l-205 21l43 157h162v-178zM621 -162h-30l-289 116l22 46h76l10 51l211 -21v-192zM275 -162l-21 11l43 92l254 -103h-276zM621 821v-8l-43 8h43zM580 651
l3 8h-43l-132 24l113 138l100 -22v-100l-24 -51zM454 454l-160 91l103 122l111 -22zM575 632h11l-30 -65zM394 235l-54 73l-56 218l2 3l162 -97zM162 275l-65 22l46 59zM362 216l-16 59l43 -54l-6 -10zM211 94l-187 117l62 75l81 -21zM367 205l11 -5l-8 -16zM24 27v165
l192 -122l19 -70h46l-65 -135zM24 -162v165l184 -154l-6 -11h-178zM464 821h33l-16 -19zM278 821h165l27 -30l-76 -89zM81 821h178l124 -127l-62 -76zM251 659h-186l5 -22l-46 65v92l41 21zM251 659l59 -49l-35 -43zM24 340v327l62 -84l46 -183l-78 -92zM24 316l19 -19
l-19 -22v41z" />
    <glyph glyph-name="w" unicode="w" horiz-adv-x="883" 
d="M859 108l-76 -5l76 181v-176zM859 -38l-111 54l30 70l81 6v-130zM859 -162h-184l67 162l117 -57v-105zM859 821v-87l-157 27l65 60h92zM859 475l-71 65l30 119h-73l-16 -70l-108 91l70 65l168 -29v-241zM678 392l-84 72l-32 152l48 48l114 -97zM734 340l49 178l76 -67
v-78l-44 -103zM392 448l-3 6l5 5zM643 256l-44 181l76 -64zM702 213l27 111l76 -68l-38 -94zM440 356l41 -178l-71 62zM351 286l-16 16l-19 81l62 60l11 -8zM653 35l44 162l62 -46l-62 -151zM205 86l-119 76l81 76zM346 256l-6 14l6 -3v-11zM605 -162l-257 162l57 219
l84 -71l35 -148h124v16l38 -32l-65 -146h-16zM275 -162l-251 216v46l52 46l135 -87l16 -59h81l259 -162h-292zM24 -162v194l224 -194h-224zM559 737l103 84h80l-148 -135zM551 659h-62l2 21l54 46l38 -51l-29 -30zM462 659l13 11v-11h-13zM284 516l153 121l-32 -127l-97 -92
zM24 227v81l106 86l27 -113l-79 -73zM24 211l41 -17l-41 -37v54zM605 821h27v-6l-11 -10zM329 821h254l22 -22l-146 -119zM251 659h-78l-122 162h249l140 -151l-162 -127zM24 707v114h6l121 -162h-86l59 -238l-8 -5zM24 664l79 -254l-79 -64v318z" />
    <glyph glyph-name="x" unicode="x" horiz-adv-x="688" 
d="M664 740h-16l16 27v-27zM664 562l-124 -6l103 170l21 -2v-162zM664 416h-210l78 124l132 5v-129zM664 189l-227 189l14 22h213v-211zM329 165l-13 8l5 5zM664 5l-59 27l-176 327l3 3l232 -195v-162zM256 68l52 89l32 -17l76 -140h205l-3 8l46 -24v-16l-24 -108zM364 -162
l-218 43l105 173l383 -208l-2 -8h-268zM122 -162l18 27l141 -27h-159zM610 821h54v-27l-48 -81zM502 659l-13 -27l-19 32l124 157h3l8 -124l-25 -38h-78zM421 518l-51 19l89 111l22 -30zM383 443l-37 65l16 16l54 -22zM297 230l5 -14l-10 11zM256 302l-8 -13l-37 49l16 18z
M151 127l-48 73l102 124l35 -49zM194 59l92 157l11 -16l-92 -154zM24 -40v137l68 87l48 -76l-64 -108h86l22 43l10 -13l-51 -84zM24 -162v105l108 -13l-56 -92h-52zM321 821h251l-148 -189zM292 610l-22 49h-27l-97 89l110 73h44l110 -200l-54 -67zM92 659l-30 32l73 49
l86 -81h-129zM310 578l36 -33l-11 -16zM24 416v248l27 16l19 -21h-5l148 -276l-81 -102zM24 389l95 -119l-95 -119v238zM170 821h32l-21 -14zM24 764v57h124l14 -22l-108 -70zM24 734l11 -16l-11 -5v21z" />
    <glyph glyph-name="y" unicode="y" horiz-adv-x="640" 
d="M616 189l-44 -5l38 124h6v-119zM616 43l-87 -3l41 127l46 11v-135zM616 -113h-130l43 137l87 3v-140zM616 -162h-144l9 32l135 -2v-30zM616 821v-60l-71 17l30 43h41zM616 610l-60 6l19 43h-73l-16 -41l-49 3l98 140l81 -16v-135zM446 505l-71 24l57 79l51 -3zM616 448
l-108 38l43 113l65 -2v-149zM383 340l-48 124l32 46l70 -24zM421 243l81 221l114 -35v-19l-76 -232zM235 243v-8l-46 19l27 35zM421 165v56l114 -59l-11 -38zM235 51l-165 30l114 162l51 -22v-170zM421 16v135l97 -35l-35 -111zM265 -162l-241 135v32l41 60l170 -33v-32h178
l62 -11l-46 -151h-164zM24 -162v116l208 -116h-208zM502 821h49l-27 -41zM265 821h224l24 -49l-41 -59zM130 794l43 27h59l230 -116l-100 -143zM65 659l32 -76l-73 81v60l95 59l127 -124h-181zM265 643l86 -92l-32 -49zM24 416v221l89 -97l84 -205l-54 -79zM24 194v192
l106 -140l-60 -84zM24 176l35 -28l-35 -51v79zM86 821h33l-27 -16zM24 821h49l5 -22l-54 -35v57z" />
    <glyph glyph-name="z" unicode="z" horiz-adv-x="640" 
d="M616 59h-22l22 81v-81zM616 -162l-76 11l49 189h27v-200zM616 821v-76l-95 33l33 43h62zM616 556l-54 22l10 19v62h-140l81 108l103 -38v-173zM616 454l-103 37l41 76l62 -22v-91zM267 418l-5 3l30 38zM432 354l73 127l111 -44v-151l-3 -5zM157 227l-30 8l127 170l5 -3z
M324 167l97 171l184 -73l-49 -176zM76 86l-38 22l81 108l27 -8zM270 65l46 86l232 -81l-3 -5h-275zM232 0h297l-38 -146zM65 65v-35l-41 27v29l8 11l38 -21zM367 -162l-254 162h92l281 -157l-3 -5h-116zM24 -162v205l41 -27v-16h21l257 -162h-319zM502 821h33l-30 -38z
M356 659l-62 70l98 92h97l2 -54l-81 -108h-54zM219 659l62 57l51 -57h-113zM232 591h124l-75 -100zM73 521l78 70h70l52 -110l-8 -9zM24 343v129l38 36l192 -46l-130 -173zM24 184v140l89 -49l-75 -102zM24 162l3 -3l-3 -2v5zM300 821h75l-105 -97zM197 778l62 43h33
l-33 -108l-16 -16zM24 626v19l160 122l48 -81l-32 -27h-89v-68h19l-30 -24zM24 599l60 -48l-60 -54v102zM70 821h157l-122 -92zM24 821h30l38 -97l-68 -52v149z" />
    <glyph glyph-name="braceleft" unicode="{" horiz-adv-x="418" 
d="M394 821v-92l-113 54l21 38h92zM394 656l-178 14l59 102l119 -59v-57zM394 502l-143 62q0 46 103 46v38h40v-146zM111 375l-62 6l62 102v-108zM394 346l-148 16q5 20 5 183l143 -59v-140zM108 362q0 -29 -31 -52q-8 -6 -12 -8v-5l-41 8v27l19 35zM394 216l-167 40l-33 30
q39 30 49 60l151 -14v-116zM65 270q39 0 45 -58q3 -28 2 -65t-1 -79l-87 24v197l41 -11v-8zM394 -16l-143 43v146q0 29 -13 65l156 -38v-216zM111 43q0 -56 8 -75l-95 29v79l87 -25v-8zM394 -113l-102 32h62v43h-62q-41 0 -41 49l143 -43v-81zM394 -162h-370v146l103 -30
q19 -35 119 -35l148 -43v-38zM130 756l54 65l91 -11l-86 -143zM24 616v8l98 118l59 -89q-70 -12 -70 -118l-19 -33zM24 508v86l62 -100l-21 -32zM24 491l35 -37l-35 -60v97zM165 821h5l-5 -6v6zM24 788v33h127l3 -16l-57 -73zM24 772l62 -48l-62 -76v124z" />
    <glyph glyph-name="bar" unicode="|" horiz-adv-x="310" 
d="M286 821v-87h-116l41 87h75zM286 651l-43 2v57h-81l5 14h119v-73zM286 470l-43 5v168l43 -6v-167zM65 373l-38 10l38 92v-102zM286 300l-43 13v146l43 -5v-154zM65 240l-41 3v130l41 -14v-119zM286 232l-43 3v67l43 -16v-54zM65 59l-41 6v162h41v-168zM286 43h-43v178
l43 -2v-176zM65 -43l-41 13v79l41 -3v-89zM286 -103l-173 49h130v84l43 -3v-130zM286 -162h-262v119l262 -70v-49zM154 821h35l-11 -27zM81 710l-57 22v89h111l38 -38l-33 -73h-59zM65 594l-41 3v121l41 -16v-108zM24 583h41v-32l-41 -95v127z" />
    <glyph glyph-name="braceright" unicode="}" horiz-adv-x="418" 
d="M394 -103h-16l16 100v-100zM394 -162h-21l5 43h16v-43zM394 821v-87l-48 -21l43 108h5zM394 589l-65 78l11 30l54 24v-132zM394 494l-86 41q0 6 -4 28q-4 19 -2 26l27 64l65 -81v-78zM194 313q0 -7 12 -13l-17 2zM394 254l-59 13q2 1 10 3q9 2 9 0v32q-36 0 -43 60
q-4 28 -3 67v84l86 -38v-221zM216 281q-6 -6 -19 -21q-17 -20 -13 -22l-17 8l17 43zM308 178v11q0 45 16 65l68 -16l-14 -92zM178 227q-11 -30 -11 -168l-59 33l57 140zM305 -5q3 9 3 51v121l65 -32l-27 -162zM38 -86l65 162l64 -33v-32q0 -49 -102 -49v-43h143q77 0 94 59
l41 -21l-11 -65zM24 -162v35l11 30l294 -27l-8 -38h-297zM254 805l11 16h113zM289 621q-7 10 -17 17q-13 7 -18 13l-65 56l54 84l127 14l-73 -189zM132 610q15 0 20 -7l5 -7q3 -5 8 -7l-41 19l6 2h2zM159 659l25 35l43 -35h-68zM167 567v-159l-143 -3v43l95 146zM24 308v81
l143 5q0 -6 7 -29q6 -19 4 -25l-30 -81zM24 186v111l119 -49l-40 -97zM24 167l70 -35l-70 -175v210zM103 821h140l-70 -105zM65 659v-6l-41 25v143h62l76 -116l-32 -46h-65zM24 510v149l41 -25v-24h32l-70 -102z" />
    <glyph glyph-name="asciitilde" unicode="~" horiz-adv-x="532" 
d="M508 732l-22 5l22 46v-51zM508 548l-103 8l78 168l25 -8v-168zM508 427l-130 70l22 43l108 -5v-108zM508 243l-127 46q49 17 89 73l-70 38q-28 -28 -61 -28q-9 0 -15 3l51 108l133 -73v-167zM508 62l-278 105l56 125q11 -4 34 -5t26 -3l162 -63v-159zM178 54l49 103
l281 -108v-81l-3 -22zM243 -162l-154 22l84 183l327 -111l-14 -94h-243zM81 -162l3 5l56 -5h-59zM432 821h76v-8l-17 -35zM251 672l116 149h30l84 -60l-87 -189zM167 564l76 95l140 -103l-51 -108zM297 381q-17 8 -52 11q-41 4 -56 8l-124 35l97 119l162 -117zM24 327v54
l35 40l98 -24q-53 -17 -92 -76l70 -40q26 29 59 29q32 0 65 -13l-38 -76zM24 140v168l189 -103l-78 -162zM24 -30v152l106 -90l-49 -102zM24 -162v113l49 -32l-38 -81h-11zM319 821h32l-27 -30zM221 821h84l8 -41l-32 -40zM24 713v62l65 46h116l65 -92l-100 -127zM24 562
v129l133 -100l-65 -83zM24 540l54 -43l-54 -70v113zM27 821h16l-8 -6z" />
    <glyph glyph-name="currency" unicode="&#xa4;" horiz-adv-x="626" 
d="M459 565l77 77l59 -58l-77 -77q46 -61 46 -146q0 -83 -47 -148l78 -77l-59 -58l-77 77q-65 -47 -147 -47q-79 0 -146 47l-77 -77l-59 58l78 77q-47 65 -47 148q0 82 46 146l-77 77l59 58l78 -77q70 47 145 47q76 0 147 -47zM312 490q-52 0 -88.5 -38t-36.5 -91
q0 -54 36 -92.5t89 -38.5q54 0 90.5 38.5t36.5 92.5t-36.5 91.5t-90.5 37.5z" />
    <glyph glyph-name="brokenbar" unicode="&#xa6;" horiz-adv-x="310" 
d="M286 821v-65l-24 16l13 49h11zM286 645l-43 -2v59l16 59l27 -16v-100zM286 475l-43 16v138l43 3v-157zM286 346l-81 37h38v92l43 -16v-113zM286 178l-43 -2v99h-121l29 108h16l119 -54v-151zM286 22l-43 13v127h43v-140zM286 -116l-262 8v38l41 143v-127h178v76l43 -17
v-121zM286 -162h-262v38l262 -6v-32zM127 775l24 46h114l-27 -81zM65 653h-3l3 9v-9zM92 710l27 51l113 -32l-5 -19h-135zM65 537l-41 -8v54l33 60l8 2v-108zM65 383l-41 41v94l41 6v-141zM65 383h65l-17 -48zM65 275v-37l-41 21v146l84 -81l-11 -49h-32zM24 73v167l41 -21
v-38l-33 -111zM24 54h3l-3 -8v8zM24 745v76h106l-60 -111h-5v-8l-6 -11zM24 718l25 -38l-25 -48v86z" />
    <glyph glyph-name="section" unicode="&#xa7;" horiz-adv-x="602" 
d="M578 389l-49 -6l49 130v-124zM578 248l-54 6q5 14 5 30q0 13 -6 60q-2 13 1 18l5 11l49 5v-130zM578 116l-70 6q-5 12 -22 35q-13 9 -11 20q3 15 29 42q10 10 14 21l60 -5v-119zM413 43q14 -19 10 -44q-5 -32 -45 -48zM578 -73l-119 3q29 23 45.5 62t15.5 77q0 21 -7 34
l65 -3v-173zM578 -162h-238l19 49q44 9 73 27l146 -6v-70zM578 821v-76l-43 76h43zM497 594q-3 10 -16 27l-49 65l92 129l54 -99v-133l-24 -65zM437 653l-21 6l5 11zM454 427q-19 11 -33 16l-113 38l-11 5l86 127q34 -15 45 -53q4 -14 4 -29q0 -13 -3 -17l83 26q-1 1 0 5
q0 2 -1 5l34 -48l-32 -92zM491 402l14 -2l-3 -6zM432 200q-9 0 -26 11q-10 7 -39 16l-132 43l-34 15q-16 7 -28 15l38 56l51 -10q50 -15 143 -52q37 -19 46 -38zM122 165q54 -36 197 -73q10 0 35 -11l24 -16l-43 -119zM248 -162l-224 140v100l68 98l232 -235q-33 -6 -68 -3
q-71 5 -85 59q-8 29 7 73l-92 -27q-4 -83 53 -127q32 -25 76.5 -34t74.5 -6q17 2 18 5l-14 -43h-46zM24 -162v119l192 -119h-192zM462 821h46l-25 -33zM265 740l83 81h95l29 -46l-40 -62zM394 667q-20 7 -68 11q-49 4 -115 -14l-14 11l57 54l167 -27zM259 621q12 4 48 4
q35 0 55 -4l-38 -57zM135 616q-3 -5 -8.5 -12.5t-7.5 -14.5l-6 2zM200 659q-26 -11 -40 -22l29 27zM275 494q-69 30 -72 71q-3 35 43 53l73 -62zM108 572q-14 -37 -11 -82q4 -54 38 -85q-49 -46 -65 -97l-46 46v151l76 73zM151 316q-11 11 -7 35q5 27 45 22zM24 238v91
l41 -43v-21q0 -5 7 -30q3 -9 4 -16q1 -6 0 -8l-8 -11zM24 216l33 -30l-33 -46v76zM184 821h137l-86 -81zM76 821h89l56 -92l-91 -86zM24 697v124h41l59 -184l-38 -35zM24 667l46 -73l-46 -49v122z" />
    <glyph glyph-name="copyright" unicode="&#xa9;" horiz-adv-x="822" 
d="M523 323l59 -15q2 -10 2 -17v-15q0 -139 -168 -139q-192 0 -192 216q0 97 52 161q56 69 149 69q143 0 143 -138l-62 -27q1 10 1 19v17q0 91 -68 91q-77 0 -77 -199q0 -171 85 -171q82 0 82 99q0 1 -6 49zM411 734q154 0 264 -110t110 -264q0 -114 -62 -207t-167 -138
q-69 -30 -145 -30q-153 0 -264 111.5t-111 263.5q0 153 111.5 263.5t263.5 110.5zM411 682q-133 0 -225.5 -95t-92.5 -227t93 -227t225 -95t225.5 94.5t93.5 227.5t-93.5 227.5t-225.5 94.5z" />
    <glyph glyph-name="guillemotleft" unicode="&#xab;" horiz-adv-x="445" 
d="M421 11l-3 5l3 16v-21zM421 -162l-24 38l19 124l5 -8v-154zM392 -162l2 22l16 -22h-18zM421 821v-65l-70 -22l43 87h27zM421 559l-140 21l65 138l75 22v-181zM421 454l-194 8l48 105l146 -24v-89zM292 443l-60 -119h-40l48 119h-19l3 8l149 -8h-81zM421 324h-86l46 119
h40v-119zM208 270v-38l24 -51l-46 13l-24 57l22 57h43zM346 148l-38 103l21 57l92 2v-148l-5 -32zM124 108l-54 11l27 51zM281 78l-54 11l-35 89l46 -11zM381 59l-30 76l62 -16l-8 -65zM24 -86v102l41 92l67 -16l19 -33h89l-8 14l60 -14h16l92 -19l-27 -175zM24 -162v59
l343 -48l-3 -11h-340zM284 821h89l-19 -43zM70 821h184l89 -54l-33 -65zM24 710v111h19l259 -130l-81 -167zM151 443l-16 -25l-111 73v197l189 -178l-29 -67h-33zM92 324l-68 54v100l106 -73zM24 359l62 -46l-21 -43v-38l5 -11l-46 -97v235z" />
    <glyph glyph-name="logicalnot" unicode="&#xac;" horiz-adv-x="529" 
d="M479 433v-212h-165v91h-272v121h437z" />
    <glyph glyph-name="registered" unicode="&#xae;" horiz-adv-x="822" 
d="M376 347v-204h-132v432h186q161 0 161 -112q0 -77 -84 -102q62 -27 69 -91l6 -57q5 -48 25 -70h-144q-12 32 -14 79l-2 63q-2 62 -55 62h-16zM397 532h-21v-142h21q67 0 67 71t-67 71zM411 734q154 0 264 -110t110 -264q0 -114 -62 -207t-167 -138q-69 -30 -145 -30
q-153 0 -264 111.5t-111 263.5q0 153 111.5 263.5t263.5 110.5zM411 682q-133 0 -225.5 -95t-92.5 -227t93 -227t225 -95t225.5 94.5t93.5 227.5t-93.5 227.5t-225.5 94.5z" />
    <glyph glyph-name="degree" unicode="&#xb0;" horiz-adv-x="407" 
d="M383 213h-5l5 22v-22zM383 22l-37 2l32 176h5v-178zM383 -162h-70l33 167l37 -5v-162zM383 821v-54l-129 38l11 16h118zM383 572l-54 17q-15 37 -50.5 59t-76.5 22q-23 0 -35 -6l81 124l135 -43v-173zM254 597q20 -17 24 -52l-116 60q5 2 17 5q11 2 21 0zM383 497l-43 19
q0 -8 1 20q0 12 -6 36l48 -10v-65zM278 529q0 -70 -59 -75q-39 -3 -71 22.5t-30 63.5q2 27 30 54zM24 389v35l46 73q7 -47 47 -76q37 -26 87 -26q51 0 88 29t43 78l48 -21v-60l-27 -146zM24 308v65l327 -114l-13 -70zM24 113v184l308 -119l-27 -146zM24 -22v119l276 -81
l-22 -119zM24 -162v127l251 -78l-10 -49h-241zM89 821h151l-51 -84zM130 648q-11 -4 -27 -22l-79 52v143h46l108 -92zM24 510v149l68 -43q-7 -12 -12.5 -32t-11.5 -30l-30 -52z" />
    <glyph glyph-name="plusminus" unicode="&#xb1;" horiz-adv-x="529" 
d="M466 401v-80h-162v-162h-80v162h-161v80h161v161h80v-161h162zM63 0v82h403v-82h-403z" />
    <glyph glyph-name="paragraph" unicode="&#xb6;" horiz-adv-x="529" 
d="M300 648v-734h-70v379h-56q-162 0 -162 212q0 79 30 139q38 76 110 76h342v-72h-65v-734h-69v734h-60z" />
    <glyph glyph-name="guillemotright" unicode="&#xbb;" horiz-adv-x="445" 
d="M421 383h-5l5 11v-11zM421 338l-11 2l6 27h5v-29zM421 170l-46 3l35 154l11 -3v-154zM421 11l-81 5l33 141h48v-146zM421 -130h-111l30 133l81 -8v-125zM421 -162h-116l3 16h113v-16zM421 821v-35l-108 10l16 25h92zM421 580l-205 52l92 146l113 -11v-187zM173 554l38 62
l210 -49v-59h-3zM297 443h-92l57 -138l-57 38l-48 100h-46l56 97l246 -49l-46 -194zM140 251l-16 -40l-100 16v65l62 102zM286 251l-30 -67l-35 8l19 40v38l-19 43l54 -38zM86 116l-62 43v57l95 -16zM159 68l57 113l38 -8l-49 -114h92l22 44l-27 -125zM24 0v146l60 -41
l-19 -46h86l135 -91l-11 -54zM24 -162v146l246 -84l-16 -62h-230zM162 821h146l-49 -84zM24 675v111l41 35h73l110 -97l-70 -114zM24 454v199l143 -56l-91 -154h-11l5 -11l-11 -16zM24 432l25 -27l-25 -43v70zM24 821h6l-6 -6v6z" />
    <glyph glyph-name="mu" unicode="&#xb5;" horiz-adv-x="529" 
d="M485 545v-545h-162v84q-35 -84 -80 -84q-20 0 -37 13v-153l-161 47v625q55 0 161 13v-409q0 -23 11 -39q12 -19 34 -19q72 0 72 186v268q95 5 162 13z" />
    <glyph glyph-name="mu" unicode="&#x3bc;" horiz-adv-x="529" 
d="M485 545v-545h-162v84q-35 -84 -80 -84q-20 0 -37 13v-153l-161 47v625q55 0 161 13v-409q0 -23 11 -39q12 -19 34 -19q72 0 72 186v268q95 5 162 13z" />
    <glyph glyph-name="afii10023" unicode="&#x401;" horiz-adv-x="580" 
d="M556 308l-16 5l16 54v-59zM556 135l-65 13l46 149l19 -5v-157zM556 -49l-43 49v65h-43l21 65l65 -17v-162zM556 -162h-151l46 159l36 3l69 -70v-92zM556 734l-19 11l19 35v-46zM556 578l-108 -11l14 24h16v33l51 105l27 -11v-140zM394 462l49 89l113 16v-124l-8 -22z
M313 297l16 30h111v67h-78l27 54l154 -43l-46 -149zM270 211l38 73l183 -41l-16 -65zM248 65v97l17 32l205 -27l-33 -102h-189zM367 -162l-229 103l27 54l94 5h159l-48 -162h-3zM86 -162l46 89l197 -89h-243zM535 821h21v-16zM478 659h-68l-27 27q32 0 52 12q25 16 14 46
q-18 46 -75 46q-11 0 -23 -2l27 33h132l35 -27zM232 659l70 75q5 -41 60 -48l27 -27h-157zM273 591h170l-51 -97zM302 394l-54 33v152l135 -98l-45 -87h-36zM65 340l-41 27v60l41 45v-132zM248 394v14l22 -14h-22zM248 327h54l-54 -106v106zM65 111l-41 32v203l41 -27v-208z
M24 -54v178l41 -35v-89h65l-54 -108zM24 -162v86l44 -43l-25 -43h-19zM308 821h38l-17 -16zM184 659l-25 27h8q40 0 60 11l-35 -38h-8zM245 717q-3 -13 -18 -20zM316 794l-71 -77q1 4 1 8q0 19 -20 39q-17 17 -36 25.5t-38 8.5q-40 0 -55 -39l-54 62h238zM24 486v332l70 -84
q0 -21 13 -26q8 -3 25 -17l27 -32h-94v-133l-38 -43z" />
    <glyph glyph-name="afii10017" unicode="&#x410;" 
d="M632 -162h-33l33 127v-127zM632 702h-16l16 27v-27zM632 583l-60 27l38 78l22 -2v-103zM632 475l-111 41l46 83l65 -29v-95zM632 275l-130 60l-27 92l41 75l116 -43v-184zM554 138l-46 175l124 -54v-146zM265 27l64 113h38l38 -140h186l-32 116l65 -19l-44 -178z
M418 -162l-207 81l48 92l316 -108l-16 -65h-141zM170 -162l35 65l168 -65h-203zM513 794l22 27h97v-62l-6 -14zM421 634l-5 25h-16l102 119l114 -46l-81 -152zM427 610l97 -43l-57 -108zM275 502l22 -81l-38 22zM162 338l-16 8l27 32zM221 300l35 132l44 -27l46 -173l-6 -8z
M119 184l-60 54l81 97l17 -14zM194 208l22 78l113 -75v-3h-135zM173 135l5 5h114l-41 -75zM65 0l-41 38v154l25 29l64 -54zM68 0h70l29 113l76 -64l-76 -135zM24 -162v176l133 -117l-30 -59h-103zM367 659l-59 162h202l-137 -162h-6zM254 659l-19 -65l-203 205l41 22h216
l59 -162h-94zM24 610v176l206 -211l-36 -121l-10 -14zM24 454v140l149 -162l-57 -70zM24 432l81 -78l-81 -100v178z" />
    <glyph glyph-name="afii10018" unicode="&#x411;" horiz-adv-x="640" 
d="M616 167l-6 -2l6 19v-17zM616 105l-22 3l14 43l8 3v-49zM616 -65l-65 6l43 151h22v-157zM616 -162h-90l25 86l65 -10v-76zM616 683l-71 24l71 114v-138zM616 548l-114 43h16l19 100l79 -24v-119zM616 432l-238 -5l97 162l141 -54v-103zM316 324q16 -2 26 -11
q13 -13 20 -16l-49 22zM572 205q-8 167 -216 184l14 21l246 6v-122l-27 -94zM378 270q14 -32 15 -73q1 -42 -10 -73l-135 54v30l60 94zM529 65q43 52 43 124l11 -5l-38 -127zM378 113q-12 -30 -40 -43l-90 38v59zM454 16q8 2 36 20t31 18l22 -5l-19 -65zM319 62
q-11 -3 -71 -3v33zM456 -162l-402 51l70 111h214q54 0 94 11l86 -38l-37 -135h-25zM27 -162l22 32l259 -32h-281zM540 783l27 38h38l-22 -30zM454 659l78 111l43 8l-73 -119h-48zM346 505l62 86h51l-43 -70zM292 389v38l48 64l68 17l-73 -119h-43zM289 327h8l-8 -14v14z
M265 389l16 21v-21h-16zM248 327h33v-27l-33 -52v79zM24 -27v65l41 62v-100h29l-45 -76zM24 -57l14 -29l-14 -27v56zM281 821h270l-103 -146zM238 659l-103 78l119 84h5l178 -157l-5 -5h-194zM327 591h59l-19 -29zM65 659v-124l-41 37v81l98 71l89 -65h-146zM248 591h49
l57 -40l-106 -151v191zM65 362l-41 38v151l41 -38v-151zM65 216l-41 27v140l41 -37v-130zM24 227l41 -25v-51l-41 -59v135zM124 821h76v-3l-62 -46zM24 729v92h84l16 -54l-81 -60zM24 707l3 -5l-3 -5v10z" />
    <glyph glyph-name="afii10019" unicode="&#x412;" 
d="M632 516l-33 8l33 73v-81zM632 443l-49 38l14 27l35 -11v-54zM632 254l-103 56q-4 3 -13 9l67 151l49 -43v-173zM632 27l-76 32q38 40 39 106q1 61 -25 102l62 -35v-205zM632 -76l-270 38l16 38q112 0 167 49l87 -38v-87zM632 -162h-324l51 113l273 -43v-70zM632 821v-11
l-11 11h11zM310 761l71 60h218l33 -30v-132l-11 -22zM302 602q64 0 76 -65l-92 65h16zM567 518q-17 141 -362 141l-5 3l100 83l310 -124zM383 518v-27q0 -64 -24 -97l-111 92v116h11zM481 335q-15 5 -46 13q19 5 55 19q8 4 10 8zM65 448l-41 38v16l41 38v-92zM351 383
q-22 -13 -103 -13v97zM248 294v25h54q75 0 98 -51q10 -23 10 -51t-5 -55zM65 211l-41 21v232l41 -35v-218zM346 59l-98 54v160l146 -125l-38 -83zM319 54h-71v38zM238 -162l-214 178v195l41 -22v-189h259l-73 -162h-13zM24 -162v157l187 -157h-187zM289 821h57l-33 -27z
M32 799l44 22h189l35 -38l-106 -89zM73 659l-49 65v64l160 -102l-33 -27h-78zM24 702l41 -57v-56l-41 -38v151z" />
    <glyph glyph-name="afii10020" unicode="&#x413;" horiz-adv-x="542" 
d="M518 767l-16 5l16 30v-35zM518 564l-91 27h54v68h-33l52 97l18 -8v-184zM518 464l-140 49l35 70l105 -32v-87zM518 302l-243 6l100 194l143 -48v-152zM518 165l-267 89l22 40l245 -2v-127zM518 -62l-270 67v230l270 -89v-208zM518 -162h-75l-324 135l13 27h68l318 -81
v-81zM51 -162l62 119l295 -119h-357zM454 821h59l-16 -27zM378 659l-5 59l59 92l57 -32l-62 -119h-49zM386 591h8l-5 -8zM335 659l29 46l3 -46h-32zM262 554l27 37h86l3 -24l-65 -130zM248 383v146l6 11l51 -113l-35 -68zM248 364l17 -16l-17 -32v48zM65 113l-41 -5v86
l35 54h6v-135zM24 5v92l41 6v-102zM81 0h-16v1zM24 -11l52 -5l-52 -97v102zM351 821h76l-38 -60zM286 659l-108 146l19 16h138l43 -70l-65 -92h-27zM124 659l-84 27l130 110l100 -137h-146zM65 659v-114l-41 27v100l8 6l57 -19h-24zM248 591h17l-17 -24v24zM24 343v213
l41 -27v-232zM24 319l30 -33l-30 -46v79zM97 821h68l-46 -38zM24 718v103h57l22 -49l-76 -65z" />
    <glyph glyph-name="afii10021" unicode="&#x414;" horiz-adv-x="683" 
d="M659 -162h-43l40 162h3v-162zM659 578l-60 21l54 103h6v-124zM659 351l-105 108v49l40 75l65 -21v-211zM554 238v199l105 -110v-173l-6 -14zM554 116v105l94 -91l-11 -44zM554 0v-103l-252 103h252zM370 65h-46l46 86v-86zM616 65h-62v35l78 -24l-16 -60v49zM567 -108
l19 11l-3 -19zM248 -162l-40 11l76 140l291 -121l-8 -30h-319zM659 821v-43l-70 13l21 30h49zM554 589v70h-65l89 119l81 -17v-27l-87 -156zM554 570l10 -6l-10 -19v25zM370 313l-51 114l51 70v-184zM157 205h-3l3 6v-6zM221 162v132l87 116l62 -145v-60l-57 -102zM157 178
q0 -41 -11 -70l-27 49l27 35l11 -8v-6zM194 65q18 41 22 81l89 -57l-13 -24h-98zM211 0h48l-21 -38zM140 97q-12 -32 -75 -32v-81l-41 21v22l89 119zM130 -49v49h70l30 -49l-19 -37zM24 -162v151l41 -21v-54l65 -30v51l70 -38l-33 -59h-143zM459 821h135l-54 -70zM302 756
l81 65h49l97 -81l-43 -60zM370 591v-29l-54 29h54zM205 659l-11 5l98 81l183 -75l-8 -11h-262zM157 513l-76 57l76 62v-119zM221 467v124h65l84 -48v-14l-84 -108zM157 327l-133 73v121l46 35l87 -62v-167zM221 448l54 -38l-54 -75v113zM24 108v275l133 -75v-54l-125 -165z
M105 821h233l-173 -141zM24 772v49h65l62 -146l-65 -54zM24 737l52 -121l-52 -44v165z" />
    <glyph glyph-name="afii10022" unicode="&#x415;" horiz-adv-x="580" 
d="M556 751l-16 5l16 32v-37zM556 572l-108 11l6 8h24v46l57 108l21 -5v-168zM556 483l-140 38l27 51l113 -10v-79zM556 313l-124 38v38h-81l65 119l140 -38v-157zM556 105l-308 65v19l73 138h111v2l124 -32v-192zM556 -84l-173 84h130v65h-265v86l308 -65v-170zM556 -162
h-335l-135 32l71 130h189l210 -103v-59zM70 -162l11 16l76 -16h-87zM335 659l-33 16l116 138l127 -6l-81 -148h-129zM248 540v51h179l-33 -62zM248 389v135l135 -6l-67 -129h-68zM256 327h30l-11 -19zM65 284l-41 2v38l41 54v-94zM248 270v43l17 -16l-14 -27h-3zM65 84
l-41 56v133l41 -3v-186zM24 -16v135l41 -60v-59h40l-27 -49zM24 -35l46 -27l-46 -86v113zM275 815l6 6h129l-118 -143zM243 659l-70 65l94 86l17 -140l-9 -11h-32zM103 659l59 54l59 -54h-118zM24 586l25 24l16 -70v-130l-41 -54v230zM232 821h16l-10 -8zM43 821h173l8 -16
l-127 -114zM24 818l57 -132l-57 -54v186z" />
    <glyph glyph-name="afii10024" unicode="&#x416;" horiz-adv-x="1066" 
d="M1042 157h-19l19 37v-37zM1042 86l-32 33l5 16h27v-49zM1042 -162l-119 92l33 70h43l-22 46l27 57l38 -38v-227zM880 -162l33 70l97 -70h-130zM1042 313l-162 -11l154 233l8 -17v-205zM934 127l-75 143l10 16l173 11v-54l-67 -146zM953 89l14 -8l-6 -8zM718 62l27 38
l51 -100h133l-43 -97zM621 -162l-32 27l118 178l168 -156l-25 -49h-229zM572 -162l6 5l5 -5h-11zM1042 821v-184l-100 184h100zM875 599l48 60h-86l-16 -22l-89 62l170 122h16l124 -232l-48 -73zM751 540l-87 108l57 40l92 -62zM791 486l78 100l114 -78l-95 -141zM446 400
l-41 18l-16 25l57 43v-86zM621 364v246l30 22l86 -108zM767 451l11 19l97 -119l-33 -49zM416 286l30 -30v-94l-68 51zM446 364l-14 19l14 -8v-11zM621 30v226l22 30l5 -2l76 -144l-84 -124zM194 248l-21 27l48 38l3 -5zM319 97l51 100l76 -57v-140h175v8l5 -8l-105 -157z
M275 -162l-251 157v170l135 100l25 -33l-119 -232h205l38 78l194 -240h-227zM24 -162v135l214 -135h-214zM718 821h135l-59 -43zM621 659h-113l-19 162h191l98 -54l-157 -114v6zM302 788l87 33h81l19 -162h-43v-130l-79 -54zM297 451l-3 -5l-19 35zM227 659h-49l-35 59
l146 60l59 -284zM24 437v233l106 43l27 -54h-17l60 -81l86 -151l-8 -14l-213 -154zM24 324l19 -78l-19 -14v92zM221 821h76l-70 -27zM119 821h81l8 -33l-78 -32zM24 821h76l13 -70l-89 -35v105z" />
    <glyph glyph-name="afii10025" unicode="&#x417;" horiz-adv-x="615" 
d="M591 556h-8l8 16v-16zM591 408l-59 8l51 127h8v-135zM591 262l-70 13l-30 30l38 95l62 -6v-132zM591 124l-46 6q7 32 6 63t-19 66l59 -11v-124zM591 -73l-224 57l6 11q139 24 167 118l51 -5v-181zM591 -162h-137l-125 43l35 87l227 -60v-70zM316 -162l13 30l81 -30h-94z
M591 821v-51l-143 51h143zM518 562q-6 18 -16 31q-20 24 -21 25l-92 133l48 54l154 -54v-111l-46 -114zM267 610q61 -4 83 -37q11 -16 11 -35q0 -18 -5 -41l-110 86zM448 643q-46 23 -127 27l62 67zM529 497q1 3 2 11t-1 14l5 -9zM529 524q0 -1 1 -1v-1zM483 392q3 2 8 8
l-5 -11zM356 475q-7 -70 -78 -86l-154 54l11 16l32 -13q0 3 -3 18q-2 8 -2 14q-1 8 0 8l76 86zM400 348q13 6 38 18l23 11q10 5 9 6l8 -5l-19 -49zM248 386h-20q-5 0 -39 -3v-75h43q69 0 99.5 -27t30.5 -95l-338 106v37l89 103zM77 219q0 -1 -4.5 -9t-2.5 -10l-46 40v38
l122 -38zM362 173q0 -87 -31 -114q-15 -13 -37 -14t-51 4l-95 81q-1 3 -1 13q0 42 10 95zM308 -11h11l-6 -5zM216 51q-50 13 -62 57zM24 -11v232l44 -37q-5 -47 -2 -86q5 -73 92 -96q46 -12 128 -13l22 -16l-27 -70zM24 -162v132l246 -81l-22 -51h-224zM262 813l11 8h143
v-14l-92 -105zM292 670q-41 0 -76 -8l-49 72l84 68l62 -111zM200 659q-103 -40 -114 -141l-62 22v78l130 106zM162 524q0 24 17 49q21 31 53 35zM24 386v138l57 -24v-25l27 -8l-76 -84zM205 821h38l-27 -19zM92 821h97l16 -25l-59 -48zM24 821h54l57 -81l-111 -89v170z" />
    <glyph glyph-name="afii10026" unicode="&#x418;" horiz-adv-x="667" 
d="M643 572l-38 11l38 70v-81zM643 392l-44 -3v178l44 -11v-164zM643 232h-44v141l44 5v-146zM643 108l-44 16v97l44 -2v-111zM643 -119l-343 49l113 235l3 -3v-162h183v103l44 -11v-211zM643 -162h-243l-119 43l13 33l349 -49v-27zM259 -162l16 30l81 -30h-97zM551 778
l32 43h60v-133l-6 -2zM599 632v27h-140l81 102l92 -89l-22 -40h-11zM416 483v-29l-11 5zM356 481l-21 8l43 56zM599 618l6 3l-6 -11v8zM321 383l-56 11l62 81l24 -11zM416 437v-70l-41 6l25 70zM284 270l-36 16v87l11 10l60 -10zM329 243l44 119l43 -6v-118l-16 -30zM65 76
l-27 13l27 38v-51zM251 173h-3v92l27 -17zM238 0h10l76 227l65 -38l-103 -211zM178 -162l-154 140v92l41 -16v-54h124l89 -38l-59 -124h-41zM24 -162v124l135 -124h-135zM518 821h52l-33 -43zM405 802l19 19h78l24 -54l-80 -108zM248 599v60l144 129l40 -129h-16l-22 -60
l-21 -32zM248 583l114 -27l-114 -151v178zM65 432l-27 30l27 24v-54zM24 184v262l3 2l38 -43v-235l-6 -8zM24 157l19 -11l-19 -27v38zM373 821h27l-11 -11zM103 821h248l24 -22l-135 -124zM65 659v-22l-41 60v97l54 27l149 -154l-11 -8h-151zM24 670l41 -60v-89l-41 -40v189
z" />
    <glyph glyph-name="afii10027" unicode="&#x419;" horiz-adv-x="667" 
d="M643 232l-44 -5v38l44 124v-157zM643 43h-44v168l44 5v-173zM464 -138l49 138h86v27h44v-43l-25 -100zM456 -162l3 11l157 21l-11 -32h-149zM643 821v-33l-76 33h76zM643 559l-44 19v81h-172l-71 32q106 10 127 97l-40 17l16 16h57l127 -54v-208zM378 548l-124 73l70 65
l86 -38zM599 416v146l44 -22v-68l-25 -67zM416 483v-143l-38 35zM335 416l-87 78v116l125 -75zM599 400l11 -6l-11 -38v44zM65 302l-41 25v62l41 43v-130zM259 194l-11 6v270l79 -73zM416 105l-111 62l65 189l46 -43v-208zM65 167l-41 22v119l41 -22v-119zM251 173h-3v8
l6 -3zM270 68l30 83l116 -65v-86h54l-11 -24zM265 -162l-241 162v173l41 -22v-151h183l17 54l189 -92l-44 -124h-145zM24 -162v146l214 -146h-214zM308 821h110l-62 -60zM332 740q-84 0 -84 78l-64 -30q4 -18 21 -46l-86 79h170l57 -68l-11 -11zM238 713q11 -6 23 -13
q16 -9 22 -7l-13 -13zM65 659v-133l-41 95v167l57 33h11l164 -149l-13 -13h-178zM24 472v111l41 -92l-33 -29zM24 821h14l-14 -8v8z" />
    <glyph glyph-name="afii10028" unicode="&#x41a;" horiz-adv-x="696" 
d="M672 76h-2l2 10v-10zM672 -113l-48 16l43 156l5 -2v-170zM672 -162h-64l13 43l51 -11v-32zM672 724l-13 8l13 21v-29zM672 556l-127 -16l108 178l19 -11v-151zM672 383l-178 65l46 78l132 19v-162zM505 243l-59 116l43 73l183 -68v-170l-19 -59zM521 211l127 -92
l-27 -103zM594 0h22l-6 -16zM248 0v19l87 148l86 -167h154l30 -27l-22 -76zM140 -162l87 146l351 -106l-11 -40h-427zM556 821h116v-27l-24 -38zM319 810l13 11h200l108 -76l-51 -86zM429 494l125 165h-84l-84 -111l-154 197l76 54l270 -151l-114 -194zM65 556l-38 38l38 27
v-65zM259 381l-11 8v270h-129l97 70l157 -194zM400 451l16 27l32 -41l-21 -37zM65 308l-41 38v221l41 -38v-221zM248 143v113l27 30l38 -70l-54 -86zM65 159l-41 33v137l41 -40v-130zM248 124l3 -5l-3 -6v11zM24 -70v243l41 -33v-140h113l-84 -135zM24 -162v70l62 -54
l-10 -16h-52zM62 821h232l-167 -119zM24 818l8 3h11l70 -127l-89 -62v186z" />
    <glyph glyph-name="afii10029" unicode="&#x41b;" horiz-adv-x="691" 
d="M667 270l-8 5l8 27v-32zM667 113l-41 6v51l27 92l14 -3v-146zM667 -92l-111 54l14 38h56v103l41 -9v-186zM667 -162h-149l36 105l113 -56v-49zM667 745l-35 -5l35 54v-49zM667 637l-41 16v6h-10l-27 11l37 59l41 5v-97zM667 405l-41 16v216l41 -16v-216zM440 294l-73 16
l73 111v-127zM626 400l38 -14l-38 -121v135zM440 138l-151 24v19l73 116l78 -19v-140zM227 -5q54 19 62 151l151 -27v-119h89l-24 -78zM224 -162l-113 49l62 102h13l311 -86l-22 -65h-251zM81 -162l22 38l83 -38h-105zM618 821h49l-5 -11zM356 697l130 124h81l86 -22
l-75 -113zM440 591v-29l-40 29h40zM319 659l27 27l224 -14l-8 -13h-243zM230 446l-90 37l90 84v-121zM292 418v173h81l67 -51v-70l-57 -92zM230 324l-144 108l44 38l100 -41v-105zM292 281v121l81 -35l-65 -102zM292 265l8 -11l-8 -16v27zM135 181q4 20 11 62l-65 -19l-5 -8
l-52 27v124l54 54l152 -113v-165l-9 -13zM167 49q-35 15 -35 113l79 -46zM24 38v186l46 -30q-3 -17 -6 -52q-6 -66 23 -109q16 -24 48 -38l-11 -17zM24 -162v178l89 -51l-81 -127h-8zM319 821h140l-73 -70zM230 659v-41l-125 192l25 11h162l81 -81l-87 -81h-56zM38 767
l54 32l129 -200l-99 -97zM24 470v289l3 2l86 -267l-64 -62zM24 437l8 -16l-8 -5v21zM24 821h57l-57 -33v33z" />
    <glyph glyph-name="afii10030" unicode="&#x41c;" horiz-adv-x="721" 
d="M697 364l-9 3l9 19v-22zM697 256l-38 9v10l27 76h11v-95zM697 3l-38 2v243l38 -10v-235zM697 -119l-179 16l36 92l143 -5v-103zM697 -162h-200l19 43l181 -16v-27zM697 821v-87l-114 6l65 81h49zM697 537l-38 35v87h-92l-24 24l35 43l119 -8v-181zM524 659l11 13l16 -13
h-27zM659 448v108l38 -38v-70l-9 -16zM478 451h3v-116l-33 11zM400 364l-76 30l-3 6l127 156l6 -2zM659 432l21 -16l-21 -65v81zM367 240l-38 130l65 -24zM481 108l-81 62l43 159l38 -13v-208zM232 70l-105 52v24l62 81zM359 11l38 140l84 -62v-89h37l-18 -54zM65 32l-19 11
l19 25v-36zM405 -162l-278 162v105l111 -51l16 -54h94l143 -68l-35 -94h-51zM24 -162v173l14 19l27 -16v-14h21l281 -162h-343zM597 821h37l-51 -60zM443 713l108 108h38l-14 -70l-51 -65zM346 616l86 86l81 -27l-11 -16h-21l-11 -41l-78 -94zM281 545l54 54l43 -91l-65 -81
zM65 308h-22l22 21v-21zM162 321l-35 -2v70l13 16zM65 197l-41 41v48l14 11l27 3v-103zM127 308l40 5l11 -51l-51 -68v114zM24 216l41 -43v-54l-41 -51v148zM421 821h103l-43 -43zM259 629l-48 192h183l73 -54l-192 -195zM81 659l-57 75v87h170l41 -162h-154zM65 421l-41 54
v232l41 -56v-230zM127 443h3l-3 -11v11zM24 446l41 -54v-17l-41 -43v114z" />
    <glyph glyph-name="afii10031" unicode="&#x41d;" horiz-adv-x="650" 
d="M626 421l-10 3l10 19v-22zM626 292l-43 21v11l33 89l10 -5v-116zM626 76l-43 -6v224l43 -21v-197zM626 -122l-186 36l30 86h113v49l43 8v-179zM626 -162h-210l21 59l189 -37v-22zM626 821v-49l-81 38l9 11h72zM583 524v135l-48 135l91 -43v-243l-5 -17zM400 483l-90 17
l90 116v-133zM583 454v48l27 -24l-11 -30zM400 389h-27l-98 59l30 41l95 -17v-83zM583 443l11 -6l-11 -32v38zM248 327h152v-246l-152 130v116zM248 389v21l19 22l73 -43h-92zM248 59v130l152 -130v-59h32l-24 -73zM24 -49v162l41 54v-167h183v43l152 -129l-19 -54zM24 -162
v97l349 -89l-6 -8h-343zM505 821h30l-17 -16zM297 821h184l27 -30l-103 -132h-5v-6l-11 -10zM248 594v65h-70l-65 62l141 100h21l103 -189l-70 -95zM65 659v-11l-16 22l54 43l59 -54h-97zM248 575l49 -46l-49 -65v111zM65 321l-41 41v291l11 6l30 -35v-303zM24 340l41 -43
v-59l-41 -54v156zM173 821h38l-27 -19zM24 821h127l16 -27l-143 -103v130zM557 659h-130l89 106z" />
    <glyph glyph-name="afii10032" unicode="&#x41e;" horiz-adv-x="694" 
d="M670 513h-17l17 32v-32zM670 437l-33 30l16 35h17v-65zM670 211l-54 -6q12 57 12 113q0 53 -7 109l11 27l38 -36v-207zM670 54h-133q54 49 73 135l60 5v-140zM670 -81l-246 46l16 35q51 17 81 43l149 -5v-119zM670 -162h-297l45 108l252 -49v-59zM670 821v-3l-6 3h6z
M670 605l-152 19q-22 21 -27 16l138 181h8l33 -22v-194zM421 545q3 -9 6 -27l-22 8zM613 467q-21 86 -73 138l124 -16zM432 497q8 -110 5 -168q-4 -63 0 -64l-1 1l-155 88l116 156zM437 248l-7 -84q-3 -36 -9 -56l-165 184v27l14 21zM108 122q9 -23 12 -28q8 -16 20 -21
l-54 21zM416 92q-7 -22 -29 -36.5t-46 -14.5q-43 0 -60 37q-20 43 -25 192zM332 -11h14h11q16 -1 17 -1q22 0 27 5l-12 -28zM238 -162l-189 202l32 41l92 -41q13 -9 102 -45l108 -44l-51 -113h-94zM24 -162v167l16 22l176 -189h-192zM513 821h92l-60 -79zM413 821h87l35 -87
l-25 -37zM470 651q-46 18 -112 19q-63 1 -110 -14l-126 68l148 97h124l103 -133zM321 616h12q47 -1 75 -16q14 -7 5 -22l-5 -8zM227 648q-30 -7 -60 -32l-73 86l14 11zM265 508q7 81 37 102l92 -51l-81 -111zM157 610q-61 -57 -81 -162l-52 60v145l62 41zM256 378
q0 19 1.5 56.5t1.5 56.5l43 -51zM24 170v308l46 -54q-5 -37 -5 -81q0 -103 27 -181l-35 -43zM24 140l22 -32l-22 -27v59zM135 821h84l-71 -43zM24 751v70h95l16 -51l-78 -52zM24 732l19 -19l-19 -14v33z" />
    <glyph glyph-name="afii10033" unicode="&#x41f;" horiz-adv-x="650" 
d="M626 535h-43v10l43 92v-102zM626 373l-43 16v129h43v-145zM626 284l-43 18v73l43 -13v-78zM626 97l-43 11v181l43 -19v-173zM626 -86l-302 46l76 170v-130h183v92l43 -16v-162zM626 -162h-356l49 103l307 -46v-57zM626 724l-48 -22l48 81v-59zM583 659h-27l11 24l59 27
v-40l-43 -92v81zM400 305l-65 -35l65 113v-78zM305 216l22 38l73 43v-108l-19 -43zM248 22v91l49 89l76 -70l-76 -167zM216 -162l-86 65l54 97h59l43 -51l-48 -111h-22zM92 -162l27 51l70 -51h-97zM421 659l-113 162h281l32 -14l-86 -148h-114zM400 591v-43l-68 43h68z
M232 659l-75 48l137 106l108 -154h-170zM65 529l-41 33v43l41 32v-108zM94 659l52 38l56 -38h-108zM248 400v191h54l98 -62v-92l-60 -102zM65 340l-41 30v170l41 -32v-168zM248 205v173l81 -59l-70 -125zM65 178l-41 43v130l41 -30v-143zM24 32v168l41 -43v-157h75l-27 -46z
M24 -162v170l79 -67l-60 -103h-19zM246 821h13l-11 -6zM65 821h156l14 -16l-127 -92zM24 821h25l48 -116l-73 -57v173z" />
    <glyph glyph-name="afii10034" unicode="&#x420;" horiz-adv-x="640" 
d="M616 394l-44 14l38 89h6v-103zM616 275l-71 46l27 73l44 -13v-106zM616 59l-146 65l70 181l76 -46v-200zM616 -70l-211 16l62 165l149 -68v-113zM616 -162h-252l36 92l216 -19v-73zM616 821v-54l-130 -11l49 65h81zM437 691l44 54l135 8v-173l-11 -16zM351 578
q34 -24 38 -81l-76 35zM572 478q-8 151 -162 175l19 25l170 -127zM392 481q0 -85 -25 -114l-119 38v38l60 75zM356 351q-31 -22 -108 -22v60zM248 211v59h65q27 0 104 21l48 13q20 6 26 4l9 -3l-63 -154zM65 116l-41 24v6l41 54v-84zM248 16v176l184 -57l-70 -184zM246 -162
l-222 176v108l41 -25v-97h178l111 -59l-41 -103h-67zM24 -162v157l197 -157h-197zM400 821h118l-35 -46zM278 707l105 103l87 -49l-76 -97zM383 656q-26 0 -78 1.5t-78 1.5l43 38zM248 597h44q9 0 25.5 -3.5t17.5 -4.5l-27 -35zM248 583l52 -38l-52 -64v102zM65 324l-41 27
v111l41 40v-178zM24 329l41 -27v-54l-41 -54v135zM238 821h137l-73 -68zM113 659l-89 124v38h187l75 -79l-86 -83h-87zM24 521v235l68 -97h-27v-124l-33 -33z" />
    <glyph glyph-name="afii10035" unicode="&#x421;" 
d="M632 319l-16 2l16 46v-48zM632 275l-27 3l11 30l16 -6v-27zM632 92l-60 11q5 9 16 50q7 25 9 42q3 21 -6 24l-5 2l16 46l30 -2v-173zM632 -84l-119 73l19 62q12 11 32 35l68 -13v-157zM632 -162h-168l44 132l124 -73v-59zM632 778h-6l6 16v-16zM632 502l-70 30
q-11 42 -38 73l92 156l16 -5v-254zM483 535l3 -27l-16 8zM632 427l-81 43l16 5q0 6 -1.5 19t-1.5 19l68 -27v-59zM362 335l102 170l25 -16v-8q1 -8 1 -15q0 -18 -4 -20l51 18l89 -48l-40 -127zM513 243q0 -22 4 -52q3 -26 -7 -61l-200 113l46 76l222 -44l-14 -48zM502 113
q-16 -41 -50 -62t-75 -9q-40 11 -70 48q-28 34 -37 77l32 60zM375 -11q83 13 122 35l-27 -73zM254 -162l-146 59l81 130q53 -33 140 -38l135 -54l-32 -97h-178zM76 -162l27 43l108 -43h-135zM464 821h168l-60 -103zM324 729l103 92h10l125 -114l-22 -37zM508 621
q-48 43 -137 37q-35 -3 -62 -6q-29 -4 -39 4l-11 8l60 57l213 -62zM351 610q20 6 37 6q29 0 55 -16q19 -12 32 -38l-11 -17zM116 529q-17 -34 -24 -54l-22 11zM259 400q12 157 70 199l125 -67l-106 -170zM86 462q0 -10 -8 -35l-35 27l19 21zM256 289v19q0 51 3 75l81 -35
l-51 -83zM76 410q-11 -59 -9 -128q2 -89 36 -160l-79 67v246l8 8zM259 221v21q0 2 -3 28l25 -16zM24 32v130l133 -111l-38 -62zM24 -162v178l84 -38l-81 -140h-3zM378 821h14l-6 -6zM124 821h232l17 -16l-206 -189zM24 643v178h84l46 -213l-89 -84zM24 594l27 -76l-27 -27
v103z" />
    <glyph glyph-name="afii10036" unicode="&#x422;" horiz-adv-x="634" 
d="M610 400h-27l27 70v-70zM610 194l-86 25l56 164l30 3v-192zM610 135l-105 32l13 38l92 -21v-49zM610 -113l-183 54l75 210l108 -32v-232zM389 -162l32 81l189 -49l-2 -32h-219zM610 718l-24 6l24 43v-49zM610 616l-48 54l21 43l27 -8v-89zM462 491l56 100h54v52l38 -44
v-89l-16 -51zM416 297v103l38 72l132 -29l-46 -122zM416 113v168l119 21l-76 -208zM346 0h70v97l38 -16l-49 -138zM243 -162l-116 27l94 173v-38h103l73 -70l-33 -92h-121zM113 -162l6 11l54 -11h-60zM508 821h102v-22l-21 -38zM389 659l-119 129l40 33h165l103 -76l-49 -86
h-140zM448 591h46l-16 -29zM221 659l-48 48l86 71l108 -119h-146zM416 470v121h13l38 -40l-46 -87zM65 591h156v-202l-197 167v27l41 35v-27zM116 659l46 38l38 -38h-84zM221 216l-197 130v189l197 -168v-151zM24 208v121l197 -129v-81l-37 -70zM24 68v126l154 -154l-43 -72
zM24 -162v208l100 -92l-65 -116h-35zM124 821h143l-105 -84zM24 632v189h84l38 -92z" />
    <glyph glyph-name="afii10037" unicode="&#x423;" 
d="M632 270l-27 3l27 83v-86zM632 59l-87 22l54 173l33 -3v-192zM632 -65l-124 27l32 103l92 -22v-108zM632 -162h-165l38 113l127 -32v-81zM632 821v-22l-70 22h70zM632 562l-62 43l21 54h-73l-5 -16l-86 59l97 113l108 -35v-218zM454 497l-119 97l81 92l89 -60zM510 448
l54 141l68 -49v-92l-27 -81zM394 340l-89 214l24 24l119 -97zM448 286l54 146l97 -81l-43 -124zM251 238l-165 59l92 108zM408 178l35 95l102 -60l-21 -75zM281 167q16 -39 16 -64l-97 54q1 2 3 5h-9l-145 86l32 38l178 -65zM356 65q18 18 33 59l16 43l113 -40l-43 -132z
M297 81q-9 -35 -32 -44q-30 -12 -55 10t-25 53q0 18 9 40zM305 -162l-281 130v248l14 19l135 -78l-27 -11q-9 -28 -9 -52q0 -45 30 -76t74 -31q66 0 110 62l113 -68l-48 -143h-111zM24 -162v108l235 -108h-235zM321 794l33 27h148l-54 -62zM200 691l110 92l127 -35
l-108 -122zM162 659l22 19l37 -19h-59zM270 634l46 -24l-24 -27zM24 529v14l68 56l70 -162l-11 -16zM24 383v122l114 -95l-60 -70zM24 370l46 -38l-46 -54v92zM135 821h194l-108 -92zM65 659l8 -19l-49 30v151h87l91 -103l-72 -59h-65zM24 648l52 -32l-52 -44v76z" />
    <glyph glyph-name="afii10038" unicode="&#x424;" horiz-adv-x="953" 
d="M929 262l-60 -3l60 116v-113zM929 130l-87 70l22 43l65 5v-118zM929 -100l-195 73l103 208l92 -76v-205zM929 -162h-259l59 116l200 -73v-43zM929 821v-43l-51 37l8 6h43zM929 545l-173 152l113 108l60 -49v-211zM886 394q-27 164 -227 168l-22 16l111 105l181 -159v-78
l-33 -63zM567 502h30q56 0 88 -52q27 -44 27 -103q0 -74 -37 -115l-108 57v213zM783 170q2 2 4 3h1l-2 -6zM389 230l-49 51l49 48v-99zM656 216q-23 -16 -89 -16v65zM567 51v87h65q9 0 67 13q50 11 57 8l16 -8l-102 -205zM389 200h-30q-46 0 -73 27l43 38l60 -60v-5z
M545 -162l-364 286l30 30q35 -10 104 -14q39 -2 74 -2v-138h178v24l92 -94l-46 -92h-68zM197 -162l-173 119v13l143 138l346 -270h-316zM24 -162v97l143 -97h-143zM624 821h229l-194 -184zM567 562v97h-103l-64 75l151 87h54l38 -197l-65 -62h-11zM389 659v-95l-100 106
l97 56l60 -67h-57zM297 562q-162 0 -211 -108l-59 64l246 141l89 -97h-65zM254 275q-4 20 -8 65q-8 94 49 142q25 21 71 21q11 0 23 -1v-113l-124 -122zM78 437q-7 -17 -11 -36q-3 -15 -4 -23q-1 -12 2 -19l-41 84v48zM157 178l8 -5l-3 -3zM24 130v283l41 -84q3 -41 27 -74
q16 -19 43 -61l16 -32l-83 -78zM24 97l25 -27l-25 -24v51zM429 821h71l-63 -35zM119 821h289l8 -43l-203 -119zM24 761v60h73l97 -168l-91 -54zM24 724l62 -130l-62 -38v168z" />
    <glyph glyph-name="afii10039" unicode="&#x425;" horiz-adv-x="688" 
d="M664 610l-5 6l5 16v-22zM664 378l-124 -11l111 232l13 -13v-208zM664 154l-146 35l-32 65l49 97l129 5v-202zM664 -5l-54 24l-81 151l135 -35v-140zM664 -76l-329 11l54 111l27 -46h205l43 -22v-54zM327 -162l-33 8l38 76l332 -8v-71l-2 -5h-335zM664 821v-81l-116 81
h116zM580 653l3 6h-11l-162 89l79 73h35l140 -97v-44l-30 -59zM502 659l-54 -95l-140 79l97 94l140 -78h-43zM508 532l64 111l54 -33l-54 -113zM383 443l-97 178l11 11l146 -81zM464 297l-43 81l81 140l60 -35l-92 -191zM256 302l-13 -21l-162 140l76 70zM140 108l-116 73
v178l46 46l162 -140zM200 68l86 148l27 -19l54 -105l-48 -103zM194 -162l-170 138v183l106 -67l-54 -92h86l27 51l119 -75l-70 -138h-44zM24 -162v119l146 -119h-146zM405 821h54l-22 -22zM270 659h-24l-122 92l108 70h143l46 -33l-146 -143zM24 594v92l84 54l103 -81h-146
l75 -141l-24 -21zM24 570l79 -84l-79 -76v160zM78 821h111l-92 -57zM24 821h33l24 -65l-57 -35v100z" />
    <glyph glyph-name="afii10040" unicode="&#x426;" horiz-adv-x="704" 
d="M680 707l-37 19l37 60v-79zM680 629l-70 43l27 41l43 -22v-62zM680 397l-105 78v138l30 46l75 -46v-216zM680 232l-105 65v157l105 -79v-143zM394 119l-124 16l124 189v-205zM680 84l-105 13v181l105 -65v-129zM394 65h-146v29l14 22l132 -16v-35zM680 -162l-502 151
l11 11h386v-116l62 30v151h-62v11l105 -11v-227zM167 -162l-70 19l76 116l451 -135h-457zM89 -162l3 5l27 -5h-30zM570 783l35 38h75v-6l-48 -75zM575 659h-57l-24 29l68 79l59 -41l-46 -73v6zM394 513l-24 24l24 27v-51zM470 659l16 16l14 -16h-30zM305 459l57 65l32 -33
v-113l-43 -65zM248 254v135l49 59l43 -148l-48 -73zM248 232l36 -19l-36 -56v75zM24 0v116l35 41l6 -3v-154h81l-43 -65zM24 -162v138l68 -54l-54 -84h-14zM427 659l-106 151l19 11h249l-138 -162h-24zM394 659v-57l-200 114l114 78l97 -135h-11zM248 437v222h-113l-5 8
l56 40l203 -118l-135 -162zM65 413l-41 24v152l41 27v-203zM24 416l41 -22v-183l-41 -52v257zM267 821h35l-27 -16zM173 821h81l11 -25l-60 -43zM24 813v8h135l35 -70l-97 -71zM24 775l57 -105l-57 -41v146z" />
    <glyph glyph-name="afii10041" unicode="&#x427;" horiz-adv-x="634" 
d="M610 -162h-16l16 73v-73zM610 184l-40 10v17l40 135v-162zM610 119l-40 -11v70l40 -8v-51zM481 -86l27 86h62v94l40 9v-49l-43 -189zM456 -162l19 54l87 -49v-5h-106zM610 821v-73l-113 -14l65 87h48zM610 508l-40 27v124h-124l45 62l119 13v-226zM389 510l-33 19l33 43
v-62zM570 410v108l40 -27v-81l-5 -21zM389 340q-47 -7 -60 -5l-37 5q-31 9 -38 43l94 135l41 -21v-157zM570 308v86l29 -16l-21 -73zM181 281q75 -14 130 -11q29 2 78 11v-108l-246 54zM389 24l-338 73l84 116l254 -56v-133zM281 -162l-257 162v54l19 27l346 -73v-8h32
l49 -11l-46 -151h-143zM24 -162v140l227 -140h-227zM319 751l75 70h146l-86 -116zM259 691l49 43l138 -43l-25 -32h-32v-49l-87 -119zM246 416q-4 28 -4 75q0 -13 1 67v101h-16l21 19l41 -200zM65 464q0 -83 29 -126l-70 18v108l41 38v-38zM24 130v210l89 -21q16 -16 38 -27
l-121 -168zM316 821h54l-35 -33zM97 821h200l24 -43l-83 -76zM65 659v-76l-41 89v149h46l157 -130l-38 -32h-124zM24 629l41 -86l-41 -41v127z" />
    <glyph glyph-name="afii10042" unicode="&#x428;" horiz-adv-x="842" 
d="M818 294l-32 -5l32 73v-68zM818 186l-40 22v51l5 16l35 6v-95zM818 -5l-40 16v178l40 -22v-172zM818 -162h-219l71 162h81l67 -27v-135zM818 548l-40 -8v92l40 62v-146zM778 383v141l40 11v-125l-19 -43zM594 275l-40 11l40 60v-71zM778 362l16 -6l-16 -37v43zM594 65
h-22l-97 94l70 111l49 -11v-194zM454 65v59l10 22l84 -81h-94zM381 0h240l11 -11l-43 -97zM292 -162l-19 11l94 140l216 -111l-19 -40h-272zM818 821v-54l-127 54h127zM672 659l-86 137l30 25h35l167 -70v-22l-46 -70h-100zM443 678l132 105l78 -124h-59v-270l-5 -8z
M454 354v221h-65v-186l-141 78v51l179 146l145 -297l-37 -59zM389 103l-141 145v198l141 -79v-264zM454 332l70 -38l-70 -105v143zM65 270l-41 32v33l41 32v-97zM308 65l-60 51v111l135 -141l-10 -21h-65zM248 65v32l33 -32h-33zM151 -162l-127 186v257l41 -33v-248h259
l-105 -162h-68zM24 -162v151l103 -151h-103zM470 821h110l-116 -92zM319 821h137l-8 -103l-119 -92zM248 659h-81l-108 137l57 25h184l13 -205l-65 -54v97zM24 535v243l19 10l103 -129h-81v-238l-11 -11zM24 459l14 -59l-14 -11v70zM24 821h19l3 -6l-22 -8v14z" />
    <glyph glyph-name="afii10043" unicode="&#x429;" horiz-adv-x="904" 
d="M880 275l-48 -5l48 103v-98zM880 76l-102 16v54l48 105l54 5v-180zM778 0v-46l-84 14l16 32h68zM778 65v5l37 -5h-37zM880 -65l-38 8v122l38 -6v-124zM880 -162h-243l54 113l87 -13v-54l64 30v13l38 -8v-81zM805 405l75 132v-116l-70 -151zM778 346l16 37l5 -135l-21 -46
v144zM583 0h95l-19 -38zM494 -162l78 146l79 -38l-52 -108h-105zM880 821v-165l-138 149l19 16h119zM778 551v108h-103l-43 43l100 86l148 -159v-57l-46 -83zM594 659v-114l-62 65l89 81l32 -32h-59zM778 529l48 -51l-48 -89v140zM389 475l-3 6l3 2v-8zM594 224l-140 176
v140l67 59l73 -81v-294zM389 167l-141 76v113l125 108l16 -21v-276zM567 65l-113 65v237l140 -175v-116l-5 -11h-22zM389 65h-119l-22 29v133l141 -81v-81zM454 65v43l75 -43h-75zM454 -162l-133 162h227l-89 -162h-5zM65 27l-41 54v70l41 38v-162zM219 -162l-133 162h216
l130 -162h-213zM24 -162v216l170 -216h-170zM616 821h118l-59 -49zM448 575l-38 208l65 38h114l73 -60zM248 540v119h-48l189 108l38 -192h-38v-49l-89 -78zM248 427v81l38 -68l-27 -27zM24 248v306l41 24v-330l-27 -27zM410 821h14l-8 -6zM146 821h243l11 -11l-200 -113z
M24 821h100l60 -133l-54 -29h-65v-38l-41 -24v224z" />
    <glyph glyph-name="afii10044" unicode="&#x42a;" horiz-adv-x="769" 
d="M745 -124h-11l11 51v-51zM745 -162h-21l5 19l16 -3v-16zM745 602l-135 95l106 124h29v-219zM745 319l-283 189l137 167l146 -100v-256zM383 327h38q73 0 92 -68l-130 49v19zM745 173l-43 16q0 66 -3 87q-9 51 -41 74q-54 39 -275 39v19l68 83l294 -194v-124zM518 243
q4 -31 4 -64t-14 -66l-125 41v138zM659 59q39 39 43 114l43 -16v-92l-5 -30zM194 54l-75 32l75 90v-122zM502 97q-23 -38 -119 -38v79zM324 0h148q120 0 176 49l84 -27l-46 -168zM410 -162l-351 167l54 65l81 -32v-38h92l394 -159v-3h-270zM24 -162v122l27 32l322 -154h-349
zM621 821h65l-38 -43zM429 764l73 57h103l35 -54l-41 -49zM383 599v60h-86l119 92l173 -44l-106 -124zM383 589l87 -17l-87 -108v125zM92 491l102 76v-324zM24 259v173l57 43l100 -245l-30 -36zM24 238l116 -57l-116 -138v195zM459 821h16l-11 -8zM211 821h226l11 -16
l-156 -127zM65 659l-41 59v43l119 60h46l86 -157l-10 -5h-200zM113 591h71l-44 -35zM24 591v106l41 -60v-46h32l33 -40l-54 -41zM24 564l41 -62l-41 -32v94zM24 821h73l-73 -38v38z" />
    <glyph glyph-name="afii10045" unicode="&#x42b;" horiz-adv-x="877" 
d="M853 540l-40 16v41l40 62v-119zM853 346h-40v194l40 -16v-178zM626 208l-48 24l48 76v-100zM853 86l-40 22v219l40 -3v-238zM626 54l-75 38q22 45 22 77q0 11 -1 28v19l54 -27v-135zM853 -65l-124 65h84v89l40 -24v-130zM853 -162h-291l-189 73l70 100q64 24 97 67
l86 -46v-32h65l162 -86v-76zM329 -162l38 57l143 -57h-181zM748 805l19 16h86v-124l-11 -17zM813 659h-108l-43 59l78 73l92 -127l-19 -27v22zM626 659v-254l-167 113l189 184l32 -43h-54zM562 265q-18 50 -71 86l-81 119l36 38l180 -125v-16zM292 327q78 0 97 -58
q8 -25 6 -55t-6 -57l-141 81v75l14 14h30zM459 364q-56 25 -135 25l76 70zM389 140q-16 -62 -70 -78l-71 41v116zM65 59l-38 38l38 38v-76zM297 59h-49v27zM127 0h213q20 0 41 3l-100 -149zM24 -162v232l41 -38v-32h32l173 -162h-246zM583 821h157l-76 -73zM294 767l100 54
h168l89 -81l-116 -114zM248 562v97h-29l-19 54l78 43l240 -140l-221 -214zM65 440l-41 68v102l41 24v-194zM108 659l76 40l13 -40h-89zM248 389v102l33 -102h-33zM65 205l-41 60v210l41 -67v-203zM24 238l35 -54l-35 -33v87zM146 821h189l-165 -89zM24 821h100l27 -97
l-127 -71v168z" />
    <glyph glyph-name="afii10046" unicode="&#x42c;" horiz-adv-x="640" 
d="M616 745l-33 14l33 51v-65zM616 556l-146 16l105 173l41 -21v-168zM616 362l-227 73l75 121l152 -16v-178zM324 324q10 -8 32 -22l-35 14zM616 211l-46 16q-21 143 -206 159l19 35l233 -75v-135zM373 286q14 -26 19 -71q2 -17 2 -28q0 -12 -2 -11l-127 45l54 84zM616 97
l-54 19q12 34 11 60q-1 25 -1 37l44 -13v-103zM392 162q-13 -87 -79 -103l-65 27v100l11 22zM616 -49l-173 63q85 24 113 91l60 -19v-135zM248 59v9l22 -9h-22zM616 -162h-243l-276 100l41 62h202q15 0 38 5q22 5 35 0l203 -73v-94zM40 -162l52 84l232 -84h-284zM443 778
l38 43h118l-8 -11zM424 756l11 11l148 32l-73 -119zM275 583l141 157l86 -73l-108 -176zM275 389l-27 35v127l14 16l121 -89l-54 -89h-54zM248 389v11l8 -11h-8zM248 327h41l-41 -68v68zM65 151l-41 38v103l38 43h3v-184zM24 22v148l41 -40v-130h21l-16 -27zM24 0l35 -38
l-35 -59v97zM405 821h57l-30 -33zM302 821h87l32 -43l-65 -73zM248 659h-102l-116 135l51 27h205l60 -124l-98 -111v73zM65 659v-135l-41 59v189l98 -113h-57zM65 413l-41 49v105l41 -59v-95zM24 821h14l-14 -6v6z" />
    <glyph glyph-name="afii10047" unicode="&#x42d;" 
d="M632 16h-46l46 165v-165zM632 -62l-60 19l11 43h49v-62zM632 -162h-92l27 103l65 -19v-84zM632 821v-114l-81 49l46 65h35zM632 594l-151 62l62 86l89 -51v-97zM632 459l-68 27q-31 92 -105 140l16 22l157 -65v-124zM383 516q17 -54 17 -127h-108zM589 302q0 3 1 8.5
t1 8.5q0 72 -19 148l60 -24v-135l-6 -16zM270 327h130q0 -74 -14 -149l-186 78l70 92v-21zM548 113q41 80 41 173l32 -8l-49 -175zM383 162q-24 -99 -86 -116l-140 57q-16 23 -19 59l56 81zM405 0q90 24 135 97l22 -8l-38 -138zM256 43q-26 0 -57 22q-8 5 -21 11zM297 -162
l-273 86v76l68 92q58 -99 206 -101q43 -1 75 4l145 -60l-29 -97h-192zM24 -162v65l216 -65h-216zM524 802l16 19h43l-19 -22zM446 634q-4 2 -9 4l11 67l65 83l43 -5zM351 583l19 -27l-57 -16zM432 643q-12 6 -27 10l32 38zM194 389l108 137l71 19q6 -6 5 -6l-124 -172z
M138 321l46 57l59 -22l-67 -97zM24 173v5l106 130l37 -60l-29 -40q1 16 4 35l-77 -24v-41q0 -4 7 -31q2 -7 4 -17q1 -6 0 -8l-17 -25zM24 140l25 -54l-25 -37v91zM508 821h21l-16 -16zM221 821h262l14 -33l-100 -121zM378 662q-37 8 -85 8q-49 0 -85 -14l-122 105l95 60h13z
M259 616h22q28 0 54 -19l-22 -30zM197 653q-21 -9 -57 -37l-102 116l38 24zM184 567q16 35 62 43l59 -48l-57 -71zM24 459v259l6 6l102 -119q-43 -49 -43 -130l78 -29q2 6 1 17q0 2 -1 26q-1 39 11 67l60 -73l-106 -132zM24 427l89 -92l-89 -114v206zM38 821h97l-86 -54z
M24 813l8 -52l-8 -5v57z" />
    <glyph glyph-name="afii10048" unicode="&#x42e;" horiz-adv-x="915" 
d="M891 297l-24 11l24 46v-57zM891 92l-70 48q4 9 11 58q3 21 16 61l16 30l27 -14v-183zM891 0l-140 40q40 37 64 87l76 -51v-76zM891 -162h-235l89 186l146 -43v-143zM891 605l-62 32l62 81v-113zM891 405l-38 -75q0 164 -65 248l33 43l70 -38v-178zM853 329l-3 -5l3 6v-1z
M656 394q0 -27 -1.5 -80t-1.5 -79l-64 73zM653 211q-12 -168 -67 -168h-3l-57 87q-1 4 -10 75l64 87zM616 -11q31 5 86 22l-40 -87zM486 -162l-162 103l81 110q54 -51 127 -60q27 -4 45 -2q15 1 17 0l57 -83l-30 -68h-135zM248 -162l65 86l135 -86h-200zM891 821v-35l-49 35
h49zM775 594q-64 73 -186 73l-27 19l167 135h76l86 -65v-5zM535 567q22 54 47 54q34 0 56 -81q11 -39 15 -92zM556 667h-10q-5 0 -10 -2l9 7zM513 248q0 7 -1 64q-1 92 6 165q4 41 11 68l119 -116zM248 327h71q0 -71 13 -138l-84 108v30zM335 483q-14 -51 -14 -94h-73v38
l81 64zM65 211l-30 40l30 24v-64zM219 0h29v267l100 -127q11 -34 33 -59l-111 -151zM151 -162l-127 194v206l41 -57v-181h132l62 -81l-59 -81h-49zM24 -162v165l108 -165h-108zM545 821h138l-124 -100zM435 821h94l16 -108l-27 -22zM194 821h222l86 -135l-81 -65
q-2 -4 -11 -11l-70 -54zM248 659h-183v-189l-41 86v265h143l152 -276l-71 -59v173zM65 375l-41 62v81l41 -86v-57zM24 410l41 -62l-41 -32v94z" />
    <glyph glyph-name="afii10049" unicode="&#x42f;" 
d="M632 556l-43 16v87h-54l91 140h6v-243zM632 416l-43 11v127l43 -19v-119zM405 346h-38q1 0 -9 1l-12 1l59 95v-97zM632 265l-43 5v140l43 -10v-135zM405 189l-116 54q7 25 28 39t47 10l41 -6v-97zM632 81l-43 22v156l43 -8v-170zM632 -92l-357 130q11 35 11 164v25
l119 -57v-170h184v86l43 -21v-157zM405 -162l-292 124l25 38h127q4 24 8 24l356 -132l-11 -54h-213zM38 -162l70 108l254 -108h-324zM437 821h179l-60 -89zM416 659l-114 43l116 108l127 -94l-37 -57h-92zM319 659q10 0 -33 1q-21 0 -30 -5l38 36l84 -32h-59zM286 562
q26 35 119 35v-97l-19 -30zM313 359q-43 23 -47 92q-3 58 15 94l97 -86zM92 497q-4 -5 -3 -30q2 -60 55 -114q29 -29 77 -40q-6 0 -22.5 -6.5t-20.5 -4.5l-154 54v76zM162 292q-59 -34 -59 -130l-79 57v124zM24 -32v229l79 -57q0 -73 -23 -124q-7 -16 -15 -16h16l-32 -49z
M24 -54l14 -8l-14 -24v32zM232 788l46 33h130l-46 -43zM221 645q-32 -5 -37 -15l27 140l8 8l132 -8zM173 624q-31 -16 -49 -46l-81 65l157 118zM24 629l3 3l86 -68q-6 -26 -10 -29l-79 -76v170zM138 821h113l-86 -65zM24 821h95l32 -70l-127 -98v168z" />
    <glyph glyph-name="afii10065" unicode="&#x430;" 
d="M632 -162h-33l33 127v-127zM632 702h-16l16 27v-27zM632 583l-60 27l38 78l22 -2v-103zM632 475l-111 41l46 83l65 -29v-95zM632 275l-130 60l-27 92l41 75l116 -43v-184zM554 138l-46 175l124 -54v-146zM265 27l64 113h38l38 -140h186l-32 116l65 -19l-44 -178z
M418 -162l-207 81l48 92l316 -108l-16 -65h-141zM170 -162l35 65l168 -65h-203zM513 794l22 27h97v-62l-6 -14zM421 634l-5 25h-16l102 119l114 -46l-81 -152zM427 610l97 -43l-57 -108zM275 502l22 -81l-38 22zM162 338l-16 8l27 32zM221 300l35 132l44 -27l46 -173l-6 -8z
M119 184l-60 54l81 97l17 -14zM194 208l22 78l113 -75v-3h-135zM173 135l5 5h114l-41 -75zM65 0l-41 38v154l25 29l64 -54zM68 0h70l29 113l76 -64l-76 -135zM24 -162v176l133 -117l-30 -59h-103zM367 659l-59 162h202l-137 -162h-6zM254 659l-19 -65l-203 205l41 22h216
l59 -162h-94zM24 610v176l206 -211l-36 -121l-10 -14zM24 454v140l149 -162l-57 -70zM24 432l81 -78l-81 -100v178z" />
    <glyph glyph-name="afii10066" unicode="&#x431;" horiz-adv-x="640" 
d="M616 167l-6 -2l6 19v-17zM616 105l-22 3l14 43l8 3v-49zM616 -65l-65 6l43 151h22v-157zM616 -162h-90l25 86l65 -10v-76zM616 683l-71 24l71 114v-138zM616 548l-114 43h16l19 100l79 -24v-119zM616 432l-238 -5l97 162l141 -54v-103zM316 324q16 -2 26 -11
q13 -13 20 -16l-49 22zM572 205q-8 167 -216 184l14 21l246 6v-122l-27 -94zM378 270q14 -32 15 -73q1 -42 -10 -73l-135 54v30l60 94zM529 65q43 52 43 124l11 -5l-38 -127zM378 113q-12 -30 -40 -43l-90 38v59zM454 16q8 2 36 20t31 18l22 -5l-19 -65zM319 62
q-11 -3 -71 -3v33zM456 -162l-402 51l70 111h214q54 0 94 11l86 -38l-37 -135h-25zM27 -162l22 32l259 -32h-281zM540 783l27 38h38l-22 -30zM454 659l78 111l43 8l-73 -119h-48zM346 505l62 86h51l-43 -70zM292 389v38l48 64l68 17l-73 -119h-43zM289 327h8l-8 -14v14z
M265 389l16 21v-21h-16zM248 327h33v-27l-33 -52v79zM24 -27v65l41 62v-100h29l-45 -76zM24 -57l14 -29l-14 -27v56zM281 821h270l-103 -146zM238 659l-103 78l119 84h5l178 -157l-5 -5h-194zM327 591h59l-19 -29zM65 659v-124l-41 37v81l98 71l89 -65h-146zM248 591h49
l57 -40l-106 -151v191zM65 362l-41 38v151l41 -38v-151zM65 216l-41 27v140l41 -37v-130zM24 227l41 -25v-51l-41 -59v135zM124 821h76v-3l-62 -46zM24 729v92h84l16 -54l-81 -60zM24 707l3 -5l-3 -5v10z" />
    <glyph glyph-name="afii10067" unicode="&#x432;" 
d="M632 516l-33 8l33 73v-81zM632 443l-49 38l14 27l35 -11v-54zM632 254l-103 56q-4 3 -13 9l67 151l49 -43v-173zM632 27l-76 32q38 40 39 106q1 61 -25 102l62 -35v-205zM632 -76l-270 38l16 38q112 0 167 49l87 -38v-87zM632 -162h-324l51 113l273 -43v-70zM632 821v-11
l-11 11h11zM310 761l71 60h218l33 -30v-132l-11 -22zM302 602q64 0 76 -65l-92 65h16zM567 518q-17 141 -362 141l-5 3l100 83l310 -124zM383 518v-27q0 -64 -24 -97l-111 92v116h11zM481 335q-15 5 -46 13q19 5 55 19q8 4 10 8zM65 448l-41 38v16l41 38v-92zM351 383
q-22 -13 -103 -13v97zM248 294v25h54q75 0 98 -51q10 -23 10 -51t-5 -55zM65 211l-41 21v232l41 -35v-218zM346 59l-98 54v160l146 -125l-38 -83zM319 54h-71v38zM238 -162l-214 178v195l41 -22v-189h259l-73 -162h-13zM24 -162v157l187 -157h-187zM289 821h57l-33 -27z
M32 799l44 22h189l35 -38l-106 -89zM73 659l-49 65v64l160 -102l-33 -27h-78zM24 702l41 -57v-56l-41 -38v151z" />
    <glyph glyph-name="afii10068" unicode="&#x433;" horiz-adv-x="542" 
d="M518 767l-16 5l16 30v-35zM518 564l-91 27h54v68h-33l52 97l18 -8v-184zM518 464l-140 49l35 70l105 -32v-87zM518 302l-243 6l100 194l143 -48v-152zM518 165l-267 89l22 40l245 -2v-127zM518 -62l-270 67v230l270 -89v-208zM518 -162h-75l-324 135l13 27h68l318 -81
v-81zM51 -162l62 119l295 -119h-357zM454 821h59l-16 -27zM378 659l-5 59l59 92l57 -32l-62 -119h-49zM386 591h8l-5 -8zM335 659l29 46l3 -46h-32zM262 554l27 37h86l3 -24l-65 -130zM248 383v146l6 11l51 -113l-35 -68zM248 364l17 -16l-17 -32v48zM65 113l-41 -5v86
l35 54h6v-135zM24 5v92l41 6v-102zM81 0h-16v1zM24 -11l52 -5l-52 -97v102zM351 821h76l-38 -60zM286 659l-108 146l19 16h138l43 -70l-65 -92h-27zM124 659l-84 27l130 110l100 -137h-146zM65 659v-114l-41 27v100l8 6l57 -19h-24zM248 591h17l-17 -24v24zM24 343v213
l41 -27v-232zM24 319l30 -33l-30 -46v79zM97 821h68l-46 -38zM24 718v103h57l22 -49l-76 -65z" />
    <glyph glyph-name="afii10069" unicode="&#x434;" horiz-adv-x="683" 
d="M659 -162h-43l40 162h3v-162zM659 578l-60 21l54 103h6v-124zM659 351l-105 108v49l40 75l65 -21v-211zM554 238v199l105 -110v-173l-6 -14zM554 116v105l94 -91l-11 -44zM554 0v-103l-252 103h252zM370 65h-46l46 86v-86zM616 65h-62v35l78 -24l-16 -60v49zM567 -108
l19 11l-3 -19zM248 -162l-40 11l76 140l291 -121l-8 -30h-319zM659 821v-43l-70 13l21 30h49zM554 589v70h-65l89 119l81 -17v-27l-87 -156zM554 570l10 -6l-10 -19v25zM370 313l-51 114l51 70v-184zM157 205h-3l3 6v-6zM221 162v132l87 116l62 -145v-60l-57 -102zM157 178
q0 -41 -11 -70l-27 49l27 35l11 -8v-6zM194 65q18 41 22 81l89 -57l-13 -24h-98zM211 0h48l-21 -38zM140 97q-12 -32 -75 -32v-81l-41 21v22l89 119zM130 -49v49h70l30 -49l-19 -37zM24 -162v151l41 -21v-54l65 -30v51l70 -38l-33 -59h-143zM459 821h135l-54 -70zM302 756
l81 65h49l97 -81l-43 -60zM370 591v-29l-54 29h54zM205 659l-11 5l98 81l183 -75l-8 -11h-262zM157 513l-76 57l76 62v-119zM221 467v124h65l84 -48v-14l-84 -108zM157 327l-133 73v121l46 35l87 -62v-167zM221 448l54 -38l-54 -75v113zM24 108v275l133 -75v-54l-125 -165z
M105 821h233l-173 -141zM24 772v49h65l62 -146l-65 -54zM24 737l52 -121l-52 -44v165z" />
    <glyph glyph-name="afii10070" unicode="&#x435;" horiz-adv-x="580" 
d="M556 751l-16 5l16 32v-37zM556 572l-108 11l6 8h24v46l57 108l21 -5v-168zM556 483l-140 38l27 51l113 -10v-79zM556 313l-124 38v38h-81l65 119l140 -38v-157zM556 105l-308 65v19l73 138h111v2l124 -32v-192zM556 -84l-173 84h130v65h-265v86l308 -65v-170zM556 -162
h-335l-135 32l71 130h189l210 -103v-59zM70 -162l11 16l76 -16h-87zM335 659l-33 16l116 138l127 -6l-81 -148h-129zM248 540v51h179l-33 -62zM248 389v135l135 -6l-67 -129h-68zM256 327h30l-11 -19zM65 284l-41 2v38l41 54v-94zM248 270v43l17 -16l-14 -27h-3zM65 84
l-41 56v133l41 -3v-186zM24 -16v135l41 -60v-59h40l-27 -49zM24 -35l46 -27l-46 -86v113zM275 815l6 6h129l-118 -143zM243 659l-70 65l94 86l17 -140l-9 -11h-32zM103 659l59 54l59 -54h-118zM24 586l25 24l16 -70v-130l-41 -54v230zM232 821h16l-10 -8zM43 821h173l8 -16
l-127 -114zM24 818l57 -132l-57 -54v186z" />
    <glyph glyph-name="afii10072" unicode="&#x436;" horiz-adv-x="1066" 
d="M1042 157h-19l19 37v-37zM1042 86l-32 33l5 16h27v-49zM1042 -162l-119 92l33 70h43l-22 46l27 57l38 -38v-227zM880 -162l33 70l97 -70h-130zM1042 313l-162 -11l154 233l8 -17v-205zM934 127l-75 143l10 16l173 11v-54l-67 -146zM953 89l14 -8l-6 -8zM718 62l27 38
l51 -100h133l-43 -97zM621 -162l-32 27l118 178l168 -156l-25 -49h-229zM572 -162l6 5l5 -5h-11zM1042 821v-184l-100 184h100zM875 599l48 60h-86l-16 -22l-89 62l170 122h16l124 -232l-48 -73zM751 540l-87 108l57 40l92 -62zM791 486l78 100l114 -78l-95 -141zM446 400
l-41 18l-16 25l57 43v-86zM621 364v246l30 22l86 -108zM767 451l11 19l97 -119l-33 -49zM416 286l30 -30v-94l-68 51zM446 364l-14 19l14 -8v-11zM621 30v226l22 30l5 -2l76 -144l-84 -124zM194 248l-21 27l48 38l3 -5zM319 97l51 100l76 -57v-140h175v8l5 -8l-105 -157z
M275 -162l-251 157v170l135 100l25 -33l-119 -232h205l38 78l194 -240h-227zM24 -162v135l214 -135h-214zM718 821h135l-59 -43zM621 659h-113l-19 162h191l98 -54l-157 -114v6zM302 788l87 33h81l19 -162h-43v-130l-79 -54zM297 451l-3 -5l-19 35zM227 659h-49l-35 59
l146 60l59 -284zM24 437v233l106 43l27 -54h-17l60 -81l86 -151l-8 -14l-213 -154zM24 324l19 -78l-19 -14v92zM221 821h76l-70 -27zM119 821h81l8 -33l-78 -32zM24 821h76l13 -70l-89 -35v105z" />
    <glyph glyph-name="afii10073" unicode="&#x437;" horiz-adv-x="615" 
d="M591 556h-8l8 16v-16zM591 408l-59 8l51 127h8v-135zM591 262l-70 13l-30 30l38 95l62 -6v-132zM591 124l-46 6q7 32 6 63t-19 66l59 -11v-124zM591 -73l-224 57l6 11q139 24 167 118l51 -5v-181zM591 -162h-137l-125 43l35 87l227 -60v-70zM316 -162l13 30l81 -30h-94z
M591 821v-51l-143 51h143zM518 562q-6 18 -16 31q-20 24 -21 25l-92 133l48 54l154 -54v-111l-46 -114zM267 610q61 -4 83 -37q11 -16 11 -35q0 -18 -5 -41l-110 86zM448 643q-46 23 -127 27l62 67zM529 497q1 3 2 11t-1 14l5 -9zM529 524q0 -1 1 -1v-1zM483 392q3 2 8 8
l-5 -11zM356 475q-7 -70 -78 -86l-154 54l11 16l32 -13q0 3 -3 18q-2 8 -2 14q-1 8 0 8l76 86zM400 348q13 6 38 18l23 11q10 5 9 6l8 -5l-19 -49zM248 386h-20q-5 0 -39 -3v-75h43q69 0 99.5 -27t30.5 -95l-338 106v37l89 103zM77 219q0 -1 -4.5 -9t-2.5 -10l-46 40v38
l122 -38zM362 173q0 -87 -31 -114q-15 -13 -37 -14t-51 4l-95 81q-1 3 -1 13q0 42 10 95zM308 -11h11l-6 -5zM216 51q-50 13 -62 57zM24 -11v232l44 -37q-5 -47 -2 -86q5 -73 92 -96q46 -12 128 -13l22 -16l-27 -70zM24 -162v132l246 -81l-22 -51h-224zM262 813l11 8h143
v-14l-92 -105zM292 670q-41 0 -76 -8l-49 72l84 68l62 -111zM200 659q-103 -40 -114 -141l-62 22v78l130 106zM162 524q0 24 17 49q21 31 53 35zM24 386v138l57 -24v-25l27 -8l-76 -84zM205 821h38l-27 -19zM92 821h97l16 -25l-59 -48zM24 821h54l57 -81l-111 -89v170z" />
    <glyph glyph-name="afii10074" unicode="&#x438;" horiz-adv-x="667" 
d="M643 572l-38 11l38 70v-81zM643 392l-44 -3v178l44 -11v-164zM643 232h-44v141l44 5v-146zM643 108l-44 16v97l44 -2v-111zM643 -119l-343 49l113 235l3 -3v-162h183v103l44 -11v-211zM643 -162h-243l-119 43l13 33l349 -49v-27zM259 -162l16 30l81 -30h-97zM551 778
l32 43h60v-133l-6 -2zM599 632v27h-140l81 102l92 -89l-22 -40h-11zM416 483v-29l-11 5zM356 481l-21 8l43 56zM599 618l6 3l-6 -11v8zM321 383l-56 11l62 81l24 -11zM416 437v-70l-41 6l25 70zM284 270l-36 16v87l11 10l60 -10zM329 243l44 119l43 -6v-118l-16 -30zM65 76
l-27 13l27 38v-51zM251 173h-3v92l27 -17zM238 0h10l76 227l65 -38l-103 -211zM178 -162l-154 140v92l41 -16v-54h124l89 -38l-59 -124h-41zM24 -162v124l135 -124h-135zM518 821h52l-33 -43zM405 802l19 19h78l24 -54l-80 -108zM248 599v60l144 129l40 -129h-16l-22 -60
l-21 -32zM248 583l114 -27l-114 -151v178zM65 432l-27 30l27 24v-54zM24 184v262l3 2l38 -43v-235l-6 -8zM24 157l19 -11l-19 -27v38zM373 821h27l-11 -11zM103 821h248l24 -22l-135 -124zM65 659v-22l-41 60v97l54 27l149 -154l-11 -8h-151zM24 670l41 -60v-89l-41 -40v189
z" />
    <glyph glyph-name="afii10075" unicode="&#x439;" horiz-adv-x="667" 
d="M643 232l-44 -5v38l44 124v-157zM643 43h-44v168l44 5v-173zM464 -138l49 138h86v27h44v-43l-25 -100zM456 -162l3 11l157 21l-11 -32h-149zM643 821v-33l-76 33h76zM643 559l-44 19v81h-172l-71 32q106 10 127 97l-40 17l16 16h57l127 -54v-208zM378 548l-124 73l70 65
l86 -38zM599 416v146l44 -22v-68l-25 -67zM416 483v-143l-38 35zM335 416l-87 78v116l125 -75zM599 400l11 -6l-11 -38v44zM65 302l-41 25v62l41 43v-130zM259 194l-11 6v270l79 -73zM416 105l-111 62l65 189l46 -43v-208zM65 167l-41 22v119l41 -22v-119zM251 173h-3v8
l6 -3zM270 68l30 83l116 -65v-86h54l-11 -24zM265 -162l-241 162v173l41 -22v-151h183l17 54l189 -92l-44 -124h-145zM24 -162v146l214 -146h-214zM308 821h110l-62 -60zM332 740q-84 0 -84 78l-64 -30q4 -18 21 -46l-86 79h170l57 -68l-11 -11zM238 713q11 -6 23 -13
q16 -9 22 -7l-13 -13zM65 659v-133l-41 95v167l57 33h11l164 -149l-13 -13h-178zM24 472v111l41 -92l-33 -29zM24 821h14l-14 -8v8z" />
    <glyph glyph-name="afii10076" unicode="&#x43a;" horiz-adv-x="696" 
d="M672 76h-2l2 10v-10zM672 -113l-48 16l43 156l5 -2v-170zM672 -162h-64l13 43l51 -11v-32zM672 724l-13 8l13 21v-29zM672 556l-127 -16l108 178l19 -11v-151zM672 383l-178 65l46 78l132 19v-162zM505 243l-59 116l43 73l183 -68v-170l-19 -59zM521 211l127 -92
l-27 -103zM594 0h22l-6 -16zM248 0v19l87 148l86 -167h154l30 -27l-22 -76zM140 -162l87 146l351 -106l-11 -40h-427zM556 821h116v-27l-24 -38zM319 810l13 11h200l108 -76l-51 -86zM429 494l125 165h-84l-84 -111l-154 197l76 54l270 -151l-114 -194zM65 556l-38 38l38 27
v-65zM259 381l-11 8v270h-129l97 70l157 -194zM400 451l16 27l32 -41l-21 -37zM65 308l-41 38v221l41 -38v-221zM248 143v113l27 30l38 -70l-54 -86zM65 159l-41 33v137l41 -40v-130zM248 124l3 -5l-3 -6v11zM24 -70v243l41 -33v-140h113l-84 -135zM24 -162v70l62 -54
l-10 -16h-52zM62 821h232l-167 -119zM24 818l8 3h11l70 -127l-89 -62v186z" />
    <glyph glyph-name="afii10077" unicode="&#x43b;" horiz-adv-x="691" 
d="M667 270l-8 5l8 27v-32zM667 113l-41 6v51l27 92l14 -3v-146zM667 -92l-111 54l14 38h56v103l41 -9v-186zM667 -162h-149l36 105l113 -56v-49zM667 745l-35 -5l35 54v-49zM667 637l-41 16v6h-10l-27 11l37 59l41 5v-97zM667 405l-41 16v216l41 -16v-216zM440 294l-73 16
l73 111v-127zM626 400l38 -14l-38 -121v135zM440 138l-151 24v19l73 116l78 -19v-140zM227 -5q54 19 62 151l151 -27v-119h89l-24 -78zM224 -162l-113 49l62 102h13l311 -86l-22 -65h-251zM81 -162l22 38l83 -38h-105zM618 821h49l-5 -11zM356 697l130 124h81l86 -22
l-75 -113zM440 591v-29l-40 29h40zM319 659l27 27l224 -14l-8 -13h-243zM230 446l-90 37l90 84v-121zM292 418v173h81l67 -51v-70l-57 -92zM230 324l-144 108l44 38l100 -41v-105zM292 281v121l81 -35l-65 -102zM292 265l8 -11l-8 -16v27zM135 181q4 20 11 62l-65 -19l-5 -8
l-52 27v124l54 54l152 -113v-165l-9 -13zM167 49q-35 15 -35 113l79 -46zM24 38v186l46 -30q-3 -17 -6 -52q-6 -66 23 -109q16 -24 48 -38l-11 -17zM24 -162v178l89 -51l-81 -127h-8zM319 821h140l-73 -70zM230 659v-41l-125 192l25 11h162l81 -81l-87 -81h-56zM38 767
l54 32l129 -200l-99 -97zM24 470v289l3 2l86 -267l-64 -62zM24 437l8 -16l-8 -5v21zM24 821h57l-57 -33v33z" />
    <glyph glyph-name="afii10078" unicode="&#x43c;" horiz-adv-x="721" 
d="M697 364l-9 3l9 19v-22zM697 256l-38 9v10l27 76h11v-95zM697 3l-38 2v243l38 -10v-235zM697 -119l-179 16l36 92l143 -5v-103zM697 -162h-200l19 43l181 -16v-27zM697 821v-87l-114 6l65 81h49zM697 537l-38 35v87h-92l-24 24l35 43l119 -8v-181zM524 659l11 13l16 -13
h-27zM659 448v108l38 -38v-70l-9 -16zM478 451h3v-116l-33 11zM400 364l-76 30l-3 6l127 156l6 -2zM659 432l21 -16l-21 -65v81zM367 240l-38 130l65 -24zM481 108l-81 62l43 159l38 -13v-208zM232 70l-105 52v24l62 81zM359 11l38 140l84 -62v-89h37l-18 -54zM65 32l-19 11
l19 25v-36zM405 -162l-278 162v105l111 -51l16 -54h94l143 -68l-35 -94h-51zM24 -162v173l14 19l27 -16v-14h21l281 -162h-343zM597 821h37l-51 -60zM443 713l108 108h38l-14 -70l-51 -65zM346 616l86 86l81 -27l-11 -16h-21l-11 -41l-78 -94zM281 545l54 54l43 -91l-65 -81
zM65 308h-22l22 21v-21zM162 321l-35 -2v70l13 16zM65 197l-41 41v48l14 11l27 3v-103zM127 308l40 5l11 -51l-51 -68v114zM24 216l41 -43v-54l-41 -51v148zM421 821h103l-43 -43zM259 629l-48 192h183l73 -54l-192 -195zM81 659l-57 75v87h170l41 -162h-154zM65 421l-41 54
v232l41 -56v-230zM127 443h3l-3 -11v11zM24 446l41 -54v-17l-41 -43v114z" />
    <glyph glyph-name="afii10079" unicode="&#x43d;" horiz-adv-x="650" 
d="M626 421l-10 3l10 19v-22zM626 292l-43 21v11l33 89l10 -5v-116zM626 76l-43 -6v224l43 -21v-197zM626 -122l-186 36l30 86h113v49l43 8v-179zM626 -162h-210l21 59l189 -37v-22zM626 821v-49l-81 38l9 11h72zM583 524v135l-48 135l91 -43v-243l-5 -17zM400 483l-90 17
l90 116v-133zM583 454v48l27 -24l-11 -30zM400 389h-27l-98 59l30 41l95 -17v-83zM583 443l11 -6l-11 -32v38zM248 327h152v-246l-152 130v116zM248 389v21l19 22l73 -43h-92zM248 59v130l152 -130v-59h32l-24 -73zM24 -49v162l41 54v-167h183v43l152 -129l-19 -54zM24 -162
v97l349 -89l-6 -8h-343zM505 821h30l-17 -16zM297 821h184l27 -30l-103 -132h-5v-6l-11 -10zM248 594v65h-70l-65 62l141 100h21l103 -189l-70 -95zM65 659v-11l-16 22l54 43l59 -54h-97zM248 575l49 -46l-49 -65v111zM65 321l-41 41v291l11 6l30 -35v-303zM24 340l41 -43
v-59l-41 -54v156zM173 821h38l-27 -19zM24 821h127l16 -27l-143 -103v130zM557 659h-130l89 106z" />
    <glyph glyph-name="afii10080" unicode="&#x43e;" horiz-adv-x="694" 
d="M670 513h-17l17 32v-32zM670 437l-33 30l16 35h17v-65zM670 211l-54 -6q12 57 12 113q0 53 -7 109l11 27l38 -36v-207zM670 54h-133q54 49 73 135l60 5v-140zM670 -81l-246 46l16 35q51 17 81 43l149 -5v-119zM670 -162h-297l45 108l252 -49v-59zM670 821v-3l-6 3h6z
M670 605l-152 19q-22 21 -27 16l138 181h8l33 -22v-194zM421 545q3 -9 6 -27l-22 8zM613 467q-21 86 -73 138l124 -16zM432 497q8 -110 5 -168q-4 -63 0 -64l-1 1l-155 88l116 156zM437 248l-7 -84q-3 -36 -9 -56l-165 184v27l14 21zM108 122q9 -23 12 -28q8 -16 20 -21
l-54 21zM416 92q-7 -22 -29 -36.5t-46 -14.5q-43 0 -60 37q-20 43 -25 192zM332 -11h14h11q16 -1 17 -1q22 0 27 5l-12 -28zM238 -162l-189 202l32 41l92 -41q13 -9 102 -45l108 -44l-51 -113h-94zM24 -162v167l16 22l176 -189h-192zM513 821h92l-60 -79zM413 821h87l35 -87
l-25 -37zM470 651q-46 18 -112 19q-63 1 -110 -14l-126 68l148 97h124l103 -133zM321 616h12q47 -1 75 -16q14 -7 5 -22l-5 -8zM227 648q-30 -7 -60 -32l-73 86l14 11zM265 508q7 81 37 102l92 -51l-81 -111zM157 610q-61 -57 -81 -162l-52 60v145l62 41zM256 378
q0 19 1.5 56.5t1.5 56.5l43 -51zM24 170v308l46 -54q-5 -37 -5 -81q0 -103 27 -181l-35 -43zM24 140l22 -32l-22 -27v59zM135 821h84l-71 -43zM24 751v70h95l16 -51l-78 -52zM24 732l19 -19l-19 -14v33z" />
    <glyph glyph-name="afii10081" unicode="&#x43f;" horiz-adv-x="650" 
d="M626 535h-43v10l43 92v-102zM626 373l-43 16v129h43v-145zM626 284l-43 18v73l43 -13v-78zM626 97l-43 11v181l43 -19v-173zM626 -86l-302 46l76 170v-130h183v92l43 -16v-162zM626 -162h-356l49 103l307 -46v-57zM626 724l-48 -22l48 81v-59zM583 659h-27l11 24l59 27
v-40l-43 -92v81zM400 305l-65 -35l65 113v-78zM305 216l22 38l73 43v-108l-19 -43zM248 22v91l49 89l76 -70l-76 -167zM216 -162l-86 65l54 97h59l43 -51l-48 -111h-22zM92 -162l27 51l70 -51h-97zM421 659l-113 162h281l32 -14l-86 -148h-114zM400 591v-43l-68 43h68z
M232 659l-75 48l137 106l108 -154h-170zM65 529l-41 33v43l41 32v-108zM94 659l52 38l56 -38h-108zM248 400v191h54l98 -62v-92l-60 -102zM65 340l-41 30v170l41 -32v-168zM248 205v173l81 -59l-70 -125zM65 178l-41 43v130l41 -30v-143zM24 32v168l41 -43v-157h75l-27 -46z
M24 -162v170l79 -67l-60 -103h-19zM246 821h13l-11 -6zM65 821h156l14 -16l-127 -92zM24 821h25l48 -116l-73 -57v173z" />
    <glyph glyph-name="afii10082" unicode="&#x440;" horiz-adv-x="640" 
d="M616 394l-44 14l38 89h6v-103zM616 275l-71 46l27 73l44 -13v-106zM616 59l-146 65l70 181l76 -46v-200zM616 -70l-211 16l62 165l149 -68v-113zM616 -162h-252l36 92l216 -19v-73zM616 821v-54l-130 -11l49 65h81zM437 691l44 54l135 8v-173l-11 -16zM351 578
q34 -24 38 -81l-76 35zM572 478q-8 151 -162 175l19 25l170 -127zM392 481q0 -85 -25 -114l-119 38v38l60 75zM356 351q-31 -22 -108 -22v60zM248 211v59h65q27 0 104 21l48 13q20 6 26 4l9 -3l-63 -154zM65 116l-41 24v6l41 54v-84zM248 16v176l184 -57l-70 -184zM246 -162
l-222 176v108l41 -25v-97h178l111 -59l-41 -103h-67zM24 -162v157l197 -157h-197zM400 821h118l-35 -46zM278 707l105 103l87 -49l-76 -97zM383 656q-26 0 -78 1.5t-78 1.5l43 38zM248 597h44q9 0 25.5 -3.5t17.5 -4.5l-27 -35zM248 583l52 -38l-52 -64v102zM65 324l-41 27
v111l41 40v-178zM24 329l41 -27v-54l-41 -54v135zM238 821h137l-73 -68zM113 659l-89 124v38h187l75 -79l-86 -83h-87zM24 521v235l68 -97h-27v-124l-33 -33z" />
    <glyph glyph-name="afii10083" unicode="&#x441;" 
d="M632 319l-16 2l16 46v-48zM632 275l-27 3l11 30l16 -6v-27zM632 92l-60 11q5 9 16 50q7 25 9 42q3 21 -6 24l-5 2l16 46l30 -2v-173zM632 -84l-119 73l19 62q12 11 32 35l68 -13v-157zM632 -162h-168l44 132l124 -73v-59zM632 778h-6l6 16v-16zM632 502l-70 30
q-11 42 -38 73l92 156l16 -5v-254zM483 535l3 -27l-16 8zM632 427l-81 43l16 5q0 6 -1.5 19t-1.5 19l68 -27v-59zM362 335l102 170l25 -16v-8q1 -8 1 -15q0 -18 -4 -20l51 18l89 -48l-40 -127zM513 243q0 -22 4 -52q3 -26 -7 -61l-200 113l46 76l222 -44l-14 -48zM502 113
q-16 -41 -50 -62t-75 -9q-40 11 -70 48q-28 34 -37 77l32 60zM375 -11q83 13 122 35l-27 -73zM254 -162l-146 59l81 130q53 -33 140 -38l135 -54l-32 -97h-178zM76 -162l27 43l108 -43h-135zM464 821h168l-60 -103zM324 729l103 92h10l125 -114l-22 -37zM508 621
q-48 43 -137 37q-35 -3 -62 -6q-29 -4 -39 4l-11 8l60 57l213 -62zM351 610q20 6 37 6q29 0 55 -16q19 -12 32 -38l-11 -17zM116 529q-17 -34 -24 -54l-22 11zM259 400q12 157 70 199l125 -67l-106 -170zM86 462q0 -10 -8 -35l-35 27l19 21zM256 289v19q0 51 3 75l81 -35
l-51 -83zM76 410q-11 -59 -9 -128q2 -89 36 -160l-79 67v246l8 8zM259 221v21q0 2 -3 28l25 -16zM24 32v130l133 -111l-38 -62zM24 -162v178l84 -38l-81 -140h-3zM378 821h14l-6 -6zM124 821h232l17 -16l-206 -189zM24 643v178h84l46 -213l-89 -84zM24 594l27 -76l-27 -27
v103z" />
    <glyph glyph-name="afii10084" unicode="&#x442;" horiz-adv-x="634" 
d="M610 400h-27l27 70v-70zM610 194l-86 25l56 164l30 3v-192zM610 135l-105 32l13 38l92 -21v-49zM610 -113l-183 54l75 210l108 -32v-232zM389 -162l32 81l189 -49l-2 -32h-219zM610 718l-24 6l24 43v-49zM610 616l-48 54l21 43l27 -8v-89zM462 491l56 100h54v52l38 -44
v-89l-16 -51zM416 297v103l38 72l132 -29l-46 -122zM416 113v168l119 21l-76 -208zM346 0h70v97l38 -16l-49 -138zM243 -162l-116 27l94 173v-38h103l73 -70l-33 -92h-121zM113 -162l6 11l54 -11h-60zM508 821h102v-22l-21 -38zM389 659l-119 129l40 33h165l103 -76l-49 -86
h-140zM448 591h46l-16 -29zM221 659l-48 48l86 71l108 -119h-146zM416 470v121h13l38 -40l-46 -87zM65 591h156v-202l-197 167v27l41 35v-27zM116 659l46 38l38 -38h-84zM221 216l-197 130v189l197 -168v-151zM24 208v121l197 -129v-81l-37 -70zM24 68v126l154 -154l-43 -72
zM24 -162v208l100 -92l-65 -116h-35zM124 821h143l-105 -84zM24 632v189h84l38 -92z" />
    <glyph glyph-name="afii10085" unicode="&#x443;" 
d="M632 270l-27 3l27 83v-86zM632 59l-87 22l54 173l33 -3v-192zM632 -65l-124 27l32 103l92 -22v-108zM632 -162h-165l38 113l127 -32v-81zM632 821v-22l-70 22h70zM632 562l-62 43l21 54h-73l-5 -16l-86 59l97 113l108 -35v-218zM454 497l-119 97l81 92l89 -60zM510 448
l54 141l68 -49v-92l-27 -81zM394 340l-89 214l24 24l119 -97zM448 286l54 146l97 -81l-43 -124zM251 238l-165 59l92 108zM408 178l35 95l102 -60l-21 -75zM281 167q16 -39 16 -64l-97 54q1 2 3 5h-9l-145 86l32 38l178 -65zM356 65q18 18 33 59l16 43l113 -40l-43 -132z
M297 81q-9 -35 -32 -44q-30 -12 -55 10t-25 53q0 18 9 40zM305 -162l-281 130v248l14 19l135 -78l-27 -11q-9 -28 -9 -52q0 -45 30 -76t74 -31q66 0 110 62l113 -68l-48 -143h-111zM24 -162v108l235 -108h-235zM321 794l33 27h148l-54 -62zM200 691l110 92l127 -35
l-108 -122zM162 659l22 19l37 -19h-59zM270 634l46 -24l-24 -27zM24 529v14l68 56l70 -162l-11 -16zM24 383v122l114 -95l-60 -70zM24 370l46 -38l-46 -54v92zM135 821h194l-108 -92zM65 659l8 -19l-49 30v151h87l91 -103l-72 -59h-65zM24 648l52 -32l-52 -44v76z" />
    <glyph glyph-name="afii10086" unicode="&#x444;" horiz-adv-x="953" 
d="M929 262l-60 -3l60 116v-113zM929 130l-87 70l22 43l65 5v-118zM929 -100l-195 73l103 208l92 -76v-205zM929 -162h-259l59 116l200 -73v-43zM929 821v-43l-51 37l8 6h43zM929 545l-173 152l113 108l60 -49v-211zM886 394q-27 164 -227 168l-22 16l111 105l181 -159v-78
l-33 -63zM567 502h30q56 0 88 -52q27 -44 27 -103q0 -74 -37 -115l-108 57v213zM783 170q2 2 4 3h1l-2 -6zM389 230l-49 51l49 48v-99zM656 216q-23 -16 -89 -16v65zM567 51v87h65q9 0 67 13q50 11 57 8l16 -8l-102 -205zM389 200h-30q-46 0 -73 27l43 38l60 -60v-5z
M545 -162l-364 286l30 30q35 -10 104 -14q39 -2 74 -2v-138h178v24l92 -94l-46 -92h-68zM197 -162l-173 119v13l143 138l346 -270h-316zM24 -162v97l143 -97h-143zM624 821h229l-194 -184zM567 562v97h-103l-64 75l151 87h54l38 -197l-65 -62h-11zM389 659v-95l-100 106
l97 56l60 -67h-57zM297 562q-162 0 -211 -108l-59 64l246 141l89 -97h-65zM254 275q-4 20 -8 65q-8 94 49 142q25 21 71 21q11 0 23 -1v-113l-124 -122zM78 437q-7 -17 -11 -36q-3 -15 -4 -23q-1 -12 2 -19l-41 84v48zM157 178l8 -5l-3 -3zM24 130v283l41 -84q3 -41 27 -74
q16 -19 43 -61l16 -32l-83 -78zM24 97l25 -27l-25 -24v51zM429 821h71l-63 -35zM119 821h289l8 -43l-203 -119zM24 761v60h73l97 -168l-91 -54zM24 724l62 -130l-62 -38v168z" />
    <glyph glyph-name="afii10087" unicode="&#x445;" horiz-adv-x="688" 
d="M664 610l-5 6l5 16v-22zM664 378l-124 -11l111 232l13 -13v-208zM664 154l-146 35l-32 65l49 97l129 5v-202zM664 -5l-54 24l-81 151l135 -35v-140zM664 -76l-329 11l54 111l27 -46h205l43 -22v-54zM327 -162l-33 8l38 76l332 -8v-71l-2 -5h-335zM664 821v-81l-116 81
h116zM580 653l3 6h-11l-162 89l79 73h35l140 -97v-44l-30 -59zM502 659l-54 -95l-140 79l97 94l140 -78h-43zM508 532l64 111l54 -33l-54 -113zM383 443l-97 178l11 11l146 -81zM464 297l-43 81l81 140l60 -35l-92 -191zM256 302l-13 -21l-162 140l76 70zM140 108l-116 73
v178l46 46l162 -140zM200 68l86 148l27 -19l54 -105l-48 -103zM194 -162l-170 138v183l106 -67l-54 -92h86l27 51l119 -75l-70 -138h-44zM24 -162v119l146 -119h-146zM405 821h54l-22 -22zM270 659h-24l-122 92l108 70h143l46 -33l-146 -143zM24 594v92l84 54l103 -81h-146
l75 -141l-24 -21zM24 570l79 -84l-79 -76v160zM78 821h111l-92 -57zM24 821h33l24 -65l-57 -35v100z" />
    <glyph glyph-name="afii10088" unicode="&#x446;" horiz-adv-x="704" 
d="M680 707l-37 19l37 60v-79zM680 629l-70 43l27 41l43 -22v-62zM680 397l-105 78v138l30 46l75 -46v-216zM680 232l-105 65v157l105 -79v-143zM394 119l-124 16l124 189v-205zM680 84l-105 13v181l105 -65v-129zM394 65h-146v29l14 22l132 -16v-35zM680 -162l-502 151
l11 11h386v-116l62 30v151h-62v11l105 -11v-227zM167 -162l-70 19l76 116l451 -135h-457zM89 -162l3 5l27 -5h-30zM570 783l35 38h75v-6l-48 -75zM575 659h-57l-24 29l68 79l59 -41l-46 -73v6zM394 513l-24 24l24 27v-51zM470 659l16 16l14 -16h-30zM305 459l57 65l32 -33
v-113l-43 -65zM248 254v135l49 59l43 -148l-48 -73zM248 232l36 -19l-36 -56v75zM24 0v116l35 41l6 -3v-154h81l-43 -65zM24 -162v138l68 -54l-54 -84h-14zM427 659l-106 151l19 11h249l-138 -162h-24zM394 659v-57l-200 114l114 78l97 -135h-11zM248 437v222h-113l-5 8
l56 40l203 -118l-135 -162zM65 413l-41 24v152l41 27v-203zM24 416l41 -22v-183l-41 -52v257zM267 821h35l-27 -16zM173 821h81l11 -25l-60 -43zM24 813v8h135l35 -70l-97 -71zM24 775l57 -105l-57 -41v146z" />
    <glyph glyph-name="afii10089" unicode="&#x447;" horiz-adv-x="634" 
d="M610 -162h-16l16 73v-73zM610 184l-40 10v17l40 135v-162zM610 119l-40 -11v70l40 -8v-51zM481 -86l27 86h62v94l40 9v-49l-43 -189zM456 -162l19 54l87 -49v-5h-106zM610 821v-73l-113 -14l65 87h48zM610 508l-40 27v124h-124l45 62l119 13v-226zM389 510l-33 19l33 43
v-62zM570 410v108l40 -27v-81l-5 -21zM389 340q-47 -7 -60 -5l-37 5q-31 9 -38 43l94 135l41 -21v-157zM570 308v86l29 -16l-21 -73zM181 281q75 -14 130 -11q29 2 78 11v-108l-246 54zM389 24l-338 73l84 116l254 -56v-133zM281 -162l-257 162v54l19 27l346 -73v-8h32
l49 -11l-46 -151h-143zM24 -162v140l227 -140h-227zM319 751l75 70h146l-86 -116zM259 691l49 43l138 -43l-25 -32h-32v-49l-87 -119zM246 416q-4 28 -4 75q0 -13 1 67v101h-16l21 19l41 -200zM65 464q0 -83 29 -126l-70 18v108l41 38v-38zM24 130v210l89 -21q16 -16 38 -27
l-121 -168zM316 821h54l-35 -33zM97 821h200l24 -43l-83 -76zM65 659v-76l-41 89v149h46l157 -130l-38 -32h-124zM24 629l41 -86l-41 -41v127z" />
    <glyph glyph-name="afii10090" unicode="&#x448;" horiz-adv-x="842" 
d="M818 294l-32 -5l32 73v-68zM818 186l-40 22v51l5 16l35 6v-95zM818 -5l-40 16v178l40 -22v-172zM818 -162h-219l71 162h81l67 -27v-135zM818 548l-40 -8v92l40 62v-146zM778 383v141l40 11v-125l-19 -43zM594 275l-40 11l40 60v-71zM778 362l16 -6l-16 -37v43zM594 65
h-22l-97 94l70 111l49 -11v-194zM454 65v59l10 22l84 -81h-94zM381 0h240l11 -11l-43 -97zM292 -162l-19 11l94 140l216 -111l-19 -40h-272zM818 821v-54l-127 54h127zM672 659l-86 137l30 25h35l167 -70v-22l-46 -70h-100zM443 678l132 105l78 -124h-59v-270l-5 -8z
M454 354v221h-65v-186l-141 78v51l179 146l145 -297l-37 -59zM389 103l-141 145v198l141 -79v-264zM454 332l70 -38l-70 -105v143zM65 270l-41 32v33l41 32v-97zM308 65l-60 51v111l135 -141l-10 -21h-65zM248 65v32l33 -32h-33zM151 -162l-127 186v257l41 -33v-248h259
l-105 -162h-68zM24 -162v151l103 -151h-103zM470 821h110l-116 -92zM319 821h137l-8 -103l-119 -92zM248 659h-81l-108 137l57 25h184l13 -205l-65 -54v97zM24 535v243l19 10l103 -129h-81v-238l-11 -11zM24 459l14 -59l-14 -11v70zM24 821h19l3 -6l-22 -8v14z" />
    <glyph glyph-name="afii10091" unicode="&#x449;" horiz-adv-x="904" 
d="M880 275l-48 -5l48 103v-98zM880 76l-102 16v54l48 105l54 5v-180zM778 0v-46l-84 14l16 32h68zM778 65v5l37 -5h-37zM880 -65l-38 8v122l38 -6v-124zM880 -162h-243l54 113l87 -13v-54l64 30v13l38 -8v-81zM805 405l75 132v-116l-70 -151zM778 346l16 37l5 -135l-21 -46
v144zM583 0h95l-19 -38zM494 -162l78 146l79 -38l-52 -108h-105zM880 821v-165l-138 149l19 16h119zM778 551v108h-103l-43 43l100 86l148 -159v-57l-46 -83zM594 659v-114l-62 65l89 81l32 -32h-59zM778 529l48 -51l-48 -89v140zM389 475l-3 6l3 2v-8zM594 224l-140 176
v140l67 59l73 -81v-294zM389 167l-141 76v113l125 108l16 -21v-276zM567 65l-113 65v237l140 -175v-116l-5 -11h-22zM389 65h-119l-22 29v133l141 -81v-81zM454 65v43l75 -43h-75zM454 -162l-133 162h227l-89 -162h-5zM65 27l-41 54v70l41 38v-162zM219 -162l-133 162h216
l130 -162h-213zM24 -162v216l170 -216h-170zM616 821h118l-59 -49zM448 575l-38 208l65 38h114l73 -60zM248 540v119h-48l189 108l38 -192h-38v-49l-89 -78zM248 427v81l38 -68l-27 -27zM24 248v306l41 24v-330l-27 -27zM410 821h14l-8 -6zM146 821h243l11 -11l-200 -113z
M24 821h100l60 -133l-54 -29h-65v-38l-41 -24v224z" />
    <glyph glyph-name="afii10092" unicode="&#x44a;" horiz-adv-x="769" 
d="M745 -124h-11l11 51v-51zM745 -162h-21l5 19l16 -3v-16zM745 602l-135 95l106 124h29v-219zM745 319l-283 189l137 167l146 -100v-256zM383 327h38q73 0 92 -68l-130 49v19zM745 173l-43 16q0 66 -3 87q-9 51 -41 74q-54 39 -275 39v19l68 83l294 -194v-124zM518 243
q4 -31 4 -64t-14 -66l-125 41v138zM659 59q39 39 43 114l43 -16v-92l-5 -30zM194 54l-75 32l75 90v-122zM502 97q-23 -38 -119 -38v79zM324 0h148q120 0 176 49l84 -27l-46 -168zM410 -162l-351 167l54 65l81 -32v-38h92l394 -159v-3h-270zM24 -162v122l27 32l322 -154h-349
zM621 821h65l-38 -43zM429 764l73 57h103l35 -54l-41 -49zM383 599v60h-86l119 92l173 -44l-106 -124zM383 589l87 -17l-87 -108v125zM92 491l102 76v-324zM24 259v173l57 43l100 -245l-30 -36zM24 238l116 -57l-116 -138v195zM459 821h16l-11 -8zM211 821h226l11 -16
l-156 -127zM65 659l-41 59v43l119 60h46l86 -157l-10 -5h-200zM113 591h71l-44 -35zM24 591v106l41 -60v-46h32l33 -40l-54 -41zM24 564l41 -62l-41 -32v94zM24 821h73l-73 -38v38z" />
    <glyph glyph-name="afii10093" unicode="&#x44b;" horiz-adv-x="877" 
d="M853 540l-40 16v41l40 62v-119zM853 346h-40v194l40 -16v-178zM626 208l-48 24l48 76v-100zM853 86l-40 22v219l40 -3v-238zM626 54l-75 38q22 45 22 77q0 11 -1 28v19l54 -27v-135zM853 -65l-124 65h84v89l40 -24v-130zM853 -162h-291l-189 73l70 100q64 24 97 67
l86 -46v-32h65l162 -86v-76zM329 -162l38 57l143 -57h-181zM748 805l19 16h86v-124l-11 -17zM813 659h-108l-43 59l78 73l92 -127l-19 -27v22zM626 659v-254l-167 113l189 184l32 -43h-54zM562 265q-18 50 -71 86l-81 119l36 38l180 -125v-16zM292 327q78 0 97 -58
q8 -25 6 -55t-6 -57l-141 81v75l14 14h30zM459 364q-56 25 -135 25l76 70zM389 140q-16 -62 -70 -78l-71 41v116zM65 59l-38 38l38 38v-76zM297 59h-49v27zM127 0h213q20 0 41 3l-100 -149zM24 -162v232l41 -38v-32h32l173 -162h-246zM583 821h157l-76 -73zM294 767l100 54
h168l89 -81l-116 -114zM248 562v97h-29l-19 54l78 43l240 -140l-221 -214zM65 440l-41 68v102l41 24v-194zM108 659l76 40l13 -40h-89zM248 389v102l33 -102h-33zM65 205l-41 60v210l41 -67v-203zM24 238l35 -54l-35 -33v87zM146 821h189l-165 -89zM24 821h100l27 -97
l-127 -71v168z" />
    <glyph glyph-name="afii10094" unicode="&#x44c;" horiz-adv-x="640" 
d="M616 745l-33 14l33 51v-65zM616 556l-146 16l105 173l41 -21v-168zM616 362l-227 73l75 121l152 -16v-178zM324 324q10 -8 32 -22l-35 14zM616 211l-46 16q-21 143 -206 159l19 35l233 -75v-135zM373 286q14 -26 19 -71q2 -17 2 -28q0 -12 -2 -11l-127 45l54 84zM616 97
l-54 19q12 34 11 60q-1 25 -1 37l44 -13v-103zM392 162q-13 -87 -79 -103l-65 27v100l11 22zM616 -49l-173 63q85 24 113 91l60 -19v-135zM248 59v9l22 -9h-22zM616 -162h-243l-276 100l41 62h202q15 0 38 5q22 5 35 0l203 -73v-94zM40 -162l52 84l232 -84h-284zM443 778
l38 43h118l-8 -11zM424 756l11 11l148 32l-73 -119zM275 583l141 157l86 -73l-108 -176zM275 389l-27 35v127l14 16l121 -89l-54 -89h-54zM248 389v11l8 -11h-8zM248 327h41l-41 -68v68zM65 151l-41 38v103l38 43h3v-184zM24 22v148l41 -40v-130h21l-16 -27zM24 0l35 -38
l-35 -59v97zM405 821h57l-30 -33zM302 821h87l32 -43l-65 -73zM248 659h-102l-116 135l51 27h205l60 -124l-98 -111v73zM65 659v-135l-41 59v189l98 -113h-57zM65 413l-41 49v105l41 -59v-95zM24 821h14l-14 -6v6z" />
    <glyph glyph-name="afii10095" unicode="&#x44d;" 
d="M632 16h-46l46 165v-165zM632 -62l-60 19l11 43h49v-62zM632 -162h-92l27 103l65 -19v-84zM632 821v-114l-81 49l46 65h35zM632 594l-151 62l62 86l89 -51v-97zM632 459l-68 27q-31 92 -105 140l16 22l157 -65v-124zM383 516q17 -54 17 -127h-108zM589 302q0 3 1 8.5
t1 8.5q0 72 -19 148l60 -24v-135l-6 -16zM270 327h130q0 -74 -14 -149l-186 78l70 92v-21zM548 113q41 80 41 173l32 -8l-49 -175zM383 162q-24 -99 -86 -116l-140 57q-16 23 -19 59l56 81zM405 0q90 24 135 97l22 -8l-38 -138zM256 43q-26 0 -57 22q-8 5 -21 11zM297 -162
l-273 86v76l68 92q58 -99 206 -101q43 -1 75 4l145 -60l-29 -97h-192zM24 -162v65l216 -65h-216zM524 802l16 19h43l-19 -22zM446 634q-4 2 -9 4l11 67l65 83l43 -5zM351 583l19 -27l-57 -16zM432 643q-12 6 -27 10l32 38zM194 389l108 137l71 19q6 -6 5 -6l-124 -172z
M138 321l46 57l59 -22l-67 -97zM24 173v5l106 130l37 -60l-29 -40q1 16 4 35l-77 -24v-41q0 -4 7 -31q2 -7 4 -17q1 -6 0 -8l-17 -25zM24 140l25 -54l-25 -37v91zM508 821h21l-16 -16zM221 821h262l14 -33l-100 -121zM378 662q-37 8 -85 8q-49 0 -85 -14l-122 105l95 60h13z
M259 616h22q28 0 54 -19l-22 -30zM197 653q-21 -9 -57 -37l-102 116l38 24zM184 567q16 35 62 43l59 -48l-57 -71zM24 459v259l6 6l102 -119q-43 -49 -43 -130l78 -29q2 6 1 17q0 2 -1 26q-1 39 11 67l60 -73l-106 -132zM24 427l89 -92l-89 -114v206zM38 821h97l-86 -54z
M24 813l8 -52l-8 -5v57z" />
    <glyph glyph-name="afii10096" unicode="&#x44e;" horiz-adv-x="915" 
d="M891 297l-24 11l24 46v-57zM891 92l-70 48q4 9 11 58q3 21 16 61l16 30l27 -14v-183zM891 0l-140 40q40 37 64 87l76 -51v-76zM891 -162h-235l89 186l146 -43v-143zM891 605l-62 32l62 81v-113zM891 405l-38 -75q0 164 -65 248l33 43l70 -38v-178zM853 329l-3 -5l3 6v-1z
M656 394q0 -27 -1.5 -80t-1.5 -79l-64 73zM653 211q-12 -168 -67 -168h-3l-57 87q-1 4 -10 75l64 87zM616 -11q31 5 86 22l-40 -87zM486 -162l-162 103l81 110q54 -51 127 -60q27 -4 45 -2q15 1 17 0l57 -83l-30 -68h-135zM248 -162l65 86l135 -86h-200zM891 821v-35l-49 35
h49zM775 594q-64 73 -186 73l-27 19l167 135h76l86 -65v-5zM535 567q22 54 47 54q34 0 56 -81q11 -39 15 -92zM556 667h-10q-5 0 -10 -2l9 7zM513 248q0 7 -1 64q-1 92 6 165q4 41 11 68l119 -116zM248 327h71q0 -71 13 -138l-84 108v30zM335 483q-14 -51 -14 -94h-73v38
l81 64zM65 211l-30 40l30 24v-64zM219 0h29v267l100 -127q11 -34 33 -59l-111 -151zM151 -162l-127 194v206l41 -57v-181h132l62 -81l-59 -81h-49zM24 -162v165l108 -165h-108zM545 821h138l-124 -100zM435 821h94l16 -108l-27 -22zM194 821h222l86 -135l-81 -65
q-2 -4 -11 -11l-70 -54zM248 659h-183v-189l-41 86v265h143l152 -276l-71 -59v173zM65 375l-41 62v81l41 -86v-57zM24 410l41 -62l-41 -32v94z" />
    <glyph glyph-name="afii10097" unicode="&#x44f;" 
d="M632 556l-43 16v87h-54l91 140h6v-243zM632 416l-43 11v127l43 -19v-119zM405 346h-38q1 0 -9 1l-12 1l59 95v-97zM632 265l-43 5v140l43 -10v-135zM405 189l-116 54q7 25 28 39t47 10l41 -6v-97zM632 81l-43 22v156l43 -8v-170zM632 -92l-357 130q11 35 11 164v25
l119 -57v-170h184v86l43 -21v-157zM405 -162l-292 124l25 38h127q4 24 8 24l356 -132l-11 -54h-213zM38 -162l70 108l254 -108h-324zM437 821h179l-60 -89zM416 659l-114 43l116 108l127 -94l-37 -57h-92zM319 659q10 0 -33 1q-21 0 -30 -5l38 36l84 -32h-59zM286 562
q26 35 119 35v-97l-19 -30zM313 359q-43 23 -47 92q-3 58 15 94l97 -86zM92 497q-4 -5 -3 -30q2 -60 55 -114q29 -29 77 -40q-6 0 -22.5 -6.5t-20.5 -4.5l-154 54v76zM162 292q-59 -34 -59 -130l-79 57v124zM24 -32v229l79 -57q0 -73 -23 -124q-7 -16 -15 -16h16l-32 -49z
M24 -54l14 -8l-14 -24v32zM232 788l46 33h130l-46 -43zM221 645q-32 -5 -37 -15l27 140l8 8l132 -8zM173 624q-31 -16 -49 -46l-81 65l157 118zM24 629l3 3l86 -68q-6 -26 -10 -29l-79 -76v170zM138 821h113l-86 -65zM24 821h95l32 -70l-127 -98v168z" />
    <glyph glyph-name="afii10071" unicode="&#x451;" horiz-adv-x="580" 
d="M556 308l-16 5l16 54v-59zM556 135l-65 13l46 149l19 -5v-157zM556 -49l-43 49v65h-43l21 65l65 -17v-162zM556 -162h-151l46 159l36 3l69 -70v-92zM556 734l-19 11l19 35v-46zM556 578l-108 -11l14 24h16v33l51 105l27 -11v-140zM394 462l49 89l113 16v-124l-8 -22z
M313 297l16 30h111v67h-78l27 54l154 -43l-46 -149zM270 211l38 73l183 -41l-16 -65zM248 65v97l17 32l205 -27l-33 -102h-189zM367 -162l-229 103l27 54l94 5h159l-48 -162h-3zM86 -162l46 89l197 -89h-243zM535 821h21v-16zM478 659h-68l-27 27q32 0 52 12q25 16 14 46
q-18 46 -75 46q-11 0 -23 -2l27 33h132l35 -27zM232 659l70 75q5 -41 60 -48l27 -27h-157zM273 591h170l-51 -97zM302 394l-54 33v152l135 -98l-45 -87h-36zM65 340l-41 27v60l41 45v-132zM248 394v14l22 -14h-22zM248 327h54l-54 -106v106zM65 111l-41 32v203l41 -27v-208z
M24 -54v178l41 -35v-89h65l-54 -108zM24 -162v86l44 -43l-25 -43h-19zM308 821h38l-17 -16zM184 659l-25 27h8q40 0 60 11l-35 -38h-8zM245 717q-3 -13 -18 -20zM316 794l-71 -77q1 4 1 8q0 19 -20 39q-17 17 -36 25.5t-38 8.5q-40 0 -55 -39l-54 62h238zM24 486v332l70 -84
q0 -21 13 -26q8 -3 25 -17l27 -32h-94v-133l-38 -43z" />
    <glyph glyph-name="endash" unicode="&#x2013;" horiz-adv-x="569" 
d="M545 464l-16 19l16 41v-60zM545 292h-43v21h-27l51 157l19 -22v-156zM545 124l-118 54l5 11h70v86l43 6v-157zM545 -76l-205 -8l84 241l121 -52v-181zM545 -162h-229l22 65l207 5v-70zM545 821v-30l-102 14l13 16h89zM545 629l-186 57l78 108l108 -14v-151zM251 532
l100 138l194 -60v-21l-45 -130zM140 375l103 143l248 -72l-32 -100zM167 313l-43 38l11 11l319 -27l-8 -22h-279zM310 189h92l-19 -65zM103 313l16 27l29 -27h-45zM24 200v8l41 57v-76h227l86 -76l-22 -59zM24 11v173l324 -144l-67 -202zM24 -162v151l224 -151h-224z
M356 821h81l-32 -49zM232 786l38 35h65l59 -60l-38 -51zM130 691l91 87l125 -76l-81 -113zM24 502v92l95 84l135 -100l-92 -130zM24 329v157l127 -49l-108 -145zM24 302l11 -21l-11 -16v37zM24 813v8h222l-95 -87zM24 794l116 -68l-116 -105v173z" />
    <glyph glyph-name="emdash" unicode="&#x2014;" horiz-adv-x="815" 
d="M791 216l-40 19v78h-6l41 92l5 -5v-184zM791 -43l-154 102l54 130h60v27l40 -22v-237zM791 -146l-219 57l60 132l159 -105v-84zM540 -162l27 59l221 -59h-248zM791 702l-35 38l35 48v-86zM791 578l-170 -19l124 167l46 -51v-97zM564 481l52 64l175 17v-81l-67 -152z
M443 313l113 151l160 -148v-3h-273zM348 184l3 5h305l-59 -135zM243 43l97 124l249 -129l-65 -141zM167 -162l-48 32l116 154l281 -143l-19 -43h-330zM97 -162l14 16l24 -16h-38zM707 821h84v-11l-51 -65zM529 761l70 60h87l43 -92l-113 -146zM400 648l118 103l87 -184
l-70 -92zM294 562l95 75l135 -173l-76 -102zM232 313l-124 92l173 143l156 -197l-27 -38h-178zM65 313v-100l-41 30v86l70 60l106 -76h-135zM103 189h210l-70 -92zM24 40v181l41 -27v-5h11l156 -105l-119 -160zM24 -162v173l76 -100l-54 -73h-22zM491 821h76l-49 -38z
M281 821h189l38 -49l-154 -124zM103 821h159l78 -184l-73 -59zM24 440v375l14 6h43l167 -254l-199 -167zM24 405l8 -16l-8 -6v22z" />
    <glyph glyph-name="quoteleft" unicode="&#x2018;" horiz-adv-x="289" 
d="M265 821v-92l-81 16l27 76h54zM265 621l-63 22v24q-42 -14 -35 -14l-16 6l27 70l87 -11v-97zM154 645q-2 -1 -6 -2l3 5zM265 508l-65 10q-17 17 -49 17q12 46 51 70v27l63 -22v-102zM265 362l-222 -6l27 71q15 -57 66 -62q49 -4 79 36q14 19 15 44t-17 57l52 -5v-135z
M265 170l-241 95v29l16 46l225 8v-178zM265 3l-241 105v140l241 -94v-151zM265 -138l-241 100v130l241 -106v-124zM265 -162h-241v108l241 -97v-11zM162 821h32l-8 -27zM24 756v49l11 16h111l32 -38l-32 -92zM113 613q-41 -45 -48 -122l-41 17v229l114 -62zM24 491l35 -16
l-35 -100v116z" />
    <glyph glyph-name="quoteright" unicode="&#x2019;" horiz-adv-x="289" 
d="M265 616l-44 -17q0 4 -2.5 11.5t-2.5 10.5l49 186v-191zM265 483l-49 14q8 38 8 56q0 17 -3 30l44 19v-119zM265 367l-103 33l5 16q32 32 44 67l54 -13v-103zM265 157l-154 24l51 202l103 -32v-194zM265 65l-173 35l16 67l157 -24v-78zM265 -59l-206 24l33 124l173 -35
v-113zM265 -162h-235l29 113l206 -24v-89zM167 821h87l-16 -60zM205 640q-18 26 -60 27q-43 1 -64 -24l-38 5l92 173h11l86 -73zM76 632q-11 -33 -11 -70l-41 37v9l14 29zM24 378v205l46 -43q9 -16 21 -23t25 -15l19 -13q-17 -42 -49 -62v-63q24 10 54 28l-21 -76zM24 297
v65l92 -60l-8 -27zM24 32v249l79 -22l-60 -232zM24 -11v27l14 -5l-6 -25zM24 -22l3 -2l-3 -19v21zM24 691v130h89l-75 -149zM24 670l6 -8l-6 -11v19z" />
    <glyph glyph-name="quotesinglbase" unicode="&#x201a;" horiz-adv-x="289" 
d="M265 570l-41 2l41 173v-175zM265 443l-71 -11l30 124l41 -5v-108zM265 343l-92 -8l21 86l71 11v-89zM265 221l-114 6l22 97l92 8v-111zM265 70h-44q0 97 -81 97l11 49l114 -8v-138zM105 5q4 0 17 -3q10 -2 16 -2q-9 -28 -18 -42q-4 -7 -7 -7l-19 3zM265 -70l-73 11
q29 44 29 116l44 -3v-124zM103 -59l-11 -10v10h11zM265 -162h-195l19 81v-54q52 17 95 62l81 -11v-78zM124 788l16 33h125l-17 -68zM43 624l76 148l124 -35l-22 -86zM24 516v67l14 27l178 27l-22 -100zM24 383v119l165 22l-43 -186zM24 227v140l116 -43l-27 -116zM24 59v157
l84 -22l-8 -37q-33 -18 -32 -61q0 -5 3 -28.5t2 -27.5l-3 -16zM24 -27v73l41 -32l-11 -57zM24 -43l25 -11l-25 -103v114zM32 821h98l-33 -60zM24 667v138l62 -60l-43 -86zM24 656l14 -5l-14 -27v32z" />
    <glyph glyph-name="quotedblleft" unicode="&#x201c;" horiz-adv-x="486" 
d="M462 400l-19 -8l19 64v-56zM462 286l-44 6l25 83l19 8v-97zM462 200l-65 5l19 76l46 -6v-75zM462 -11l-108 46l40 154l68 -5v-195zM462 -162h-160l49 176l111 -46v-130zM462 710l-14 -13l14 35v-22zM462 578l-68 -22l49 124l19 22v-124zM416 421q2 7 4 21t0 30
q-2 15 -10 30t-27 24l6 14l73 27v-54l-30 -108zM302 308l22 59q3 0 8 -1.5t8 -1.5q55 0 70 44l17 -16l-33 -127zM281 243l16 51l92 -40l-25 -97zM184 -8l91 238l84 -87l-46 -170zM167 -54l11 30l130 -19l-33 -119zM127 -162l35 97l103 -97h-138zM394 821h68v-65l-8 -16z
M383 594q6 5 17 11v62q-25 -7 -54 -24l-54 70l72 108h17l67 -95l-54 -143zM335 634q-55 -38 -68 -116l-73 41l90 138zM373 529q-15 6 -25 6q5 13 16 39q6 12 9 9l13 -16zM265 505q-1 -6 -2 -19t0 -28q3 -41 12 -58l-59 5q10 28 10 51q0 29 -15 51q-11 16 -35 22l10 19z
M59 351l27 41q18 -28 59 -28t63 30l78 -11q4 -1 13 -6t9 -4l-76 -200zM24 157v140l30 43l173 -181l-27 -62zM24 -49v187l170 -57l-59 -157zM24 -162v97l103 -24l-30 -73h-73zM281 821h59l-27 -41zM116 821h143l38 -54l-38 -60zM202 667q-67 -22 -99 -68l-79 133v89h73
l151 -124l-46 -71v41zM24 432v270l68 -119q-11 -20 -16 -46.5t-5 -48.5q-1 -28 0 -38q1 -16 -1 -18l-21 -30zM24 405l14 -13l-14 -19v32z" />
    <glyph glyph-name="quotedblright" unicode="&#x201d;" horiz-adv-x="486" 
d="M462 230l-52 2l49 189h3v-191zM462 65l-89 11l37 140l52 -5v-146zM462 -11l-98 49l9 27l89 -11v-65zM462 -159l-133 51l33 135l100 -51v-135zM316 -162l11 38l100 -38h-111zM462 821v-41l-60 41h60zM462 535l-44 29l3 3q0 74 -37 96q-17 10 -37 10q-23 0 -50 -14l92 151
l73 -49v-226zM265 580q0 -78 70 -78l-8 -24l-103 54l41 67v-19zM389 443q25 42 29 102l41 -32l-24 -92zM135 381l8 13q63 44 78 124l98 -54q-18 -25 -38 -37v-63q57 18 100 68l48 -27l-35 -135zM86 297l44 70l259 -113l-43 -165zM27 192l57 94l256 -208l-11 -40zM24 -76v249
l300 -151l-49 -184zM24 -162v65l200 -65h-200zM119 821h232l11 -11l-81 -135zM221 583q-5 87 -71 87q-20 0 -42 -8l-84 72v60l35 27h35l176 -157zM92 653q-28 -23 -28 -67q0 -36 20 -60t54 -24q-12 -51 -52 -75v-60l-62 62v284zM24 297v108l52 -54l-38 -62zM24 284l3 -3
l-3 -11v14z" />
    <glyph glyph-name="quotedblbase" unicode="&#x201e;" horiz-adv-x="486" 
d="M462 -162h-8l8 43v-43zM462 427h-19l19 70v-70zM462 302l-52 6l27 108h25v-114zM462 76l-89 100l32 116l57 -6v-210zM416 11q5 48 5 56q0 23 -5 46l46 -54v-40l-3 -19zM329 0h6q-5 -10 -14 -31zM319 -38q0 3 2 7zM284 -162l8 32q93 31 118 125l44 -11l-22 -146h-148z
M462 821v-105l-95 105h95zM232 780l38 41h81l111 -124v-130l-8 -24zM97 621l130 146l221 -238l-27 -97zM35 545l57 65l321 -189l-30 -113zM24 370v159l6 6l348 -238l-32 -108zM338 167q-58 -2 -74 -46q-7 -18 -4 -41q3 -25 10 -42l-49 21q0 1 1.5 3t1.5 3q0 72 -56 99
q-16 8 -33 8q-37 0 -57 -37l-54 30v186l316 -175zM70 119q-4 -16 -6 -40q-3 -37 17 -58t57 -21q-12 -54 -52 -70v-16l-62 27v202zM135 -111q78 44 86 151l68 -35l-46 -167zM24 -162v86l62 -27v-32q11 5 33 16l92 -43h-187zM151 821h92l-92 -103v103zM24 678v59l98 84h18
v-114l-43 -48zM24 664l62 -16l-62 -70v86zM65 821h32l-24 -22zM24 821h25l10 -30l-35 -32v62z" />
    <glyph glyph-name="dagger" unicode="&#x2020;" horiz-adv-x="618" 
d="M218 720h181v-222h159v-82h-159v-497h-181v497h-160v82h160v222z" />
    <glyph glyph-name="bullet" unicode="&#x2022;" horiz-adv-x="407" 
d="M383 551l-21 -6l21 81v-75zM383 400l-27 129l27 6v-135zM383 310l-48 -2q5 16 6 35q1 20 -12 46h54v-79zM383 184l-108 32v3q46 32 60 78l48 3v-116zM383 22l-151 29l41 149l110 -33v-145zM383 -97h-189l36 135l153 -30v-105zM383 -162h-205l14 51l191 -2v-49zM383 821
v-27l-97 27h97zM181 637l97 168l105 -27v-92l-16 -49h-186zM154 583l22 38l186 3l-49 -187zM308 421q-49 59 -125 49q-78 -10 -107 -84l-25 14l97 170l160 -146v-3zM70 370q-2 -8 -5 -26q-7 -42 22 -87q16 -24 51 -44l-114 14v124l19 35zM24 70v141l214 -22l-54 -197z
M24 -76v130l154 -76l-32 -124zM24 -162v70l116 -65v-5h-116zM143 742l57 79h75l-91 -157zM49 610l86 119l41 -76l-36 -64zM24 454v124l14 21l92 -21l-71 -130zM24 437h25l-25 -45v45zM162 821h22l-14 -19zM97 821h49l16 -27l-22 -30zM24 697v124h60l46 -65l-71 -97zM24 672
l25 -24l-25 -32v56z" />
    <glyph glyph-name="ellipsis" unicode="&#x2026;" horiz-adv-x="815" 
d="M791 356l-40 6l40 86v-92zM791 157h-84l-18 3q-12 2 -30 2l86 181l46 -8v-178zM791 -54l-208 38l16 43q24 -40 59 -42q39 -2 68 26.5t29 67.5q0 28 -21 56h57v-189zM791 -162h-273l60 127l213 -38v-89zM791 821v-57l-57 57h57zM791 508l-243 108l176 189l67 -71v-226z
M421 475l114 124l243 -108l-87 -189zM616 146l-287 227l81 86l273 -173l-65 -140h-2zM608 135q-14 -12 -14 -35l-343 186l73 78zM462 5q33 27 35 55q4 41 -29 71.5t-75 30.5q-62 0 -64 -78l-172 100l86 91l346 -186l-57 -121zM143 162l3 5l11 -5h-14zM259 -162l-235 103v91
l41 44q0 -67 58 -81q38 -9 72 11.5t38 58.5q3 27 -17 62l113 -68q3 -32 17 -49q21 -27 58 -23q19 2 39 8l75 -46l-48 -111h-211zM24 -162v81l187 -81h-187zM540 821h162l-92 -103zM248 729l152 92h118l76 -116l-92 -100zM186 688l46 30l254 -124l-127 -140zM38 594l138 84
l170 -235l-90 -97zM24 265v318l219 -248l-167 -178zM24 221l38 -78l-38 -40v118zM184 788l62 33h121l-65 -38zM103 745l64 35l122 -8l-216 -132zM24 702l68 38l-33 -108l-35 -22v92zM51 821h138l-124 -65zM24 821h8l17 -70l-25 -14v84z" />
    <glyph glyph-name="perthousand" unicode="&#x2030;" horiz-adv-x="1126" 
d="M1102 502l-49 35l49 62v-97zM1102 248l-81 49q-9 9 -27.5 16.5t-26.5 13.5l-49 29l130 162l54 -43v-227zM880 211q9 93 32 95q22 2 37 -52q7 -23 8 -49q1 -25 -4 -48zM918 332h-14l3 6zM1102 43l-52 38q10 37 10 88q0 50 -18 93l60 -35v-184zM953 130q-1 -33 -7 -63
q-11 -50 -31 -45q-35 9 -35 162zM1102 -162h-98l-321 178q46 33 57 103l32 40q1 -55 31 -101t81 -63q50 -17 93 2.5t65 67.5l60 -46v-181zM524 -162l129 165l6 2l302 -167h-437zM1102 756l-3 5l3 6v-11zM923 583l162 165l17 -35v-70l-108 -138zM721 378l186 189l70 -81
l-113 -140zM626 254l-16 13l11 11zM742 192q-8 97 -78 129l43 41l143 -33l-8 -13q-18 -10 -33 -33l-26 -40zM632 227q6 -48 2 -97q-5 -78 -34 -82t-35 76q-3 50 2 95l32 35zM292 -59l154 156l24 -21q11 -33 37 -46q15 -6 49 -30l16 -16l-35 -49zM270 -162l-24 57l32 35
l248 -6l-67 -86h-189zM189 -162l43 43l19 -43h-62zM923 821h179v-38l-49 -49zM837 780l59 41l141 -100l-178 -178zM664 667l160 105l24 -240l-60 -60zM443 494l-14 19l33 22zM643 329q-21 5 -44 4q-20 -1 -37 -4l-79 108l68 157l94 59l127 -194zM583 300q6 6 18 3l12 -3
l-16 -16zM394 381l-48 54q2 6 2 15v9l68 43l19 -27zM543 324q-36 -7 -60 -43l-46 51l38 86zM570 259q5 15 5 22l8 -11zM232 383q-8 -32 -21 -31q-2 0 -8.5 2.5t-8.5 1.5zM254 59l-108 265l11 8q26 -9 54 -11q96 -7 129 89l43 -48zM275 0h17l137 313l46 -48q-19 -39 -19 -119
l-170 -168zM24 -16v259l100 65l114 -281l-11 -27h21l17 -40l-114 -117zM24 -162v116l106 -116h-106zM675 821h175l-148 -97zM580 659h-13l-27 162h116l30 -103l-111 -70zM351 821h173l27 -162h-33l-32 -65l-40 -27zM351 508q-6 110 -60 147q-25 17 -60 17t-74 -13l-60 162
h232l98 -265zM181 594q10 50 20 48q16 -3 29 -101q10 -75 10 -104h-2zM178 402q-2 21 -3 50q-1 24 0 44q0 12 1 34q1 14 0 18l43 -121zM24 464v357h52l62 -170q-64 -31 -71 -141q-3 -41 7 -82q12 -49 37 -72l-52 -32zM24 373l14 -60l-14 -8v68z" />
    <glyph glyph-name="guilsinglleft" unicode="&#x2039;" horiz-adv-x="305" 
d="M281 475l-33 6l33 151v-157zM281 329l-65 -5l32 146l33 -11v-130zM281 194l-65 116l65 9v-125zM281 54l-116 3v2h75l-46 111l87 8v-124zM281 -70l-138 13l19 100l119 -3v-110zM281 -162h-157l16 92l141 -14v-78zM281 821v-54l-133 35l11 19h122zM97 702l49 86l135 -37
v-11l-22 -108zM35 578l59 110l160 -70l-27 -132zM151 443l-48 -92l-79 11v189l6 11l191 -90l-5 -29h-65zM65 270v-38l8 -16l-49 27v103l73 -11zM162 251l22 51l-17 -64zM24 49v178l60 -33l51 -108l-16 -78zM24 -43v78l89 -40l-10 -54zM24 -162v108l73 -16l-16 -92h-57z
M24 761v60h114l-46 -89zM24 742l57 -24l-57 -108v132z" />
    <glyph glyph-name="guilsinglright" unicode="&#x203a;" horiz-adv-x="305" 
d="M281 578l-62 -6l62 224v-218zM281 427l-100 5l35 124l65 6v-135zM281 340l-81 19l-22 46l3 13l100 -8v-70zM140 251l-8 -19h-2l8 27zM281 238h-41v32l-38 78l79 -19v-91zM281 59l-205 -35l10 35h71l78 162h46v-162zM281 -86l-213 70l8 24l205 35v-129zM281 -162h-251
l38 135l213 -76v-59zM208 718l35 103h30l-19 -65zM189 664l16 38l43 38l-35 -130zM157 562l29 91l25 -54l-35 -124zM113 321l-40 -2l19 56zM157 443h-41l35 102l22 -86l-11 -27zM54 265l16 37l49 6l5 -16l-27 -100zM24 132v41l27 81l41 -73l-27 -103zM24 8v111l38 -51
l-19 -65zM24 -8l14 -3l-14 -59v62zM59 805l11 16h162l-16 -49zM24 664v89l30 41l157 -33l-52 -148zM24 529v119l130 -49l-41 -124zM65 443l16 -38l-57 35v78l84 -48l-11 -27h-32zM24 421l54 -32l-54 -157v189zM24 799v22h25l-22 -27z" />
    <glyph glyph-name="afii61352" unicode="&#x2116;" horiz-adv-x="931" 
d="M907 -124h-11l11 27v-27zM907 -162h-21l10 22h11v-22zM907 40l-13 84l13 33v-117zM848 -162l-30 86l70 181l16 -110l-51 -157h-5zM786 -162l24 68l22 -68h-46zM907 724l-24 27l24 27v-54zM907 524l-162 56l130 154l32 -37v-173zM697 410q7 32 24 31q16 0 24 -58zM907 308
l-40 19q-4 104 -81 137q-33 14 -73 11q-39 -3 -76 -21l97 113l173 -59v-200zM578 378q-6 -18 -6 -50q0 -52 17 -96l-71 22v54zM745 362q9 -89 1 -122q-7 -27 -17 -27q-16 0 -30 58q-12 48 -8 118zM775 167q87 25 92 138l40 -19v-65l-32 -86zM459 208l-8 13l8 11v-24z
M848 105h-259v-51l-71 49v132l81 -27q31 -42 82 -46q23 2 56 0l127 -43l-16 -41v27zM605 43h229l-51 -129zM734 -162l-469 157l70 86l48 -81h135v81l260 -184l-25 -59h-19zM132 -162l122 140l421 -140h-543zM834 821h73v-11l-46 -54zM524 818l5 3h286l33 -76l-135 -156z
M518 572v87h-59v-33l-100 92l149 87l189 -227l-79 -97zM518 545l87 -75l-87 -97v172zM302 459l-102 165l143 83l116 -108v-299l-5 -3zM356 375l87 -91l-19 -19zM65 332l-41 41v140l41 24v-205zM127 275v141l175 -292l-5 -8zM65 76l-41 35v240l41 -38v-237zM127 27v227
l157 -146l-103 -124zM24 -162v248l41 -35v-51h62v3l38 -30l-116 -135h-25zM416 821h73l-68 -38zM227 821h170l8 -49l-194 -110zM24 740l181 75l-16 -164l-5 -3l-6 11h-113v-81l-41 -22v184zM92 821h43l-43 -19v19zM24 821h49l-3 -22l-38 -16z" />
    <glyph glyph-name="trademark" unicode="&#x2122;" horiz-adv-x="804" 
d="M0 677v43h342v-43h-104v-367h-135v367h-103zM557 485l65 235h139v-410h-132v247h-3l-69 -247h-71l-72 247h-3v-247h-48v410h128z" />
    <glyph glyph-name="periodcentered" unicode="&#xb7;" horiz-adv-x="289" 
d="M265 583l-33 -16l27 140h6v-124zM265 475l-60 -27l22 103l38 19v-95zM265 373l-73 5l13 59l60 27v-91zM265 202l-119 -48l16 67q54 8 65 63q11 53 -33 78h71v-160zM265 81l-135 -11l13 70l122 49v-108zM265 -84l-154 62l16 79l138 11v-152zM265 -162h-184l27 124l157 -62
v-62zM27 821h238v-11l-22 -103zM24 729v78l214 -110l-11 -54zM24 567v149l197 -84l-21 -103zM24 437v114l168 -33l-30 -135zM24 221v200l124 -48h-5q-32 0 -53 -19.5t-24 -51.5q-3 -30 13 -53t45 -28l-11 -45zM24 116v89l84 -43l-16 -78zM24 -108v211l62 -33l-43 -192z
M24 -162v38l14 -11l-6 -27h-8z" />
    <glyph glyph-name="periodcentered" unicode="&#x2219;" horiz-adv-x="289" 
d="M265 583l-33 -16l27 140h6v-124zM265 475l-60 -27l22 103l38 19v-95zM265 373l-73 5l13 59l60 27v-91zM265 202l-119 -48l16 67q54 8 65 63q11 53 -33 78h71v-160zM265 81l-135 -11l13 70l122 49v-108zM265 -84l-154 62l16 79l138 11v-152zM265 -162h-184l27 124l157 -62
v-62zM27 821h238v-11l-22 -103zM24 729v78l214 -110l-11 -54zM24 567v149l197 -84l-21 -103zM24 437v114l168 -33l-30 -135zM24 221v200l124 -48h-5q-32 0 -53 -19.5t-24 -51.5q-3 -30 13 -53t45 -28l-11 -45zM24 116v89l84 -43l-16 -78zM24 -108v211l62 -33l-43 -192z
M24 -162v38l14 -11l-6 -27h-8z" />
    <glyph glyph-name="quilsinglleft" horiz-adv-x="1000" 
 />
    <glyph glyph-name="quilsinglright" horiz-adv-x="1000" 
 />
  </font>
</defs>
</svg>
