<?xml version="1.0" standalone="no"?>
<!DOCTYPE svg PUBLIC "-//W3C//DTD SVG 1.1//EN" "http://www.w3.org/Graphics/SVG/1.1/DTD/svg11.dtd" >
<svg xmlns="http://www.w3.org/2000/svg" xmlns:xlink="http://www.w3.org/1999/xlink" version="1.1">
<metadata>
Created by FontForge 20170924 at Wed Aug 27 16:10:28 1997
 By www-data
a_Algerius *Arsenal Company (c)1996*  FAX: (095)924-3775; e-Mail: arsenal@itco.msk.su; Phone: (095)924-5811 (Design and Featuring W.Chufarofsky)
</metadata>
<defs>
<font id="AAlgerius" horiz-adv-x="527" >
  <font-face 
    font-family="a_Algerius"
    font-weight="400"
    font-stretch="normal"
    units-per-em="1000"
    panose-1="4 4 7 5 4 8 2 2 7 2"
    ascent="800"
    descent="-200"
    x-height="702"
    cap-height="702"
    bbox="-29 -175 1192 873"
    underline-thickness="60"
    underline-position="-210"
    unicode-range="U+0020-2122"
  />
<missing-glyph horiz-adv-x="500" 
d="M63 0v873h375v-873h-375zM125 63h250v748h-250v-748z" />
    <glyph glyph-name=".notdef" horiz-adv-x="500" 
d="M63 0v873h375v-873h-375zM125 63h250v748h-250v-748z" />
    <glyph glyph-name=".null" horiz-adv-x="0" 
 />
    <glyph glyph-name="nonmarkingreturn" horiz-adv-x="388" 
 />
    <glyph glyph-name="space" unicode=" " horiz-adv-x="388" 
 />
    <glyph glyph-name="exclam" unicode="!" horiz-adv-x="303" 
d="M268 544q-48 -71 -69 -127.5t-32 -143.5q-6 -47 -6 -88h-19q0 200 -107 359q52 22 78 56q23 30 38 89q16 -59 39 -89q26 -34 78 -56zM222 64q0 -30 -20.5 -50.5t-50.5 -20.5q-29 0 -50 21t-21 50q0 30 21 50.5t51 20.5q29 0 49.5 -21t20.5 -50z" />
    <glyph glyph-name="quotedbl" unicode="&#x22;" horiz-adv-x="307" 
d="M272 702l-23 -220h-49l-25 220h97zM132 702l-24 -220h-50l-23 220h97z" />
    <glyph glyph-name="numbersign" unicode="#" horiz-adv-x="632" 
d="M591 420h-130l-16 -115h121v-47h-128l-37 -258h-70l37 258h-121l-36 -258h-71l36 258h-135v47h141l16 115h-130v46h137l33 236h72l-33 -236h120l33 236h70l-33 -236h124v-46zM391 420h-121l-17 -115h122z" />
    <glyph glyph-name="dollar" unicode="$" horiz-adv-x="626" 
d="M604 196q0 -76 -47 -132t-123 -74q-38 -9 -63 -9q-6 0 -18 2v-102h-44v107q-34 4 -134 28q-45 11 -69 11q-29 0 -85 -27q16 26 41 70q43 73 68 151q4 -25 17 -73q40 -105 162 -119v282q-75 15 -107 27q-61 22 -88 61q-34 49 -34 114q0 96 68 148q61 47 161 49v73h44v-77
q99 -31 155 -31q35 0 73 24q-71 -114 -97 -199q-22 130 -131 159v-241q19 -6 56 -17q63 -17 95 -34q45 -25 72.5 -70t27.5 -101zM309 428v237q-52 0 -91 -30q-43 -32 -43 -83q0 -90 134 -124zM514 146q0 44 -27.5 81.5t-69.5 53.5q-22 6 -65 17v-273q63 0 94 16
q68 35 68 105z" />
    <glyph glyph-name="percent" unicode="%" horiz-adv-x="821" 
d="M799 164q0 -78 -46 -126t-123 -48q-83 0 -130 50.5t-47 134.5q0 81 44.5 131t124.5 50q82 0 131 -56q46 -53 46 -136zM651 696l-427 -696h-53l427 696h53zM370 515q0 -78 -45.5 -125.5t-123.5 -47.5q-83 0 -130 50.5t-47 134.5q0 79 45 129t123 50q84 0 131 -53t47 -138z
M718 172q0 67 -15 99q-21 46 -80 46q-51 0 -70 -34q-22 -39 -22 -109q0 -145 99 -145q88 0 88 143zM290 523q0 69 -14 99q-22 46 -82 46q-51 0 -70 -34q-21 -38 -21 -109q0 -145 99 -145q88 0 88 143z" />
    <glyph glyph-name="ampersand" unicode="&#x26;" horiz-adv-x="747" 
d="M747 51q0 -25 -43 -45q-36 -16 -66 -16q-87 0 -152 59q-79 -66 -179 -66q-180 0 -243 134q-22 47 -22 95q0 95 71 156q54 45 159 79q-13 54 -13 96q0 69 33 115q37 52 103 52q53 0 92.5 -36.5t39.5 -89.5q0 -106 -150 -152q28 -62 56 -123q32 -69 67 -118q19 37 19 115
q0 8 -4 64q76 -60 144 -84q-53 -52 -119 -158q64 -83 125 -83q12 0 32 10.5t32 10.5q18 0 18 -15zM464 583q0 33 -19 57t-52 24q-62 0 -62 -69q0 -48 31 -122q102 39 102 110zM446 96q-74 99 -158 302q-76 -27 -115 -109q-19 -40 -19 -89q0 -71 45.5 -121.5t115.5 -50.5
q73 0 131 68z" />
    <glyph glyph-name="quotesingle" unicode="'" horiz-adv-x="167" 
d="M132 702l-24 -220h-50l-23 220h97z" />
    <glyph glyph-name="parenleft" unicode="(" horiz-adv-x="366" 
d="M346 -70q-70 8 -114.5 25t-81.5 51q-108 100 -108 346q0 279 139 371q60 40 165 50v-49q-113 -13 -157 -96q-33 -62 -33 -187v-179q0 -66 9 -118q26 -150 181 -165v-49z" />
    <glyph glyph-name="parenright" unicode=")" horiz-adv-x="366" 
d="M325 352q0 -188 -58 -286q-72 -120 -246 -136v49q158 15 181 168q8 53 8 121q0 29 1 87v86q0 69 -8 118q-24 147 -182 165v49q71 -7 114 -24t81 -52q109 -101 109 -345z" />
    <glyph glyph-name="asterisk" unicode="*" horiz-adv-x="389" 
d="M368 554q-24 10 -55 10q-42 0 -93 -16q53 -72 116 -93l-89 -65q1 3 1 6q0 62 -52 132q-52 -68 -54 -138l-88 65q57 12 115 91q-50 16 -93 16q-26 0 -55 -8l35 105q29 -52 121 -83v12q1 77 -37 133h109q-40 -46 -39 -134v-9q83 25 125 81z" />
    <glyph glyph-name="plus" unicode="+" horiz-adv-x="492" 
d="M469 311h-189v-183h-68v183h-189v69h189v194h68v-194h189v-69z" />
    <glyph glyph-name="comma" unicode="," horiz-adv-x="241" 
d="M184 46q0 -138 -161 -188l-4 8q34 31 46 51q15 27 15 67q0 45 -29 80q65 23 118 57q15 -37 15 -75z" />
    <glyph glyph-name="hyphen" unicode="-" horiz-adv-x="340" 
d="M319 319h-274l-24 65h273z" />
    <glyph glyph-name="hyphen" unicode="&#x2010;" horiz-adv-x="340" 
d="M319 319h-274l-24 65h273z" />
    <glyph glyph-name="period" unicode="." horiz-adv-x="241" 
d="M191 64q0 -30 -20.5 -50.5t-50.5 -20.5q-29 0 -50 21t-21 50q0 30 21 50.5t51 20.5q29 0 49.5 -21t20.5 -50z" />
    <glyph glyph-name="slash" unicode="/" horiz-adv-x="597" 
d="M597 773l-511 -843h-86l511 843h86z" />
    <glyph glyph-name="zero" unicode="0" horiz-adv-x="638" 
d="M595 327q0 -142 -62 -236q-72 -108 -208 -108q-83 0 -148 46q-135 95 -135 324q0 112 36 195q44 99 134 140q49 22 105 22q76 0 143 -47q135 -95 135 -336zM486 344q0 165 -31 234q-40 89 -140 89q-64 0 -102 -40q-62 -64 -62 -277q0 -152 37 -235q16 -36 56 -63t83 -27
q159 0 159 319z" />
    <glyph glyph-name="one" unicode="1" horiz-adv-x="338" 
d="M316 0h-260l81 65v497h-90v2q93 44 124 128h68v-627z" />
    <glyph glyph-name="two" unicode="2" horiz-adv-x="558" 
d="M530 0h-509q33 165 218 282q90 57 123 94q52 59 52 143q0 67 -39.5 107.5t-106.5 40.5q-56 0 -96 -32t-40 -87q0 -39 23 -67.5t62 -28.5q36 0 67 33q-15 -100 -111 -100q-58 0 -99 40t-41 98q0 84 72 140q60 47 159 47q115 0 187 -66q68 -62 68 -146q0 -91 -91 -162
q-30 -23 -169 -99q-100 -55 -148 -148h280q55 0 90.5 12t48.5 60v-161z" />
    <glyph glyph-name="three" unicode="3" horiz-adv-x="568" 
d="M533 187q0 -106 -81 -159q-68 -45 -180 -45q-109 0 -169 44q-65 46 -86 150q70 21 121 60q-7 -40 -7 -66q0 -146 139 -146q72 0 111 45q37 42 37 115q0 72 -38 126q-42 60 -111 60q-21 0 -65 -10l20 60q13 -2 23 -2q63 0 103 28q45 32 45 93q0 55 -41 91t-97 36
q-52 0 -86 -26q-37 -28 -37 -78q0 -65 51 -65q16 0 31 10q-17 -49 -73 -49q-41 0 -70.5 30t-29.5 71q0 53 46 93q65 57 182 57q88 0 151 -37q75 -44 75 -126q0 -62 -46 -104q-41 -38 -106 -48q188 -42 188 -208z" />
    <glyph glyph-name="four" unicode="4" horiz-adv-x="550" 
d="M550 221q-27 -35 -37 -100q-41 62 -85 62h-17v-119l77 -64h-257l78 64v119h-323v19q81 95 138 235q59 146 59 265l136 -32q-15 -65 -78 -183q-56 -104 -105 -171q-42 -57 -82 -95h255v240q65 35 102 85v-325h139z" />
    <glyph glyph-name="five" unicode="5" horiz-adv-x="573" 
d="M546 230q0 -117 -81 -187q-69 -60 -199 -60q-105 0 -167 40q-78 51 -92 131q52 22 128 77q-5 -25 -5 -58q0 -78 39 -111q44 -37 102 -37q84 0 124 70q33 56 33 146q0 85 -36 134q-40 56 -122 56q-99 0 -159 -93l-35 20v334h263q101 0 167 40q-30 -60 -30 -146
q-36 18 -111 18h-240v-182q72 57 163 57q76 0 140 -36q70 -39 98 -105q20 -48 20 -108z" />
    <glyph glyph-name="six" unicode="6" horiz-adv-x="594" 
d="M552 239q0 -112 -61 -182q-65 -74 -175 -74q-183 0 -248 198q-26 79 -26 164q0 144 70 250q80 121 217 121q151 0 211 -131q-22 -8 -53 -27q-48 -29 -51 -31q-1 18 -6 52q-9 44 -39 70t-74 26q-53 0 -99 -47q-69 -71 -69 -307q0 -140 30 -208q16 -37 52 -62.5t74 -25.5
q75 0 115 78q33 62 33 144q0 76 -27 124q-33 61 -103 61q-93 0 -115 -116q-5 -28 -21 -28q-23 0 -23 31q0 35 17 72q41 90 157 90q60 0 111 -31q103 -63 103 -211z" />
    <glyph glyph-name="seven" unicode="7" horiz-adv-x="541" 
d="M511 692q-17 -92 -50 -166q-10 -24 -78 -151q-78 -147 -78 -334q0 -21 2 -41h-147q1 58 24 144q29 108 137 251l76 98q43 61 50 111h-295l-96 -133v221h455z" />
    <glyph glyph-name="eight" unicode="8" horiz-adv-x="613" 
d="M585 189q0 -102 -84 -158q-73 -48 -180 -48q-112 0 -194 49q-98 59 -98 164q0 75 56 128q40 38 123 73q-64 30 -92 56q-42 39 -42 95q0 71 62 116q52 37 128 44q22 2 49 2q208 0 208 -136q0 -53 -40 -93q-26 -27 -86 -59q96 -48 134 -87q56 -58 56 -146zM473 574
q0 99 -160 99q-38 0 -67 -9q-83 -26 -83 -78q0 -32 40.5 -69t142.5 -68q51 13 85 43q42 35 42 82zM498 162q0 85 -88 142q-39 24 -163 71q-65 -38 -91 -69q-35 -42 -35 -106q0 -175 215 -175q162 0 162 137z" />
    <glyph glyph-name="nine" unicode="9" horiz-adv-x="572" 
d="M531 368q0 -139 -63 -256q-65 -122 -183 -187q-95 -52 -193 -52q-33 0 -33 18q0 12 23 16q20 3 59 11q118 32 195 131q46 60 70 160q20 84 20 175q0 88 -11 137q-18 77 -68 115q-41 31 -90 31q-71 0 -107 -63q-29 -51 -29 -128q0 -74 33 -125q39 -58 110 -58q81 0 111 65
l10 36q8 28 18 28q17 0 17 -29q0 -73 -57 -117q-53 -41 -128 -41q-95 0 -154.5 62.5t-59.5 157.5q0 106 68.5 180.5t174.5 74.5q130 0 209 -121q58 -89 58 -221z" />
    <glyph glyph-name="colon" unicode=":" horiz-adv-x="241" 
d="M191 467q0 -30 -20.5 -51t-50.5 -21q-29 0 -50 21.5t-21 50.5q0 30 21 50t51 20q29 0 49.5 -20.5t20.5 -49.5zM191 64q0 -30 -20.5 -50.5t-50.5 -20.5q-29 0 -50 21t-21 50q0 30 21 50.5t51 20.5q29 0 49.5 -21t20.5 -50z" />
    <glyph glyph-name="semicolon" unicode=";" horiz-adv-x="241" 
d="M189 467q0 -30 -21 -51t-51 -21t-50 21t-20 51t21 50t51 20q29 0 49.5 -20.5t20.5 -49.5zM184 46q0 -138 -161 -188l-4 8q34 31 46 51q15 27 15 67q0 45 -29 80q65 23 118 57q15 -37 15 -75z" />
    <glyph glyph-name="less" unicode="&#x3c;" 
d="M484 72l-441 296v9l441 280v-53l-300 -192l300 -202v-138z" />
    <glyph glyph-name="equal" unicode="=" horiz-adv-x="492" 
d="M469 393h-446v68h446v-68zM469 241h-446v69h446v-69z" />
    <glyph glyph-name="greater" unicode="&#x3e;" 
d="M484 351l-441 -279v52l301 193l-301 202v138l441 -298v-8z" />
    <glyph glyph-name="question" unicode="?" horiz-adv-x="442" 
d="M424 516q0 -70 -51 -119q-7 -7 -36 -26q-82 -54 -126 -101q-28 -30 -28 -52l2 -41q1 -13 -16 -13t-27 22q-8 17 -8 36q0 56 46 114q42 49 85 97q46 57 46 109q0 44 -27.5 73t-71.5 29q-36 0 -64 -21q-30 -24 -30 -59t45 -63q-36 -22 -105 -72q-41 49 -41 104q0 74 64 118
q55 38 133 38q84 0 144 -44q66 -48 66 -129zM271 64q0 -30 -20.5 -50.5t-50.5 -20.5q-29 0 -50 21t-21 50q0 30 21 50.5t51 20.5q29 0 49.5 -21t20.5 -50z" />
    <glyph glyph-name="at" unicode="@" horiz-adv-x="782" 
d="M747 422q0 -61 -23 -117q-25 -60 -69 -97q-49 -41 -101 -41q-74 0 -78 74q-48 -78 -120 -78q-67 0 -104 53q-33 46 -33 116q0 94 55 165q59 77 150 77q19 0 55 -12t55 -12q16 0 38 14l-31 -233q-6 -45 -6 -74q0 -47 37 -47q54 0 88 82q26 65 26 130q0 108 -77.5 181.5
t-186.5 73.5q-113 0 -198 -84q-103 -102 -103 -257q0 -129 78 -217q81 -92 209 -92q64 0 125 22q2 1 18 11q73 47 90 47q12 0 12 -11q0 -43 -107 -77q-87 -27 -145 -27q-149 0 -254 101.5t-105 250.5q0 157 112 263.5t270 106.5q141 0 235 -90q88 -84 88 -202zM476 434
q0 105 -63 105q-59 0 -86 -86q-19 -58 -19 -134q0 -121 60 -121q44 0 71 54q19 38 26 93l10 81z" />
    <glyph glyph-name="A" unicode="A" horiz-adv-x="727" 
d="M741 0h-276l74 64l-75 198q-29 -31 -57 -61q-34 -37 -51 -66q-69 114 -123 166q-52 -140 -52 -194q0 -49 64 -107h-274q91 46 144 138q33 58 73 189q-33 24 -83 31q34 51 45 87q21 -20 62 -60l95 254l-58 63h252l-58 -63l92 -247q50 32 81 67q15 -63 43 -104q-10 1 -32 1
q-38 0 -70 -16l102 -276zM445 318l-103 273l-91 -238q45 -49 105 -134q42 56 89 99z" />
    <glyph glyph-name="B" unicode="B" horiz-adv-x="743" 
d="M708 196q0 -46 -14 -80q-47 -116 -303 -116h-359l84 64v282q-63 0 -103 -14l46 64q23 -7 57 -7v202l-68 41q145 89 323 89q119 0 196 -37q102 -49 102 -155q0 -67 -56 -109q-46 -34 -119 -46v-1q106 -11 160 -62t54 -115zM537 531q0 142 -164 142q-71 0 -135 -37v-247h71
q228 0 228 142zM575 196q0 91 -77 126q-52 24 -156 24h-104v-297q10 0 43 -2q27 -2 43 -2q54 0 98 7q75 12 110 39q43 35 43 105z" />
    <glyph glyph-name="C" unicode="C" horiz-adv-x="708" 
d="M695 124q-67 -75 -129 -107q-70 -36 -164 -36q-179 0 -273 104q-90 99 -90 280q0 162 90.5 259t250.5 97q49 0 117.5 -23.5t91.5 -23.5q43 0 86 28q-62 -109 -83 -214q-42 186 -221 186q-112 0 -163 -105q-37 -78 -37 -204q0 -140 47 -226q59 -111 187 -111q99 0 140 57
q34 45 40 151q27 -31 53 -65t57 -47z" />
    <glyph glyph-name="D" unicode="D" horiz-adv-x="717" 
d="M679 358q0 -191 -99 -277q-93 -81 -286 -81h-262l84 64v575l-84 63h261q386 0 386 -344zM548 360q0 130 -51 207q-60 90 -184 90q-19 0 -75 -4v-604q9 0 36 -2q22 -2 36 -2q238 0 238 315z" />
    <glyph glyph-name="E" unicode="E" horiz-adv-x="689" 
d="M689 0h-657l84 63v291q-78 0 -126 -39q24 85 126 85v239l-84 63h631q-71 -77 -109 -167q-39 81 -80 103q-36 19 -130 19q-55 0 -106 -8v-249h156l77 85v-215l-77 84h-156v-305q56 -4 80 -4q112 0 153 21q45 23 101 114q16 -62 42 -101q22 -32 75 -79z" />
    <glyph glyph-name="F" unicode="F" horiz-adv-x="631" 
d="M645 702q-74 -68 -119 -167q-32 69 -64 94q-37 28 -108 28q-64 0 -116 -9v-248h156l77 73v-203l-77 84h-156v-290l86 -64h-292l84 64v290q-78 0 -126 -39q24 85 126 85v239l-84 63h613z" />
    <glyph glyph-name="G" unicode="G" horiz-adv-x="794" 
d="M770 0h-357q-164 0 -269 97.5t-105 260.5q0 153 101 258t253 105q60 0 144 -22t107 -22q40 0 79 18l-115 -201q-8 84 -58.5 132.5t-134.5 48.5q-124 0 -189 -99q-55 -84 -55 -214q0 -317 290 -317q70 0 103 20v277h-28q-78 0 -100 -12q-18 -10 -69 -74v132h319v-324z" />
    <glyph glyph-name="H" unicode="H" horiz-adv-x="745" 
d="M713 0h-293l86 64v274q-58 -15 -116 -15q-85 0 -152 20v-279l85 -64h-292l85 64v283q-71 0 -112 -47q11 38 41 70q35 35 71 35v234l-85 63h292l-85 -63v-241q96 -31 167 -31q35 0 101 15v257l-86 63h293l-86 -63v-575z" />
    <glyph glyph-name="I" unicode="I" horiz-adv-x="354" 
d="M324 0h-292l84 64v575l-84 63h292l-86 -63v-575z" />
    <glyph glyph-name="J" unicode="J" horiz-adv-x="605" 
d="M523 702l-86 -63v-421q0 -32 3 -43q6 -21 28 -31q0 -161 -211 -161q-93 0 -139.5 32t-81.5 119q-7 16 -15.5 22t-33.5 10l183 122q-12 -67 -12 -109q0 -68 13 -100q20 -50 78 -50q68 0 68 145v465l-86 63h292z" />
    <glyph glyph-name="K" unicode="K" horiz-adv-x="750" 
d="M759 0q-51 0 -126 -20q-78 -22 -116 -49q0 135 -43 239q-24 59 -117 212l-121 -112v-206l87 -64h-292l84 64v575l-84 63h292l-87 -63v-296l236 217q42 39 42 72q0 43 -79 68v2h316v-2q-22 -8 -42 -18q-52 -25 -151 -113l-136 -126q114 -202 142 -243q84 -121 195 -200z
" />
    <glyph glyph-name="L" unicode="L" horiz-adv-x="653" 
d="M668 0h-636l84 63v576l-84 63h292l-86 -63v-590q62 -4 101 -4q92 0 141 34q53 37 71 125q55 -146 117 -204z" />
    <glyph glyph-name="M" unicode="M" horiz-adv-x="905" 
d="M874 0h-292l85 63v500l-226 -563h-43l-234 570v-366q0 -88 21 -130q27 -56 103 -74h-298q76 18 103 74q21 42 21 130v435l-85 63h331l-86 -63l186 -467l188 467l-86 63h312l-86 -63v-576z" />
    <glyph glyph-name="N" unicode="N" horiz-adv-x="713" 
d="M725 702q-81 -22 -106 -73q-19 -37 -19 -130v-499h-99l-335 587v-388q0 -89 20 -127q26 -50 104 -72h-298q78 22 104 72q20 38 20 127v440l-85 63h315l-86 -63l291 -505v370q0 89 -21 127q-26 49 -104 71h299z" />
    <glyph glyph-name="O" unicode="O" horiz-adv-x="751" 
d="M706 346q0 -164 -81 -260q-87 -103 -248 -103q-165 0 -252 104q-80 96 -80 265t82 265q87 104 253 104q163 0 248 -109q78 -98 78 -266zM574 346q0 161 -45 239q-23 40 -67.5 64.5t-92.5 24.5q-64 0 -112 -41q-80 -68 -80 -281q0 -159 44 -235q22 -38 67 -63t93 -25
q64 0 113 41q80 66 80 276z" />
    <glyph glyph-name="P" unicode="P" horiz-adv-x="658" 
d="M641 508q0 -189 -300 -189q-20 0 -52 2q-42 2 -51 2v-252l105 -71h-311l84 64v269h-6q-63 0 -121 -22q35 69 127 69v259l-84 63h281q139 0 215 -30q113 -46 113 -164zM515 508q0 149 -191 149q-38 0 -86 -10v-273q28 -6 80 -6q83 0 133 28q64 36 64 112z" />
    <glyph glyph-name="Q" unicode="Q" horiz-adv-x="751" 
d="M797 12q-55 -65 -94 -141q-117 18 -203 131q-58 -19 -124 -19q-165 0 -251 104q-80 97 -80 265t81 265q87 104 251 104q163 0 250 -106q79 -98 79 -265q0 -214 -131 -311q55 -44 129 -44q34 0 93 17zM574 348q0 241 -112 302q-44 24 -93 24q-64 0 -112 -41
q-80 -69 -80 -281q0 -158 44 -235q21 -37 67 -62.5t93 -25.5q39 0 78 18q-37 58 -95 58q-7 0 -14 -1l42 46q56 -12 102 -50q4 -4 12 -11q5 -4 8 -4q22 0 43 119q17 99 17 144z" />
    <glyph glyph-name="R" unicode="R" horiz-adv-x="698" 
d="M713 0q-96 0 -194 -69q0 134 -133 400q-62 -17 -148 -24v-243l86 -64h-292l84 64v228q-62 -6 -99 -16l14 32q9 20 18 25.5t24 5.5q19 0 43 3v249l-84 41q65 41 162 66q90 23 173 23q103 0 188 -42q106 -52 106 -144q0 -74 -68 -125q-54 -41 -137 -60q35 -91 107 -191
q77 -107 150 -159zM528 555q0 64 -58 95q-46 24 -116 24q-66 0 -116 -38v-287q237 45 277 136q13 30 13 70z" />
    <glyph glyph-name="S" unicode="S" horiz-adv-x="655" 
d="M635 202q0 -87 -68 -148q-79 -71 -208 -71q-68 0 -150 23q-96 27 -129 27t-91 -33q76 105 114 214q13 -58 33 -90q31 -49 99 -74q57 -21 124 -21q70 0 117 27q58 33 58 99q0 35 -22 67q-36 53 -121 77l-154 30q-90 18 -130 56q-55 52 -55 133q0 97 78 153q70 50 170 50
q68 0 166 -28q46 -13 64 -13q27 0 73 16q-40 -50 -103 -183q-7 42 -27 75q-23 39 -69.5 62.5t-94.5 23.5q-60 0 -101 -29q-48 -32 -48 -89q0 -53 48 -86q36 -24 104 -40q52 -11 104 -21q113 -26 162 -73q57 -55 57 -134z" />
    <glyph glyph-name="T" unicode="T" horiz-adv-x="707" 
d="M725 702q-63 -90 -91 -169q-23 67 -52 93q-34 31 -101 31q-20 0 -66 -4v-589l85 -64h-292l85 64v589q-46 4 -66 4q-67 0 -101 -31q-29 -26 -52 -93q-27 78 -90 169h741z" />
    <glyph glyph-name="U" unicode="U" horiz-adv-x="736" 
d="M748 702q-80 -23 -105 -73q-19 -38 -19 -130l1 -301q0 -75 -21 -119q-25 -53 -89 -76q-56 -20 -128 -20q-184 0 -240 93q-34 56 -34 196v367l-85 63h292l-85 -63v-437q0 -61 10 -92q26 -81 152 -81q120 0 154 68q23 45 23 173v229q0 92 -19 130q-25 50 -105 73h298z" />
    <glyph glyph-name="V" unicode="V" horiz-adv-x="734" 
d="M819 786q-32 -25 -57 -49q-78 -76 -191 -340l-142 -333l88 -64h-302l85 64l-227 575l-86 63h293l-85 -63l204 -528l128 302q20 46 27 66q14 38 21 68q10 45 10 59q0 55 -47 96q65 0 144 25.5t134 63.5z" />
    <glyph glyph-name="W" unicode="W" horiz-adv-x="990" 
d="M1050 795q-96 -90 -135 -160q-31 -54 -74 -195l-103 -337l13 -39l86 -64h-296l86 64l-136 440l-129 -409l12 -31l85 -64h-292l84 64l-178 575l-86 63h294l-85 -63l141 -456l159 519h57l157 -515l79 260q38 125 38 162q0 59 -62 93q51 0 145 34q79 28 139 61z" />
    <glyph glyph-name="X" unicode="X" horiz-adv-x="704" 
d="M719 702q-86 -62 -151 -144l-156 -197l138 -198q20 -31 69 -99q39 -30 85 -64h-305l86 64l-160 230l-184 -230l85 -64h-242q90 57 158 142l155 194l-141 202q-20 32 -71 101l-85 63h303l-86 -63l165 -236l189 236l-85 63h233z" />
    <glyph glyph-name="Y" unicode="Y" horiz-adv-x="765" 
d="M842 788q-78 -61 -116 -102q-44 -47 -110 -143l-170 -248v-231l84 -64h-292l86 64v231l-146 202q-28 42 -87 122q-27 32 -104 83h314l-86 -66l210 -286l111 163q55 81 55 123q0 28 -51 66q55 0 153 31q82 26 148 58z" />
    <glyph glyph-name="Z" unicode="Z" horiz-adv-x="692" 
d="M692 0h-692l474 638q-73 19 -156 19q-82 0 -131 -24q-59 -29 -84 -99q-38 76 -96 168h660l-476 -638q36 -19 98 -19q120 0 172 20q76 28 122 118q54 -124 109 -183z" />
    <glyph glyph-name="bracketleft" unicode="[" horiz-adv-x="350" 
d="M329 -56h-245v816h245v-50h-132v-716h132v-50z" />
    <glyph glyph-name="backslash" unicode="\" horiz-adv-x="597" 
d="M597 -70h-86l-511 843h86z" />
    <glyph glyph-name="bracketright" unicode="]" horiz-adv-x="350" 
d="M266 -56h-245v50h133v716h-133v50h245v-816z" />
    <glyph glyph-name="asciicircum" unicode="^" 
d="M556 297h-53l-192 300l-202 -300h-138l297 441h8z" />
    <glyph glyph-name="underscore" unicode="_" 
d="M510 -154h-494v59h494v-59z" />
    <glyph glyph-name="grave" unicode="`" 
d="M292 747h-57l-134 108h111z" />
    <glyph glyph-name="a" unicode="a" horiz-adv-x="727" 
d="M741 0h-276l74 64l-75 198q-29 -31 -57 -61q-34 -37 -51 -66q-69 114 -123 166q-52 -140 -52 -194q0 -49 64 -107h-274q91 46 144 138q33 58 73 189q-33 24 -83 31q34 51 45 87q21 -20 62 -60l95 254l-58 63h252l-58 -63l92 -247q50 32 81 67q15 -63 43 -104q-10 1 -32 1
q-38 0 -70 -16l102 -276zM445 318l-103 273l-91 -238q45 -49 105 -134q42 56 89 99z" />
    <glyph glyph-name="b" unicode="b" horiz-adv-x="743" 
d="M708 196q0 -46 -14 -80q-47 -116 -303 -116h-359l84 64v282q-63 0 -103 -14l46 64q23 -7 57 -7v202l-68 41q145 89 323 89q119 0 196 -37q102 -49 102 -155q0 -67 -56 -109q-46 -34 -119 -46v-1q106 -11 160 -62t54 -115zM537 531q0 142 -164 142q-71 0 -135 -37v-247h71
q228 0 228 142zM575 196q0 91 -77 126q-52 24 -156 24h-104v-297q10 0 43 -2q27 -2 43 -2q54 0 98 7q75 12 110 39q43 35 43 105z" />
    <glyph glyph-name="c" unicode="c" horiz-adv-x="708" 
d="M695 124q-67 -75 -129 -107q-70 -36 -164 -36q-179 0 -273 104q-90 99 -90 280q0 162 90.5 259t250.5 97q49 0 117.5 -23.5t91.5 -23.5q43 0 86 28q-62 -109 -83 -214q-42 186 -221 186q-112 0 -163 -105q-37 -78 -37 -204q0 -140 47 -226q59 -111 187 -111q99 0 140 57
q34 45 40 151q27 -31 53 -65t57 -47z" />
    <glyph glyph-name="d" unicode="d" horiz-adv-x="717" 
d="M679 358q0 -191 -99 -277q-93 -81 -286 -81h-262l84 64v575l-84 63h261q386 0 386 -344zM548 360q0 130 -51 207q-60 90 -184 90q-19 0 -75 -4v-604q9 0 36 -2q22 -2 36 -2q238 0 238 315z" />
    <glyph glyph-name="e" unicode="e" horiz-adv-x="689" 
d="M689 0h-657l84 63v291q-78 0 -126 -39q24 85 126 85v239l-84 63h631q-71 -77 -109 -167q-28 75 -80 101q-42 21 -130 21q-44 0 -106 -4v-253h156l77 85v-215l-77 84h-156v-305q56 -4 80 -4q112 0 153 21q45 23 101 114q16 -62 42 -101q21 -32 75 -79z" />
    <glyph glyph-name="f" unicode="f" horiz-adv-x="658" 
d="M673 702q-71 -77 -109 -167q-28 76 -80 102q-42 20 -130 20q-64 0 -116 -9v-248h167l77 85v-215l-77 84h-167v-290l86 -64h-292l84 64v290q-78 0 -126 -39q24 85 126 85v239l-84 63h641z" />
    <glyph glyph-name="g" unicode="g" horiz-adv-x="794" 
d="M770 0h-357q-164 0 -269 97.5t-105 260.5q0 153 101 258t253 105q60 0 144 -22t107 -22q40 0 79 18l-115 -201q-8 84 -58.5 132.5t-134.5 48.5q-124 0 -189 -99q-55 -84 -55 -214q0 -317 290 -317q70 0 103 20v277h-28q-78 0 -100 -12q-18 -10 -69 -74v132h319v-324z" />
    <glyph glyph-name="h" unicode="h" horiz-adv-x="745" 
d="M713 0h-293l86 64v274q-58 -15 -116 -15q-85 0 -152 20v-279l85 -64h-292l85 64v283q-71 0 -112 -47q11 38 41 70q35 35 71 35v234l-85 63h292l-85 -63v-241q96 -31 167 -31q35 0 101 15v257l-86 63h293l-86 -63v-575z" />
    <glyph glyph-name="i" unicode="i" horiz-adv-x="354" 
d="M324 0h-292l84 64v575l-84 63h292l-86 -63v-575z" />
    <glyph glyph-name="j" unicode="j" horiz-adv-x="605" 
d="M523 702l-86 -63v-421q0 -32 3 -43q6 -21 28 -31q0 -161 -211 -161q-93 0 -139.5 32t-81.5 119q-7 16 -15.5 22t-33.5 10l183 122q-12 -67 -12 -109q0 -68 13 -100q20 -50 78 -50q68 0 68 145v465l-86 63h292z" />
    <glyph glyph-name="k" unicode="k" horiz-adv-x="750" 
d="M759 0q-51 0 -126 -20q-78 -22 -116 -49q0 135 -43 239q-24 59 -117 212l-121 -112v-206l87 -64h-292l84 64v575l-84 63h292l-87 -63v-296l236 217q42 39 42 72q0 43 -79 68v2h316v-2q-22 -8 -42 -18q-52 -25 -151 -113l-136 -126q114 -202 142 -243q84 -121 195 -200z
" />
    <glyph glyph-name="l" unicode="l" horiz-adv-x="653" 
d="M668 0h-636l84 63v576l-84 63h292l-86 -63v-590q62 -4 101 -4q92 0 141 34q53 37 71 125q55 -146 117 -204z" />
    <glyph glyph-name="m" unicode="m" horiz-adv-x="905" 
d="M874 0h-292l85 63v500l-226 -563h-43l-234 570v-366q0 -88 21 -130q27 -56 103 -74h-298q76 18 103 74q21 42 21 130v435l-85 63h331l-86 -63l186 -467l188 467l-86 63h312l-86 -63v-576z" />
    <glyph glyph-name="n" unicode="n" horiz-adv-x="713" 
d="M725 702q-81 -22 -106 -73q-19 -37 -19 -130v-499h-99l-335 587v-388q0 -89 20 -127q26 -50 104 -72h-298q78 22 104 72q20 38 20 127v440l-85 63h315l-86 -63l291 -505v370q0 89 -21 127q-26 49 -104 71h299z" />
    <glyph glyph-name="o" unicode="o" horiz-adv-x="751" 
d="M706 346q0 -164 -81 -260q-87 -103 -248 -103q-165 0 -252 104q-80 96 -80 265t82 265q87 104 253 104q163 0 248 -109q78 -98 78 -266zM574 346q0 161 -45 239q-23 40 -67.5 64.5t-92.5 24.5q-64 0 -112 -41q-80 -68 -80 -281q0 -159 44 -235q22 -38 67 -63t93 -25
q64 0 113 41q80 66 80 276z" />
    <glyph glyph-name="p" unicode="p" horiz-adv-x="658" 
d="M641 508q0 -189 -300 -189q-20 0 -52 2q-42 2 -51 2v-252l105 -71h-311l84 64v269h-6q-63 0 -121 -22q35 69 127 69v259l-84 63h281q139 0 215 -30q113 -46 113 -164zM515 508q0 149 -191 149q-38 0 -86 -10v-273q28 -6 80 -6q83 0 133 28q64 36 64 112z" />
    <glyph glyph-name="q" unicode="q" horiz-adv-x="751" 
d="M797 12q-55 -65 -94 -141q-117 18 -203 131q-58 -19 -124 -19q-165 0 -251 104q-80 97 -80 265t81 265q87 104 251 104q163 0 250 -106q79 -98 79 -265q0 -214 -131 -311q55 -44 129 -44q34 0 93 17zM574 348q0 241 -112 302q-44 24 -93 24q-64 0 -112 -41
q-80 -69 -80 -281q0 -158 44 -235q21 -37 67 -62.5t93 -25.5q39 0 78 18q-37 58 -95 58q-7 0 -14 -1l42 46q56 -12 102 -50q4 -4 12 -11q5 -4 8 -4q22 0 43 119q17 99 17 144z" />
    <glyph glyph-name="r" unicode="r" horiz-adv-x="698" 
d="M713 0q-96 0 -194 -69q0 134 -133 400q-62 -17 -148 -24v-243l86 -64h-292l84 64v228q-62 -6 -99 -16l14 32q9 20 18 25.5t24 5.5q19 0 43 3v249l-84 41q65 41 162 66q90 23 173 23q103 0 188 -42q106 -52 106 -144q0 -74 -68 -125q-54 -41 -137 -60q35 -91 107 -191
q77 -107 150 -159zM528 555q0 64 -58 95q-46 24 -116 24q-66 0 -116 -38v-287q237 45 277 136q13 30 13 70z" />
    <glyph glyph-name="s" unicode="s" horiz-adv-x="655" 
d="M635 202q0 -87 -68 -148q-79 -71 -208 -71q-68 0 -150 23q-96 27 -129 27t-91 -33q76 105 114 214q13 -58 33 -90q31 -49 99 -74q57 -21 124 -21q70 0 117 27q58 33 58 99q0 35 -22 67q-36 53 -121 77l-154 30q-90 18 -130 56q-55 52 -55 133q0 97 78 153q70 50 170 50
q68 0 166 -28q46 -13 64 -13q27 0 73 16q-40 -50 -103 -183q-7 42 -27 75q-23 39 -69.5 62.5t-94.5 23.5q-60 0 -101 -29q-48 -32 -48 -89q0 -53 48 -86q36 -24 104 -40q52 -11 104 -21q113 -26 162 -73q57 -55 57 -134z" />
    <glyph glyph-name="t" unicode="t" horiz-adv-x="707" 
d="M725 702q-63 -90 -91 -169q-23 67 -52 93q-34 31 -101 31q-20 0 -66 -4v-589l85 -64h-292l85 64v589q-46 4 -66 4q-67 0 -101 -31q-29 -26 -52 -93q-27 78 -90 169h741z" />
    <glyph glyph-name="u" unicode="u" horiz-adv-x="736" 
d="M748 702q-80 -23 -105 -73q-19 -38 -19 -130l1 -301q0 -75 -21 -119q-25 -53 -89 -76q-56 -20 -128 -20q-184 0 -240 93q-34 56 -34 196v367l-85 63h292l-85 -63v-437q0 -61 10 -92q26 -81 152 -81q120 0 154 68q23 45 23 173v229q0 92 -19 130q-25 50 -105 73h298z" />
    <glyph glyph-name="v" unicode="v" horiz-adv-x="734" 
d="M819 793q-29 -23 -57 -51q-76 -75 -191 -345l-142 -333l88 -64h-302l85 64l-227 575l-86 63h293l-85 -63l204 -528l128 302q20 46 27 66q14 38 21 68q10 45 10 59q0 55 -47 96q63 0 145 29q75 27 133 66z" />
    <glyph glyph-name="w" unicode="w" horiz-adv-x="990" 
d="M1050 795q-96 -90 -135 -160q-31 -54 -74 -195l-103 -337l13 -39l86 -64h-296l86 64l-136 440l-129 -409l12 -31l85 -64h-292l84 64l-178 575l-86 63h294l-85 -63l141 -456l159 519h57l157 -515l79 260q38 125 38 162q0 59 -62 93q51 0 145 34q79 28 139 61z" />
    <glyph glyph-name="x" unicode="x" horiz-adv-x="704" 
d="M719 702q-86 -62 -151 -144l-156 -197l138 -198q20 -31 69 -99q39 -30 85 -64h-305l86 64l-160 230l-184 -230l85 -64h-242q90 57 158 142l155 194l-141 202q-20 32 -71 101l-85 63h303l-86 -63l165 -236l189 236l-85 63h233z" />
    <glyph glyph-name="y" unicode="y" horiz-adv-x="765" 
d="M842 788q-78 -61 -116 -102q-44 -47 -110 -143l-170 -248v-231l84 -64h-292l86 64v231l-146 202q-28 42 -87 122q-27 32 -104 83h314l-86 -66l210 -286l111 163q55 81 55 123q0 28 -51 66q55 0 153 31q82 26 148 58z" />
    <glyph glyph-name="z" unicode="z" horiz-adv-x="692" 
d="M692 0h-692l474 638q-73 19 -156 19q-82 0 -131 -24q-59 -29 -84 -99q-38 76 -96 168h660l-476 -638q36 -19 98 -19q120 0 172 20q76 28 122 118q54 -124 109 -183z" />
    <glyph glyph-name="braceleft" unicode="{" horiz-adv-x="364" 
d="M344 -56h-70q-102 0 -142 36q-21 19 -34.5 53t-13.5 71q0 12 5 33l18 68q10 41 10 70q0 49 -103 52v49q103 6 103 77q0 9 -17 60t-17 86q0 42 18 81q27 59 100 73q36 7 75 7h68v-50q-51 -2 -74 -10q-36 -12 -54 -46q-13 -25 -13 -57q0 -24 15 -56t15 -71
q0 -100 -155 -118q69 -7 102 -22q55 -26 55 -81q0 -3 -15 -57t-15 -83q0 -39 18.5 -68.5t52.5 -39.5q22 -7 68 -7v-50z" />
    <glyph glyph-name="bar" unicode="|" 
d="M303 -175h-79v877h79v-877z" />
    <glyph glyph-name="braceright" unicode="}" horiz-adv-x="364" 
d="M351 327q-103 -6 -103 -76q0 -21 12 -52q17 -45 18 -50q4 -15 4 -46q0 -43 -17.5 -79t-39 -51t-61 -22t-75.5 -7h-68v50q51 2 74 9q37 12 55 47q13 25 13 57q0 23 -15 55t-15 71q0 99 153 119q-155 13 -155 103q0 4 15 58t15 82q0 39 -18 68q-29 47 -122 47v50h70
q99 0 142 -37q22 -19 35 -53t13 -71q0 -11 -5 -32q-9 -34 -18 -69q-10 -41 -10 -70q0 -32 38 -44q19 -6 65 -8v-49z" />
    <glyph glyph-name="asciitilde" unicode="~" horiz-adv-x="702" 
d="M566 762q-57 -109 -142 -109q-7 0 -34 7q-37 11 -75 21q-53 15 -71 15q-32 0 -52 -15q-4 -4 -38 -40l-18 12q63 109 143 109q12 0 34 -6q129 -35 140 -35q52 0 95 52z" />
    <glyph glyph-name="currency" unicode="&#xa4;" horiz-adv-x="492" 
d="M465 519l-45 -46q39 -57 39 -122q0 -67 -40 -125l42 -42l-48 -48l-42 42q-59 -40 -126 -40q-66 0 -121 39l-45 -45l-48 49l43 43q-41 61 -41 127q0 65 39 125l-45 46l47 48l47 -45q55 39 126 39t126 -41l44 43zM381 351q0 73 -39 121q-42 51 -97 51q-61 0 -100 -57
q-35 -51 -35 -115t35 -114q39 -56 100 -56q63 0 101 55q35 50 35 115z" />
    <glyph glyph-name="brokenbar" unicode="&#xa6;" 
d="M303 341h-79v361h79v-361zM303 -175h-79v337h79v-337z" />
    <glyph glyph-name="section" unicode="&#xa7;" horiz-adv-x="564" 
d="M522 368q0 -98 -120 -137q90 -47 90 -133q0 -83 -70 -129q-61 -39 -148 -39q-59 0 -108 14q-74 21 -96 21q-24 0 -56 -17q58 95 85 153q7 -37 20 -60q39 -66 150 -66q55 0 94 20q49 25 49 75q0 78 -115 113q-91 27 -154 51q-100 37 -100 122q0 55 38 91q35 33 91 42
q-98 35 -98 131q0 79 68 119q56 34 140 34q27 0 80 -13t80 -13q26 0 50 15q-33 -57 -73 -144q-20 61 -45 80q-40 30 -96 30q-46 0 -80 -19q-41 -24 -41 -67q0 -64 118 -96q48 -13 94 -29q75 -26 105 -49q48 -37 48 -100zM435 346q0 46 -45 71q-17 10 -84 31q-45 14 -75 21
q-107 -15 -107 -87q0 -31 19 -51q27 -28 91 -48l102 -26q41 5 68 26q31 24 31 63z" />
    <glyph glyph-name="copyright" unicode="&#xa9;" horiz-adv-x="837" 
d="M795 335q0 -159 -102.5 -251.5t-263.5 -92.5q-150 0 -259 83q-128 97 -128 278q0 170 108 266q104 92 276 92q147 0 251 -94q118 -107 118 -281zM712 346q0 82 -15 135q-27 94 -107 143q-72 43 -176 43q-225 0 -276 -201q-17 -66 -17 -128q0 -146 76.5 -225.5
t222.5 -79.5q152 0 228 95q46 58 59 136q5 36 5 82zM603 572q-57 -97 -87 -173q-1 8 -3 25q-6 45 -28 74q-27 33 -69 33q-101 0 -101 -171q0 -75 23 -124q30 -65 96 -65q64 0 85 53q5 21 10 43q8 31 22 31q19 0 19 -28q0 -27 -11 -58q-29 -82 -137 -82q-92 0 -144 64
q-48 59 -48 154q0 92 49 155q54 69 142 69q21 0 61 -13t61 -13q14 0 30 10l26 18z" />
    <glyph glyph-name="guillemotleft" unicode="&#xab;" horiz-adv-x="297" 
d="M274 200h-53l-86 151l91 151h48l-60 -151zM160 200h-52l-87 151l91 151h48l-60 -151z" />
    <glyph glyph-name="logicalnot" unicode="&#xac;" 
d="M492 0h-132v224h-325v57h457v-281z" />
    <glyph glyph-name="registered" unicode="&#xae;" horiz-adv-x="837" 
d="M795 335q0 -159 -102.5 -251.5t-263.5 -92.5q-150 0 -259 83q-128 97 -128 278q0 170 108 266q104 92 276 92q147 0 251 -94q118 -107 118 -281zM712 346q0 82 -15 135q-27 94 -107 143q-72 43 -176 43q-225 0 -276 -201q-17 -66 -17 -128q0 -146 76.5 -225.5
t222.5 -79.5q152 0 228 95q46 58 59 136q5 36 5 82zM622 145q-72 -21 -126 -63q-21 128 -71 249q-33 -6 -69 -12v-132l60 -47h-199l60 47v122q-31 -2 -62 -15q20 39 24 58h15q9 -1 14 -1q4 0 9 1v134l-54 28q97 58 197 58q59 0 107 -27q58 -32 58 -87q0 -79 -109 -112
q60 -142 146 -201zM498 457q0 34 -26 54t-60 20q-32 0 -56 -17v-156q142 19 142 99z" />
    <glyph glyph-name="degree" unicode="&#xb0;" horiz-adv-x="280" 
d="M253 607q0 -46 -33.5 -78.5t-79.5 -32.5q-45 0 -78 33t-33 78q0 48 32.5 81t80.5 33q47 0 79 -33.5t32 -80.5zM206 607q0 27 -18.5 46.5t-45.5 19.5q-28 0 -48 -19t-20 -47q0 -27 19.5 -46.5t46.5 -19.5q28 0 47 19t19 47z" />
    <glyph glyph-name="plusminus" unicode="&#xb1;" horiz-adv-x="492" 
d="M469 321h-189v-183h-68v183h-189v68h189v196h68v-196h189v-68zM469 33h-446v68h446v-68z" />
    <glyph glyph-name="paragraph" unicode="&#xb6;" horiz-adv-x="638" 
d="M637 773q-1 -3 -5 -9q-15 -19 -43 -57q-6 -8 -31 -59q-33 78 -87 78q-3 0 -10 -1h-11v-795h-61v795h-66v-795h-62v465q-129 2 -181 45q-66 55 -66 150q0 71 40 121q50 62 202 62h381z" />
    <glyph glyph-name="guillemotright" unicode="&#xbb;" horiz-adv-x="298" 
d="M277 348l-90 -148h-51l60 158l-60 144h51zM165 348l-89 -148h-51l59 158l-59 144h51z" />
    <glyph glyph-name="mu" unicode="&#xb5;" horiz-adv-x="523" 
d="M534 457q-57 -18 -76 -62q-13 -31 -13 -101v-78q0 -124 -22 -166q-34 -64 -147 -64q-88 0 -140 35l17 -161h-130q53 110 53 218v379h148l-61 -51v-245q0 -67 23 -96q27 -32 93 -32q78 0 100 51q16 36 16 132v241h139z" />
    <glyph glyph-name="mu" unicode="&#x3bc;" horiz-adv-x="523" 
d="M534 457q-57 -18 -76 -62q-13 -31 -13 -101v-78q0 -124 -22 -166q-34 -64 -147 -64q-88 0 -140 35l17 -161h-130q53 110 53 218v379h148l-61 -51v-245q0 -67 23 -96q27 -32 93 -32q78 0 100 51q16 36 16 132v241h139z" />
    <glyph glyph-name="afii10023" unicode="&#x401;" horiz-adv-x="689" 
d="M510 802q0 -23 -17.5 -38t-41.5 -15t-41 15t-17 38t18 37.5t42 14.5q22 0 39.5 -15t17.5 -37zM309 802q0 -23 -18 -38t-41 -15q-24 0 -41.5 15t-17.5 38t18 37.5t42 14.5q23 0 40.5 -15t17.5 -37zM689 0h-657l84 63v291q-78 0 -126 -39q24 85 126 85v239l-84 63h631
q-71 -77 -109 -167q-28 75 -80 101q-42 21 -130 21q-44 0 -106 -4v-253h156l77 85v-215l-77 84h-156v-305q56 -4 80 -4q112 0 153 21q45 23 101 114q16 -62 42 -101q21 -32 75 -79z" />
    <glyph glyph-name="afii10017" unicode="&#x410;" horiz-adv-x="727" 
d="M741 0h-276l74 64l-75 198q-29 -31 -57 -61q-34 -37 -51 -66q-69 114 -123 166q-52 -140 -52 -194q0 -49 64 -107h-274q91 46 144 138q33 58 73 189q-33 24 -83 31q34 51 45 87q21 -20 62 -60l95 254l-58 63h252l-58 -63l92 -247q50 32 81 67q15 -63 43 -104q-10 1 -32 1
q-38 0 -70 -16l102 -276zM445 318l-103 273l-91 -238q45 -49 105 -134q42 56 89 99z" />
    <glyph glyph-name="afii10018" unicode="&#x411;" horiz-adv-x="723" 
d="M692 206q0 -48 -12 -84q-41 -122 -314 -122h-334l84 64v276q-60 -7 -103 -28q23 53 103 68v259l-84 63h641q-71 -77 -109 -167q-28 76 -80 102q-42 20 -130 20q-64 0 -116 -9v-250q116 14 175 14q139 0 209 -57t70 -149zM564 206q0 76 -45.5 116t-123.5 40q-97 0 -157 -8
v-299q44 -10 95 -10q231 0 231 161z" />
    <glyph glyph-name="afii10019" unicode="&#x412;" horiz-adv-x="743" 
d="M708 196q0 -46 -14 -80q-47 -116 -303 -116h-359l84 64v282q-63 0 -103 -14l46 64q23 -7 57 -7v202l-68 41q145 89 323 89q119 0 196 -37q102 -49 102 -155q0 -67 -56 -109q-46 -34 -119 -46v-1q106 -11 160 -62t54 -115zM537 531q0 142 -164 142q-71 0 -135 -37v-247h71
q228 0 228 142zM575 196q0 91 -77 126q-52 24 -156 24h-104v-297q10 0 43 -2q27 -2 43 -2q54 0 98 7q75 12 110 39q43 35 43 105z" />
    <glyph glyph-name="afii10020" unicode="&#x413;" horiz-adv-x="658" 
d="M641 702q-61 -52 -109 -167q-28 66 -72.5 94t-117.5 28q-72 0 -104 -12v-577l104 -68h-310l84 64v575l-84 63h609z" />
    <glyph glyph-name="afii10021" unicode="&#x414;" horiz-adv-x="698" 
d="M705 46q-69 -67 -82 -167q-18 40 -33 63q-27 39 -84 51q-32 7 -103 7h-116q-73 0 -108 -7q-60 -13 -90 -52q-18 -23 -34 -62q-15 101 -83 167h25q81 0 116 51q29 42 29 127v402l-108 76h623l-86 -63v-575q46 -18 134 -18zM450 65v580q-51 11 -118 11t-142 -17v-423
q0 -115 -25 -153q29 -17 131 -17q118 0 154 19z" />
    <glyph glyph-name="afii10022" unicode="&#x415;" horiz-adv-x="689" 
d="M689 0h-657l84 63v291q-78 0 -126 -39q24 85 126 85v239l-84 63h631q-71 -77 -109 -167q-28 75 -80 101q-42 21 -130 21q-44 0 -106 -4v-253h156l77 85v-215l-77 84h-156v-305q56 -4 80 -4q112 0 153 21q45 23 101 114q16 -62 42 -101q21 -32 75 -79z" />
    <glyph glyph-name="afii10024" unicode="&#x416;" horiz-adv-x="1098" 
d="M1110 0q-50 0 -121 -20q-75 -22 -112 -49q0 135 -40 238q-22 54 -113 213l-116 -112v-206l83 -64h-284l83 64v206l-116 112q-91 -159 -113 -213q-40 -103 -40 -238q-37 27 -112 49q-71 20 -121 20q110 82 188 201q27 41 136 242l-130 126q-97 89 -145 113q-17 9 -41 18v2
h303v-2q-75 -24 -75 -68q0 -34 40 -72l226 -217v296l-83 63h284l-83 -63v-296l226 217q40 38 40 72q0 44 -75 68v2h303v-2q-18 -7 -40 -18q-48 -24 -145 -113q-9 -8 -131 -126q109 -201 136 -242q78 -119 188 -201z" />
    <glyph glyph-name="afii10025" unicode="&#x417;" horiz-adv-x="652" 
d="M613 197q0 -117 -96 -171q-76 -43 -204 -43q-110 0 -173 32q-73 36 -119 127q73 35 133 95q-8 -37 -8 -66q0 -70 49 -109q45 -37 116 -37q83 0 129 44t46 126q0 74 -46.5 119t-120.5 45q-30 0 -72 -7l19 61q22 -8 48 -8q67 0 106.5 39t39.5 106q0 62 -46 96
q-41 30 -106 30q-72 0 -124 -59q-46 -52 -60 -128q-30 117 -83 213q41 -26 81 -26q19 0 82 22q60 21 118 21q100 0 169 -33q90 -43 90 -133q0 -81 -45 -117t-123 -52v-2q200 -34 200 -185z" />
    <glyph glyph-name="afii10026" unicode="&#x418;" horiz-adv-x="761" 
d="M730 0h-293l86 64v458l-285 -415v-43l85 -64h-292l85 64v575l-85 63h292l-85 -63v-458l285 415v43l-86 63h293l-86 -63v-575z" />
    <glyph glyph-name="afii10027" unicode="&#x419;" horiz-adv-x="761" 
d="M536 832q-13 -50 -59 -79q-41 -26 -96 -26t-97 26q-46 28 -59 79q32 12 93 41q-3 -19 -3 -30q0 -84 66 -84q65 0 65 84q0 10 -2 30q26 -18 92 -41zM730 0h-293l86 64v458l-285 -415v-43l85 -64h-292l85 64v575l-85 63h292l-85 -63v-458l285 415v43l-86 63h293l-86 -63
v-575z" />
    <glyph glyph-name="afii10028" unicode="&#x41a;" horiz-adv-x="750" 
d="M759 0q-51 0 -126 -20q-78 -22 -116 -49q0 135 -43 239q-24 59 -117 212l-121 -112v-206l87 -64h-292l84 64v575l-84 63h292l-87 -63v-296l236 217q42 39 42 72q0 43 -79 68v2h316v-2q-22 -8 -42 -18q-52 -25 -151 -113l-136 -126q114 -202 142 -243q84 -121 195 -200z
" />
    <glyph glyph-name="afii10029" unicode="&#x41b;" horiz-adv-x="707" 
d="M669 0h-292l86 64v581q-51 11 -90 11q-74 0 -122 -17v-474q0 -83 -17 -120q-25 -55 -97 -55q-130 0 -147 115q43 13 107 52q-12 -40 -12 -52q0 -75 52 -75q65 0 65 142v454l-107 76h574l-85 -63v-575z" />
    <glyph glyph-name="afii10030" unicode="&#x41c;" horiz-adv-x="905" 
d="M874 0h-292l85 63v500l-226 -563h-43l-234 570v-366q0 -88 21 -130q27 -56 103 -74h-298q76 18 103 74q21 42 21 130v435l-85 63h331l-86 -63l186 -467l188 467l-86 63h312l-86 -63v-576z" />
    <glyph glyph-name="afii10031" unicode="&#x41d;" horiz-adv-x="745" 
d="M713 0h-293l86 64v274q-58 -15 -116 -15q-85 0 -152 20v-279l85 -64h-292l85 64v283q-71 0 -112 -47q11 38 41 70q35 35 71 35v234l-85 63h292l-85 -63v-241q96 -31 167 -31q35 0 101 15v257l-86 63h293l-86 -63v-575z" />
    <glyph glyph-name="afii10032" unicode="&#x41e;" horiz-adv-x="709" 
d="M672 346q0 -161 -77 -257q-83 -106 -240 -106q-161 0 -243 107q-74 96 -74 262q0 165 74 261q82 108 242 108q161 0 244 -110q74 -98 74 -265zM544 346q0 140 -31 215q-46 113 -164 113q-116 0 -158 -111q-26 -69 -26 -211q0 -138 31 -212q46 -111 164 -111
q184 0 184 317z" />
    <glyph glyph-name="afii10033" unicode="&#x41f;" horiz-adv-x="744" 
d="M713 0h-293l86 64v581q-51 11 -133 11q-76 0 -135 -11v-581l85 -64h-292l85 64v575l-85 63h682l-86 -63v-575z" />
    <glyph glyph-name="afii10034" unicode="&#x420;" horiz-adv-x="658" 
d="M641 508q0 -189 -300 -189q-20 0 -52 2q-42 2 -51 2v-252l105 -71h-311l84 64v269h-6q-63 0 -121 -22q35 69 127 69v259l-84 63h281q139 0 215 -30q113 -46 113 -164zM515 508q0 149 -191 149q-38 0 -86 -10v-273q28 -6 80 -6q83 0 133 28q64 36 64 112z" />
    <glyph glyph-name="afii10035" unicode="&#x421;" horiz-adv-x="708" 
d="M695 124q-67 -75 -129 -107q-70 -36 -164 -36q-179 0 -273 104q-90 99 -90 280q0 162 90.5 259t250.5 97q49 0 117.5 -23.5t91.5 -23.5q43 0 86 28q-62 -109 -83 -214q-42 186 -221 186q-112 0 -163 -105q-37 -78 -37 -204q0 -140 47 -226q59 -111 187 -111q99 0 140 57
q34 45 40 151q27 -31 53 -65t57 -47z" />
    <glyph glyph-name="afii10036" unicode="&#x422;" horiz-adv-x="707" 
d="M725 702q-63 -90 -91 -169q-23 67 -52 93q-34 31 -101 31q-20 0 -66 -4v-589l85 -64h-292l85 64v589q-46 4 -66 4q-67 0 -101 -31q-29 -26 -52 -93q-27 78 -90 169h741z" />
    <glyph glyph-name="afii10037" unicode="&#x423;" horiz-adv-x="703" 
d="M821 787q-36 -26 -60 -46q-46 -39 -90 -111q-22 -35 -70 -126l-188 -360q-23 -44 -66 -133q-22 -52 -45 -131q-3 2 -49 44q-27 25 -55 36q72 40 142 148l-274 543l-87 51h294l-86 -51l216 -429l128 245q59 113 59 157t-48 78q64 0 143 29q42 16 134 60z" />
    <glyph glyph-name="afii10038" unicode="&#x424;" horiz-adv-x="867" 
d="M853 373q0 -109 -85 -165q-72 -47 -187 -47q-56 0 -87 9v-106l83 -64h-287l84 64v106q-32 -9 -87 -9q-116 0 -188 47q-86 55 -86 165q0 139 149 184q44 13 105 15q-4 0 107 0v67l-84 73h287l-83 -73v-67h85q116 0 186 -41q88 -50 88 -158zM731 373q0 71 -41.5 113
t-112.5 42q-33 0 -83 -9v-301q46 -12 87 -12q150 0 150 167zM374 218v301q-50 9 -84 9q-71 0 -112.5 -42t-41.5 -113q0 -167 151 -167q41 0 87 12z" />
    <glyph glyph-name="afii10039" unicode="&#x425;" horiz-adv-x="704" 
d="M719 702q-86 -62 -151 -144l-156 -197l138 -198q20 -31 69 -99q39 -30 85 -64h-305l86 64l-160 230l-184 -230l85 -64h-242q90 57 158 142l155 194l-141 202q-20 32 -71 101l-85 63h303l-86 -63l165 -236l189 236l-85 63h233z" />
    <glyph glyph-name="afii10040" unicode="&#x426;" horiz-adv-x="744" 
d="M754 46q-69 -69 -82 -167q-17 40 -33 63q-27 40 -89 52q-31 6 -107 6h-412l85 63v575l-85 64h292l-85 -64v-581q59 -11 135 -11q82 0 133 11v581l-86 64h293l-86 -64v-592h127z" />
    <glyph glyph-name="afii10041" unicode="&#x427;" horiz-adv-x="709" 
d="M721 306q-65 27 -128 27v-269l84 -64h-311l105 71v252q-93 -20 -171 -20q-117 0 -168 41q-44 36 -54 117q-3 28 -3 178l-75 63h271l-75 -63v-131q0 -78 28 -115q31 -41 107 -41t140 22v265l-84 63h290l-84 -63v-259q88 0 128 -74z" />
    <glyph glyph-name="afii10042" unicode="&#x428;" horiz-adv-x="888" 
d="M857 0h-826l85 63v575l-85 64h292l-85 -64v-581q59 -11 135 -11h49l-20 98q-11 58 -11 100q0 41 21 112.5t21 104.5q0 94 -59 149q131 -31 131 -144q0 -36 -31 -112t-31 -115q0 -124 47 -193h27q82 0 133 11v581l-86 64h293l-86 -64v-575z" />
    <glyph glyph-name="afii10043" unicode="&#x429;" horiz-adv-x="909" 
d="M899 46q-68 -66 -83 -167q-18 40 -33 63q-27 40 -89 52q-31 6 -107 6h-556l85 63v575l-85 64h292l-85 -64v-581q59 -11 135 -11h49l-20 98q-11 58 -11 100q0 41 21 112.5t21 104.5q0 94 -59 149q131 -31 131 -144q0 -36 -31 -112t-31 -115q0 -124 47 -193h27q82 0 133 11
v581l-86 64h293l-86 -64v-592h128z" />
    <glyph glyph-name="afii10044" unicode="&#x42a;" horiz-adv-x="872" 
d="M849 206q0 -48 -12 -84q-41 -122 -321 -122h-327l84 64v276q-60 -7 -103 -28q23 53 103 68v268q-25 9 -54 9q-61 0 -94 -33q-26 -27 -44 -91q-25 78 -81 169h500l-105 -71v-233q116 14 175 14q141 0 210 -57t69 -149zM721 206q0 76 -45.5 116t-123.5 40q-97 0 -157 -8
v-299q46 -10 95 -10q231 0 231 161z" />
    <glyph glyph-name="afii10045" unicode="&#x42b;" horiz-adv-x="963" 
d="M933 0h-293l85 64v575l-85 63h293l-88 -63v-575zM653 206q0 -44 -12 -81q-40 -125 -294 -125h-315l84 64v276q-68 -10 -103 -28q13 50 103 68v258l-84 64h300l-94 -71v-233q101 14 157 14q126 0 192 -59t66 -147zM532 206q0 73 -39.5 114.5t-112.5 41.5q-90 0 -142 -8
v-299q42 -10 86 -10q208 0 208 161z" />
    <glyph glyph-name="afii10046" unicode="&#x42c;" horiz-adv-x="715" 
d="M692 206q0 -48 -12 -84q-41 -122 -321 -122h-327l84 64v276q-60 -7 -103 -28q23 53 103 68v258l-84 64h311l-105 -71v-233q116 14 175 14q139 0 209 -57t70 -149zM564 206q0 76 -45.5 116t-123.5 40q-97 0 -157 -8v-299q44 -10 95 -10q231 0 231 161z" />
    <glyph glyph-name="afii10047" unicode="&#x42d;" horiz-adv-x="707" 
d="M669 365q0 -181 -90 -280q-94 -104 -273 -104q-110 0 -174 33q-70 36 -119 128q74 32 134 98q-8 -45 -8 -66q0 -70 49 -109q45 -37 116 -37q124 0 184 104q49 84 49 218q-71 -25 -101 -25q-23 0 -62 16t-58 16q-60 0 -90 -47q6 35 31 67q29 37 62 37q18 0 59 -21t62 -21
q60 0 97 33q-13 269 -198 269q-181 0 -223 -186q-19 100 -83 214q44 -28 87 -28q22 0 93 24q68 23 116 23q160 0 251 -99q89 -95 89 -257z" />
    <glyph glyph-name="afii10048" unicode="&#x42e;" horiz-adv-x="1021" 
d="M984 348q0 -161 -77 -257q-83 -106 -240 -106q-151 0 -233 95q-77 89 -83 243q-66 1 -113 15v-274l85 -64h-292l85 64v274q-75 0 -110 -49l-2 1q32 84 112 99v250l-85 63h292l-85 -63v-249q50 -12 113 -16q0 150 82 244q86 99 233 99q158 0 242 -108q76 -98 76 -261z
M856 348q0 139 -31 214q-46 112 -164 112q-116 0 -158 -110q-26 -69 -26 -210q0 -138 31 -212q46 -111 164 -111q184 0 184 317z" />
    <glyph glyph-name="afii10049" unicode="&#x42f;" horiz-adv-x="699" 
d="M682 276q-28 14 -99 20v-232l84 -64h-292l86 64v243q-84 7 -139 22q-58 -123 -73 -192q-17 -72 -17 -206q-42 30 -118 50q-70 19 -127 19q97 63 158 153q50 71 98 197q-82 19 -136 60q-68 51 -68 125q0 93 105 145q84 41 187 41q188 0 336 -89l-84 -41v-249q90 -4 99 -66
zM461 349v287q-50 38 -116 38q-68 0 -118 -36q-56 -39 -56 -105q0 -89 105 -141q86 -43 185 -43z" />
    <glyph glyph-name="afii10065" unicode="&#x430;" horiz-adv-x="727" 
d="M741 0h-276l74 64l-75 198q-29 -31 -57 -61q-34 -37 -51 -66q-69 114 -123 166q-52 -140 -52 -194q0 -49 64 -107h-274q91 46 144 138q33 58 73 189q-33 24 -83 31q34 51 45 87q21 -20 62 -60l95 254l-58 63h252l-58 -63l92 -247q50 32 81 67q15 -63 43 -104q-10 1 -32 1
q-38 0 -70 -16l102 -276zM445 318l-103 273l-91 -238q45 -49 105 -134q42 56 89 99z" />
    <glyph glyph-name="afii10066" unicode="&#x431;" horiz-adv-x="723" 
d="M692 206q0 -48 -12 -84q-41 -122 -314 -122h-334l84 64v276q-60 -7 -103 -28q23 53 103 68v259l-84 63h641q-71 -77 -109 -167q-28 76 -80 102q-42 20 -130 20q-64 0 -116 -9v-250q116 14 175 14q139 0 209 -57t70 -149zM564 206q0 76 -45.5 116t-123.5 40q-97 0 -157 -8
v-299q44 -10 95 -10q231 0 231 161z" />
    <glyph glyph-name="afii10067" unicode="&#x432;" horiz-adv-x="743" 
d="M708 196q0 -46 -14 -80q-47 -116 -303 -116h-359l84 64v282q-63 0 -103 -14l46 64q23 -7 57 -7v202l-68 41q145 89 323 89q119 0 196 -37q102 -49 102 -155q0 -67 -56 -109q-46 -34 -119 -46v-1q106 -11 160 -62t54 -115zM537 531q0 142 -164 142q-71 0 -135 -37v-247h71
q228 0 228 142zM575 196q0 91 -77 126q-52 24 -156 24h-104v-297q10 0 43 -2q27 -2 43 -2q54 0 98 7q75 12 110 39q43 35 43 105z" />
    <glyph glyph-name="afii10068" unicode="&#x433;" horiz-adv-x="658" 
d="M641 702q-61 -52 -109 -167q-28 66 -72.5 94t-117.5 28q-72 0 -104 -12v-577l104 -68h-310l84 64v575l-84 63h609z" />
    <glyph glyph-name="afii10069" unicode="&#x434;" horiz-adv-x="698" 
d="M705 46q-69 -67 -82 -167q-18 40 -33 63q-27 39 -84 51q-32 7 -103 7h-116q-73 0 -108 -7q-60 -13 -90 -52q-18 -23 -34 -62q-15 101 -83 167h25q81 0 116 51q29 42 29 127v402l-108 76h623l-86 -63v-575q46 -18 134 -18zM450 65v580q-51 11 -118 11t-142 -17v-423
q0 -115 -25 -153q29 -17 131 -17q118 0 154 19z" />
    <glyph glyph-name="afii10070" unicode="&#x435;" horiz-adv-x="689" 
d="M689 0h-657l84 63v291q-78 0 -126 -39q24 85 126 85v239l-84 63h631q-71 -77 -109 -167q-28 75 -80 101q-42 21 -130 21q-44 0 -106 -4v-253h156l77 85v-215l-77 84h-156v-305q56 -4 80 -4q112 0 153 21q45 23 101 114q16 -62 42 -101q21 -32 75 -79z" />
    <glyph glyph-name="afii10072" unicode="&#x436;" horiz-adv-x="1098" 
d="M1110 0q-50 0 -121 -20q-75 -22 -112 -49q0 135 -40 238q-22 54 -113 213l-116 -112v-206l83 -64h-284l83 64v206l-116 112q-91 -159 -113 -213q-40 -103 -40 -238q-37 27 -112 49q-71 20 -121 20q110 82 188 201q27 41 136 242l-130 126q-97 89 -145 113q-17 9 -41 18v2
h303v-2q-75 -24 -75 -68q0 -34 40 -72l226 -217v296l-83 63h284l-83 -63v-296l226 217q40 38 40 72q0 44 -75 68v2h303v-2q-18 -7 -40 -18q-48 -24 -145 -113q-9 -8 -131 -126q109 -201 136 -242q78 -119 188 -201z" />
    <glyph glyph-name="afii10073" unicode="&#x437;" horiz-adv-x="652" 
d="M613 197q0 -117 -96 -171q-76 -43 -204 -43q-110 0 -173 32q-73 36 -119 127q73 35 133 95q-8 -37 -8 -66q0 -70 49 -109q45 -37 116 -37q83 0 129 44t46 126q0 74 -46.5 119t-120.5 45q-30 0 -72 -7l19 61q22 -8 48 -8q67 0 106.5 39t39.5 106q0 62 -46 96
q-41 30 -106 30q-72 0 -124 -59q-46 -52 -60 -128q-30 117 -83 213q41 -26 81 -26q19 0 82 22q60 21 118 21q100 0 169 -33q90 -43 90 -133q0 -81 -45 -117t-123 -52v-2q200 -34 200 -185z" />
    <glyph glyph-name="afii10074" unicode="&#x438;" horiz-adv-x="761" 
d="M730 0h-293l86 64v458l-285 -415v-43l85 -64h-292l85 64v575l-85 63h292l-85 -63v-458l285 415v43l-86 63h293l-86 -63v-575z" />
    <glyph glyph-name="afii10075" unicode="&#x439;" horiz-adv-x="761" 
d="M536 832q-13 -50 -59 -79q-41 -26 -96 -26t-97 26q-46 28 -59 79q32 12 93 41q-3 -19 -3 -30q0 -84 66 -84q65 0 65 84q0 10 -2 30q26 -18 92 -41zM730 0h-293l86 64v458l-285 -415v-43l85 -64h-292l85 64v575l-85 63h292l-85 -63v-458l285 415v43l-86 63h293l-86 -63
v-575z" />
    <glyph glyph-name="afii10076" unicode="&#x43a;" horiz-adv-x="750" 
d="M759 0q-51 0 -126 -20q-78 -22 -116 -49q0 135 -43 239q-24 59 -117 212l-121 -112v-206l87 -64h-292l84 64v575l-84 63h292l-87 -63v-296l236 217q42 39 42 72q0 43 -79 68v2h316v-2q-22 -8 -42 -18q-52 -25 -151 -113l-136 -126q114 -202 142 -243q84 -121 195 -200z
" />
    <glyph glyph-name="afii10077" unicode="&#x43b;" horiz-adv-x="707" 
d="M669 0h-292l86 64v581q-51 11 -90 11q-74 0 -122 -17v-474q0 -83 -17 -120q-25 -55 -97 -55q-130 0 -147 115q43 13 107 52q-12 -40 -12 -52q0 -75 52 -75q65 0 65 142v454l-107 76h574l-85 -63v-575z" />
    <glyph glyph-name="afii10078" unicode="&#x43c;" horiz-adv-x="905" 
d="M874 0h-292l85 63v500l-226 -563h-43l-234 570v-366q0 -88 21 -130q27 -56 103 -74h-298q76 18 103 74q21 42 21 130v435l-85 63h331l-86 -63l186 -467l188 467l-86 63h312l-86 -63v-576z" />
    <glyph glyph-name="afii10079" unicode="&#x43d;" horiz-adv-x="745" 
d="M713 0h-293l86 64v274q-58 -15 -116 -15q-85 0 -152 20v-279l85 -64h-292l85 64v283q-71 0 -112 -47q11 38 41 70q35 35 71 35v234l-85 63h292l-85 -63v-241q96 -31 167 -31q35 0 101 15v257l-86 63h293l-86 -63v-575z" />
    <glyph glyph-name="afii10080" unicode="&#x43e;" horiz-adv-x="709" 
d="M672 346q0 -161 -77 -257q-83 -106 -240 -106q-161 0 -243 107q-74 96 -74 262q0 165 74 261q82 108 242 108q161 0 244 -110q74 -98 74 -265zM544 346q0 140 -31 215q-46 113 -164 113q-116 0 -158 -111q-26 -69 -26 -211q0 -138 31 -212q46 -111 164 -111
q184 0 184 317z" />
    <glyph glyph-name="afii10081" unicode="&#x43f;" horiz-adv-x="744" 
d="M713 0h-293l86 64v581q-51 11 -133 11q-76 0 -135 -11v-581l85 -64h-292l85 64v575l-85 63h682l-86 -63v-575z" />
    <glyph glyph-name="afii10082" unicode="&#x440;" horiz-adv-x="658" 
d="M641 508q0 -189 -300 -189q-20 0 -52 2q-42 2 -51 2v-252l105 -71h-311l84 64v269h-6q-63 0 -121 -22q35 69 127 69v259l-84 63h281q139 0 215 -30q113 -46 113 -164zM515 508q0 149 -191 149q-38 0 -86 -10v-273q28 -6 80 -6q83 0 133 28q64 36 64 112z" />
    <glyph glyph-name="afii10083" unicode="&#x441;" horiz-adv-x="708" 
d="M695 124q-67 -75 -129 -107q-70 -36 -164 -36q-179 0 -273 104q-90 99 -90 280q0 162 90.5 259t250.5 97q49 0 117.5 -23.5t91.5 -23.5q43 0 86 28q-62 -109 -83 -214q-42 186 -221 186q-112 0 -163 -105q-37 -78 -37 -204q0 -140 47 -226q59 -111 187 -111q99 0 140 57
q34 45 40 151q27 -31 53 -65t57 -47z" />
    <glyph glyph-name="afii10084" unicode="&#x442;" horiz-adv-x="707" 
d="M725 702q-63 -90 -91 -169q-23 67 -52 93q-34 31 -101 31q-20 0 -66 -4v-589l85 -64h-292l85 64v589q-46 4 -66 4q-67 0 -101 -31q-29 -26 -52 -93q-27 78 -90 169h741z" />
    <glyph glyph-name="afii10085" unicode="&#x443;" horiz-adv-x="703" 
d="M821 787q-36 -26 -60 -46q-46 -39 -90 -111q-22 -35 -70 -126l-188 -360q-23 -44 -66 -133q-22 -52 -45 -131q-3 2 -49 44q-27 25 -55 36q72 40 142 148l-274 543l-87 51h294l-86 -51l216 -429l128 245q59 113 59 157t-48 78q64 0 143 29q42 16 134 60z" />
    <glyph glyph-name="afii10086" unicode="&#x444;" horiz-adv-x="867" 
d="M853 373q0 -109 -85 -165q-72 -47 -187 -47q-56 0 -87 9v-106l83 -64h-287l84 64v106q-32 -9 -87 -9q-116 0 -188 47q-86 55 -86 165q0 139 149 184q44 13 105 15q-4 0 107 0v67l-84 73h287l-83 -73v-67h85q116 0 186 -41q88 -50 88 -158zM731 373q0 71 -41.5 113
t-112.5 42q-33 0 -83 -9v-301q46 -12 87 -12q150 0 150 167zM374 218v301q-50 9 -84 9q-71 0 -112.5 -42t-41.5 -113q0 -167 151 -167q41 0 87 12z" />
    <glyph glyph-name="afii10087" unicode="&#x445;" horiz-adv-x="704" 
d="M719 702q-86 -62 -151 -144l-156 -197l138 -198q20 -31 69 -99q39 -30 85 -64h-305l86 64l-160 230l-184 -230l85 -64h-242q90 57 158 142l155 194l-141 202q-20 32 -71 101l-85 63h303l-86 -63l165 -236l189 236l-85 63h233z" />
    <glyph glyph-name="afii10088" unicode="&#x446;" horiz-adv-x="744" 
d="M754 46q-69 -69 -82 -167q-17 40 -33 63q-27 40 -89 52q-31 6 -107 6h-412l85 63v575l-85 64h292l-85 -64v-581q59 -11 135 -11q82 0 133 11v581l-86 64h293l-86 -64v-592h127z" />
    <glyph glyph-name="afii10089" unicode="&#x447;" horiz-adv-x="709" 
d="M721 306q-65 27 -128 27v-269l84 -64h-311l105 71v252q-93 -20 -171 -20q-117 0 -168 41q-44 36 -54 117q-3 28 -3 178l-75 63h271l-75 -63v-131q0 -78 28 -115q31 -41 107 -41t140 22v265l-84 63h290l-84 -63v-259q88 0 128 -74z" />
    <glyph glyph-name="afii10090" unicode="&#x448;" horiz-adv-x="888" 
d="M857 0h-826l85 63v575l-85 64h292l-85 -64v-581q59 -11 135 -11h49l-20 98q-11 58 -11 100q0 41 21 112.5t21 104.5q0 94 -59 149q131 -31 131 -144q0 -36 -31 -112t-31 -115q0 -124 47 -193h27q82 0 133 11v581l-86 64h293l-86 -64v-575z" />
    <glyph glyph-name="afii10091" unicode="&#x449;" horiz-adv-x="909" 
d="M899 46q-68 -66 -83 -167q-18 40 -33 63q-27 40 -89 52q-31 6 -107 6h-556l85 63v575l-85 64h292l-85 -64v-581q59 -11 135 -11h49l-20 98q-11 58 -11 100q0 41 21 112.5t21 104.5q0 94 -59 149q131 -31 131 -144q0 -36 -31 -112t-31 -115q0 -124 47 -193h27q82 0 133 11
v581l-86 64h293l-86 -64v-592h128z" />
    <glyph glyph-name="afii10092" unicode="&#x44a;" horiz-adv-x="872" 
d="M849 206q0 -48 -12 -84q-41 -122 -321 -122h-327l84 64v276q-60 -7 -103 -28q23 53 103 68v268q-25 9 -54 9q-61 0 -94 -33q-26 -27 -44 -91q-25 78 -81 169h500l-105 -71v-233q116 14 175 14q141 0 210 -57t69 -149zM721 206q0 76 -45.5 116t-123.5 40q-97 0 -157 -8
v-299q46 -10 95 -10q231 0 231 161z" />
    <glyph glyph-name="afii10093" unicode="&#x44b;" horiz-adv-x="963" 
d="M933 0h-293l85 64v575l-85 63h293l-88 -63v-575zM653 206q0 -44 -12 -81q-40 -125 -294 -125h-315l84 64v276q-68 -10 -103 -28q13 50 103 68v258l-84 64h300l-94 -71v-233q101 14 157 14q126 0 192 -59t66 -147zM532 206q0 73 -39.5 114.5t-112.5 41.5q-90 0 -142 -8
v-299q42 -10 86 -10q208 0 208 161z" />
    <glyph glyph-name="afii10094" unicode="&#x44c;" horiz-adv-x="715" 
d="M692 206q0 -48 -12 -84q-41 -122 -321 -122h-327l84 64v276q-60 -7 -103 -28q23 53 103 68v258l-84 64h311l-105 -71v-233q116 14 175 14q139 0 209 -57t70 -149zM564 206q0 76 -45.5 116t-123.5 40q-97 0 -157 -8v-299q44 -10 95 -10q231 0 231 161z" />
    <glyph glyph-name="afii10095" unicode="&#x44d;" horiz-adv-x="707" 
d="M669 365q0 -181 -90 -280q-94 -104 -273 -104q-110 0 -174 33q-70 36 -119 128q74 32 134 98q-8 -45 -8 -66q0 -70 49 -109q45 -37 116 -37q124 0 184 104q49 84 49 218q-71 -25 -101 -25q-23 0 -62 16t-58 16q-60 0 -90 -47q6 35 31 67q29 37 62 37q18 0 59 -21t62 -21
q60 0 97 33q-13 269 -198 269q-181 0 -223 -186q-19 100 -83 214q44 -28 87 -28q22 0 93 24q68 23 116 23q160 0 251 -99q89 -95 89 -257z" />
    <glyph glyph-name="afii10096" unicode="&#x44e;" horiz-adv-x="1021" 
d="M984 348q0 -161 -77 -257q-83 -106 -240 -106q-151 0 -233 95q-77 89 -83 243q-66 1 -113 15v-274l85 -64h-292l85 64v274q-75 0 -110 -49l-2 1q32 84 112 99v250l-85 63h292l-85 -63v-249q50 -12 113 -16q0 150 82 244q86 99 233 99q158 0 242 -108q76 -98 76 -261z
M856 348q0 139 -31 214q-46 112 -164 112q-116 0 -158 -110q-26 -69 -26 -210q0 -138 31 -212q46 -111 164 -111q184 0 184 317z" />
    <glyph glyph-name="afii10097" unicode="&#x44f;" horiz-adv-x="699" 
d="M682 276q-28 14 -99 20v-232l84 -64h-292l86 64v243q-84 7 -139 22q-58 -123 -73 -192q-17 -72 -17 -206q-42 30 -118 50q-70 19 -127 19q97 63 158 153q50 71 98 197q-82 19 -136 60q-68 51 -68 125q0 93 105 145q84 41 187 41q188 0 336 -89l-84 -41v-249q90 -4 99 -66
zM461 349v287q-50 38 -116 38q-68 0 -118 -36q-56 -39 -56 -105q0 -89 105 -141q86 -43 185 -43z" />
    <glyph glyph-name="afii10071" unicode="&#x451;" horiz-adv-x="689" 
d="M510 802q0 -23 -17.5 -38t-41.5 -15t-41 15t-17 38t18 37.5t42 14.5q22 0 39.5 -15t17.5 -37zM309 802q0 -23 -18 -38t-41 -15q-24 0 -41.5 15t-17.5 38t18 37.5t42 14.5q23 0 40.5 -15t17.5 -37zM689 0h-657l84 63v291q-78 0 -126 -39q24 85 126 85v239l-84 63h631
q-71 -77 -109 -167q-28 75 -80 101q-42 21 -130 21q-44 0 -106 -4v-253h156l77 85v-215l-77 84h-156v-305q56 -4 80 -4q112 0 153 21q45 23 101 114q16 -62 42 -101q21 -32 75 -79z" />
    <glyph glyph-name="endash" unicode="&#x2013;" horiz-adv-x="551" 
d="M529 319h-484l-24 65h483z" />
    <glyph glyph-name="emdash" unicode="&#x2014;" horiz-adv-x="727" 
d="M705 319h-660l-24 65h660z" />
    <glyph glyph-name="quoteleft" unicode="&#x2018;" horiz-adv-x="241" 
d="M222 712q-61 -47 -61 -117q0 -47 28 -81q-72 -29 -117 -57q-16 38 -16 74q0 139 162 190z" />
    <glyph glyph-name="quoteright" unicode="&#x2019;" horiz-adv-x="241" 
d="M184 644q0 -137 -161 -187l-4 7q33 29 45 52q16 27 16 66q0 46 -29 81q72 26 118 58q15 -41 15 -77z" />
    <glyph glyph-name="quotesinglbase" unicode="&#x201a;" horiz-adv-x="241" 
d="M184 46q0 -138 -161 -188l-4 8q34 31 46 51q15 27 15 67q0 45 -29 80q65 23 118 57q15 -37 15 -75z" />
    <glyph glyph-name="quotedblleft" unicode="&#x201c;" horiz-adv-x="422" 
d="M405 712q-63 -51 -63 -117q0 -48 30 -81q-66 -24 -118 -57q-16 36 -16 74q0 137 161 190zM222 712q-61 -47 -61 -117q0 -47 28 -81q-72 -29 -117 -57q-16 38 -16 74q0 139 162 190z" />
    <glyph glyph-name="quotedblright" unicode="&#x201d;" horiz-adv-x="418" 
d="M362 645q0 -141 -161 -188l-5 7q19 15 35 32q27 29 27 86q0 48 -29 81q43 17 60 25q29 14 57 33q16 -38 16 -76zM184 644q0 -137 -161 -187l-4 7q33 29 45 52q16 27 16 66q0 46 -29 81q72 26 118 58q15 -41 15 -77z" />
    <glyph glyph-name="quotedblbase" unicode="&#x201e;" horiz-adv-x="418" 
d="M362 47q0 -138 -161 -189l-5 8q27 23 34 31q13 16 20.5 40t7.5 47q0 47 -29 80q77 31 117 57q16 -35 16 -74zM184 46q0 -135 -161 -188l-4 8q33 29 45 52q16 27 16 66q0 45 -29 80q65 23 118 57q15 -37 15 -75z" />
    <glyph glyph-name="dagger" unicode="&#x2020;" horiz-adv-x="616" 
d="M579 406l-62 76h-159v-489l77 -63h-256l77 63v489h-157l-64 -76v199l64 -77h157v182l-77 63h256l-77 -63v-182h159l62 77v-199z" />
    <glyph glyph-name="bullet" unicode="&#x2022;" horiz-adv-x="702" 
d="M498 357q0 -61 -42.5 -103.5t-103.5 -42.5t-103.5 42t-42.5 103q0 63 42.5 105t105.5 42q60 0 102 -43t42 -103z" />
    <glyph glyph-name="ellipsis" unicode="&#x2026;" horiz-adv-x="721" 
d="M672 64q0 -30 -20.5 -50.5t-50.5 -20.5q-29 0 -50 21t-21 50q0 30 21 50.5t51 20.5q29 0 49.5 -21t20.5 -50zM432 64q0 -30 -21 -50.5t-51 -20.5q-29 0 -49.5 21t-20.5 50q0 31 20.5 51t51.5 20q29 0 49.5 -21t20.5 -50zM191 64q0 -30 -20.5 -50.5t-50.5 -20.5
q-29 0 -50 21t-21 50q0 30 21 50.5t51 20.5q29 0 49.5 -21t20.5 -50z" />
    <glyph glyph-name="perthousand" unicode="&#x2030;" horiz-adv-x="1216" 
d="M1192 164q0 -79 -45.5 -126.5t-123.5 -47.5q-83 0 -130 50.5t-47 134.5q0 81 44.5 131t124.5 50q82 0 131 -56q46 -53 46 -136zM799 164q0 -78 -46 -126t-123 -48q-83 0 -130 50.5t-47 134.5q0 81 44.5 131t124.5 50q82 0 131 -56q46 -53 46 -136zM651 696l-427 -696h-53
l427 696h53zM370 515q0 -78 -45.5 -125.5t-123.5 -47.5q-83 0 -130 50.5t-47 134.5q0 79 45 129t123 50q84 0 131 -53t47 -138zM1113 172q0 68 -16 100q-23 45 -84 45q-48 0 -67 -34q-22 -40 -22 -109q0 -145 100 -145q89 0 89 143zM718 172q0 67 -15 99q-21 46 -80 46
q-51 0 -70 -34q-22 -39 -22 -109q0 -145 99 -145q88 0 88 143zM290 523q0 69 -14 99q-22 46 -82 46q-51 0 -70 -34q-21 -38 -21 -109q0 -145 99 -145q88 0 88 143z" />
    <glyph glyph-name="guilsinglleft" unicode="&#x2039;" horiz-adv-x="184" 
d="M160 200h-52l-87 151l91 151h48l-60 -151z" />
    <glyph glyph-name="guilsinglright" unicode="&#x203a;" horiz-adv-x="186" 
d="M165 348l-89 -148h-51l59 158l-59 144h51z" />
    <glyph glyph-name="afii61352" unicode="&#x2116;" horiz-adv-x="1030" 
d="M1010 344q0 -76 -42 -124q-45 -50 -120 -50q-78 0 -125 51.5t-47 130.5q0 78 45.5 127t122.5 49q78 0 124 -54q42 -50 42 -130zM1010 61h-334v43h334v-43zM725 702q-125 -31 -125 -209v-493h-99l-335 587v-384q0 -84 24.5 -135.5t99.5 -67.5h-298q73 16 102 74
q22 45 22 129v436l-85 63h315l-86 -63l291 -505v359q0 85 -22 131q-29 60 -103 78h299zM935 347q0 146 -93 146t-93 -150q0 -140 93 -140t93 144z" />
    <glyph glyph-name="trademark" unicode="&#x2122;" horiz-adv-x="944" 
d="M929 281h-186l56 42v275l-124 -316h-29l-115 319v-278l56 -42h-146l55 42v337l-55 42h203l-55 -41l95 -265l102 265l-54 41h197l-55 -42v-337zM432 702q-33 -44 -57 -113q-16 44 -29 58q-20 22 -58 22q-9 0 -35 -2v-344l56 -42h-187l56 42v344q-22 2 -34 2q-38 0 -58 -22
q-14 -16 -28 -58l-4 10q-11 37 -54 103h432z" />
    <glyph glyph-name="periodcentered" unicode="&#xb7;" horiz-adv-x="241" 
d="M191 352q0 -30 -20.5 -51t-50.5 -21q-29 0 -50 21.5t-21 50.5q0 30 21 50t51 20q29 0 49.5 -20.5t20.5 -49.5z" />
    <glyph glyph-name="periodcentered" unicode="&#x2219;" horiz-adv-x="241" 
d="M191 352q0 -30 -20.5 -51t-50.5 -21q-29 0 -50 21.5t-21 50.5q0 30 21 50t51 20q29 0 49.5 -20.5t20.5 -49.5z" />
    </font>
</defs>
</svg>
