<?xml version="1.0" standalone="no"?>
<!DOCTYPE svg PUBLIC "-//W3C//DTD SVG 1.1//EN" "http://www.w3.org/Graphics/SVG/1.1/DTD/svg11.dtd" >
<svg xmlns="http://www.w3.org/2000/svg" xmlns:xlink="http://www.w3.org/1999/xlink" version="1.1">
<metadata>
Created by FontForge 20170924 at Wed Aug 27 16:35:25 1997
 By www-data
a_AlternaShadow *Arsenal Company (c) 1996*  FAX: (095)924-3775; e-Mail: arsenal@itco.msk.su; Phone: (095)924-5811 (Design and Featuring W.Chufarofsky)
</metadata>
<defs>
<font id="AAlternaSh" horiz-adv-x="494" >
  <font-face 
    font-family="a_AlternaSh"
    font-weight="400"
    font-stretch="normal"
    units-per-em="1000"
    panose-1="2 11 4 6 2 2 7 5 2 4"
    ascent="800"
    descent="-200"
    x-height="612"
    cap-height="702"
    bbox="-78 -232 1083 854"
    underline-thickness="63"
    underline-position="-241"
    unicode-range="U+0020-2122"
  />
<missing-glyph horiz-adv-x="500" 
d="M63 0v232h375v-232h-375zM125 63h250v107h-250v-107z" />
    <glyph glyph-name=".notdef" horiz-adv-x="500" 
d="M63 0v232h375v-232h-375zM125 63h250v107h-250v-107z" />
    <glyph glyph-name=".null" horiz-adv-x="0" 
 />
    <glyph glyph-name="nonmarkingreturn" horiz-adv-x="256" 
 />
    <glyph glyph-name="space" unicode=" " horiz-adv-x="256" 
 />
    <glyph glyph-name="exclam" unicode="!" horiz-adv-x="267" 
d="M244 663l-29 -515h-11v-29h27v-158h-142v39h-27v158h44l-2 29h-24l-30 515h167l-2 -39h29zM198 684h-129l28 -479h74zM186 18v122h-106v-122h106z" />
    <glyph glyph-name="quotedbl" unicode="&#x22;" horiz-adv-x="336" 
d="M321 402h-82v39h-27v280h82v-39h27v-280zM151 402h-82v39h-27v280h82v-39h27v-280zM276 459v244h-46v-244h46zM106 459v244h-46v-244h46z" />
    <glyph glyph-name="numbersign" unicode="#" 
d="M494 480l-24 -81h-94l-28 -98h97l-23 -81h-98l-50 -169h-74l50 169h-82l-50 -169h-74l49 169h-97l26 81h96l28 98h-101l25 81h99l50 168h74l-48 -168h81l50 168h73l-49 -168h94zM303 399h-84l-29 -99h84z" />
    <glyph glyph-name="dollar" unicode="$" 
d="M477 154q0 -94 -43.5 -140t-137.5 -55v-64h-48v39h-27v30q-94 16 -127 84q-37 36 -45 107q-2 16 -2 120h144v-39h27q0 -92 3 -105q12 -6 31 -6q56 0 56 51q0 23 -7.5 36.5t-89.5 71.5q-68 48 -101 96q-5 8 -15 23q-27 39 -34 53q-14 30 -14 62q0 152 174 170v66h48v-39
h27v-31q101 -16 131 -84q32 -31 40 -84q4 -24 4 -95h-145v39h-27q0 46 -2 57q-10 4 -26 4q-55 0 -55 -34q27 -28 106 -88q38 -29 48 -37q27 -22 43 -42q7 -11 21 -32l18 -24q25 -38 25 -110zM432 193q0 73 -30 113q-17 23 -91 79q-140 107 -140 141q0 24 26 39q21 13 47 13
q73 0 73 -81v-19h109v24q0 91 -42 128q-37 32 -133 42v64h-12v-64q-174 -18 -174 -154q0 -89 129 -180q64 -45 86 -67q46 -47 46 -95q0 -30 -22 -49.5t-52 -19.5q-58 0 -73 52q-6 21 -6 98h-108v-64q0 -93 41 -132q38 -36 133 -46v-63h12v62q96 9 136 46q45 41 45 133z" />
    <glyph glyph-name="percent" unicode="%" 
d="M235 429q0 -95 -93 -95q-69 0 -85 54q-32 23 -32 80v135q0 93 90 93q72 0 88 -55q32 -23 32 -77v-135zM517 648l-428 -687h-59l24 39h-51l429 687h58l-24 -39h51zM497 45q0 -93 -92 -93q-69 0 -85 53q-32 20 -32 79v135q0 94 90 94q71 0 87 -55q32 -23 32 -78v-135z
M190 468v135q0 41 -17 58t-58 17t-56.5 -17t-15.5 -58v-135q0 -42 15.5 -59.5t56.5 -17.5t58 17.5t17 59.5zM458 669h-16l-407 -651h17zM452 84v135q0 41 -16.5 58.5t-57.5 17.5t-56.5 -17t-15.5 -59v-135q0 -42 15.5 -58.5t56.5 -16.5t57.5 17t16.5 58zM174 462
q0 -49 -57 -49t-57 49v148q0 48 55 48q59 0 59 -48v-148zM436 77q0 -48 -57 -48q-58 0 -58 48v150q0 47 57 47q58 0 58 -47v-150zM156 462v138q-4 1 -14 1q-37 0 -37 -30v-139q4 -1 12 -1q39 0 39 31zM418 77v139q-4 1 -13 1q-39 0 -39 -29v-140q4 -1 13 -1q39 0 39 30z" />
    <glyph glyph-name="ampersand" unicode="&#x26;" horiz-adv-x="496" 
d="M532 278q-111 -85 -111 -130q0 -10 6 -21l87 -166h-149l-22 39h-5l-10 18q-30 -36 -57 -50q-30 -16 -74 -16q-108 0 -144 79q-47 47 -47 152q0 156 117 232q-48 85 -48 150q0 74 52 112q45 33 122 33q111 0 148 -83q38 -36 38 -94t-37 -110q-34 -47 -88 -77l39 -74
q36 95 69 115l87 -70l-11 -8zM476 317l-60 48q-19 -12 -67 -144l-90 171q131 72 131 180q0 60 -42 91q-38 29 -99 29q-156 0 -156 -127q0 -59 54 -156q-67 -44 -95 -95.5t-28 -130.5q0 -86 30 -127q34 -47 116 -47q46 0 79 23q20 15 58 61l42 -75h108l-72 138q-9 17 -9 31
q0 55 100 130zM336 574q0 -47 -102 -128q-57 97 -57 128q0 26 28 43q24 15 51 15q29 0 52 -14q28 -17 28 -44zM280 163q-5 -81 -77 -81q-45 0 -71 43q-22 36 -22 84q0 66 84 119zM318 569q-14 6 -35 6t-39 -9q-22 -11 -22 -31q0 -22 20 -59q31 25 46 41q28 29 30 52z
M262 159l-53 101q-54 -36 -54 -90q0 -33 9 -57q18 -13 39 -13q54 0 59 59z" />
    <glyph glyph-name="quotesingle" unicode="'" horiz-adv-x="166" 
d="M151 402h-82v39h-27v280h82v-39h27v-280zM106 459v244h-46v-244h46z" />
    <glyph glyph-name="parenleft" unicode="(" horiz-adv-x="300" 
d="M299 -98q-111 7 -165 74q-7 11 -21 32q-10 13 -28 40q-38 71 -38 195v164q0 135 45 207q54 88 180 95v-41l27 2v-121q-55 -10 -71 -44q-11 -22 -11 -85v-279q0 -40 5 -59q19 -12 50 -18v-33q7 -2 27 -6v-123zM254 -40v89q-54 9 -71 51q-11 27 -11 92v267q0 65 11 92
q17 42 71 52v87q-110 -6 -155 -94q-34 -66 -34 -189v-164q0 -123 34 -189q46 -87 155 -94z" />
    <glyph glyph-name="parenright" unicode=")" horiz-adv-x="300" 
d="M280 204q0 -135 -45 -207q-54 -87 -180 -95v42l-27 -3v123q55 9 72 42q11 23 11 86v267q0 48 -6 71q-19 13 -50 19v32q-11 4 -27 7v121q107 -6 161 -68q8 -12 25 -36q9 -12 27 -38q39 -72 39 -199v-164zM235 243v164q0 123 -34 189q-45 88 -155 94v-87q54 -10 72 -52
q11 -27 11 -92v-267q0 -65 -11 -92q-18 -43 -72 -51v-89q109 7 155 94q34 66 34 189z" />
    <glyph glyph-name="asterisk" unicode="*" horiz-adv-x="324" 
d="M341 525l-89 -25l26 -35l-2 -1l29 -38l-61 -45l-57 74l-54 -74l-64 42l11 14l-38 25l40 51l-45 13l10 28l-37 11l25 71l90 -29l-2 93h77v-39h27v-46l63 20l14 -43l13 4zM291 576l-12 37l-97 -30v99h-41l3 -100l-98 31l-13 -36l100 -29l-65 -82l34 -22l58 80l61 -79l32 24
l-60 79z" />
    <glyph glyph-name="plus" unicode="+" horiz-adv-x="720" 
d="M654 228h-222v-223h-90v39h-27v184h-195v39h-27v90h222v222h90v-39h27v-183h195v-39h27v-90zM609 285v54h-222v222h-54v-222h-222v-54h222v-223h54v223h222z" />
    <glyph glyph-name="comma" unicode="," horiz-adv-x="234" 
d="M215 -43l-99 -60l-24 21l45 43h-7l-41 -25l-24 21l8 8v35h-27v158h142v-39h27v-162zM170 6v134h-106v-122h91l-63 -57l4 -3z" />
    <glyph glyph-name="hyphen" unicode="-" horiz-adv-x="256" 
d="M275 209h-240v39h-27v130h240v-39h27v-130zM230 266v94h-204v-94h204z" />
    <glyph glyph-name="hyphen" unicode="&#x2010;" horiz-adv-x="256" 
d="M275 209h-240v39h-27v130h240v-39h27v-130zM230 266v94h-204v-94h204z" />
    <glyph glyph-name="period" unicode="." horiz-adv-x="234" 
d="M215 -39h-142v39h-27v158h142v-39h27v-158zM170 18v122h-106v-122h106z" />
    <glyph glyph-name="slash" unicode="/" horiz-adv-x="315" 
d="M379 671l-353 -805h-77l17 39h-44l353 805h77l-17 -39h44zM324 692h-37l-337 -769h37z" />
    <glyph glyph-name="zero" unicode="0" horiz-adv-x="492" 
d="M477 156q0 -204 -203 -204q-111 0 -161 58q-7 11 -22 33q-4 6 -9 10q-18 16 -31 62q-9 34 -9 80v296q0 205 205 205q107 0 157 -55q7 -11 23 -34q4 -5 9 -10q2 -1 8 -10q33 -49 33 -135v-296zM432 195v296q0 98 -43.5 142.5t-141.5 44.5q-99 0 -143 -44t-44 -143v-296
q0 -98 44.5 -142t142.5 -44t141.5 44t43.5 142zM318 187q0 -84 -71 -84q-72 0 -72 84v315q0 82 72 82q71 0 71 -82v-315zM300 187v315q0 10 -2 22q-11 3 -24 3q-33 0 -43.5 -15.5t-10.5 -48.5v-315q0 -10 2 -24q11 -3 25 -3q33 0 44 19q9 13 9 47z" />
    <glyph glyph-name="one" unicode="1" 
d="M377 -39h-148v39h-27v458q-37 -12 -82 -12v39h-27v113q110 22 147 89h110v-39h27v-687zM104 503h-1q-6 0 -6 -7q0 -6 5 -11zM332 18v651h-81q-16 -30 -62 -56q-39 -22 -78 -30l-7 -80q37 0 116 30v-515h112z" />
    <glyph glyph-name="two" unicode="2" 
d="M478 -39h-411q-1 7 0 39h-27q-1 6 -1 28q0 128 111 255q9 10 47 49q55 56 70 76q34 48 34 96q0 14 -1 20q-11 3 -27 3q-33 0 -44 -18q-8 -12 -8 -46v-77h-150v39h-27v66q0 205 202 205q107 0 158 -56q8 -12 24 -35q6 -7 18 -22q31 -46 31 -123q0 -79 -31 -137
q-25 -46 -89 -109q-28 -27 -78 -84h172v-39h27v-130zM433 18v94h-229q24 64 87 128q82 83 96 103q45 65 45 156q0 179 -186 179q-98 0 -141 -44.5t-43 -142.5v-48h114q0 79 4 93q12 48 66 48q73 0 73 -80q0 -52 -36 -102q-17 -24 -73 -82q-76 -78 -109 -136
q-44 -77 -44 -166h376zM57 18h-2q0 -2 1 -4q1 2 1 4z" />
    <glyph glyph-name="three" unicode="3" 
d="M475 141q0 -189 -204 -189q-145 0 -185 87q-46 46 -46 146v84h151v-39h27q0 -92 2 -105q10 -3 24 -3q32 0 43 17q8 12 8 48v46q0 20 -3 35q-26 14 -114 14v39h-27v117h38q53 0 72 8q32 14 32 59q0 13 -1 19q-9 3 -22 3q-37 0 -46 -24q-4 -11 -4 -57h-142q-2 8 -2 39h-25
q-2 8 -2 37q0 98 51 138q45 36 146 36q67 0 103 -12q55 -17 75 -65q45 -41 45 -171q0 -85 -29 -103l1 -4q34 -16 34 -120v-80zM430 180v80q0 58 -7 75q-12 28 -57 45q39 19 49 42q9 17 9 65q0 115 -31 151q-34 40 -147 40q-96 0 -134 -30q-45 -34 -45 -126v-19h108
q0 81 68 81t68 -79q0 -59 -46 -76q-23 -9 -96 -9v-81q74 0 103 -16q41 -23 41 -90v-46q0 -83 -69 -83q-56 0 -68 51q-3 13 -3 96h-115v-66q0 -99 43 -137.5t143 -38.5q186 0 186 171zM67 503h-2q0 -1 1 -3q1 2 1 3z" />
    <glyph glyph-name="four" unicode="4" 
d="M493 75h-45v-114h-145v39h-27v75h-228l-3 39h-24q-3 33 -3 64q0 310 167 509h236v-39h27v-400h18v-39h27v-134zM448 132v98h-45v439h-210q-157 -188 -157 -491q0 -40 2 -46h256v-114h109v114h45zM294 230h-143v39q0 103 40 199q31 74 103 177v-415zM276 248v258
q-77 -126 -80 -258h80z" />
    <glyph glyph-name="five" unicode="5" 
d="M477 156q0 -204 -204 -204q-111 0 -160 57q-7 11 -22 33q-7 8 -19 24q-30 48 -30 129v68h153v-39h27q0 -87 2 -101q7 -2 22 -2q33 0 44 17q9 13 9 49v132q0 10 -2 23q-8 2 -24 2q-62 0 -63 -51h-122l1 39h-28l8 355h350v-39h27v-130h-224l-1 -28q30 12 65 12
q82 0 126 -53q5 -10 18 -29q7 -8 20 -25q27 -43 27 -107v-132zM432 195v132q0 157 -146 157q-37 0 -113 -36l5 127h223v94h-314l-8 -319h87q0 25 29 39q24 12 51 12q71 0 71 -82v-132q0 -84 -71 -84q-54 0 -66 49q-3 14 -3 93h-117v-50q0 -98 44 -142t142 -44t142 44t44 142
z" />
    <glyph glyph-name="six" unicode="6" 
d="M479 156q0 -204 -203 -204q-110 0 -159 58q-6 10 -20 30q-7 8 -21 26q-29 47 -29 129v296q0 205 202 205q115 0 165 -63q10 -17 26 -39q39 -33 39 -129v-26h-103q38 -18 57 -59q46 -43 46 -146v-78zM330 451v12v8q-1 5 -1 7h-26q0 34 -2 46q-11 3 -25 3q-33 0 -44 -18
q-8 -12 -8 -46v-51q37 41 84 41q8 0 22 -2zM434 195v78q0 77 -24 115q-30 47 -102 47q-20 0 -32 -6q-29 -13 -97 -104v177q0 82 70 82q72 0 72 -88h113v8q0 174 -185 174q-98 0 -141 -44.5t-43 -142.5v-296q0 -98 43 -142t141 -44t141.5 44t43.5 142zM321 187q0 -84 -72 -84
q-70 0 -70 84v77q0 81 70 81q72 0 72 -81v-77zM303 187v81q0 11 -1 17q-11 3 -26 3q-33 0 -42.5 -14t-9.5 -49v-84q0 -11 1 -18q7 -2 24 -2q33 0 45 18q9 14 9 48z" />
    <glyph glyph-name="seven" unicode="7" 
d="M478 621q0 -108 -87 -283q-109 -219 -112 -377h-172q0 28 1 39h-28v10q0 158 133 407q18 33 50 101h-188v39h-27v130h403v-39h27v-27zM433 669h-367v-94h231q-13 -64 -68 -167q-61 -113 -89 -188q-40 -108 -42 -202h136q4 167 114 368q85 155 85 283z" />
    <glyph glyph-name="eight" unicode="8" 
d="M478 156q0 -204 -205 -204q-109 0 -158 55q-7 12 -23 35q-7 7 -19 24q-30 47 -30 129v99q0 71 34 89q-34 18 -34 125q0 94 55 142q52 46 148 46q111 0 163 -60q7 -12 22 -34q7 -7 19 -24q28 -44 28 -109v-33q0 -71 -35 -91l1 -3q34 -22 34 -87v-99zM433 195v99
q0 35 -13.5 54t-46.5 35q43 21 54 51q6 17 6 74q0 170 -187 170q-185 0 -185 -170v-33q0 -64 55 -92q-31 -16 -43 -35.5t-12 -53.5v-99q0 -98 43.5 -142t141.5 -44t142.5 44t44.5 142zM323 505q0 -86 -76 -86t-76 92q0 75 76 75t76 -81zM323 185q0 -84 -76 -84t-76 84v78
q0 84 76 84t76 -84v-78zM305 505q0 14 -1 20q-11 4 -30 4q-32 0 -45 -12.5t-13 -44.5q0 -14 2 -32q12 -3 29 -3q36 0 48 18q10 14 10 50zM305 185v78q0 10 -2 24q-12 3 -29 3q-35 0 -48 -17q-10 -13 -10 -49v-78q0 -10 2 -24q12 -3 29 -3q36 0 48 17q10 13 10 49z" />
    <glyph glyph-name="nine" unicode="9" 
d="M475 156q0 -204 -204 -204q-113 0 -163 62q-6 10 -19 30q-10 12 -27 37q-22 44 -22 108v20h108q-44 19 -63 62q-45 44 -45 142v78q0 205 204 205q114 0 163 -61q6 -10 19 -30q8 -9 22 -29q27 -47 27 -124v-296zM430 195v296q0 98 -44 142.5t-142 44.5t-142 -44.5
t-44 -142.5v-78q0 -79 26 -116q32 -44 107 -44q17 0 28 6q29 14 96 104v-176q0 -84 -71 -84q-69 0 -69 88h-117v-2q0 -94 45.5 -137t140.5 -43q98 0 142 44t44 142zM297 187v50q-37 -41 -79 -41q-9 0 -25 2v-11v-9q1 -5 1 -8h26q0 -33 2 -47q6 -2 22 -2q33 0 44 17
q9 13 9 49zM315 423q0 -82 -71 -82q-69 0 -69 82v79q0 82 69 82q71 0 71 -82v-79zM297 423v79q0 10 -2 22q-10 3 -24 3q-32 0 -41.5 -14.5t-9.5 -49.5v-79q0 -9 2 -23q12 -2 22 -2q34 0 45 17q8 13 8 47z" />
    <glyph glyph-name="colon" unicode=":" horiz-adv-x="234" 
d="M215 412h-142v39h-27v161h142v-39h27v-161zM215 -39h-142v39h-27v158h142v-39h27v-158zM170 469v125h-106v-125h106zM170 18v122h-106v-122h106z" />
    <glyph glyph-name="semicolon" unicode=";" horiz-adv-x="234" 
d="M215 412h-142v39h-27v161h142v-39h27v-161zM215 -43l-99 -60l-24 21l45 43h-7l-41 -25l-24 21l8 8v35h-27v158h142v-39h27v-162zM170 469v125h-106v-125h106zM170 6v134h-106v-122h91l-63 -57l4 -3z" />
    <glyph glyph-name="less" unicode="&#x3c;" horiz-adv-x="720" 
d="M670 -18l-580 232v28l-27 11v108l580 231v-50l27 11v-107l-415 -165l388 -154v-28l27 -11v-106zM625 48v67l-482 191l482 191v68l-544 -216v-84z" />
    <glyph glyph-name="equal" unicode="=" horiz-adv-x="720" 
d="M627 330h-480v39h-27v102h480v-39h27v-102zM627 109h-480v39h-27v102h480v-39h27v-102zM582 387v66h-444v-66h444zM582 166v66h-444v-66h444z" />
    <glyph glyph-name="greater" unicode="&#x3e;" horiz-adv-x="720" 
d="M684 214l-580 -232v50l-27 -11v105l417 166l-390 154v28l-27 11v107l580 -231v-28l27 -11v-108zM639 265v84l-544 216v-68l484 -191l-484 -192v-66z" />
    <glyph glyph-name="question" unicode="?" horiz-adv-x="411" 
d="M421 491q0 -60 -40 -127q-36 -54 -73 -108q-40 -61 -40 -106h-15v-31h27v-158h-142v39h-27v158h38v31h-27v22q0 63 33 130q9 19 62 103q33 53 33 82q0 14 -1 21q-11 3 -26 3q-34 0 -43.5 -14.5t-9.5 -48.5v-62h-136v39h-27v53q0 107 40.5 150t146.5 43q140 0 181 -86
q46 -45 46 -133zM376 530q0 89 -47 128q-43 34 -135 34q-113 0 -146 -51q-23 -36 -23 -159h100q0 68 5 85q14 40 66 40q72 0 72 -81q0 -35 -33 -88q-57 -91 -62 -100q-33 -66 -33 -131h83v-6q2 43 42 103q36 53 73 106q38 64 38 120zM235 18v122h-106v-122h106z" />
    <glyph glyph-name="at" unicode="@" horiz-adv-x="949" 
d="M925 382q0 -172 -122 -272q-69 -57 -156 -57q-101 0 -102 83q-52 -82 -143 -82q-155 0 -155 170q0 110 59 191q66 91 172 91q78 0 114 -66l26 50h84l-70 -300q-3 -13 -3 -20q0 -35 45 -35q38 0 78 38q84 79 84 211q0 127 -98 204q-90 70 -221 70q-136 0 -232 -67
q-169 -118 -169 -330q0 -158 104 -250q100 -87 260 -87q158 0 290 96l40 -59q-146 -115 -328 -115q-186 0 -306 96q-149 119 -149 318q0 170 99 297q143 183 394 183q171 0 284 -92q121 -99 121 -266zM568 350q-12 83 -84 83q-65 0 -104 -76q-31 -63 -31 -135q0 -94 76 -94
q44 0 77 36q30 32 41 78z" />
    <glyph glyph-name="A" unicode="A" horiz-adv-x="498" 
d="M486 -39h-150v39h-27v87h-93v-126h-150v39h-27v137q0 384 141 565h137q55 -74 82 -128q87 -176 87 -476v-137zM441 18v119q0 373 -133 547h-119q-132 -170 -132 -547v-119h114v126h156v-126h114zM327 234h-156q0 115 19 210q17 87 59 202q42 -115 59 -202q19 -95 19 -210
zM309 252q0 154 -40 284q-48 -136 -52 -284h92z" />
    <glyph glyph-name="B" unicode="B" horiz-adv-x="527" 
d="M509 165q0 -116 -43.5 -160t-159.5 -44h-222v39h-27v702h215q72 0 108 -10q60 -16 79 -65q41 -36 41 -138q0 -83 -61 -131l24 -36q6 -7 17 -22q29 -45 29 -135zM464 204q0 72 -18.5 109t-76.5 77q86 58 86 138q0 101 -42 131q-33 25 -141 25h-197v-666h204q111 0 148 38
t37 148zM339 514q0 -92 -101 -92h-52v170h79q74 0 74 -78zM348 216q0 -56 -24 -79t-81 -23h-57v227h68q48 0 73 -40q21 -34 21 -85zM321 514q0 12 -1 17q-11 4 -28 4h-61v-95h7q83 0 83 74zM330 216q0 35 -8 56q-16 12 -41 12h-50v-152h12q51 0 69 16.5t18 67.5z" />
    <glyph glyph-name="C" unicode="C" horiz-adv-x="511" 
d="M499 188q0 -126 -43 -178q-48 -58 -170 -58q-116 0 -163 51l-24 36q-8 9 -23 32q-29 53 -29 156v248q0 126 43 178q47 57 169 57q147 0 188 -86q38 -37 48 -112q4 -33 4 -126h-154v39h-27q0 97 -2 110q-11 4 -30 4q-34 0 -47 -13t-13 -48v-332q0 -13 1 -19q12 -4 32 -4
q38 0 50 17q9 13 9 51v120h154v-39h27v-84zM454 293h-118v-102q0 -86 -77 -86q-78 0 -78 80v332q0 79 78 79q77 0 77 -84v-69h118v32q0 121 -37 166q-41 51 -158 51q-116 0 -157 -51q-37 -45 -37 -166v-248q0 -120 37 -166q41 -52 157 -52q97 0 142 36q38 31 48 99
q5 34 5 149z" />
    <glyph glyph-name="D" unicode="D" horiz-adv-x="525" 
d="M505 150q0 -103 -46 -146t-150 -43h-227v39h-27v702h227q138 0 176 -81q47 -44 47 -147v-324zM460 189v324q0 97 -40 134t-138 37h-209v-666h209q98 0 138 37t40 134zM343 199q0 -84 -91 -84h-64v471h64q91 0 91 -84v-303zM325 199v308q0 10 -1 16q-13 6 -45 6h-46v-396
h19q40 0 56.5 13.5t16.5 52.5z" />
    <glyph glyph-name="E" unicode="E" horiz-adv-x="426" 
d="M417 -39h-333v39h-27v702h324v-39h27v-132h-177v-84h159v-39h27v-126h-186v-150h159v-39h27v-132zM372 18v96h-186v225h186v90h-186v159h177v96h-288v-666h297z" />
    <glyph glyph-name="F" unicode="F" horiz-adv-x="384" 
d="M390 529h-159v-568h-147v39h-27v702h306v-39h27v-134zM345 586v98h-270v-666h111v568h159z" />
    <glyph glyph-name="G" unicode="G" horiz-adv-x="523" 
d="M499 -39h-49l-32 39q-68 -48 -144 -48q-108 0 -154 54l-21 33q-7 8 -20 27q-32 54 -32 161v248q0 126 43 178q47 57 169 57q121 0 169 -56q6 -11 20 -32q8 -8 21 -28q30 -50 30 -144v-28h-27v-39h27v-422zM345 422v39h-27q0 60 -2 74q-11 4 -30 4q-34 0 -47 -13t-13 -48
v-309q0 -23 3 -40q13 -5 37 -5q44 0 58 24q11 18 11 66v54h-23v39h-27v115h60zM454 18v386h-151v-79h50v-111q0 -53 -17 -78q-20 -30 -70 -30q-48 0 -68 28q-17 23 -17 74v309q0 79 78 79q53 0 68 -35q9 -20 9 -82h118v10q0 112 -42 157.5t-153 45.5q-116 0 -157 -51
q-37 -45 -37 -166v-248q0 -115 33 -162q41 -56 149 -56q45 0 78 13q27 11 69 41l38 -45h22z" />
    <glyph glyph-name="H" unicode="H" horiz-adv-x="531" 
d="M501 -39h-150v39h-27v282h-90v-321h-150v39h-27v702h150v-39h27v-216h90v255h150v-39h27v-702zM456 18v666h-114v-255h-153v255h-114v-666h114v321h153v-321h114z" />
    <glyph glyph-name="I" unicode="I" horiz-adv-x="270" 
d="M237 -39h-150v39h-27v702h150v-39h27v-702zM192 18v666h-114v-666h114z" />
    <glyph glyph-name="J" unicode="J" horiz-adv-x="480" 
d="M456 188q0 -126 -43 -178q-47 -58 -169 -58q-116 0 -164 51l-24 36q-8 9 -23 32q-29 53 -29 156v96h153v-39h27v-138q0 -13 1 -19q11 -4 32 -4q37 0 49 17q10 14 10 51v511h153v-39h27v-475zM411 227v457h-117v-493q0 -86 -77 -86q-78 0 -78 80v120h-117v-78
q0 -121 37 -167q42 -51 158 -51q117 0 158 51q36 46 36 167z" />
    <glyph glyph-name="K" unicode="K" horiz-adv-x="516" 
d="M502 643q0 -158 -77 -256q51 -58 67 -203q9 -75 9 -223h-151v39h-27q0 20 1 61.5t1 62.5q0 112 -33 176q-20 -18 -63 -48v-291h-147v39h-27v702h147v-39h27v-232q88 99 94 271h151q0 -5 1 -19v-20h26q0 -3 1 -10v-10zM457 682q0 3 -1 6v-4h-116q-7 -186 -156 -320v320
h-111v-666h111v284q24 13 84 64q75 -92 75 -242q0 -18 -1 -54t-1 -52h115v29q0 286 -81 378q82 106 82 257z" />
    <glyph glyph-name="L" unicode="L" horiz-adv-x="394" 
d="M421 -39h-339v39h-27v702h151v-39h27v-530h161v-39h27v-133zM376 18v97h-188v569h-115v-666h303z" />
    <glyph glyph-name="M" unicode="M" horiz-adv-x="798" 
d="M772 -39h-152v39h-27v493q-55 -62 -74 -115q-18 -49 -18 -134v-283h-149v39h-27v283q0 120 -40 180q-14 21 -52 59v-561h-151v39h-27v702h216q27 -27 57 -72q8 -10 22 -31q28 -43 55 -107q56 147 124 210h216v-39h27v-702zM727 18v666h-191q-65 -61 -137 -259
q-74 201 -135 259h-191v-666h115v588q130 -136 149 -233q6 -34 6 -90v-265h113v265q0 55 6 89q19 99 149 234v-588h116z" />
    <glyph glyph-name="N" unicode="N" horiz-adv-x="530" 
d="M501 -39h-149v39h-27q0 184 -9 241q-15 100 -83 224v-504h-151v39h-27v702h140l26 -39h1q44 -61 103 -190v229h149v-39h27v-702zM456 18v666h-113v-319q-53 121 -88 194q-22 46 -32 64q-19 36 -37 61h-113v-666h115v561q75 -126 108 -211q47 -120 47 -231v-119h113z" />
    <glyph glyph-name="O" unicode="O" horiz-adv-x="519" 
d="M499 188q0 -126 -43 -178q-48 -58 -170 -58q-114 0 -161 49q-9 12 -26 38q-8 9 -23 32q-29 53 -29 156v248q0 126 43 178q47 58 169 58q146 0 187 -86q53 -52 53 -189v-248zM454 227v248q0 122 -37 167q-41 51 -158 51t-158 -51q-36 -46 -36 -167v-248q0 -120 37 -166
q41 -52 157 -52t158 51q37 46 37 167zM336 191q0 -86 -77 -86q-78 0 -78 80v332q0 80 78 80q77 0 77 -85v-321zM318 191v321q0 10 -2 24q-11 4 -30 4q-34 0 -47 -13.5t-13 -48.5v-336q0 -9 1 -15q12 -4 32 -4q38 0 50 17q9 13 9 51z" />
    <glyph glyph-name="P" unicode="P" horiz-adv-x="516" 
d="M510 410q0 -259 -200 -259q-40 0 -79 6v-196h-147v39h-27v702h196q128 0 181 -64q7 -10 21 -32q7 -9 21 -29q34 -59 34 -167zM465 449q0 126 -43 178q-47 57 -169 57h-178v-666h111v199q59 -9 97 -9q182 0 182 241zM351 447q0 -65 -13 -98q-20 -51 -74 -51q-33 0 -78 8
v282h57q63 0 88 -41q20 -32 20 -100zM333 447q0 48 -8 72q-17 12 -55 12h-39v-214q11 -1 33 -1q47 0 61 46q8 24 8 85z" />
    <glyph glyph-name="Q" unicode="Q" horiz-adv-x="519" 
d="M523 -11l-61 -85l-110 52q-30 -4 -66 -4q-122 0 -169 57q-6 10 -19 30q-7 8 -19 25q-32 52 -32 163v248q0 126 43 178q47 57 169 57q147 0 188 -86q52 -51 52 -188v-248q0 -108 -21 -152l18 -8l-15 -21zM468 20l-65 29q34 29 45 82q6 32 6 96v248q0 121 -37 166
q-41 51 -158 51q-116 0 -157 -51q-37 -45 -37 -166v-248q0 -121 36 -167q41 -51 158 -51q35 0 69 5l101 -48zM336 191q0 -86 -77 -86q-78 0 -78 80v332q0 79 78 79q77 0 77 -84v-321zM318 191v321q0 9 -2 23q-11 4 -30 4q-34 0 -47 -13t-13 -48v-336q0 -9 1 -15q12 -4 32 -4
q38 0 50 17q9 13 9 51z" />
    <glyph glyph-name="R" unicode="R" horiz-adv-x="533" 
d="M537 -39h-158l-3 39h-24q-7 138 -65 277l-50 5v-321h-150v39h-27v702h202q128 0 182 -65q6 -10 20 -31q4 -6 9.5 -10.5t16.5 -25.5q22 -43 22 -106q0 -101 -81 -157q86 -152 106 -346zM490 18q-19 171 -110 333q87 61 87 152q0 99 -54 142q-49 39 -151 39h-184v-666h114
v324q50 -8 90 -8q80 -175 87 -316h121zM353 510q0 -93 -91 -93q-30 0 -76 13v166h70q97 0 97 -86zM335 510q0 6 -2 18q-19 11 -50 11h-52v-101q15 -3 31 -3q40 0 56.5 17t16.5 58z" />
    <glyph glyph-name="S" unicode="S" horiz-adv-x="509" 
d="M494 156q0 -204 -213 -204q-122 0 -171 58q-7 10 -21 32q-7 8 -19 25q-29 46 -29 128v84h154v-39h27q0 -97 3 -111q13 -6 31 -6q60 0 60 53q0 20 -7 35q-22 22 -103 85q-66 51 -96 92q-6 9 -17 26q-51 74 -51 122q0 176 212 176q152 0 189 -84q32 -31 41 -91
q4 -27 4 -103h-136v39h-27q0 52 -1 58q-16 8 -41 8q-21 0 -38 -8q-22 -10 -23 -29q42 -40 147 -110q39 -26 60 -56q5 -8 14 -23q7 -8 20 -26q31 -51 31 -131zM449 195q0 64 -19 104q-21 44 -71 78q-182 122 -182 163q0 25 28 42q25 14 51 14q39 0 63 -21.5t24 -60.5v-23h100
v28q0 103 -44 141q-40 34 -145 34q-194 0 -194 -158q0 -88 143 -197q69 -52 85 -69q46 -46 46 -94q0 -31 -23 -51t-55 -20q-58 0 -73 55q-6 21 -6 101h-118v-66q0 -103 45.5 -144.5t149.5 -41.5q101 0 148 43t47 143z" />
    <glyph glyph-name="T" unicode="T" horiz-adv-x="401" 
d="M408 535h-106v-574h-151v39h-27v535h-78v39h-27v128h362v-39h27v-128zM363 592v92h-326v-92h105v-574h115v574h106z" />
    <glyph glyph-name="U" unicode="U" horiz-adv-x="525" 
d="M500 188q0 -126 -43 -178q-47 -58 -169 -58q-119 0 -166 55q-6 11 -19 31q-8 9 -23 32q-29 53 -29 157v475h151v-39h27v-517q0 -13 1 -19q11 -4 31 -4q39 0 52 20q10 15 10 54v505h150v-39h27v-475zM455 227v457h-114v-487q0 -92 -80 -92q-77 0 -77 80v499h-115v-457
q0 -121 36 -166q40 -52 156 -52t157 52q37 46 37 166z" />
    <glyph glyph-name="V" unicode="V" horiz-adv-x="497" 
d="M491 450q0 -167 -18 -257q-27 -132 -108 -232h-169l-28 39h-10q-81 101 -109 228q-19 90 -19 254v220h178v-39h22v-203q0 -121 1 -145q4 -82 20 -143q27 77 33 159q3 35 3 161v210h177v-39h27v-213zM447 482v203h-143v-267q0 -93 -11 -155q-12 -69 -46 -150
q-33 81 -45 150q-11 61 -11 154v268h-144v-203q0 -159 17 -244q26 -125 102 -221h161q76 95 102 221q18 86 18 244z" />
    <glyph glyph-name="W" unicode="W" horiz-adv-x="751" 
d="M745 450q0 -167 -18 -257q-28 -132 -108 -232h-139l-20 39h-21q-30 55 -52 111q-20 -51 -66 -150h-140q-12 14 -43 62q-15 22 -42 67q-43 83 -57 191q-10 73 -10 201v220h175v-39h24v-203q0 -125 1 -146q4 -82 21 -143q28 73 34 159q2 29 2 162v210h174v-39h24v-203
q0 -196 23 -285q27 75 33 157q3 34 3 160v210h175v-39h27v-213zM701 482v203h-141v-193q0 -147 -5 -192q-10 -87 -54 -185q-36 83 -49 160q-10 62 -10 163v247h-138v-193q0 -148 -5 -192q-10 -87 -54 -185q-44 98 -53 185q-5 42 -5 192v193h-141v-203q0 -160 17 -244
q25 -125 102 -221h133q35 61 77 182q34 -110 74 -182h132q77 95 103 220q17 86 17 245z" />
    <glyph glyph-name="X" unicode="X" horiz-adv-x="510" 
d="M495 -39h-150v39h-27q0 104 -6 159q-9 78 -36 154q-37 -95 -48 -172q-9 -61 -9 -180h-150v39h-27v20q0 220 67 370q-67 136 -67 312h150v-39h27q0 -195 40 -291q39 72 51 161q8 57 8 169h150v-39h27v-21q0 -155 -67 -291q41 -92 56 -192q11 -76 11 -198zM450 18v2
q0 216 -69 370q69 137 69 294h-114q0 -210 -60 -319q37 -93 49 -172q11 -67 11 -175h114zM234 365q-60 109 -60 319h-114v-3q0 -154 69 -291q-69 -154 -69 -372h114q0 108 11 175q12 79 49 172z" />
    <glyph glyph-name="Y" unicode="Y" horiz-adv-x="431" 
d="M452 629q0 -268 -134 -473v-195h-151v39h-27v195q-134 207 -134 507h151l1 -39h26q5 -226 40 -335q47 115 52 374h149v-39h27v-34zM407 684h-113q-5 -256 -75 -410q-73 145 -80 410h-115q1 -278 134 -484v-182h115v182q134 207 134 484z" />
    <glyph glyph-name="Z" unicode="Z" horiz-adv-x="423" 
d="M425 522l-202 -389h166v-39h27v-133h-383v39h-27v125l212 404h-161v39h-27v134h368v-39h27v-141zM380 565v119h-332v-98h220l-244 -465v-103h347v97h-225z" />
    <glyph glyph-name="bracketleft" unicode="[" horiz-adv-x="300" 
d="M336 -99h-254v39h-27v762h254v-39h27v-80h-112v-563h85v-39h27v-80zM291 -42v44h-112v638h112v44h-218v-726h218z" />
    <glyph glyph-name="backslash" unicode="\" horiz-adv-x="315" 
d="M419 -134h-77l-17 39h-10l-351 805h77l17 -39h10zM365 -77l-336 769h-38l336 -769h38z" />
    <glyph glyph-name="bracketright" unicode="]" horiz-adv-x="300" 
d="M271 -99h-253v39h-27v80h112v563h-85v39h-27v80h253v-39h27v-762zM226 -42v726h-217v-44h112v-638h-112v-44h217z" />
    <glyph glyph-name="asciicircum" unicode="^" horiz-adv-x="720" 
d="M654 411h-103l-163 185l-164 -185h-104l29 39h-56l211 280h111l212 -280h-3zM591 468l-185 244h-93l-184 -244h60l172 194l171 -194h59z" />
    <glyph glyph-name="underscore" unicode="_" horiz-adv-x="512" 
d="M545 -232h-524v39h-27v103h524v-39h27v-103zM500 -175v67h-488v-67h488z" />
    <glyph glyph-name="grave" unicode="`" horiz-adv-x="569" 
d="M351 619h-79l-26 39h-1l-72 107h105l17 -39h10zM297 676l-31 71h-59l48 -71h42z" />
    <glyph glyph-name="a" unicode="a" horiz-adv-x="468" 
d="M447 -39h-130v39h-20q-54 -49 -102 -49q-89 0 -117 69q-39 36 -39 113v91q0 67 27 103q24 34 88 61h-74v39h-27v40q0 85 49 121q42 32 131 32q136 0 171 -80q43 -40 43 -134v-445zM281 435v16v8q-1 5 -1 8q-11 3 -25 3q-33 0 -43 -14.5t-10 -49.5q3 1 79 29zM402 18v427
q0 90 -40 125q-37 32 -129 32q-83 0 -119 -26q-43 -30 -43 -109v-22h86q0 82 71 82q48 0 62 -32q9 -18 9 -73q-42 -14 -124 -46q-66 -27 -89 -54q-29 -33 -29 -98v-91q0 -125 111 -125q17 0 29 4q33 12 111 90v-84h94zM299 166q0 -82 -71 -82t-71 82v37q0 42 17 69
q15 24 52 49q27 17 73 40v-195zM281 166v113q-44 -25 -59 -45q-20 -26 -20 -70v-37q0 -10 2 -23q7 -2 24 -2q33 0 44 16q9 12 9 48z" />
    <glyph glyph-name="b" unicode="b" horiz-adv-x="481" 
d="M467 140q0 -87 -20 -129q-28 -59 -105 -59q-42 0 -73 18q-23 13 -60 48v-57h-129v39h-27v702h139v-39h27v-79q39 36 87 36q94 0 119 -64q30 -25 38 -87q4 -27 4 -99v-230zM422 179v230q0 61 -3 89q-6 57 -31 80.5t-82 23.5q-20 0 -33 -5q-31 -11 -99 -87v174h-103v-666
h93v81q36 -35 53 -49q37 -30 61 -37q15 -4 37 -4q35 0 56 11q51 27 51 159zM316 166q0 -82 -71 -82t-71 82v279q0 82 71 82t71 -82v-279zM298 166v279q0 10 -2 22q-11 3 -24 3q-33 0 -43 -14.5t-10 -49.5v-283q0 -11 1 -18q11 -3 25 -3q34 0 45 17q8 13 8 47z" />
    <glyph glyph-name="c" unicode="c" horiz-adv-x="468" 
d="M458 148q0 -110 -42.5 -153t-151.5 -43q-142 0 -177 80q-45 42 -45 155v237q0 109 43 152.5t152 43.5q141 0 176 -80q34 -33 42 -102q3 -23 3 -114h-141v39h-27q0 92 -2 104q-10 3 -24 3q-34 0 -45 -17q-9 -13 -9 -47v-279q0 -10 2 -22q11 -3 25 -3q34 0 45 17q8 13 8 47
v82h141v-39h27v-61zM413 230h-105q0 -8 1 -25v-26q0 -95 -72 -95t-72 82v279q0 82 72 82q55 0 68 -50q3 -14 3 -96h105v43q0 104 -36 141t-140 37q-103 0 -140 -37.5t-37 -140.5v-237q0 -104 36.5 -141t140.5 -37q120 0 153 53q23 38 23 168z" />
    <glyph glyph-name="d" unicode="d" horiz-adv-x="481" 
d="M456 -39h-129v39h-18q-55 -48 -114 -48q-82 0 -108 65q-45 41 -45 162v230q0 112 14 147q27 64 121 64q36 0 63 -17q20 -13 50 -46v145h139v-39h27v-702zM411 18v666h-103v-174q-30 34 -46 48q-32 31 -53 39q-12 5 -32 5q-58 0 -83.5 -22.5t-30.5 -79.5q-3 -28 -3 -91
v-230q0 -133 51 -159q21 -11 57 -11q22 0 36 4q35 11 114 85v-80h93zM308 166q0 -82 -71 -82q-72 0 -72 82v279q0 82 72 82q71 0 71 -82v-279zM290 166v279q0 10 -2 22q-10 3 -24 3q-34 0 -45 -17q-9 -13 -9 -47v-279q0 -10 2 -22q11 -3 25 -3q34 0 45 17q8 13 8 47z" />
    <glyph glyph-name="e" unicode="e" horiz-adv-x="473" 
d="M458 148q0 -110 -42.5 -153t-151.5 -43q-142 0 -177 80q-45 42 -45 155v237q0 109 43 152.5t152 43.5q141 0 176 -80q45 -44 45 -155v-138h-250v-120q0 -10 2 -22q11 -3 27 -3q34 0 46 17q9 13 9 47v58h139v-39h27v-37zM413 206h-103q0 -64 -7 -83q-14 -39 -66 -39
q-74 0 -74 82v138h250v120q0 104 -36 141t-140 37q-103 0 -140 -37.5t-37 -140.5v-237q0 -104 36.5 -141t140.5 -37q111 0 146 44q30 38 30 153zM310 376h-147v65q0 86 74 86q73 0 73 -86v-65zM292 394v47q0 12 -2 26q-11 3 -26 3q-35 0 -47 -18q-9 -14 -9 -50v-8h84z" />
    <glyph glyph-name="f" unicode="f" horiz-adv-x="280" 
d="M273 469h-40v-508h-138v39h-27v469h-11v39h-27v104h38v16q0 48 32 67q24 15 77 15q27 0 69 -8v-34q9 -2 27 -5v-63q-18 0 -27 -3v-24h27v-104zM228 526v68h-40v23q0 40 40 40v30q-25 5 -51 5q-64 0 -79 -19q-12 -15 -12 -79h-38v-68h38v-508h102v508h40z" />
    <glyph glyph-name="g" unicode="g" horiz-adv-x="473" 
d="M450 50q0 -101 -55 -146q-51 -42 -155 -42q-111 0 -199 38l14 24q-22 6 -41 15l55 91q58 -30 112 -30q49 0 71 11q31 15 35 57q-51 -41 -99 -41q-81 0 -104 61q-42 33 -42 143v201q0 91 20 131q29 57 110 57q37 0 68 -20q20 -13 55 -48v60h128v-39h27v-523zM405 89v505
h-92v-85q-37 37 -52 50q-37 33 -60 40q-11 3 -29 3q-41 0 -64 -12q-48 -27 -48 -158v-201q0 -76 14 -104q21 -43 87 -43q36 0 79 31q15 11 66 57v-82q0 -61 -33 -86q-28 -22 -92 -22q-59 0 -105 24l-36 -59q65 -28 173 -28q99 0 143 36q49 39 49 134zM306 235q0 -83 -72 -83
q-71 0 -71 83v210q0 82 71 82q72 0 72 -82v-210zM288 235v210q0 10 -2 22q-11 3 -25 3q-33 0 -45 -17q-8 -13 -8 -47v-210q0 -10 2 -24q7 -2 24 -2q34 0 45 18q9 13 9 47z" />
    <glyph glyph-name="h" unicode="h" horiz-adv-x="485" 
d="M465 -39h-140v39h-27v445q0 10 -2 22q-10 3 -24 3q-33 0 -43 -14.5t-10 -49.5v-445h-139v39h-27v702h137v-39h27v-77q44 32 89 32q89 0 115 -64q44 -37 44 -161v-432zM420 18v414q0 133 -51 157q-22 11 -63 11q-34 0 -72 -25q-14 -9 -62 -48v157h-101v-666h103v427
q0 82 71 82t71 -82v-427h104z" />
    <glyph glyph-name="i" unicode="i" horiz-adv-x="251" 
d="M219 -39h-139v39h-27v612h27v25h-27v65h139v-39h27v-65h-27v-25h27v-612zM174 655v29h-103v-29h103zM174 18v576h-103v-576h103z" />
    <glyph glyph-name="j" unicode="j" horiz-adv-x="255" 
d="M226 23q0 -87 -16 -114q-23 -38 -102 -38q-28 0 -62 8v34q-12 1 -27 5v82q42 0 42 33v579h27v25h-27v65h138v-39h27v-65h-27v-25h27v-550zM181 655v29h-102v-29h102zM181 62v532h-102v-561q0 -20 -11.5 -35.5t-30.5 -15.5v-50q41 -4 44 -4q71 0 89 33q11 20 11 101z" />
    <glyph glyph-name="k" unicode="k" horiz-adv-x="481" 
d="M465 -39h-140v39h-27q0 176 -15 251q-34 -27 -64 -44v-246h-139v39h-27v702h139v-39h27v-281q79 76 79 230h140v-39h27v-36q0 -102 -56 -188q56 -87 56 -267v-121zM420 18v103q0 175 -59 267q59 91 59 206h-104q-1 -89 -35 -154q-33 -61 -107 -117v361h-103v-666h103v238
q39 22 105 76q37 -111 37 -314h104z" />
    <glyph glyph-name="l" unicode="l" horiz-adv-x="251" 
d="M222 -39h-140v39h-27v702h140v-39h27v-702zM177 18v666h-104v-666h104z" />
    <glyph glyph-name="m" unicode="m" horiz-adv-x="729" 
d="M711 -39h-140v39h-27v445q0 10 -2 22q-11 3 -25 3q-33 0 -42.5 -14.5t-9.5 -49.5v-445h-140v39h-27v445q0 10 -2 22q-10 3 -24 3q-33 0 -43 -14.5t-10 -49.5v-445h-139v39h-27v612h129v-39h20q55 47 111 47q59 0 113 -67q61 67 125 67q90 0 116 -65q44 -38 44 -162v-432z
M666 18v414q0 129 -46 156q-24 14 -69 14q-38 0 -71 -24q-19 -13 -55 -53q-30 39 -48 53q-29 24 -64 24q-22 0 -36 -4q-32 -10 -113 -84v80h-93v-576h103v427q0 82 71 82t71 -82v-427h104v427q0 82 70 82q72 0 72 -82v-427h104z" />
    <glyph glyph-name="n" unicode="n" horiz-adv-x="485" 
d="M465 -39h-140v39h-27v445q0 10 -2 22q-10 3 -24 3q-33 0 -43 -14.5t-10 -49.5v-445h-139v39h-27v612h129v-39h21q53 47 103 47q89 0 115 -65q44 -38 44 -162v-432zM420 18v414q0 131 -49 158q-22 12 -65 12q-17 0 -29 -4q-34 -10 -113 -87v83h-93v-576h103v427
q0 82 71 82t71 -82v-427h104z" />
    <glyph glyph-name="o" unicode="o" horiz-adv-x="471" 
d="M457 148q0 -110 -42.5 -153t-151.5 -43q-142 0 -177 80q-45 42 -45 155v237q0 109 43 152.5t152 43.5q141 0 176 -80q45 -44 45 -155v-237zM412 187v237q0 104 -36 141t-140 37q-103 0 -140 -37.5t-37 -140.5v-237q0 -104 36.5 -141t140.5 -37t140 37t36 141zM307 172
q0 -82 -71 -82q-72 0 -72 82v267q0 82 72 82q71 0 71 -82v-267zM289 172v267q0 10 -2 22q-10 3 -24 3q-34 0 -45 -17q-9 -13 -9 -47v-267q0 -10 2 -22q11 -3 25 -3q34 0 45 17q8 13 8 47z" />
    <glyph glyph-name="p" unicode="p" horiz-adv-x="481" 
d="M467 164q0 -111 -15 -147q-27 -65 -119 -65q-37 0 -64 18q-20 13 -50 47v-146h-139v39h-27v702h129v-39h22q54 47 111 47q81 0 107 -64q45 -39 45 -163v-229zM422 203v229q0 132 -51 159q-21 11 -56 11q-22 0 -36 -4q-37 -11 -115 -88v84h-93v-666h103v176q30 -35 45 -50
q32 -32 53 -40q13 -5 34 -5q57 0 82 23.5t31 80.5q3 29 3 90zM316 166q0 -82 -71 -82t-71 82v279q0 82 71 82t71 -82v-279zM298 166v279q0 10 -2 22q-10 3 -24 3q-33 0 -43 -14.5t-10 -49.5v-283q0 -11 1 -18q11 -3 25 -3q34 0 45 17q8 13 8 47z" />
    <glyph glyph-name="q" unicode="q" horiz-adv-x="481" 
d="M456 -129h-139v39h-27v78q-41 -36 -86 -36q-97 0 -121 66q-30 25 -38 87q-4 28 -4 98v229q0 88 20 130q29 58 107 58q39 0 72 -19q23 -13 60 -47v58h129v-39h27v-702zM411 -72v666h-93v-81q-44 40 -60 53q-41 31 -70 35q-9 1 -20 1q-36 0 -57 -11q-52 -26 -52 -159v-229
q0 -70 4 -101q7 -52 33.5 -72.5t80.5 -20.5q19 0 32 5q29 11 99 84v-170h103zM308 166q0 -82 -71 -82q-72 0 -72 82v279q0 82 72 82q71 0 71 -82v-279zM290 166v279q0 10 -2 22q-11 3 -24 3q-34 0 -45 -17q-9 -13 -9 -47v-279q0 -10 2 -22q11 -3 25 -3q34 0 45 17q8 13 8 47
z" />
    <glyph glyph-name="r" unicode="r" horiz-adv-x="452" 
d="M465 280h-140v39h-27v126q0 10 -2 22q-10 3 -24 3q-33 0 -43 -14.5t-10 -49.5v-445h-139v39h-27v612h129v-39h22q50 45 102 45q89 0 115 -64q44 -37 44 -161v-113zM420 337v95q0 131 -49 156q-22 12 -65 12q-18 0 -31 -4q-33 -10 -111 -87v85h-93v-576h103v427
q0 82 71 82t71 -82v-108h104z" />
    <glyph glyph-name="s" unicode="s" horiz-adv-x="457" 
d="M454 129q0 -96 -49 -138q-45 -39 -143 -39q-150 0 -184 80q-43 40 -43 145v75h139v-39h27q0 -96 2 -109q8 -2 24 -2q56 0 56 56q0 17 -5 32q-21 19 -75 56q-68 46 -102 87q-7 12 -23 35q-24 35 -29 44q-12 23 -12 50q0 158 190 158q145 0 178 -79q29 -27 37 -75
q4 -22 4 -86h-136v39h-27v46q-13 5 -29 5q-49 0 -52 -35q34 -23 101 -68q33 -23 46 -33q24 -20 40 -41q5 -8 16 -25q5 -6 15 -20q34 -49 34 -119zM409 168q0 66 -30 109q-23 32 -86 75q-11 8 -33 23q-54 35 -62 40q-41 32 -41 55q0 27 22 43q19 14 48 14q24 0 47 -14
q27 -16 27 -38v-38h100v22q0 86 -45 118q-37 25 -129 25q-86 0 -125 -27q-47 -32 -47 -113q0 -74 131 -162q66 -44 78 -57q37 -36 37 -85q0 -74 -74 -74q-71 0 -71 82v68h-103v-57q0 -102 40 -137q37 -31 142 -31q93 0 131 33q43 36 43 126z" />
    <glyph glyph-name="t" unicode="t" horiz-adv-x="284" 
d="M273 -39q-33 -12 -74 -12q-82 0 -98 54q-35 19 -35 120v337h-16v39h-27v113h43v73l138 22v-43l27 4v-56h15v-39h27v-113h-42v-348l15 -2v-33q11 -6 27 -6v-110zM228 13v79q-18 0 -31 20q-11 17 -11 36v369h42v77h-42v92l-102 -16v-76h-43v-77h43v-394q0 -70 10 -88
q16 -29 78 -29q41 0 56 7z" />
    <glyph glyph-name="u" unicode="u" horiz-adv-x="485" 
d="M458 -39h-128v39h-18q-54 -46 -107 -46q-89 0 -114 63q-44 37 -44 162v433h141v-39h27v-446q0 -10 2 -23q12 -2 22 -2q34 0 45 17q8 13 8 47v446h139v-39h27v-612zM413 18v576h-103v-428q0 -82 -71 -82q-69 0 -69 82v428h-105v-415q0 -131 48 -156q22 -12 65 -12
q38 0 78 29q15 10 65 56v-78h92z" />
    <glyph glyph-name="v" unicode="v" horiz-adv-x="473" 
d="M456 324q0 -238 -109 -363h-167q-12 14 -37 50q-12 16 -33 50q-66 121 -66 302v249h139v-39h27v-228q0 -130 34 -247q46 135 46 286v228h139v-39h27v-249zM411 363v231h-103q0 -249 -4 -291q-10 -124 -67 -279q-57 159 -68 279q-4 44 -4 291h-103v-231q0 -231 99 -345
h151q99 114 99 345z" />
    <glyph glyph-name="w" unicode="w" horiz-adv-x="719" 
d="M701 324q0 -239 -108 -363h-147l-19 39h-8q-15 28 -39 89q-33 -83 -53 -128h-147q-10 11 -36 49q-11 16 -33 49q-67 121 -67 304v249h139v-39h27v-228q0 -130 34 -247q46 135 46 286v228h139v-39h27v-228q0 -129 33 -247q47 132 47 286v228h138v-39h27v-249zM656 363v231
h-102q0 -251 -4 -292q-11 -124 -70 -279q-54 161 -65 279q-4 47 -4 292h-103q0 -250 -4 -292q-10 -123 -67 -278q-57 159 -68 278q-4 45 -4 292h-103v-231q0 -231 99 -345h127q15 33 71 176l36 -93q10 -29 35 -83h128q98 113 98 345z" />
    <glyph glyph-name="x" unicode="x" horiz-adv-x="461" 
d="M450 -39h-140v39h-27q0 132 -33 263q-46 -156 -46 -302h-140v39h-27q0 217 62 333q-62 138 -62 279h140l1 -39h26q0 -124 33 -208q46 119 46 247h140l-1 -39h28q0 -137 -61 -278q61 -116 61 -334zM405 18q0 196 -63 315q63 145 63 261h-104q0 -110 -54 -251
q54 -196 54 -325h104zM217 342q-58 135 -58 252h-104q0 -119 64 -262q-64 -119 -64 -314h104q0 130 58 324z" />
    <glyph glyph-name="y" unicode="y" horiz-adv-x="473" 
d="M456 352q0 -145 -31 -254q-35 -121 -116 -227h-238v39h-27v90h106q-106 161 -106 391v221h139v-39h27q0 -235 1 -256q5 -135 34 -251q36 131 43 270q2 33 2 276h139v-39h27v-221zM411 391v203h-103v-209q0 -173 -71 -413q-72 243 -72 413v209h-103v-203q0 -224 121 -409
h-121v-54h211q77 101 109 219q29 104 29 244z" />
    <glyph glyph-name="z" unicode="z" horiz-adv-x="396" 
d="M395 445l-177 -317h140v-39h27v-128h-342v39h-27v115l185 329h-144v39h-27v129h338v-39h27v-128zM350 489v105h-302v-93h206l-220 -391v-92h306v92h-202z" />
    <glyph glyph-name="braceleft" unicode="{" horiz-adv-x="428" 
d="M446 -167h-29q-77 0 -115 9q-68 16 -85 66q-38 32 -38 135v126q0 38 -10 62q-33 26 -118 26v39h-27v102q79 0 113 24q42 29 42 104v125q0 65 12 96q19 49 85 66q39 10 114 10h29v-39h27v-105q-71 0 -95 -15q-34 -21 -34 -86v-121q0 -56 -7 -80q-11 -39 -48 -61
q13 -14 18 -29q37 -30 37 -129v-120q0 -25 5 -45q26 -16 97 -16v-39h27v-105zM401 -110v69q-66 0 -96 26q-33 28 -33 92v120q0 67 -15 92.5t-77 57.5q61 31 76.5 56t15.5 93v121q0 64 33 92q30 26 96 27v69h-11q-69 0 -101 -6q-62 -13 -80 -53q-12 -27 -12 -95v-125
q0 -146 -160 -146h5v-66q155 -3 155 -145v-126q0 -64 9 -91q16 -43 80 -56q29 -6 104 -6h11z" />
    <glyph glyph-name="bar" unicode="|" horiz-adv-x="569" 
d="M357 -219h-90v39h-27v901h90v-39h27v-901zM312 -162v865h-54v-865h54z" />
    <glyph glyph-name="braceright" unicode="}" horiz-adv-x="428" 
d="M431 257q-80 0 -114 -23q-41 -28 -41 -104v-126q0 -67 -12 -98q-18 -49 -86 -64q-36 -9 -113 -9h-29v39h-27v105q71 0 95 15q34 20 34 85v120q0 57 7 81q11 39 48 61q-13 14 -18 29q-37 30 -37 128v121q0 25 -5 45q-26 17 -97 17v39h-27v105h29q77 0 115 -10
q66 -17 85 -67q39 -34 39 -143q0 -15 -1 -45v-43q0 -60 10 -89q34 -28 118 -28v-39h27v-102zM391 314h-5v66q-155 3 -155 146v125q0 67 -12 95q-18 40 -80 53q-32 6 -101 6h-11v-69q66 -1 97.5 -28t31.5 -91v-121q0 -68 15.5 -93t76.5 -56q-62 -32 -77 -57.5t-15 -92.5v-120
q0 -64 -31.5 -91t-97.5 -27v-69h11q75 0 104 6q64 13 80 56q9 27 9 91v126q0 145 160 145z" />
    <glyph glyph-name="asciitilde" unicode="~" horiz-adv-x="853" 
d="M792 252q-101 -69 -189 -69q-49 0 -145.5 33t-148.5 33q-82 0 -193 -79v57l-27 -18v111q105 71 193 71q53 0 148 -29q125 -38 148 -38q82 0 187 78v-58l27 19v-111zM747 301v65q-81 -60 -169 -60q-26 0 -153 39q-91 28 -143 28q-84 0 -175 -63v-66q86 62 175 62
q60 0 172 -39q78 -27 122 -27q83 0 171 61z" />
    <glyph glyph-name="currency" unicode="&#xa4;" horiz-adv-x="720" 
d="M638 158l-52 -52l-102 101q-53 -38 -122 -38q-71 0 -124 38l-102 -101l-52 52l101 103q-37 53 -37 120q0 69 37 121l-101 103l52 53l102 -101q53 38 122 38q71 0 124 -38l102 101l52 -53l-102 -103q38 -51 38 -121q0 -67 -38 -120zM500 381q0 56 -41 97t-97 41t-97.5 -41
t-41.5 -97q0 -57 41 -97t98 -40q56 0 97 40.5t41 96.5z" />
    <glyph glyph-name="brokenbar" unicode="&#xa6;" horiz-adv-x="569" 
d="M357 299h-90v39h-27v380h90v-39h27v-380zM357 -215h-90v39h-27v381h90v-39h27v-381zM312 356v344h-54v-344h54zM312 -158v345h-54v-345h54z" />
    <glyph glyph-name="section" unicode="&#xa7;" horiz-adv-x="487" 
d="M457 272q0 -81 -44 -110l4 -8q37 -31 37 -105q0 -158 -187 -158q-134 0 -166 77q-31 29 -39 84q-4 25 -4 96h96v-39h27q0 -61 3 -72q19 -11 58 -11q91 0 91 55q-24 18 -85 43q-71 29 -96 44q-47 28 -59 61q-39 36 -39 113q0 74 43 99l-3 9q-36 30 -36 97q0 89 50 128
q44 35 136 35q57 0 102 -16q58 -22 72 -67h1q24 -20 31 -55q4 -20 4 -65v-55h-94v39h-27q0 59 -3 73q-19 11 -59 11q-88 0 -90 -55q30 -22 82 -44q44 -17 87 -35q53 -25 69 -67q38 -37 38 -102zM412 311q0 44 -15 70t-54 44q-61 26 -121 52q-86 42 -86 81q0 37 37 57
q31 17 71 17q107 0 107 -98v-25h58v37q0 43 -3 57q-5 31 -26 49q-46 40 -136 40q-87 0 -124 -29q-44 -33 -44 -116q0 -40 13 -61.5t49 -45.5q-37 -18 -51.5 -38t-14.5 -60q0 -53 16 -79.5t63 -49.5q59 -26 118 -51q82 -41 82 -82q0 -37 -38 -56q-30 -16 -71 -16
q-62 0 -85 32q-21 27 -21 90h-60v-22q0 -93 35 -126.5t129 -33.5q84 0 123 28q46 32 46 112q0 42 -13 65.5t-48 46.5q35 21 49.5 45.5t14.5 65.5zM358 279q0 -34 -46 -61q-188 68 -188 134q0 42 52 70q26 -9 76.5 -29.5t73.5 -40.5q32 -29 32 -73zM340 279q0 12 -3 23
q-26 21 -133 61q-35 -19 -35 -50v-3q1 -1 1 -2q36 -30 140 -70q30 17 30 41z" />
    <glyph glyph-name="copyright" unicode="&#xa9;" horiz-adv-x="853" 
d="M798 366q0 -155 -107 -260q-113 -111 -265 -111q-151 0 -260.5 110t-109.5 261q0 155 108 264.5t262 109.5q156 0 264 -109t108 -265zM732 368q0 133 -85 219q-90 91 -220 91q-132 0 -218.5 -89t-86.5 -221t87 -221t218 -89q127 0 221 92q84 83 84 218zM612 298
q-5 -73 -57.5 -113.5t-127.5 -40.5q-96 0 -150 63q-51 59 -51 157q0 99 51 160q54 66 151 66q71 0 120 -35q54 -39 58 -107h-94q-7 74 -86 74q-54 0 -79 -53q-19 -41 -19 -101q0 -151 102 -151q76 0 85 81h97z" />
    <glyph glyph-name="guillemotleft" unicode="&#xab;" horiz-adv-x="457" 
d="M454 25h-112l-11 39h-16l-70 239l70 245h112l-11 -39h38l-70 -245zM251 25h-113l-11 39h-16l-70 239l70 245h113l-11 -39h38l-70 -245zM403 82l-65 221l65 227h-74l-65 -227l64 -221h75zM200 82l-65 221l65 227h-75l-65 -227l64 -221h76z" />
    <glyph glyph-name="logicalnot" unicode="&#xac;" horiz-adv-x="720" 
d="M604 182h-87v153h-367v98h454v-251z" />
    <glyph glyph-name="registered" unicode="&#xae;" horiz-adv-x="853" 
d="M798 366q0 -154 -109 -262.5t-263 -108.5q-152 0 -261 109.5t-109 261.5q0 155 108 264.5t262 109.5q156 0 264 -109t108 -265zM732 362q0 137 -83 222q-92 94 -222 94q-131 0 -218 -89.5t-87 -220.5q0 -133 84 -218q93 -94 220 -94q125 0 220 92q86 83 86 214zM612 168
h-112l-78 169h-50v-169h-100v412h162q176 0 176 -118q0 -88 -90 -110zM507 456q0 61 -90 61h-45v-119h50q85 0 85 58z" />
    <glyph glyph-name="degree" unicode="&#xb0;" horiz-adv-x="364" 
d="M371 543q0 -66 -48 -109.5t-114 -43.5q-82 0 -129 60q-5 10 -17 28q-5 6 -14 17q-28 39 -28 87q0 66 48 109t114 43q80 0 128 -61q6 -10 18 -28q5 -6 14 -17q28 -38 28 -85zM326 582q0 59 -41.5 96.5t-101.5 37.5q-61 0 -102.5 -37t-41.5 -97q0 -61 41 -98t102 -37
t102.5 37.5t41.5 97.5zM293 582q0 -47 -31.5 -77t-78.5 -30q-48 0 -79.5 29.5t-31.5 77.5t31.5 77t79.5 29q47 0 78.5 -29.5t31.5 -76.5zM275 582q0 14 -5 31q-23 18 -60 18q-42 0 -67.5 -23t-25.5 -65q0 -15 5 -32q25 -18 61 -18q42 0 67 24t25 65z" />
    <glyph glyph-name="plusminus" unicode="&#xb1;" horiz-adv-x="720" 
d="M655 350h-250v-163h-90v163h-250v99h250v165h90v-165h250v-99zM655 -1h-590v99h590v-99z" />
    <glyph glyph-name="paragraph" unicode="&#xb6;" horiz-adv-x="720" 
d="M550 686h-58v-686h-52v686h-108v-686h-52v393q-85 3 -135 45q-55 46 -55 129t54 130q51 45 135 45h271v-56z" />
    <glyph glyph-name="guillemotright" unicode="&#xbb;" horiz-adv-x="457" 
d="M444 268l-72 -245h-112l11 39h-38l70 245l-70 240h112l12 -39h15zM239 268l-70 -245h-113l11 39h-38l71 245l-71 240h113l11 -39h16zM398 307l-66 222h-75l65 -222l-65 -227h75zM193 307l-65 222h-75l66 -222l-66 -227h75z" />
    <glyph glyph-name="mu" unicode="&#xb5;" horiz-adv-x="720" 
d="M615 564l-89 -564h-80l-5 109q-56 -109 -117 -109q-65 0 -109 90l-28 -180h-107l107 654h108l-35 -219q-13 -81 -13 -134q0 -93 90 -93q63 0 96 66q18 38 32 122l43 258h107z" />
    <glyph glyph-name="mu" unicode="&#x3bc;" horiz-adv-x="720" 
d="M615 564l-89 -564h-80l-5 109q-56 -109 -117 -109q-65 0 -109 90l-28 -180h-107l107 654h108l-35 -219q-13 -81 -13 -134q0 -93 90 -93q63 0 96 66q18 38 32 122l43 258h107z" />
    <glyph glyph-name="afii10023" unicode="&#x401;" horiz-adv-x="426" 
d="M370 715h-88v39h-27v100h88v-39h27v-100zM210 715h-87v39h-27v100h87v-39h27v-100zM417 -39h-333v39h-27v702h324v-39h27v-132h-177v-84h159v-39h27v-126h-186v-150h159v-39h27v-132zM325 772v64h-52v-64h52zM165 772v64h-51v-64h51zM372 18v96h-186v225h186v90h-186v159
h177v96h-288v-666h297z" />
    <glyph glyph-name="afii10017" unicode="&#x410;" horiz-adv-x="498" 
d="M486 -39h-150v39h-27v96h-93v-135h-150v39h-27v137q0 384 141 565h137q55 -74 82 -128q87 -176 87 -476v-137zM441 18v119q0 373 -133 547h-119q-132 -170 -132 -547v-119h114v135h156v-135h114zM327 234h-156q0 115 19 210q17 87 59 202q42 -115 59 -202q19 -95 19 -210
zM309 252q0 154 -40 284q-48 -136 -52 -284h92z" />
    <glyph glyph-name="afii10018" unicode="&#x411;" horiz-adv-x="522" 
d="M510 186q0 -126 -38 -173q-43 -52 -166 -52h-222v39h-27v702h390v-39h27v-132h-243v-77q19 2 52 2q106 0 153 -57q6 -10 20 -31q7 -8 19 -25q35 -55 35 -157zM465 225q0 109 -36 157q-42 56 -146 56q-38 0 -97 -9v159h243v96h-354v-666h204q116 0 154 46q32 40 32 161z
M351 225q0 -111 -108 -111h-57v226q45 8 78 8q52 0 72 -38q15 -28 15 -85zM333 225q0 40 -5 59q-14 7 -37 7q-30 0 -60 -5v-154h12q51 0 70.5 21t19.5 72z" />
    <glyph glyph-name="afii10019" unicode="&#x412;" horiz-adv-x="527" 
d="M509 165q0 -116 -43.5 -160t-159.5 -44h-222v39h-27v702h215q72 0 108 -10q60 -16 79 -65q41 -36 41 -138q0 -83 -61 -131l24 -36q6 -7 17 -22q29 -45 29 -135zM464 204q0 72 -18.5 109t-76.5 77q86 58 86 138q0 101 -42 131q-33 25 -141 25h-197v-666h204q111 0 148 38
t37 148zM339 514q0 -92 -101 -92h-52v170h79q74 0 74 -78zM348 216q0 -56 -24 -79t-81 -23h-57v227h68q48 0 73 -40q21 -34 21 -85zM321 514q0 12 -1 17q-11 4 -28 4h-61v-95h7q83 0 83 74zM330 216q0 35 -8 56q-16 12 -41 12h-50v-152h12q51 0 69 16.5t18 67.5z" />
    <glyph glyph-name="afii10020" unicode="&#x413;" horiz-adv-x="390" 
d="M390 529h-159v-568h-147v39h-27v702h306v-39h27v-134zM345 586v98h-270v-666h111v568h159z" />
    <glyph glyph-name="afii10021" unicode="&#x414;" horiz-adv-x="543" 
d="M564 -159h-132v39h-27v81h-246v-120h-132v39h-27v249h54q0 123 10 210q15 128 56 208q49 97 147 155h207v-39h27v-534h36v-39h27v-249zM519 -102v213h-63v573h-184q-95 -56 -140 -152q-37 -77 -50 -204q-10 -89 -10 -217h-54v-213h96v120h309v-120h96zM342 111h-156
q0 116 7 192q11 107 41 173q33 73 108 140v-505zM324 129v381q-59 -64 -80 -180q-11 -67 -13 -201h93z" />
    <glyph glyph-name="afii10022" unicode="&#x415;" horiz-adv-x="426" 
d="M417 -39h-333v39h-27v702h324v-39h27v-132h-177v-84h159v-39h27v-126h-186v-150h159v-39h27v-132zM372 18v96h-186v225h186v90h-186v159h177v96h-288v-666h297z" />
    <glyph glyph-name="afii10024" unicode="&#x416;" horiz-adv-x="768" 
d="M756 643q0 -160 -117 -279q42 -56 57 -85q59 -107 59 -271v-47h-149v39h-27q0 200 -41 283q-28 -18 -55 -31v-291h-144v39h-27v266l-31 19q-43 -61 -57 -156q-8 -56 -8 -168h-149v39h-27v47q0 227 115 349q-6 8 -33 46q-10 13 -28 40q-55 90 -55 200v10q1 7 1 10h149
l1 -39h26q0 -112 33 -185q4 -9 13 -25q15 -21 50 -49v298h144v-39h27v-236q96 93 96 275h149v-39h27q0 -3 1 -10v-10zM711 682q0 3 -1 6v-4h-113q0 -194 -159 -317v317h-108v-317q-159 123 -159 317h-113v4l-1 -6q0 -154 127 -282q-76 -78 -104 -177q-22 -77 -22 -205h113
q0 109 12 173q17 88 66 158q35 -24 81 -47v-284h108v284q46 23 81 47q49 -70 66 -158q12 -64 12 -173h113v29q0 224 -126 353q127 128 127 282z" />
    <glyph glyph-name="afii10025" unicode="&#x417;" horiz-adv-x="513" 
d="M495 165q0 -120 -47 -166.5t-169 -46.5q-118 0 -170 57q-7 11 -24 36q-7 8 -20 26q-26 44 -26 115q0 46 5 75h145v-39h27q0 -75 3 -95q12 -4 33 -4q35 0 49 15t14 51v58q0 9 -2 22q-16 7 -91 7v39h-27v126q66 0 81 6q33 12 33 66q0 16 -1 24q-12 3 -29 3q-43 0 -53 -26
q-4 -11 -4 -65h-140q-4 21 -4 39h-23q-4 24 -4 44q0 99 51 141q47 38 150 38q153 0 188 -81q43 -40 43 -141q0 -83 -61 -131q1 -1 26 -38q7 -8 19 -24q28 -45 28 -131zM450 204q0 71 -20 108.5t-78 77.5q86 58 86 138q0 100 -43 134q-39 31 -143 31q-98 0 -138 -32
q-45 -36 -45 -129q0 -6 1 -26h107q0 47 14 67q17 24 61 24q75 0 75 -84q0 -90 -86 -90h-28v-90h33q63 0 79 -45q8 -21 8 -99q0 -84 -81 -84q-58 0 -73 43q-8 22 -8 95h-112q-2 -28 -2 -57q0 -97 50 -139q45 -38 145 -38q116 0 157 40.5t41 154.5z" />
    <glyph glyph-name="afii10026" unicode="&#x418;" horiz-adv-x="540" 
d="M510 -39h-150v39h-27v134q-42 -91 -109 -173h-140v39h-27v702h150v-39h27v-436q63 97 84 229q15 89 15 246h150v-39h27v-702zM465 18v666h-114q0 -181 -29 -290q-35 -132 -133 -258v548h-114v-666h113q76 91 163 314v-314h114z" />
    <glyph glyph-name="afii10027" unicode="&#x419;" horiz-adv-x="540" 
d="M510 -39h-150v39h-27v134q-42 -91 -109 -173h-140v39h-27v702h150v-39h27v-436q62 95 84 225q15 90 15 241q-17 -3 -36 -3q-88 0 -120 71q-28 26 -38 74l65 17q4 -26 17 -41l10 2l3 -13q14 -8 36 -8q59 0 66 60l65 -17q-3 -16 -9 -30l36 -9q-14 -71 -69 -94h124v-39h27
v-702zM380 822l-29 7q0 -5 -6 -15q-22 -40 -75 -40t-75 40q-6 10 -6 15l-29 -7q15 -75 110 -75t110 75zM465 18v666h-114q0 -181 -29 -290q-35 -132 -133 -258v548h-114v-666h113q76 91 163 314v-314h114z" />
    <glyph glyph-name="afii10028" unicode="&#x41a;" horiz-adv-x="519" 
d="M504 643q0 -160 -117 -279q42 -56 57 -85q59 -107 59 -271v-47h-149v39h-27q0 200 -41 283q-28 -18 -55 -31v-291h-147v39h-27v702h147v-39h27v-236q96 93 96 275h149v-39h27q0 -3 1 -10v-10zM459 682q0 3 -1 6v-4h-113q0 -194 -159 -317v317h-111v-666h111v284
q46 23 81 47q49 -70 66 -158q12 -64 12 -173h113v29q0 224 -126 353q127 128 127 282z" />
    <glyph glyph-name="afii10029" unicode="&#x41b;" horiz-adv-x="525" 
d="M495 -39h-150v39h-27v510q-47 -52 -68 -135q-15 -56 -21 -151q-4 -69 -4 -165v-98h-150v39h-27v105q0 147 13 245q16 124 56 202q48 93 144 150h207v-39h27v-702zM450 18v666h-184q-97 -58 -143 -158q-36 -79 -49 -212q-8 -86 -8 -209v-87h114v80q0 137 10 221
q12 101 42 164q33 70 104 133v-598h114z" />
    <glyph glyph-name="afii10030" unicode="&#x41c;" horiz-adv-x="798" 
d="M768 -39h-150v39h-27v506q-56 -69 -77 -151q-16 -63 -16 -169v-225h-144v39h-27v225q0 152 -40 238q-6 12 -18 33q-8 12 -35 41v-576h-150v39h-27v702h207q49 -42 77 -80q7 -10 21 -31q28 -38 42 -68q37 97 130 179h207v-39h27v-702zM723 18v666h-182q-54 -48 -87 -104
q-27 -46 -55 -126q-28 80 -55 126q-33 56 -87 104h-182v-666h114v603q89 -94 122.5 -180t33.5 -216v-207h108v207q0 130 33.5 216t122.5 180v-603h114z" />
    <glyph glyph-name="afii10031" unicode="&#x41d;" horiz-adv-x="531" 
d="M501 -39h-150v39h-27v282h-90v-321h-150v39h-27v702h150v-39h27v-216h90v255h150v-39h27v-702zM456 18v666h-114v-255h-153v255h-114v-666h114v321h153v-321h114z" />
    <glyph glyph-name="afii10032" unicode="&#x41e;" horiz-adv-x="519" 
d="M499 188q0 -126 -43 -178q-48 -58 -170 -58q-114 0 -161 49q-9 12 -26 38q-8 9 -23 32q-29 53 -29 156v248q0 126 43 178q47 58 169 58q146 0 187 -86q53 -52 53 -189v-248zM454 227v248q0 122 -37 167q-41 51 -158 51t-158 -51q-36 -46 -36 -167v-248q0 -120 37 -166
q41 -52 157 -52t158 51q37 46 37 167zM336 191q0 -86 -77 -86q-78 0 -78 80v332q0 80 78 80q77 0 77 -85v-321zM318 191v321q0 10 -2 24q-11 4 -30 4q-34 0 -47 -13.5t-13 -48.5v-336q0 -9 1 -15q12 -4 32 -4q38 0 50 17q9 13 9 51z" />
    <glyph glyph-name="afii10033" unicode="&#x41f;" horiz-adv-x="531" 
d="M501 -39h-150v39h-27v537h-90v-576h-150v39h-27v702h417v-39h27v-702zM456 18v666h-381v-666h114v576h153v-576h114z" />
    <glyph glyph-name="afii10034" unicode="&#x420;" horiz-adv-x="516" 
d="M510 410q0 -259 -200 -259q-40 0 -79 6v-196h-147v39h-27v702h196q128 0 181 -64q7 -10 21 -32q7 -9 21 -29q34 -59 34 -167zM465 449q0 126 -43 178q-47 57 -169 57h-178v-666h111v199q59 -9 97 -9q182 0 182 241zM351 447q0 -65 -13 -98q-20 -51 -74 -51q-33 0 -78 8
v282h57q63 0 88 -41q20 -32 20 -100zM333 447q0 48 -8 72q-17 12 -55 12h-39v-214q11 -1 33 -1q47 0 61 46q8 24 8 85z" />
    <glyph glyph-name="afii10035" unicode="&#x421;" horiz-adv-x="511" 
d="M499 188q0 -126 -43 -178q-48 -58 -170 -58q-116 0 -163 51l-24 36q-8 9 -23 32q-29 53 -29 156v248q0 126 43 178q47 57 169 57q147 0 188 -86q38 -37 48 -112q4 -33 4 -126h-154v39h-27q0 97 -2 110q-11 4 -30 4q-34 0 -47 -13t-13 -48v-332q0 -13 1 -19q12 -4 32 -4
q38 0 50 17q9 13 9 51v120h154v-39h27v-84zM454 293h-118v-102q0 -86 -77 -86q-78 0 -78 80v332q0 79 78 79q77 0 77 -84v-69h118v32q0 121 -37 166q-41 51 -158 51q-116 0 -157 -51q-37 -45 -37 -166v-248q0 -120 37 -166q41 -52 157 -52q97 0 142 36q38 31 48 99
q5 34 5 149z" />
    <glyph glyph-name="afii10036" unicode="&#x422;" horiz-adv-x="401" 
d="M408 535h-106v-574h-151v39h-27v535h-78v39h-27v128h362v-39h27v-128zM363 592v92h-326v-92h105v-574h115v574h106z" />
    <glyph glyph-name="afii10037" unicode="&#x423;" horiz-adv-x="498" 
d="M486 528q0 -181 -26 -299q-35 -161 -127 -268h-267v39h-27v132h78q-78 169 -78 435v135h150v-39h27q0 -224 1 -248q6 -156 37 -241q37 82 49 197q6 65 6 205v126h150v-39h27v-135zM441 567v117h-114q0 -230 -5 -287q-14 -152 -73 -275q-51 104 -67 222q-11 79 -11 232
v108h-114v-117q0 -135 17 -232q21 -112 71 -221h-88v-96h241q86 101 119 260q24 113 24 289z" />
    <glyph glyph-name="afii10038" unicode="&#x424;" horiz-adv-x="777" 
d="M768 327q0 -115 -42 -169q-48 -62 -158 -62q-40 0 -79 6v-141h-147v39h-27v98q-19 -2 -52 -2q-106 0 -153 57q-6 10 -20 31q-7 8 -19 25q-35 55 -35 157q0 126 38 173q43 52 166 52h75v111h147v-39h27v-72q99 0 131 -7q74 -16 100 -74q48 -45 48 -183zM723 366
q0 121 -32 161q-38 46 -154 46h-93v111h-111v-111h-93q-116 0 -154 -46q-32 -40 -32 -161q0 -109 36 -157q42 -56 146 -56q38 0 97 9v-144h111v144q59 -9 97 -9q104 0 146 56q36 48 36 157zM609 366q0 -57 -15 -85q-20 -38 -72 -38q-33 0 -78 8v226h57q108 0 108 -111z
M333 251q-45 -8 -78 -8q-52 0 -72 38q-15 28 -15 85q0 111 108 111h57v-226zM591 366q0 26 -4 42q-21 12 -59 12h-39v-158q11 -1 33 -1q45 0 59 32q10 21 10 73zM315 266v154h-12q-51 0 -70.5 -21t-19.5 -72q0 -40 5 -59q14 -7 37 -7q30 0 60 5z" />
    <glyph glyph-name="afii10039" unicode="&#x425;" horiz-adv-x="510" 
d="M495 -39h-150v39h-27q0 104 -6 159q-9 78 -36 154q-37 -95 -48 -172q-9 -61 -9 -180h-150v39h-27v20q0 220 67 370q-67 136 -67 312h150v-39h27q0 -195 40 -291q39 72 51 161q8 57 8 169h150v-39h27v-21q0 -155 -67 -291q41 -92 56 -192q11 -76 11 -198zM450 18v2
q0 216 -69 370q69 137 69 294h-114q0 -210 -60 -319q37 -93 49 -172q11 -67 11 -175h114zM234 365q-60 109 -60 319h-114v-3q0 -154 69 -291q-69 -154 -69 -372h114q0 108 11 175q12 79 49 172z" />
    <glyph glyph-name="afii10040" unicode="&#x426;" horiz-adv-x="540" 
d="M567 -159h-132v39h-27v81h-321v39h-27v702h150v-39h27v-534h90v573h150v-39h27v-534h36v-39h27v-249zM522 -102v213h-63v573h-114v-573h-153v573h-114v-666h348v-120h96z" />
    <glyph glyph-name="afii10041" unicode="&#x427;" horiz-adv-x="519" 
d="M489 -39h-147v39h-27v210q-18 -2 -52 -2q-94 0 -144 60q-7 11 -22 33q-9 11 -24 34q-37 65 -37 171v196h150v-39h27v-198q0 -57 8 -84q14 -8 34 -8q30 0 60 5v324h147v-39h27v-702zM444 18v666h-111v-321q-45 -8 -78 -8q-54 0 -74 51q-13 33 -13 98v180h-114v-178
q0 -241 182 -241q38 0 97 9v-256h111z" />
    <glyph glyph-name="afii10042" unicode="&#x428;" horiz-adv-x="762" 
d="M729 -39h-642v39h-27v702h150v-39h27v-534h72v573h144v-39h27v-534h72v573h150v-39h27v-702zM684 18v666h-114v-573h-135v573h-108v-573h-135v573h-114v-666h606z" />
    <glyph glyph-name="afii10043" unicode="&#x429;" horiz-adv-x="765" 
d="M792 -159h-132v39h-27v81h-546v39h-27v702h150v-39h27v-534h72v573h144v-39h27v-534h72v573h150v-39h27v-534h36v-39h27v-249zM747 -102v213h-63v573h-114v-573h-135v573h-108v-573h-135v573h-114v-666h573v-120h96z" />
    <glyph glyph-name="afii10044" unicode="&#x42a;" horiz-adv-x="555" 
d="M543 186q0 -126 -38 -173q-43 -52 -166 -52h-222v39h-27v535h-63v39h-27v128h237v-39h27v-209q19 2 52 2q106 0 153 -57q6 -10 20 -31q7 -8 19 -25q35 -55 35 -157zM498 225q0 109 -36 157q-42 56 -146 56q-38 0 -97 -9v255h-201v-92h90v-574h204q116 0 154 46
q32 40 32 161zM384 225q0 -111 -108 -111h-57v226q45 8 78 8q52 0 72 -38q15 -28 15 -85zM366 225q0 40 -5 59q-14 7 -37 7q-30 0 -60 -5v-154h12q51 0 70.5 21t19.5 72z" />
    <glyph glyph-name="afii10045" unicode="&#x42b;" horiz-adv-x="762" 
d="M729 -39h-150v39h-27v702h150v-39h27v-702zM507 186q0 -126 -38 -173q-43 -52 -166 -52h-216v39h-27v702h147v-39h27v-209q17 2 46 2q106 0 153 -57q6 -10 20 -31q7 -8 19 -25q35 -55 35 -157zM684 18v666h-114v-666h114zM462 225q0 109 -36 157q-42 56 -146 56
q-39 0 -91 -10v256h-111v-666h198q116 0 154 46q32 40 32 161zM348 225q0 -111 -108 -111h-51v226q41 8 72 8q52 0 72 -38q15 -28 15 -85zM330 225q0 40 -5 59q-14 7 -37 7q-27 0 -54 -5v-154h6q51 0 70.5 21t19.5 72z" />
    <glyph glyph-name="afii10046" unicode="&#x42c;" horiz-adv-x="522" 
d="M510 186q0 -126 -38 -173q-43 -52 -166 -52h-222v39h-27v702h147v-39h27v-209q19 2 52 2q106 0 153 -57q6 -10 20 -31q7 -8 19 -25q35 -55 35 -157zM465 225q0 109 -36 157q-42 56 -146 56q-38 0 -97 -9v255h-111v-666h204q116 0 154 46q32 40 32 161zM351 225
q0 -111 -108 -111h-57v226q45 8 78 8q52 0 72 -38q15 -28 15 -85zM333 225q0 40 -5 59q-14 7 -37 7q-30 0 -60 -5v-154h12q51 0 70.5 21t19.5 72z" />
    <glyph glyph-name="afii10047" unicode="&#x42d;" horiz-adv-x="516" 
d="M495 188q0 -126 -43 -178q-48 -58 -170 -58q-118 0 -165 53q-8 11 -23 34q-8 9 -22 30q-30 53 -30 158v34h150v-39h27q0 -82 2 -95q13 -4 34 -4q35 0 49 15t14 51v87h-99v39h-27v126h126v72q0 10 -2 22q-15 5 -34 5q-45 0 -57 -25q-6 -14 -6 -66h-150q0 26 1 39h-28
q0 126 45 174.5t168 48.5q71 0 110 -13q58 -20 81 -71q49 -49 49 -178v-261zM450 227v261q0 120 -39 162.5t-156 42.5q-113 0 -154 -37.5t-41 -149.5h114q0 46 18 68.5t63 22.5q81 0 81 -84v-90h-126v-90h126v-144q0 -84 -81 -84q-61 0 -75 43q-6 18 -6 95h-114v-16
q0 -121 37 -167q42 -51 158 -51t158 52q37 46 37 166z" />
    <glyph glyph-name="afii10048" unicode="&#x42e;" horiz-adv-x="741" 
d="M729 188q0 -124 -40 -176q-45 -60 -164 -60q-109 0 -154 48q-8 12 -25 37q-8 8 -23 32q-29 53 -29 158v55h-63v-321h-147v39h-27v702h147v-39h27v-225h63q0 146 30 198q42 75 174 75q138 0 178 -84q53 -52 53 -191v-248zM684 227v248q0 119 -33 164q-40 54 -153 54
t-153 -54q-33 -45 -33 -164v-55h-126v264h-111v-666h111v321h126v-112q0 -119 34 -164q40 -54 152 -54t152 54q34 45 34 164zM573 191q0 -86 -74 -86q-76 0 -76 80v332q0 80 76 80q74 0 74 -85v-321zM555 191v321q0 11 -2 25q-11 3 -27 3q-34 0 -46 -14t-12 -48v-336
q0 -9 1 -15q11 -4 30 -4q36 0 47 17q9 13 9 51z" />
    <glyph glyph-name="afii10049" unicode="&#x42f;" horiz-adv-x="531" 
d="M498 -39h-150v39h-27v278l-33 -1q-75 -139 -75 -316h-150l1 39h-28q0 168 89 332q-9 14 -28 41q-5 7 -7.5 9.5t-8.5 10.5q-35 51 -35 110q0 199 223 199h202v-39h27v-702zM453 18v666h-184q-102 0 -151 -39q-54 -43 -54 -142q0 -92 91 -155q-101 -177 -101 -330h114
q0 164 82 316q39 0 89 8v-324h114zM345 430q-46 -13 -76 -13q-91 0 -91 93q0 86 97 86h70v-166zM327 444v95h-25q-79 0 -79 -68q0 -20 2 -28q15 -8 44 -8q26 0 58 9z" />
    <glyph glyph-name="afii10065" unicode="&#x430;" horiz-adv-x="468" 
d="M447 -39h-130v39h-20q-54 -49 -102 -49q-89 0 -117 69q-39 36 -39 113v91q0 67 27 103q24 34 88 61h-74v39h-27v40q0 85 49 121q42 32 131 32q136 0 171 -80q43 -40 43 -134v-445zM281 435v16v8q-1 5 -1 8q-11 3 -25 3q-33 0 -43 -14.5t-10 -49.5q3 1 79 29zM402 18v427
q0 90 -40 125q-37 32 -129 32q-83 0 -119 -26q-43 -30 -43 -109v-22h86q0 82 71 82q48 0 62 -32q9 -18 9 -73q-42 -14 -124 -46q-66 -27 -89 -54q-29 -33 -29 -98v-91q0 -125 111 -125q17 0 29 4q33 12 111 90v-84h94zM299 166q0 -82 -71 -82t-71 82v37q0 42 17 69
q15 24 52 49q27 17 73 40v-195zM281 166v113q-44 -25 -59 -45q-20 -26 -20 -70v-37q0 -10 2 -23q7 -2 24 -2q33 0 44 16q9 12 9 48z" />
    <glyph glyph-name="afii10066" unicode="&#x431;" horiz-adv-x="480" 
d="M464 129q0 -102 -47 -142q-42 -35 -147 -35q-147 0 -180 79q-42 41 -42 137v319q0 87 11 130q20 74 79 94q37 13 119 13q77 0 138 21l21 -41l6 2l42 -82q-69 -35 -163 -35q-76 0 -88 -41q35 9 64 9q112 0 143 -71q44 -40 44 -144v-213zM419 168v213q0 88 -27 121
q-30 37 -115 37q-55 0 -112 -35v60q0 82 109 82q91 0 139 25l-27 52q-49 -17 -129 -17q-76 0 -109 -10q-68 -20 -79 -128q-3 -33 -3 -81v-319q0 -97 41 -130q36 -29 136 -29t136 29q40 33 40 130zM314 159q0 -75 -71 -75q-72 0 -72 75v236q0 75 72 75q71 0 71 -75v-236z
M296 159v236v8q-1 5 -1 8q-7 2 -19 2h-10q-30 0 -40 -13.5t-10 -43.5v-236v-8q1 -5 1 -8q7 -2 19 -2h11q30 0 40 15q9 12 9 42z" />
    <glyph glyph-name="afii10067" unicode="&#x432;" horiz-adv-x="461" 
d="M461 139q0 -97 -42.5 -137.5t-140.5 -40.5h-197v39h-27v612h191q64 0 96 -9q52 -15 68 -60q38 -31 38 -122q0 -70 -52 -113q7 -11 23 -35q6 -7 17 -21q26 -40 26 -113zM416 178q0 61 -19 95q-18 30 -70 67q75 52 75 120q0 88 -35 113q-29 21 -122 21h-173v-576h179
q92 0 128.5 34.5t36.5 125.5zM306 448q0 -82 -91 -82h-47v152h71q67 0 67 -70zM314 188q0 -50 -22 -70.5t-72 -20.5h-52v203h61q43 0 66 -36q19 -30 19 -76zM288 448v6q-1 3 -1 5q-6 2 -17 2h-57v-77h2q73 0 73 64zM296 188q0 25 -6 46q-13 9 -34 9h-43v-128h7
q45 0 60.5 14.5t15.5 58.5z" />
    <glyph glyph-name="afii10068" unicode="&#x433;" horiz-adv-x="348" 
d="M357 456h-138v-495h-138v39h-27v612h276v-39h27v-117zM312 513v81h-240v-576h102v495h138z" />
    <glyph glyph-name="afii10069" unicode="&#x434;" horiz-adv-x="488" 
d="M509 -129h-120v39h-27v51h-215v-90h-120v39h-27v204h52q0 107 9 183q13 111 49 181q42 83 128 134h184v-39h27v-459h33v-39h27v-204zM464 -72v168h-60v498h-161q-82 -48 -121 -131q-32 -67 -44 -177q-8 -78 -8 -190h-52v-168h84v90h278v-90h84zM305 96h-139q0 103 6 169
q10 95 36 153q30 64 97 124v-446zM287 114v322q-48 -55 -65 -153q-10 -58 -11 -169h76z" />
    <glyph glyph-name="afii10070" unicode="&#x435;" horiz-adv-x="473" 
d="M458 148q0 -110 -42.5 -153t-151.5 -43q-142 0 -177 80q-45 42 -45 155v237q0 109 43 152.5t152 43.5q141 0 176 -80q45 -44 45 -155v-138h-250v-120q0 -10 2 -22q11 -3 27 -3q34 0 46 17q9 13 9 47v58h139v-39h27v-37zM413 206h-103q0 -64 -7 -83q-14 -39 -66 -39
q-74 0 -74 82v138h250v120q0 104 -36 141t-140 37q-103 0 -140 -37.5t-37 -140.5v-237q0 -104 36.5 -141t140.5 -37q111 0 146 44q30 38 30 153zM310 376h-147v65q0 86 74 86q73 0 73 -86v-65zM292 394v47q0 12 -2 26q-11 3 -26 3q-35 0 -47 -18q-9 -14 -9 -50v-8h84z" />
    <glyph glyph-name="afii10072" unicode="&#x436;" horiz-adv-x="706" 
d="M694 552q0 -137 -102 -239q6 -9 17 -25t31 -47q53 -94 53 -239v-41h-139v39h-27q0 168 -33 241q-18 -12 -47 -26v-254h-138v39h-24v228l-23 15q-37 -53 -50 -136q-7 -49 -7 -146h-139v39h-27v41q0 197 99 303q-2 3 -28 41q-9 11 -25 35q-47 77 -47 171v10q1 8 1 11h139
q0 -25 1 -39h26q0 -95 29 -160q3 -8 12 -22.5t39 -38.5v260h135v-39h27v-197q80 81 80 236h139q1 -47 1 -39h26q0 -3 1 -11v-10zM649 591q0 4 -1 7v-4h-103q0 -168 -143 -279v279h-99v-279q-143 111 -143 279h-103v4l-1 -7q0 -130 112 -242q-66 -68 -91 -153
q-20 -68 -20 -178h103q0 95 11 151q16 76 59 138q33 -23 73 -42v-247h99v247q40 19 73 42q43 -62 59 -138q11 -56 11 -151h103v23q0 194 -111 308q112 112 112 242z" />
    <glyph glyph-name="afii10073" unicode="&#x437;" horiz-adv-x="456" 
d="M443 139q0 -104 -43.5 -145t-149.5 -41q-132 0 -170 83q-43 42 -43 126q0 36 4 66h127v-39h27q0 -69 2 -80q8 -2 26 -2q55 0 55 58v50q0 11 -1 16q-11 5 -77 5v39h-27v109q58 0 70 5q29 11 29 58v9q-1 6 -1 8q-11 2 -21 2q-38 0 -46 -23q-4 -10 -4 -57h-122q-4 22 -4 39
h-23q-4 22 -4 39q0 86 45 123q41 33 131 33q138 0 168 -75q40 -36 40 -124q0 -67 -54 -111q15 -17 23 -35q43 -42 43 -136zM398 178q0 63 -19.5 96.5t-74.5 63.5q82 56 82 122q0 86 -39 116q-34 26 -124 26q-84 0 -119 -27q-39 -31 -39 -111q0 -4 1 -21h89q0 41 14.5 60.5
t53.5 19.5q67 0 67 -76q0 -81 -77 -81h-22v-73h26q57 0 72 -40q7 -19 7 -88q0 -76 -73 -76q-51 0 -65 38q-8 20 -8 83h-93q-2 -24 -2 -48q0 -84 43 -119q39 -33 125 -33q100 0 137.5 35t37.5 133z" />
    <glyph glyph-name="afii10074" unicode="&#x438;" horiz-adv-x="471" 
d="M459 -39h-138v39h-27v95q-42 -84 -99 -134h-126v39h-27v612h138v-39h27v-360q56 68 75 191q12 75 12 208h138v-39h27v-612zM414 18v576h-102v-44q0 -282 -150 -401v445h-102v-576h101q67 58 151 268v-268h102z" />
    <glyph glyph-name="afii10075" unicode="&#x439;" horiz-adv-x="471" 
d="M395 724q-21 -106 -131 -106q-88 0 -120 71q-28 26 -38 74l65 17q4 -27 17 -41l10 2l3 -13q14 -8 36 -8q59 0 66 60l65 -17q-3 -16 -9 -30zM459 -39h-138v39h-27v95q-42 -84 -99 -134h-126v39h-27v612h138v-39h27v-360q56 68 75 191q12 75 12 208h138v-39h27v-612z
M347 750l-29 7q0 -5 -6 -15q-22 -40 -75 -40t-75 40q-6 10 -6 15l-29 -7q15 -75 110 -75t110 75zM414 18v576h-102v-44q0 -282 -150 -401v445h-102v-576h101q67 58 151 268v-268h102z" />
    <glyph glyph-name="afii10076" unicode="&#x43a;" horiz-adv-x="481" 
d="M466 552q0 -137 -102 -239q6 -9 17 -25t31 -47q53 -94 53 -239v-41h-139v39h-27q0 168 -33 241q-18 -12 -47 -26v-254h-138v39h-27v612h138v-39h27v-197q80 81 80 236h139q1 -47 1 -39h26q0 -3 1 -11v-10zM421 591q0 4 -1 7v-4h-103q0 -168 -143 -279v279h-102v-576h102
v247q40 19 73 42q43 -62 59 -138q11 -56 11 -151h103v23q0 194 -111 308q112 112 112 242z" />
    <glyph glyph-name="afii10077" unicode="&#x43b;" horiz-adv-x="476" 
d="M449 -39h-138v39h-27v432q-53 -66 -69 -185q-8 -63 -8 -201v-85h-138v39h-27v92q0 184 30 289q44 151 163 231h187v-39h27v-612zM404 18v576h-164q-113 -76 -153 -224q-27 -99 -27 -278v-74h102v67q0 108 7 176q10 94 39 156t94 130v-529h102z" />
    <glyph glyph-name="afii10078" unicode="&#x43c;" horiz-adv-x="704" 
d="M677 -39h-132v39h-27v430q-76 -102 -76 -298v-171h-126v39h-27v171q0 212 -76 292v-502h-132v39h-27v612h171q43 -37 102 -115q10 -13 29 -42q38 83 122 157h172v-39h27v-612zM632 18v576h-147q-80 -69 -133 -192q-53 122 -134 192h-146v-576h96v529q75 -78 107 -164
q27 -70 32 -169v-196h90q0 184 1 196q4 98 31 169q32 85 107 164v-529h96z" />
    <glyph glyph-name="afii10079" unicode="&#x43d;" horiz-adv-x="495" 
d="M468 -39h-138v39h-27v240h-84v-279h-138v39h-27v612h138v-39h27v-177h84v216h138v-39h27v-612zM423 18v576h-102v-216h-147v216h-102v-576h102v279h147v-279h102z" />
    <glyph glyph-name="afii10080" unicode="&#x43e;" horiz-adv-x="471" 
d="M457 148q0 -110 -42.5 -153t-151.5 -43q-142 0 -177 80q-45 42 -45 155v237q0 109 43 152.5t152 43.5q141 0 176 -80q45 -44 45 -155v-237zM412 187v237q0 104 -36 141t-140 37q-103 0 -140 -37.5t-37 -140.5v-237q0 -104 36.5 -141t140.5 -37t140 37t36 141zM307 172
q0 -82 -71 -82q-72 0 -72 82v267q0 82 72 82q71 0 71 -82v-267zM289 172v267q0 10 -2 22q-10 3 -24 3q-34 0 -45 -17q-9 -13 -9 -47v-267q0 -10 2 -22q11 -3 25 -3q34 0 45 17q8 13 8 47z" />
    <glyph glyph-name="afii10081" unicode="&#x43f;" horiz-adv-x="492" 
d="M465 -39h-138v39h-27v456h-81v-495h-138v39h-27v612h384v-39h27v-612zM420 18v576h-348v-576h102v495h144v-495h102z" />
    <glyph glyph-name="afii10082" unicode="&#x440;" horiz-adv-x="481" 
d="M467 164q0 -111 -15 -147q-27 -65 -119 -65q-37 0 -64 18q-20 13 -50 47v-146h-139v39h-27v702h129v-39h22q54 47 111 47q81 0 107 -64q45 -39 45 -163v-229zM422 203v229q0 132 -51 159q-21 11 -56 11q-22 0 -36 -4q-37 -11 -115 -88v84h-93v-666h103v176q30 -35 45 -50
q32 -32 53 -40q13 -5 34 -5q57 0 82 23.5t31 80.5q3 29 3 90zM316 166q0 -82 -71 -82t-71 82v279q0 82 71 82t71 -82v-279zM298 166v279q0 10 -2 22q-10 3 -24 3q-33 0 -43 -14.5t-10 -49.5v-283q0 -11 1 -18q11 -3 25 -3q34 0 45 17q8 13 8 47z" />
    <glyph glyph-name="afii10083" unicode="&#x441;" horiz-adv-x="468" 
d="M458 148q0 -110 -42.5 -153t-151.5 -43q-142 0 -177 80q-45 42 -45 155v237q0 109 43 152.5t152 43.5q141 0 176 -80q34 -33 42 -102q3 -23 3 -114h-141v39h-27q0 92 -2 104q-10 3 -24 3q-34 0 -45 -17q-9 -13 -9 -47v-279q0 -10 2 -22q11 -3 25 -3q34 0 45 17q8 13 8 47
v82h141v-39h27v-61zM413 230h-105q0 -8 1 -25v-26q0 -95 -72 -95t-72 82v279q0 82 72 82q55 0 68 -50q3 -14 3 -96h105v43q0 104 -36 141t-140 37q-103 0 -140 -37.5t-37 -140.5v-237q0 -104 36.5 -141t140.5 -37q120 0 153 53q23 38 23 168z" />
    <glyph glyph-name="afii10084" unicode="&#x442;" horiz-adv-x="354" 
d="M372 456h-99v-495h-138v39h-27v456h-72v39h-27v117h336v-39h27v-117zM327 513v81h-300v-81h99v-495h102v495h99z" />
    <glyph glyph-name="afii10085" unicode="&#x443;" horiz-adv-x="473" 
d="M456 352q0 -145 -31 -254q-35 -121 -116 -227h-238v39h-27v90h106q-106 161 -106 391v221h139v-39h27q0 -235 1 -256q5 -135 34 -251q36 131 43 270q2 33 2 276h139v-39h27v-221zM411 391v203h-103v-209q0 -173 -71 -413q-72 243 -72 413v209h-103v-203q0 -224 121 -409
h-121v-54h211q77 101 109 219q29 104 29 244z" />
    <glyph glyph-name="afii10086" unicode="&#x444;" horiz-adv-x="698" 
d="M686 167q0 -108 -14 -143q-26 -63 -116 -63q-36 0 -62 17q-18 12 -49 45v-152h-138v39h-27v86q-38 -35 -84 -35q-91 0 -115 63q-30 24 -39 85q-3 25 -3 97v223q0 84 19 125q28 58 102 58q36 0 65 -16q20 -11 55 -41v147h138v-39h27v-86q46 35 93 35q79 0 104 -64
q44 -40 44 -158v-223zM641 206v223q0 80 -14 113q-22 52 -89 52q-37 0 -75 -26q-13 -9 -63 -52v168h-102v-168q-50 43 -63 52q-38 26 -75 26q-67 0 -89 -52q-14 -33 -14 -113v-223q0 -69 4 -97q6 -51 31 -71t77 -20q19 0 30 4q28 10 99 86v-180h102v180q33 -35 46 -48
q33 -31 53 -38q11 -4 30 -4q52 0 77 20t31 70q4 29 4 98zM539 169q0 -79 -68 -79q-71 0 -71 79v273q0 80 71 80q68 0 68 -80v-273zM298 169q0 -79 -71 -79q-68 0 -68 79v273q0 80 68 80q71 0 71 -80v-273zM521 169v273q0 8 -2 20q-9 3 -21 3q-33 0 -43 -14.5t-10 -47.5v-276
q0 -10 1 -16q11 -3 25 -3q31 0 42 17q8 12 8 44zM280 169v276q0 11 -1 17q-11 3 -25 3q-30 0 -41 -18q-9 -13 -9 -44v-276q0 -11 1 -17q6 -2 22 -2q34 0 45 16q8 12 8 45z" />
    <glyph glyph-name="afii10087" unicode="&#x445;" horiz-adv-x="461" 
d="M450 -39h-140v39h-27q0 132 -33 263q-46 -156 -46 -302h-140v39h-27q0 217 62 333q-62 138 -62 279h140l1 -39h26q0 -124 33 -208q46 119 46 247h140l-1 -39h28q0 -137 -61 -278q61 -116 61 -334zM405 18q0 196 -63 315q63 145 63 261h-104q0 -110 -54 -251
q54 -196 54 -325h104zM217 342q-58 135 -58 252h-104q0 -119 64 -262q-64 -119 -64 -314h104q0 130 58 324z" />
    <glyph glyph-name="afii10088" unicode="&#x446;" horiz-adv-x="489" 
d="M514 -129h-117v39h-27v51h-289v39h-27v612h138v-39h27v-459h75v498h138v-39h27v-459h28v-39h27v-204zM469 -72v168h-55v498h-102v-498h-138v498h-102v-576h316v-90h81z" />
    <glyph glyph-name="afii10089" unicode="&#x447;" horiz-adv-x="468" 
d="M441 -39h-138v39h-27v157q-27 -2 -40 -2q-84 0 -128 55q-6 10 -19 29q-8 9 -22 29q-34 57 -34 152v192h135v-39h27v-195q0 -51 5 -74q9 -4 25 -4q22 0 51 9v303h138v-39h27v-612zM396 18v576h-102v-298q-45 -14 -69 -14q-50 0 -66 46q-9 27 -9 89v177h-99v-174
q0 -208 158 -208q30 0 85 9v-203h102z" />
    <glyph glyph-name="afii10090" unicode="&#x448;" horiz-adv-x="684" 
d="M657 -39h-576v39h-27v612h138v-39h27v-459h60v498h126v-39h27v-459h60v498h138v-39h27v-612zM612 18v576h-102v-498h-123v498h-90v-498h-123v498h-102v-576h540z" />
    <glyph glyph-name="afii10091" unicode="&#x449;" horiz-adv-x="687" 
d="M712 -129h-117v39h-27v51h-487v39h-27v612h138v-39h27v-459h60v498h126v-39h27v-459h60v498h138v-39h27v-459h28v-39h27v-204zM667 -72v168h-55v498h-102v-498h-123v498h-90v-498h-123v498h-102v-576h514v-90h81z" />
    <glyph glyph-name="afii10092" unicode="&#x44a;" horiz-adv-x="505" 
d="M505 157q0 -104 -40 -149q-43 -47 -145 -47h-203v39h-27v459h-54v39h-27v114h219v-39h27v-179q21 3 42 3q99 0 143 -56q5 -9 17 -28q8 -9 22 -30q26 -47 26 -126zM460 196q0 94 -34 136q-38 47 -129 47q-28 0 -87 -12v227h-183v-78h81v-498h185q97 0 133 41q34 38 34 137
zM358 196q0 -100 -96 -100h-52v200q41 8 70 8q78 0 78 -108zM340 196q0 28 -3 46q-13 5 -30 5q-25 0 -52 -5v-128h7q44 0 61 19t17 63z" />
    <glyph glyph-name="afii10093" unicode="&#x44b;" horiz-adv-x="664" 
d="M643 -39h-135v39h-27v612h135v-39h27v-612zM445 157q0 -110 -33 -151q-37 -45 -144 -45h-196v39h-27v612h135v-39h27v-179q20 3 37 3q117 0 153 -80q48 -48 48 -160zM598 18v576h-99v-576h99zM400 196q0 95 -30 136q-35 47 -126 47q-21 0 -82 -12v227h-99v-576h178
q101 0 132 39q27 34 27 139zM306 196q0 -100 -97 -100h-47v200q39 8 66 8q78 0 78 -108zM288 196q0 34 -3 46q-13 5 -30 5q-25 0 -48 -5v-128h2q44 0 61.5 19t17.5 63z" />
    <glyph glyph-name="afii10094" unicode="&#x44c;" horiz-adv-x="469" 
d="M469 157q0 -104 -40 -149q-43 -47 -145 -47h-203v39h-27v612h138v-39h27v-179q21 3 42 3q99 0 143 -56q5 -9 17 -28q8 -9 22 -30q26 -47 26 -126zM424 196q0 94 -34 136q-38 47 -129 47q-26 0 -87 -12v227h-102v-576h185q97 0 133 41q34 38 34 137zM322 196
q0 -100 -96 -100h-52v200q41 8 70 8q78 0 78 -108zM304 196q0 28 -3 46q-13 5 -30 5q-25 0 -52 -5v-128h7q44 0 61 19t17 63z" />
    <glyph glyph-name="afii10095" unicode="&#x44d;" horiz-adv-x="462" 
d="M448 159q0 -109 -42 -156q-44 -50 -151 -50q-132 0 -169 81q-33 32 -43 91q-5 32 -5 103h135v-39h27q0 -74 1 -79q11 -3 27 -3q31 0 43 13t12 45v71h-83v39h-27v109h110v63v8q-1 6 -1 8q-11 3 -27 3q-39 0 -49 -22q-6 -12 -6 -58h-135q0 16 2 39h-29q0 110 41 152.5
t149 42.5q139 0 174 -78q46 -43 46 -156v-227zM403 198v227q0 104 -36 140.5t-139 36.5q-98 0 -133 -30q-39 -33 -39 -129h99q0 80 73 80t73 -76v-81h-110v-73h110v-128q0 -76 -73 -76q-53 0 -67 38q-6 17 -6 83h-99v-12q0 -104 34 -144q37 -44 138 -44t139 44q36 40 36 144
z" />
    <glyph glyph-name="afii10096" unicode="&#x44e;" horiz-adv-x="681" 
d="M667 159q0 -106 -41 -154q-43 -52 -147 -52q-127 0 -164 82q-34 34 -43 97q-5 31 -5 109h-51v-280h-135v39h-27v612h135v-39h27v-191h51q0 125 30 173q39 65 155 65q130 0 167 -83q48 -48 48 -162v-216zM622 198v216q0 101 -34 143q-38 45 -136 45q-115 0 -147 -66
q-20 -40 -20 -172h-114v230h-99v-576h99v280h114v-100q0 -101 33 -142q37 -46 134 -46q98 0 136 46q34 41 34 142zM520 166q0 -77 -67 -77q-69 0 -69 72v290q0 72 69 72q67 0 67 -77v-280zM502 166v283q0 10 -1 15q-12 2 -21 2q-29 0 -40 -12t-11 -42v-290v-7q1 -4 1 -6
q6 -2 23 -2q31 0 41 15q8 11 8 44z" />
    <glyph glyph-name="afii10097" unicode="&#x44f;" horiz-adv-x="463" 
d="M447 -39h-140v39h-27v237l-25 -1q-66 -120 -66 -275h-138l1 39h-28q0 154 75 292q-6 10 -19 29q-5 5 -13 16q-34 46 -34 101q0 174 194 174h193v-39h27v-612zM402 18v576h-175q-176 0 -176 -156q0 -78 77 -132q-86 -153 -86 -288h102q0 143 73 275q34 0 81 9v-284h104z
M303 373q-45 -12 -69 -12q-81 0 -81 84q0 74 87 74h63v-146zM285 387v75h-18q-69 0 -69 -56q0 -9 2 -21q14 -6 34 -6q19 0 51 8z" />
    <glyph glyph-name="afii10071" unicode="&#x451;" horiz-adv-x="473" 
d="M388 625h-88v39h-27v99h88v-39h27v-99zM227 625h-87v39h-27v99h87v-39h27v-99zM458 148q0 -110 -42.5 -153t-151.5 -43q-142 0 -177 80q-45 42 -45 155v237q0 109 43 152.5t152 43.5q141 0 176 -80q45 -44 45 -155v-138h-250v-120q0 -10 2 -22q11 -3 27 -3q34 0 46 17
q9 13 9 47v58h139v-39h27v-37zM343 682v63h-52v-63h52zM182 682v63h-51v-63h51zM413 206h-103q0 -64 -7 -83q-14 -39 -66 -39q-74 0 -74 82v138h250v120q0 104 -36 141t-140 37q-103 0 -140 -37.5t-37 -140.5v-237q0 -104 36.5 -141t140.5 -37q111 0 146 44q30 38 30 153z
M310 376h-147v65q0 86 74 86q73 0 73 -86v-65zM292 394v47q0 12 -2 26q-11 3 -26 3q-35 0 -47 -18q-9 -14 -9 -50v-8h84z" />
    <glyph glyph-name="endash" unicode="&#x2013;" horiz-adv-x="512" 
d="M523 226h-480v39h-27v96h480v-39h27v-96zM478 283v60h-444v-60h444z" />
    <glyph glyph-name="emdash" unicode="&#x2014;" horiz-adv-x="1024" 
d="M989 226h-900v39h-27v96h900v-39h27v-96zM944 283v60h-864v-60h864z" />
    <glyph glyph-name="quoteleft" unicode="&#x2018;" horiz-adv-x="223" 
d="M220 441h-142v39h-27v162l99 60l24 -21l-45 -43h7l41 25l24 -21l-8 -8v-35h27v-158zM175 498v122h-91l61 56l-3 3l-73 -47v-134h106z" />
    <glyph glyph-name="quoteright" unicode="&#x2019;" horiz-adv-x="223" 
 />
    <glyph glyph-name="quotesinglbase" unicode="&#x201a;" horiz-adv-x="234" 
d="M215 -43l-99 -60l-24 21l45 43h-7l-41 -25l-24 21l8 8v35h-27v158h142v-39h27v-162zM170 6v134h-106v-122h91l-63 -57l4 -3z" />
    <glyph glyph-name="quotedblleft" unicode="&#x201c;" horiz-adv-x="411" 
d="M409 441h-142v39h-27v162l99 60l24 -21l-45 -43h7l41 25l24 -21l-8 -8v-35h27v-158zM220 441h-142v39h-27v162l99 60l24 -21l-45 -43h7l41 25l24 -21l-8 -8v-35h27v-158zM364 498v122h-91l61 56l-3 3l-73 -47v-134h106zM175 498v122h-91l61 56l-3 3l-73 -47v-134h106z
" />
    <glyph glyph-name="quotedblright" unicode="&#x201d;" horiz-adv-x="411" 
d="M409 501l-99 -60l-24 21l45 43h-7l-41 -25l-24 21l8 8v35h-27v158h142v-39h27v-162zM220 501l-99 -60l-24 21l45 43h-7l-41 -25l-24 21l8 8v35h-27v158h142v-39h27v-162zM364 550v134h-106v-122h91l-63 -57l4 -3zM175 550v134h-106v-122h91l-63 -57l4 -3z" />
    <glyph glyph-name="quotedblbase" unicode="&#x201e;" horiz-adv-x="411" 
d="M409 -51l-99 -60l-24 21l45 43h-7l-41 -25l-24 21l8 8v35h-27v158h142v-39h27v-162zM220 -51l-99 -60l-24 21l45 43h-7l-41 -25l-24 21l8 8v35h-27v158h142v-39h27v-162zM364 -2v134h-106v-122h91l-63 -57l4 -3zM175 -2v134h-106v-122h91l-63 -57l4 -3z" />
    <glyph glyph-name="dagger" unicode="&#x2020;" 
d="M473 392h-148v-503h-102v39h-27v464h-121v39h-27v99h148v172h102v-39h27v-133h121v-39h27v-99zM428 449v63h-148v172h-66v-172h-148v-63h148v-503h66v503h148z" />
    <glyph glyph-name="bullet" unicode="&#x2022;" horiz-adv-x="677" 
d="M523 343q0 -63 -47.5 -106t-111.5 -43q-81 0 -127 60q-6 10 -17 28q-5 5 -14 17q-26 37 -26 83q0 64 48 107q45 41 110 41q80 0 128 -60q5 -10 17 -28q5 -5 14 -17q26 -36 26 -82zM478 382q0 57 -41 93.5t-99 36.5q-59 0 -99.5 -36t-40.5 -94t40 -94.5t99 -36.5
q58 0 99.5 36.5t41.5 94.5z" />
    <glyph glyph-name="ellipsis" unicode="&#x2026;" horiz-adv-x="1168" 
d="M1083 -39h-142v39h-27v158h142v-39h27v-158zM683 -39h-142v39h-27v158h142v-39h27v-158zM282 -39h-142v39h-27v158h142v-39h27v-158zM1038 18v122h-106v-122h106zM638 18v122h-106v-122h106zM237 18v122h-106v-122h106z" />
    <glyph glyph-name="perthousand" unicode="&#x2030;" horiz-adv-x="752" 
d="M753 45q0 -93 -92 -93q-69 0 -85 53q-32 20 -32 79v135q0 94 90 94q71 0 87 -55q32 -23 32 -78v-135zM236 429q0 -95 -93 -95q-69 0 -85 54q-32 23 -32 80v135q0 93 90 93q72 0 88 -55q32 -23 32 -77v-135zM518 648l-428 -687h-59l24 39h-51l429 687h58l-24 -39h51z
M498 45q0 -93 -92 -93q-69 0 -85 53q-32 20 -32 79v135q0 94 90 94q71 0 87 -55q32 -23 32 -78v-135zM708 84v135q0 41 -16.5 58.5t-57.5 17.5t-56.5 -17t-15.5 -59v-135q0 -42 15.5 -58.5t56.5 -16.5t57.5 16.5t16.5 58.5zM191 468v135q0 41 -17 58t-58 17t-56.5 -17
t-15.5 -58v-135q0 -42 15.5 -59.5t56.5 -17.5t58 17.5t17 59.5zM459 669h-16l-407 -651h17zM453 84v135q0 41 -16.5 58.5t-57.5 17.5t-56.5 -17t-15.5 -59v-135q0 -42 15.5 -58.5t56.5 -16.5t57.5 17t16.5 58zM692 77q0 -48 -58 -48q-57 0 -57 48v150q0 47 57 47
q58 0 58 -47v-150zM174 461q0 -49 -58 -49q-56 0 -56 49v149q0 48 56 48q58 0 58 -48v-149zM437 77q0 -48 -57 -48q-58 0 -58 48v150q0 47 57 47q24 0 41 -12t17 -35v-150zM674 77v139q-4 1 -13 1q-39 0 -39 -29v-140q4 -1 12 -1q40 0 40 30zM156 461v139q-4 1 -13 1
q-38 0 -38 -30v-141h11q40 0 40 31zM419 77v139q-4 1 -13 1q-39 0 -39 -29v-140q4 -1 13 -1q39 0 39 30z" />
    <glyph glyph-name="guilsinglleft" unicode="&#x2039;" horiz-adv-x="253" 
d="M251 25h-113l-11 39h-16l-70 239l70 245h113l-11 -39h38l-70 -245zM200 82l-65 221l65 227h-75l-65 -227l64 -221h76z" />
    <glyph glyph-name="guilsinglright" unicode="&#x203a;" horiz-adv-x="253" 
d="M239 269l-70 -244h-113l11 39h-38l71 244l-71 240h113l11 -39h16zM193 308l-65 222h-75l66 -222l-66 -226h75z" />
    <glyph glyph-name="afii61352" unicode="&#x2116;" horiz-adv-x="840" 
d="M821 227q0 -116 -122 -116q-89 0 -113 65q-36 30 -36 90v167q0 115 122 115q90 0 114 -65q35 -30 35 -89v-167zM821 -39h-244v39h-27v90h244v-39h27v-90zM503 -39h-149v39h-27q0 184 -9 241q-15 100 -83 224v-504h-151v39h-27v702h140l26 -39h1q44 -61 103 -190v229h149
v-39h27v-702zM776 266v167q0 97 -104 97t-104 -97v-167q0 -98 104 -98t104 98zM776 18v54h-208v-54h208zM458 18v666h-113v-319q-53 121 -88 194q-22 46 -32 64q-19 36 -37 61h-113v-666h115v561q75 -126 108 -211q47 -120 47 -231v-119h113zM732 262q0 -55 -59 -55
q-61 0 -61 55v176q0 53 60 53t60 -53v-176zM714 262v171q-4 1 -15 1q-42 0 -42 -35v-173q5 -1 16 -1q41 0 41 37z" />
    <glyph glyph-name="trademark" unicode="&#x2122;" horiz-adv-x="853" 
d="M723 458h-67v204l-78 -204h-30l-79 204v-204h-67v273h98l63 -166l61 166h99v-273zM346 675h-84v-217h-74v217h-84v56h242v-56z" />
    <glyph glyph-name="periodcentered" unicode="&#xb7;" horiz-adv-x="234" 
d="M231 309q0 -37 -25.5 -62.5t-62.5 -25.5q-28 0 -51.5 17t-32.5 44q-31 28 -31 66q0 36 26 62t62 26q28 0 51.5 -16.5t32.5 -43.5q31 -24 31 -67zM186 348q0 32 -19.5 51t-50.5 19t-50.5 -19.5t-19.5 -50.5q0 -30 20 -50t50 -20q31 0 50.5 19.5t19.5 50.5z" />
    <glyph glyph-name="periodcentered" unicode="&#x2219;" horiz-adv-x="234" 
d="M231 309q0 -37 -25.5 -62.5t-62.5 -25.5q-28 0 -51.5 17t-32.5 44q-31 28 -31 66q0 36 26 62t62 26q28 0 51.5 -16.5t32.5 -43.5q31 -24 31 -67zM186 348q0 32 -19.5 51t-50.5 19t-50.5 -19.5t-19.5 -50.5q0 -30 20 -50t50 -20q31 0 50.5 19.5t19.5 50.5z" />
    <glyph glyph-name="glyph193" horiz-adv-x="500" 
 />
    <glyph glyph-name="FLW127" horiz-adv-x="1080" 
 />
    </font>
</defs>
</svg>
